<?xml version="1.0" encoding="utf-8" standalone="no"?>
<!DOCTYPE svg PUBLIC "-//W3C//DTD SVG 1.1//EN"
  "http://www.w3.org/Graphics/SVG/1.1/DTD/svg11.dtd">
<svg xmlns:xlink="http://www.w3.org/1999/xlink" width="483.028437pt" height="267.533125pt" viewBox="0 0 483.028437 267.533125" xmlns="http://www.w3.org/2000/svg" version="1.1">
 <metadata>
  <rdf:RDF xmlns:dc="http://purl.org/dc/elements/1.1/" xmlns:cc="http://creativecommons.org/ns#" xmlns:rdf="http://www.w3.org/1999/02/22-rdf-syntax-ns#">
   <cc:Work>
    <dc:type rdf:resource="http://purl.org/dc/dcmitype/StillImage"/>
    <dc:date>2026-02-16T00:23:06.474514</dc:date>
    <dc:format>image/svg+xml</dc:format>
    <dc:creator>
     <cc:Agent>
      <dc:title>Matplotlib v3.10.8, https://matplotlib.org/</dc:title>
     </cc:Agent>
    </dc:creator>
   </cc:Work>
  </rdf:RDF>
 </metadata>
 <defs>
  <style type="text/css">*{stroke-linejoin: round; stroke-linecap: butt}</style>
 </defs>
 <g id="figure_1">
  <g id="patch_1">
   <path d="M 0 267.533125 
L 483.028437 267.533125 
L 483.028437 0 
L 0 0 
z
" style="fill: #0a0f1a"/>
  </g>
  <g id="axes_1">
   <g id="patch_2">
    <path d="M 29.428438 187.061852 
L 475.828437 187.061852 
L 475.828437 24.798438 
L 29.428438 24.798438 
z
" style="fill: #0a0f1a"/>
   </g>
   <g id="patch_3">
    <path d="M 38.788438 173.33849 
L 48.868437 173.33849 
Q 49.156437 173.33849 49.156437 173.004409 
L 49.156437 160.328507 
Q 49.156437 159.994425 48.868437 159.994425 
L 38.788438 159.994425 
Q 38.500438 159.994425 38.500438 160.328507 
L 38.500438 173.004409 
Q 38.500438 173.33849 38.788438 173.33849 
z
" clip-path="url(#p653e829a4e)" style="fill: #ef4444; stroke: #ef4444; stroke-linejoin: miter"/>
   </g>
   <g id="patch_4">
    <path d="M 53.188437 162.745064 
L 63.268437 162.745064 
Q 63.556438 162.745064 63.556438 162.410982 
L 63.556438 139.280177 
Q 63.556438 138.946095 63.268437 138.946095 
L 53.188437 138.946095 
Q 52.900437 138.946095 52.900437 139.280177 
L 52.900437 162.410982 
Q 52.900437 162.745064 53.188437 162.745064 
z
" clip-path="url(#p653e829a4e)" style="fill: #ef4444; stroke: #ef4444; stroke-linejoin: miter"/>
   </g>
   <g id="patch_5">
    <path d="M 67.588437 159.532095 
L 77.668437 159.532095 
Q 77.956437 159.532095 77.956437 159.198013 
L 77.956437 148.416692 
Q 77.956437 148.08261 77.668437 148.08261 
L 67.588437 148.08261 
Q 67.300438 148.08261 67.300438 148.416692 
L 67.300438 159.198013 
Q 67.300438 159.532095 67.588437 159.532095 
z
" clip-path="url(#p653e829a4e)" style="fill: #22c55e; stroke: #22c55e; stroke-linejoin: miter"/>
   </g>
   <g id="patch_6">
    <path d="M 81.988438 158.579522 
L 92.068437 158.579522 
Q 92.356437 158.579522 92.356437 158.24544 
L 92.356437 147.114206 
Q 92.356437 146.780124 92.068437 146.780124 
L 81.988438 146.780124 
Q 81.700437 146.780124 81.700437 147.114206 
L 81.700437 158.24544 
Q 81.700437 158.579522 81.988438 158.579522 
z
" clip-path="url(#p653e829a4e)" style="fill: #22c55e; stroke: #22c55e; stroke-linejoin: miter"/>
   </g>
   <g id="patch_7">
    <path d="M 96.388437 123.917577 
L 106.468437 123.917577 
Q 106.756438 123.917577 106.756438 123.583495 
L 106.756438 111.253218 
Q 106.756438 110.919136 106.468437 110.919136 
L 96.388437 110.919136 
Q 96.100437 110.919136 96.100437 111.253218 
L 96.100437 123.583495 
Q 96.100437 123.917577 96.388437 123.917577 
z
" clip-path="url(#p653e829a4e)" style="fill: #ef4444; stroke: #ef4444; stroke-linejoin: miter"/>
   </g>
   <g id="patch_8">
    <path d="M 110.788437 107.830369 
L 120.868437 107.830369 
Q 121.156438 107.830369 121.156438 107.496287 
L 121.156438 81.793905 
Q 121.156438 81.459823 120.868437 81.459823 
L 110.788437 81.459823 
Q 110.500438 81.459823 110.500438 81.793905 
L 110.500438 107.496287 
Q 110.500438 107.830369 110.788437 107.830369 
z
" clip-path="url(#p653e829a4e)" style="fill: #ef4444; stroke: #ef4444; stroke-linejoin: miter"/>
   </g>
   <g id="patch_9">
    <path d="M 125.188437 104.669689 
L 135.268438 104.669689 
Q 135.556438 104.669689 135.556438 104.335607 
L 135.556438 75.342779 
Q 135.556438 75.008697 135.268438 75.008697 
L 125.188437 75.008697 
Q 124.900438 75.008697 124.900438 75.342779 
L 124.900438 104.335607 
Q 124.900438 104.669689 125.188437 104.669689 
z
" clip-path="url(#p653e829a4e)" style="fill: #ef4444; stroke: #ef4444; stroke-linejoin: miter"/>
   </g>
   <g id="patch_10">
    <path d="M 139.588437 145.065192 
L 149.668438 145.065192 
Q 149.956437 145.065192 149.956437 144.73111 
L 149.956437 122.899867 
Q 149.956437 122.565785 149.668438 122.565785 
L 139.588437 122.565785 
Q 139.300438 122.565785 139.300438 122.899867 
L 139.300438 144.73111 
Q 139.300438 145.065192 139.588437 145.065192 
z
" clip-path="url(#p653e829a4e)" style="fill: #22c55e; stroke: #22c55e; stroke-linejoin: miter"/>
   </g>
   <g id="patch_11">
    <path d="M 153.988438 154.29948 
L 164.068438 154.29948 
Q 164.356437 154.29948 164.356437 153.965398 
L 164.356437 137.715366 
Q 164.356437 137.381284 164.068438 137.381284 
L 153.988438 137.381284 
Q 153.700437 137.381284 153.700437 137.715366 
L 153.700437 153.965398 
Q 153.700437 154.29948 153.988438 154.29948 
z
" clip-path="url(#p653e829a4e)" style="fill: #22c55e; stroke: #22c55e; stroke-linejoin: miter"/>
   </g>
   <g id="patch_12">
    <path d="M 168.388437 131.505671 
L 178.468438 131.505671 
Q 178.756438 131.505671 178.756438 131.171589 
L 178.756438 104.705321 
Q 178.756438 104.371239 178.468438 104.371239 
L 168.388437 104.371239 
Q 168.100437 104.371239 168.100437 104.705321 
L 168.100437 131.171589 
Q 168.100437 131.505671 168.388437 131.505671 
z
" clip-path="url(#p653e829a4e)" style="fill: #ef4444; stroke: #ef4444; stroke-linejoin: miter"/>
   </g>
   <g id="patch_13">
    <path d="M 182.788437 85.676093 
L 192.868437 85.676093 
Q 193.156438 85.676093 193.156438 85.342011 
L 193.156438 62.720914 
Q 193.156438 62.386832 192.868437 62.386832 
L 182.788437 62.386832 
Q 182.500438 62.386832 182.500438 62.720914 
L 182.500438 85.342011 
Q 182.500438 85.676093 182.788437 85.676093 
z
" clip-path="url(#p653e829a4e)" style="fill: #22c55e; stroke: #22c55e; stroke-linejoin: miter"/>
   </g>
   <g id="patch_14">
    <path d="M 197.188437 70.582498 
L 207.268438 70.582498 
Q 207.556438 70.582498 207.556438 70.248416 
L 207.556438 53.627437 
Q 207.556438 53.293355 207.268438 53.293355 
L 197.188437 53.293355 
Q 196.900438 53.293355 196.900438 53.627437 
L 196.900438 70.248416 
Q 196.900438 70.582498 197.188437 70.582498 
z
" clip-path="url(#p653e829a4e)" style="fill: #ef4444; stroke: #ef4444; stroke-linejoin: miter"/>
   </g>
   <g id="patch_15">
    <path d="M 211.588437 74.404841 
L 221.668438 74.404841 
Q 221.956437 74.404841 221.956437 74.07076 
L 221.956437 47.534111 
Q 221.956437 47.200029 221.668438 47.200029 
L 211.588437 47.200029 
Q 211.300438 47.200029 211.300438 47.534111 
L 211.300438 74.07076 
Q 211.300438 74.404841 211.588437 74.404841 
z
" clip-path="url(#p653e829a4e)" style="fill: #22c55e; stroke: #22c55e; stroke-linejoin: miter"/>
   </g>
   <g id="patch_16">
    <path d="M 225.988438 70.936485 
L 236.068438 70.936485 
Q 236.356437 70.936485 236.356437 70.602403 
L 236.356437 52.897991 
Q 236.356437 52.56391 236.068438 52.56391 
L 225.988438 52.56391 
Q 225.700437 52.56391 225.700437 52.897991 
L 225.700437 70.602403 
Q 225.700437 70.936485 225.988438 70.936485 
z
" clip-path="url(#p653e829a4e)" style="fill: #22c55e; stroke: #22c55e; stroke-linejoin: miter"/>
   </g>
   <g id="patch_17">
    <path d="M 240.388437 73.145771 
L 250.468437 73.145771 
Q 250.756438 73.145771 250.756438 72.811689 
L 250.756438 44.020225 
Q 250.756438 43.686143 250.468437 43.686143 
L 240.388437 43.686143 
Q 240.100437 43.686143 240.100437 44.020225 
L 240.100437 72.811689 
Q 240.100437 73.145771 240.388437 73.145771 
z
" clip-path="url(#p653e829a4e)" style="fill: #ef4444; stroke: #ef4444; stroke-linejoin: miter"/>
   </g>
   <g id="patch_18">
    <path d="M 254.788437 69.667702 
L 264.868437 69.667702 
Q 265.156437 69.667702 265.156437 69.33362 
L 265.156437 60.194118 
Q 265.156437 59.860036 264.868437 59.860036 
L 254.788437 59.860036 
Q 254.500438 59.860036 254.500438 60.194118 
L 254.500438 69.33362 
Q 254.500438 69.667702 254.788437 69.667702 
z
" clip-path="url(#p653e829a4e)" style="fill: #22c55e; stroke: #22c55e; stroke-linejoin: miter"/>
   </g>
   <g id="patch_19">
    <path d="M 269.188437 73.596743 
L 279.268438 73.596743 
Q 279.556437 73.596743 279.556437 73.262661 
L 279.556437 61.393675 
Q 279.556437 61.059593 279.268438 61.059593 
L 269.188437 61.059593 
Q 268.900438 61.059593 268.900438 61.393675 
L 268.900438 73.262661 
Q 268.900438 73.596743 269.188437 73.596743 
z
" clip-path="url(#p653e829a4e)" style="fill: #ef4444; stroke: #ef4444; stroke-linejoin: miter"/>
   </g>
   <g id="patch_20">
    <path d="M 283.588437 73.704559 
L 293.668437 73.704559 
Q 293.956437 73.704559 293.956437 73.370477 
L 293.956437 49.591029 
Q 293.956437 49.256947 293.668437 49.256947 
L 283.588437 49.256947 
Q 283.300437 49.256947 283.300437 49.591029 
L 283.300437 73.370477 
Q 283.300437 73.704559 283.588437 73.704559 
z
" clip-path="url(#p653e829a4e)" style="fill: #22c55e; stroke: #22c55e; stroke-linejoin: miter"/>
   </g>
   <g id="patch_21">
    <path d="M 297.988437 93.905183 
L 308.068437 93.905183 
Q 308.356437 93.905183 308.356437 93.571101 
L 308.356437 69.48134 
Q 308.356437 69.147258 308.068437 69.147258 
L 297.988437 69.147258 
Q 297.700437 69.147258 297.700437 69.48134 
L 297.700437 93.571101 
Q 297.700437 93.905183 297.988437 93.905183 
z
" clip-path="url(#p653e829a4e)" style="fill: #22c55e; stroke: #22c55e; stroke-linejoin: miter"/>
   </g>
   <g id="patch_22">
    <path d="M 312.388437 83.647558 
L 322.468437 83.647558 
Q 322.756437 83.647558 322.756437 83.313476 
L 322.756437 59.759012 
Q 322.756437 59.42493 322.468437 59.42493 
L 312.388437 59.42493 
Q 312.100437 59.42493 312.100437 59.759012 
L 312.100437 83.313476 
Q 312.100437 83.647558 312.388437 83.647558 
z
" clip-path="url(#p653e829a4e)" style="fill: #ef4444; stroke: #ef4444; stroke-linejoin: miter"/>
   </g>
   <g id="patch_23">
    <path d="M 326.788437 105.8242 
L 336.868437 105.8242 
Q 337.156437 105.8242 337.156437 105.490118 
L 337.156437 80.056279 
Q 337.156437 79.722197 336.868437 79.722197 
L 326.788437 79.722197 
Q 326.500437 79.722197 326.500437 80.056279 
L 326.500437 105.490118 
Q 326.500437 105.8242 326.788437 105.8242 
z
" clip-path="url(#p653e829a4e)" style="fill: #ef4444; stroke: #ef4444; stroke-linejoin: miter"/>
   </g>
   <g id="patch_24">
    <path d="M 341.188437 108.059361 
L 351.268437 108.059361 
Q 351.556437 108.059361 351.556437 107.725279 
L 351.556437 94.286762 
Q 351.556437 93.95268 351.268437 93.95268 
L 341.188437 93.95268 
Q 340.900437 93.95268 340.900437 94.286762 
L 340.900437 107.725279 
Q 340.900437 108.059361 341.188437 108.059361 
z
" clip-path="url(#p653e829a4e)" style="fill: #22c55e; stroke: #22c55e; stroke-linejoin: miter"/>
   </g>
   <g id="patch_25">
    <path d="M 355.588437 130.534791 
L 365.668437 130.534791 
Q 365.956437 130.534791 365.956437 130.200709 
L 365.956437 120.593634 
Q 365.956437 120.259552 365.668437 120.259552 
L 355.588437 120.259552 
Q 355.300437 120.259552 355.300437 120.593634 
L 355.300437 130.200709 
Q 355.300437 130.534791 355.588437 130.534791 
z
" clip-path="url(#p653e829a4e)" style="fill: #22c55e; stroke: #22c55e; stroke-linejoin: miter"/>
   </g>
   <g id="patch_26">
    <path d="M 369.988437 162.787371 
L 380.068437 162.787371 
Q 380.356437 162.787371 380.356437 162.453289 
L 380.356437 152.848744 
Q 380.356437 152.514662 380.068437 152.514662 
L 369.988437 152.514662 
Q 369.700437 152.514662 369.700437 152.848744 
L 369.700437 162.453289 
Q 369.700437 162.787371 369.988437 162.787371 
z
" clip-path="url(#p653e829a4e)" style="fill: #22c55e; stroke: #22c55e; stroke-linejoin: miter"/>
   </g>
   <g id="patch_27">
    <path d="M 384.388437 152.207904 
L 394.468437 152.207904 
Q 394.756437 152.207904 394.756437 151.873822 
L 394.756437 118.807128 
Q 394.756437 118.473046 394.468437 118.473046 
L 384.388437 118.473046 
Q 384.100437 118.473046 384.100437 118.807128 
L 384.100437 151.873822 
Q 384.100437 152.207904 384.388437 152.207904 
z
" clip-path="url(#p653e829a4e)" style="fill: #ef4444; stroke: #ef4444; stroke-linejoin: miter"/>
   </g>
   <g id="patch_28">
    <path d="M 398.788437 118.305033 
L 408.868437 118.305033 
Q 409.156437 118.305033 409.156437 117.970952 
L 409.156437 86.138025 
Q 409.156437 85.803943 408.868437 85.803943 
L 398.788437 85.803943 
Q 398.500437 85.803943 398.500437 86.138025 
L 398.500437 117.970952 
Q 398.500437 118.305033 398.788437 118.305033 
z
" clip-path="url(#p653e829a4e)" style="fill: #22c55e; stroke: #22c55e; stroke-linejoin: miter"/>
   </g>
   <g id="patch_29">
    <path d="M 413.188437 133.340216 
L 423.268437 133.340216 
Q 423.556437 133.340216 423.556437 133.006134 
L 423.556437 107.55531 
Q 423.556437 107.221228 423.268437 107.221228 
L 413.188437 107.221228 
Q 412.900437 107.221228 412.900437 107.55531 
L 412.900437 133.006134 
Q 412.900437 133.340216 413.188437 133.340216 
z
" clip-path="url(#p653e829a4e)" style="fill: #ef4444; stroke: #ef4444; stroke-linejoin: miter"/>
   </g>
   <g id="patch_30">
    <path d="M 427.588437 90.856367 
L 437.668437 90.856367 
Q 437.956437 90.856367 437.956437 90.522285 
L 437.956437 73.805267 
Q 437.956437 73.471185 437.668437 73.471185 
L 427.588437 73.471185 
Q 427.300437 73.471185 427.300437 73.805267 
L 427.300437 90.522285 
Q 427.300437 90.856367 427.588437 90.856367 
z
" clip-path="url(#p653e829a4e)" style="fill: #ef4444; stroke: #ef4444; stroke-linejoin: miter"/>
   </g>
   <g id="patch_31">
    <path d="M 441.988437 53.973949 
L 452.068437 53.973949 
Q 452.356437 53.973949 452.356437 53.639868 
L 452.356437 48.02243 
Q 452.356437 47.688348 452.068437 47.688348 
L 441.988437 47.688348 
Q 441.700437 47.688348 441.700437 48.02243 
L 441.700437 53.639868 
Q 441.700437 53.973949 441.988437 53.973949 
z
" clip-path="url(#p653e829a4e)" style="fill: #ef4444; stroke: #ef4444; stroke-linejoin: miter"/>
   </g>
   <g id="patch_32">
    <path d="M 456.388437 73.716081 
L 466.468437 73.716081 
Q 466.756437 73.716081 466.756437 73.381999 
L 466.756437 50.909374 
Q 466.756437 50.575292 466.468437 50.575292 
L 456.388437 50.575292 
Q 456.100437 50.575292 456.100437 50.909374 
L 456.100437 73.381999 
Q 456.100437 73.716081 456.388437 73.716081 
z
" clip-path="url(#p653e829a4e)" style="fill: #22c55e; stroke: #22c55e; stroke-linejoin: miter"/>
   </g>
   <g id="matplotlib.axis_1">
    <g id="xtick_1">
     <g id="line2d_1">
      <path d="M 43.828437 187.061852 
L 43.828437 24.798438 
" clip-path="url(#p653e829a4e)" style="fill: none; stroke: #374151; stroke-opacity: 0.1; stroke-width: 0.8; stroke-linecap: square"/>
     </g>
     <g id="line2d_2">
      <defs>
       <path id="m648099938e" d="M 0 0 
L 0 3.5 
" style="stroke: #4b5563; stroke-width: 0.8"/>
      </defs>
      <g>
       <use xlink:href="#m648099938e" x="43.828437" y="187.061852" style="fill: #4b5563; stroke: #4b5563; stroke-width: 0.8"/>
      </g>
     </g>
    </g>
    <g id="xtick_2">
     <g id="line2d_3">
      <path d="M 115.828438 187.061852 
L 115.828438 24.798438 
" clip-path="url(#p653e829a4e)" style="fill: none; stroke: #374151; stroke-opacity: 0.1; stroke-width: 0.8; stroke-linecap: square"/>
     </g>
     <g id="line2d_4">
      <g>
       <use xlink:href="#m648099938e" x="115.828438" y="187.061852" style="fill: #4b5563; stroke: #4b5563; stroke-width: 0.8"/>
      </g>
     </g>
    </g>
    <g id="xtick_3">
     <g id="line2d_5">
      <path d="M 187.828438 187.061852 
L 187.828438 24.798438 
" clip-path="url(#p653e829a4e)" style="fill: none; stroke: #374151; stroke-opacity: 0.1; stroke-width: 0.8; stroke-linecap: square"/>
     </g>
     <g id="line2d_6">
      <g>
       <use xlink:href="#m648099938e" x="187.828438" y="187.061852" style="fill: #4b5563; stroke: #4b5563; stroke-width: 0.8"/>
      </g>
     </g>
    </g>
    <g id="xtick_4">
     <g id="line2d_7">
      <path d="M 259.828437 187.061852 
L 259.828437 24.798438 
" clip-path="url(#p653e829a4e)" style="fill: none; stroke: #374151; stroke-opacity: 0.1; stroke-width: 0.8; stroke-linecap: square"/>
     </g>
     <g id="line2d_8">
      <g>
       <use xlink:href="#m648099938e" x="259.828437" y="187.061852" style="fill: #4b5563; stroke: #4b5563; stroke-width: 0.8"/>
      </g>
     </g>
    </g>
    <g id="xtick_5">
     <g id="line2d_9">
      <path d="M 331.828438 187.061852 
L 331.828438 24.798438 
" clip-path="url(#p653e829a4e)" style="fill: none; stroke: #374151; stroke-opacity: 0.1; stroke-width: 0.8; stroke-linecap: square"/>
     </g>
     <g id="line2d_10">
      <g>
       <use xlink:href="#m648099938e" x="331.828438" y="187.061852" style="fill: #4b5563; stroke: #4b5563; stroke-width: 0.8"/>
      </g>
     </g>
    </g>
    <g id="xtick_6">
     <g id="line2d_11">
      <path d="M 403.828437 187.061852 
L 403.828437 24.798438 
" clip-path="url(#p653e829a4e)" style="fill: none; stroke: #374151; stroke-opacity: 0.1; stroke-width: 0.8; stroke-linecap: square"/>
     </g>
     <g id="line2d_12">
      <g>
       <use xlink:href="#m648099938e" x="403.828437" y="187.061852" style="fill: #4b5563; stroke: #4b5563; stroke-width: 0.8"/>
      </g>
     </g>
    </g>
    <g id="xtick_7">
     <g id="line2d_13">
      <path d="M 475.828437 187.061852 
L 475.828437 24.798438 
" clip-path="url(#p653e829a4e)" style="fill: none; stroke: #374151; stroke-opacity: 0.1; stroke-width: 0.8; stroke-linecap: square"/>
     </g>
     <g id="line2d_14">
      <g>
       <use xlink:href="#m648099938e" x="475.828437" y="187.061852" style="fill: #4b5563; stroke: #4b5563; stroke-width: 0.8"/>
      </g>
     </g>
    </g>
   </g>
   <g id="matplotlib.axis_2">
    <g id="ytick_1">
     <g id="line2d_15">
      <path d="M 29.428438 166.666458 
L 475.828437 166.666458 
" clip-path="url(#p653e829a4e)" style="fill: none; stroke: #374151; stroke-opacity: 0.1; stroke-width: 0.8; stroke-linecap: square"/>
     </g>
     <g id="line2d_16">
      <defs>
       <path id="m84775953b6" d="M 0 0 
L -3.5 0 
" style="stroke: #4b5563; stroke-width: 0.8"/>
      </defs>
      <g>
       <use xlink:href="#m84775953b6" x="29.428438" y="166.666458" style="fill: #4b5563; stroke: #4b5563; stroke-width: 0.8"/>
      </g>
     </g>
     <g id="text_1">
      <!-- 100 -->
      <g style="fill: #4b5563" transform="translate(9.067187 169.325911) scale(0.07 -0.07)">
       <defs>
        <path id="DejaVuSans-31" d="M 794 531 
L 1825 531 
L 1825 4091 
L 703 3866 
L 703 4441 
L 1819 4666 
L 2450 4666 
L 2450 531 
L 3481 531 
L 3481 0 
L 794 0 
L 794 531 
z
" transform="scale(0.015625)"/>
        <path id="DejaVuSans-30" d="M 2034 4250 
Q 1547 4250 1301 3770 
Q 1056 3291 1056 2328 
Q 1056 1369 1301 889 
Q 1547 409 2034 409 
Q 2525 409 2770 889 
Q 3016 1369 3016 2328 
Q 3016 3291 2770 3770 
Q 2525 4250 2034 4250 
z
M 2034 4750 
Q 2819 4750 3233 4129 
Q 3647 3509 3647 2328 
Q 3647 1150 3233 529 
Q 2819 -91 2034 -91 
Q 1250 -91 836 529 
Q 422 1150 422 2328 
Q 422 3509 836 4129 
Q 1250 4750 2034 4750 
z
" transform="scale(0.015625)"/>
       </defs>
       <use xlink:href="#DejaVuSans-31"/>
       <use xlink:href="#DejaVuSans-30" transform="translate(63.623047 0)"/>
       <use xlink:href="#DejaVuSans-30" transform="translate(127.246094 0)"/>
      </g>
     </g>
    </g>
    <g id="ytick_2">
     <g id="line2d_17">
      <path d="M 29.428438 133.258268 
L 475.828437 133.258268 
" clip-path="url(#p653e829a4e)" style="fill: none; stroke: #374151; stroke-opacity: 0.1; stroke-width: 0.8; stroke-linecap: square"/>
     </g>
     <g id="line2d_18">
      <g>
       <use xlink:href="#m84775953b6" x="29.428438" y="133.258268" style="fill: #4b5563; stroke: #4b5563; stroke-width: 0.8"/>
      </g>
     </g>
     <g id="text_2">
      <!-- 102 -->
      <g style="fill: #4b5563" transform="translate(9.067187 135.917721) scale(0.07 -0.07)">
       <defs>
        <path id="DejaVuSans-32" d="M 1228 531 
L 3431 531 
L 3431 0 
L 469 0 
L 469 531 
Q 828 903 1448 1529 
Q 2069 2156 2228 2338 
Q 2531 2678 2651 2914 
Q 2772 3150 2772 3378 
Q 2772 3750 2511 3984 
Q 2250 4219 1831 4219 
Q 1534 4219 1204 4116 
Q 875 4013 500 3803 
L 500 4441 
Q 881 4594 1212 4672 
Q 1544 4750 1819 4750 
Q 2544 4750 2975 4387 
Q 3406 4025 3406 3419 
Q 3406 3131 3298 2873 
Q 3191 2616 2906 2266 
Q 2828 2175 2409 1742 
Q 1991 1309 1228 531 
z
" transform="scale(0.015625)"/>
       </defs>
       <use xlink:href="#DejaVuSans-31"/>
       <use xlink:href="#DejaVuSans-30" transform="translate(63.623047 0)"/>
       <use xlink:href="#DejaVuSans-32" transform="translate(127.246094 0)"/>
      </g>
     </g>
    </g>
    <g id="ytick_3">
     <g id="line2d_19">
      <path d="M 29.428438 99.850079 
L 475.828437 99.850079 
" clip-path="url(#p653e829a4e)" style="fill: none; stroke: #374151; stroke-opacity: 0.1; stroke-width: 0.8; stroke-linecap: square"/>
     </g>
     <g id="line2d_20">
      <g>
       <use xlink:href="#m84775953b6" x="29.428438" y="99.850079" style="fill: #4b5563; stroke: #4b5563; stroke-width: 0.8"/>
      </g>
     </g>
     <g id="text_3">
      <!-- 104 -->
      <g style="fill: #4b5563" transform="translate(9.067187 102.509532) scale(0.07 -0.07)">
       <defs>
        <path id="DejaVuSans-34" d="M 2419 4116 
L 825 1625 
L 2419 1625 
L 2419 4116 
z
M 2253 4666 
L 3047 4666 
L 3047 1625 
L 3713 1625 
L 3713 1100 
L 3047 1100 
L 3047 0 
L 2419 0 
L 2419 1100 
L 313 1100 
L 313 1709 
L 2253 4666 
z
" transform="scale(0.015625)"/>
       </defs>
       <use xlink:href="#DejaVuSans-31"/>
       <use xlink:href="#DejaVuSans-30" transform="translate(63.623047 0)"/>
       <use xlink:href="#DejaVuSans-34" transform="translate(127.246094 0)"/>
      </g>
     </g>
    </g>
    <g id="ytick_4">
     <g id="line2d_21">
      <path d="M 29.428438 66.44189 
L 475.828437 66.44189 
" clip-path="url(#p653e829a4e)" style="fill: none; stroke: #374151; stroke-opacity: 0.1; stroke-width: 0.8; stroke-linecap: square"/>
     </g>
     <g id="line2d_22">
      <g>
       <use xlink:href="#m84775953b6" x="29.428438" y="66.44189" style="fill: #4b5563; stroke: #4b5563; stroke-width: 0.8"/>
      </g>
     </g>
     <g id="text_4">
      <!-- 106 -->
      <g style="fill: #4b5563" transform="translate(9.067187 69.101343) scale(0.07 -0.07)">
       <defs>
        <path id="DejaVuSans-36" d="M 2113 2584 
Q 1688 2584 1439 2293 
Q 1191 2003 1191 1497 
Q 1191 994 1439 701 
Q 1688 409 2113 409 
Q 2538 409 2786 701 
Q 3034 994 3034 1497 
Q 3034 2003 2786 2293 
Q 2538 2584 2113 2584 
z
M 3366 4563 
L 3366 3988 
Q 3128 4100 2886 4159 
Q 2644 4219 2406 4219 
Q 1781 4219 1451 3797 
Q 1122 3375 1075 2522 
Q 1259 2794 1537 2939 
Q 1816 3084 2150 3084 
Q 2853 3084 3261 2657 
Q 3669 2231 3669 1497 
Q 3669 778 3244 343 
Q 2819 -91 2113 -91 
Q 1303 -91 875 529 
Q 447 1150 447 2328 
Q 447 3434 972 4092 
Q 1497 4750 2381 4750 
Q 2619 4750 2861 4703 
Q 3103 4656 3366 4563 
z
" transform="scale(0.015625)"/>
       </defs>
       <use xlink:href="#DejaVuSans-31"/>
       <use xlink:href="#DejaVuSans-30" transform="translate(63.623047 0)"/>
       <use xlink:href="#DejaVuSans-36" transform="translate(127.246094 0)"/>
      </g>
     </g>
    </g>
    <g id="ytick_5">
     <g id="line2d_23">
      <path d="M 29.428438 33.0337 
L 475.828437 33.0337 
" clip-path="url(#p653e829a4e)" style="fill: none; stroke: #374151; stroke-opacity: 0.1; stroke-width: 0.8; stroke-linecap: square"/>
     </g>
     <g id="line2d_24">
      <g>
       <use xlink:href="#m84775953b6" x="29.428438" y="33.0337" style="fill: #4b5563; stroke: #4b5563; stroke-width: 0.8"/>
      </g>
     </g>
     <g id="text_5">
      <!-- 108 -->
      <g style="fill: #4b5563" transform="translate(9.067187 35.693153) scale(0.07 -0.07)">
       <defs>
        <path id="DejaVuSans-38" d="M 2034 2216 
Q 1584 2216 1326 1975 
Q 1069 1734 1069 1313 
Q 1069 891 1326 650 
Q 1584 409 2034 409 
Q 2484 409 2743 651 
Q 3003 894 3003 1313 
Q 3003 1734 2745 1975 
Q 2488 2216 2034 2216 
z
M 1403 2484 
Q 997 2584 770 2862 
Q 544 3141 544 3541 
Q 544 4100 942 4425 
Q 1341 4750 2034 4750 
Q 2731 4750 3128 4425 
Q 3525 4100 3525 3541 
Q 3525 3141 3298 2862 
Q 3072 2584 2669 2484 
Q 3125 2378 3379 2068 
Q 3634 1759 3634 1313 
Q 3634 634 3220 271 
Q 2806 -91 2034 -91 
Q 1263 -91 848 271 
Q 434 634 434 1313 
Q 434 1759 690 2068 
Q 947 2378 1403 2484 
z
M 1172 3481 
Q 1172 3119 1398 2916 
Q 1625 2713 2034 2713 
Q 2441 2713 2670 2916 
Q 2900 3119 2900 3481 
Q 2900 3844 2670 4047 
Q 2441 4250 2034 4250 
Q 1625 4250 1398 4047 
Q 1172 3844 1172 3481 
z
" transform="scale(0.015625)"/>
       </defs>
       <use xlink:href="#DejaVuSans-31"/>
       <use xlink:href="#DejaVuSans-30" transform="translate(63.623047 0)"/>
       <use xlink:href="#DejaVuSans-38" transform="translate(127.246094 0)"/>
      </g>
     </g>
    </g>
   </g>
   <g id="line2d_25">
    <path d="M 43.828437 178.09903 
L 43.828437 145.497735 
" clip-path="url(#p653e829a4e)" style="fill: none; stroke: #ef4444; stroke-width: 0.8; stroke-linecap: square"/>
   </g>
   <g id="line2d_26">
    <path d="M 58.228437 167.223904 
L 58.228437 125.240244 
" clip-path="url(#p653e829a4e)" style="fill: none; stroke: #ef4444; stroke-width: 0.8; stroke-linecap: square"/>
   </g>
   <g id="line2d_27">
    <path d="M 72.628437 178.62538 
L 72.628437 124.805175 
" clip-path="url(#p653e829a4e)" style="fill: none; stroke: #22c55e; stroke-width: 0.8; stroke-linecap: square"/>
   </g>
   <g id="line2d_28">
    <path d="M 87.028437 177.133499 
L 87.028437 133.301779 
" clip-path="url(#p653e829a4e)" style="fill: none; stroke: #22c55e; stroke-width: 0.8; stroke-linecap: square"/>
   </g>
   <g id="line2d_29">
    <path d="M 101.428438 143.986689 
L 101.428438 94.915658 
" clip-path="url(#p653e829a4e)" style="fill: none; stroke: #ef4444; stroke-width: 0.8; stroke-linecap: square"/>
   </g>
   <g id="line2d_30">
    <path d="M 115.828438 126.91026 
L 115.828438 76.706104 
" clip-path="url(#p653e829a4e)" style="fill: none; stroke: #ef4444; stroke-width: 0.8; stroke-linecap: square"/>
   </g>
   <g id="line2d_31">
    <path d="M 130.228437 112.932237 
L 130.228437 67.335717 
" clip-path="url(#p653e829a4e)" style="fill: none; stroke: #ef4444; stroke-width: 0.8; stroke-linecap: square"/>
   </g>
   <g id="line2d_32">
    <path d="M 144.628437 150.503741 
L 144.628437 111.861044 
" clip-path="url(#p653e829a4e)" style="fill: none; stroke: #22c55e; stroke-width: 0.8; stroke-linecap: square"/>
   </g>
   <g id="line2d_33">
    <path d="M 159.028437 174.558949 
L 159.028437 116.345158 
" clip-path="url(#p653e829a4e)" style="fill: none; stroke: #22c55e; stroke-width: 0.8; stroke-linecap: square"/>
   </g>
   <g id="line2d_34">
    <path d="M 173.428438 150.457718 
L 173.428438 100.100986 
" clip-path="url(#p653e829a4e)" style="fill: none; stroke: #ef4444; stroke-width: 0.8; stroke-linecap: square"/>
   </g>
   <g id="line2d_35">
    <path d="M 187.828438 109.309402 
L 187.828438 56.492327 
" clip-path="url(#p653e829a4e)" style="fill: none; stroke: #22c55e; stroke-width: 0.8; stroke-linecap: square"/>
   </g>
   <g id="line2d_36">
    <path d="M 202.228437 72.590482 
L 202.228437 46.023999 
" clip-path="url(#p653e829a4e)" style="fill: none; stroke: #ef4444; stroke-width: 0.8; stroke-linecap: square"/>
   </g>
   <g id="line2d_37">
    <path d="M 216.628437 93.589746 
L 216.628437 39.116932 
" clip-path="url(#p653e829a4e)" style="fill: none; stroke: #22c55e; stroke-width: 0.8; stroke-linecap: square"/>
   </g>
   <g id="line2d_38">
    <path d="M 231.028437 90.64963 
L 231.028437 45.580743 
" clip-path="url(#p653e829a4e)" style="fill: none; stroke: #22c55e; stroke-width: 0.8; stroke-linecap: square"/>
   </g>
   <g id="line2d_39">
    <path d="M 245.428437 94.634004 
L 245.428437 32.174047 
" clip-path="url(#p653e829a4e)" style="fill: none; stroke: #ef4444; stroke-width: 0.8; stroke-linecap: square"/>
   </g>
   <g id="line2d_40">
    <path d="M 259.828437 82.381671 
L 259.828437 58.063707 
" clip-path="url(#p653e829a4e)" style="fill: none; stroke: #22c55e; stroke-width: 0.8; stroke-linecap: square"/>
   </g>
   <g id="line2d_41">
    <path d="M 274.228437 96.543287 
L 274.228437 55.808204 
" clip-path="url(#p653e829a4e)" style="fill: none; stroke: #ef4444; stroke-width: 0.8; stroke-linecap: square"/>
   </g>
   <g id="line2d_42">
    <path d="M 288.628437 94.565115 
L 288.628437 36.861778 
" clip-path="url(#p653e829a4e)" style="fill: none; stroke: #22c55e; stroke-width: 0.8; stroke-linecap: square"/>
   </g>
   <g id="line2d_43">
    <path d="M 303.028437 113.541353 
L 303.028437 44.476169 
" clip-path="url(#p653e829a4e)" style="fill: none; stroke: #22c55e; stroke-width: 0.8; stroke-linecap: square"/>
   </g>
   <g id="line2d_44">
    <path d="M 317.428437 101.472089 
L 317.428437 34.711778 
" clip-path="url(#p653e829a4e)" style="fill: none; stroke: #ef4444; stroke-width: 0.8; stroke-linecap: square"/>
   </g>
   <g id="line2d_45">
    <path d="M 331.828438 107.340656 
L 331.828438 57.393496 
" clip-path="url(#p653e829a4e)" style="fill: none; stroke: #ef4444; stroke-width: 0.8; stroke-linecap: square"/>
   </g>
   <g id="line2d_46">
    <path d="M 346.228437 127.044172 
L 346.228437 85.956812 
" clip-path="url(#p653e829a4e)" style="fill: none; stroke: #22c55e; stroke-width: 0.8; stroke-linecap: square"/>
   </g>
   <g id="line2d_47">
    <path d="M 360.628437 141.54199 
L 360.628437 108.734964 
" clip-path="url(#p653e829a4e)" style="fill: none; stroke: #22c55e; stroke-width: 0.8; stroke-linecap: square"/>
   </g>
   <g id="line2d_48">
    <path d="M 375.028437 179.686242 
L 375.028437 145.675357 
" clip-path="url(#p653e829a4e)" style="fill: none; stroke: #22c55e; stroke-width: 0.8; stroke-linecap: square"/>
   </g>
   <g id="line2d_49">
    <path d="M 389.428437 176.023803 
L 389.428437 113.12272 
" clip-path="url(#p653e829a4e)" style="fill: none; stroke: #ef4444; stroke-width: 0.8; stroke-linecap: square"/>
   </g>
   <g id="line2d_50">
    <path d="M 403.828437 139.236352 
L 403.828437 64.536165 
" clip-path="url(#p653e829a4e)" style="fill: none; stroke: #22c55e; stroke-width: 0.8; stroke-linecap: square"/>
   </g>
   <g id="line2d_51">
    <path d="M 418.228437 134.993905 
L 418.228437 88.235085 
" clip-path="url(#p653e829a4e)" style="fill: none; stroke: #ef4444; stroke-width: 0.8; stroke-linecap: square"/>
   </g>
   <g id="line2d_52">
    <path d="M 432.628437 105.140857 
L 432.628437 68.720562 
" clip-path="url(#p653e829a4e)" style="fill: none; stroke: #ef4444; stroke-width: 0.8; stroke-linecap: square"/>
   </g>
   <g id="line2d_53">
    <path d="M 447.028437 78.368308 
L 447.028437 41.575047 
" clip-path="url(#p653e829a4e)" style="fill: none; stroke: #ef4444; stroke-width: 0.8; stroke-linecap: square"/>
   </g>
   <g id="line2d_54">
    <path d="M 461.428437 90.37802 
L 461.428437 33.169329 
" clip-path="url(#p653e829a4e)" style="fill: none; stroke: #22c55e; stroke-width: 0.8; stroke-linecap: square"/>
   </g>
   <g id="patch_33">
    <path d="M 29.428438 187.061852 
L 29.428438 24.798438 
" style="fill: none; stroke: #1f2937; stroke-width: 0.8; stroke-linejoin: miter; stroke-linecap: square"/>
   </g>
   <g id="patch_34">
    <path d="M 29.428438 187.061852 
L 475.828437 187.061852 
" style="fill: none; stroke: #1f2937; stroke-width: 0.8; stroke-linejoin: miter; stroke-linecap: square"/>
   </g>
   <g id="text_6">
    <!-- On-Neck Line — GOOGL 4H -->
    <g style="fill: #ffffff" transform="translate(177.506562 14.798438) scale(0.1 -0.1)">
     <defs>
      <path id="DejaVuSans-Bold-4f" d="M 2719 3878 
Q 2169 3878 1866 3472 
Q 1563 3066 1563 2328 
Q 1563 1594 1866 1187 
Q 2169 781 2719 781 
Q 3272 781 3575 1187 
Q 3878 1594 3878 2328 
Q 3878 3066 3575 3472 
Q 3272 3878 2719 3878 
z
M 2719 4750 
Q 3844 4750 4481 4106 
Q 5119 3463 5119 2328 
Q 5119 1197 4481 553 
Q 3844 -91 2719 -91 
Q 1597 -91 958 553 
Q 319 1197 319 2328 
Q 319 3463 958 4106 
Q 1597 4750 2719 4750 
z
" transform="scale(0.015625)"/>
      <path id="DejaVuSans-Bold-6e" d="M 4056 2131 
L 4056 0 
L 2931 0 
L 2931 347 
L 2931 1631 
Q 2931 2084 2911 2256 
Q 2891 2428 2841 2509 
Q 2775 2619 2662 2680 
Q 2550 2741 2406 2741 
Q 2056 2741 1856 2470 
Q 1656 2200 1656 1722 
L 1656 0 
L 538 0 
L 538 3500 
L 1656 3500 
L 1656 2988 
Q 1909 3294 2193 3439 
Q 2478 3584 2822 3584 
Q 3428 3584 3742 3212 
Q 4056 2841 4056 2131 
z
" transform="scale(0.015625)"/>
      <path id="DejaVuSans-Bold-2d" d="M 347 2297 
L 2309 2297 
L 2309 1388 
L 347 1388 
L 347 2297 
z
" transform="scale(0.015625)"/>
      <path id="DejaVuSans-Bold-4e" d="M 588 4666 
L 1931 4666 
L 3628 1466 
L 3628 4666 
L 4769 4666 
L 4769 0 
L 3425 0 
L 1728 3200 
L 1728 0 
L 588 0 
L 588 4666 
z
" transform="scale(0.015625)"/>
      <path id="DejaVuSans-Bold-65" d="M 4031 1759 
L 4031 1441 
L 1416 1441 
Q 1456 1047 1700 850 
Q 1944 653 2381 653 
Q 2734 653 3104 758 
Q 3475 863 3866 1075 
L 3866 213 
Q 3469 63 3072 -14 
Q 2675 -91 2278 -91 
Q 1328 -91 801 392 
Q 275 875 275 1747 
Q 275 2603 792 3093 
Q 1309 3584 2216 3584 
Q 3041 3584 3536 3087 
Q 4031 2591 4031 1759 
z
M 2881 2131 
Q 2881 2450 2695 2645 
Q 2509 2841 2209 2841 
Q 1884 2841 1681 2658 
Q 1478 2475 1428 2131 
L 2881 2131 
z
" transform="scale(0.015625)"/>
      <path id="DejaVuSans-Bold-63" d="M 3366 3391 
L 3366 2478 
Q 3138 2634 2908 2709 
Q 2678 2784 2431 2784 
Q 1963 2784 1702 2511 
Q 1441 2238 1441 1747 
Q 1441 1256 1702 982 
Q 1963 709 2431 709 
Q 2694 709 2930 787 
Q 3166 866 3366 1019 
L 3366 103 
Q 3103 6 2833 -42 
Q 2563 -91 2291 -91 
Q 1344 -91 809 395 
Q 275 881 275 1747 
Q 275 2613 809 3098 
Q 1344 3584 2291 3584 
Q 2566 3584 2833 3536 
Q 3100 3488 3366 3391 
z
" transform="scale(0.015625)"/>
      <path id="DejaVuSans-Bold-6b" d="M 538 4863 
L 1656 4863 
L 1656 2216 
L 2944 3500 
L 4244 3500 
L 2534 1894 
L 4378 0 
L 3022 0 
L 1656 1459 
L 1656 0 
L 538 0 
L 538 4863 
z
" transform="scale(0.015625)"/>
      <path id="DejaVuSans-Bold-20" transform="scale(0.015625)"/>
      <path id="DejaVuSans-Bold-4c" d="M 588 4666 
L 1791 4666 
L 1791 909 
L 3903 909 
L 3903 0 
L 588 0 
L 588 4666 
z
" transform="scale(0.015625)"/>
      <path id="DejaVuSans-Bold-69" d="M 538 3500 
L 1656 3500 
L 1656 0 
L 538 0 
L 538 3500 
z
M 538 4863 
L 1656 4863 
L 1656 3950 
L 538 3950 
L 538 4863 
z
" transform="scale(0.015625)"/>
      <path id="DejaVuSans-Bold-2014" d="M 344 2156 
L 6056 2156 
L 6056 1350 
L 344 1350 
L 344 2156 
z
" transform="scale(0.015625)"/>
      <path id="DejaVuSans-Bold-47" d="M 4781 347 
Q 4331 128 3847 18 
Q 3363 -91 2847 -91 
Q 1681 -91 1000 561 
Q 319 1213 319 2328 
Q 319 3456 1012 4103 
Q 1706 4750 2913 4750 
Q 3378 4750 3804 4662 
Q 4231 4575 4609 4403 
L 4609 3438 
Q 4219 3659 3833 3768 
Q 3447 3878 3059 3878 
Q 2341 3878 1952 3476 
Q 1563 3075 1563 2328 
Q 1563 1588 1938 1184 
Q 2313 781 3003 781 
Q 3191 781 3352 804 
Q 3513 828 3641 878 
L 3641 1784 
L 2906 1784 
L 2906 2591 
L 4781 2591 
L 4781 347 
z
" transform="scale(0.015625)"/>
      <path id="DejaVuSans-Bold-34" d="M 2356 3675 
L 1038 1722 
L 2356 1722 
L 2356 3675 
z
M 2156 4666 
L 3494 4666 
L 3494 1722 
L 4159 1722 
L 4159 850 
L 3494 850 
L 3494 0 
L 2356 0 
L 2356 850 
L 288 850 
L 288 1881 
L 2156 4666 
z
" transform="scale(0.015625)"/>
      <path id="DejaVuSans-Bold-48" d="M 588 4666 
L 1791 4666 
L 1791 2888 
L 3566 2888 
L 3566 4666 
L 4769 4666 
L 4769 0 
L 3566 0 
L 3566 1978 
L 1791 1978 
L 1791 0 
L 588 0 
L 588 4666 
z
" transform="scale(0.015625)"/>
     </defs>
     <use xlink:href="#DejaVuSans-Bold-4f"/>
     <use xlink:href="#DejaVuSans-Bold-6e" transform="translate(85.009766 0)"/>
     <use xlink:href="#DejaVuSans-Bold-2d" transform="translate(156.201172 0)"/>
     <use xlink:href="#DejaVuSans-Bold-4e" transform="translate(197.705078 0)"/>
     <use xlink:href="#DejaVuSans-Bold-65" transform="translate(281.396484 0)"/>
     <use xlink:href="#DejaVuSans-Bold-63" transform="translate(349.21875 0)"/>
     <use xlink:href="#DejaVuSans-Bold-6b" transform="translate(408.496094 0)"/>
     <use xlink:href="#DejaVuSans-Bold-20" transform="translate(475 0)"/>
     <use xlink:href="#DejaVuSans-Bold-4c" transform="translate(509.814453 0)"/>
     <use xlink:href="#DejaVuSans-Bold-69" transform="translate(573.535156 0)"/>
     <use xlink:href="#DejaVuSans-Bold-6e" transform="translate(607.8125 0)"/>
     <use xlink:href="#DejaVuSans-Bold-65" transform="translate(679.003906 0)"/>
     <use xlink:href="#DejaVuSans-Bold-20" transform="translate(746.826172 0)"/>
     <use xlink:href="#DejaVuSans-Bold-2014" transform="translate(781.640625 0)"/>
     <use xlink:href="#DejaVuSans-Bold-20" transform="translate(881.640625 0)"/>
     <use xlink:href="#DejaVuSans-Bold-47" transform="translate(916.455078 0)"/>
     <use xlink:href="#DejaVuSans-Bold-4f" transform="translate(998.535156 0)"/>
     <use xlink:href="#DejaVuSans-Bold-4f" transform="translate(1083.544922 0)"/>
     <use xlink:href="#DejaVuSans-Bold-47" transform="translate(1168.554688 0)"/>
     <use xlink:href="#DejaVuSans-Bold-4c" transform="translate(1250.634766 0)"/>
     <use xlink:href="#DejaVuSans-Bold-20" transform="translate(1314.355469 0)"/>
     <use xlink:href="#DejaVuSans-Bold-34" transform="translate(1349.169922 0)"/>
     <use xlink:href="#DejaVuSans-Bold-48" transform="translate(1418.75 0)"/>
    </g>
   </g>
  </g>
  <g id="axes_2">
   <g id="patch_35">
    <path d="M 29.428438 246.558438 
L 475.828437 246.558438 
L 475.828437 192.470633 
L 29.428438 192.470633 
z
" style="fill: #0a0f1a"/>
   </g>
   <g id="patch_36">
    <path d="M 49.719347 246.558438 
L 59.284085 246.558438 
L 59.284085 205.942869 
L 49.719347 205.942869 
z
" clip-path="url(#p2b98e86da0)" style="fill: #ef4444; fill-opacity: 0.533333"/>
   </g>
   <g id="patch_37">
    <path d="M 63.383258 246.558438 
L 72.947997 246.558438 
L 72.947997 204.082517 
L 63.383258 204.082517 
z
" clip-path="url(#p2b98e86da0)" style="fill: #ef4444; fill-opacity: 0.533333"/>
   </g>
   <g id="patch_38">
    <path d="M 77.04717 246.558438 
L 86.611909 246.558438 
L 86.611909 234.542054 
L 77.04717 234.542054 
z
" clip-path="url(#p2b98e86da0)" style="fill: #22c55e; fill-opacity: 0.533333"/>
   </g>
   <g id="patch_39">
    <path d="M 90.711082 246.558438 
L 100.27582 246.558438 
L 100.27582 209.751737 
L 90.711082 209.751737 
z
" clip-path="url(#p2b98e86da0)" style="fill: #22c55e; fill-opacity: 0.533333"/>
   </g>
   <g id="patch_40">
    <path d="M 104.374994 246.558438 
L 113.939732 246.558438 
L 113.939732 222.038985 
L 104.374994 222.038985 
z
" clip-path="url(#p2b98e86da0)" style="fill: #ef4444; fill-opacity: 0.533333"/>
   </g>
   <g id="patch_41">
    <path d="M 118.038906 246.558438 
L 127.603644 246.558438 
L 127.603644 220.342111 
L 118.038906 220.342111 
z
" clip-path="url(#p2b98e86da0)" style="fill: #ef4444; fill-opacity: 0.533333"/>
   </g>
   <g id="patch_42">
    <path d="M 131.702818 246.558438 
L 141.267556 246.558438 
L 141.267556 210.337437 
L 131.702818 210.337437 
z
" clip-path="url(#p2b98e86da0)" style="fill: #ef4444; fill-opacity: 0.533333"/>
   </g>
   <g id="patch_43">
    <path d="M 145.36673 246.558438 
L 154.931468 246.558438 
L 154.931468 217.173442 
L 145.36673 217.173442 
z
" clip-path="url(#p2b98e86da0)" style="fill: #22c55e; fill-opacity: 0.533333"/>
   </g>
   <g id="patch_44">
    <path d="M 159.030641 246.558438 
L 168.59538 246.558438 
L 168.59538 195.865762 
L 159.030641 195.865762 
z
" clip-path="url(#p2b98e86da0)" style="fill: #22c55e; fill-opacity: 0.533333"/>
   </g>
   <g id="patch_45">
    <path d="M 172.694553 246.558438 
L 182.259291 246.558438 
L 182.259291 217.26243 
L 172.694553 217.26243 
z
" clip-path="url(#p2b98e86da0)" style="fill: #ef4444; fill-opacity: 0.533333"/>
   </g>
   <g id="patch_46">
    <path d="M 186.358465 246.558438 
L 195.923203 246.558438 
L 195.923203 217.820124 
L 186.358465 217.820124 
z
" clip-path="url(#p2b98e86da0)" style="fill: #22c55e; fill-opacity: 0.533333"/>
   </g>
   <g id="patch_47">
    <path d="M 200.022377 246.558438 
L 209.587115 246.558438 
L 209.587115 196.249095 
L 200.022377 196.249095 
z
" clip-path="url(#p2b98e86da0)" style="fill: #ef4444; fill-opacity: 0.533333"/>
   </g>
   <g id="patch_48">
    <path d="M 213.686289 246.558438 
L 223.251027 246.558438 
L 223.251027 228.217414 
L 213.686289 228.217414 
z
" clip-path="url(#p2b98e86da0)" style="fill: #22c55e; fill-opacity: 0.533333"/>
   </g>
   <g id="patch_49">
    <path d="M 227.350201 246.558438 
L 236.914939 246.558438 
L 236.914939 214.807795 
L 227.350201 214.807795 
z
" clip-path="url(#p2b98e86da0)" style="fill: #22c55e; fill-opacity: 0.533333"/>
   </g>
   <g id="patch_50">
    <path d="M 241.014112 246.558438 
L 250.578851 246.558438 
L 250.578851 212.873176 
L 241.014112 212.873176 
z
" clip-path="url(#p2b98e86da0)" style="fill: #ef4444; fill-opacity: 0.533333"/>
   </g>
   <g id="patch_51">
    <path d="M 254.678024 246.558438 
L 264.242763 246.558438 
L 264.242763 196.035043 
L 254.678024 196.035043 
z
" clip-path="url(#p2b98e86da0)" style="fill: #22c55e; fill-opacity: 0.533333"/>
   </g>
   <g id="patch_52">
    <path d="M 268.341936 246.558438 
L 277.906674 246.558438 
L 277.906674 221.255587 
L 268.341936 221.255587 
z
" clip-path="url(#p2b98e86da0)" style="fill: #ef4444; fill-opacity: 0.533333"/>
   </g>
   <g id="patch_53">
    <path d="M 282.005848 246.558438 
L 291.570586 246.558438 
L 291.570586 204.773826 
L 282.005848 204.773826 
z
" clip-path="url(#p2b98e86da0)" style="fill: #22c55e; fill-opacity: 0.533333"/>
   </g>
   <g id="patch_54">
    <path d="M 295.66976 246.558438 
L 305.234498 246.558438 
L 305.234498 217.448298 
L 295.66976 217.448298 
z
" clip-path="url(#p2b98e86da0)" style="fill: #22c55e; fill-opacity: 0.533333"/>
   </g>
   <g id="patch_55">
    <path d="M 309.333672 246.558438 
L 318.89841 246.558438 
L 318.89841 226.938382 
L 309.333672 226.938382 
z
" clip-path="url(#p2b98e86da0)" style="fill: #ef4444; fill-opacity: 0.533333"/>
   </g>
   <g id="patch_56">
    <path d="M 322.997584 246.558438 
L 332.562322 246.558438 
L 332.562322 195.046242 
L 322.997584 195.046242 
z
" clip-path="url(#p2b98e86da0)" style="fill: #ef4444; fill-opacity: 0.533333"/>
   </g>
   <g id="patch_57">
    <path d="M 336.661495 246.558438 
L 346.226234 246.558438 
L 346.226234 195.864461 
L 336.661495 195.864461 
z
" clip-path="url(#p2b98e86da0)" style="fill: #22c55e; fill-opacity: 0.533333"/>
   </g>
   <g id="patch_58">
    <path d="M 350.325407 246.558438 
L 359.890145 246.558438 
L 359.890145 208.778146 
L 350.325407 208.778146 
z
" clip-path="url(#p2b98e86da0)" style="fill: #22c55e; fill-opacity: 0.533333"/>
   </g>
   <g id="patch_59">
    <path d="M 363.989319 246.558438 
L 373.554057 246.558438 
L 373.554057 205.441787 
L 363.989319 205.441787 
z
" clip-path="url(#p2b98e86da0)" style="fill: #22c55e; fill-opacity: 0.533333"/>
   </g>
   <g id="patch_60">
    <path d="M 377.653231 246.558438 
L 387.217969 246.558438 
L 387.217969 213.882923 
L 377.653231 213.882923 
z
" clip-path="url(#p2b98e86da0)" style="fill: #ef4444; fill-opacity: 0.533333"/>
   </g>
   <g id="patch_61">
    <path d="M 391.317143 246.558438 
L 400.881881 246.558438 
L 400.881881 211.38962 
L 391.317143 211.38962 
z
" clip-path="url(#p2b98e86da0)" style="fill: #22c55e; fill-opacity: 0.533333"/>
   </g>
   <g id="patch_62">
    <path d="M 404.981055 246.558438 
L 414.545793 246.558438 
L 414.545793 216.509928 
L 404.981055 216.509928 
z
" clip-path="url(#p2b98e86da0)" style="fill: #ef4444; fill-opacity: 0.533333"/>
   </g>
   <g id="patch_63">
    <path d="M 418.644966 246.558438 
L 428.209705 246.558438 
L 428.209705 211.856726 
L 418.644966 211.856726 
z
" clip-path="url(#p2b98e86da0)" style="fill: #ef4444; fill-opacity: 0.533333"/>
   </g>
   <g id="patch_64">
    <path d="M 432.308878 246.558438 
L 441.873617 246.558438 
L 441.873617 203.483231 
L 432.308878 203.483231 
z
" clip-path="url(#p2b98e86da0)" style="fill: #ef4444; fill-opacity: 0.533333"/>
   </g>
   <g id="patch_65">
    <path d="M 445.97279 246.558438 
L 455.537528 246.558438 
L 455.537528 210.638453 
L 445.97279 210.638453 
z
" clip-path="url(#p2b98e86da0)" style="fill: #22c55e; fill-opacity: 0.533333"/>
   </g>
   <g id="matplotlib.axis_3">
    <g id="xtick_8">
     <g id="line2d_55">
      <path d="M 54.501716 246.558438 
L 54.501716 192.470633 
" clip-path="url(#p2b98e86da0)" style="fill: none; stroke: #374151; stroke-opacity: 0.1; stroke-width: 0.8; stroke-linecap: square"/>
     </g>
     <g id="line2d_56">
      <g>
       <use xlink:href="#m648099938e" x="54.501716" y="246.558438" style="fill: #4b5563; stroke: #4b5563; stroke-width: 0.8"/>
      </g>
     </g>
     <g id="text_7">
      <!-- 0 -->
      <g style="fill: #4b5563" transform="translate(52.274841 258.877344) scale(0.07 -0.07)">
       <use xlink:href="#DejaVuSans-30"/>
      </g>
     </g>
    </g>
    <g id="xtick_9">
     <g id="line2d_57">
      <path d="M 122.821275 246.558438 
L 122.821275 192.470633 
" clip-path="url(#p2b98e86da0)" style="fill: none; stroke: #374151; stroke-opacity: 0.1; stroke-width: 0.8; stroke-linecap: square"/>
     </g>
     <g id="line2d_58">
      <g>
       <use xlink:href="#m648099938e" x="122.821275" y="246.558438" style="fill: #4b5563; stroke: #4b5563; stroke-width: 0.8"/>
      </g>
     </g>
     <g id="text_8">
      <!-- 5 -->
      <g style="fill: #4b5563" transform="translate(120.5944 258.877344) scale(0.07 -0.07)">
       <defs>
        <path id="DejaVuSans-35" d="M 691 4666 
L 3169 4666 
L 3169 4134 
L 1269 4134 
L 1269 2991 
Q 1406 3038 1543 3061 
Q 1681 3084 1819 3084 
Q 2600 3084 3056 2656 
Q 3513 2228 3513 1497 
Q 3513 744 3044 326 
Q 2575 -91 1722 -91 
Q 1428 -91 1123 -41 
Q 819 9 494 109 
L 494 744 
Q 775 591 1075 516 
Q 1375 441 1709 441 
Q 2250 441 2565 725 
Q 2881 1009 2881 1497 
Q 2881 1984 2565 2268 
Q 2250 2553 1709 2553 
Q 1456 2553 1204 2497 
Q 953 2441 691 2322 
L 691 4666 
z
" transform="scale(0.015625)"/>
       </defs>
       <use xlink:href="#DejaVuSans-35"/>
      </g>
     </g>
    </g>
    <g id="xtick_10">
     <g id="line2d_59">
      <path d="M 191.140834 246.558438 
L 191.140834 192.470633 
" clip-path="url(#p2b98e86da0)" style="fill: none; stroke: #374151; stroke-opacity: 0.1; stroke-width: 0.8; stroke-linecap: square"/>
     </g>
     <g id="line2d_60">
      <g>
       <use xlink:href="#m648099938e" x="191.140834" y="246.558438" style="fill: #4b5563; stroke: #4b5563; stroke-width: 0.8"/>
      </g>
     </g>
     <g id="text_9">
      <!-- 10 -->
      <g style="fill: #4b5563" transform="translate(186.687084 258.877344) scale(0.07 -0.07)">
       <use xlink:href="#DejaVuSans-31"/>
       <use xlink:href="#DejaVuSans-30" transform="translate(63.623047 0)"/>
      </g>
     </g>
    </g>
    <g id="xtick_11">
     <g id="line2d_61">
      <path d="M 259.460393 246.558438 
L 259.460393 192.470633 
" clip-path="url(#p2b98e86da0)" style="fill: none; stroke: #374151; stroke-opacity: 0.1; stroke-width: 0.8; stroke-linecap: square"/>
     </g>
     <g id="line2d_62">
      <g>
       <use xlink:href="#m648099938e" x="259.460393" y="246.558438" style="fill: #4b5563; stroke: #4b5563; stroke-width: 0.8"/>
      </g>
     </g>
     <g id="text_10">
      <!-- 15 -->
      <g style="fill: #4b5563" transform="translate(255.006643 258.877344) scale(0.07 -0.07)">
       <use xlink:href="#DejaVuSans-31"/>
       <use xlink:href="#DejaVuSans-35" transform="translate(63.623047 0)"/>
      </g>
     </g>
    </g>
    <g id="xtick_12">
     <g id="line2d_63">
      <path d="M 327.779953 246.558438 
L 327.779953 192.470633 
" clip-path="url(#p2b98e86da0)" style="fill: none; stroke: #374151; stroke-opacity: 0.1; stroke-width: 0.8; stroke-linecap: square"/>
     </g>
     <g id="line2d_64">
      <g>
       <use xlink:href="#m648099938e" x="327.779953" y="246.558438" style="fill: #4b5563; stroke: #4b5563; stroke-width: 0.8"/>
      </g>
     </g>
     <g id="text_11">
      <!-- 20 -->
      <g style="fill: #4b5563" transform="translate(323.326203 258.877344) scale(0.07 -0.07)">
       <use xlink:href="#DejaVuSans-32"/>
       <use xlink:href="#DejaVuSans-30" transform="translate(63.623047 0)"/>
      </g>
     </g>
    </g>
    <g id="xtick_13">
     <g id="line2d_65">
      <path d="M 396.099512 246.558438 
L 396.099512 192.470633 
" clip-path="url(#p2b98e86da0)" style="fill: none; stroke: #374151; stroke-opacity: 0.1; stroke-width: 0.8; stroke-linecap: square"/>
     </g>
     <g id="line2d_66">
      <g>
       <use xlink:href="#m648099938e" x="396.099512" y="246.558438" style="fill: #4b5563; stroke: #4b5563; stroke-width: 0.8"/>
      </g>
     </g>
     <g id="text_12">
      <!-- 25 -->
      <g style="fill: #4b5563" transform="translate(391.645762 258.877344) scale(0.07 -0.07)">
       <use xlink:href="#DejaVuSans-32"/>
       <use xlink:href="#DejaVuSans-35" transform="translate(63.623047 0)"/>
      </g>
     </g>
    </g>
    <g id="xtick_14">
     <g id="line2d_67">
      <path d="M 464.419071 246.558438 
L 464.419071 192.470633 
" clip-path="url(#p2b98e86da0)" style="fill: none; stroke: #374151; stroke-opacity: 0.1; stroke-width: 0.8; stroke-linecap: square"/>
     </g>
     <g id="line2d_68">
      <g>
       <use xlink:href="#m648099938e" x="464.419071" y="246.558438" style="fill: #4b5563; stroke: #4b5563; stroke-width: 0.8"/>
      </g>
     </g>
     <g id="text_13">
      <!-- 30 -->
      <g style="fill: #4b5563" transform="translate(459.965321 258.877344) scale(0.07 -0.07)">
       <defs>
        <path id="DejaVuSans-33" d="M 2597 2516 
Q 3050 2419 3304 2112 
Q 3559 1806 3559 1356 
Q 3559 666 3084 287 
Q 2609 -91 1734 -91 
Q 1441 -91 1130 -33 
Q 819 25 488 141 
L 488 750 
Q 750 597 1062 519 
Q 1375 441 1716 441 
Q 2309 441 2620 675 
Q 2931 909 2931 1356 
Q 2931 1769 2642 2001 
Q 2353 2234 1838 2234 
L 1294 2234 
L 1294 2753 
L 1863 2753 
Q 2328 2753 2575 2939 
Q 2822 3125 2822 3475 
Q 2822 3834 2567 4026 
Q 2313 4219 1838 4219 
Q 1578 4219 1281 4162 
Q 984 4106 628 3988 
L 628 4550 
Q 988 4650 1302 4700 
Q 1616 4750 1894 4750 
Q 2613 4750 3031 4423 
Q 3450 4097 3450 3541 
Q 3450 3153 3228 2886 
Q 3006 2619 2597 2516 
z
" transform="scale(0.015625)"/>
       </defs>
       <use xlink:href="#DejaVuSans-33"/>
       <use xlink:href="#DejaVuSans-30" transform="translate(63.623047 0)"/>
      </g>
     </g>
    </g>
   </g>
   <g id="matplotlib.axis_4">
    <g id="ytick_6">
     <g id="line2d_69">
      <path d="M 29.428438 246.558438 
L 475.828437 246.558438 
" clip-path="url(#p2b98e86da0)" style="fill: none; stroke: #374151; stroke-opacity: 0.1; stroke-width: 0.8; stroke-linecap: square"/>
     </g>
     <g id="line2d_70">
      <g>
       <use xlink:href="#m84775953b6" x="29.428438" y="246.558438" style="fill: #4b5563; stroke: #4b5563; stroke-width: 0.8"/>
      </g>
     </g>
     <g id="text_14">
      <!-- 0 -->
      <g style="fill: #4b5563" transform="translate(17.974688 249.217891) scale(0.07 -0.07)">
       <use xlink:href="#DejaVuSans-30"/>
      </g>
     </g>
    </g>
    <g id="ytick_7">
     <g id="line2d_71">
      <path d="M 29.428438 224.322716 
L 475.828437 224.322716 
" clip-path="url(#p2b98e86da0)" style="fill: none; stroke: #374151; stroke-opacity: 0.1; stroke-width: 0.8; stroke-linecap: square"/>
     </g>
     <g id="line2d_72">
      <g>
       <use xlink:href="#m84775953b6" x="29.428438" y="224.322716" style="fill: #4b5563; stroke: #4b5563; stroke-width: 0.8"/>
      </g>
     </g>
     <g id="text_15">
      <!-- 2 -->
      <g style="fill: #4b5563" transform="translate(17.974688 226.982169) scale(0.07 -0.07)">
       <use xlink:href="#DejaVuSans-32"/>
      </g>
     </g>
    </g>
    <g id="ytick_8">
     <g id="line2d_73">
      <path d="M 29.428438 202.086995 
L 475.828437 202.086995 
" clip-path="url(#p2b98e86da0)" style="fill: none; stroke: #374151; stroke-opacity: 0.1; stroke-width: 0.8; stroke-linecap: square"/>
     </g>
     <g id="line2d_74">
      <g>
       <use xlink:href="#m84775953b6" x="29.428438" y="202.086995" style="fill: #4b5563; stroke: #4b5563; stroke-width: 0.8"/>
      </g>
     </g>
     <g id="text_16">
      <!-- 4 -->
      <g style="fill: #4b5563" transform="translate(17.974688 204.746448) scale(0.07 -0.07)">
       <use xlink:href="#DejaVuSans-34"/>
      </g>
     </g>
    </g>
    <g id="text_17">
     <!-- Vol -->
     <g style="fill: #4b5563" transform="translate(12.518906 224.75141) rotate(-90) scale(0.07 -0.07)">
      <defs>
       <path id="DejaVuSans-56" d="M 1831 0 
L 50 4666 
L 709 4666 
L 2188 738 
L 3669 4666 
L 4325 4666 
L 2547 0 
L 1831 0 
z
" transform="scale(0.015625)"/>
       <path id="DejaVuSans-6f" d="M 1959 3097 
Q 1497 3097 1228 2736 
Q 959 2375 959 1747 
Q 959 1119 1226 758 
Q 1494 397 1959 397 
Q 2419 397 2687 759 
Q 2956 1122 2956 1747 
Q 2956 2369 2687 2733 
Q 2419 3097 1959 3097 
z
M 1959 3584 
Q 2709 3584 3137 3096 
Q 3566 2609 3566 1747 
Q 3566 888 3137 398 
Q 2709 -91 1959 -91 
Q 1206 -91 779 398 
Q 353 888 353 1747 
Q 353 2609 779 3096 
Q 1206 3584 1959 3584 
z
" transform="scale(0.015625)"/>
       <path id="DejaVuSans-6c" d="M 603 4863 
L 1178 4863 
L 1178 0 
L 603 0 
L 603 4863 
z
" transform="scale(0.015625)"/>
      </defs>
      <use xlink:href="#DejaVuSans-56"/>
      <use xlink:href="#DejaVuSans-6f" transform="translate(60.658203 0)"/>
      <use xlink:href="#DejaVuSans-6c" transform="translate(121.839844 0)"/>
     </g>
    </g>
    <g id="text_18">
     <!-- 1e6 -->
     <g style="fill: #4b5563" transform="translate(29.428438 189.470633) scale(0.1 -0.1)">
      <defs>
       <path id="DejaVuSans-65" d="M 3597 1894 
L 3597 1613 
L 953 1613 
Q 991 1019 1311 708 
Q 1631 397 2203 397 
Q 2534 397 2845 478 
Q 3156 559 3463 722 
L 3463 178 
Q 3153 47 2828 -22 
Q 2503 -91 2169 -91 
Q 1331 -91 842 396 
Q 353 884 353 1716 
Q 353 2575 817 3079 
Q 1281 3584 2069 3584 
Q 2775 3584 3186 3129 
Q 3597 2675 3597 1894 
z
M 3022 2063 
Q 3016 2534 2758 2815 
Q 2500 3097 2075 3097 
Q 1594 3097 1305 2825 
Q 1016 2553 972 2059 
L 3022 2063 
z
" transform="scale(0.015625)"/>
      </defs>
      <use xlink:href="#DejaVuSans-31"/>
      <use xlink:href="#DejaVuSans-65" transform="translate(63.623047 0)"/>
      <use xlink:href="#DejaVuSans-36" transform="translate(125.146484 0)"/>
     </g>
    </g>
   </g>
   <g id="patch_66">
    <path d="M 29.428438 246.558438 
L 29.428438 192.470633 
" style="fill: none; stroke: #1f2937; stroke-width: 0.8; stroke-linejoin: miter; stroke-linecap: square"/>
   </g>
   <g id="patch_67">
    <path d="M 29.428438 246.558438 
L 475.828438 246.558438 
" style="fill: none; stroke: #1f2937; stroke-width: 0.8; stroke-linejoin: miter; stroke-linecap: square"/>
   </g>
  </g>
 </g>
 <defs>
  <clipPath id="p653e829a4e">
   <rect x="29.428438" y="24.798438" width="446.4" height="162.263415"/>
  </clipPath>
  <clipPath id="p2b98e86da0">
   <rect x="29.428438" y="192.470633" width="446.4" height="54.087805"/>
  </clipPath>
 </defs>
</svg>
