<?xml version="1.0" encoding="utf-8" standalone="no"?>
<!DOCTYPE svg PUBLIC "-//W3C//DTD SVG 1.1//EN"
  "http://www.w3.org/Graphics/SVG/1.1/DTD/svg11.dtd">
<svg xmlns:xlink="http://www.w3.org/1999/xlink" width="484.6325pt" height="275.020625pt" viewBox="0 0 484.6325 275.020625" xmlns="http://www.w3.org/2000/svg" version="1.1">
 <metadata>
  <rdf:RDF xmlns:dc="http://purl.org/dc/elements/1.1/" xmlns:cc="http://creativecommons.org/ns#" xmlns:rdf="http://www.w3.org/1999/02/22-rdf-syntax-ns#">
   <cc:Work>
    <dc:type rdf:resource="http://purl.org/dc/dcmitype/StillImage"/>
    <dc:date>2026-02-16T09:12:40.722036</dc:date>
    <dc:format>image/svg+xml</dc:format>
    <dc:creator>
     <cc:Agent>
      <dc:title>Matplotlib v3.10.8, https://matplotlib.org/</dc:title>
     </cc:Agent>
    </dc:creator>
   </cc:Work>
  </rdf:RDF>
 </metadata>
 <defs>
  <style type="text/css">*{stroke-linejoin: round; stroke-linecap: butt}</style>
 </defs>
 <g id="figure_1">
  <g id="patch_1">
   <path d="M 0 275.020625 
L 484.6325 275.020625 
L 484.6325 0 
L 0 0 
z
" style="fill: #0a0f1a"/>
  </g>
  <g id="axes_1">
   <g id="patch_2">
    <path d="M 31.0325 193.58154 
L 477.4325 193.58154 
L 477.4325 31.318125 
L 31.0325 31.318125 
z
" style="fill: #0a0f1a"/>
   </g>
   <g id="patch_3">
    <path d="M 40.3925 172.349451 
L 50.4725 172.349451 
Q 50.7605 172.349451 50.7605 172.061439 
L 50.7605 158.404177 
Q 50.7605 158.116164 50.4725 158.116164 
L 40.3925 158.116164 
Q 40.1045 158.116164 40.1045 158.404177 
L 40.1045 172.061439 
Q 40.1045 172.349451 40.3925 172.349451 
z
" clip-path="url(#p5f8f08a111)" style="fill: #22c55e; stroke: #22c55e; stroke-linejoin: miter"/>
   </g>
   <g id="patch_4">
    <path d="M 54.7925 174.928565 
L 64.8725 174.928565 
Q 65.1605 174.928565 65.1605 174.640553 
L 65.1605 160.376044 
Q 65.1605 160.088031 64.8725 160.088031 
L 54.7925 160.088031 
Q 54.5045 160.088031 54.5045 160.376044 
L 54.5045 174.640553 
Q 54.5045 174.928565 54.7925 174.928565 
z
" clip-path="url(#p5f8f08a111)" style="fill: #22c55e; stroke: #22c55e; stroke-linejoin: miter"/>
   </g>
   <g id="patch_5">
    <path d="M 69.1925 130.859514 
L 79.2725 130.859514 
Q 79.5605 130.859514 79.5605 130.571501 
L 79.5605 121.655989 
Q 79.5605 121.367977 79.2725 121.367977 
L 69.1925 121.367977 
Q 68.9045 121.367977 68.9045 121.655989 
L 68.9045 130.571501 
Q 68.9045 130.859514 69.1925 130.859514 
z
" clip-path="url(#p5f8f08a111)" style="fill: #22c55e; stroke: #22c55e; stroke-linejoin: miter"/>
   </g>
   <g id="patch_6">
    <path d="M 83.5925 130.633734 
L 93.6725 130.633734 
Q 93.9605 130.633734 93.9605 130.345721 
L 93.9605 121.379283 
Q 93.9605 121.09127 93.6725 121.09127 
L 83.5925 121.09127 
Q 83.3045 121.09127 83.3045 121.379283 
L 83.3045 130.345721 
Q 83.3045 130.633734 83.5925 130.633734 
z
" clip-path="url(#p5f8f08a111)" style="fill: #22c55e; stroke: #22c55e; stroke-linejoin: miter"/>
   </g>
   <g id="patch_7">
    <path d="M 97.9925 128.006845 
L 108.0725 128.006845 
Q 108.3605 128.006845 108.3605 127.718832 
L 108.3605 114.455946 
Q 108.3605 114.167934 108.0725 114.167934 
L 97.9925 114.167934 
Q 97.7045 114.167934 97.7045 114.455946 
L 97.7045 127.718832 
Q 97.7045 128.006845 97.9925 128.006845 
z
" clip-path="url(#p5f8f08a111)" style="fill: #22c55e; stroke: #22c55e; stroke-linejoin: miter"/>
   </g>
   <g id="patch_8">
    <path d="M 112.3925 120.832231 
L 122.4725 120.832231 
Q 122.7605 120.832231 122.7605 120.544219 
L 122.7605 111.564732 
Q 122.7605 111.276719 122.4725 111.276719 
L 112.3925 111.276719 
Q 112.1045 111.276719 112.1045 111.564732 
L 112.1045 120.544219 
Q 112.1045 120.832231 112.3925 120.832231 
z
" clip-path="url(#p5f8f08a111)" style="fill: #22c55e; stroke: #22c55e; stroke-linejoin: miter"/>
   </g>
   <g id="patch_9">
    <path d="M 126.7925 115.940579 
L 136.8725 115.940579 
Q 137.1605 115.940579 137.1605 115.652566 
L 137.1605 107.777188 
Q 137.1605 107.489176 136.8725 107.489176 
L 126.7925 107.489176 
Q 126.5045 107.489176 126.5045 107.777188 
L 126.5045 115.652566 
Q 126.5045 115.940579 126.7925 115.940579 
z
" clip-path="url(#p5f8f08a111)" style="fill: #22c55e; stroke: #22c55e; stroke-linejoin: miter"/>
   </g>
   <g id="patch_10">
    <path d="M 141.1925 125.40876 
L 151.2725 125.40876 
Q 151.5605 125.40876 151.5605 125.120748 
L 151.5605 104.686838 
Q 151.5605 104.398825 151.2725 104.398825 
L 141.1925 104.398825 
Q 140.9045 104.398825 140.9045 104.686838 
L 140.9045 125.120748 
Q 140.9045 125.40876 141.1925 125.40876 
z
" clip-path="url(#p5f8f08a111)" style="fill: #ef4444; stroke: #ef4444; stroke-linejoin: miter"/>
   </g>
   <g id="patch_11">
    <path d="M 155.5925 115.37242 
L 165.6725 115.37242 
Q 165.9605 115.37242 165.9605 115.084408 
L 165.9605 102.999158 
Q 165.9605 102.711145 165.6725 102.711145 
L 155.5925 102.711145 
Q 155.3045 102.711145 155.3045 102.999158 
L 155.3045 115.084408 
Q 155.3045 115.37242 155.5925 115.37242 
z
" clip-path="url(#p5f8f08a111)" style="fill: #22c55e; stroke: #22c55e; stroke-linejoin: miter"/>
   </g>
   <g id="patch_12">
    <path d="M 169.9925 109.140632 
L 180.0725 109.140632 
Q 180.3605 109.140632 180.3605 108.852619 
L 180.3605 94.369031 
Q 180.3605 94.081019 180.0725 94.081019 
L 169.9925 94.081019 
Q 169.7045 94.081019 169.7045 94.369031 
L 169.7045 108.852619 
Q 169.7045 109.140632 169.9925 109.140632 
z
" clip-path="url(#p5f8f08a111)" style="fill: #22c55e; stroke: #22c55e; stroke-linejoin: miter"/>
   </g>
   <g id="patch_13">
    <path d="M 184.3925 117.096234 
L 194.4725 117.096234 
Q 194.7605 117.096234 194.7605 116.808221 
L 194.7605 96.019517 
Q 194.7605 95.731505 194.4725 95.731505 
L 184.3925 95.731505 
Q 184.1045 95.731505 184.1045 96.019517 
L 184.1045 116.808221 
Q 184.1045 117.096234 184.3925 117.096234 
z
" clip-path="url(#p5f8f08a111)" style="fill: #ef4444; stroke: #ef4444; stroke-linejoin: miter"/>
   </g>
   <g id="patch_14">
    <path d="M 198.7925 103.894406 
L 208.8725 103.894406 
Q 209.1605 103.894406 209.1605 103.606393 
L 209.1605 95.103523 
Q 209.1605 94.81551 208.8725 94.81551 
L 198.7925 94.81551 
Q 198.5045 94.81551 198.5045 95.103523 
L 198.5045 103.606393 
Q 198.5045 103.894406 198.7925 103.894406 
z
" clip-path="url(#p5f8f08a111)" style="fill: #ef4444; stroke: #ef4444; stroke-linejoin: miter"/>
   </g>
   <g id="patch_15">
    <path d="M 213.1925 101.853347 
L 223.2725 101.853347 
Q 223.5605 101.853347 223.5605 101.565334 
L 223.5605 95.635943 
Q 223.5605 95.347931 223.2725 95.347931 
L 213.1925 95.347931 
Q 212.9045 95.347931 212.9045 95.635943 
L 212.9045 101.565334 
Q 212.9045 101.853347 213.1925 101.853347 
z
" clip-path="url(#p5f8f08a111)" style="fill: #22c55e; stroke: #22c55e; stroke-linejoin: miter"/>
   </g>
   <g id="patch_16">
    <path d="M 227.5925 116.709279 
L 237.6725 116.709279 
Q 237.9605 116.709279 237.9605 116.421266 
L 237.9605 106.226067 
Q 237.9605 105.938054 237.6725 105.938054 
L 227.5925 105.938054 
Q 227.3045 105.938054 227.3045 106.226067 
L 227.3045 116.421266 
Q 227.3045 116.709279 227.5925 116.709279 
z
" clip-path="url(#p5f8f08a111)" style="fill: #22c55e; stroke: #22c55e; stroke-linejoin: miter"/>
   </g>
   <g id="patch_17">
    <path d="M 241.9925 118.683271 
L 252.0725 118.683271 
Q 252.3605 118.683271 252.3605 118.395259 
L 252.3605 103.518917 
Q 252.3605 103.230904 252.0725 103.230904 
L 241.9925 103.230904 
Q 241.7045 103.230904 241.7045 103.518917 
L 241.7045 118.395259 
Q 241.7045 118.683271 241.9925 118.683271 
z
" clip-path="url(#p5f8f08a111)" style="fill: #22c55e; stroke: #22c55e; stroke-linejoin: miter"/>
   </g>
   <g id="patch_18">
    <path d="M 256.3925 98.506533 
L 266.4725 98.506533 
Q 266.7605 98.506533 266.7605 98.218521 
L 266.7605 90.660568 
Q 266.7605 90.372556 266.4725 90.372556 
L 256.3925 90.372556 
Q 256.1045 90.372556 256.1045 90.660568 
L 256.1045 98.218521 
Q 256.1045 98.506533 256.3925 98.506533 
z
" clip-path="url(#p5f8f08a111)" style="fill: #ef4444; stroke: #ef4444; stroke-linejoin: miter"/>
   </g>
   <g id="patch_19">
    <path d="M 270.7925 107.155657 
L 280.8725 107.155657 
Q 281.1605 107.155657 281.1605 106.867645 
L 281.1605 88.753806 
Q 281.1605 88.465793 280.8725 88.465793 
L 270.7925 88.465793 
Q 270.5045 88.465793 270.5045 88.753806 
L 270.5045 106.867645 
Q 270.5045 107.155657 270.7925 107.155657 
z
" clip-path="url(#p5f8f08a111)" style="fill: #ef4444; stroke: #ef4444; stroke-linejoin: miter"/>
   </g>
   <g id="patch_20">
    <path d="M 285.1925 115.783381 
L 295.2725 115.783381 
Q 295.5605 115.783381 295.5605 115.495368 
L 295.5605 106.261998 
Q 295.5605 105.973986 295.2725 105.973986 
L 285.1925 105.973986 
Q 284.9045 105.973986 284.9045 106.261998 
L 284.9045 115.495368 
Q 284.9045 115.783381 285.1925 115.783381 
z
" clip-path="url(#p5f8f08a111)" style="fill: #22c55e; stroke: #22c55e; stroke-linejoin: miter"/>
   </g>
   <g id="patch_21">
    <path d="M 299.5925 115.687401 
L 309.6725 115.687401 
Q 309.9605 115.687401 309.9605 115.399389 
L 309.9605 108.559744 
Q 309.9605 108.271731 309.6725 108.271731 
L 299.5925 108.271731 
Q 299.3045 108.271731 299.3045 108.559744 
L 299.3045 115.399389 
Q 299.3045 115.687401 299.5925 115.687401 
z
" clip-path="url(#p5f8f08a111)" style="fill: #22c55e; stroke: #22c55e; stroke-linejoin: miter"/>
   </g>
   <g id="patch_22">
    <path d="M 313.9925 131.550095 
L 324.0725 131.550095 
Q 324.3605 131.550095 324.3605 131.262083 
L 324.3605 118.571407 
Q 324.3605 118.283394 324.0725 118.283394 
L 313.9925 118.283394 
Q 313.7045 118.283394 313.7045 118.571407 
L 313.7045 131.262083 
Q 313.7045 131.550095 313.9925 131.550095 
z
" clip-path="url(#p5f8f08a111)" style="fill: #22c55e; stroke: #22c55e; stroke-linejoin: miter"/>
   </g>
   <g id="patch_23">
    <path d="M 328.3925 128.729274 
L 338.4725 128.729274 
Q 338.7605 128.729274 338.7605 128.441261 
L 338.7605 118.70753 
Q 338.7605 118.419517 338.4725 118.419517 
L 328.3925 118.419517 
Q 328.1045 118.419517 328.1045 118.70753 
L 328.1045 128.441261 
Q 328.1045 128.729274 328.3925 128.729274 
z
" clip-path="url(#p5f8f08a111)" style="fill: #ef4444; stroke: #ef4444; stroke-linejoin: miter"/>
   </g>
   <g id="patch_24">
    <path d="M 342.7925 113.819207 
L 352.8725 113.819207 
Q 353.1605 113.819207 353.1605 113.531194 
L 353.1605 107.781196 
Q 353.1605 107.493184 352.8725 107.493184 
L 342.7925 107.493184 
Q 342.5045 107.493184 342.5045 107.781196 
L 342.5045 113.531194 
Q 342.5045 113.819207 342.7925 113.819207 
z
" clip-path="url(#p5f8f08a111)" style="fill: #ef4444; stroke: #ef4444; stroke-linejoin: miter"/>
   </g>
   <g id="patch_25">
    <path d="M 357.1925 88.555796 
L 367.2725 88.555796 
Q 367.5605 88.555796 367.5605 88.267783 
L 367.5605 72.415853 
Q 367.5605 72.127841 367.2725 72.127841 
L 357.1925 72.127841 
Q 356.9045 72.127841 356.9045 72.415853 
L 356.9045 88.267783 
Q 356.9045 88.555796 357.1925 88.555796 
z
" clip-path="url(#p5f8f08a111)" style="fill: #ef4444; stroke: #ef4444; stroke-linejoin: miter"/>
   </g>
   <g id="patch_26">
    <path d="M 371.5925 81.310287 
L 381.6725 81.310287 
Q 381.9605 81.310287 381.9605 81.022274 
L 381.9605 65.389307 
Q 381.9605 65.101294 381.6725 65.101294 
L 371.5925 65.101294 
Q 371.3045 65.101294 371.3045 65.389307 
L 371.3045 81.022274 
Q 371.3045 81.310287 371.5925 81.310287 
z
" clip-path="url(#p5f8f08a111)" style="fill: #ef4444; stroke: #ef4444; stroke-linejoin: miter"/>
   </g>
   <g id="patch_27">
    <path d="M 385.9925 88.056164 
L 396.0725 88.056164 
Q 396.3605 88.056164 396.3605 87.768151 
L 396.3605 72.791016 
Q 396.3605 72.503003 396.0725 72.503003 
L 385.9925 72.503003 
Q 385.7045 72.503003 385.7045 72.791016 
L 385.7045 87.768151 
Q 385.7045 88.056164 385.9925 88.056164 
z
" clip-path="url(#p5f8f08a111)" style="fill: #ef4444; stroke: #ef4444; stroke-linejoin: miter"/>
   </g>
   <g id="patch_28">
    <path d="M 400.3925 66.938182 
L 410.4725 66.938182 
Q 410.7605 66.938182 410.7605 66.650169 
L 410.7605 50.345868 
Q 410.7605 50.057855 410.4725 50.057855 
L 400.3925 50.057855 
Q 400.1045 50.057855 400.1045 50.345868 
L 400.1045 66.650169 
Q 400.1045 66.938182 400.3925 66.938182 
z
" clip-path="url(#p5f8f08a111)" style="fill: #ef4444; stroke: #ef4444; stroke-linejoin: miter"/>
   </g>
   <g id="patch_29">
    <path d="M 414.7925 73.053964 
L 424.8725 73.053964 
Q 425.1605 73.053964 425.1605 72.765951 
L 425.1605 66.836358 
Q 425.1605 66.548346 424.8725 66.548346 
L 414.7925 66.548346 
Q 414.5045 66.548346 414.5045 66.836358 
L 414.5045 72.765951 
Q 414.5045 73.053964 414.7925 73.053964 
z
" clip-path="url(#p5f8f08a111)" style="fill: #ef4444; stroke: #ef4444; stroke-linejoin: miter"/>
   </g>
   <g id="patch_30">
    <path d="M 429.1925 63.588117 
L 439.2725 63.588117 
Q 439.5605 63.588117 439.5605 63.300104 
L 439.5605 58.034807 
Q 439.5605 57.746794 439.2725 57.746794 
L 429.1925 57.746794 
Q 428.9045 57.746794 428.9045 58.034807 
L 428.9045 63.300104 
Q 428.9045 63.588117 429.1925 63.588117 
z
" clip-path="url(#p5f8f08a111)" style="fill: #ef4444; stroke: #ef4444; stroke-linejoin: miter"/>
   </g>
   <g id="patch_31">
    <path d="M 443.5925 66.845359 
L 453.6725 66.845359 
Q 453.9605 66.845359 453.9605 66.557347 
L 453.9605 50.579699 
Q 453.9605 50.291687 453.6725 50.291687 
L 443.5925 50.291687 
Q 443.3045 50.291687 443.3045 50.579699 
L 443.3045 66.557347 
Q 443.3045 66.845359 443.5925 66.845359 
z
" clip-path="url(#p5f8f08a111)" style="fill: #ef4444; stroke: #ef4444; stroke-linejoin: miter"/>
   </g>
   <g id="patch_32">
    <path d="M 457.9925 65.827451 
L 468.0725 65.827451 
Q 468.3605 65.827451 468.3605 65.539439 
L 468.3605 49.151874 
Q 468.3605 48.863861 468.0725 48.863861 
L 457.9925 48.863861 
Q 457.7045 48.863861 457.7045 49.151874 
L 457.7045 65.539439 
Q 457.7045 65.827451 457.9925 65.827451 
z
" clip-path="url(#p5f8f08a111)" style="fill: #ef4444; stroke: #ef4444; stroke-linejoin: miter"/>
   </g>
   <g id="matplotlib.axis_1">
    <g id="xtick_1">
     <g id="line2d_1">
      <path d="M 45.4325 193.58154 
L 45.4325 31.318125 
" clip-path="url(#p5f8f08a111)" style="fill: none; stroke-dasharray: 2.96,1.28; stroke-dashoffset: 0; stroke: #374151; stroke-opacity: 0.1; stroke-width: 0.8"/>
     </g>
     <g id="line2d_2">
      <defs>
       <path id="mbf53c69f97" d="M 0 0 
L 0 3.5 
" style="stroke: #9ca3af; stroke-width: 0.8"/>
      </defs>
      <g>
       <use xlink:href="#mbf53c69f97" x="45.4325" y="193.58154" style="fill: #9ca3af; stroke: #9ca3af; stroke-width: 0.8"/>
      </g>
     </g>
    </g>
    <g id="xtick_2">
     <g id="line2d_3">
      <path d="M 117.4325 193.58154 
L 117.4325 31.318125 
" clip-path="url(#p5f8f08a111)" style="fill: none; stroke-dasharray: 2.96,1.28; stroke-dashoffset: 0; stroke: #374151; stroke-opacity: 0.1; stroke-width: 0.8"/>
     </g>
     <g id="line2d_4">
      <g>
       <use xlink:href="#mbf53c69f97" x="117.4325" y="193.58154" style="fill: #9ca3af; stroke: #9ca3af; stroke-width: 0.8"/>
      </g>
     </g>
    </g>
    <g id="xtick_3">
     <g id="line2d_5">
      <path d="M 189.4325 193.58154 
L 189.4325 31.318125 
" clip-path="url(#p5f8f08a111)" style="fill: none; stroke-dasharray: 2.96,1.28; stroke-dashoffset: 0; stroke: #374151; stroke-opacity: 0.1; stroke-width: 0.8"/>
     </g>
     <g id="line2d_6">
      <g>
       <use xlink:href="#mbf53c69f97" x="189.4325" y="193.58154" style="fill: #9ca3af; stroke: #9ca3af; stroke-width: 0.8"/>
      </g>
     </g>
    </g>
    <g id="xtick_4">
     <g id="line2d_7">
      <path d="M 261.4325 193.58154 
L 261.4325 31.318125 
" clip-path="url(#p5f8f08a111)" style="fill: none; stroke-dasharray: 2.96,1.28; stroke-dashoffset: 0; stroke: #374151; stroke-opacity: 0.1; stroke-width: 0.8"/>
     </g>
     <g id="line2d_8">
      <g>
       <use xlink:href="#mbf53c69f97" x="261.4325" y="193.58154" style="fill: #9ca3af; stroke: #9ca3af; stroke-width: 0.8"/>
      </g>
     </g>
    </g>
    <g id="xtick_5">
     <g id="line2d_9">
      <path d="M 333.4325 193.58154 
L 333.4325 31.318125 
" clip-path="url(#p5f8f08a111)" style="fill: none; stroke-dasharray: 2.96,1.28; stroke-dashoffset: 0; stroke: #374151; stroke-opacity: 0.1; stroke-width: 0.8"/>
     </g>
     <g id="line2d_10">
      <g>
       <use xlink:href="#mbf53c69f97" x="333.4325" y="193.58154" style="fill: #9ca3af; stroke: #9ca3af; stroke-width: 0.8"/>
      </g>
     </g>
    </g>
    <g id="xtick_6">
     <g id="line2d_11">
      <path d="M 405.4325 193.58154 
L 405.4325 31.318125 
" clip-path="url(#p5f8f08a111)" style="fill: none; stroke-dasharray: 2.96,1.28; stroke-dashoffset: 0; stroke: #374151; stroke-opacity: 0.1; stroke-width: 0.8"/>
     </g>
     <g id="line2d_12">
      <g>
       <use xlink:href="#mbf53c69f97" x="405.4325" y="193.58154" style="fill: #9ca3af; stroke: #9ca3af; stroke-width: 0.8"/>
      </g>
     </g>
    </g>
    <g id="xtick_7">
     <g id="line2d_13">
      <path d="M 477.4325 193.58154 
L 477.4325 31.318125 
" clip-path="url(#p5f8f08a111)" style="fill: none; stroke-dasharray: 2.96,1.28; stroke-dashoffset: 0; stroke: #374151; stroke-opacity: 0.1; stroke-width: 0.8"/>
     </g>
     <g id="line2d_14">
      <g>
       <use xlink:href="#mbf53c69f97" x="477.4325" y="193.58154" style="fill: #9ca3af; stroke: #9ca3af; stroke-width: 0.8"/>
      </g>
     </g>
    </g>
   </g>
   <g id="matplotlib.axis_2">
    <g id="ytick_1">
     <g id="line2d_15">
      <path d="M 31.0325 165.232808 
L 477.4325 165.232808 
" clip-path="url(#p5f8f08a111)" style="fill: none; stroke-dasharray: 2.96,1.28; stroke-dashoffset: 0; stroke: #374151; stroke-opacity: 0.1; stroke-width: 0.8"/>
     </g>
     <g id="line2d_16">
      <defs>
       <path id="md19e048c42" d="M 0 0 
L -3.5 0 
" style="stroke: #9ca3af; stroke-width: 0.8"/>
      </defs>
      <g>
       <use xlink:href="#md19e048c42" x="31.0325" y="165.232808" style="fill: #9ca3af; stroke: #9ca3af; stroke-width: 0.8"/>
      </g>
     </g>
     <g id="text_1">
      <!-- 100 -->
      <g style="fill: #9ca3af" transform="translate(8.7625 168.272183) scale(0.08 -0.08)">
       <defs>
        <path id="DejaVuSans-31" d="M 794 531 
L 1825 531 
L 1825 4091 
L 703 3866 
L 703 4441 
L 1819 4666 
L 2450 4666 
L 2450 531 
L 3481 531 
L 3481 0 
L 794 0 
L 794 531 
z
" transform="scale(0.015625)"/>
        <path id="DejaVuSans-30" d="M 2034 4250 
Q 1547 4250 1301 3770 
Q 1056 3291 1056 2328 
Q 1056 1369 1301 889 
Q 1547 409 2034 409 
Q 2525 409 2770 889 
Q 3016 1369 3016 2328 
Q 3016 3291 2770 3770 
Q 2525 4250 2034 4250 
z
M 2034 4750 
Q 2819 4750 3233 4129 
Q 3647 3509 3647 2328 
Q 3647 1150 3233 529 
Q 2819 -91 2034 -91 
Q 1250 -91 836 529 
Q 422 1150 422 2328 
Q 422 3509 836 4129 
Q 1250 4750 2034 4750 
z
" transform="scale(0.015625)"/>
       </defs>
       <use xlink:href="#DejaVuSans-31"/>
       <use xlink:href="#DejaVuSans-30" transform="translate(63.623047 0)"/>
       <use xlink:href="#DejaVuSans-30" transform="translate(127.246094 0)"/>
      </g>
     </g>
    </g>
    <g id="ytick_2">
     <g id="line2d_17">
      <path d="M 31.0325 136.431555 
L 477.4325 136.431555 
" clip-path="url(#p5f8f08a111)" style="fill: none; stroke-dasharray: 2.96,1.28; stroke-dashoffset: 0; stroke: #374151; stroke-opacity: 0.1; stroke-width: 0.8"/>
     </g>
     <g id="line2d_18">
      <g>
       <use xlink:href="#md19e048c42" x="31.0325" y="136.431555" style="fill: #9ca3af; stroke: #9ca3af; stroke-width: 0.8"/>
      </g>
     </g>
     <g id="text_2">
      <!-- 102 -->
      <g style="fill: #9ca3af" transform="translate(8.7625 139.47093) scale(0.08 -0.08)">
       <defs>
        <path id="DejaVuSans-32" d="M 1228 531 
L 3431 531 
L 3431 0 
L 469 0 
L 469 531 
Q 828 903 1448 1529 
Q 2069 2156 2228 2338 
Q 2531 2678 2651 2914 
Q 2772 3150 2772 3378 
Q 2772 3750 2511 3984 
Q 2250 4219 1831 4219 
Q 1534 4219 1204 4116 
Q 875 4013 500 3803 
L 500 4441 
Q 881 4594 1212 4672 
Q 1544 4750 1819 4750 
Q 2544 4750 2975 4387 
Q 3406 4025 3406 3419 
Q 3406 3131 3298 2873 
Q 3191 2616 2906 2266 
Q 2828 2175 2409 1742 
Q 1991 1309 1228 531 
z
" transform="scale(0.015625)"/>
       </defs>
       <use xlink:href="#DejaVuSans-31"/>
       <use xlink:href="#DejaVuSans-30" transform="translate(63.623047 0)"/>
       <use xlink:href="#DejaVuSans-32" transform="translate(127.246094 0)"/>
      </g>
     </g>
    </g>
    <g id="ytick_3">
     <g id="line2d_19">
      <path d="M 31.0325 107.630303 
L 477.4325 107.630303 
" clip-path="url(#p5f8f08a111)" style="fill: none; stroke-dasharray: 2.96,1.28; stroke-dashoffset: 0; stroke: #374151; stroke-opacity: 0.1; stroke-width: 0.8"/>
     </g>
     <g id="line2d_20">
      <g>
       <use xlink:href="#md19e048c42" x="31.0325" y="107.630303" style="fill: #9ca3af; stroke: #9ca3af; stroke-width: 0.8"/>
      </g>
     </g>
     <g id="text_3">
      <!-- 104 -->
      <g style="fill: #9ca3af" transform="translate(8.7625 110.669678) scale(0.08 -0.08)">
       <defs>
        <path id="DejaVuSans-34" d="M 2419 4116 
L 825 1625 
L 2419 1625 
L 2419 4116 
z
M 2253 4666 
L 3047 4666 
L 3047 1625 
L 3713 1625 
L 3713 1100 
L 3047 1100 
L 3047 0 
L 2419 0 
L 2419 1100 
L 313 1100 
L 313 1709 
L 2253 4666 
z
" transform="scale(0.015625)"/>
       </defs>
       <use xlink:href="#DejaVuSans-31"/>
       <use xlink:href="#DejaVuSans-30" transform="translate(63.623047 0)"/>
       <use xlink:href="#DejaVuSans-34" transform="translate(127.246094 0)"/>
      </g>
     </g>
    </g>
    <g id="ytick_4">
     <g id="line2d_21">
      <path d="M 31.0325 78.82905 
L 477.4325 78.82905 
" clip-path="url(#p5f8f08a111)" style="fill: none; stroke-dasharray: 2.96,1.28; stroke-dashoffset: 0; stroke: #374151; stroke-opacity: 0.1; stroke-width: 0.8"/>
     </g>
     <g id="line2d_22">
      <g>
       <use xlink:href="#md19e048c42" x="31.0325" y="78.82905" style="fill: #9ca3af; stroke: #9ca3af; stroke-width: 0.8"/>
      </g>
     </g>
     <g id="text_4">
      <!-- 106 -->
      <g style="fill: #9ca3af" transform="translate(8.7625 81.868425) scale(0.08 -0.08)">
       <defs>
        <path id="DejaVuSans-36" d="M 2113 2584 
Q 1688 2584 1439 2293 
Q 1191 2003 1191 1497 
Q 1191 994 1439 701 
Q 1688 409 2113 409 
Q 2538 409 2786 701 
Q 3034 994 3034 1497 
Q 3034 2003 2786 2293 
Q 2538 2584 2113 2584 
z
M 3366 4563 
L 3366 3988 
Q 3128 4100 2886 4159 
Q 2644 4219 2406 4219 
Q 1781 4219 1451 3797 
Q 1122 3375 1075 2522 
Q 1259 2794 1537 2939 
Q 1816 3084 2150 3084 
Q 2853 3084 3261 2657 
Q 3669 2231 3669 1497 
Q 3669 778 3244 343 
Q 2819 -91 2113 -91 
Q 1303 -91 875 529 
Q 447 1150 447 2328 
Q 447 3434 972 4092 
Q 1497 4750 2381 4750 
Q 2619 4750 2861 4703 
Q 3103 4656 3366 4563 
z
" transform="scale(0.015625)"/>
       </defs>
       <use xlink:href="#DejaVuSans-31"/>
       <use xlink:href="#DejaVuSans-30" transform="translate(63.623047 0)"/>
       <use xlink:href="#DejaVuSans-36" transform="translate(127.246094 0)"/>
      </g>
     </g>
    </g>
    <g id="ytick_5">
     <g id="line2d_23">
      <path d="M 31.0325 50.027798 
L 477.4325 50.027798 
" clip-path="url(#p5f8f08a111)" style="fill: none; stroke-dasharray: 2.96,1.28; stroke-dashoffset: 0; stroke: #374151; stroke-opacity: 0.1; stroke-width: 0.8"/>
     </g>
     <g id="line2d_24">
      <g>
       <use xlink:href="#md19e048c42" x="31.0325" y="50.027798" style="fill: #9ca3af; stroke: #9ca3af; stroke-width: 0.8"/>
      </g>
     </g>
     <g id="text_5">
      <!-- 108 -->
      <g style="fill: #9ca3af" transform="translate(8.7625 53.067173) scale(0.08 -0.08)">
       <defs>
        <path id="DejaVuSans-38" d="M 2034 2216 
Q 1584 2216 1326 1975 
Q 1069 1734 1069 1313 
Q 1069 891 1326 650 
Q 1584 409 2034 409 
Q 2484 409 2743 651 
Q 3003 894 3003 1313 
Q 3003 1734 2745 1975 
Q 2488 2216 2034 2216 
z
M 1403 2484 
Q 997 2584 770 2862 
Q 544 3141 544 3541 
Q 544 4100 942 4425 
Q 1341 4750 2034 4750 
Q 2731 4750 3128 4425 
Q 3525 4100 3525 3541 
Q 3525 3141 3298 2862 
Q 3072 2584 2669 2484 
Q 3125 2378 3379 2068 
Q 3634 1759 3634 1313 
Q 3634 634 3220 271 
Q 2806 -91 2034 -91 
Q 1263 -91 848 271 
Q 434 634 434 1313 
Q 434 1759 690 2068 
Q 947 2378 1403 2484 
z
M 1172 3481 
Q 1172 3119 1398 2916 
Q 1625 2713 2034 2713 
Q 2441 2713 2670 2916 
Q 2900 3119 2900 3481 
Q 2900 3844 2670 4047 
Q 2441 4250 2034 4250 
Q 1625 4250 1398 4047 
Q 1172 3844 1172 3481 
z
" transform="scale(0.015625)"/>
       </defs>
       <use xlink:href="#DejaVuSans-31"/>
       <use xlink:href="#DejaVuSans-30" transform="translate(63.623047 0)"/>
       <use xlink:href="#DejaVuSans-38" transform="translate(127.246094 0)"/>
      </g>
     </g>
    </g>
   </g>
   <g id="line2d_25">
    <path d="M 45.4325 178.040644 
L 45.4325 152.057847 
" clip-path="url(#p5f8f08a111)" style="fill: none; stroke: #22c55e; stroke-width: 1.5; stroke-linecap: square"/>
   </g>
   <g id="line2d_26">
    <path d="M 59.8325 180.059588 
L 59.8325 151.371715 
" clip-path="url(#p5f8f08a111)" style="fill: none; stroke: #22c55e; stroke-width: 1.5; stroke-linecap: square"/>
   </g>
   <g id="line2d_27">
    <path d="M 74.2325 133.531557 
L 74.2325 117.293112 
" clip-path="url(#p5f8f08a111)" style="fill: none; stroke: #22c55e; stroke-width: 1.5; stroke-linecap: square"/>
   </g>
   <g id="line2d_28">
    <path d="M 88.6325 140.888553 
L 88.6325 115.532708 
" clip-path="url(#p5f8f08a111)" style="fill: none; stroke: #22c55e; stroke-width: 1.5; stroke-linecap: square"/>
   </g>
   <g id="line2d_29">
    <path d="M 103.0325 136.570846 
L 103.0325 107.128958 
" clip-path="url(#p5f8f08a111)" style="fill: none; stroke: #22c55e; stroke-width: 1.5; stroke-linecap: square"/>
   </g>
   <g id="line2d_30">
    <path d="M 117.4325 122.530224 
L 117.4325 105.966286 
" clip-path="url(#p5f8f08a111)" style="fill: none; stroke: #22c55e; stroke-width: 1.5; stroke-linecap: square"/>
   </g>
   <g id="line2d_31">
    <path d="M 131.8325 124.912731 
L 131.8325 100.831775 
" clip-path="url(#p5f8f08a111)" style="fill: none; stroke: #22c55e; stroke-width: 1.5; stroke-linecap: square"/>
   </g>
   <g id="line2d_32">
    <path d="M 146.2325 134.520479 
L 146.2325 101.02823 
" clip-path="url(#p5f8f08a111)" style="fill: none; stroke: #ef4444; stroke-width: 1.5; stroke-linecap: square"/>
   </g>
   <g id="line2d_33">
    <path d="M 160.6325 120.108027 
L 160.6325 95.618254 
" clip-path="url(#p5f8f08a111)" style="fill: none; stroke: #22c55e; stroke-width: 1.5; stroke-linecap: square"/>
   </g>
   <g id="line2d_34">
    <path d="M 175.0325 113.493145 
L 175.0325 92.787043 
" clip-path="url(#p5f8f08a111)" style="fill: none; stroke: #22c55e; stroke-width: 1.5; stroke-linecap: square"/>
   </g>
   <g id="line2d_35">
    <path d="M 189.4325 119.13242 
L 189.4325 94.312636 
" clip-path="url(#p5f8f08a111)" style="fill: none; stroke: #ef4444; stroke-width: 1.5; stroke-linecap: square"/>
   </g>
   <g id="line2d_36">
    <path d="M 203.8325 109.686092 
L 203.8325 88.244477 
" clip-path="url(#p5f8f08a111)" style="fill: none; stroke: #ef4444; stroke-width: 1.5; stroke-linecap: square"/>
   </g>
   <g id="line2d_37">
    <path d="M 218.2325 108.901527 
L 218.2325 89.331917 
" clip-path="url(#p5f8f08a111)" style="fill: none; stroke: #22c55e; stroke-width: 1.5; stroke-linecap: square"/>
   </g>
   <g id="line2d_38">
    <path d="M 232.6325 120.35892 
L 232.6325 101.27326 
" clip-path="url(#p5f8f08a111)" style="fill: none; stroke: #22c55e; stroke-width: 1.5; stroke-linecap: square"/>
   </g>
   <g id="line2d_39">
    <path d="M 247.0325 120.31248 
L 247.0325 100.112522 
" clip-path="url(#p5f8f08a111)" style="fill: none; stroke: #22c55e; stroke-width: 1.5; stroke-linecap: square"/>
   </g>
   <g id="line2d_40">
    <path d="M 261.4325 107.420224 
L 261.4325 88.479566 
" clip-path="url(#p5f8f08a111)" style="fill: none; stroke: #ef4444; stroke-width: 1.5; stroke-linecap: square"/>
   </g>
   <g id="line2d_41">
    <path d="M 275.8325 109.737598 
L 275.8325 81.78846 
" clip-path="url(#p5f8f08a111)" style="fill: none; stroke: #ef4444; stroke-width: 1.5; stroke-linecap: square"/>
   </g>
   <g id="line2d_42">
    <path d="M 290.2325 118.993069 
L 290.2325 104.317292 
" clip-path="url(#p5f8f08a111)" style="fill: none; stroke: #22c55e; stroke-width: 1.5; stroke-linecap: square"/>
   </g>
   <g id="line2d_43">
    <path d="M 304.6325 122.241301 
L 304.6325 104.604677 
" clip-path="url(#p5f8f08a111)" style="fill: none; stroke: #22c55e; stroke-width: 1.5; stroke-linecap: square"/>
   </g>
   <g id="line2d_44">
    <path d="M 319.0325 136.729495 
L 319.0325 107.227076 
" clip-path="url(#p5f8f08a111)" style="fill: none; stroke: #22c55e; stroke-width: 1.5; stroke-linecap: square"/>
   </g>
   <g id="line2d_45">
    <path d="M 333.4325 133.30173 
L 333.4325 113.526736 
" clip-path="url(#p5f8f08a111)" style="fill: none; stroke: #ef4444; stroke-width: 1.5; stroke-linecap: square"/>
   </g>
   <g id="line2d_46">
    <path d="M 347.8325 124.842256 
L 347.8325 104.281852 
" clip-path="url(#p5f8f08a111)" style="fill: none; stroke: #ef4444; stroke-width: 1.5; stroke-linecap: square"/>
   </g>
   <g id="line2d_47">
    <path d="M 362.2325 99.358773 
L 362.2325 66.447842 
" clip-path="url(#p5f8f08a111)" style="fill: none; stroke: #ef4444; stroke-width: 1.5; stroke-linecap: square"/>
   </g>
   <g id="line2d_48">
    <path d="M 376.6325 84.141557 
L 376.6325 59.805815 
" clip-path="url(#p5f8f08a111)" style="fill: none; stroke: #ef4444; stroke-width: 1.5; stroke-linecap: square"/>
   </g>
   <g id="line2d_49">
    <path d="M 391.0325 95.698289 
L 391.0325 66.870948 
" clip-path="url(#p5f8f08a111)" style="fill: none; stroke: #ef4444; stroke-width: 1.5; stroke-linecap: square"/>
   </g>
   <g id="line2d_50">
    <path d="M 405.4325 73.038335 
L 405.4325 48.886641 
" clip-path="url(#p5f8f08a111)" style="fill: none; stroke: #ef4444; stroke-width: 1.5; stroke-linecap: square"/>
   </g>
   <g id="line2d_51">
    <path d="M 419.8325 81.469456 
L 419.8325 63.147609 
" clip-path="url(#p5f8f08a111)" style="fill: none; stroke: #ef4444; stroke-width: 1.5; stroke-linecap: square"/>
   </g>
   <g id="line2d_52">
    <path d="M 434.2325 67.354667 
L 434.2325 50.198828 
" clip-path="url(#p5f8f08a111)" style="fill: none; stroke: #ef4444; stroke-width: 1.5; stroke-linecap: square"/>
   </g>
   <g id="line2d_53">
    <path d="M 448.6325 70.506633 
L 448.6325 47.487316 
" clip-path="url(#p5f8f08a111)" style="fill: none; stroke: #ef4444; stroke-width: 1.5; stroke-linecap: square"/>
   </g>
   <g id="line2d_54">
    <path d="M 463.0325 68.265975 
L 463.0325 44.840076 
" clip-path="url(#p5f8f08a111)" style="fill: none; stroke: #ef4444; stroke-width: 1.5; stroke-linecap: square"/>
   </g>
   <g id="patch_33">
    <path d="M 31.0325 193.58154 
L 31.0325 31.318125 
" style="fill: none; stroke: #1f2937; stroke-width: 0.8; stroke-linejoin: miter; stroke-linecap: square"/>
   </g>
   <g id="patch_34">
    <path d="M 31.0325 193.58154 
L 477.4325 193.58154 
" style="fill: none; stroke: #1f2937; stroke-width: 0.8; stroke-linejoin: miter; stroke-linecap: square"/>
   </g>
   <g id="text_6">
    <!-- Rectangle (Bearish) — QQQ 1H -->
    <g style="fill: #ffffff" transform="translate(150.48875 16.318125) scale(0.12 -0.12)">
     <defs>
      <path id="DejaVuSans-Bold-52" d="M 2297 2597 
Q 2675 2597 2839 2737 
Q 3003 2878 3003 3200 
Q 3003 3519 2839 3656 
Q 2675 3794 2297 3794 
L 1791 3794 
L 1791 2597 
L 2297 2597 
z
M 1791 1766 
L 1791 0 
L 588 0 
L 588 4666 
L 2425 4666 
Q 3347 4666 3776 4356 
Q 4206 4047 4206 3378 
Q 4206 2916 3982 2619 
Q 3759 2322 3309 2181 
Q 3556 2125 3751 1926 
Q 3947 1728 4147 1325 
L 4800 0 
L 3519 0 
L 2950 1159 
Q 2778 1509 2601 1637 
Q 2425 1766 2131 1766 
L 1791 1766 
z
" transform="scale(0.015625)"/>
      <path id="DejaVuSans-Bold-65" d="M 4031 1759 
L 4031 1441 
L 1416 1441 
Q 1456 1047 1700 850 
Q 1944 653 2381 653 
Q 2734 653 3104 758 
Q 3475 863 3866 1075 
L 3866 213 
Q 3469 63 3072 -14 
Q 2675 -91 2278 -91 
Q 1328 -91 801 392 
Q 275 875 275 1747 
Q 275 2603 792 3093 
Q 1309 3584 2216 3584 
Q 3041 3584 3536 3087 
Q 4031 2591 4031 1759 
z
M 2881 2131 
Q 2881 2450 2695 2645 
Q 2509 2841 2209 2841 
Q 1884 2841 1681 2658 
Q 1478 2475 1428 2131 
L 2881 2131 
z
" transform="scale(0.015625)"/>
      <path id="DejaVuSans-Bold-63" d="M 3366 3391 
L 3366 2478 
Q 3138 2634 2908 2709 
Q 2678 2784 2431 2784 
Q 1963 2784 1702 2511 
Q 1441 2238 1441 1747 
Q 1441 1256 1702 982 
Q 1963 709 2431 709 
Q 2694 709 2930 787 
Q 3166 866 3366 1019 
L 3366 103 
Q 3103 6 2833 -42 
Q 2563 -91 2291 -91 
Q 1344 -91 809 395 
Q 275 881 275 1747 
Q 275 2613 809 3098 
Q 1344 3584 2291 3584 
Q 2566 3584 2833 3536 
Q 3100 3488 3366 3391 
z
" transform="scale(0.015625)"/>
      <path id="DejaVuSans-Bold-74" d="M 1759 4494 
L 1759 3500 
L 2913 3500 
L 2913 2700 
L 1759 2700 
L 1759 1216 
Q 1759 972 1856 886 
Q 1953 800 2241 800 
L 2816 800 
L 2816 0 
L 1856 0 
Q 1194 0 917 276 
Q 641 553 641 1216 
L 641 2700 
L 84 2700 
L 84 3500 
L 641 3500 
L 641 4494 
L 1759 4494 
z
" transform="scale(0.015625)"/>
      <path id="DejaVuSans-Bold-61" d="M 2106 1575 
Q 1756 1575 1579 1456 
Q 1403 1338 1403 1106 
Q 1403 894 1545 773 
Q 1688 653 1941 653 
Q 2256 653 2472 879 
Q 2688 1106 2688 1447 
L 2688 1575 
L 2106 1575 
z
M 3816 1997 
L 3816 0 
L 2688 0 
L 2688 519 
Q 2463 200 2181 54 
Q 1900 -91 1497 -91 
Q 953 -91 614 226 
Q 275 544 275 1050 
Q 275 1666 698 1953 
Q 1122 2241 2028 2241 
L 2688 2241 
L 2688 2328 
Q 2688 2594 2478 2717 
Q 2269 2841 1825 2841 
Q 1466 2841 1156 2769 
Q 847 2697 581 2553 
L 581 3406 
Q 941 3494 1303 3539 
Q 1666 3584 2028 3584 
Q 2975 3584 3395 3211 
Q 3816 2838 3816 1997 
z
" transform="scale(0.015625)"/>
      <path id="DejaVuSans-Bold-6e" d="M 4056 2131 
L 4056 0 
L 2931 0 
L 2931 347 
L 2931 1631 
Q 2931 2084 2911 2256 
Q 2891 2428 2841 2509 
Q 2775 2619 2662 2680 
Q 2550 2741 2406 2741 
Q 2056 2741 1856 2470 
Q 1656 2200 1656 1722 
L 1656 0 
L 538 0 
L 538 3500 
L 1656 3500 
L 1656 2988 
Q 1909 3294 2193 3439 
Q 2478 3584 2822 3584 
Q 3428 3584 3742 3212 
Q 4056 2841 4056 2131 
z
" transform="scale(0.015625)"/>
      <path id="DejaVuSans-Bold-67" d="M 2919 594 
Q 2688 288 2409 144 
Q 2131 0 1766 0 
Q 1125 0 706 504 
Q 288 1009 288 1791 
Q 288 2575 706 3076 
Q 1125 3578 1766 3578 
Q 2131 3578 2409 3434 
Q 2688 3291 2919 2981 
L 2919 3500 
L 4044 3500 
L 4044 353 
Q 4044 -491 3511 -936 
Q 2978 -1381 1966 -1381 
Q 1638 -1381 1331 -1331 
Q 1025 -1281 716 -1178 
L 716 -306 
Q 1009 -475 1290 -558 
Q 1572 -641 1856 -641 
Q 2406 -641 2662 -400 
Q 2919 -159 2919 353 
L 2919 594 
z
M 2181 2772 
Q 1834 2772 1640 2515 
Q 1447 2259 1447 1791 
Q 1447 1309 1634 1061 
Q 1822 813 2181 813 
Q 2531 813 2725 1069 
Q 2919 1325 2919 1791 
Q 2919 2259 2725 2515 
Q 2531 2772 2181 2772 
z
" transform="scale(0.015625)"/>
      <path id="DejaVuSans-Bold-6c" d="M 538 4863 
L 1656 4863 
L 1656 0 
L 538 0 
L 538 4863 
z
" transform="scale(0.015625)"/>
      <path id="DejaVuSans-Bold-20" transform="scale(0.015625)"/>
      <path id="DejaVuSans-Bold-28" d="M 2413 -844 
L 1484 -844 
Q 1006 -72 778 623 
Q 550 1319 550 2003 
Q 550 2688 779 3389 
Q 1009 4091 1484 4856 
L 2413 4856 
Q 2013 4116 1813 3408 
Q 1613 2700 1613 2009 
Q 1613 1319 1811 609 
Q 2009 -100 2413 -844 
z
" transform="scale(0.015625)"/>
      <path id="DejaVuSans-Bold-42" d="M 2456 2859 
Q 2741 2859 2887 2984 
Q 3034 3109 3034 3353 
Q 3034 3594 2887 3720 
Q 2741 3847 2456 3847 
L 1791 3847 
L 1791 2859 
L 2456 2859 
z
M 2497 819 
Q 2859 819 3042 972 
Q 3225 1125 3225 1434 
Q 3225 1738 3044 1889 
Q 2863 2041 2497 2041 
L 1791 2041 
L 1791 819 
L 2497 819 
z
M 3616 2497 
Q 4003 2384 4215 2081 
Q 4428 1778 4428 1338 
Q 4428 663 3972 331 
Q 3516 0 2584 0 
L 588 0 
L 588 4666 
L 2394 4666 
Q 3366 4666 3802 4372 
Q 4238 4078 4238 3431 
Q 4238 3091 4078 2852 
Q 3919 2613 3616 2497 
z
" transform="scale(0.015625)"/>
      <path id="DejaVuSans-Bold-72" d="M 3138 2547 
Q 2991 2616 2845 2648 
Q 2700 2681 2553 2681 
Q 2122 2681 1889 2404 
Q 1656 2128 1656 1613 
L 1656 0 
L 538 0 
L 538 3500 
L 1656 3500 
L 1656 2925 
Q 1872 3269 2151 3426 
Q 2431 3584 2822 3584 
Q 2878 3584 2943 3579 
Q 3009 3575 3134 3559 
L 3138 2547 
z
" transform="scale(0.015625)"/>
      <path id="DejaVuSans-Bold-69" d="M 538 3500 
L 1656 3500 
L 1656 0 
L 538 0 
L 538 3500 
z
M 538 4863 
L 1656 4863 
L 1656 3950 
L 538 3950 
L 538 4863 
z
" transform="scale(0.015625)"/>
      <path id="DejaVuSans-Bold-73" d="M 3272 3391 
L 3272 2541 
Q 2913 2691 2578 2766 
Q 2244 2841 1947 2841 
Q 1628 2841 1473 2761 
Q 1319 2681 1319 2516 
Q 1319 2381 1436 2309 
Q 1553 2238 1856 2203 
L 2053 2175 
Q 2913 2066 3209 1816 
Q 3506 1566 3506 1031 
Q 3506 472 3093 190 
Q 2681 -91 1863 -91 
Q 1516 -91 1145 -36 
Q 775 19 384 128 
L 384 978 
Q 719 816 1070 734 
Q 1422 653 1784 653 
Q 2113 653 2278 743 
Q 2444 834 2444 1013 
Q 2444 1163 2330 1236 
Q 2216 1309 1875 1350 
L 1678 1375 
Q 931 1469 631 1722 
Q 331 1975 331 2491 
Q 331 3047 712 3315 
Q 1094 3584 1881 3584 
Q 2191 3584 2531 3537 
Q 2872 3491 3272 3391 
z
" transform="scale(0.015625)"/>
      <path id="DejaVuSans-Bold-68" d="M 4056 2131 
L 4056 0 
L 2931 0 
L 2931 347 
L 2931 1625 
Q 2931 2084 2911 2256 
Q 2891 2428 2841 2509 
Q 2775 2619 2662 2680 
Q 2550 2741 2406 2741 
Q 2056 2741 1856 2470 
Q 1656 2200 1656 1722 
L 1656 0 
L 538 0 
L 538 4863 
L 1656 4863 
L 1656 2988 
Q 1909 3294 2193 3439 
Q 2478 3584 2822 3584 
Q 3428 3584 3742 3212 
Q 4056 2841 4056 2131 
z
" transform="scale(0.015625)"/>
      <path id="DejaVuSans-Bold-29" d="M 513 -844 
Q 913 -100 1113 609 
Q 1313 1319 1313 2009 
Q 1313 2700 1113 3408 
Q 913 4116 513 4856 
L 1441 4856 
Q 1916 4091 2145 3389 
Q 2375 2688 2375 2003 
Q 2375 1319 2147 623 
Q 1919 -72 1441 -844 
L 513 -844 
z
" transform="scale(0.015625)"/>
      <path id="DejaVuSans-Bold-2014" d="M 344 2156 
L 6056 2156 
L 6056 1350 
L 344 1350 
L 344 2156 
z
" transform="scale(0.015625)"/>
      <path id="DejaVuSans-Bold-51" d="M 2847 -84 
L 2753 -84 
Q 1600 -84 959 553 
Q 319 1191 319 2328 
Q 319 3463 958 4106 
Q 1597 4750 2719 4750 
Q 3853 4750 4486 4112 
Q 5119 3475 5119 2328 
Q 5119 1541 4783 972 
Q 4447 403 3816 116 
L 4756 -934 
L 3609 -934 
L 2847 -84 
z
M 2719 3878 
Q 2169 3878 1866 3472 
Q 1563 3066 1563 2328 
Q 1563 1578 1859 1179 
Q 2156 781 2719 781 
Q 3272 781 3575 1187 
Q 3878 1594 3878 2328 
Q 3878 3066 3575 3472 
Q 3272 3878 2719 3878 
z
" transform="scale(0.015625)"/>
      <path id="DejaVuSans-Bold-31" d="M 750 831 
L 1813 831 
L 1813 3847 
L 722 3622 
L 722 4441 
L 1806 4666 
L 2950 4666 
L 2950 831 
L 4013 831 
L 4013 0 
L 750 0 
L 750 831 
z
" transform="scale(0.015625)"/>
      <path id="DejaVuSans-Bold-48" d="M 588 4666 
L 1791 4666 
L 1791 2888 
L 3566 2888 
L 3566 4666 
L 4769 4666 
L 4769 0 
L 3566 0 
L 3566 1978 
L 1791 1978 
L 1791 0 
L 588 0 
L 588 4666 
z
" transform="scale(0.015625)"/>
     </defs>
     <use xlink:href="#DejaVuSans-Bold-52"/>
     <use xlink:href="#DejaVuSans-Bold-65" transform="translate(77.001953 0)"/>
     <use xlink:href="#DejaVuSans-Bold-63" transform="translate(144.824219 0)"/>
     <use xlink:href="#DejaVuSans-Bold-74" transform="translate(204.101562 0)"/>
     <use xlink:href="#DejaVuSans-Bold-61" transform="translate(251.904297 0)"/>
     <use xlink:href="#DejaVuSans-Bold-6e" transform="translate(319.384766 0)"/>
     <use xlink:href="#DejaVuSans-Bold-67" transform="translate(390.576172 0)"/>
     <use xlink:href="#DejaVuSans-Bold-6c" transform="translate(462.158203 0)"/>
     <use xlink:href="#DejaVuSans-Bold-65" transform="translate(496.435547 0)"/>
     <use xlink:href="#DejaVuSans-Bold-20" transform="translate(564.257812 0)"/>
     <use xlink:href="#DejaVuSans-Bold-28" transform="translate(599.072266 0)"/>
     <use xlink:href="#DejaVuSans-Bold-42" transform="translate(644.775391 0)"/>
     <use xlink:href="#DejaVuSans-Bold-65" transform="translate(720.996094 0)"/>
     <use xlink:href="#DejaVuSans-Bold-61" transform="translate(788.818359 0)"/>
     <use xlink:href="#DejaVuSans-Bold-72" transform="translate(856.298828 0)"/>
     <use xlink:href="#DejaVuSans-Bold-69" transform="translate(905.615234 0)"/>
     <use xlink:href="#DejaVuSans-Bold-73" transform="translate(939.892578 0)"/>
     <use xlink:href="#DejaVuSans-Bold-68" transform="translate(999.414062 0)"/>
     <use xlink:href="#DejaVuSans-Bold-29" transform="translate(1070.605469 0)"/>
     <use xlink:href="#DejaVuSans-Bold-20" transform="translate(1116.308594 0)"/>
     <use xlink:href="#DejaVuSans-Bold-2014" transform="translate(1151.123047 0)"/>
     <use xlink:href="#DejaVuSans-Bold-20" transform="translate(1251.123047 0)"/>
     <use xlink:href="#DejaVuSans-Bold-51" transform="translate(1285.9375 0)"/>
     <use xlink:href="#DejaVuSans-Bold-51" transform="translate(1370.947266 0)"/>
     <use xlink:href="#DejaVuSans-Bold-51" transform="translate(1455.957031 0)"/>
     <use xlink:href="#DejaVuSans-Bold-20" transform="translate(1540.966797 0)"/>
     <use xlink:href="#DejaVuSans-Bold-31" transform="translate(1575.78125 0)"/>
     <use xlink:href="#DejaVuSans-Bold-48" transform="translate(1645.361328 0)"/>
    </g>
   </g>
  </g>
  <g id="axes_2">
   <g id="patch_35">
    <path d="M 31.0325 253.078125 
L 477.4325 253.078125 
L 477.4325 198.99032 
L 31.0325 198.99032 
z
" style="fill: #0a0f1a"/>
   </g>
   <g id="patch_36">
    <path d="M 51.323409 253.078125 
L 60.888147 253.078125 
L 60.888147 227.596711 
L 51.323409 227.596711 
z
" clip-path="url(#pa460a37e67)" style="fill: #22c55e; fill-opacity: 0.266667"/>
   </g>
   <g id="patch_37">
    <path d="M 64.987321 253.078125 
L 74.552059 253.078125 
L 74.552059 232.875199 
L 64.987321 232.875199 
z
" clip-path="url(#pa460a37e67)" style="fill: #22c55e; fill-opacity: 0.266667"/>
   </g>
   <g id="patch_38">
    <path d="M 78.651233 253.078125 
L 88.215971 253.078125 
L 88.215971 226.486535 
L 78.651233 226.486535 
z
" clip-path="url(#pa460a37e67)" style="fill: #22c55e; fill-opacity: 0.266667"/>
   </g>
   <g id="patch_39">
    <path d="M 92.315145 253.078125 
L 101.879883 253.078125 
L 101.879883 208.333423 
L 92.315145 208.333423 
z
" clip-path="url(#pa460a37e67)" style="fill: #22c55e; fill-opacity: 0.266667"/>
   </g>
   <g id="patch_40">
    <path d="M 105.979056 253.078125 
L 115.543795 253.078125 
L 115.543795 232.998044 
L 105.979056 232.998044 
z
" clip-path="url(#pa460a37e67)" style="fill: #22c55e; fill-opacity: 0.266667"/>
   </g>
   <g id="patch_41">
    <path d="M 119.642968 253.078125 
L 129.207707 253.078125 
L 129.207707 233.744313 
L 119.642968 233.744313 
z
" clip-path="url(#pa460a37e67)" style="fill: #22c55e; fill-opacity: 0.266667"/>
   </g>
   <g id="patch_42">
    <path d="M 133.30688 253.078125 
L 142.871618 253.078125 
L 142.871618 226.749311 
L 133.30688 226.749311 
z
" clip-path="url(#pa460a37e67)" style="fill: #22c55e; fill-opacity: 0.266667"/>
   </g>
   <g id="patch_43">
    <path d="M 146.970792 253.078125 
L 156.53553 253.078125 
L 156.53553 203.323009 
L 146.970792 203.323009 
z
" clip-path="url(#pa460a37e67)" style="fill: #ef4444; fill-opacity: 0.266667"/>
   </g>
   <g id="patch_44">
    <path d="M 160.634704 253.078125 
L 170.199442 253.078125 
L 170.199442 210.928622 
L 160.634704 210.928622 
z
" clip-path="url(#pa460a37e67)" style="fill: #22c55e; fill-opacity: 0.266667"/>
   </g>
   <g id="patch_45">
    <path d="M 174.298616 253.078125 
L 183.863354 253.078125 
L 183.863354 204.3127 
L 174.298616 204.3127 
z
" clip-path="url(#pa460a37e67)" style="fill: #22c55e; fill-opacity: 0.266667"/>
   </g>
   <g id="patch_46">
    <path d="M 187.962528 253.078125 
L 197.527266 253.078125 
L 197.527266 233.477608 
L 187.962528 233.477608 
z
" clip-path="url(#pa460a37e67)" style="fill: #ef4444; fill-opacity: 0.266667"/>
   </g>
   <g id="patch_47">
    <path d="M 201.626439 253.078125 
L 211.191178 253.078125 
L 211.191178 214.881861 
L 201.626439 214.881861 
z
" clip-path="url(#pa460a37e67)" style="fill: #ef4444; fill-opacity: 0.266667"/>
   </g>
   <g id="patch_48">
    <path d="M 215.290351 253.078125 
L 224.85509 253.078125 
L 224.85509 215.447811 
L 215.290351 215.447811 
z
" clip-path="url(#pa460a37e67)" style="fill: #22c55e; fill-opacity: 0.266667"/>
   </g>
   <g id="patch_49">
    <path d="M 228.954263 253.078125 
L 238.519001 253.078125 
L 238.519001 206.636691 
L 228.954263 206.636691 
z
" clip-path="url(#pa460a37e67)" style="fill: #22c55e; fill-opacity: 0.266667"/>
   </g>
   <g id="patch_50">
    <path d="M 242.618175 253.078125 
L 252.182913 253.078125 
L 252.182913 240.595079 
L 242.618175 240.595079 
z
" clip-path="url(#pa460a37e67)" style="fill: #22c55e; fill-opacity: 0.266667"/>
   </g>
   <g id="patch_51">
    <path d="M 256.282087 253.078125 
L 265.846825 253.078125 
L 265.846825 208.353612 
L 256.282087 208.353612 
z
" clip-path="url(#pa460a37e67)" style="fill: #ef4444; fill-opacity: 0.266667"/>
   </g>
   <g id="patch_52">
    <path d="M 269.945999 253.078125 
L 279.510737 253.078125 
L 279.510737 219.590742 
L 269.945999 219.590742 
z
" clip-path="url(#pa460a37e67)" style="fill: #ef4444; fill-opacity: 0.266667"/>
   </g>
   <g id="patch_53">
    <path d="M 283.60991 253.078125 
L 293.174649 253.078125 
L 293.174649 240.282354 
L 283.60991 240.282354 
z
" clip-path="url(#pa460a37e67)" style="fill: #22c55e; fill-opacity: 0.266667"/>
   </g>
   <g id="patch_54">
    <path d="M 297.273822 253.078125 
L 306.838561 253.078125 
L 306.838561 208.156814 
L 297.273822 208.156814 
z
" clip-path="url(#pa460a37e67)" style="fill: #22c55e; fill-opacity: 0.266667"/>
   </g>
   <g id="patch_55">
    <path d="M 310.937734 253.078125 
L 320.502472 253.078125 
L 320.502472 222.086827 
L 310.937734 222.086827 
z
" clip-path="url(#pa460a37e67)" style="fill: #22c55e; fill-opacity: 0.266667"/>
   </g>
   <g id="patch_56">
    <path d="M 324.601646 253.078125 
L 334.166384 253.078125 
L 334.166384 227.914316 
L 324.601646 227.914316 
z
" clip-path="url(#pa460a37e67)" style="fill: #ef4444; fill-opacity: 0.266667"/>
   </g>
   <g id="patch_57">
    <path d="M 338.265558 253.078125 
L 347.830296 253.078125 
L 347.830296 209.952881 
L 338.265558 209.952881 
z
" clip-path="url(#pa460a37e67)" style="fill: #ef4444; fill-opacity: 0.266667"/>
   </g>
   <g id="patch_58">
    <path d="M 351.92947 253.078125 
L 361.494208 253.078125 
L 361.494208 230.625986 
L 351.92947 230.625986 
z
" clip-path="url(#pa460a37e67)" style="fill: #ef4444; fill-opacity: 0.266667"/>
   </g>
   <g id="patch_59">
    <path d="M 365.593382 253.078125 
L 375.15812 253.078125 
L 375.15812 235.505143 
L 365.593382 235.505143 
z
" clip-path="url(#pa460a37e67)" style="fill: #ef4444; fill-opacity: 0.266667"/>
   </g>
   <g id="patch_60">
    <path d="M 379.257293 253.078125 
L 388.822032 253.078125 
L 388.822032 230.809983 
L 379.257293 230.809983 
z
" clip-path="url(#pa460a37e67)" style="fill: #ef4444; fill-opacity: 0.266667"/>
   </g>
   <g id="patch_61">
    <path d="M 392.921205 253.078125 
L 402.485944 253.078125 
L 402.485944 217.708247 
L 392.921205 217.708247 
z
" clip-path="url(#pa460a37e67)" style="fill: #ef4444; fill-opacity: 0.266667"/>
   </g>
   <g id="patch_62">
    <path d="M 406.585117 253.078125 
L 416.149855 253.078125 
L 416.149855 228.375854 
L 406.585117 228.375854 
z
" clip-path="url(#pa460a37e67)" style="fill: #ef4444; fill-opacity: 0.266667"/>
   </g>
   <g id="patch_63">
    <path d="M 420.249029 253.078125 
L 429.813767 253.078125 
L 429.813767 201.56593 
L 420.249029 201.56593 
z
" clip-path="url(#pa460a37e67)" style="fill: #ef4444; fill-opacity: 0.266667"/>
   </g>
   <g id="patch_64">
    <path d="M 433.912941 253.078125 
L 443.477679 253.078125 
L 443.477679 240.420717 
L 433.912941 240.420717 
z
" clip-path="url(#pa460a37e67)" style="fill: #ef4444; fill-opacity: 0.266667"/>
   </g>
   <g id="patch_65">
    <path d="M 447.576853 253.078125 
L 457.141591 253.078125 
L 457.141591 231.799528 
L 447.576853 231.799528 
z
" clip-path="url(#pa460a37e67)" style="fill: #ef4444; fill-opacity: 0.266667"/>
   </g>
   <g id="matplotlib.axis_3">
    <g id="xtick_8">
     <g id="line2d_55">
      <path d="M 56.105778 253.078125 
L 56.105778 198.99032 
" clip-path="url(#pa460a37e67)" style="fill: none; stroke-dasharray: 2.96,1.28; stroke-dashoffset: 0; stroke: #374151; stroke-opacity: 0.1; stroke-width: 0.8"/>
     </g>
     <g id="line2d_56">
      <g>
       <use xlink:href="#mbf53c69f97" x="56.105778" y="253.078125" style="fill: #9ca3af; stroke: #9ca3af; stroke-width: 0.8"/>
      </g>
     </g>
     <g id="text_7">
      <!-- 0 -->
      <g style="fill: #9ca3af" transform="translate(53.560778 266.156875) scale(0.08 -0.08)">
       <use xlink:href="#DejaVuSans-30"/>
      </g>
     </g>
    </g>
    <g id="xtick_9">
     <g id="line2d_57">
      <path d="M 124.425337 253.078125 
L 124.425337 198.99032 
" clip-path="url(#pa460a37e67)" style="fill: none; stroke-dasharray: 2.96,1.28; stroke-dashoffset: 0; stroke: #374151; stroke-opacity: 0.1; stroke-width: 0.8"/>
     </g>
     <g id="line2d_58">
      <g>
       <use xlink:href="#mbf53c69f97" x="124.425337" y="253.078125" style="fill: #9ca3af; stroke: #9ca3af; stroke-width: 0.8"/>
      </g>
     </g>
     <g id="text_8">
      <!-- 5 -->
      <g style="fill: #9ca3af" transform="translate(121.880337 266.156875) scale(0.08 -0.08)">
       <defs>
        <path id="DejaVuSans-35" d="M 691 4666 
L 3169 4666 
L 3169 4134 
L 1269 4134 
L 1269 2991 
Q 1406 3038 1543 3061 
Q 1681 3084 1819 3084 
Q 2600 3084 3056 2656 
Q 3513 2228 3513 1497 
Q 3513 744 3044 326 
Q 2575 -91 1722 -91 
Q 1428 -91 1123 -41 
Q 819 9 494 109 
L 494 744 
Q 775 591 1075 516 
Q 1375 441 1709 441 
Q 2250 441 2565 725 
Q 2881 1009 2881 1497 
Q 2881 1984 2565 2268 
Q 2250 2553 1709 2553 
Q 1456 2553 1204 2497 
Q 953 2441 691 2322 
L 691 4666 
z
" transform="scale(0.015625)"/>
       </defs>
       <use xlink:href="#DejaVuSans-35"/>
      </g>
     </g>
    </g>
    <g id="xtick_10">
     <g id="line2d_59">
      <path d="M 192.744897 253.078125 
L 192.744897 198.99032 
" clip-path="url(#pa460a37e67)" style="fill: none; stroke-dasharray: 2.96,1.28; stroke-dashoffset: 0; stroke: #374151; stroke-opacity: 0.1; stroke-width: 0.8"/>
     </g>
     <g id="line2d_60">
      <g>
       <use xlink:href="#mbf53c69f97" x="192.744897" y="253.078125" style="fill: #9ca3af; stroke: #9ca3af; stroke-width: 0.8"/>
      </g>
     </g>
     <g id="text_9">
      <!-- 10 -->
      <g style="fill: #9ca3af" transform="translate(187.654897 266.156875) scale(0.08 -0.08)">
       <use xlink:href="#DejaVuSans-31"/>
       <use xlink:href="#DejaVuSans-30" transform="translate(63.623047 0)"/>
      </g>
     </g>
    </g>
    <g id="xtick_11">
     <g id="line2d_61">
      <path d="M 261.064456 253.078125 
L 261.064456 198.99032 
" clip-path="url(#pa460a37e67)" style="fill: none; stroke-dasharray: 2.96,1.28; stroke-dashoffset: 0; stroke: #374151; stroke-opacity: 0.1; stroke-width: 0.8"/>
     </g>
     <g id="line2d_62">
      <g>
       <use xlink:href="#mbf53c69f97" x="261.064456" y="253.078125" style="fill: #9ca3af; stroke: #9ca3af; stroke-width: 0.8"/>
      </g>
     </g>
     <g id="text_10">
      <!-- 15 -->
      <g style="fill: #9ca3af" transform="translate(255.974456 266.156875) scale(0.08 -0.08)">
       <use xlink:href="#DejaVuSans-31"/>
       <use xlink:href="#DejaVuSans-35" transform="translate(63.623047 0)"/>
      </g>
     </g>
    </g>
    <g id="xtick_12">
     <g id="line2d_63">
      <path d="M 329.384015 253.078125 
L 329.384015 198.99032 
" clip-path="url(#pa460a37e67)" style="fill: none; stroke-dasharray: 2.96,1.28; stroke-dashoffset: 0; stroke: #374151; stroke-opacity: 0.1; stroke-width: 0.8"/>
     </g>
     <g id="line2d_64">
      <g>
       <use xlink:href="#mbf53c69f97" x="329.384015" y="253.078125" style="fill: #9ca3af; stroke: #9ca3af; stroke-width: 0.8"/>
      </g>
     </g>
     <g id="text_11">
      <!-- 20 -->
      <g style="fill: #9ca3af" transform="translate(324.294015 266.156875) scale(0.08 -0.08)">
       <use xlink:href="#DejaVuSans-32"/>
       <use xlink:href="#DejaVuSans-30" transform="translate(63.623047 0)"/>
      </g>
     </g>
    </g>
    <g id="xtick_13">
     <g id="line2d_65">
      <path d="M 397.703574 253.078125 
L 397.703574 198.99032 
" clip-path="url(#pa460a37e67)" style="fill: none; stroke-dasharray: 2.96,1.28; stroke-dashoffset: 0; stroke: #374151; stroke-opacity: 0.1; stroke-width: 0.8"/>
     </g>
     <g id="line2d_66">
      <g>
       <use xlink:href="#mbf53c69f97" x="397.703574" y="253.078125" style="fill: #9ca3af; stroke: #9ca3af; stroke-width: 0.8"/>
      </g>
     </g>
     <g id="text_12">
      <!-- 25 -->
      <g style="fill: #9ca3af" transform="translate(392.613574 266.156875) scale(0.08 -0.08)">
       <use xlink:href="#DejaVuSans-32"/>
       <use xlink:href="#DejaVuSans-35" transform="translate(63.623047 0)"/>
      </g>
     </g>
    </g>
    <g id="xtick_14">
     <g id="line2d_67">
      <path d="M 466.023134 253.078125 
L 466.023134 198.99032 
" clip-path="url(#pa460a37e67)" style="fill: none; stroke-dasharray: 2.96,1.28; stroke-dashoffset: 0; stroke: #374151; stroke-opacity: 0.1; stroke-width: 0.8"/>
     </g>
     <g id="line2d_68">
      <g>
       <use xlink:href="#mbf53c69f97" x="466.023134" y="253.078125" style="fill: #9ca3af; stroke: #9ca3af; stroke-width: 0.8"/>
      </g>
     </g>
     <g id="text_13">
      <!-- 30 -->
      <g style="fill: #9ca3af" transform="translate(460.933134 266.156875) scale(0.08 -0.08)">
       <defs>
        <path id="DejaVuSans-33" d="M 2597 2516 
Q 3050 2419 3304 2112 
Q 3559 1806 3559 1356 
Q 3559 666 3084 287 
Q 2609 -91 1734 -91 
Q 1441 -91 1130 -33 
Q 819 25 488 141 
L 488 750 
Q 750 597 1062 519 
Q 1375 441 1716 441 
Q 2309 441 2620 675 
Q 2931 909 2931 1356 
Q 2931 1769 2642 2001 
Q 2353 2234 1838 2234 
L 1294 2234 
L 1294 2753 
L 1863 2753 
Q 2328 2753 2575 2939 
Q 2822 3125 2822 3475 
Q 2822 3834 2567 4026 
Q 2313 4219 1838 4219 
Q 1578 4219 1281 4162 
Q 984 4106 628 3988 
L 628 4550 
Q 988 4650 1302 4700 
Q 1616 4750 1894 4750 
Q 2613 4750 3031 4423 
Q 3450 4097 3450 3541 
Q 3450 3153 3228 2886 
Q 3006 2619 2597 2516 
z
" transform="scale(0.015625)"/>
       </defs>
       <use xlink:href="#DejaVuSans-33"/>
       <use xlink:href="#DejaVuSans-30" transform="translate(63.623047 0)"/>
      </g>
     </g>
    </g>
   </g>
   <g id="matplotlib.axis_4">
    <g id="ytick_6">
     <g id="line2d_69">
      <path d="M 31.0325 253.078125 
L 477.4325 253.078125 
" clip-path="url(#pa460a37e67)" style="fill: none; stroke-dasharray: 2.96,1.28; stroke-dashoffset: 0; stroke: #374151; stroke-opacity: 0.1; stroke-width: 0.8"/>
     </g>
     <g id="line2d_70">
      <g>
       <use xlink:href="#md19e048c42" x="31.0325" y="253.078125" style="fill: #9ca3af; stroke: #9ca3af; stroke-width: 0.8"/>
      </g>
     </g>
     <g id="text_14">
      <!-- 0 -->
      <g style="fill: #9ca3af" transform="translate(18.9425 256.1175) scale(0.08 -0.08)">
       <use xlink:href="#DejaVuSans-30"/>
      </g>
     </g>
    </g>
    <g id="ytick_7">
     <g id="line2d_71">
      <path d="M 31.0325 232.178932 
L 477.4325 232.178932 
" clip-path="url(#pa460a37e67)" style="fill: none; stroke-dasharray: 2.96,1.28; stroke-dashoffset: 0; stroke: #374151; stroke-opacity: 0.1; stroke-width: 0.8"/>
     </g>
     <g id="line2d_72">
      <g>
       <use xlink:href="#md19e048c42" x="31.0325" y="232.178932" style="fill: #9ca3af; stroke: #9ca3af; stroke-width: 0.8"/>
      </g>
     </g>
     <g id="text_15">
      <!-- 2 -->
      <g style="fill: #9ca3af" transform="translate(18.9425 235.218307) scale(0.08 -0.08)">
       <use xlink:href="#DejaVuSans-32"/>
      </g>
     </g>
    </g>
    <g id="ytick_8">
     <g id="line2d_73">
      <path d="M 31.0325 211.279739 
L 477.4325 211.279739 
" clip-path="url(#pa460a37e67)" style="fill: none; stroke-dasharray: 2.96,1.28; stroke-dashoffset: 0; stroke: #374151; stroke-opacity: 0.1; stroke-width: 0.8"/>
     </g>
     <g id="line2d_74">
      <g>
       <use xlink:href="#md19e048c42" x="31.0325" y="211.279739" style="fill: #9ca3af; stroke: #9ca3af; stroke-width: 0.8"/>
      </g>
     </g>
     <g id="text_16">
      <!-- 4 -->
      <g style="fill: #9ca3af" transform="translate(18.9425 214.319114) scale(0.08 -0.08)">
       <use xlink:href="#DejaVuSans-34"/>
      </g>
     </g>
    </g>
    <g id="text_17">
     <!-- Vol -->
     <g style="fill: #9ca3af" transform="translate(13.27875 232.019223) rotate(-90) scale(0.08 -0.08)">
      <defs>
       <path id="DejaVuSans-56" d="M 1831 0 
L 50 4666 
L 709 4666 
L 2188 738 
L 3669 4666 
L 4325 4666 
L 2547 0 
L 1831 0 
z
" transform="scale(0.015625)"/>
       <path id="DejaVuSans-6f" d="M 1959 3097 
Q 1497 3097 1228 2736 
Q 959 2375 959 1747 
Q 959 1119 1226 758 
Q 1494 397 1959 397 
Q 2419 397 2687 759 
Q 2956 1122 2956 1747 
Q 2956 2369 2687 2733 
Q 2419 3097 1959 3097 
z
M 1959 3584 
Q 2709 3584 3137 3096 
Q 3566 2609 3566 1747 
Q 3566 888 3137 398 
Q 2709 -91 1959 -91 
Q 1206 -91 779 398 
Q 353 888 353 1747 
Q 353 2609 779 3096 
Q 1206 3584 1959 3584 
z
" transform="scale(0.015625)"/>
       <path id="DejaVuSans-6c" d="M 603 4863 
L 1178 4863 
L 1178 0 
L 603 0 
L 603 4863 
z
" transform="scale(0.015625)"/>
      </defs>
      <use xlink:href="#DejaVuSans-56"/>
      <use xlink:href="#DejaVuSans-6f" transform="translate(60.658203 0)"/>
      <use xlink:href="#DejaVuSans-6c" transform="translate(121.839844 0)"/>
     </g>
    </g>
    <g id="text_18">
     <!-- 1e6 -->
     <g style="fill: #9ca3af" transform="translate(31.0325 195.99032) scale(0.1 -0.1)">
      <defs>
       <path id="DejaVuSans-65" d="M 3597 1894 
L 3597 1613 
L 953 1613 
Q 991 1019 1311 708 
Q 1631 397 2203 397 
Q 2534 397 2845 478 
Q 3156 559 3463 722 
L 3463 178 
Q 3153 47 2828 -22 
Q 2503 -91 2169 -91 
Q 1331 -91 842 396 
Q 353 884 353 1716 
Q 353 2575 817 3079 
Q 1281 3584 2069 3584 
Q 2775 3584 3186 3129 
Q 3597 2675 3597 1894 
z
M 3022 2063 
Q 3016 2534 2758 2815 
Q 2500 3097 2075 3097 
Q 1594 3097 1305 2825 
Q 1016 2553 972 2059 
L 3022 2063 
z
" transform="scale(0.015625)"/>
      </defs>
      <use xlink:href="#DejaVuSans-31"/>
      <use xlink:href="#DejaVuSans-65" transform="translate(63.623047 0)"/>
      <use xlink:href="#DejaVuSans-36" transform="translate(125.146484 0)"/>
     </g>
    </g>
   </g>
   <g id="patch_66">
    <path d="M 31.0325 253.078125 
L 31.0325 198.99032 
" style="fill: none; stroke: #1f2937; stroke-width: 0.8; stroke-linejoin: miter; stroke-linecap: square"/>
   </g>
   <g id="patch_67">
    <path d="M 31.0325 253.078125 
L 477.4325 253.078125 
" style="fill: none; stroke: #1f2937; stroke-width: 0.8; stroke-linejoin: miter; stroke-linecap: square"/>
   </g>
  </g>
 </g>
 <defs>
  <clipPath id="p5f8f08a111">
   <rect x="31.0325" y="31.318125" width="446.4" height="162.263415"/>
  </clipPath>
  <clipPath id="pa460a37e67">
   <rect x="31.0325" y="198.99032" width="446.4" height="54.087805"/>
  </clipPath>
 </defs>
</svg>
