<?xml version="1.0" encoding="utf-8" standalone="no"?>
<!DOCTYPE svg PUBLIC "-//W3C//DTD SVG 1.1//EN"
  "http://www.w3.org/Graphics/SVG/1.1/DTD/svg11.dtd">
<svg xmlns:xlink="http://www.w3.org/1999/xlink" width="484.6325pt" height="275.020625pt" viewBox="0 0 484.6325 275.020625" xmlns="http://www.w3.org/2000/svg" version="1.1">
 <metadata>
  <rdf:RDF xmlns:dc="http://purl.org/dc/elements/1.1/" xmlns:cc="http://creativecommons.org/ns#" xmlns:rdf="http://www.w3.org/1999/02/22-rdf-syntax-ns#">
   <cc:Work>
    <dc:type rdf:resource="http://purl.org/dc/dcmitype/StillImage"/>
    <dc:date>2026-02-16T08:57:01.581548</dc:date>
    <dc:format>image/svg+xml</dc:format>
    <dc:creator>
     <cc:Agent>
      <dc:title>Matplotlib v3.10.8, https://matplotlib.org/</dc:title>
     </cc:Agent>
    </dc:creator>
   </cc:Work>
  </rdf:RDF>
 </metadata>
 <defs>
  <style type="text/css">*{stroke-linejoin: round; stroke-linecap: butt}</style>
 </defs>
 <g id="figure_1">
  <g id="patch_1">
   <path d="M 0 275.020625 
L 484.6325 275.020625 
L 484.6325 0 
L 0 0 
z
" style="fill: #0a0f1a"/>
  </g>
  <g id="axes_1">
   <g id="patch_2">
    <path d="M 31.0325 193.58154 
L 477.4325 193.58154 
L 477.4325 31.318125 
L 31.0325 31.318125 
z
" style="fill: #0a0f1a"/>
   </g>
   <g id="patch_3">
    <path d="M 40.3925 53.573344 
L 50.4725 53.573344 
Q 50.7605 53.573344 50.7605 53.37771 
L 50.7605 45.956703 
Q 50.7605 45.761069 50.4725 45.761069 
L 40.3925 45.761069 
Q 40.1045 45.761069 40.1045 45.956703 
L 40.1045 53.37771 
Q 40.1045 53.573344 40.3925 53.573344 
z
" clip-path="url(#p5adfee9a71)" style="fill: #ef4444; stroke: #ef4444; stroke-linejoin: miter"/>
   </g>
   <g id="patch_4">
    <path d="M 54.7925 64.37914 
L 64.8725 64.37914 
Q 65.1605 64.37914 65.1605 64.183506 
L 65.1605 57.556846 
Q 65.1605 57.361212 64.8725 57.361212 
L 54.7925 57.361212 
Q 54.5045 57.361212 54.5045 57.556846 
L 54.5045 64.183506 
Q 54.5045 64.37914 54.7925 64.37914 
z
" clip-path="url(#p5adfee9a71)" style="fill: #22c55e; stroke: #22c55e; stroke-linejoin: miter"/>
   </g>
   <g id="patch_5">
    <path d="M 69.1925 71.380086 
L 79.2725 71.380086 
Q 79.5605 71.380086 79.5605 71.184452 
L 79.5605 63.009666 
Q 79.5605 62.814032 79.2725 62.814032 
L 69.1925 62.814032 
Q 68.9045 62.814032 68.9045 63.009666 
L 68.9045 71.184452 
Q 68.9045 71.380086 69.1925 71.380086 
z
" clip-path="url(#p5adfee9a71)" style="fill: #22c55e; stroke: #22c55e; stroke-linejoin: miter"/>
   </g>
   <g id="patch_6">
    <path d="M 83.5925 92.152425 
L 93.6725 92.152425 
Q 93.9605 92.152425 93.9605 91.956791 
L 93.9605 81.474406 
Q 93.9605 81.278772 93.6725 81.278772 
L 83.5925 81.278772 
Q 83.3045 81.278772 83.3045 81.474406 
L 83.3045 91.956791 
Q 83.3045 92.152425 83.5925 92.152425 
z
" clip-path="url(#p5adfee9a71)" style="fill: #22c55e; stroke: #22c55e; stroke-linejoin: miter"/>
   </g>
   <g id="patch_7">
    <path d="M 97.9925 97.099932 
L 108.0725 97.099932 
Q 108.3605 97.099932 108.3605 96.904298 
L 108.3605 83.752545 
Q 108.3605 83.556911 108.0725 83.556911 
L 97.9925 83.556911 
Q 97.7045 83.556911 97.7045 83.752545 
L 97.7045 96.904298 
Q 97.7045 97.099932 97.9925 97.099932 
z
" clip-path="url(#p5adfee9a71)" style="fill: #22c55e; stroke: #22c55e; stroke-linejoin: miter"/>
   </g>
   <g id="patch_8">
    <path d="M 112.3925 90.775457 
L 122.4725 90.775457 
Q 122.7605 90.775457 122.7605 90.579823 
L 122.7605 87.430601 
Q 122.7605 87.234967 122.4725 87.234967 
L 112.3925 87.234967 
Q 112.1045 87.234967 112.1045 87.430601 
L 112.1045 90.579823 
Q 112.1045 90.775457 112.3925 90.775457 
z
" clip-path="url(#p5adfee9a71)" style="fill: #22c55e; stroke: #22c55e; stroke-linejoin: miter"/>
   </g>
   <g id="patch_9">
    <path d="M 126.7925 88.722346 
L 136.8725 88.722346 
Q 137.1605 88.722346 137.1605 88.526712 
L 137.1605 76.940619 
Q 137.1605 76.744985 136.8725 76.744985 
L 126.7925 76.744985 
Q 126.5045 76.744985 126.5045 76.940619 
L 126.5045 88.526712 
Q 126.5045 88.722346 126.7925 88.722346 
z
" clip-path="url(#p5adfee9a71)" style="fill: #22c55e; stroke: #22c55e; stroke-linejoin: miter"/>
   </g>
   <g id="patch_10">
    <path d="M 141.1925 95.256587 
L 151.2725 95.256587 
Q 151.5605 95.256587 151.5605 95.060953 
L 151.5605 87.834326 
Q 151.5605 87.638692 151.2725 87.638692 
L 141.1925 87.638692 
Q 140.9045 87.638692 140.9045 87.834326 
L 140.9045 95.060953 
Q 140.9045 95.256587 141.1925 95.256587 
z
" clip-path="url(#p5adfee9a71)" style="fill: #22c55e; stroke: #22c55e; stroke-linejoin: miter"/>
   </g>
   <g id="patch_11">
    <path d="M 155.5925 104.263083 
L 165.6725 104.263083 
Q 165.9605 104.263083 165.9605 104.067449 
L 165.9605 91.337986 
Q 165.9605 91.142352 165.6725 91.142352 
L 155.5925 91.142352 
Q 155.3045 91.142352 155.3045 91.337986 
L 155.3045 104.067449 
Q 155.3045 104.263083 155.5925 104.263083 
z
" clip-path="url(#p5adfee9a71)" style="fill: #ef4444; stroke: #ef4444; stroke-linejoin: miter"/>
   </g>
   <g id="patch_12">
    <path d="M 169.9925 107.285259 
L 180.0725 107.285259 
Q 180.3605 107.285259 180.3605 107.089625 
L 180.3605 100.131807 
Q 180.3605 99.936173 180.0725 99.936173 
L 169.9925 99.936173 
Q 169.7045 99.936173 169.7045 100.131807 
L 169.7045 107.089625 
Q 169.7045 107.285259 169.9925 107.285259 
z
" clip-path="url(#p5adfee9a71)" style="fill: #ef4444; stroke: #ef4444; stroke-linejoin: miter"/>
   </g>
   <g id="patch_13">
    <path d="M 184.3925 100.775553 
L 194.4725 100.775553 
Q 194.7605 100.775553 194.7605 100.579919 
L 194.7605 96.649118 
Q 194.7605 96.453484 194.4725 96.453484 
L 184.3925 96.453484 
Q 184.1045 96.453484 184.1045 96.649118 
L 184.1045 100.579919 
Q 184.1045 100.775553 184.3925 100.775553 
z
" clip-path="url(#p5adfee9a71)" style="fill: #ef4444; stroke: #ef4444; stroke-linejoin: miter"/>
   </g>
   <g id="patch_14">
    <path d="M 198.7925 94.380355 
L 208.8725 94.380355 
Q 209.1605 94.380355 209.1605 94.184721 
L 209.1605 88.268039 
Q 209.1605 88.072405 208.8725 88.072405 
L 198.7925 88.072405 
Q 198.5045 88.072405 198.5045 88.268039 
L 198.5045 94.184721 
Q 198.5045 94.380355 198.7925 94.380355 
z
" clip-path="url(#p5adfee9a71)" style="fill: #ef4444; stroke: #ef4444; stroke-linejoin: miter"/>
   </g>
   <g id="patch_15">
    <path d="M 213.1925 97.791001 
L 223.2725 97.791001 
Q 223.5605 97.791001 223.5605 97.595367 
L 223.5605 87.695935 
Q 223.5605 87.500301 223.2725 87.500301 
L 213.1925 87.500301 
Q 212.9045 87.500301 212.9045 87.695935 
L 212.9045 97.595367 
Q 212.9045 97.791001 213.1925 97.791001 
z
" clip-path="url(#p5adfee9a71)" style="fill: #22c55e; stroke: #22c55e; stroke-linejoin: miter"/>
   </g>
   <g id="patch_16">
    <path d="M 227.5925 102.289255 
L 237.6725 102.289255 
Q 237.9605 102.289255 237.9605 102.093621 
L 237.9605 91.573399 
Q 237.9605 91.377765 237.6725 91.377765 
L 227.5925 91.377765 
Q 227.3045 91.377765 227.3045 91.573399 
L 227.3045 102.093621 
Q 227.3045 102.289255 227.5925 102.289255 
z
" clip-path="url(#p5adfee9a71)" style="fill: #22c55e; stroke: #22c55e; stroke-linejoin: miter"/>
   </g>
   <g id="patch_17">
    <path d="M 241.9925 124.139661 
L 252.0725 124.139661 
Q 252.3605 124.139661 252.3605 123.944027 
L 252.3605 110.465741 
Q 252.3605 110.270107 252.0725 110.270107 
L 241.9925 110.270107 
Q 241.7045 110.270107 241.7045 110.465741 
L 241.7045 123.944027 
Q 241.7045 124.139661 241.9925 124.139661 
z
" clip-path="url(#p5adfee9a71)" style="fill: #22c55e; stroke: #22c55e; stroke-linejoin: miter"/>
   </g>
   <g id="patch_18">
    <path d="M 256.3925 134.363896 
L 266.4725 134.363896 
Q 266.7605 134.363896 266.7605 134.168262 
L 266.7605 128.394011 
Q 266.7605 128.198377 266.4725 128.198377 
L 256.3925 128.198377 
Q 256.1045 128.198377 256.1045 128.394011 
L 256.1045 134.168262 
Q 256.1045 134.363896 256.3925 134.363896 
z
" clip-path="url(#p5adfee9a71)" style="fill: #22c55e; stroke: #22c55e; stroke-linejoin: miter"/>
   </g>
   <g id="patch_19">
    <path d="M 270.7925 132.474916 
L 280.8725 132.474916 
Q 281.1605 132.474916 281.1605 132.279282 
L 281.1605 118.786961 
Q 281.1605 118.591327 280.8725 118.591327 
L 270.7925 118.591327 
Q 270.5045 118.591327 270.5045 118.786961 
L 270.5045 132.279282 
Q 270.5045 132.474916 270.7925 132.474916 
z
" clip-path="url(#p5adfee9a71)" style="fill: #22c55e; stroke: #22c55e; stroke-linejoin: miter"/>
   </g>
   <g id="patch_20">
    <path d="M 285.1925 130.604005 
L 295.2725 130.604005 
Q 295.5605 130.604005 295.5605 130.408371 
L 295.5605 123.884575 
Q 295.5605 123.688941 295.2725 123.688941 
L 285.1925 123.688941 
Q 284.9045 123.688941 284.9045 123.884575 
L 284.9045 130.408371 
Q 284.9045 130.604005 285.1925 130.604005 
z
" clip-path="url(#p5adfee9a71)" style="fill: #ef4444; stroke: #ef4444; stroke-linejoin: miter"/>
   </g>
   <g id="patch_21">
    <path d="M 299.5925 133.460896 
L 309.6725 133.460896 
Q 309.9605 133.460896 309.9605 133.265262 
L 309.9605 124.01208 
Q 309.9605 123.816446 309.6725 123.816446 
L 299.5925 123.816446 
Q 299.3045 123.816446 299.3045 124.01208 
L 299.3045 133.265262 
Q 299.3045 133.460896 299.5925 133.460896 
z
" clip-path="url(#p5adfee9a71)" style="fill: #22c55e; stroke: #22c55e; stroke-linejoin: miter"/>
   </g>
   <g id="patch_22">
    <path d="M 313.9925 119.225479 
L 324.0725 119.225479 
Q 324.3605 119.225479 324.3605 119.029845 
L 324.3605 114.012287 
Q 324.3605 113.816653 324.0725 113.816653 
L 313.9925 113.816653 
Q 313.7045 113.816653 313.7045 114.012287 
L 313.7045 119.029845 
Q 313.7045 119.225479 313.9925 119.225479 
z
" clip-path="url(#p5adfee9a71)" style="fill: #ef4444; stroke: #ef4444; stroke-linejoin: miter"/>
   </g>
   <g id="patch_23">
    <path d="M 328.3925 141.520335 
L 338.4725 141.520335 
Q 338.7605 141.520335 338.7605 141.324701 
L 338.7605 127.874506 
Q 338.7605 127.678872 338.4725 127.678872 
L 328.3925 127.678872 
Q 328.1045 127.678872 328.1045 127.874506 
L 328.1045 141.324701 
Q 328.1045 141.520335 328.3925 141.520335 
z
" clip-path="url(#p5adfee9a71)" style="fill: #22c55e; stroke: #22c55e; stroke-linejoin: miter"/>
   </g>
   <g id="patch_24">
    <path d="M 342.7925 134.967954 
L 352.8725 134.967954 
Q 353.1605 134.967954 353.1605 134.77232 
L 353.1605 131.81082 
Q 353.1605 131.615186 352.8725 131.615186 
L 342.7925 131.615186 
Q 342.5045 131.615186 342.5045 131.81082 
L 342.5045 134.77232 
Q 342.5045 134.967954 342.7925 134.967954 
z
" clip-path="url(#p5adfee9a71)" style="fill: #ef4444; stroke: #ef4444; stroke-linejoin: miter"/>
   </g>
   <g id="patch_25">
    <path d="M 357.1925 136.679877 
L 367.2725 136.679877 
Q 367.5605 136.679877 367.5605 136.484243 
L 367.5605 126.984822 
Q 367.5605 126.789188 367.2725 126.789188 
L 357.1925 126.789188 
Q 356.9045 126.789188 356.9045 126.984822 
L 356.9045 136.484243 
Q 356.9045 136.679877 357.1925 136.679877 
z
" clip-path="url(#p5adfee9a71)" style="fill: #22c55e; stroke: #22c55e; stroke-linejoin: miter"/>
   </g>
   <g id="patch_26">
    <path d="M 371.5925 163.115422 
L 381.6725 163.115422 
Q 381.9605 163.115422 381.9605 162.919788 
L 381.9605 157.063863 
Q 381.9605 156.868229 381.6725 156.868229 
L 371.5925 156.868229 
Q 371.3045 156.868229 371.3045 157.063863 
L 371.3045 162.919788 
Q 371.3045 163.115422 371.5925 163.115422 
z
" clip-path="url(#p5adfee9a71)" style="fill: #ef4444; stroke: #ef4444; stroke-linejoin: miter"/>
   </g>
   <g id="patch_27">
    <path d="M 385.9925 161.239951 
L 396.0725 161.239951 
Q 396.3605 161.239951 396.3605 161.044317 
L 396.3605 156.333152 
Q 396.3605 156.137518 396.0725 156.137518 
L 385.9925 156.137518 
Q 385.7045 156.137518 385.7045 156.333152 
L 385.7045 161.044317 
Q 385.7045 161.239951 385.9925 161.239951 
z
" clip-path="url(#p5adfee9a71)" style="fill: #22c55e; stroke: #22c55e; stroke-linejoin: miter"/>
   </g>
   <g id="patch_28">
    <path d="M 400.3925 176.183819 
L 410.4725 176.183819 
Q 410.7605 176.183819 410.7605 175.988185 
L 410.7605 161.454477 
Q 410.7605 161.258843 410.4725 161.258843 
L 400.3925 161.258843 
Q 400.1045 161.258843 400.1045 161.454477 
L 400.1045 175.988185 
Q 400.1045 176.183819 400.3925 176.183819 
z
" clip-path="url(#p5adfee9a71)" style="fill: #ef4444; stroke: #ef4444; stroke-linejoin: miter"/>
   </g>
   <g id="patch_29">
    <path d="M 414.7925 170.91675 
L 424.8725 170.91675 
Q 425.1605 170.91675 425.1605 170.721116 
L 425.1605 162.70511 
Q 425.1605 162.509475 424.8725 162.509475 
L 414.7925 162.509475 
Q 414.5045 162.509475 414.5045 162.70511 
L 414.5045 170.721116 
Q 414.5045 170.91675 414.7925 170.91675 
z
" clip-path="url(#p5adfee9a71)" style="fill: #22c55e; stroke: #22c55e; stroke-linejoin: miter"/>
   </g>
   <g id="patch_30">
    <path d="M 429.1925 177.452047 
L 439.2725 177.452047 
Q 439.5605 177.452047 439.5605 177.256413 
L 439.5605 166.069195 
Q 439.5605 165.873561 439.2725 165.873561 
L 429.1925 165.873561 
Q 428.9045 165.873561 428.9045 166.069195 
L 428.9045 177.256413 
Q 428.9045 177.452047 429.1925 177.452047 
z
" clip-path="url(#p5adfee9a71)" style="fill: #ef4444; stroke: #ef4444; stroke-linejoin: miter"/>
   </g>
   <g id="patch_31">
    <path d="M 443.5925 167.438259 
L 453.6725 167.438259 
Q 453.9605 167.438259 453.9605 167.242624 
L 453.9605 160.013045 
Q 453.9605 159.817411 453.6725 159.817411 
L 443.5925 159.817411 
Q 443.3045 159.817411 443.3045 160.013045 
L 443.3045 167.242624 
Q 443.3045 167.438259 443.5925 167.438259 
z
" clip-path="url(#p5adfee9a71)" style="fill: #22c55e; stroke: #22c55e; stroke-linejoin: miter"/>
   </g>
   <g id="patch_32">
    <path d="M 457.9925 171.908207 
L 468.0725 171.908207 
Q 468.3605 171.908207 468.3605 171.712573 
L 468.3605 157.921968 
Q 468.3605 157.726334 468.0725 157.726334 
L 457.9925 157.726334 
Q 457.7045 157.726334 457.7045 157.921968 
L 457.7045 171.712573 
Q 457.7045 171.908207 457.9925 171.908207 
z
" clip-path="url(#p5adfee9a71)" style="fill: #ef4444; stroke: #ef4444; stroke-linejoin: miter"/>
   </g>
   <g id="matplotlib.axis_1">
    <g id="xtick_1">
     <g id="line2d_1">
      <path d="M 45.4325 193.58154 
L 45.4325 31.318125 
" clip-path="url(#p5adfee9a71)" style="fill: none; stroke-dasharray: 2.96,1.28; stroke-dashoffset: 0; stroke: #374151; stroke-opacity: 0.1; stroke-width: 0.8"/>
     </g>
     <g id="line2d_2">
      <defs>
       <path id="m5d30a4d5ac" d="M 0 0 
L 0 3.5 
" style="stroke: #9ca3af; stroke-width: 0.8"/>
      </defs>
      <g>
       <use xlink:href="#m5d30a4d5ac" x="45.4325" y="193.58154" style="fill: #9ca3af; stroke: #9ca3af; stroke-width: 0.8"/>
      </g>
     </g>
    </g>
    <g id="xtick_2">
     <g id="line2d_3">
      <path d="M 117.4325 193.58154 
L 117.4325 31.318125 
" clip-path="url(#p5adfee9a71)" style="fill: none; stroke-dasharray: 2.96,1.28; stroke-dashoffset: 0; stroke: #374151; stroke-opacity: 0.1; stroke-width: 0.8"/>
     </g>
     <g id="line2d_4">
      <g>
       <use xlink:href="#m5d30a4d5ac" x="117.4325" y="193.58154" style="fill: #9ca3af; stroke: #9ca3af; stroke-width: 0.8"/>
      </g>
     </g>
    </g>
    <g id="xtick_3">
     <g id="line2d_5">
      <path d="M 189.4325 193.58154 
L 189.4325 31.318125 
" clip-path="url(#p5adfee9a71)" style="fill: none; stroke-dasharray: 2.96,1.28; stroke-dashoffset: 0; stroke: #374151; stroke-opacity: 0.1; stroke-width: 0.8"/>
     </g>
     <g id="line2d_6">
      <g>
       <use xlink:href="#m5d30a4d5ac" x="189.4325" y="193.58154" style="fill: #9ca3af; stroke: #9ca3af; stroke-width: 0.8"/>
      </g>
     </g>
    </g>
    <g id="xtick_4">
     <g id="line2d_7">
      <path d="M 261.4325 193.58154 
L 261.4325 31.318125 
" clip-path="url(#p5adfee9a71)" style="fill: none; stroke-dasharray: 2.96,1.28; stroke-dashoffset: 0; stroke: #374151; stroke-opacity: 0.1; stroke-width: 0.8"/>
     </g>
     <g id="line2d_8">
      <g>
       <use xlink:href="#m5d30a4d5ac" x="261.4325" y="193.58154" style="fill: #9ca3af; stroke: #9ca3af; stroke-width: 0.8"/>
      </g>
     </g>
    </g>
    <g id="xtick_5">
     <g id="line2d_9">
      <path d="M 333.4325 193.58154 
L 333.4325 31.318125 
" clip-path="url(#p5adfee9a71)" style="fill: none; stroke-dasharray: 2.96,1.28; stroke-dashoffset: 0; stroke: #374151; stroke-opacity: 0.1; stroke-width: 0.8"/>
     </g>
     <g id="line2d_10">
      <g>
       <use xlink:href="#m5d30a4d5ac" x="333.4325" y="193.58154" style="fill: #9ca3af; stroke: #9ca3af; stroke-width: 0.8"/>
      </g>
     </g>
    </g>
    <g id="xtick_6">
     <g id="line2d_11">
      <path d="M 405.4325 193.58154 
L 405.4325 31.318125 
" clip-path="url(#p5adfee9a71)" style="fill: none; stroke-dasharray: 2.96,1.28; stroke-dashoffset: 0; stroke: #374151; stroke-opacity: 0.1; stroke-width: 0.8"/>
     </g>
     <g id="line2d_12">
      <g>
       <use xlink:href="#m5d30a4d5ac" x="405.4325" y="193.58154" style="fill: #9ca3af; stroke: #9ca3af; stroke-width: 0.8"/>
      </g>
     </g>
    </g>
    <g id="xtick_7">
     <g id="line2d_13">
      <path d="M 477.4325 193.58154 
L 477.4325 31.318125 
" clip-path="url(#p5adfee9a71)" style="fill: none; stroke-dasharray: 2.96,1.28; stroke-dashoffset: 0; stroke: #374151; stroke-opacity: 0.1; stroke-width: 0.8"/>
     </g>
     <g id="line2d_14">
      <g>
       <use xlink:href="#m5d30a4d5ac" x="477.4325" y="193.58154" style="fill: #9ca3af; stroke: #9ca3af; stroke-width: 0.8"/>
      </g>
     </g>
    </g>
   </g>
   <g id="matplotlib.axis_2">
    <g id="ytick_1">
     <g id="line2d_15">
      <path d="M 31.0325 186.611018 
L 477.4325 186.611018 
" clip-path="url(#p5adfee9a71)" style="fill: none; stroke-dasharray: 2.96,1.28; stroke-dashoffset: 0; stroke: #374151; stroke-opacity: 0.1; stroke-width: 0.8"/>
     </g>
     <g id="line2d_16">
      <defs>
       <path id="mf2cbb49dad" d="M 0 0 
L -3.5 0 
" style="stroke: #9ca3af; stroke-width: 0.8"/>
      </defs>
      <g>
       <use xlink:href="#mf2cbb49dad" x="31.0325" y="186.611018" style="fill: #9ca3af; stroke: #9ca3af; stroke-width: 0.8"/>
      </g>
     </g>
     <g id="text_1">
      <!-- 86 -->
      <g style="fill: #9ca3af" transform="translate(13.8525 189.650393) scale(0.08 -0.08)">
       <defs>
        <path id="DejaVuSans-38" d="M 2034 2216 
Q 1584 2216 1326 1975 
Q 1069 1734 1069 1313 
Q 1069 891 1326 650 
Q 1584 409 2034 409 
Q 2484 409 2743 651 
Q 3003 894 3003 1313 
Q 3003 1734 2745 1975 
Q 2488 2216 2034 2216 
z
M 1403 2484 
Q 997 2584 770 2862 
Q 544 3141 544 3541 
Q 544 4100 942 4425 
Q 1341 4750 2034 4750 
Q 2731 4750 3128 4425 
Q 3525 4100 3525 3541 
Q 3525 3141 3298 2862 
Q 3072 2584 2669 2484 
Q 3125 2378 3379 2068 
Q 3634 1759 3634 1313 
Q 3634 634 3220 271 
Q 2806 -91 2034 -91 
Q 1263 -91 848 271 
Q 434 634 434 1313 
Q 434 1759 690 2068 
Q 947 2378 1403 2484 
z
M 1172 3481 
Q 1172 3119 1398 2916 
Q 1625 2713 2034 2713 
Q 2441 2713 2670 2916 
Q 2900 3119 2900 3481 
Q 2900 3844 2670 4047 
Q 2441 4250 2034 4250 
Q 1625 4250 1398 4047 
Q 1172 3844 1172 3481 
z
" transform="scale(0.015625)"/>
        <path id="DejaVuSans-36" d="M 2113 2584 
Q 1688 2584 1439 2293 
Q 1191 2003 1191 1497 
Q 1191 994 1439 701 
Q 1688 409 2113 409 
Q 2538 409 2786 701 
Q 3034 994 3034 1497 
Q 3034 2003 2786 2293 
Q 2538 2584 2113 2584 
z
M 3366 4563 
L 3366 3988 
Q 3128 4100 2886 4159 
Q 2644 4219 2406 4219 
Q 1781 4219 1451 3797 
Q 1122 3375 1075 2522 
Q 1259 2794 1537 2939 
Q 1816 3084 2150 3084 
Q 2853 3084 3261 2657 
Q 3669 2231 3669 1497 
Q 3669 778 3244 343 
Q 2819 -91 2113 -91 
Q 1303 -91 875 529 
Q 447 1150 447 2328 
Q 447 3434 972 4092 
Q 1497 4750 2381 4750 
Q 2619 4750 2861 4703 
Q 3103 4656 3366 4563 
z
" transform="scale(0.015625)"/>
       </defs>
       <use xlink:href="#DejaVuSans-38"/>
       <use xlink:href="#DejaVuSans-36" transform="translate(63.623047 0)"/>
      </g>
     </g>
    </g>
    <g id="ytick_2">
     <g id="line2d_17">
      <path d="M 31.0325 167.047616 
L 477.4325 167.047616 
" clip-path="url(#p5adfee9a71)" style="fill: none; stroke-dasharray: 2.96,1.28; stroke-dashoffset: 0; stroke: #374151; stroke-opacity: 0.1; stroke-width: 0.8"/>
     </g>
     <g id="line2d_18">
      <g>
       <use xlink:href="#mf2cbb49dad" x="31.0325" y="167.047616" style="fill: #9ca3af; stroke: #9ca3af; stroke-width: 0.8"/>
      </g>
     </g>
     <g id="text_2">
      <!-- 88 -->
      <g style="fill: #9ca3af" transform="translate(13.8525 170.086991) scale(0.08 -0.08)">
       <use xlink:href="#DejaVuSans-38"/>
       <use xlink:href="#DejaVuSans-38" transform="translate(63.623047 0)"/>
      </g>
     </g>
    </g>
    <g id="ytick_3">
     <g id="line2d_19">
      <path d="M 31.0325 147.484215 
L 477.4325 147.484215 
" clip-path="url(#p5adfee9a71)" style="fill: none; stroke-dasharray: 2.96,1.28; stroke-dashoffset: 0; stroke: #374151; stroke-opacity: 0.1; stroke-width: 0.8"/>
     </g>
     <g id="line2d_20">
      <g>
       <use xlink:href="#mf2cbb49dad" x="31.0325" y="147.484215" style="fill: #9ca3af; stroke: #9ca3af; stroke-width: 0.8"/>
      </g>
     </g>
     <g id="text_3">
      <!-- 90 -->
      <g style="fill: #9ca3af" transform="translate(13.8525 150.52359) scale(0.08 -0.08)">
       <defs>
        <path id="DejaVuSans-39" d="M 703 97 
L 703 672 
Q 941 559 1184 500 
Q 1428 441 1663 441 
Q 2288 441 2617 861 
Q 2947 1281 2994 2138 
Q 2813 1869 2534 1725 
Q 2256 1581 1919 1581 
Q 1219 1581 811 2004 
Q 403 2428 403 3163 
Q 403 3881 828 4315 
Q 1253 4750 1959 4750 
Q 2769 4750 3195 4129 
Q 3622 3509 3622 2328 
Q 3622 1225 3098 567 
Q 2575 -91 1691 -91 
Q 1453 -91 1209 -44 
Q 966 3 703 97 
z
M 1959 2075 
Q 2384 2075 2632 2365 
Q 2881 2656 2881 3163 
Q 2881 3666 2632 3958 
Q 2384 4250 1959 4250 
Q 1534 4250 1286 3958 
Q 1038 3666 1038 3163 
Q 1038 2656 1286 2365 
Q 1534 2075 1959 2075 
z
" transform="scale(0.015625)"/>
        <path id="DejaVuSans-30" d="M 2034 4250 
Q 1547 4250 1301 3770 
Q 1056 3291 1056 2328 
Q 1056 1369 1301 889 
Q 1547 409 2034 409 
Q 2525 409 2770 889 
Q 3016 1369 3016 2328 
Q 3016 3291 2770 3770 
Q 2525 4250 2034 4250 
z
M 2034 4750 
Q 2819 4750 3233 4129 
Q 3647 3509 3647 2328 
Q 3647 1150 3233 529 
Q 2819 -91 2034 -91 
Q 1250 -91 836 529 
Q 422 1150 422 2328 
Q 422 3509 836 4129 
Q 1250 4750 2034 4750 
z
" transform="scale(0.015625)"/>
       </defs>
       <use xlink:href="#DejaVuSans-39"/>
       <use xlink:href="#DejaVuSans-30" transform="translate(63.623047 0)"/>
      </g>
     </g>
    </g>
    <g id="ytick_4">
     <g id="line2d_21">
      <path d="M 31.0325 127.920813 
L 477.4325 127.920813 
" clip-path="url(#p5adfee9a71)" style="fill: none; stroke-dasharray: 2.96,1.28; stroke-dashoffset: 0; stroke: #374151; stroke-opacity: 0.1; stroke-width: 0.8"/>
     </g>
     <g id="line2d_22">
      <g>
       <use xlink:href="#mf2cbb49dad" x="31.0325" y="127.920813" style="fill: #9ca3af; stroke: #9ca3af; stroke-width: 0.8"/>
      </g>
     </g>
     <g id="text_4">
      <!-- 92 -->
      <g style="fill: #9ca3af" transform="translate(13.8525 130.960188) scale(0.08 -0.08)">
       <defs>
        <path id="DejaVuSans-32" d="M 1228 531 
L 3431 531 
L 3431 0 
L 469 0 
L 469 531 
Q 828 903 1448 1529 
Q 2069 2156 2228 2338 
Q 2531 2678 2651 2914 
Q 2772 3150 2772 3378 
Q 2772 3750 2511 3984 
Q 2250 4219 1831 4219 
Q 1534 4219 1204 4116 
Q 875 4013 500 3803 
L 500 4441 
Q 881 4594 1212 4672 
Q 1544 4750 1819 4750 
Q 2544 4750 2975 4387 
Q 3406 4025 3406 3419 
Q 3406 3131 3298 2873 
Q 3191 2616 2906 2266 
Q 2828 2175 2409 1742 
Q 1991 1309 1228 531 
z
" transform="scale(0.015625)"/>
       </defs>
       <use xlink:href="#DejaVuSans-39"/>
       <use xlink:href="#DejaVuSans-32" transform="translate(63.623047 0)"/>
      </g>
     </g>
    </g>
    <g id="ytick_5">
     <g id="line2d_23">
      <path d="M 31.0325 108.357411 
L 477.4325 108.357411 
" clip-path="url(#p5adfee9a71)" style="fill: none; stroke-dasharray: 2.96,1.28; stroke-dashoffset: 0; stroke: #374151; stroke-opacity: 0.1; stroke-width: 0.8"/>
     </g>
     <g id="line2d_24">
      <g>
       <use xlink:href="#mf2cbb49dad" x="31.0325" y="108.357411" style="fill: #9ca3af; stroke: #9ca3af; stroke-width: 0.8"/>
      </g>
     </g>
     <g id="text_5">
      <!-- 94 -->
      <g style="fill: #9ca3af" transform="translate(13.8525 111.396786) scale(0.08 -0.08)">
       <defs>
        <path id="DejaVuSans-34" d="M 2419 4116 
L 825 1625 
L 2419 1625 
L 2419 4116 
z
M 2253 4666 
L 3047 4666 
L 3047 1625 
L 3713 1625 
L 3713 1100 
L 3047 1100 
L 3047 0 
L 2419 0 
L 2419 1100 
L 313 1100 
L 313 1709 
L 2253 4666 
z
" transform="scale(0.015625)"/>
       </defs>
       <use xlink:href="#DejaVuSans-39"/>
       <use xlink:href="#DejaVuSans-34" transform="translate(63.623047 0)"/>
      </g>
     </g>
    </g>
    <g id="ytick_6">
     <g id="line2d_25">
      <path d="M 31.0325 88.79401 
L 477.4325 88.79401 
" clip-path="url(#p5adfee9a71)" style="fill: none; stroke-dasharray: 2.96,1.28; stroke-dashoffset: 0; stroke: #374151; stroke-opacity: 0.1; stroke-width: 0.8"/>
     </g>
     <g id="line2d_26">
      <g>
       <use xlink:href="#mf2cbb49dad" x="31.0325" y="88.79401" style="fill: #9ca3af; stroke: #9ca3af; stroke-width: 0.8"/>
      </g>
     </g>
     <g id="text_6">
      <!-- 96 -->
      <g style="fill: #9ca3af" transform="translate(13.8525 91.833385) scale(0.08 -0.08)">
       <use xlink:href="#DejaVuSans-39"/>
       <use xlink:href="#DejaVuSans-36" transform="translate(63.623047 0)"/>
      </g>
     </g>
    </g>
    <g id="ytick_7">
     <g id="line2d_27">
      <path d="M 31.0325 69.230608 
L 477.4325 69.230608 
" clip-path="url(#p5adfee9a71)" style="fill: none; stroke-dasharray: 2.96,1.28; stroke-dashoffset: 0; stroke: #374151; stroke-opacity: 0.1; stroke-width: 0.8"/>
     </g>
     <g id="line2d_28">
      <g>
       <use xlink:href="#mf2cbb49dad" x="31.0325" y="69.230608" style="fill: #9ca3af; stroke: #9ca3af; stroke-width: 0.8"/>
      </g>
     </g>
     <g id="text_7">
      <!-- 98 -->
      <g style="fill: #9ca3af" transform="translate(13.8525 72.269983) scale(0.08 -0.08)">
       <use xlink:href="#DejaVuSans-39"/>
       <use xlink:href="#DejaVuSans-38" transform="translate(63.623047 0)"/>
      </g>
     </g>
    </g>
    <g id="ytick_8">
     <g id="line2d_29">
      <path d="M 31.0325 49.667207 
L 477.4325 49.667207 
" clip-path="url(#p5adfee9a71)" style="fill: none; stroke-dasharray: 2.96,1.28; stroke-dashoffset: 0; stroke: #374151; stroke-opacity: 0.1; stroke-width: 0.8"/>
     </g>
     <g id="line2d_30">
      <g>
       <use xlink:href="#mf2cbb49dad" x="31.0325" y="49.667207" style="fill: #9ca3af; stroke: #9ca3af; stroke-width: 0.8"/>
      </g>
     </g>
     <g id="text_8">
      <!-- 100 -->
      <g style="fill: #9ca3af" transform="translate(8.7625 52.706582) scale(0.08 -0.08)">
       <defs>
        <path id="DejaVuSans-31" d="M 794 531 
L 1825 531 
L 1825 4091 
L 703 3866 
L 703 4441 
L 1819 4666 
L 2450 4666 
L 2450 531 
L 3481 531 
L 3481 0 
L 794 0 
L 794 531 
z
" transform="scale(0.015625)"/>
       </defs>
       <use xlink:href="#DejaVuSans-31"/>
       <use xlink:href="#DejaVuSans-30" transform="translate(63.623047 0)"/>
       <use xlink:href="#DejaVuSans-30" transform="translate(127.246094 0)"/>
      </g>
     </g>
    </g>
   </g>
   <g id="line2d_31">
    <path d="M 45.4325 59.010525 
L 45.4325 44.840076 
" clip-path="url(#p5adfee9a71)" style="fill: none; stroke: #ef4444; stroke-width: 1.5; stroke-linecap: square"/>
   </g>
   <g id="line2d_32">
    <path d="M 59.8325 70.982312 
L 59.8325 56.530403 
" clip-path="url(#p5adfee9a71)" style="fill: none; stroke: #22c55e; stroke-width: 1.5; stroke-linecap: square"/>
   </g>
   <g id="line2d_33">
    <path d="M 74.2325 77.689853 
L 74.2325 58.962214 
" clip-path="url(#p5adfee9a71)" style="fill: none; stroke: #22c55e; stroke-width: 1.5; stroke-linecap: square"/>
   </g>
   <g id="line2d_34">
    <path d="M 88.6325 98.193452 
L 88.6325 78.805553 
" clip-path="url(#p5adfee9a71)" style="fill: none; stroke: #22c55e; stroke-width: 1.5; stroke-linecap: square"/>
   </g>
   <g id="line2d_35">
    <path d="M 103.0325 104.516473 
L 103.0325 76.928646 
" clip-path="url(#p5adfee9a71)" style="fill: none; stroke: #22c55e; stroke-width: 1.5; stroke-linecap: square"/>
   </g>
   <g id="line2d_36">
    <path d="M 117.4325 91.957652 
L 117.4325 80.747306 
" clip-path="url(#p5adfee9a71)" style="fill: none; stroke: #22c55e; stroke-width: 1.5; stroke-linecap: square"/>
   </g>
   <g id="line2d_37">
    <path d="M 131.8325 90.549133 
L 131.8325 73.816477 
" clip-path="url(#p5adfee9a71)" style="fill: none; stroke: #22c55e; stroke-width: 1.5; stroke-linecap: square"/>
   </g>
   <g id="line2d_38">
    <path d="M 146.2325 102.795434 
L 146.2325 83.984559 
" clip-path="url(#p5adfee9a71)" style="fill: none; stroke: #22c55e; stroke-width: 1.5; stroke-linecap: square"/>
   </g>
   <g id="line2d_39">
    <path d="M 160.6325 105.933716 
L 160.6325 88.172872 
" clip-path="url(#p5adfee9a71)" style="fill: none; stroke: #ef4444; stroke-width: 1.5; stroke-linecap: square"/>
   </g>
   <g id="line2d_40">
    <path d="M 175.0325 112.052794 
L 175.0325 97.34605 
" clip-path="url(#p5adfee9a71)" style="fill: none; stroke: #ef4444; stroke-width: 1.5; stroke-linecap: square"/>
   </g>
   <g id="line2d_41">
    <path d="M 189.4325 102.241693 
L 189.4325 91.601619 
" clip-path="url(#p5adfee9a71)" style="fill: none; stroke: #ef4444; stroke-width: 1.5; stroke-linecap: square"/>
   </g>
   <g id="line2d_42">
    <path d="M 203.8325 101.798782 
L 203.8325 82.384207 
" clip-path="url(#p5adfee9a71)" style="fill: none; stroke: #ef4444; stroke-width: 1.5; stroke-linecap: square"/>
   </g>
   <g id="line2d_43">
    <path d="M 218.2325 102.62703 
L 218.2325 85.181743 
" clip-path="url(#p5adfee9a71)" style="fill: none; stroke: #22c55e; stroke-width: 1.5; stroke-linecap: square"/>
   </g>
   <g id="line2d_44">
    <path d="M 232.6325 105.000439 
L 232.6325 89.03078 
" clip-path="url(#p5adfee9a71)" style="fill: none; stroke: #22c55e; stroke-width: 1.5; stroke-linecap: square"/>
   </g>
   <g id="line2d_45">
    <path d="M 247.0325 128.607197 
L 247.0325 105.323974 
" clip-path="url(#p5adfee9a71)" style="fill: none; stroke: #22c55e; stroke-width: 1.5; stroke-linecap: square"/>
   </g>
   <g id="line2d_46">
    <path d="M 261.4325 138.824157 
L 261.4325 122.256182 
" clip-path="url(#p5adfee9a71)" style="fill: none; stroke: #22c55e; stroke-width: 1.5; stroke-linecap: square"/>
   </g>
   <g id="line2d_47">
    <path d="M 275.8325 139.301148 
L 275.8325 117.087752 
" clip-path="url(#p5adfee9a71)" style="fill: none; stroke: #22c55e; stroke-width: 1.5; stroke-linecap: square"/>
   </g>
   <g id="line2d_48">
    <path d="M 290.2325 137.875411 
L 290.2325 119.38639 
" clip-path="url(#p5adfee9a71)" style="fill: none; stroke: #ef4444; stroke-width: 1.5; stroke-linecap: square"/>
   </g>
   <g id="line2d_49">
    <path d="M 304.6325 135.001608 
L 304.6325 120.55329 
" clip-path="url(#p5adfee9a71)" style="fill: none; stroke: #22c55e; stroke-width: 1.5; stroke-linecap: square"/>
   </g>
   <g id="line2d_50">
    <path d="M 319.0325 121.347996 
L 319.0325 112.101799 
" clip-path="url(#p5adfee9a71)" style="fill: none; stroke: #ef4444; stroke-width: 1.5; stroke-linecap: square"/>
   </g>
   <g id="line2d_51">
    <path d="M 333.4325 145.253005 
L 333.4325 122.537858 
" clip-path="url(#p5adfee9a71)" style="fill: none; stroke: #22c55e; stroke-width: 1.5; stroke-linecap: square"/>
   </g>
   <g id="line2d_52">
    <path d="M 347.8325 136.534574 
L 347.8325 126.841725 
" clip-path="url(#p5adfee9a71)" style="fill: none; stroke: #ef4444; stroke-width: 1.5; stroke-linecap: square"/>
   </g>
   <g id="line2d_53">
    <path d="M 362.2325 140.731566 
L 362.2325 119.952281 
" clip-path="url(#p5adfee9a71)" style="fill: none; stroke: #22c55e; stroke-width: 1.5; stroke-linecap: square"/>
   </g>
   <g id="line2d_54">
    <path d="M 376.6325 164.266515 
L 376.6325 154.75091 
" clip-path="url(#p5adfee9a71)" style="fill: none; stroke: #ef4444; stroke-width: 1.5; stroke-linecap: square"/>
   </g>
   <g id="line2d_55">
    <path d="M 391.0325 162.64959 
L 391.0325 149.721816 
" clip-path="url(#p5adfee9a71)" style="fill: none; stroke: #22c55e; stroke-width: 1.5; stroke-linecap: square"/>
   </g>
   <g id="line2d_56">
    <path d="M 405.4325 178.142588 
L 405.4325 160.261278 
" clip-path="url(#p5adfee9a71)" style="fill: none; stroke: #ef4444; stroke-width: 1.5; stroke-linecap: square"/>
   </g>
   <g id="line2d_57">
    <path d="M 419.8325 172.397835 
L 419.8325 159.626151 
" clip-path="url(#p5adfee9a71)" style="fill: none; stroke: #22c55e; stroke-width: 1.5; stroke-linecap: square"/>
   </g>
   <g id="line2d_58">
    <path d="M 434.2325 180.059588 
L 434.2325 158.76131 
" clip-path="url(#p5adfee9a71)" style="fill: none; stroke: #ef4444; stroke-width: 1.5; stroke-linecap: square"/>
   </g>
   <g id="line2d_59">
    <path d="M 448.6325 174.128963 
L 448.6325 156.138733 
" clip-path="url(#p5adfee9a71)" style="fill: none; stroke: #22c55e; stroke-width: 1.5; stroke-linecap: square"/>
   </g>
   <g id="line2d_60">
    <path d="M 463.0325 176.791705 
L 463.0325 155.697248 
" clip-path="url(#p5adfee9a71)" style="fill: none; stroke: #ef4444; stroke-width: 1.5; stroke-linecap: square"/>
   </g>
   <g id="patch_33">
    <path d="M 31.0325 193.58154 
L 31.0325 31.318125 
" style="fill: none; stroke: #1f2937; stroke-width: 0.8; stroke-linejoin: miter; stroke-linecap: square"/>
   </g>
   <g id="patch_34">
    <path d="M 31.0325 193.58154 
L 477.4325 193.58154 
" style="fill: none; stroke: #1f2937; stroke-width: 0.8; stroke-linejoin: miter; stroke-linecap: square"/>
   </g>
   <g id="text_9">
    <!-- Cup and Handle — NFLX 1D -->
    <g style="fill: #ffffff" transform="translate(161.717187 16.318125) scale(0.12 -0.12)">
     <defs>
      <path id="DejaVuSans-Bold-43" d="M 4288 256 
Q 3956 84 3597 -3 
Q 3238 -91 2847 -91 
Q 1681 -91 1000 561 
Q 319 1213 319 2328 
Q 319 3447 1000 4098 
Q 1681 4750 2847 4750 
Q 3238 4750 3597 4662 
Q 3956 4575 4288 4403 
L 4288 3438 
Q 3953 3666 3628 3772 
Q 3303 3878 2944 3878 
Q 2300 3878 1931 3465 
Q 1563 3053 1563 2328 
Q 1563 1606 1931 1193 
Q 2300 781 2944 781 
Q 3303 781 3628 887 
Q 3953 994 4288 1222 
L 4288 256 
z
" transform="scale(0.015625)"/>
      <path id="DejaVuSans-Bold-75" d="M 500 1363 
L 500 3500 
L 1625 3500 
L 1625 3150 
Q 1625 2866 1622 2436 
Q 1619 2006 1619 1863 
Q 1619 1441 1641 1255 
Q 1663 1069 1716 984 
Q 1784 875 1895 815 
Q 2006 756 2150 756 
Q 2500 756 2700 1025 
Q 2900 1294 2900 1772 
L 2900 3500 
L 4019 3500 
L 4019 0 
L 2900 0 
L 2900 506 
Q 2647 200 2364 54 
Q 2081 -91 1741 -91 
Q 1134 -91 817 281 
Q 500 653 500 1363 
z
" transform="scale(0.015625)"/>
      <path id="DejaVuSans-Bold-70" d="M 1656 506 
L 1656 -1331 
L 538 -1331 
L 538 3500 
L 1656 3500 
L 1656 2988 
Q 1888 3294 2169 3439 
Q 2450 3584 2816 3584 
Q 3463 3584 3878 3070 
Q 4294 2556 4294 1747 
Q 4294 938 3878 423 
Q 3463 -91 2816 -91 
Q 2450 -91 2169 54 
Q 1888 200 1656 506 
z
M 2400 2772 
Q 2041 2772 1848 2508 
Q 1656 2244 1656 1747 
Q 1656 1250 1848 986 
Q 2041 722 2400 722 
Q 2759 722 2948 984 
Q 3138 1247 3138 1747 
Q 3138 2247 2948 2509 
Q 2759 2772 2400 2772 
z
" transform="scale(0.015625)"/>
      <path id="DejaVuSans-Bold-20" transform="scale(0.015625)"/>
      <path id="DejaVuSans-Bold-61" d="M 2106 1575 
Q 1756 1575 1579 1456 
Q 1403 1338 1403 1106 
Q 1403 894 1545 773 
Q 1688 653 1941 653 
Q 2256 653 2472 879 
Q 2688 1106 2688 1447 
L 2688 1575 
L 2106 1575 
z
M 3816 1997 
L 3816 0 
L 2688 0 
L 2688 519 
Q 2463 200 2181 54 
Q 1900 -91 1497 -91 
Q 953 -91 614 226 
Q 275 544 275 1050 
Q 275 1666 698 1953 
Q 1122 2241 2028 2241 
L 2688 2241 
L 2688 2328 
Q 2688 2594 2478 2717 
Q 2269 2841 1825 2841 
Q 1466 2841 1156 2769 
Q 847 2697 581 2553 
L 581 3406 
Q 941 3494 1303 3539 
Q 1666 3584 2028 3584 
Q 2975 3584 3395 3211 
Q 3816 2838 3816 1997 
z
" transform="scale(0.015625)"/>
      <path id="DejaVuSans-Bold-6e" d="M 4056 2131 
L 4056 0 
L 2931 0 
L 2931 347 
L 2931 1631 
Q 2931 2084 2911 2256 
Q 2891 2428 2841 2509 
Q 2775 2619 2662 2680 
Q 2550 2741 2406 2741 
Q 2056 2741 1856 2470 
Q 1656 2200 1656 1722 
L 1656 0 
L 538 0 
L 538 3500 
L 1656 3500 
L 1656 2988 
Q 1909 3294 2193 3439 
Q 2478 3584 2822 3584 
Q 3428 3584 3742 3212 
Q 4056 2841 4056 2131 
z
" transform="scale(0.015625)"/>
      <path id="DejaVuSans-Bold-64" d="M 2919 2988 
L 2919 4863 
L 4044 4863 
L 4044 0 
L 2919 0 
L 2919 506 
Q 2688 197 2409 53 
Q 2131 -91 1766 -91 
Q 1119 -91 703 423 
Q 288 938 288 1747 
Q 288 2556 703 3070 
Q 1119 3584 1766 3584 
Q 2128 3584 2408 3439 
Q 2688 3294 2919 2988 
z
M 2181 722 
Q 2541 722 2730 984 
Q 2919 1247 2919 1747 
Q 2919 2247 2730 2509 
Q 2541 2772 2181 2772 
Q 1825 2772 1636 2509 
Q 1447 2247 1447 1747 
Q 1447 1247 1636 984 
Q 1825 722 2181 722 
z
" transform="scale(0.015625)"/>
      <path id="DejaVuSans-Bold-48" d="M 588 4666 
L 1791 4666 
L 1791 2888 
L 3566 2888 
L 3566 4666 
L 4769 4666 
L 4769 0 
L 3566 0 
L 3566 1978 
L 1791 1978 
L 1791 0 
L 588 0 
L 588 4666 
z
" transform="scale(0.015625)"/>
      <path id="DejaVuSans-Bold-6c" d="M 538 4863 
L 1656 4863 
L 1656 0 
L 538 0 
L 538 4863 
z
" transform="scale(0.015625)"/>
      <path id="DejaVuSans-Bold-65" d="M 4031 1759 
L 4031 1441 
L 1416 1441 
Q 1456 1047 1700 850 
Q 1944 653 2381 653 
Q 2734 653 3104 758 
Q 3475 863 3866 1075 
L 3866 213 
Q 3469 63 3072 -14 
Q 2675 -91 2278 -91 
Q 1328 -91 801 392 
Q 275 875 275 1747 
Q 275 2603 792 3093 
Q 1309 3584 2216 3584 
Q 3041 3584 3536 3087 
Q 4031 2591 4031 1759 
z
M 2881 2131 
Q 2881 2450 2695 2645 
Q 2509 2841 2209 2841 
Q 1884 2841 1681 2658 
Q 1478 2475 1428 2131 
L 2881 2131 
z
" transform="scale(0.015625)"/>
      <path id="DejaVuSans-Bold-2014" d="M 344 2156 
L 6056 2156 
L 6056 1350 
L 344 1350 
L 344 2156 
z
" transform="scale(0.015625)"/>
      <path id="DejaVuSans-Bold-4e" d="M 588 4666 
L 1931 4666 
L 3628 1466 
L 3628 4666 
L 4769 4666 
L 4769 0 
L 3425 0 
L 1728 3200 
L 1728 0 
L 588 0 
L 588 4666 
z
" transform="scale(0.015625)"/>
      <path id="DejaVuSans-Bold-46" d="M 588 4666 
L 3834 4666 
L 3834 3756 
L 1791 3756 
L 1791 2888 
L 3713 2888 
L 3713 1978 
L 1791 1978 
L 1791 0 
L 588 0 
L 588 4666 
z
" transform="scale(0.015625)"/>
      <path id="DejaVuSans-Bold-4c" d="M 588 4666 
L 1791 4666 
L 1791 909 
L 3903 909 
L 3903 0 
L 588 0 
L 588 4666 
z
" transform="scale(0.015625)"/>
      <path id="DejaVuSans-Bold-58" d="M 3188 2381 
L 4806 0 
L 3553 0 
L 2463 1594 
L 1381 0 
L 122 0 
L 1741 2381 
L 184 4666 
L 1441 4666 
L 2463 3163 
L 3481 4666 
L 4744 4666 
L 3188 2381 
z
" transform="scale(0.015625)"/>
      <path id="DejaVuSans-Bold-31" d="M 750 831 
L 1813 831 
L 1813 3847 
L 722 3622 
L 722 4441 
L 1806 4666 
L 2950 4666 
L 2950 831 
L 4013 831 
L 4013 0 
L 750 0 
L 750 831 
z
" transform="scale(0.015625)"/>
      <path id="DejaVuSans-Bold-44" d="M 1791 3756 
L 1791 909 
L 2222 909 
Q 2959 909 3348 1275 
Q 3738 1641 3738 2338 
Q 3738 3031 3350 3393 
Q 2963 3756 2222 3756 
L 1791 3756 
z
M 588 4666 
L 1856 4666 
Q 2919 4666 3439 4514 
Q 3959 4363 4331 4000 
Q 4659 3684 4818 3271 
Q 4978 2859 4978 2338 
Q 4978 1809 4818 1395 
Q 4659 981 4331 666 
Q 3956 303 3431 151 
Q 2906 0 1856 0 
L 588 0 
L 588 4666 
z
" transform="scale(0.015625)"/>
     </defs>
     <use xlink:href="#DejaVuSans-Bold-43"/>
     <use xlink:href="#DejaVuSans-Bold-75" transform="translate(73.388672 0)"/>
     <use xlink:href="#DejaVuSans-Bold-70" transform="translate(144.580078 0)"/>
     <use xlink:href="#DejaVuSans-Bold-20" transform="translate(216.162109 0)"/>
     <use xlink:href="#DejaVuSans-Bold-61" transform="translate(250.976562 0)"/>
     <use xlink:href="#DejaVuSans-Bold-6e" transform="translate(318.457031 0)"/>
     <use xlink:href="#DejaVuSans-Bold-64" transform="translate(389.648438 0)"/>
     <use xlink:href="#DejaVuSans-Bold-20" transform="translate(461.230469 0)"/>
     <use xlink:href="#DejaVuSans-Bold-48" transform="translate(496.044922 0)"/>
     <use xlink:href="#DejaVuSans-Bold-61" transform="translate(579.736328 0)"/>
     <use xlink:href="#DejaVuSans-Bold-6e" transform="translate(647.216797 0)"/>
     <use xlink:href="#DejaVuSans-Bold-64" transform="translate(718.408203 0)"/>
     <use xlink:href="#DejaVuSans-Bold-6c" transform="translate(789.990234 0)"/>
     <use xlink:href="#DejaVuSans-Bold-65" transform="translate(824.267578 0)"/>
     <use xlink:href="#DejaVuSans-Bold-20" transform="translate(892.089844 0)"/>
     <use xlink:href="#DejaVuSans-Bold-2014" transform="translate(926.904297 0)"/>
     <use xlink:href="#DejaVuSans-Bold-20" transform="translate(1026.904297 0)"/>
     <use xlink:href="#DejaVuSans-Bold-4e" transform="translate(1061.71875 0)"/>
     <use xlink:href="#DejaVuSans-Bold-46" transform="translate(1145.410156 0)"/>
     <use xlink:href="#DejaVuSans-Bold-4c" transform="translate(1213.720703 0)"/>
     <use xlink:href="#DejaVuSans-Bold-58" transform="translate(1277.441406 0)"/>
     <use xlink:href="#DejaVuSans-Bold-20" transform="translate(1354.541016 0)"/>
     <use xlink:href="#DejaVuSans-Bold-31" transform="translate(1389.355469 0)"/>
     <use xlink:href="#DejaVuSans-Bold-44" transform="translate(1458.935547 0)"/>
    </g>
   </g>
  </g>
  <g id="axes_2">
   <g id="patch_35">
    <path d="M 31.0325 253.078125 
L 477.4325 253.078125 
L 477.4325 198.99032 
L 31.0325 198.99032 
z
" style="fill: #0a0f1a"/>
   </g>
   <g id="patch_36">
    <path d="M 51.323409 253.078125 
L 60.888147 253.078125 
L 60.888147 226.183046 
L 51.323409 226.183046 
z
" clip-path="url(#pc7ff160d97)" style="fill: #ef4444; fill-opacity: 0.266667"/>
   </g>
   <g id="patch_37">
    <path d="M 64.987321 253.078125 
L 74.552059 253.078125 
L 74.552059 216.80479 
L 64.987321 216.80479 
z
" clip-path="url(#pc7ff160d97)" style="fill: #22c55e; fill-opacity: 0.266667"/>
   </g>
   <g id="patch_38">
    <path d="M 78.651233 253.078125 
L 88.215971 253.078125 
L 88.215971 231.847894 
L 78.651233 231.847894 
z
" clip-path="url(#pc7ff160d97)" style="fill: #22c55e; fill-opacity: 0.266667"/>
   </g>
   <g id="patch_39">
    <path d="M 92.315145 253.078125 
L 101.879883 253.078125 
L 101.879883 214.364864 
L 92.315145 214.364864 
z
" clip-path="url(#pc7ff160d97)" style="fill: #22c55e; fill-opacity: 0.266667"/>
   </g>
   <g id="patch_40">
    <path d="M 105.979056 253.078125 
L 115.543795 253.078125 
L 115.543795 211.920596 
L 105.979056 211.920596 
z
" clip-path="url(#pc7ff160d97)" style="fill: #22c55e; fill-opacity: 0.266667"/>
   </g>
   <g id="patch_41">
    <path d="M 119.642968 253.078125 
L 129.207707 253.078125 
L 129.207707 201.842883 
L 119.642968 201.842883 
z
" clip-path="url(#pc7ff160d97)" style="fill: #22c55e; fill-opacity: 0.266667"/>
   </g>
   <g id="patch_42">
    <path d="M 133.30688 253.078125 
L 142.871618 253.078125 
L 142.871618 238.207448 
L 133.30688 238.207448 
z
" clip-path="url(#pc7ff160d97)" style="fill: #22c55e; fill-opacity: 0.266667"/>
   </g>
   <g id="patch_43">
    <path d="M 146.970792 253.078125 
L 156.53553 253.078125 
L 156.53553 219.956613 
L 146.970792 219.956613 
z
" clip-path="url(#pc7ff160d97)" style="fill: #22c55e; fill-opacity: 0.266667"/>
   </g>
   <g id="patch_44">
    <path d="M 160.634704 253.078125 
L 170.199442 253.078125 
L 170.199442 202.430793 
L 160.634704 202.430793 
z
" clip-path="url(#pc7ff160d97)" style="fill: #ef4444; fill-opacity: 0.266667"/>
   </g>
   <g id="patch_45">
    <path d="M 174.298616 253.078125 
L 183.863354 253.078125 
L 183.863354 207.552341 
L 174.298616 207.552341 
z
" clip-path="url(#pc7ff160d97)" style="fill: #ef4444; fill-opacity: 0.266667"/>
   </g>
   <g id="patch_46">
    <path d="M 187.962528 253.078125 
L 197.527266 253.078125 
L 197.527266 207.793567 
L 187.962528 207.793567 
z
" clip-path="url(#pc7ff160d97)" style="fill: #ef4444; fill-opacity: 0.266667"/>
   </g>
   <g id="patch_47">
    <path d="M 201.626439 253.078125 
L 211.191178 253.078125 
L 211.191178 234.837459 
L 201.626439 234.837459 
z
" clip-path="url(#pc7ff160d97)" style="fill: #ef4444; fill-opacity: 0.266667"/>
   </g>
   <g id="patch_48">
    <path d="M 215.290351 253.078125 
L 224.85509 253.078125 
L 224.85509 218.821262 
L 215.290351 218.821262 
z
" clip-path="url(#pc7ff160d97)" style="fill: #22c55e; fill-opacity: 0.266667"/>
   </g>
   <g id="patch_49">
    <path d="M 228.954263 253.078125 
L 238.519001 253.078125 
L 238.519001 241.611805 
L 228.954263 241.611805 
z
" clip-path="url(#pc7ff160d97)" style="fill: #22c55e; fill-opacity: 0.266667"/>
   </g>
   <g id="patch_50">
    <path d="M 242.618175 253.078125 
L 252.182913 253.078125 
L 252.182913 232.186208 
L 242.618175 232.186208 
z
" clip-path="url(#pc7ff160d97)" style="fill: #22c55e; fill-opacity: 0.266667"/>
   </g>
   <g id="patch_51">
    <path d="M 256.282087 253.078125 
L 265.846825 253.078125 
L 265.846825 228.63559 
L 256.282087 228.63559 
z
" clip-path="url(#pc7ff160d97)" style="fill: #22c55e; fill-opacity: 0.266667"/>
   </g>
   <g id="patch_52">
    <path d="M 269.945999 253.078125 
L 279.510737 253.078125 
L 279.510737 220.766894 
L 269.945999 220.766894 
z
" clip-path="url(#pc7ff160d97)" style="fill: #22c55e; fill-opacity: 0.266667"/>
   </g>
   <g id="patch_53">
    <path d="M 283.60991 253.078125 
L 293.174649 253.078125 
L 293.174649 242.086462 
L 283.60991 242.086462 
z
" clip-path="url(#pc7ff160d97)" style="fill: #ef4444; fill-opacity: 0.266667"/>
   </g>
   <g id="patch_54">
    <path d="M 297.273822 253.078125 
L 306.838561 253.078125 
L 306.838561 210.094462 
L 297.273822 210.094462 
z
" clip-path="url(#pc7ff160d97)" style="fill: #22c55e; fill-opacity: 0.266667"/>
   </g>
   <g id="patch_55">
    <path d="M 310.937734 253.078125 
L 320.502472 253.078125 
L 320.502472 222.133741 
L 310.937734 222.133741 
z
" clip-path="url(#pc7ff160d97)" style="fill: #ef4444; fill-opacity: 0.266667"/>
   </g>
   <g id="patch_56">
    <path d="M 324.601646 253.078125 
L 334.166384 253.078125 
L 334.166384 203.598388 
L 324.601646 203.598388 
z
" clip-path="url(#pc7ff160d97)" style="fill: #22c55e; fill-opacity: 0.266667"/>
   </g>
   <g id="patch_57">
    <path d="M 338.265558 253.078125 
L 347.830296 253.078125 
L 347.830296 234.45784 
L 338.265558 234.45784 
z
" clip-path="url(#pc7ff160d97)" style="fill: #ef4444; fill-opacity: 0.266667"/>
   </g>
   <g id="patch_58">
    <path d="M 351.92947 253.078125 
L 361.494208 253.078125 
L 361.494208 237.215177 
L 351.92947 237.215177 
z
" clip-path="url(#pc7ff160d97)" style="fill: #22c55e; fill-opacity: 0.266667"/>
   </g>
   <g id="patch_59">
    <path d="M 365.593382 253.078125 
L 375.15812 253.078125 
L 375.15812 201.56593 
L 365.593382 201.56593 
z
" clip-path="url(#pc7ff160d97)" style="fill: #ef4444; fill-opacity: 0.266667"/>
   </g>
   <g id="patch_60">
    <path d="M 379.257293 253.078125 
L 388.822032 253.078125 
L 388.822032 222.809521 
L 379.257293 222.809521 
z
" clip-path="url(#pc7ff160d97)" style="fill: #22c55e; fill-opacity: 0.266667"/>
   </g>
   <g id="patch_61">
    <path d="M 392.921205 253.078125 
L 402.485944 253.078125 
L 402.485944 233.324226 
L 392.921205 233.324226 
z
" clip-path="url(#pc7ff160d97)" style="fill: #ef4444; fill-opacity: 0.266667"/>
   </g>
   <g id="patch_62">
    <path d="M 406.585117 253.078125 
L 416.149855 253.078125 
L 416.149855 204.393729 
L 406.585117 204.393729 
z
" clip-path="url(#pc7ff160d97)" style="fill: #22c55e; fill-opacity: 0.266667"/>
   </g>
   <g id="patch_63">
    <path d="M 420.249029 253.078125 
L 429.813767 253.078125 
L 429.813767 227.569886 
L 420.249029 227.569886 
z
" clip-path="url(#pc7ff160d97)" style="fill: #ef4444; fill-opacity: 0.266667"/>
   </g>
   <g id="patch_64">
    <path d="M 433.912941 253.078125 
L 443.477679 253.078125 
L 443.477679 227.09456 
L 433.912941 227.09456 
z
" clip-path="url(#pc7ff160d97)" style="fill: #22c55e; fill-opacity: 0.266667"/>
   </g>
   <g id="patch_65">
    <path d="M 447.576853 253.078125 
L 457.141591 253.078125 
L 457.141591 232.484033 
L 447.576853 232.484033 
z
" clip-path="url(#pc7ff160d97)" style="fill: #ef4444; fill-opacity: 0.266667"/>
   </g>
   <g id="matplotlib.axis_3">
    <g id="xtick_8">
     <g id="line2d_61">
      <path d="M 56.105778 253.078125 
L 56.105778 198.99032 
" clip-path="url(#pc7ff160d97)" style="fill: none; stroke-dasharray: 2.96,1.28; stroke-dashoffset: 0; stroke: #374151; stroke-opacity: 0.1; stroke-width: 0.8"/>
     </g>
     <g id="line2d_62">
      <g>
       <use xlink:href="#m5d30a4d5ac" x="56.105778" y="253.078125" style="fill: #9ca3af; stroke: #9ca3af; stroke-width: 0.8"/>
      </g>
     </g>
     <g id="text_10">
      <!-- 0 -->
      <g style="fill: #9ca3af" transform="translate(53.560778 266.156875) scale(0.08 -0.08)">
       <use xlink:href="#DejaVuSans-30"/>
      </g>
     </g>
    </g>
    <g id="xtick_9">
     <g id="line2d_63">
      <path d="M 124.425337 253.078125 
L 124.425337 198.99032 
" clip-path="url(#pc7ff160d97)" style="fill: none; stroke-dasharray: 2.96,1.28; stroke-dashoffset: 0; stroke: #374151; stroke-opacity: 0.1; stroke-width: 0.8"/>
     </g>
     <g id="line2d_64">
      <g>
       <use xlink:href="#m5d30a4d5ac" x="124.425337" y="253.078125" style="fill: #9ca3af; stroke: #9ca3af; stroke-width: 0.8"/>
      </g>
     </g>
     <g id="text_11">
      <!-- 5 -->
      <g style="fill: #9ca3af" transform="translate(121.880337 266.156875) scale(0.08 -0.08)">
       <defs>
        <path id="DejaVuSans-35" d="M 691 4666 
L 3169 4666 
L 3169 4134 
L 1269 4134 
L 1269 2991 
Q 1406 3038 1543 3061 
Q 1681 3084 1819 3084 
Q 2600 3084 3056 2656 
Q 3513 2228 3513 1497 
Q 3513 744 3044 326 
Q 2575 -91 1722 -91 
Q 1428 -91 1123 -41 
Q 819 9 494 109 
L 494 744 
Q 775 591 1075 516 
Q 1375 441 1709 441 
Q 2250 441 2565 725 
Q 2881 1009 2881 1497 
Q 2881 1984 2565 2268 
Q 2250 2553 1709 2553 
Q 1456 2553 1204 2497 
Q 953 2441 691 2322 
L 691 4666 
z
" transform="scale(0.015625)"/>
       </defs>
       <use xlink:href="#DejaVuSans-35"/>
      </g>
     </g>
    </g>
    <g id="xtick_10">
     <g id="line2d_65">
      <path d="M 192.744897 253.078125 
L 192.744897 198.99032 
" clip-path="url(#pc7ff160d97)" style="fill: none; stroke-dasharray: 2.96,1.28; stroke-dashoffset: 0; stroke: #374151; stroke-opacity: 0.1; stroke-width: 0.8"/>
     </g>
     <g id="line2d_66">
      <g>
       <use xlink:href="#m5d30a4d5ac" x="192.744897" y="253.078125" style="fill: #9ca3af; stroke: #9ca3af; stroke-width: 0.8"/>
      </g>
     </g>
     <g id="text_12">
      <!-- 10 -->
      <g style="fill: #9ca3af" transform="translate(187.654897 266.156875) scale(0.08 -0.08)">
       <use xlink:href="#DejaVuSans-31"/>
       <use xlink:href="#DejaVuSans-30" transform="translate(63.623047 0)"/>
      </g>
     </g>
    </g>
    <g id="xtick_11">
     <g id="line2d_67">
      <path d="M 261.064456 253.078125 
L 261.064456 198.99032 
" clip-path="url(#pc7ff160d97)" style="fill: none; stroke-dasharray: 2.96,1.28; stroke-dashoffset: 0; stroke: #374151; stroke-opacity: 0.1; stroke-width: 0.8"/>
     </g>
     <g id="line2d_68">
      <g>
       <use xlink:href="#m5d30a4d5ac" x="261.064456" y="253.078125" style="fill: #9ca3af; stroke: #9ca3af; stroke-width: 0.8"/>
      </g>
     </g>
     <g id="text_13">
      <!-- 15 -->
      <g style="fill: #9ca3af" transform="translate(255.974456 266.156875) scale(0.08 -0.08)">
       <use xlink:href="#DejaVuSans-31"/>
       <use xlink:href="#DejaVuSans-35" transform="translate(63.623047 0)"/>
      </g>
     </g>
    </g>
    <g id="xtick_12">
     <g id="line2d_69">
      <path d="M 329.384015 253.078125 
L 329.384015 198.99032 
" clip-path="url(#pc7ff160d97)" style="fill: none; stroke-dasharray: 2.96,1.28; stroke-dashoffset: 0; stroke: #374151; stroke-opacity: 0.1; stroke-width: 0.8"/>
     </g>
     <g id="line2d_70">
      <g>
       <use xlink:href="#m5d30a4d5ac" x="329.384015" y="253.078125" style="fill: #9ca3af; stroke: #9ca3af; stroke-width: 0.8"/>
      </g>
     </g>
     <g id="text_14">
      <!-- 20 -->
      <g style="fill: #9ca3af" transform="translate(324.294015 266.156875) scale(0.08 -0.08)">
       <use xlink:href="#DejaVuSans-32"/>
       <use xlink:href="#DejaVuSans-30" transform="translate(63.623047 0)"/>
      </g>
     </g>
    </g>
    <g id="xtick_13">
     <g id="line2d_71">
      <path d="M 397.703574 253.078125 
L 397.703574 198.99032 
" clip-path="url(#pc7ff160d97)" style="fill: none; stroke-dasharray: 2.96,1.28; stroke-dashoffset: 0; stroke: #374151; stroke-opacity: 0.1; stroke-width: 0.8"/>
     </g>
     <g id="line2d_72">
      <g>
       <use xlink:href="#m5d30a4d5ac" x="397.703574" y="253.078125" style="fill: #9ca3af; stroke: #9ca3af; stroke-width: 0.8"/>
      </g>
     </g>
     <g id="text_15">
      <!-- 25 -->
      <g style="fill: #9ca3af" transform="translate(392.613574 266.156875) scale(0.08 -0.08)">
       <use xlink:href="#DejaVuSans-32"/>
       <use xlink:href="#DejaVuSans-35" transform="translate(63.623047 0)"/>
      </g>
     </g>
    </g>
    <g id="xtick_14">
     <g id="line2d_73">
      <path d="M 466.023134 253.078125 
L 466.023134 198.99032 
" clip-path="url(#pc7ff160d97)" style="fill: none; stroke-dasharray: 2.96,1.28; stroke-dashoffset: 0; stroke: #374151; stroke-opacity: 0.1; stroke-width: 0.8"/>
     </g>
     <g id="line2d_74">
      <g>
       <use xlink:href="#m5d30a4d5ac" x="466.023134" y="253.078125" style="fill: #9ca3af; stroke: #9ca3af; stroke-width: 0.8"/>
      </g>
     </g>
     <g id="text_16">
      <!-- 30 -->
      <g style="fill: #9ca3af" transform="translate(460.933134 266.156875) scale(0.08 -0.08)">
       <defs>
        <path id="DejaVuSans-33" d="M 2597 2516 
Q 3050 2419 3304 2112 
Q 3559 1806 3559 1356 
Q 3559 666 3084 287 
Q 2609 -91 1734 -91 
Q 1441 -91 1130 -33 
Q 819 25 488 141 
L 488 750 
Q 750 597 1062 519 
Q 1375 441 1716 441 
Q 2309 441 2620 675 
Q 2931 909 2931 1356 
Q 2931 1769 2642 2001 
Q 2353 2234 1838 2234 
L 1294 2234 
L 1294 2753 
L 1863 2753 
Q 2328 2753 2575 2939 
Q 2822 3125 2822 3475 
Q 2822 3834 2567 4026 
Q 2313 4219 1838 4219 
Q 1578 4219 1281 4162 
Q 984 4106 628 3988 
L 628 4550 
Q 988 4650 1302 4700 
Q 1616 4750 1894 4750 
Q 2613 4750 3031 4423 
Q 3450 4097 3450 3541 
Q 3450 3153 3228 2886 
Q 3006 2619 2597 2516 
z
" transform="scale(0.015625)"/>
       </defs>
       <use xlink:href="#DejaVuSans-33"/>
       <use xlink:href="#DejaVuSans-30" transform="translate(63.623047 0)"/>
      </g>
     </g>
    </g>
   </g>
   <g id="matplotlib.axis_4">
    <g id="ytick_9">
     <g id="line2d_75">
      <path d="M 31.0325 253.078125 
L 477.4325 253.078125 
" clip-path="url(#pc7ff160d97)" style="fill: none; stroke-dasharray: 2.96,1.28; stroke-dashoffset: 0; stroke: #374151; stroke-opacity: 0.1; stroke-width: 0.8"/>
     </g>
     <g id="line2d_76">
      <g>
       <use xlink:href="#mf2cbb49dad" x="31.0325" y="253.078125" style="fill: #9ca3af; stroke: #9ca3af; stroke-width: 0.8"/>
      </g>
     </g>
     <g id="text_17">
      <!-- 0 -->
      <g style="fill: #9ca3af" transform="translate(18.9425 256.1175) scale(0.08 -0.08)">
       <use xlink:href="#DejaVuSans-30"/>
      </g>
     </g>
    </g>
    <g id="ytick_10">
     <g id="line2d_77">
      <path d="M 31.0325 232.153859 
L 477.4325 232.153859 
" clip-path="url(#pc7ff160d97)" style="fill: none; stroke-dasharray: 2.96,1.28; stroke-dashoffset: 0; stroke: #374151; stroke-opacity: 0.1; stroke-width: 0.8"/>
     </g>
     <g id="line2d_78">
      <g>
       <use xlink:href="#mf2cbb49dad" x="31.0325" y="232.153859" style="fill: #9ca3af; stroke: #9ca3af; stroke-width: 0.8"/>
      </g>
     </g>
     <g id="text_18">
      <!-- 2 -->
      <g style="fill: #9ca3af" transform="translate(18.9425 235.193234) scale(0.08 -0.08)">
       <use xlink:href="#DejaVuSans-32"/>
      </g>
     </g>
    </g>
    <g id="ytick_11">
     <g id="line2d_79">
      <path d="M 31.0325 211.229593 
L 477.4325 211.229593 
" clip-path="url(#pc7ff160d97)" style="fill: none; stroke-dasharray: 2.96,1.28; stroke-dashoffset: 0; stroke: #374151; stroke-opacity: 0.1; stroke-width: 0.8"/>
     </g>
     <g id="line2d_80">
      <g>
       <use xlink:href="#mf2cbb49dad" x="31.0325" y="211.229593" style="fill: #9ca3af; stroke: #9ca3af; stroke-width: 0.8"/>
      </g>
     </g>
     <g id="text_19">
      <!-- 4 -->
      <g style="fill: #9ca3af" transform="translate(18.9425 214.268968) scale(0.08 -0.08)">
       <use xlink:href="#DejaVuSans-34"/>
      </g>
     </g>
    </g>
    <g id="text_20">
     <!-- Vol -->
     <g style="fill: #9ca3af" transform="translate(13.27875 232.019223) rotate(-90) scale(0.08 -0.08)">
      <defs>
       <path id="DejaVuSans-56" d="M 1831 0 
L 50 4666 
L 709 4666 
L 2188 738 
L 3669 4666 
L 4325 4666 
L 2547 0 
L 1831 0 
z
" transform="scale(0.015625)"/>
       <path id="DejaVuSans-6f" d="M 1959 3097 
Q 1497 3097 1228 2736 
Q 959 2375 959 1747 
Q 959 1119 1226 758 
Q 1494 397 1959 397 
Q 2419 397 2687 759 
Q 2956 1122 2956 1747 
Q 2956 2369 2687 2733 
Q 2419 3097 1959 3097 
z
M 1959 3584 
Q 2709 3584 3137 3096 
Q 3566 2609 3566 1747 
Q 3566 888 3137 398 
Q 2709 -91 1959 -91 
Q 1206 -91 779 398 
Q 353 888 353 1747 
Q 353 2609 779 3096 
Q 1206 3584 1959 3584 
z
" transform="scale(0.015625)"/>
       <path id="DejaVuSans-6c" d="M 603 4863 
L 1178 4863 
L 1178 0 
L 603 0 
L 603 4863 
z
" transform="scale(0.015625)"/>
      </defs>
      <use xlink:href="#DejaVuSans-56"/>
      <use xlink:href="#DejaVuSans-6f" transform="translate(60.658203 0)"/>
      <use xlink:href="#DejaVuSans-6c" transform="translate(121.839844 0)"/>
     </g>
    </g>
    <g id="text_21">
     <!-- 1e6 -->
     <g style="fill: #9ca3af" transform="translate(31.0325 195.99032) scale(0.1 -0.1)">
      <defs>
       <path id="DejaVuSans-65" d="M 3597 1894 
L 3597 1613 
L 953 1613 
Q 991 1019 1311 708 
Q 1631 397 2203 397 
Q 2534 397 2845 478 
Q 3156 559 3463 722 
L 3463 178 
Q 3153 47 2828 -22 
Q 2503 -91 2169 -91 
Q 1331 -91 842 396 
Q 353 884 353 1716 
Q 353 2575 817 3079 
Q 1281 3584 2069 3584 
Q 2775 3584 3186 3129 
Q 3597 2675 3597 1894 
z
M 3022 2063 
Q 3016 2534 2758 2815 
Q 2500 3097 2075 3097 
Q 1594 3097 1305 2825 
Q 1016 2553 972 2059 
L 3022 2063 
z
" transform="scale(0.015625)"/>
      </defs>
      <use xlink:href="#DejaVuSans-31"/>
      <use xlink:href="#DejaVuSans-65" transform="translate(63.623047 0)"/>
      <use xlink:href="#DejaVuSans-36" transform="translate(125.146484 0)"/>
     </g>
    </g>
   </g>
   <g id="patch_66">
    <path d="M 31.0325 253.078125 
L 31.0325 198.99032 
" style="fill: none; stroke: #1f2937; stroke-width: 0.8; stroke-linejoin: miter; stroke-linecap: square"/>
   </g>
   <g id="patch_67">
    <path d="M 31.0325 253.078125 
L 477.4325 253.078125 
" style="fill: none; stroke: #1f2937; stroke-width: 0.8; stroke-linejoin: miter; stroke-linecap: square"/>
   </g>
  </g>
 </g>
 <defs>
  <clipPath id="p5adfee9a71">
   <rect x="31.0325" y="31.318125" width="446.4" height="162.263415"/>
  </clipPath>
  <clipPath id="pc7ff160d97">
   <rect x="31.0325" y="198.99032" width="446.4" height="54.087805"/>
  </clipPath>
 </defs>
</svg>
