<?xml version="1.0" encoding="utf-8" standalone="no"?>
<!DOCTYPE svg PUBLIC "-//W3C//DTD SVG 1.1//EN"
  "http://www.w3.org/Graphics/SVG/1.1/DTD/svg11.dtd">
<svg xmlns:xlink="http://www.w3.org/1999/xlink" width="487.839687pt" height="267.533125pt" viewBox="0 0 487.839687 267.533125" xmlns="http://www.w3.org/2000/svg" version="1.1">
 <metadata>
  <rdf:RDF xmlns:dc="http://purl.org/dc/elements/1.1/" xmlns:cc="http://creativecommons.org/ns#" xmlns:rdf="http://www.w3.org/1999/02/22-rdf-syntax-ns#">
   <cc:Work>
    <dc:type rdf:resource="http://purl.org/dc/dcmitype/StillImage"/>
    <dc:date>2026-02-16T00:23:22.300892</dc:date>
    <dc:format>image/svg+xml</dc:format>
    <dc:creator>
     <cc:Agent>
      <dc:title>Matplotlib v3.10.8, https://matplotlib.org/</dc:title>
     </cc:Agent>
    </dc:creator>
   </cc:Work>
  </rdf:RDF>
 </metadata>
 <defs>
  <style type="text/css">*{stroke-linejoin: round; stroke-linecap: butt}</style>
 </defs>
 <g id="figure_1">
  <g id="patch_1">
   <path d="M 0 267.533125 
L 487.839687 267.533125 
L 487.839687 0 
L 0 0 
z
" style="fill: #0a0f1a"/>
  </g>
  <g id="axes_1">
   <g id="patch_2">
    <path d="M 34.239688 187.061852 
L 480.639687 187.061852 
L 480.639687 24.798438 
L 34.239688 24.798438 
z
" style="fill: #0a0f1a"/>
   </g>
   <g id="patch_3">
    <path d="M 43.599688 177.533219 
L 53.679688 177.533219 
Q 53.967687 177.533219 53.967687 177.375525 
L 53.967687 165.282445 
Q 53.967687 165.124752 53.679688 165.124752 
L 43.599688 165.124752 
Q 43.311688 165.124752 43.311688 165.282445 
L 43.311688 177.375525 
Q 43.311688 177.533219 43.599688 177.533219 
z
" clip-path="url(#p7ba777b546)" style="fill: #ef4444; stroke: #ef4444; stroke-linejoin: miter"/>
   </g>
   <g id="patch_4">
    <path d="M 57.999688 158.511626 
L 68.079688 158.511626 
Q 68.367688 158.511626 68.367688 158.353932 
L 68.367688 144.743604 
Q 68.367688 144.58591 68.079688 144.58591 
L 57.999688 144.58591 
Q 57.711687 144.58591 57.711687 144.743604 
L 57.711687 158.353932 
Q 57.711687 158.511626 57.999688 158.511626 
z
" clip-path="url(#p7ba777b546)" style="fill: #ef4444; stroke: #ef4444; stroke-linejoin: miter"/>
   </g>
   <g id="patch_5">
    <path d="M 72.399687 156.947061 
L 82.479687 156.947061 
Q 82.767687 156.947061 82.767687 156.789368 
L 82.767687 147.22836 
Q 82.767687 147.070667 82.479687 147.070667 
L 72.399687 147.070667 
Q 72.111688 147.070667 72.111688 147.22836 
L 72.111688 156.789368 
Q 72.111688 156.947061 72.399687 156.947061 
z
" clip-path="url(#p7ba777b546)" style="fill: #22c55e; stroke: #22c55e; stroke-linejoin: miter"/>
   </g>
   <g id="patch_6">
    <path d="M 86.799688 159.57823 
L 96.879687 159.57823 
Q 97.167687 159.57823 97.167687 159.420536 
L 97.167687 155.492475 
Q 97.167687 155.334781 96.879687 155.334781 
L 86.799688 155.334781 
Q 86.511687 155.334781 86.511687 155.492475 
L 86.511687 159.420536 
Q 86.511687 159.57823 86.799688 159.57823 
z
" clip-path="url(#p7ba777b546)" style="fill: #22c55e; stroke: #22c55e; stroke-linejoin: miter"/>
   </g>
   <g id="patch_7">
    <path d="M 101.199687 147.055177 
L 111.279687 147.055177 
Q 111.567688 147.055177 111.567688 146.897483 
L 111.567688 140.58457 
Q 111.567688 140.426877 111.279687 140.426877 
L 101.199687 140.426877 
Q 100.911687 140.426877 100.911687 140.58457 
L 100.911687 146.897483 
Q 100.911687 147.055177 101.199687 147.055177 
z
" clip-path="url(#p7ba777b546)" style="fill: #ef4444; stroke: #ef4444; stroke-linejoin: miter"/>
   </g>
   <g id="patch_8">
    <path d="M 115.599687 153.925139 
L 125.679688 153.925139 
Q 125.967688 153.925139 125.967688 153.767446 
L 125.967688 144.073082 
Q 125.967688 143.915388 125.679688 143.915388 
L 115.599687 143.915388 
Q 115.311688 143.915388 115.311688 144.073082 
L 115.311688 153.767446 
Q 115.311688 153.925139 115.599687 153.925139 
z
" clip-path="url(#p7ba777b546)" style="fill: #22c55e; stroke: #22c55e; stroke-linejoin: miter"/>
   </g>
   <g id="patch_9">
    <path d="M 129.999687 149.117569 
L 140.079688 149.117569 
Q 140.367688 149.117569 140.367688 148.959876 
L 140.367688 136.981076 
Q 140.367688 136.823382 140.079688 136.823382 
L 129.999687 136.823382 
Q 129.711688 136.823382 129.711688 136.981076 
L 129.711688 148.959876 
Q 129.711688 149.117569 129.999687 149.117569 
z
" clip-path="url(#p7ba777b546)" style="fill: #ef4444; stroke: #ef4444; stroke-linejoin: miter"/>
   </g>
   <g id="patch_10">
    <path d="M 144.399687 126.943457 
L 154.479688 126.943457 
Q 154.767687 126.943457 154.767687 126.785764 
L 154.767687 115.610148 
Q 154.767687 115.452455 154.479688 115.452455 
L 144.399687 115.452455 
Q 144.111688 115.452455 144.111688 115.610148 
L 144.111688 126.785764 
Q 144.111688 126.943457 144.399687 126.943457 
z
" clip-path="url(#p7ba777b546)" style="fill: #22c55e; stroke: #22c55e; stroke-linejoin: miter"/>
   </g>
   <g id="patch_11">
    <path d="M 158.799688 110.981264 
L 168.879688 110.981264 
Q 169.167687 110.981264 169.167687 110.823571 
L 169.167687 105.094761 
Q 169.167687 104.937068 168.879688 104.937068 
L 158.799688 104.937068 
Q 158.511687 104.937068 158.511687 105.094761 
L 158.511687 110.823571 
Q 158.511687 110.981264 158.799688 110.981264 
z
" clip-path="url(#p7ba777b546)" style="fill: #22c55e; stroke: #22c55e; stroke-linejoin: miter"/>
   </g>
   <g id="patch_12">
    <path d="M 173.199687 100.320549 
L 183.279688 100.320549 
Q 183.567688 100.320549 183.567688 100.162856 
L 183.567688 85.022598 
Q 183.567688 84.864905 183.279688 84.864905 
L 173.199687 84.864905 
Q 172.911687 84.864905 172.911687 85.022598 
L 172.911687 100.162856 
Q 172.911687 100.320549 173.199687 100.320549 
z
" clip-path="url(#p7ba777b546)" style="fill: #ef4444; stroke: #ef4444; stroke-linejoin: miter"/>
   </g>
   <g id="patch_13">
    <path d="M 187.599687 86.253593 
L 197.679688 86.253593 
Q 197.967688 86.253593 197.967688 86.0959 
L 197.967688 81.630441 
Q 197.967688 81.472747 197.679688 81.472747 
L 187.599687 81.472747 
Q 187.311688 81.472747 187.311688 81.630441 
L 187.311688 86.0959 
Q 187.311688 86.253593 187.599687 86.253593 
z
" clip-path="url(#p7ba777b546)" style="fill: #22c55e; stroke: #22c55e; stroke-linejoin: miter"/>
   </g>
   <g id="patch_14">
    <path d="M 201.999687 77.812898 
L 212.079688 77.812898 
Q 212.367688 77.812898 212.367688 77.655205 
L 212.367688 64.407196 
Q 212.367688 64.249503 212.079688 64.249503 
L 201.999687 64.249503 
Q 201.711688 64.249503 201.711688 64.407196 
L 201.711688 77.655205 
Q 201.711688 77.812898 201.999687 77.812898 
z
" clip-path="url(#p7ba777b546)" style="fill: #ef4444; stroke: #ef4444; stroke-linejoin: miter"/>
   </g>
   <g id="patch_15">
    <path d="M 216.399687 67.026909 
L 226.479688 67.026909 
Q 226.767687 67.026909 226.767687 66.869216 
L 226.767687 56.694581 
Q 226.767687 56.536888 226.479688 56.536888 
L 216.399687 56.536888 
Q 216.111688 56.536888 216.111688 56.694581 
L 216.111688 66.869216 
Q 216.111688 67.026909 216.399687 67.026909 
z
" clip-path="url(#p7ba777b546)" style="fill: #ef4444; stroke: #ef4444; stroke-linejoin: miter"/>
   </g>
   <g id="patch_16">
    <path d="M 230.799688 53.495492 
L 240.879688 53.495492 
Q 241.167687 53.495492 241.167687 53.337799 
L 241.167687 39.924495 
Q 241.167687 39.766802 240.879688 39.766802 
L 230.799688 39.766802 
Q 230.511687 39.766802 230.511687 39.924495 
L 230.511687 53.337799 
Q 230.511687 53.495492 230.799688 53.495492 
z
" clip-path="url(#p7ba777b546)" style="fill: #ef4444; stroke: #ef4444; stroke-linejoin: miter"/>
   </g>
   <g id="patch_17">
    <path d="M 245.199687 61.152194 
L 255.279687 61.152194 
Q 255.567688 61.152194 255.567688 60.994501 
L 255.567688 49.175245 
Q 255.567688 49.017552 255.279687 49.017552 
L 245.199687 49.017552 
Q 244.911687 49.017552 244.911687 49.175245 
L 244.911687 60.994501 
Q 244.911687 61.152194 245.199687 61.152194 
z
" clip-path="url(#p7ba777b546)" style="fill: #22c55e; stroke: #22c55e; stroke-linejoin: miter"/>
   </g>
   <g id="patch_18">
    <path d="M 259.599687 80.902086 
L 269.679688 80.902086 
Q 269.967688 80.902086 269.967688 80.744393 
L 269.967688 73.471674 
Q 269.967688 73.313981 269.679688 73.313981 
L 259.599687 73.313981 
Q 259.311688 73.313981 259.311688 73.471674 
L 259.311688 80.744393 
Q 259.311688 80.902086 259.599687 80.902086 
z
" clip-path="url(#p7ba777b546)" style="fill: #ef4444; stroke: #ef4444; stroke-linejoin: miter"/>
   </g>
   <g id="patch_19">
    <path d="M 273.999687 92.548017 
L 284.079687 92.548017 
Q 284.367687 92.548017 284.367687 92.390324 
L 284.367687 78.844007 
Q 284.367687 78.686314 284.079687 78.686314 
L 273.999687 78.686314 
Q 273.711687 78.686314 273.711687 78.844007 
L 273.711687 92.390324 
Q 273.711687 92.548017 273.999687 92.548017 
z
" clip-path="url(#p7ba777b546)" style="fill: #22c55e; stroke: #22c55e; stroke-linejoin: miter"/>
   </g>
   <g id="patch_20">
    <path d="M 288.399687 83.292294 
L 298.479687 83.292294 
Q 298.767687 83.292294 298.767687 83.134601 
L 298.767687 70.268821 
Q 298.767687 70.111127 298.479687 70.111127 
L 288.399687 70.111127 
Q 288.111687 70.111127 288.111687 70.268821 
L 288.111687 83.134601 
Q 288.111687 83.292294 288.399687 83.292294 
z
" clip-path="url(#p7ba777b546)" style="fill: #ef4444; stroke: #ef4444; stroke-linejoin: miter"/>
   </g>
   <g id="patch_21">
    <path d="M 302.799687 84.43095 
L 312.879687 84.43095 
Q 313.167687 84.43095 313.167687 84.273257 
L 313.167687 77.346931 
Q 313.167687 77.189238 312.879687 77.189238 
L 302.799687 77.189238 
Q 302.511687 77.189238 302.511687 77.346931 
L 302.511687 84.273257 
Q 302.511687 84.43095 302.799687 84.43095 
z
" clip-path="url(#p7ba777b546)" style="fill: #ef4444; stroke: #ef4444; stroke-linejoin: miter"/>
   </g>
   <g id="patch_22">
    <path d="M 317.199687 74.757594 
L 327.279687 74.757594 
Q 327.567687 74.757594 327.567687 74.599901 
L 327.567687 69.361928 
Q 327.567687 69.204235 327.279687 69.204235 
L 317.199687 69.204235 
Q 316.911687 69.204235 316.911687 69.361928 
L 316.911687 74.599901 
Q 316.911687 74.757594 317.199687 74.757594 
z
" clip-path="url(#p7ba777b546)" style="fill: #ef4444; stroke: #ef4444; stroke-linejoin: miter"/>
   </g>
   <g id="patch_23">
    <path d="M 331.599687 95.167087 
L 341.679687 95.167087 
Q 341.967687 95.167087 341.967687 95.009393 
L 341.967687 84.819331 
Q 341.967687 84.661638 341.679687 84.661638 
L 331.599687 84.661638 
Q 331.311687 84.661638 331.311687 84.819331 
L 331.311687 95.009393 
Q 331.311687 95.167087 331.599687 95.167087 
z
" clip-path="url(#p7ba777b546)" style="fill: #22c55e; stroke: #22c55e; stroke-linejoin: miter"/>
   </g>
   <g id="patch_24">
    <path d="M 345.999687 107.56133 
L 356.079687 107.56133 
Q 356.367687 107.56133 356.367687 107.403637 
L 356.367687 94.198468 
Q 356.367687 94.040775 356.079687 94.040775 
L 345.999687 94.040775 
Q 345.711687 94.040775 345.711687 94.198468 
L 345.711687 107.403637 
Q 345.711687 107.56133 345.999687 107.56133 
z
" clip-path="url(#p7ba777b546)" style="fill: #22c55e; stroke: #22c55e; stroke-linejoin: miter"/>
   </g>
   <g id="patch_25">
    <path d="M 360.399687 107.469607 
L 370.479687 107.469607 
Q 370.767687 107.469607 370.767687 107.311914 
L 370.767687 97.922113 
Q 370.767687 97.764419 370.479687 97.764419 
L 360.399687 97.764419 
Q 360.111687 97.764419 360.111687 97.922113 
L 360.111687 107.311914 
Q 360.111687 107.469607 360.399687 107.469607 
z
" clip-path="url(#p7ba777b546)" style="fill: #ef4444; stroke: #ef4444; stroke-linejoin: miter"/>
   </g>
   <g id="patch_26">
    <path d="M 374.799687 100.022251 
L 384.879687 100.022251 
Q 385.167687 100.022251 385.167687 99.864558 
L 385.167687 95.261932 
Q 385.167687 95.104239 384.879687 95.104239 
L 374.799687 95.104239 
Q 374.511687 95.104239 374.511687 95.261932 
L 374.511687 99.864558 
Q 374.511687 100.022251 374.799687 100.022251 
z
" clip-path="url(#p7ba777b546)" style="fill: #22c55e; stroke: #22c55e; stroke-linejoin: miter"/>
   </g>
   <g id="patch_27">
    <path d="M 389.199687 88.979752 
L 399.279687 88.979752 
Q 399.567687 88.979752 399.567687 88.822059 
L 399.567687 82.847954 
Q 399.567687 82.690261 399.279687 82.690261 
L 389.199687 82.690261 
Q 388.911687 82.690261 388.911687 82.847954 
L 388.911687 88.822059 
Q 388.911687 88.979752 389.199687 88.979752 
z
" clip-path="url(#p7ba777b546)" style="fill: #ef4444; stroke: #ef4444; stroke-linejoin: miter"/>
   </g>
   <g id="patch_28">
    <path d="M 403.599687 85.746186 
L 413.679687 85.746186 
Q 413.967687 85.746186 413.967687 85.588493 
L 413.967687 73.514885 
Q 413.967687 73.357192 413.679687 73.357192 
L 403.599687 73.357192 
Q 403.311687 73.357192 403.311687 73.514885 
L 403.311687 85.588493 
Q 403.311687 85.746186 403.599687 85.746186 
z
" clip-path="url(#p7ba777b546)" style="fill: #22c55e; stroke: #22c55e; stroke-linejoin: miter"/>
   </g>
   <g id="patch_29">
    <path d="M 417.999687 75.305439 
L 428.079687 75.305439 
Q 428.367687 75.305439 428.367687 75.147746 
L 428.367687 61.05877 
Q 428.367687 60.901077 428.079687 60.901077 
L 417.999687 60.901077 
Q 417.711687 60.901077 417.711687 61.05877 
L 417.711687 75.147746 
Q 417.711687 75.305439 417.999687 75.305439 
z
" clip-path="url(#p7ba777b546)" style="fill: #ef4444; stroke: #ef4444; stroke-linejoin: miter"/>
   </g>
   <g id="patch_30">
    <path d="M 432.399687 87.349546 
L 442.479687 87.349546 
Q 442.767687 87.349546 442.767687 87.191853 
L 442.767687 72.640542 
Q 442.767687 72.482848 442.479687 72.482848 
L 432.399687 72.482848 
Q 432.111687 72.482848 432.111687 72.640542 
L 432.111687 87.191853 
Q 432.111687 87.349546 432.399687 87.349546 
z
" clip-path="url(#p7ba777b546)" style="fill: #22c55e; stroke: #22c55e; stroke-linejoin: miter"/>
   </g>
   <g id="patch_31">
    <path d="M 446.799687 74.031569 
L 456.879687 74.031569 
Q 457.167687 74.031569 457.167687 73.873876 
L 457.167687 66.904422 
Q 457.167687 66.746728 456.879687 66.746728 
L 446.799687 66.746728 
Q 446.511687 66.746728 446.511687 66.904422 
L 446.511687 73.873876 
Q 446.511687 74.031569 446.799687 74.031569 
z
" clip-path="url(#p7ba777b546)" style="fill: #22c55e; stroke: #22c55e; stroke-linejoin: miter"/>
   </g>
   <g id="patch_32">
    <path d="M 461.199687 92.229365 
L 471.279687 92.229365 
Q 471.567687 92.229365 471.567687 92.071672 
L 471.567687 81.901064 
Q 471.567687 81.74337 471.279687 81.74337 
L 461.199687 81.74337 
Q 460.911687 81.74337 460.911687 81.901064 
L 460.911687 92.071672 
Q 460.911687 92.229365 461.199687 92.229365 
z
" clip-path="url(#p7ba777b546)" style="fill: #ef4444; stroke: #ef4444; stroke-linejoin: miter"/>
   </g>
   <g id="matplotlib.axis_1">
    <g id="xtick_1">
     <g id="line2d_1">
      <path d="M 48.639688 187.061852 
L 48.639688 24.798438 
" clip-path="url(#p7ba777b546)" style="fill: none; stroke: #374151; stroke-opacity: 0.1; stroke-width: 0.8; stroke-linecap: square"/>
     </g>
     <g id="line2d_2">
      <defs>
       <path id="m834819041e" d="M 0 0 
L 0 3.5 
" style="stroke: #4b5563; stroke-width: 0.8"/>
      </defs>
      <g>
       <use xlink:href="#m834819041e" x="48.639688" y="187.061852" style="fill: #4b5563; stroke: #4b5563; stroke-width: 0.8"/>
      </g>
     </g>
    </g>
    <g id="xtick_2">
     <g id="line2d_3">
      <path d="M 120.639688 187.061852 
L 120.639688 24.798438 
" clip-path="url(#p7ba777b546)" style="fill: none; stroke: #374151; stroke-opacity: 0.1; stroke-width: 0.8; stroke-linecap: square"/>
     </g>
     <g id="line2d_4">
      <g>
       <use xlink:href="#m834819041e" x="120.639688" y="187.061852" style="fill: #4b5563; stroke: #4b5563; stroke-width: 0.8"/>
      </g>
     </g>
    </g>
    <g id="xtick_3">
     <g id="line2d_5">
      <path d="M 192.639688 187.061852 
L 192.639688 24.798438 
" clip-path="url(#p7ba777b546)" style="fill: none; stroke: #374151; stroke-opacity: 0.1; stroke-width: 0.8; stroke-linecap: square"/>
     </g>
     <g id="line2d_6">
      <g>
       <use xlink:href="#m834819041e" x="192.639688" y="187.061852" style="fill: #4b5563; stroke: #4b5563; stroke-width: 0.8"/>
      </g>
     </g>
    </g>
    <g id="xtick_4">
     <g id="line2d_7">
      <path d="M 264.639687 187.061852 
L 264.639687 24.798438 
" clip-path="url(#p7ba777b546)" style="fill: none; stroke: #374151; stroke-opacity: 0.1; stroke-width: 0.8; stroke-linecap: square"/>
     </g>
     <g id="line2d_8">
      <g>
       <use xlink:href="#m834819041e" x="264.639687" y="187.061852" style="fill: #4b5563; stroke: #4b5563; stroke-width: 0.8"/>
      </g>
     </g>
    </g>
    <g id="xtick_5">
     <g id="line2d_9">
      <path d="M 336.639687 187.061852 
L 336.639687 24.798438 
" clip-path="url(#p7ba777b546)" style="fill: none; stroke: #374151; stroke-opacity: 0.1; stroke-width: 0.8; stroke-linecap: square"/>
     </g>
     <g id="line2d_10">
      <g>
       <use xlink:href="#m834819041e" x="336.639687" y="187.061852" style="fill: #4b5563; stroke: #4b5563; stroke-width: 0.8"/>
      </g>
     </g>
    </g>
    <g id="xtick_6">
     <g id="line2d_11">
      <path d="M 408.639687 187.061852 
L 408.639687 24.798438 
" clip-path="url(#p7ba777b546)" style="fill: none; stroke: #374151; stroke-opacity: 0.1; stroke-width: 0.8; stroke-linecap: square"/>
     </g>
     <g id="line2d_12">
      <g>
       <use xlink:href="#m834819041e" x="408.639687" y="187.061852" style="fill: #4b5563; stroke: #4b5563; stroke-width: 0.8"/>
      </g>
     </g>
    </g>
    <g id="xtick_7">
     <g id="line2d_13">
      <path d="M 480.639687 187.061852 
L 480.639687 24.798438 
" clip-path="url(#p7ba777b546)" style="fill: none; stroke: #374151; stroke-opacity: 0.1; stroke-width: 0.8; stroke-linecap: square"/>
     </g>
     <g id="line2d_14">
      <g>
       <use xlink:href="#m834819041e" x="480.639687" y="187.061852" style="fill: #4b5563; stroke: #4b5563; stroke-width: 0.8"/>
      </g>
     </g>
    </g>
   </g>
   <g id="matplotlib.axis_2">
    <g id="ytick_1">
     <g id="line2d_15">
      <path d="M 34.239688 171.328985 
L 480.639687 171.328985 
" clip-path="url(#p7ba777b546)" style="fill: none; stroke: #374151; stroke-opacity: 0.1; stroke-width: 0.8; stroke-linecap: square"/>
     </g>
     <g id="line2d_16">
      <defs>
       <path id="m6be05dc06b" d="M 0 0 
L -3.5 0 
" style="stroke: #4b5563; stroke-width: 0.8"/>
      </defs>
      <g>
       <use xlink:href="#m6be05dc06b" x="34.239688" y="171.328985" style="fill: #4b5563; stroke: #4b5563; stroke-width: 0.8"/>
      </g>
     </g>
     <g id="text_1">
      <!-- 100.0 -->
      <g style="fill: #4b5563" transform="translate(7.2 173.988438) scale(0.07 -0.07)">
       <defs>
        <path id="DejaVuSans-31" d="M 794 531 
L 1825 531 
L 1825 4091 
L 703 3866 
L 703 4441 
L 1819 4666 
L 2450 4666 
L 2450 531 
L 3481 531 
L 3481 0 
L 794 0 
L 794 531 
z
" transform="scale(0.015625)"/>
        <path id="DejaVuSans-30" d="M 2034 4250 
Q 1547 4250 1301 3770 
Q 1056 3291 1056 2328 
Q 1056 1369 1301 889 
Q 1547 409 2034 409 
Q 2525 409 2770 889 
Q 3016 1369 3016 2328 
Q 3016 3291 2770 3770 
Q 2525 4250 2034 4250 
z
M 2034 4750 
Q 2819 4750 3233 4129 
Q 3647 3509 3647 2328 
Q 3647 1150 3233 529 
Q 2819 -91 2034 -91 
Q 1250 -91 836 529 
Q 422 1150 422 2328 
Q 422 3509 836 4129 
Q 1250 4750 2034 4750 
z
" transform="scale(0.015625)"/>
        <path id="DejaVuSans-2e" d="M 684 794 
L 1344 794 
L 1344 0 
L 684 0 
L 684 794 
z
" transform="scale(0.015625)"/>
       </defs>
       <use xlink:href="#DejaVuSans-31"/>
       <use xlink:href="#DejaVuSans-30" transform="translate(63.623047 0)"/>
       <use xlink:href="#DejaVuSans-30" transform="translate(127.246094 0)"/>
       <use xlink:href="#DejaVuSans-2e" transform="translate(190.869141 0)"/>
       <use xlink:href="#DejaVuSans-30" transform="translate(222.65625 0)"/>
      </g>
     </g>
    </g>
    <g id="ytick_2">
     <g id="line2d_17">
      <path d="M 34.239688 151.617324 
L 480.639687 151.617324 
" clip-path="url(#p7ba777b546)" style="fill: none; stroke: #374151; stroke-opacity: 0.1; stroke-width: 0.8; stroke-linecap: square"/>
     </g>
     <g id="line2d_18">
      <g>
       <use xlink:href="#m6be05dc06b" x="34.239688" y="151.617324" style="fill: #4b5563; stroke: #4b5563; stroke-width: 0.8"/>
      </g>
     </g>
     <g id="text_2">
      <!-- 102.5 -->
      <g style="fill: #4b5563" transform="translate(7.2 154.276777) scale(0.07 -0.07)">
       <defs>
        <path id="DejaVuSans-32" d="M 1228 531 
L 3431 531 
L 3431 0 
L 469 0 
L 469 531 
Q 828 903 1448 1529 
Q 2069 2156 2228 2338 
Q 2531 2678 2651 2914 
Q 2772 3150 2772 3378 
Q 2772 3750 2511 3984 
Q 2250 4219 1831 4219 
Q 1534 4219 1204 4116 
Q 875 4013 500 3803 
L 500 4441 
Q 881 4594 1212 4672 
Q 1544 4750 1819 4750 
Q 2544 4750 2975 4387 
Q 3406 4025 3406 3419 
Q 3406 3131 3298 2873 
Q 3191 2616 2906 2266 
Q 2828 2175 2409 1742 
Q 1991 1309 1228 531 
z
" transform="scale(0.015625)"/>
        <path id="DejaVuSans-35" d="M 691 4666 
L 3169 4666 
L 3169 4134 
L 1269 4134 
L 1269 2991 
Q 1406 3038 1543 3061 
Q 1681 3084 1819 3084 
Q 2600 3084 3056 2656 
Q 3513 2228 3513 1497 
Q 3513 744 3044 326 
Q 2575 -91 1722 -91 
Q 1428 -91 1123 -41 
Q 819 9 494 109 
L 494 744 
Q 775 591 1075 516 
Q 1375 441 1709 441 
Q 2250 441 2565 725 
Q 2881 1009 2881 1497 
Q 2881 1984 2565 2268 
Q 2250 2553 1709 2553 
Q 1456 2553 1204 2497 
Q 953 2441 691 2322 
L 691 4666 
z
" transform="scale(0.015625)"/>
       </defs>
       <use xlink:href="#DejaVuSans-31"/>
       <use xlink:href="#DejaVuSans-30" transform="translate(63.623047 0)"/>
       <use xlink:href="#DejaVuSans-32" transform="translate(127.246094 0)"/>
       <use xlink:href="#DejaVuSans-2e" transform="translate(190.869141 0)"/>
       <use xlink:href="#DejaVuSans-35" transform="translate(222.65625 0)"/>
      </g>
     </g>
    </g>
    <g id="ytick_3">
     <g id="line2d_19">
      <path d="M 34.239688 131.905662 
L 480.639687 131.905662 
" clip-path="url(#p7ba777b546)" style="fill: none; stroke: #374151; stroke-opacity: 0.1; stroke-width: 0.8; stroke-linecap: square"/>
     </g>
     <g id="line2d_20">
      <g>
       <use xlink:href="#m6be05dc06b" x="34.239688" y="131.905662" style="fill: #4b5563; stroke: #4b5563; stroke-width: 0.8"/>
      </g>
     </g>
     <g id="text_3">
      <!-- 105.0 -->
      <g style="fill: #4b5563" transform="translate(7.2 134.565115) scale(0.07 -0.07)">
       <use xlink:href="#DejaVuSans-31"/>
       <use xlink:href="#DejaVuSans-30" transform="translate(63.623047 0)"/>
       <use xlink:href="#DejaVuSans-35" transform="translate(127.246094 0)"/>
       <use xlink:href="#DejaVuSans-2e" transform="translate(190.869141 0)"/>
       <use xlink:href="#DejaVuSans-30" transform="translate(222.65625 0)"/>
      </g>
     </g>
    </g>
    <g id="ytick_4">
     <g id="line2d_21">
      <path d="M 34.239688 112.194 
L 480.639687 112.194 
" clip-path="url(#p7ba777b546)" style="fill: none; stroke: #374151; stroke-opacity: 0.1; stroke-width: 0.8; stroke-linecap: square"/>
     </g>
     <g id="line2d_22">
      <g>
       <use xlink:href="#m6be05dc06b" x="34.239688" y="112.194" style="fill: #4b5563; stroke: #4b5563; stroke-width: 0.8"/>
      </g>
     </g>
     <g id="text_4">
      <!-- 107.5 -->
      <g style="fill: #4b5563" transform="translate(7.2 114.853453) scale(0.07 -0.07)">
       <defs>
        <path id="DejaVuSans-37" d="M 525 4666 
L 3525 4666 
L 3525 4397 
L 1831 0 
L 1172 0 
L 2766 4134 
L 525 4134 
L 525 4666 
z
" transform="scale(0.015625)"/>
       </defs>
       <use xlink:href="#DejaVuSans-31"/>
       <use xlink:href="#DejaVuSans-30" transform="translate(63.623047 0)"/>
       <use xlink:href="#DejaVuSans-37" transform="translate(127.246094 0)"/>
       <use xlink:href="#DejaVuSans-2e" transform="translate(190.869141 0)"/>
       <use xlink:href="#DejaVuSans-35" transform="translate(222.65625 0)"/>
      </g>
     </g>
    </g>
    <g id="ytick_5">
     <g id="line2d_23">
      <path d="M 34.239688 92.482339 
L 480.639687 92.482339 
" clip-path="url(#p7ba777b546)" style="fill: none; stroke: #374151; stroke-opacity: 0.1; stroke-width: 0.8; stroke-linecap: square"/>
     </g>
     <g id="line2d_24">
      <g>
       <use xlink:href="#m6be05dc06b" x="34.239688" y="92.482339" style="fill: #4b5563; stroke: #4b5563; stroke-width: 0.8"/>
      </g>
     </g>
     <g id="text_5">
      <!-- 110.0 -->
      <g style="fill: #4b5563" transform="translate(7.2 95.141792) scale(0.07 -0.07)">
       <use xlink:href="#DejaVuSans-31"/>
       <use xlink:href="#DejaVuSans-31" transform="translate(63.623047 0)"/>
       <use xlink:href="#DejaVuSans-30" transform="translate(127.246094 0)"/>
       <use xlink:href="#DejaVuSans-2e" transform="translate(190.869141 0)"/>
       <use xlink:href="#DejaVuSans-30" transform="translate(222.65625 0)"/>
      </g>
     </g>
    </g>
    <g id="ytick_6">
     <g id="line2d_25">
      <path d="M 34.239688 72.770677 
L 480.639687 72.770677 
" clip-path="url(#p7ba777b546)" style="fill: none; stroke: #374151; stroke-opacity: 0.1; stroke-width: 0.8; stroke-linecap: square"/>
     </g>
     <g id="line2d_26">
      <g>
       <use xlink:href="#m6be05dc06b" x="34.239688" y="72.770677" style="fill: #4b5563; stroke: #4b5563; stroke-width: 0.8"/>
      </g>
     </g>
     <g id="text_6">
      <!-- 112.5 -->
      <g style="fill: #4b5563" transform="translate(7.2 75.43013) scale(0.07 -0.07)">
       <use xlink:href="#DejaVuSans-31"/>
       <use xlink:href="#DejaVuSans-31" transform="translate(63.623047 0)"/>
       <use xlink:href="#DejaVuSans-32" transform="translate(127.246094 0)"/>
       <use xlink:href="#DejaVuSans-2e" transform="translate(190.869141 0)"/>
       <use xlink:href="#DejaVuSans-35" transform="translate(222.65625 0)"/>
      </g>
     </g>
    </g>
    <g id="ytick_7">
     <g id="line2d_27">
      <path d="M 34.239688 53.059015 
L 480.639687 53.059015 
" clip-path="url(#p7ba777b546)" style="fill: none; stroke: #374151; stroke-opacity: 0.1; stroke-width: 0.8; stroke-linecap: square"/>
     </g>
     <g id="line2d_28">
      <g>
       <use xlink:href="#m6be05dc06b" x="34.239688" y="53.059015" style="fill: #4b5563; stroke: #4b5563; stroke-width: 0.8"/>
      </g>
     </g>
     <g id="text_7">
      <!-- 115.0 -->
      <g style="fill: #4b5563" transform="translate(7.2 55.718468) scale(0.07 -0.07)">
       <use xlink:href="#DejaVuSans-31"/>
       <use xlink:href="#DejaVuSans-31" transform="translate(63.623047 0)"/>
       <use xlink:href="#DejaVuSans-35" transform="translate(127.246094 0)"/>
       <use xlink:href="#DejaVuSans-2e" transform="translate(190.869141 0)"/>
       <use xlink:href="#DejaVuSans-30" transform="translate(222.65625 0)"/>
      </g>
     </g>
    </g>
    <g id="ytick_8">
     <g id="line2d_29">
      <path d="M 34.239688 33.347353 
L 480.639687 33.347353 
" clip-path="url(#p7ba777b546)" style="fill: none; stroke: #374151; stroke-opacity: 0.1; stroke-width: 0.8; stroke-linecap: square"/>
     </g>
     <g id="line2d_30">
      <g>
       <use xlink:href="#m6be05dc06b" x="34.239688" y="33.347353" style="fill: #4b5563; stroke: #4b5563; stroke-width: 0.8"/>
      </g>
     </g>
     <g id="text_8">
      <!-- 117.5 -->
      <g style="fill: #4b5563" transform="translate(7.2 36.006807) scale(0.07 -0.07)">
       <use xlink:href="#DejaVuSans-31"/>
       <use xlink:href="#DejaVuSans-31" transform="translate(63.623047 0)"/>
       <use xlink:href="#DejaVuSans-37" transform="translate(127.246094 0)"/>
       <use xlink:href="#DejaVuSans-2e" transform="translate(190.869141 0)"/>
       <use xlink:href="#DejaVuSans-35" transform="translate(222.65625 0)"/>
      </g>
     </g>
    </g>
   </g>
   <g id="line2d_31">
    <path d="M 48.639688 179.686242 
L 48.639688 162.546101 
" clip-path="url(#p7ba777b546)" style="fill: none; stroke: #ef4444; stroke-width: 0.8; stroke-linecap: square"/>
   </g>
   <g id="line2d_32">
    <path d="M 63.039687 166.066774 
L 63.039687 140.281067 
" clip-path="url(#p7ba777b546)" style="fill: none; stroke: #ef4444; stroke-width: 0.8; stroke-linecap: square"/>
   </g>
   <g id="line2d_33">
    <path d="M 77.439687 165.900212 
L 77.439687 140.240171 
" clip-path="url(#p7ba777b546)" style="fill: none; stroke: #22c55e; stroke-width: 0.8; stroke-linecap: square"/>
   </g>
   <g id="line2d_34">
    <path d="M 91.839687 169.702073 
L 91.839687 151.565258 
" clip-path="url(#p7ba777b546)" style="fill: none; stroke: #22c55e; stroke-width: 0.8; stroke-linecap: square"/>
   </g>
   <g id="line2d_35">
    <path d="M 106.239688 156.954102 
L 106.239688 137.053738 
" clip-path="url(#p7ba777b546)" style="fill: none; stroke: #ef4444; stroke-width: 0.8; stroke-linecap: square"/>
   </g>
   <g id="line2d_36">
    <path d="M 120.639688 155.350763 
L 120.639688 132.646712 
" clip-path="url(#p7ba777b546)" style="fill: none; stroke: #22c55e; stroke-width: 0.8; stroke-linecap: square"/>
   </g>
   <g id="line2d_37">
    <path d="M 135.039687 159.050592 
L 135.039687 134.203469 
" clip-path="url(#p7ba777b546)" style="fill: none; stroke: #ef4444; stroke-width: 0.8; stroke-linecap: square"/>
   </g>
   <g id="line2d_38">
    <path d="M 149.439687 131.316729 
L 149.439687 111.490675 
" clip-path="url(#p7ba777b546)" style="fill: none; stroke: #22c55e; stroke-width: 0.8; stroke-linecap: square"/>
   </g>
   <g id="line2d_39">
    <path d="M 163.839687 119.371777 
L 163.839687 93.949904 
" clip-path="url(#p7ba777b546)" style="fill: none; stroke: #22c55e; stroke-width: 0.8; stroke-linecap: square"/>
   </g>
   <g id="line2d_40">
    <path d="M 178.239688 102.469389 
L 178.239688 80.953138 
" clip-path="url(#p7ba777b546)" style="fill: none; stroke: #ef4444; stroke-width: 0.8; stroke-linecap: square"/>
   </g>
   <g id="line2d_41">
    <path d="M 192.639688 95.166862 
L 192.639688 70.749659 
" clip-path="url(#p7ba777b546)" style="fill: none; stroke: #22c55e; stroke-width: 0.8; stroke-linecap: square"/>
   </g>
   <g id="line2d_42">
    <path d="M 207.039687 87.666505 
L 207.039687 62.05055 
" clip-path="url(#p7ba777b546)" style="fill: none; stroke: #ef4444; stroke-width: 0.8; stroke-linecap: square"/>
   </g>
   <g id="line2d_43">
    <path d="M 221.439687 68.862387 
L 221.439687 48.462658 
" clip-path="url(#p7ba777b546)" style="fill: none; stroke: #ef4444; stroke-width: 0.8; stroke-linecap: square"/>
   </g>
   <g id="line2d_44">
    <path d="M 235.839687 57.661121 
L 235.839687 32.174047 
" clip-path="url(#p7ba777b546)" style="fill: none; stroke: #ef4444; stroke-width: 0.8; stroke-linecap: square"/>
   </g>
   <g id="line2d_45">
    <path d="M 250.239687 66.358831 
L 250.239687 46.426896 
" clip-path="url(#p7ba777b546)" style="fill: none; stroke: #22c55e; stroke-width: 0.8; stroke-linecap: square"/>
   </g>
   <g id="line2d_46">
    <path d="M 264.639687 88.646075 
L 264.639687 72.270906 
" clip-path="url(#p7ba777b546)" style="fill: none; stroke: #ef4444; stroke-width: 0.8; stroke-linecap: square"/>
   </g>
   <g id="line2d_47">
    <path d="M 279.039687 99.460001 
L 279.039687 73.669043 
" clip-path="url(#p7ba777b546)" style="fill: none; stroke: #22c55e; stroke-width: 0.8; stroke-linecap: square"/>
   </g>
   <g id="line2d_48">
    <path d="M 293.439687 91.33375 
L 293.439687 64.405233 
" clip-path="url(#p7ba777b546)" style="fill: none; stroke: #ef4444; stroke-width: 0.8; stroke-linecap: square"/>
   </g>
   <g id="line2d_49">
    <path d="M 307.839687 94.758367 
L 307.839687 69.897216 
" clip-path="url(#p7ba777b546)" style="fill: none; stroke: #ef4444; stroke-width: 0.8; stroke-linecap: square"/>
   </g>
   <g id="line2d_50">
    <path d="M 322.239687 79.20393 
L 322.239687 65.451653 
" clip-path="url(#p7ba777b546)" style="fill: none; stroke: #ef4444; stroke-width: 0.8; stroke-linecap: square"/>
   </g>
   <g id="line2d_51">
    <path d="M 336.639687 102.147247 
L 336.639687 82.434612 
" clip-path="url(#p7ba777b546)" style="fill: none; stroke: #22c55e; stroke-width: 0.8; stroke-linecap: square"/>
   </g>
   <g id="line2d_52">
    <path d="M 351.039687 109.02688 
L 351.039687 92.378901 
" clip-path="url(#p7ba777b546)" style="fill: none; stroke: #22c55e; stroke-width: 0.8; stroke-linecap: square"/>
   </g>
   <g id="line2d_53">
    <path d="M 365.439687 112.886648 
L 365.439687 91.391636 
" clip-path="url(#p7ba777b546)" style="fill: none; stroke: #ef4444; stroke-width: 0.8; stroke-linecap: square"/>
   </g>
   <g id="line2d_54">
    <path d="M 379.839687 110.543895 
L 379.839687 88.243825 
" clip-path="url(#p7ba777b546)" style="fill: none; stroke: #22c55e; stroke-width: 0.8; stroke-linecap: square"/>
   </g>
   <g id="line2d_55">
    <path d="M 394.239687 89.698213 
L 394.239687 74.040515 
" clip-path="url(#p7ba777b546)" style="fill: none; stroke: #ef4444; stroke-width: 0.8; stroke-linecap: square"/>
   </g>
   <g id="line2d_56">
    <path d="M 408.639687 92.021866 
L 408.639687 69.210761 
" clip-path="url(#p7ba777b546)" style="fill: none; stroke: #22c55e; stroke-width: 0.8; stroke-linecap: square"/>
   </g>
   <g id="line2d_57">
    <path d="M 423.039687 86.629528 
L 423.039687 50.075004 
" clip-path="url(#p7ba777b546)" style="fill: none; stroke: #ef4444; stroke-width: 0.8; stroke-linecap: square"/>
   </g>
   <g id="line2d_58">
    <path d="M 437.439687 90.464456 
L 437.439687 61.774638 
" clip-path="url(#p7ba777b546)" style="fill: none; stroke: #22c55e; stroke-width: 0.8; stroke-linecap: square"/>
   </g>
   <g id="line2d_59">
    <path d="M 451.839687 75.592754 
L 451.839687 63.981987 
" clip-path="url(#p7ba777b546)" style="fill: none; stroke: #22c55e; stroke-width: 0.8; stroke-linecap: square"/>
   </g>
   <g id="line2d_60">
    <path d="M 466.239687 96.600811 
L 466.239687 80.029617 
" clip-path="url(#p7ba777b546)" style="fill: none; stroke: #ef4444; stroke-width: 0.8; stroke-linecap: square"/>
   </g>
   <g id="patch_33">
    <path d="M 34.239688 187.061852 
L 34.239688 24.798437 
" style="fill: none; stroke: #1f2937; stroke-width: 0.8; stroke-linejoin: miter; stroke-linecap: square"/>
   </g>
   <g id="patch_34">
    <path d="M 34.239688 187.061852 
L 480.639687 187.061852 
" style="fill: none; stroke: #1f2937; stroke-width: 0.8; stroke-linejoin: miter; stroke-linecap: square"/>
   </g>
   <g id="text_9">
    <!-- Broadening Formation — HD 4H -->
    <g style="fill: #ffffff" transform="translate(168.211562 14.798438) scale(0.1 -0.1)">
     <defs>
      <path id="DejaVuSans-Bold-42" d="M 2456 2859 
Q 2741 2859 2887 2984 
Q 3034 3109 3034 3353 
Q 3034 3594 2887 3720 
Q 2741 3847 2456 3847 
L 1791 3847 
L 1791 2859 
L 2456 2859 
z
M 2497 819 
Q 2859 819 3042 972 
Q 3225 1125 3225 1434 
Q 3225 1738 3044 1889 
Q 2863 2041 2497 2041 
L 1791 2041 
L 1791 819 
L 2497 819 
z
M 3616 2497 
Q 4003 2384 4215 2081 
Q 4428 1778 4428 1338 
Q 4428 663 3972 331 
Q 3516 0 2584 0 
L 588 0 
L 588 4666 
L 2394 4666 
Q 3366 4666 3802 4372 
Q 4238 4078 4238 3431 
Q 4238 3091 4078 2852 
Q 3919 2613 3616 2497 
z
" transform="scale(0.015625)"/>
      <path id="DejaVuSans-Bold-72" d="M 3138 2547 
Q 2991 2616 2845 2648 
Q 2700 2681 2553 2681 
Q 2122 2681 1889 2404 
Q 1656 2128 1656 1613 
L 1656 0 
L 538 0 
L 538 3500 
L 1656 3500 
L 1656 2925 
Q 1872 3269 2151 3426 
Q 2431 3584 2822 3584 
Q 2878 3584 2943 3579 
Q 3009 3575 3134 3559 
L 3138 2547 
z
" transform="scale(0.015625)"/>
      <path id="DejaVuSans-Bold-6f" d="M 2203 2784 
Q 1831 2784 1636 2517 
Q 1441 2250 1441 1747 
Q 1441 1244 1636 976 
Q 1831 709 2203 709 
Q 2569 709 2762 976 
Q 2956 1244 2956 1747 
Q 2956 2250 2762 2517 
Q 2569 2784 2203 2784 
z
M 2203 3584 
Q 3106 3584 3614 3096 
Q 4122 2609 4122 1747 
Q 4122 884 3614 396 
Q 3106 -91 2203 -91 
Q 1297 -91 786 396 
Q 275 884 275 1747 
Q 275 2609 786 3096 
Q 1297 3584 2203 3584 
z
" transform="scale(0.015625)"/>
      <path id="DejaVuSans-Bold-61" d="M 2106 1575 
Q 1756 1575 1579 1456 
Q 1403 1338 1403 1106 
Q 1403 894 1545 773 
Q 1688 653 1941 653 
Q 2256 653 2472 879 
Q 2688 1106 2688 1447 
L 2688 1575 
L 2106 1575 
z
M 3816 1997 
L 3816 0 
L 2688 0 
L 2688 519 
Q 2463 200 2181 54 
Q 1900 -91 1497 -91 
Q 953 -91 614 226 
Q 275 544 275 1050 
Q 275 1666 698 1953 
Q 1122 2241 2028 2241 
L 2688 2241 
L 2688 2328 
Q 2688 2594 2478 2717 
Q 2269 2841 1825 2841 
Q 1466 2841 1156 2769 
Q 847 2697 581 2553 
L 581 3406 
Q 941 3494 1303 3539 
Q 1666 3584 2028 3584 
Q 2975 3584 3395 3211 
Q 3816 2838 3816 1997 
z
" transform="scale(0.015625)"/>
      <path id="DejaVuSans-Bold-64" d="M 2919 2988 
L 2919 4863 
L 4044 4863 
L 4044 0 
L 2919 0 
L 2919 506 
Q 2688 197 2409 53 
Q 2131 -91 1766 -91 
Q 1119 -91 703 423 
Q 288 938 288 1747 
Q 288 2556 703 3070 
Q 1119 3584 1766 3584 
Q 2128 3584 2408 3439 
Q 2688 3294 2919 2988 
z
M 2181 722 
Q 2541 722 2730 984 
Q 2919 1247 2919 1747 
Q 2919 2247 2730 2509 
Q 2541 2772 2181 2772 
Q 1825 2772 1636 2509 
Q 1447 2247 1447 1747 
Q 1447 1247 1636 984 
Q 1825 722 2181 722 
z
" transform="scale(0.015625)"/>
      <path id="DejaVuSans-Bold-65" d="M 4031 1759 
L 4031 1441 
L 1416 1441 
Q 1456 1047 1700 850 
Q 1944 653 2381 653 
Q 2734 653 3104 758 
Q 3475 863 3866 1075 
L 3866 213 
Q 3469 63 3072 -14 
Q 2675 -91 2278 -91 
Q 1328 -91 801 392 
Q 275 875 275 1747 
Q 275 2603 792 3093 
Q 1309 3584 2216 3584 
Q 3041 3584 3536 3087 
Q 4031 2591 4031 1759 
z
M 2881 2131 
Q 2881 2450 2695 2645 
Q 2509 2841 2209 2841 
Q 1884 2841 1681 2658 
Q 1478 2475 1428 2131 
L 2881 2131 
z
" transform="scale(0.015625)"/>
      <path id="DejaVuSans-Bold-6e" d="M 4056 2131 
L 4056 0 
L 2931 0 
L 2931 347 
L 2931 1631 
Q 2931 2084 2911 2256 
Q 2891 2428 2841 2509 
Q 2775 2619 2662 2680 
Q 2550 2741 2406 2741 
Q 2056 2741 1856 2470 
Q 1656 2200 1656 1722 
L 1656 0 
L 538 0 
L 538 3500 
L 1656 3500 
L 1656 2988 
Q 1909 3294 2193 3439 
Q 2478 3584 2822 3584 
Q 3428 3584 3742 3212 
Q 4056 2841 4056 2131 
z
" transform="scale(0.015625)"/>
      <path id="DejaVuSans-Bold-69" d="M 538 3500 
L 1656 3500 
L 1656 0 
L 538 0 
L 538 3500 
z
M 538 4863 
L 1656 4863 
L 1656 3950 
L 538 3950 
L 538 4863 
z
" transform="scale(0.015625)"/>
      <path id="DejaVuSans-Bold-67" d="M 2919 594 
Q 2688 288 2409 144 
Q 2131 0 1766 0 
Q 1125 0 706 504 
Q 288 1009 288 1791 
Q 288 2575 706 3076 
Q 1125 3578 1766 3578 
Q 2131 3578 2409 3434 
Q 2688 3291 2919 2981 
L 2919 3500 
L 4044 3500 
L 4044 353 
Q 4044 -491 3511 -936 
Q 2978 -1381 1966 -1381 
Q 1638 -1381 1331 -1331 
Q 1025 -1281 716 -1178 
L 716 -306 
Q 1009 -475 1290 -558 
Q 1572 -641 1856 -641 
Q 2406 -641 2662 -400 
Q 2919 -159 2919 353 
L 2919 594 
z
M 2181 2772 
Q 1834 2772 1640 2515 
Q 1447 2259 1447 1791 
Q 1447 1309 1634 1061 
Q 1822 813 2181 813 
Q 2531 813 2725 1069 
Q 2919 1325 2919 1791 
Q 2919 2259 2725 2515 
Q 2531 2772 2181 2772 
z
" transform="scale(0.015625)"/>
      <path id="DejaVuSans-Bold-20" transform="scale(0.015625)"/>
      <path id="DejaVuSans-Bold-46" d="M 588 4666 
L 3834 4666 
L 3834 3756 
L 1791 3756 
L 1791 2888 
L 3713 2888 
L 3713 1978 
L 1791 1978 
L 1791 0 
L 588 0 
L 588 4666 
z
" transform="scale(0.015625)"/>
      <path id="DejaVuSans-Bold-6d" d="M 3781 2919 
Q 3994 3244 4286 3414 
Q 4578 3584 4928 3584 
Q 5531 3584 5847 3212 
Q 6163 2841 6163 2131 
L 6163 0 
L 5038 0 
L 5038 1825 
Q 5041 1866 5042 1909 
Q 5044 1953 5044 2034 
Q 5044 2406 4934 2573 
Q 4825 2741 4581 2741 
Q 4263 2741 4089 2478 
Q 3916 2216 3909 1719 
L 3909 0 
L 2784 0 
L 2784 1825 
Q 2784 2406 2684 2573 
Q 2584 2741 2328 2741 
Q 2006 2741 1831 2477 
Q 1656 2213 1656 1722 
L 1656 0 
L 531 0 
L 531 3500 
L 1656 3500 
L 1656 2988 
Q 1863 3284 2130 3434 
Q 2397 3584 2719 3584 
Q 3081 3584 3359 3409 
Q 3638 3234 3781 2919 
z
" transform="scale(0.015625)"/>
      <path id="DejaVuSans-Bold-74" d="M 1759 4494 
L 1759 3500 
L 2913 3500 
L 2913 2700 
L 1759 2700 
L 1759 1216 
Q 1759 972 1856 886 
Q 1953 800 2241 800 
L 2816 800 
L 2816 0 
L 1856 0 
Q 1194 0 917 276 
Q 641 553 641 1216 
L 641 2700 
L 84 2700 
L 84 3500 
L 641 3500 
L 641 4494 
L 1759 4494 
z
" transform="scale(0.015625)"/>
      <path id="DejaVuSans-Bold-2014" d="M 344 2156 
L 6056 2156 
L 6056 1350 
L 344 1350 
L 344 2156 
z
" transform="scale(0.015625)"/>
      <path id="DejaVuSans-Bold-48" d="M 588 4666 
L 1791 4666 
L 1791 2888 
L 3566 2888 
L 3566 4666 
L 4769 4666 
L 4769 0 
L 3566 0 
L 3566 1978 
L 1791 1978 
L 1791 0 
L 588 0 
L 588 4666 
z
" transform="scale(0.015625)"/>
      <path id="DejaVuSans-Bold-44" d="M 1791 3756 
L 1791 909 
L 2222 909 
Q 2959 909 3348 1275 
Q 3738 1641 3738 2338 
Q 3738 3031 3350 3393 
Q 2963 3756 2222 3756 
L 1791 3756 
z
M 588 4666 
L 1856 4666 
Q 2919 4666 3439 4514 
Q 3959 4363 4331 4000 
Q 4659 3684 4818 3271 
Q 4978 2859 4978 2338 
Q 4978 1809 4818 1395 
Q 4659 981 4331 666 
Q 3956 303 3431 151 
Q 2906 0 1856 0 
L 588 0 
L 588 4666 
z
" transform="scale(0.015625)"/>
      <path id="DejaVuSans-Bold-34" d="M 2356 3675 
L 1038 1722 
L 2356 1722 
L 2356 3675 
z
M 2156 4666 
L 3494 4666 
L 3494 1722 
L 4159 1722 
L 4159 850 
L 3494 850 
L 3494 0 
L 2356 0 
L 2356 850 
L 288 850 
L 288 1881 
L 2156 4666 
z
" transform="scale(0.015625)"/>
     </defs>
     <use xlink:href="#DejaVuSans-Bold-42"/>
     <use xlink:href="#DejaVuSans-Bold-72" transform="translate(76.220703 0)"/>
     <use xlink:href="#DejaVuSans-Bold-6f" transform="translate(125.537109 0)"/>
     <use xlink:href="#DejaVuSans-Bold-61" transform="translate(194.238281 0)"/>
     <use xlink:href="#DejaVuSans-Bold-64" transform="translate(261.71875 0)"/>
     <use xlink:href="#DejaVuSans-Bold-65" transform="translate(333.300781 0)"/>
     <use xlink:href="#DejaVuSans-Bold-6e" transform="translate(401.123047 0)"/>
     <use xlink:href="#DejaVuSans-Bold-69" transform="translate(472.314453 0)"/>
     <use xlink:href="#DejaVuSans-Bold-6e" transform="translate(506.591797 0)"/>
     <use xlink:href="#DejaVuSans-Bold-67" transform="translate(577.783203 0)"/>
     <use xlink:href="#DejaVuSans-Bold-20" transform="translate(649.365234 0)"/>
     <use xlink:href="#DejaVuSans-Bold-46" transform="translate(684.179688 0)"/>
     <use xlink:href="#DejaVuSans-Bold-6f" transform="translate(748.490234 0)"/>
     <use xlink:href="#DejaVuSans-Bold-72" transform="translate(817.191406 0)"/>
     <use xlink:href="#DejaVuSans-Bold-6d" transform="translate(866.507812 0)"/>
     <use xlink:href="#DejaVuSans-Bold-61" transform="translate(970.707031 0)"/>
     <use xlink:href="#DejaVuSans-Bold-74" transform="translate(1038.1875 0)"/>
     <use xlink:href="#DejaVuSans-Bold-69" transform="translate(1085.990234 0)"/>
     <use xlink:href="#DejaVuSans-Bold-6f" transform="translate(1120.267578 0)"/>
     <use xlink:href="#DejaVuSans-Bold-6e" transform="translate(1188.96875 0)"/>
     <use xlink:href="#DejaVuSans-Bold-20" transform="translate(1260.160156 0)"/>
     <use xlink:href="#DejaVuSans-Bold-2014" transform="translate(1294.974609 0)"/>
     <use xlink:href="#DejaVuSans-Bold-20" transform="translate(1394.974609 0)"/>
     <use xlink:href="#DejaVuSans-Bold-48" transform="translate(1429.789062 0)"/>
     <use xlink:href="#DejaVuSans-Bold-44" transform="translate(1513.480469 0)"/>
     <use xlink:href="#DejaVuSans-Bold-20" transform="translate(1596.488281 0)"/>
     <use xlink:href="#DejaVuSans-Bold-34" transform="translate(1631.302734 0)"/>
     <use xlink:href="#DejaVuSans-Bold-48" transform="translate(1700.882812 0)"/>
    </g>
   </g>
  </g>
  <g id="axes_2">
   <g id="patch_35">
    <path d="M 34.239688 246.558438 
L 480.639687 246.558438 
L 480.639687 192.470633 
L 34.239688 192.470633 
z
" style="fill: #0a0f1a"/>
   </g>
   <g id="patch_36">
    <path d="M 54.530597 246.558438 
L 64.095335 246.558438 
L 64.095335 213.26381 
L 54.530597 213.26381 
z
" clip-path="url(#p7ec6df5632)" style="fill: #ef4444; fill-opacity: 0.533333"/>
   </g>
   <g id="patch_37">
    <path d="M 68.194508 246.558438 
L 77.759247 246.558438 
L 77.759247 216.912562 
L 68.194508 216.912562 
z
" clip-path="url(#p7ec6df5632)" style="fill: #ef4444; fill-opacity: 0.533333"/>
   </g>
   <g id="patch_38">
    <path d="M 81.85842 246.558438 
L 91.423159 246.558438 
L 91.423159 210.348424 
L 81.85842 210.348424 
z
" clip-path="url(#p7ec6df5632)" style="fill: #22c55e; fill-opacity: 0.533333"/>
   </g>
   <g id="patch_39">
    <path d="M 95.522332 246.558438 
L 105.08707 246.558438 
L 105.08707 197.879954 
L 95.522332 197.879954 
z
" clip-path="url(#p7ec6df5632)" style="fill: #22c55e; fill-opacity: 0.533333"/>
   </g>
   <g id="patch_40">
    <path d="M 109.186244 246.558438 
L 118.750982 246.558438 
L 118.750982 202.260209 
L 109.186244 202.260209 
z
" clip-path="url(#p7ec6df5632)" style="fill: #ef4444; fill-opacity: 0.533333"/>
   </g>
   <g id="patch_41">
    <path d="M 122.850156 246.558438 
L 132.414894 246.558438 
L 132.414894 208.135879 
L 122.850156 208.135879 
z
" clip-path="url(#p7ec6df5632)" style="fill: #22c55e; fill-opacity: 0.533333"/>
   </g>
   <g id="patch_42">
    <path d="M 136.514068 246.558438 
L 146.078806 246.558438 
L 146.078806 196.192943 
L 136.514068 196.192943 
z
" clip-path="url(#p7ec6df5632)" style="fill: #ef4444; fill-opacity: 0.533333"/>
   </g>
   <g id="patch_43">
    <path d="M 150.17798 246.558438 
L 159.742718 246.558438 
L 159.742718 202.987253 
L 150.17798 202.987253 
z
" clip-path="url(#p7ec6df5632)" style="fill: #22c55e; fill-opacity: 0.533333"/>
   </g>
   <g id="patch_44">
    <path d="M 163.841891 246.558438 
L 173.40663 246.558438 
L 173.40663 200.311724 
L 163.841891 200.311724 
z
" clip-path="url(#p7ec6df5632)" style="fill: #22c55e; fill-opacity: 0.533333"/>
   </g>
   <g id="patch_45">
    <path d="M 177.505803 246.558438 
L 187.070541 246.558438 
L 187.070541 212.685534 
L 177.505803 212.685534 
z
" clip-path="url(#p7ec6df5632)" style="fill: #ef4444; fill-opacity: 0.533333"/>
   </g>
   <g id="patch_46">
    <path d="M 191.169715 246.558438 
L 200.734453 246.558438 
L 200.734453 200.904 
L 191.169715 200.904 
z
" clip-path="url(#p7ec6df5632)" style="fill: #22c55e; fill-opacity: 0.533333"/>
   </g>
   <g id="patch_47">
    <path d="M 204.833627 246.558438 
L 214.398365 246.558438 
L 214.398365 195.128226 
L 204.833627 195.128226 
z
" clip-path="url(#p7ec6df5632)" style="fill: #ef4444; fill-opacity: 0.533333"/>
   </g>
   <g id="patch_48">
    <path d="M 218.497539 246.558438 
L 228.062277 246.558438 
L 228.062277 219.399681 
L 218.497539 219.399681 
z
" clip-path="url(#p7ec6df5632)" style="fill: #ef4444; fill-opacity: 0.533333"/>
   </g>
   <g id="patch_49">
    <path d="M 232.161451 246.558438 
L 241.726189 246.558438 
L 241.726189 212.261107 
L 232.161451 212.261107 
z
" clip-path="url(#p7ec6df5632)" style="fill: #ef4444; fill-opacity: 0.533333"/>
   </g>
   <g id="patch_50">
    <path d="M 245.825362 246.558438 
L 255.390101 246.558438 
L 255.390101 195.471229 
L 245.825362 195.471229 
z
" clip-path="url(#p7ec6df5632)" style="fill: #22c55e; fill-opacity: 0.533333"/>
   </g>
   <g id="patch_51">
    <path d="M 259.489274 246.558438 
L 269.054013 246.558438 
L 269.054013 225.991612 
L 259.489274 225.991612 
z
" clip-path="url(#p7ec6df5632)" style="fill: #ef4444; fill-opacity: 0.533333"/>
   </g>
   <g id="patch_52">
    <path d="M 273.153186 246.558438 
L 282.717924 246.558438 
L 282.717924 226.734249 
L 273.153186 226.734249 
z
" clip-path="url(#p7ec6df5632)" style="fill: #22c55e; fill-opacity: 0.533333"/>
   </g>
   <g id="patch_53">
    <path d="M 286.817098 246.558438 
L 296.381836 246.558438 
L 296.381836 210.85466 
L 286.817098 210.85466 
z
" clip-path="url(#p7ec6df5632)" style="fill: #ef4444; fill-opacity: 0.533333"/>
   </g>
   <g id="patch_54">
    <path d="M 300.48101 246.558438 
L 310.045748 246.558438 
L 310.045748 228.445701 
L 300.48101 228.445701 
z
" clip-path="url(#p7ec6df5632)" style="fill: #ef4444; fill-opacity: 0.533333"/>
   </g>
   <g id="patch_55">
    <path d="M 314.144922 246.558438 
L 323.70966 246.558438 
L 323.70966 195.046242 
L 314.144922 195.046242 
z
" clip-path="url(#p7ec6df5632)" style="fill: #ef4444; fill-opacity: 0.533333"/>
   </g>
   <g id="patch_56">
    <path d="M 327.808834 246.558438 
L 337.373572 246.558438 
L 337.373572 199.351694 
L 327.808834 199.351694 
z
" clip-path="url(#p7ec6df5632)" style="fill: #22c55e; fill-opacity: 0.533333"/>
   </g>
   <g id="patch_57">
    <path d="M 341.472745 246.558438 
L 351.037484 246.558438 
L 351.037484 204.820424 
L 341.472745 204.820424 
z
" clip-path="url(#p7ec6df5632)" style="fill: #22c55e; fill-opacity: 0.533333"/>
   </g>
   <g id="patch_58">
    <path d="M 355.136657 246.558438 
L 364.701395 246.558438 
L 364.701395 221.946102 
L 355.136657 221.946102 
z
" clip-path="url(#p7ec6df5632)" style="fill: #ef4444; fill-opacity: 0.533333"/>
   </g>
   <g id="patch_59">
    <path d="M 368.800569 246.558438 
L 378.365307 246.558438 
L 378.365307 233.276408 
L 368.800569 233.276408 
z
" clip-path="url(#p7ec6df5632)" style="fill: #22c55e; fill-opacity: 0.533333"/>
   </g>
   <g id="patch_60">
    <path d="M 382.464481 246.558438 
L 392.029219 246.558438 
L 392.029219 222.856184 
L 382.464481 222.856184 
z
" clip-path="url(#p7ec6df5632)" style="fill: #ef4444; fill-opacity: 0.533333"/>
   </g>
   <g id="patch_61">
    <path d="M 396.128393 246.558438 
L 405.693131 246.558438 
L 405.693131 219.669401 
L 396.128393 219.669401 
z
" clip-path="url(#p7ec6df5632)" style="fill: #22c55e; fill-opacity: 0.533333"/>
   </g>
   <g id="patch_62">
    <path d="M 409.792305 246.558438 
L 419.357043 246.558438 
L 419.357043 223.800951 
L 409.792305 223.800951 
z
" clip-path="url(#p7ec6df5632)" style="fill: #ef4444; fill-opacity: 0.533333"/>
   </g>
   <g id="patch_63">
    <path d="M 423.456216 246.558438 
L 433.020955 246.558438 
L 433.020955 196.237624 
L 423.456216 196.237624 
z
" clip-path="url(#p7ec6df5632)" style="fill: #22c55e; fill-opacity: 0.533333"/>
   </g>
   <g id="patch_64">
    <path d="M 437.120128 246.558438 
L 446.684867 246.558438 
L 446.684867 225.444627 
L 437.120128 225.444627 
z
" clip-path="url(#p7ec6df5632)" style="fill: #22c55e; fill-opacity: 0.533333"/>
   </g>
   <g id="patch_65">
    <path d="M 450.78404 246.558438 
L 460.348778 246.558438 
L 460.348778 215.175582 
L 450.78404 215.175582 
z
" clip-path="url(#p7ec6df5632)" style="fill: #ef4444; fill-opacity: 0.533333"/>
   </g>
   <g id="matplotlib.axis_3">
    <g id="xtick_8">
     <g id="line2d_61">
      <path d="M 59.312966 246.558438 
L 59.312966 192.470633 
" clip-path="url(#p7ec6df5632)" style="fill: none; stroke: #374151; stroke-opacity: 0.1; stroke-width: 0.8; stroke-linecap: square"/>
     </g>
     <g id="line2d_62">
      <g>
       <use xlink:href="#m834819041e" x="59.312966" y="246.558438" style="fill: #4b5563; stroke: #4b5563; stroke-width: 0.8"/>
      </g>
     </g>
     <g id="text_10">
      <!-- 0 -->
      <g style="fill: #4b5563" transform="translate(57.086091 258.877344) scale(0.07 -0.07)">
       <use xlink:href="#DejaVuSans-30"/>
      </g>
     </g>
    </g>
    <g id="xtick_9">
     <g id="line2d_63">
      <path d="M 127.632525 246.558438 
L 127.632525 192.470633 
" clip-path="url(#p7ec6df5632)" style="fill: none; stroke: #374151; stroke-opacity: 0.1; stroke-width: 0.8; stroke-linecap: square"/>
     </g>
     <g id="line2d_64">
      <g>
       <use xlink:href="#m834819041e" x="127.632525" y="246.558438" style="fill: #4b5563; stroke: #4b5563; stroke-width: 0.8"/>
      </g>
     </g>
     <g id="text_11">
      <!-- 5 -->
      <g style="fill: #4b5563" transform="translate(125.40565 258.877344) scale(0.07 -0.07)">
       <use xlink:href="#DejaVuSans-35"/>
      </g>
     </g>
    </g>
    <g id="xtick_10">
     <g id="line2d_65">
      <path d="M 195.952084 246.558438 
L 195.952084 192.470633 
" clip-path="url(#p7ec6df5632)" style="fill: none; stroke: #374151; stroke-opacity: 0.1; stroke-width: 0.8; stroke-linecap: square"/>
     </g>
     <g id="line2d_66">
      <g>
       <use xlink:href="#m834819041e" x="195.952084" y="246.558438" style="fill: #4b5563; stroke: #4b5563; stroke-width: 0.8"/>
      </g>
     </g>
     <g id="text_12">
      <!-- 10 -->
      <g style="fill: #4b5563" transform="translate(191.498334 258.877344) scale(0.07 -0.07)">
       <use xlink:href="#DejaVuSans-31"/>
       <use xlink:href="#DejaVuSans-30" transform="translate(63.623047 0)"/>
      </g>
     </g>
    </g>
    <g id="xtick_11">
     <g id="line2d_67">
      <path d="M 264.271643 246.558438 
L 264.271643 192.470633 
" clip-path="url(#p7ec6df5632)" style="fill: none; stroke: #374151; stroke-opacity: 0.1; stroke-width: 0.8; stroke-linecap: square"/>
     </g>
     <g id="line2d_68">
      <g>
       <use xlink:href="#m834819041e" x="264.271643" y="246.558438" style="fill: #4b5563; stroke: #4b5563; stroke-width: 0.8"/>
      </g>
     </g>
     <g id="text_13">
      <!-- 15 -->
      <g style="fill: #4b5563" transform="translate(259.817893 258.877344) scale(0.07 -0.07)">
       <use xlink:href="#DejaVuSans-31"/>
       <use xlink:href="#DejaVuSans-35" transform="translate(63.623047 0)"/>
      </g>
     </g>
    </g>
    <g id="xtick_12">
     <g id="line2d_69">
      <path d="M 332.591203 246.558438 
L 332.591203 192.470633 
" clip-path="url(#p7ec6df5632)" style="fill: none; stroke: #374151; stroke-opacity: 0.1; stroke-width: 0.8; stroke-linecap: square"/>
     </g>
     <g id="line2d_70">
      <g>
       <use xlink:href="#m834819041e" x="332.591203" y="246.558438" style="fill: #4b5563; stroke: #4b5563; stroke-width: 0.8"/>
      </g>
     </g>
     <g id="text_14">
      <!-- 20 -->
      <g style="fill: #4b5563" transform="translate(328.137453 258.877344) scale(0.07 -0.07)">
       <use xlink:href="#DejaVuSans-32"/>
       <use xlink:href="#DejaVuSans-30" transform="translate(63.623047 0)"/>
      </g>
     </g>
    </g>
    <g id="xtick_13">
     <g id="line2d_71">
      <path d="M 400.910762 246.558438 
L 400.910762 192.470633 
" clip-path="url(#p7ec6df5632)" style="fill: none; stroke: #374151; stroke-opacity: 0.1; stroke-width: 0.8; stroke-linecap: square"/>
     </g>
     <g id="line2d_72">
      <g>
       <use xlink:href="#m834819041e" x="400.910762" y="246.558438" style="fill: #4b5563; stroke: #4b5563; stroke-width: 0.8"/>
      </g>
     </g>
     <g id="text_15">
      <!-- 25 -->
      <g style="fill: #4b5563" transform="translate(396.457012 258.877344) scale(0.07 -0.07)">
       <use xlink:href="#DejaVuSans-32"/>
       <use xlink:href="#DejaVuSans-35" transform="translate(63.623047 0)"/>
      </g>
     </g>
    </g>
    <g id="xtick_14">
     <g id="line2d_73">
      <path d="M 469.230321 246.558438 
L 469.230321 192.470633 
" clip-path="url(#p7ec6df5632)" style="fill: none; stroke: #374151; stroke-opacity: 0.1; stroke-width: 0.8; stroke-linecap: square"/>
     </g>
     <g id="line2d_74">
      <g>
       <use xlink:href="#m834819041e" x="469.230321" y="246.558438" style="fill: #4b5563; stroke: #4b5563; stroke-width: 0.8"/>
      </g>
     </g>
     <g id="text_16">
      <!-- 30 -->
      <g style="fill: #4b5563" transform="translate(464.776571 258.877344) scale(0.07 -0.07)">
       <defs>
        <path id="DejaVuSans-33" d="M 2597 2516 
Q 3050 2419 3304 2112 
Q 3559 1806 3559 1356 
Q 3559 666 3084 287 
Q 2609 -91 1734 -91 
Q 1441 -91 1130 -33 
Q 819 25 488 141 
L 488 750 
Q 750 597 1062 519 
Q 1375 441 1716 441 
Q 2309 441 2620 675 
Q 2931 909 2931 1356 
Q 2931 1769 2642 2001 
Q 2353 2234 1838 2234 
L 1294 2234 
L 1294 2753 
L 1863 2753 
Q 2328 2753 2575 2939 
Q 2822 3125 2822 3475 
Q 2822 3834 2567 4026 
Q 2313 4219 1838 4219 
Q 1578 4219 1281 4162 
Q 984 4106 628 3988 
L 628 4550 
Q 988 4650 1302 4700 
Q 1616 4750 1894 4750 
Q 2613 4750 3031 4423 
Q 3450 4097 3450 3541 
Q 3450 3153 3228 2886 
Q 3006 2619 2597 2516 
z
" transform="scale(0.015625)"/>
       </defs>
       <use xlink:href="#DejaVuSans-33"/>
       <use xlink:href="#DejaVuSans-30" transform="translate(63.623047 0)"/>
      </g>
     </g>
    </g>
   </g>
   <g id="matplotlib.axis_4">
    <g id="ytick_9">
     <g id="line2d_75">
      <path d="M 34.239688 246.558438 
L 480.639687 246.558438 
" clip-path="url(#p7ec6df5632)" style="fill: none; stroke: #374151; stroke-opacity: 0.1; stroke-width: 0.8; stroke-linecap: square"/>
     </g>
     <g id="line2d_76">
      <g>
       <use xlink:href="#m6be05dc06b" x="34.239688" y="246.558438" style="fill: #4b5563; stroke: #4b5563; stroke-width: 0.8"/>
      </g>
     </g>
     <g id="text_17">
      <!-- 0 -->
      <g style="fill: #4b5563" transform="translate(22.785938 249.217891) scale(0.07 -0.07)">
       <use xlink:href="#DejaVuSans-30"/>
      </g>
     </g>
    </g>
    <g id="ytick_10">
     <g id="line2d_77">
      <path d="M 34.239688 225.863229 
L 480.639687 225.863229 
" clip-path="url(#p7ec6df5632)" style="fill: none; stroke: #374151; stroke-opacity: 0.1; stroke-width: 0.8; stroke-linecap: square"/>
     </g>
     <g id="line2d_78">
      <g>
       <use xlink:href="#m6be05dc06b" x="34.239688" y="225.863229" style="fill: #4b5563; stroke: #4b5563; stroke-width: 0.8"/>
      </g>
     </g>
     <g id="text_18">
      <!-- 2 -->
      <g style="fill: #4b5563" transform="translate(22.785938 228.522682) scale(0.07 -0.07)">
       <use xlink:href="#DejaVuSans-32"/>
      </g>
     </g>
    </g>
    <g id="ytick_11">
     <g id="line2d_79">
      <path d="M 34.239688 205.168021 
L 480.639687 205.168021 
" clip-path="url(#p7ec6df5632)" style="fill: none; stroke: #374151; stroke-opacity: 0.1; stroke-width: 0.8; stroke-linecap: square"/>
     </g>
     <g id="line2d_80">
      <g>
       <use xlink:href="#m6be05dc06b" x="34.239688" y="205.168021" style="fill: #4b5563; stroke: #4b5563; stroke-width: 0.8"/>
      </g>
     </g>
     <g id="text_19">
      <!-- 4 -->
      <g style="fill: #4b5563" transform="translate(22.785938 207.827474) scale(0.07 -0.07)">
       <defs>
        <path id="DejaVuSans-34" d="M 2419 4116 
L 825 1625 
L 2419 1625 
L 2419 4116 
z
M 2253 4666 
L 3047 4666 
L 3047 1625 
L 3713 1625 
L 3713 1100 
L 3047 1100 
L 3047 0 
L 2419 0 
L 2419 1100 
L 313 1100 
L 313 1709 
L 2253 4666 
z
" transform="scale(0.015625)"/>
       </defs>
       <use xlink:href="#DejaVuSans-34"/>
      </g>
     </g>
    </g>
    <g id="text_20">
     <!-- Vol -->
     <g style="fill: #4b5563" transform="translate(17.330156 224.75141) rotate(-90) scale(0.07 -0.07)">
      <defs>
       <path id="DejaVuSans-56" d="M 1831 0 
L 50 4666 
L 709 4666 
L 2188 738 
L 3669 4666 
L 4325 4666 
L 2547 0 
L 1831 0 
z
" transform="scale(0.015625)"/>
       <path id="DejaVuSans-6f" d="M 1959 3097 
Q 1497 3097 1228 2736 
Q 959 2375 959 1747 
Q 959 1119 1226 758 
Q 1494 397 1959 397 
Q 2419 397 2687 759 
Q 2956 1122 2956 1747 
Q 2956 2369 2687 2733 
Q 2419 3097 1959 3097 
z
M 1959 3584 
Q 2709 3584 3137 3096 
Q 3566 2609 3566 1747 
Q 3566 888 3137 398 
Q 2709 -91 1959 -91 
Q 1206 -91 779 398 
Q 353 888 353 1747 
Q 353 2609 779 3096 
Q 1206 3584 1959 3584 
z
" transform="scale(0.015625)"/>
       <path id="DejaVuSans-6c" d="M 603 4863 
L 1178 4863 
L 1178 0 
L 603 0 
L 603 4863 
z
" transform="scale(0.015625)"/>
      </defs>
      <use xlink:href="#DejaVuSans-56"/>
      <use xlink:href="#DejaVuSans-6f" transform="translate(60.658203 0)"/>
      <use xlink:href="#DejaVuSans-6c" transform="translate(121.839844 0)"/>
     </g>
    </g>
    <g id="text_21">
     <!-- 1e6 -->
     <g style="fill: #4b5563" transform="translate(34.239688 189.470633) scale(0.1 -0.1)">
      <defs>
       <path id="DejaVuSans-65" d="M 3597 1894 
L 3597 1613 
L 953 1613 
Q 991 1019 1311 708 
Q 1631 397 2203 397 
Q 2534 397 2845 478 
Q 3156 559 3463 722 
L 3463 178 
Q 3153 47 2828 -22 
Q 2503 -91 2169 -91 
Q 1331 -91 842 396 
Q 353 884 353 1716 
Q 353 2575 817 3079 
Q 1281 3584 2069 3584 
Q 2775 3584 3186 3129 
Q 3597 2675 3597 1894 
z
M 3022 2063 
Q 3016 2534 2758 2815 
Q 2500 3097 2075 3097 
Q 1594 3097 1305 2825 
Q 1016 2553 972 2059 
L 3022 2063 
z
" transform="scale(0.015625)"/>
       <path id="DejaVuSans-36" d="M 2113 2584 
Q 1688 2584 1439 2293 
Q 1191 2003 1191 1497 
Q 1191 994 1439 701 
Q 1688 409 2113 409 
Q 2538 409 2786 701 
Q 3034 994 3034 1497 
Q 3034 2003 2786 2293 
Q 2538 2584 2113 2584 
z
M 3366 4563 
L 3366 3988 
Q 3128 4100 2886 4159 
Q 2644 4219 2406 4219 
Q 1781 4219 1451 3797 
Q 1122 3375 1075 2522 
Q 1259 2794 1537 2939 
Q 1816 3084 2150 3084 
Q 2853 3084 3261 2657 
Q 3669 2231 3669 1497 
Q 3669 778 3244 343 
Q 2819 -91 2113 -91 
Q 1303 -91 875 529 
Q 447 1150 447 2328 
Q 447 3434 972 4092 
Q 1497 4750 2381 4750 
Q 2619 4750 2861 4703 
Q 3103 4656 3366 4563 
z
" transform="scale(0.015625)"/>
      </defs>
      <use xlink:href="#DejaVuSans-31"/>
      <use xlink:href="#DejaVuSans-65" transform="translate(63.623047 0)"/>
      <use xlink:href="#DejaVuSans-36" transform="translate(125.146484 0)"/>
     </g>
    </g>
   </g>
   <g id="patch_66">
    <path d="M 34.239688 246.558438 
L 34.239688 192.470633 
" style="fill: none; stroke: #1f2937; stroke-width: 0.8; stroke-linejoin: miter; stroke-linecap: square"/>
   </g>
   <g id="patch_67">
    <path d="M 34.239688 246.558438 
L 480.639688 246.558438 
" style="fill: none; stroke: #1f2937; stroke-width: 0.8; stroke-linejoin: miter; stroke-linecap: square"/>
   </g>
  </g>
 </g>
 <defs>
  <clipPath id="p7ba777b546">
   <rect x="34.239688" y="24.798438" width="446.4" height="162.263415"/>
  </clipPath>
  <clipPath id="p7ec6df5632">
   <rect x="34.239688" y="192.470633" width="446.4" height="54.087805"/>
  </clipPath>
 </defs>
</svg>
