<?xml version="1.0" encoding="utf-8" standalone="no"?>
<!DOCTYPE svg PUBLIC "-//W3C//DTD SVG 1.1//EN"
  "http://www.w3.org/Graphics/SVG/1.1/DTD/svg11.dtd">
<svg xmlns:xlink="http://www.w3.org/1999/xlink" width="483.028437pt" height="267.533125pt" viewBox="0 0 483.028437 267.533125" xmlns="http://www.w3.org/2000/svg" version="1.1">
 <metadata>
  <rdf:RDF xmlns:dc="http://purl.org/dc/elements/1.1/" xmlns:cc="http://creativecommons.org/ns#" xmlns:rdf="http://www.w3.org/1999/02/22-rdf-syntax-ns#">
   <cc:Work>
    <dc:type rdf:resource="http://purl.org/dc/dcmitype/StillImage"/>
    <dc:date>2026-02-16T00:23:24.757905</dc:date>
    <dc:format>image/svg+xml</dc:format>
    <dc:creator>
     <cc:Agent>
      <dc:title>Matplotlib v3.10.8, https://matplotlib.org/</dc:title>
     </cc:Agent>
    </dc:creator>
   </cc:Work>
  </rdf:RDF>
 </metadata>
 <defs>
  <style type="text/css">*{stroke-linejoin: round; stroke-linecap: butt}</style>
 </defs>
 <g id="figure_1">
  <g id="patch_1">
   <path d="M 0 267.533125 
L 483.028437 267.533125 
L 483.028437 0 
L 0 0 
z
" style="fill: #0a0f1a"/>
  </g>
  <g id="axes_1">
   <g id="patch_2">
    <path d="M 29.428438 187.061852 
L 475.828437 187.061852 
L 475.828437 24.798438 
L 29.428438 24.798438 
z
" style="fill: #0a0f1a"/>
   </g>
   <g id="patch_3">
    <path d="M 38.788438 145.837594 
L 48.868437 145.837594 
Q 49.156437 145.837594 49.156437 145.647444 
L 49.156437 137.622329 
Q 49.156437 137.432179 48.868437 137.432179 
L 38.788438 137.432179 
Q 38.500438 137.432179 38.500438 137.622329 
L 38.500438 145.647444 
Q 38.500438 145.837594 38.788438 145.837594 
z
" clip-path="url(#p20afe38ac8)" style="fill: #ef4444; stroke: #ef4444; stroke-linejoin: miter"/>
   </g>
   <g id="patch_4">
    <path d="M 53.188437 166.379492 
L 63.268437 166.379492 
Q 63.556438 166.379492 63.556438 166.189343 
L 63.556438 156.319077 
Q 63.556438 156.128928 63.268437 156.128928 
L 53.188437 156.128928 
Q 52.900437 156.128928 52.900437 156.319077 
L 52.900437 166.189343 
Q 52.900437 166.379492 53.188437 166.379492 
z
" clip-path="url(#p20afe38ac8)" style="fill: #22c55e; stroke: #22c55e; stroke-linejoin: miter"/>
   </g>
   <g id="patch_5">
    <path d="M 67.588437 148.122574 
L 77.668437 148.122574 
Q 77.956437 148.122574 77.956437 147.932424 
L 77.956437 138.326212 
Q 77.956437 138.136062 77.668437 138.136062 
L 67.588437 138.136062 
Q 67.300438 138.136062 67.300438 138.326212 
L 67.300438 147.932424 
Q 67.300438 148.122574 67.588437 148.122574 
z
" clip-path="url(#p20afe38ac8)" style="fill: #ef4444; stroke: #ef4444; stroke-linejoin: miter"/>
   </g>
   <g id="patch_6">
    <path d="M 81.988438 135.930386 
L 92.068437 135.930386 
Q 92.356437 135.930386 92.356437 135.740236 
L 92.356437 130.996326 
Q 92.356437 130.806176 92.068437 130.806176 
L 81.988438 130.806176 
Q 81.700437 130.806176 81.700437 130.996326 
L 81.700437 135.740236 
Q 81.700437 135.930386 81.988438 135.930386 
z
" clip-path="url(#p20afe38ac8)" style="fill: #ef4444; stroke: #ef4444; stroke-linejoin: miter"/>
   </g>
   <g id="patch_7">
    <path d="M 96.388437 127.054393 
L 106.468437 127.054393 
Q 106.756438 127.054393 106.756438 126.864244 
L 106.756438 109.207411 
Q 106.756438 109.017261 106.468437 109.017261 
L 96.388437 109.017261 
Q 96.100437 109.017261 96.100437 109.207411 
L 96.100437 126.864244 
Q 96.100437 127.054393 96.388437 127.054393 
z
" clip-path="url(#p20afe38ac8)" style="fill: #22c55e; stroke: #22c55e; stroke-linejoin: miter"/>
   </g>
   <g id="patch_8">
    <path d="M 110.788437 116.948273 
L 120.868437 116.948273 
Q 121.156438 116.948273 121.156438 116.758123 
L 121.156438 99.548674 
Q 121.156438 99.358524 120.868437 99.358524 
L 110.788437 99.358524 
Q 110.500438 99.358524 110.500438 99.548674 
L 110.500438 116.758123 
Q 110.500438 116.948273 110.788437 116.948273 
z
" clip-path="url(#p20afe38ac8)" style="fill: #22c55e; stroke: #22c55e; stroke-linejoin: miter"/>
   </g>
   <g id="patch_9">
    <path d="M 125.188437 128.815702 
L 135.268438 128.815702 
Q 135.556438 128.815702 135.556438 128.625552 
L 135.556438 110.393092 
Q 135.556438 110.202942 135.268438 110.202942 
L 125.188437 110.202942 
Q 124.900438 110.202942 124.900438 110.393092 
L 124.900438 128.625552 
Q 124.900438 128.815702 125.188437 128.815702 
z
" clip-path="url(#p20afe38ac8)" style="fill: #ef4444; stroke: #ef4444; stroke-linejoin: miter"/>
   </g>
   <g id="patch_10">
    <path d="M 139.588437 107.334115 
L 149.668438 107.334115 
Q 149.956437 107.334115 149.956437 107.143965 
L 149.956437 97.439974 
Q 149.956437 97.249824 149.668438 97.249824 
L 139.588437 97.249824 
Q 139.300438 97.249824 139.300438 97.439974 
L 139.300438 107.143965 
Q 139.300438 107.334115 139.588437 107.334115 
z
" clip-path="url(#p20afe38ac8)" style="fill: #22c55e; stroke: #22c55e; stroke-linejoin: miter"/>
   </g>
   <g id="patch_11">
    <path d="M 153.988438 101.457772 
L 164.068438 101.457772 
Q 164.356437 101.457772 164.356437 101.267623 
L 164.356437 89.142131 
Q 164.356437 88.951981 164.068438 88.951981 
L 153.988438 88.951981 
Q 153.700437 88.951981 153.700437 89.142131 
L 153.700437 101.267623 
Q 153.700437 101.457772 153.988438 101.457772 
z
" clip-path="url(#p20afe38ac8)" style="fill: #ef4444; stroke: #ef4444; stroke-linejoin: miter"/>
   </g>
   <g id="patch_12">
    <path d="M 168.388437 81.762499 
L 178.468438 81.762499 
Q 178.756438 81.762499 178.756438 81.57235 
L 178.756438 72.987477 
Q 178.756438 72.797328 178.468438 72.797328 
L 168.388437 72.797328 
Q 168.100437 72.797328 168.100437 72.987477 
L 168.100437 81.57235 
Q 168.100437 81.762499 168.388437 81.762499 
z
" clip-path="url(#p20afe38ac8)" style="fill: #22c55e; stroke: #22c55e; stroke-linejoin: miter"/>
   </g>
   <g id="patch_13">
    <path d="M 182.788437 83.978467 
L 192.868437 83.978467 
Q 193.156438 83.978467 193.156438 83.788317 
L 193.156438 67.255879 
Q 193.156438 67.065729 192.868437 67.065729 
L 182.788437 67.065729 
Q 182.500438 67.065729 182.500438 67.255879 
L 182.500438 83.788317 
Q 182.500438 83.978467 182.788437 83.978467 
z
" clip-path="url(#p20afe38ac8)" style="fill: #ef4444; stroke: #ef4444; stroke-linejoin: miter"/>
   </g>
   <g id="patch_14">
    <path d="M 197.188437 70.256893 
L 207.268438 70.256893 
Q 207.556438 70.256893 207.556438 70.066744 
L 207.556438 55.631775 
Q 207.556438 55.441625 207.268438 55.441625 
L 197.188437 55.441625 
Q 196.900438 55.441625 196.900438 55.631775 
L 196.900438 70.066744 
Q 196.900438 70.256893 197.188437 70.256893 
z
" clip-path="url(#p20afe38ac8)" style="fill: #22c55e; stroke: #22c55e; stroke-linejoin: miter"/>
   </g>
   <g id="patch_15">
    <path d="M 211.588437 59.529636 
L 221.668438 59.529636 
Q 221.956437 59.529636 221.956437 59.339486 
L 221.956437 49.147003 
Q 221.956437 48.956853 221.668438 48.956853 
L 211.588437 48.956853 
Q 211.300438 48.956853 211.300438 49.147003 
L 211.300438 59.339486 
Q 211.300438 59.529636 211.588437 59.529636 
z
" clip-path="url(#p20afe38ac8)" style="fill: #ef4444; stroke: #ef4444; stroke-linejoin: miter"/>
   </g>
   <g id="patch_16">
    <path d="M 225.988438 73.696051 
L 236.068438 73.696051 
Q 236.356437 73.696051 236.356437 73.505902 
L 236.356437 57.546974 
Q 236.356437 57.356824 236.068438 57.356824 
L 225.988438 57.356824 
Q 225.700437 57.356824 225.700437 57.546974 
L 225.700437 73.505902 
Q 225.700437 73.696051 225.988438 73.696051 
z
" clip-path="url(#p20afe38ac8)" style="fill: #ef4444; stroke: #ef4444; stroke-linejoin: miter"/>
   </g>
   <g id="patch_17">
    <path d="M 240.388437 72.828735 
L 250.468437 72.828735 
Q 250.756438 72.828735 250.756438 72.638586 
L 250.756438 62.862786 
Q 250.756438 62.672637 250.468437 62.672637 
L 240.388437 62.672637 
Q 240.100437 62.672637 240.100437 62.862786 
L 240.100437 72.638586 
Q 240.100437 72.828735 240.388437 72.828735 
z
" clip-path="url(#p20afe38ac8)" style="fill: #ef4444; stroke: #ef4444; stroke-linejoin: miter"/>
   </g>
   <g id="patch_18">
    <path d="M 254.788437 62.736722 
L 264.868437 62.736722 
Q 265.156437 62.736722 265.156437 62.546572 
L 265.156437 45.066886 
Q 265.156437 44.876736 264.868437 44.876736 
L 254.788437 44.876736 
Q 254.500438 44.876736 254.500438 45.066886 
L 254.500438 62.546572 
Q 254.500438 62.736722 254.788437 62.736722 
z
" clip-path="url(#p20afe38ac8)" style="fill: #22c55e; stroke: #22c55e; stroke-linejoin: miter"/>
   </g>
   <g id="patch_19">
    <path d="M 269.188437 78.222805 
L 279.268438 78.222805 
Q 279.556437 78.222805 279.556437 78.032655 
L 279.556437 68.971297 
Q 279.556437 68.781147 279.268438 68.781147 
L 269.188437 68.781147 
Q 268.900438 68.781147 268.900438 68.971297 
L 268.900438 78.032655 
Q 268.900438 78.222805 269.188437 78.222805 
z
" clip-path="url(#p20afe38ac8)" style="fill: #22c55e; stroke: #22c55e; stroke-linejoin: miter"/>
   </g>
   <g id="patch_20">
    <path d="M 283.588437 78.626344 
L 293.668437 78.626344 
Q 293.956437 78.626344 293.956437 78.436195 
L 293.956437 67.816858 
Q 293.956437 67.626709 293.668437 67.626709 
L 283.588437 67.626709 
Q 283.300437 67.626709 283.300437 67.816858 
L 283.300437 78.436195 
Q 283.300437 78.626344 283.588437 78.626344 
z
" clip-path="url(#p20afe38ac8)" style="fill: #22c55e; stroke: #22c55e; stroke-linejoin: miter"/>
   </g>
   <g id="patch_21">
    <path d="M 297.988437 89.00805 
L 308.068437 89.00805 
Q 308.356437 89.00805 308.356437 88.8179 
L 308.356437 84.437159 
Q 308.356437 84.247009 308.068437 84.247009 
L 297.988437 84.247009 
Q 297.700437 84.247009 297.700437 84.437159 
L 297.700437 88.8179 
Q 297.700437 89.00805 297.988437 89.00805 
z
" clip-path="url(#p20afe38ac8)" style="fill: #22c55e; stroke: #22c55e; stroke-linejoin: miter"/>
   </g>
   <g id="patch_22">
    <path d="M 312.388437 99.369559 
L 322.468437 99.369559 
Q 322.756437 99.369559 322.756437 99.179409 
L 322.756437 88.635727 
Q 322.756437 88.445577 322.468437 88.445577 
L 312.388437 88.445577 
Q 312.100437 88.445577 312.100437 88.635727 
L 312.100437 99.179409 
Q 312.100437 99.369559 312.388437 99.369559 
z
" clip-path="url(#p20afe38ac8)" style="fill: #ef4444; stroke: #ef4444; stroke-linejoin: miter"/>
   </g>
   <g id="patch_23">
    <path d="M 326.788437 114.297839 
L 336.868437 114.297839 
Q 337.156437 114.297839 337.156437 114.107689 
L 337.156437 96.4996 
Q 337.156437 96.309451 336.868437 96.309451 
L 326.788437 96.309451 
Q 326.500437 96.309451 326.500437 96.4996 
L 326.500437 114.107689 
Q 326.500437 114.297839 326.788437 114.297839 
z
" clip-path="url(#p20afe38ac8)" style="fill: #ef4444; stroke: #ef4444; stroke-linejoin: miter"/>
   </g>
   <g id="patch_24">
    <path d="M 341.188437 79.439535 
L 351.268437 79.439535 
Q 351.556437 79.439535 351.556437 79.249385 
L 351.556437 65.732157 
Q 351.556437 65.542008 351.268437 65.542008 
L 341.188437 65.542008 
Q 340.900437 65.542008 340.900437 65.732157 
L 340.900437 79.249385 
Q 340.900437 79.439535 341.188437 79.439535 
z
" clip-path="url(#p20afe38ac8)" style="fill: #ef4444; stroke: #ef4444; stroke-linejoin: miter"/>
   </g>
   <g id="patch_25">
    <path d="M 355.588437 71.797865 
L 365.668437 71.797865 
Q 365.956437 71.797865 365.956437 71.607716 
L 365.956437 53.756509 
Q 365.956437 53.566359 365.668437 53.566359 
L 355.588437 53.566359 
Q 355.300437 53.566359 355.300437 53.756509 
L 355.300437 71.607716 
Q 355.300437 71.797865 355.588437 71.797865 
z
" clip-path="url(#p20afe38ac8)" style="fill: #ef4444; stroke: #ef4444; stroke-linejoin: miter"/>
   </g>
   <g id="patch_26">
    <path d="M 369.988437 67.928853 
L 380.068437 67.928853 
Q 380.356437 67.928853 380.356437 67.738704 
L 380.356437 59.207091 
Q 380.356437 59.016941 380.068437 59.016941 
L 369.988437 59.016941 
Q 369.700437 59.016941 369.700437 59.207091 
L 369.700437 67.738704 
Q 369.700437 67.928853 369.988437 67.928853 
z
" clip-path="url(#p20afe38ac8)" style="fill: #22c55e; stroke: #22c55e; stroke-linejoin: miter"/>
   </g>
   <g id="patch_27">
    <path d="M 384.388437 73.953962 
L 394.468437 73.953962 
Q 394.756437 73.953962 394.756437 73.763812 
L 394.756437 55.345468 
Q 394.756437 55.155319 394.468437 55.155319 
L 384.388437 55.155319 
Q 384.100437 55.155319 384.100437 55.345468 
L 384.100437 73.763812 
Q 384.100437 73.953962 384.388437 73.953962 
z
" clip-path="url(#p20afe38ac8)" style="fill: #22c55e; stroke: #22c55e; stroke-linejoin: miter"/>
   </g>
   <g id="patch_28">
    <path d="M 398.788437 104.835807 
L 408.868437 104.835807 
Q 409.156437 104.835807 409.156437 104.645657 
L 409.156437 95.473759 
Q 409.156437 95.283609 408.868437 95.283609 
L 398.788437 95.283609 
Q 398.500437 95.283609 398.500437 95.473759 
L 398.500437 104.645657 
Q 398.500437 104.835807 398.788437 104.835807 
z
" clip-path="url(#p20afe38ac8)" style="fill: #ef4444; stroke: #ef4444; stroke-linejoin: miter"/>
   </g>
   <g id="patch_29">
    <path d="M 413.188437 94.648713 
L 423.268437 94.648713 
Q 423.556437 94.648713 423.556437 94.458563 
L 423.556437 80.144059 
Q 423.556437 79.953909 423.268437 79.953909 
L 413.188437 79.953909 
Q 412.900437 79.953909 412.900437 80.144059 
L 412.900437 94.458563 
Q 412.900437 94.648713 413.188437 94.648713 
z
" clip-path="url(#p20afe38ac8)" style="fill: #22c55e; stroke: #22c55e; stroke-linejoin: miter"/>
   </g>
   <g id="patch_30">
    <path d="M 427.588437 108.473918 
L 437.668437 108.473918 
Q 437.956437 108.473918 437.956437 108.283768 
L 437.956437 101.433903 
Q 437.956437 101.243753 437.668437 101.243753 
L 427.588437 101.243753 
Q 427.300437 101.243753 427.300437 101.433903 
L 427.300437 108.283768 
Q 427.300437 108.473918 427.588437 108.473918 
z
" clip-path="url(#p20afe38ac8)" style="fill: #22c55e; stroke: #22c55e; stroke-linejoin: miter"/>
   </g>
   <g id="patch_31">
    <path d="M 441.988437 96.684689 
L 452.068437 96.684689 
Q 452.356437 96.684689 452.356437 96.494539 
L 452.356437 82.751874 
Q 452.356437 82.561724 452.068437 82.561724 
L 441.988437 82.561724 
Q 441.700437 82.561724 441.700437 82.751874 
L 441.700437 96.494539 
Q 441.700437 96.684689 441.988437 96.684689 
z
" clip-path="url(#p20afe38ac8)" style="fill: #22c55e; stroke: #22c55e; stroke-linejoin: miter"/>
   </g>
   <g id="patch_32">
    <path d="M 456.388437 95.036468 
L 466.468437 95.036468 
Q 466.756437 95.036468 466.756437 94.846318 
L 466.756437 85.040922 
Q 466.756437 84.850772 466.468437 84.850772 
L 456.388437 84.850772 
Q 456.100437 84.850772 456.100437 85.040922 
L 456.100437 94.846318 
Q 456.100437 95.036468 456.388437 95.036468 
z
" clip-path="url(#p20afe38ac8)" style="fill: #22c55e; stroke: #22c55e; stroke-linejoin: miter"/>
   </g>
   <g id="matplotlib.axis_1">
    <g id="xtick_1">
     <g id="line2d_1">
      <path d="M 43.828437 187.061852 
L 43.828437 24.798438 
" clip-path="url(#p20afe38ac8)" style="fill: none; stroke: #374151; stroke-opacity: 0.1; stroke-width: 0.8; stroke-linecap: square"/>
     </g>
     <g id="line2d_2">
      <defs>
       <path id="mb8c3d692dc" d="M 0 0 
L 0 3.5 
" style="stroke: #4b5563; stroke-width: 0.8"/>
      </defs>
      <g>
       <use xlink:href="#mb8c3d692dc" x="43.828437" y="187.061852" style="fill: #4b5563; stroke: #4b5563; stroke-width: 0.8"/>
      </g>
     </g>
    </g>
    <g id="xtick_2">
     <g id="line2d_3">
      <path d="M 115.828438 187.061852 
L 115.828438 24.798438 
" clip-path="url(#p20afe38ac8)" style="fill: none; stroke: #374151; stroke-opacity: 0.1; stroke-width: 0.8; stroke-linecap: square"/>
     </g>
     <g id="line2d_4">
      <g>
       <use xlink:href="#mb8c3d692dc" x="115.828438" y="187.061852" style="fill: #4b5563; stroke: #4b5563; stroke-width: 0.8"/>
      </g>
     </g>
    </g>
    <g id="xtick_3">
     <g id="line2d_5">
      <path d="M 187.828438 187.061852 
L 187.828438 24.798438 
" clip-path="url(#p20afe38ac8)" style="fill: none; stroke: #374151; stroke-opacity: 0.1; stroke-width: 0.8; stroke-linecap: square"/>
     </g>
     <g id="line2d_6">
      <g>
       <use xlink:href="#mb8c3d692dc" x="187.828438" y="187.061852" style="fill: #4b5563; stroke: #4b5563; stroke-width: 0.8"/>
      </g>
     </g>
    </g>
    <g id="xtick_4">
     <g id="line2d_7">
      <path d="M 259.828437 187.061852 
L 259.828437 24.798438 
" clip-path="url(#p20afe38ac8)" style="fill: none; stroke: #374151; stroke-opacity: 0.1; stroke-width: 0.8; stroke-linecap: square"/>
     </g>
     <g id="line2d_8">
      <g>
       <use xlink:href="#mb8c3d692dc" x="259.828437" y="187.061852" style="fill: #4b5563; stroke: #4b5563; stroke-width: 0.8"/>
      </g>
     </g>
    </g>
    <g id="xtick_5">
     <g id="line2d_9">
      <path d="M 331.828438 187.061852 
L 331.828438 24.798438 
" clip-path="url(#p20afe38ac8)" style="fill: none; stroke: #374151; stroke-opacity: 0.1; stroke-width: 0.8; stroke-linecap: square"/>
     </g>
     <g id="line2d_10">
      <g>
       <use xlink:href="#mb8c3d692dc" x="331.828438" y="187.061852" style="fill: #4b5563; stroke: #4b5563; stroke-width: 0.8"/>
      </g>
     </g>
    </g>
    <g id="xtick_6">
     <g id="line2d_11">
      <path d="M 403.828437 187.061852 
L 403.828437 24.798438 
" clip-path="url(#p20afe38ac8)" style="fill: none; stroke: #374151; stroke-opacity: 0.1; stroke-width: 0.8; stroke-linecap: square"/>
     </g>
     <g id="line2d_12">
      <g>
       <use xlink:href="#mb8c3d692dc" x="403.828437" y="187.061852" style="fill: #4b5563; stroke: #4b5563; stroke-width: 0.8"/>
      </g>
     </g>
    </g>
    <g id="xtick_7">
     <g id="line2d_13">
      <path d="M 475.828437 187.061852 
L 475.828437 24.798438 
" clip-path="url(#p20afe38ac8)" style="fill: none; stroke: #374151; stroke-opacity: 0.1; stroke-width: 0.8; stroke-linecap: square"/>
     </g>
     <g id="line2d_14">
      <g>
       <use xlink:href="#mb8c3d692dc" x="475.828437" y="187.061852" style="fill: #4b5563; stroke: #4b5563; stroke-width: 0.8"/>
      </g>
     </g>
    </g>
   </g>
   <g id="matplotlib.axis_2">
    <g id="ytick_1">
     <g id="line2d_15">
      <path d="M 29.428438 179.664831 
L 475.828437 179.664831 
" clip-path="url(#p20afe38ac8)" style="fill: none; stroke: #374151; stroke-opacity: 0.1; stroke-width: 0.8; stroke-linecap: square"/>
     </g>
     <g id="line2d_16">
      <defs>
       <path id="m3854e70d64" d="M 0 0 
L -3.5 0 
" style="stroke: #4b5563; stroke-width: 0.8"/>
      </defs>
      <g>
       <use xlink:href="#m3854e70d64" x="29.428438" y="179.664831" style="fill: #4b5563; stroke: #4b5563; stroke-width: 0.8"/>
      </g>
     </g>
     <g id="text_1">
      <!-- 96 -->
      <g style="fill: #4b5563" transform="translate(13.520938 182.324285) scale(0.07 -0.07)">
       <defs>
        <path id="DejaVuSans-39" d="M 703 97 
L 703 672 
Q 941 559 1184 500 
Q 1428 441 1663 441 
Q 2288 441 2617 861 
Q 2947 1281 2994 2138 
Q 2813 1869 2534 1725 
Q 2256 1581 1919 1581 
Q 1219 1581 811 2004 
Q 403 2428 403 3163 
Q 403 3881 828 4315 
Q 1253 4750 1959 4750 
Q 2769 4750 3195 4129 
Q 3622 3509 3622 2328 
Q 3622 1225 3098 567 
Q 2575 -91 1691 -91 
Q 1453 -91 1209 -44 
Q 966 3 703 97 
z
M 1959 2075 
Q 2384 2075 2632 2365 
Q 2881 2656 2881 3163 
Q 2881 3666 2632 3958 
Q 2384 4250 1959 4250 
Q 1534 4250 1286 3958 
Q 1038 3666 1038 3163 
Q 1038 2656 1286 2365 
Q 1534 2075 1959 2075 
z
" transform="scale(0.015625)"/>
        <path id="DejaVuSans-36" d="M 2113 2584 
Q 1688 2584 1439 2293 
Q 1191 2003 1191 1497 
Q 1191 994 1439 701 
Q 1688 409 2113 409 
Q 2538 409 2786 701 
Q 3034 994 3034 1497 
Q 3034 2003 2786 2293 
Q 2538 2584 2113 2584 
z
M 3366 4563 
L 3366 3988 
Q 3128 4100 2886 4159 
Q 2644 4219 2406 4219 
Q 1781 4219 1451 3797 
Q 1122 3375 1075 2522 
Q 1259 2794 1537 2939 
Q 1816 3084 2150 3084 
Q 2853 3084 3261 2657 
Q 3669 2231 3669 1497 
Q 3669 778 3244 343 
Q 2819 -91 2113 -91 
Q 1303 -91 875 529 
Q 447 1150 447 2328 
Q 447 3434 972 4092 
Q 1497 4750 2381 4750 
Q 2619 4750 2861 4703 
Q 3103 4656 3366 4563 
z
" transform="scale(0.015625)"/>
       </defs>
       <use xlink:href="#DejaVuSans-39"/>
       <use xlink:href="#DejaVuSans-36" transform="translate(63.623047 0)"/>
      </g>
     </g>
    </g>
    <g id="ytick_2">
     <g id="line2d_17">
      <path d="M 29.428438 160.649859 
L 475.828437 160.649859 
" clip-path="url(#p20afe38ac8)" style="fill: none; stroke: #374151; stroke-opacity: 0.1; stroke-width: 0.8; stroke-linecap: square"/>
     </g>
     <g id="line2d_18">
      <g>
       <use xlink:href="#m3854e70d64" x="29.428438" y="160.649859" style="fill: #4b5563; stroke: #4b5563; stroke-width: 0.8"/>
      </g>
     </g>
     <g id="text_2">
      <!-- 98 -->
      <g style="fill: #4b5563" transform="translate(13.520938 163.309312) scale(0.07 -0.07)">
       <defs>
        <path id="DejaVuSans-38" d="M 2034 2216 
Q 1584 2216 1326 1975 
Q 1069 1734 1069 1313 
Q 1069 891 1326 650 
Q 1584 409 2034 409 
Q 2484 409 2743 651 
Q 3003 894 3003 1313 
Q 3003 1734 2745 1975 
Q 2488 2216 2034 2216 
z
M 1403 2484 
Q 997 2584 770 2862 
Q 544 3141 544 3541 
Q 544 4100 942 4425 
Q 1341 4750 2034 4750 
Q 2731 4750 3128 4425 
Q 3525 4100 3525 3541 
Q 3525 3141 3298 2862 
Q 3072 2584 2669 2484 
Q 3125 2378 3379 2068 
Q 3634 1759 3634 1313 
Q 3634 634 3220 271 
Q 2806 -91 2034 -91 
Q 1263 -91 848 271 
Q 434 634 434 1313 
Q 434 1759 690 2068 
Q 947 2378 1403 2484 
z
M 1172 3481 
Q 1172 3119 1398 2916 
Q 1625 2713 2034 2713 
Q 2441 2713 2670 2916 
Q 2900 3119 2900 3481 
Q 2900 3844 2670 4047 
Q 2441 4250 2034 4250 
Q 1625 4250 1398 4047 
Q 1172 3844 1172 3481 
z
" transform="scale(0.015625)"/>
       </defs>
       <use xlink:href="#DejaVuSans-39"/>
       <use xlink:href="#DejaVuSans-38" transform="translate(63.623047 0)"/>
      </g>
     </g>
    </g>
    <g id="ytick_3">
     <g id="line2d_19">
      <path d="M 29.428438 141.634886 
L 475.828437 141.634886 
" clip-path="url(#p20afe38ac8)" style="fill: none; stroke: #374151; stroke-opacity: 0.1; stroke-width: 0.8; stroke-linecap: square"/>
     </g>
     <g id="line2d_20">
      <g>
       <use xlink:href="#m3854e70d64" x="29.428438" y="141.634886" style="fill: #4b5563; stroke: #4b5563; stroke-width: 0.8"/>
      </g>
     </g>
     <g id="text_3">
      <!-- 100 -->
      <g style="fill: #4b5563" transform="translate(9.067187 144.29434) scale(0.07 -0.07)">
       <defs>
        <path id="DejaVuSans-31" d="M 794 531 
L 1825 531 
L 1825 4091 
L 703 3866 
L 703 4441 
L 1819 4666 
L 2450 4666 
L 2450 531 
L 3481 531 
L 3481 0 
L 794 0 
L 794 531 
z
" transform="scale(0.015625)"/>
        <path id="DejaVuSans-30" d="M 2034 4250 
Q 1547 4250 1301 3770 
Q 1056 3291 1056 2328 
Q 1056 1369 1301 889 
Q 1547 409 2034 409 
Q 2525 409 2770 889 
Q 3016 1369 3016 2328 
Q 3016 3291 2770 3770 
Q 2525 4250 2034 4250 
z
M 2034 4750 
Q 2819 4750 3233 4129 
Q 3647 3509 3647 2328 
Q 3647 1150 3233 529 
Q 2819 -91 2034 -91 
Q 1250 -91 836 529 
Q 422 1150 422 2328 
Q 422 3509 836 4129 
Q 1250 4750 2034 4750 
z
" transform="scale(0.015625)"/>
       </defs>
       <use xlink:href="#DejaVuSans-31"/>
       <use xlink:href="#DejaVuSans-30" transform="translate(63.623047 0)"/>
       <use xlink:href="#DejaVuSans-30" transform="translate(127.246094 0)"/>
      </g>
     </g>
    </g>
    <g id="ytick_4">
     <g id="line2d_21">
      <path d="M 29.428438 122.619914 
L 475.828437 122.619914 
" clip-path="url(#p20afe38ac8)" style="fill: none; stroke: #374151; stroke-opacity: 0.1; stroke-width: 0.8; stroke-linecap: square"/>
     </g>
     <g id="line2d_22">
      <g>
       <use xlink:href="#m3854e70d64" x="29.428438" y="122.619914" style="fill: #4b5563; stroke: #4b5563; stroke-width: 0.8"/>
      </g>
     </g>
     <g id="text_4">
      <!-- 102 -->
      <g style="fill: #4b5563" transform="translate(9.067187 125.279367) scale(0.07 -0.07)">
       <defs>
        <path id="DejaVuSans-32" d="M 1228 531 
L 3431 531 
L 3431 0 
L 469 0 
L 469 531 
Q 828 903 1448 1529 
Q 2069 2156 2228 2338 
Q 2531 2678 2651 2914 
Q 2772 3150 2772 3378 
Q 2772 3750 2511 3984 
Q 2250 4219 1831 4219 
Q 1534 4219 1204 4116 
Q 875 4013 500 3803 
L 500 4441 
Q 881 4594 1212 4672 
Q 1544 4750 1819 4750 
Q 2544 4750 2975 4387 
Q 3406 4025 3406 3419 
Q 3406 3131 3298 2873 
Q 3191 2616 2906 2266 
Q 2828 2175 2409 1742 
Q 1991 1309 1228 531 
z
" transform="scale(0.015625)"/>
       </defs>
       <use xlink:href="#DejaVuSans-31"/>
       <use xlink:href="#DejaVuSans-30" transform="translate(63.623047 0)"/>
       <use xlink:href="#DejaVuSans-32" transform="translate(127.246094 0)"/>
      </g>
     </g>
    </g>
    <g id="ytick_5">
     <g id="line2d_23">
      <path d="M 29.428438 103.604941 
L 475.828437 103.604941 
" clip-path="url(#p20afe38ac8)" style="fill: none; stroke: #374151; stroke-opacity: 0.1; stroke-width: 0.8; stroke-linecap: square"/>
     </g>
     <g id="line2d_24">
      <g>
       <use xlink:href="#m3854e70d64" x="29.428438" y="103.604941" style="fill: #4b5563; stroke: #4b5563; stroke-width: 0.8"/>
      </g>
     </g>
     <g id="text_5">
      <!-- 104 -->
      <g style="fill: #4b5563" transform="translate(9.067187 106.264395) scale(0.07 -0.07)">
       <defs>
        <path id="DejaVuSans-34" d="M 2419 4116 
L 825 1625 
L 2419 1625 
L 2419 4116 
z
M 2253 4666 
L 3047 4666 
L 3047 1625 
L 3713 1625 
L 3713 1100 
L 3047 1100 
L 3047 0 
L 2419 0 
L 2419 1100 
L 313 1100 
L 313 1709 
L 2253 4666 
z
" transform="scale(0.015625)"/>
       </defs>
       <use xlink:href="#DejaVuSans-31"/>
       <use xlink:href="#DejaVuSans-30" transform="translate(63.623047 0)"/>
       <use xlink:href="#DejaVuSans-34" transform="translate(127.246094 0)"/>
      </g>
     </g>
    </g>
    <g id="ytick_6">
     <g id="line2d_25">
      <path d="M 29.428438 84.589969 
L 475.828437 84.589969 
" clip-path="url(#p20afe38ac8)" style="fill: none; stroke: #374151; stroke-opacity: 0.1; stroke-width: 0.8; stroke-linecap: square"/>
     </g>
     <g id="line2d_26">
      <g>
       <use xlink:href="#m3854e70d64" x="29.428438" y="84.589969" style="fill: #4b5563; stroke: #4b5563; stroke-width: 0.8"/>
      </g>
     </g>
     <g id="text_6">
      <!-- 106 -->
      <g style="fill: #4b5563" transform="translate(9.067187 87.249422) scale(0.07 -0.07)">
       <use xlink:href="#DejaVuSans-31"/>
       <use xlink:href="#DejaVuSans-30" transform="translate(63.623047 0)"/>
       <use xlink:href="#DejaVuSans-36" transform="translate(127.246094 0)"/>
      </g>
     </g>
    </g>
    <g id="ytick_7">
     <g id="line2d_27">
      <path d="M 29.428438 65.574996 
L 475.828437 65.574996 
" clip-path="url(#p20afe38ac8)" style="fill: none; stroke: #374151; stroke-opacity: 0.1; stroke-width: 0.8; stroke-linecap: square"/>
     </g>
     <g id="line2d_28">
      <g>
       <use xlink:href="#m3854e70d64" x="29.428438" y="65.574996" style="fill: #4b5563; stroke: #4b5563; stroke-width: 0.8"/>
      </g>
     </g>
     <g id="text_7">
      <!-- 108 -->
      <g style="fill: #4b5563" transform="translate(9.067187 68.23445) scale(0.07 -0.07)">
       <use xlink:href="#DejaVuSans-31"/>
       <use xlink:href="#DejaVuSans-30" transform="translate(63.623047 0)"/>
       <use xlink:href="#DejaVuSans-38" transform="translate(127.246094 0)"/>
      </g>
     </g>
    </g>
    <g id="ytick_8">
     <g id="line2d_29">
      <path d="M 29.428438 46.560024 
L 475.828437 46.560024 
" clip-path="url(#p20afe38ac8)" style="fill: none; stroke: #374151; stroke-opacity: 0.1; stroke-width: 0.8; stroke-linecap: square"/>
     </g>
     <g id="line2d_30">
      <g>
       <use xlink:href="#m3854e70d64" x="29.428438" y="46.560024" style="fill: #4b5563; stroke: #4b5563; stroke-width: 0.8"/>
      </g>
     </g>
     <g id="text_8">
      <!-- 110 -->
      <g style="fill: #4b5563" transform="translate(9.067187 49.219477) scale(0.07 -0.07)">
       <use xlink:href="#DejaVuSans-31"/>
       <use xlink:href="#DejaVuSans-31" transform="translate(63.623047 0)"/>
       <use xlink:href="#DejaVuSans-30" transform="translate(127.246094 0)"/>
      </g>
     </g>
    </g>
    <g id="ytick_9">
     <g id="line2d_31">
      <path d="M 29.428438 27.545051 
L 475.828437 27.545051 
" clip-path="url(#p20afe38ac8)" style="fill: none; stroke: #374151; stroke-opacity: 0.1; stroke-width: 0.8; stroke-linecap: square"/>
     </g>
     <g id="line2d_32">
      <g>
       <use xlink:href="#m3854e70d64" x="29.428438" y="27.545051" style="fill: #4b5563; stroke: #4b5563; stroke-width: 0.8"/>
      </g>
     </g>
     <g id="text_9">
      <!-- 112 -->
      <g style="fill: #4b5563" transform="translate(9.067187 30.204505) scale(0.07 -0.07)">
       <use xlink:href="#DejaVuSans-31"/>
       <use xlink:href="#DejaVuSans-31" transform="translate(63.623047 0)"/>
       <use xlink:href="#DejaVuSans-32" transform="translate(127.246094 0)"/>
      </g>
     </g>
    </g>
   </g>
   <g id="line2d_33">
    <path d="M 43.828437 157.551302 
L 43.828437 125.056102 
" clip-path="url(#p20afe38ac8)" style="fill: none; stroke: #ef4444; stroke-width: 0.8; stroke-linecap: square"/>
   </g>
   <g id="line2d_34">
    <path d="M 58.228437 179.686242 
L 58.228437 150.974686 
" clip-path="url(#p20afe38ac8)" style="fill: none; stroke: #22c55e; stroke-width: 0.8; stroke-linecap: square"/>
   </g>
   <g id="line2d_35">
    <path d="M 72.628437 160.437526 
L 72.628437 135.553432 
" clip-path="url(#p20afe38ac8)" style="fill: none; stroke: #ef4444; stroke-width: 0.8; stroke-linecap: square"/>
   </g>
   <g id="line2d_36">
    <path d="M 87.028437 143.384243 
L 87.028437 119.009814 
" clip-path="url(#p20afe38ac8)" style="fill: none; stroke: #ef4444; stroke-width: 0.8; stroke-linecap: square"/>
   </g>
   <g id="line2d_37">
    <path d="M 101.428438 132.13386 
L 101.428438 98.336431 
" clip-path="url(#p20afe38ac8)" style="fill: none; stroke: #22c55e; stroke-width: 0.8; stroke-linecap: square"/>
   </g>
   <g id="line2d_38">
    <path d="M 115.828438 119.587402 
L 115.828438 95.294222 
" clip-path="url(#p20afe38ac8)" style="fill: none; stroke: #22c55e; stroke-width: 0.8; stroke-linecap: square"/>
   </g>
   <g id="line2d_39">
    <path d="M 130.228437 142.266448 
L 130.228437 108.248738 
" clip-path="url(#p20afe38ac8)" style="fill: none; stroke: #ef4444; stroke-width: 0.8; stroke-linecap: square"/>
   </g>
   <g id="line2d_40">
    <path d="M 144.628437 120.900596 
L 144.628437 83.22808 
" clip-path="url(#p20afe38ac8)" style="fill: none; stroke: #22c55e; stroke-width: 0.8; stroke-linecap: square"/>
   </g>
   <g id="line2d_41">
    <path d="M 159.028437 109.270501 
L 159.028437 81.242468 
" clip-path="url(#p20afe38ac8)" style="fill: none; stroke: #ef4444; stroke-width: 0.8; stroke-linecap: square"/>
   </g>
   <g id="line2d_42">
    <path d="M 173.428438 88.739535 
L 173.428438 66.86969 
" clip-path="url(#p20afe38ac8)" style="fill: none; stroke: #22c55e; stroke-width: 0.8; stroke-linecap: square"/>
   </g>
   <g id="line2d_43">
    <path d="M 187.828438 96.361995 
L 187.828438 59.901135 
" clip-path="url(#p20afe38ac8)" style="fill: none; stroke: #ef4444; stroke-width: 0.8; stroke-linecap: square"/>
   </g>
   <g id="line2d_44">
    <path d="M 202.228437 73.140171 
L 202.228437 49.013428 
" clip-path="url(#p20afe38ac8)" style="fill: none; stroke: #22c55e; stroke-width: 0.8; stroke-linecap: square"/>
   </g>
   <g id="line2d_45">
    <path d="M 216.628437 63.656294 
L 216.628437 42.608415 
" clip-path="url(#p20afe38ac8)" style="fill: none; stroke: #ef4444; stroke-width: 0.8; stroke-linecap: square"/>
   </g>
   <g id="line2d_46">
    <path d="M 231.028437 80.041621 
L 231.028437 51.252588 
" clip-path="url(#p20afe38ac8)" style="fill: none; stroke: #ef4444; stroke-width: 0.8; stroke-linecap: square"/>
   </g>
   <g id="line2d_47">
    <path d="M 245.428437 76.119418 
L 245.428437 50.031949 
" clip-path="url(#p20afe38ac8)" style="fill: none; stroke: #ef4444; stroke-width: 0.8; stroke-linecap: square"/>
   </g>
   <g id="line2d_48">
    <path d="M 259.828437 68.233453 
L 259.828437 32.174047 
" clip-path="url(#p20afe38ac8)" style="fill: none; stroke: #22c55e; stroke-width: 0.8; stroke-linecap: square"/>
   </g>
   <g id="line2d_49">
    <path d="M 274.228437 79.753286 
L 274.228437 66.622869 
" clip-path="url(#p20afe38ac8)" style="fill: none; stroke: #22c55e; stroke-width: 0.8; stroke-linecap: square"/>
   </g>
   <g id="line2d_50">
    <path d="M 288.628437 90.837934 
L 288.628437 59.661698 
" clip-path="url(#p20afe38ac8)" style="fill: none; stroke: #22c55e; stroke-width: 0.8; stroke-linecap: square"/>
   </g>
   <g id="line2d_51">
    <path d="M 303.028437 101.307639 
L 303.028437 78.79564 
" clip-path="url(#p20afe38ac8)" style="fill: none; stroke: #22c55e; stroke-width: 0.8; stroke-linecap: square"/>
   </g>
   <g id="line2d_52">
    <path d="M 317.428437 100.735189 
L 317.428437 77.444296 
" clip-path="url(#p20afe38ac8)" style="fill: none; stroke: #ef4444; stroke-width: 0.8; stroke-linecap: square"/>
   </g>
   <g id="line2d_53">
    <path d="M 331.828438 116.599398 
L 331.828438 91.962111 
" clip-path="url(#p20afe38ac8)" style="fill: none; stroke: #ef4444; stroke-width: 0.8; stroke-linecap: square"/>
   </g>
   <g id="line2d_54">
    <path d="M 346.228437 86.676172 
L 346.228437 54.863687 
" clip-path="url(#p20afe38ac8)" style="fill: none; stroke: #ef4444; stroke-width: 0.8; stroke-linecap: square"/>
   </g>
   <g id="line2d_55">
    <path d="M 360.628437 80.32124 
L 360.628437 49.668501 
" clip-path="url(#p20afe38ac8)" style="fill: none; stroke: #ef4444; stroke-width: 0.8; stroke-linecap: square"/>
   </g>
   <g id="line2d_56">
    <path d="M 375.028437 72.724768 
L 375.028437 52.544458 
" clip-path="url(#p20afe38ac8)" style="fill: none; stroke: #22c55e; stroke-width: 0.8; stroke-linecap: square"/>
   </g>
   <g id="line2d_57">
    <path d="M 389.428437 78.03199 
L 389.428437 42.236212 
" clip-path="url(#p20afe38ac8)" style="fill: none; stroke: #22c55e; stroke-width: 0.8; stroke-linecap: square"/>
   </g>
   <g id="line2d_58">
    <path d="M 403.828437 112.894411 
L 403.828437 87.29047 
" clip-path="url(#p20afe38ac8)" style="fill: none; stroke: #ef4444; stroke-width: 0.8; stroke-linecap: square"/>
   </g>
   <g id="line2d_59">
    <path d="M 418.228437 100.377806 
L 418.228437 69.293482 
" clip-path="url(#p20afe38ac8)" style="fill: none; stroke: #22c55e; stroke-width: 0.8; stroke-linecap: square"/>
   </g>
   <g id="line2d_60">
    <path d="M 432.628437 117.479249 
L 432.628437 96.762184 
" clip-path="url(#p20afe38ac8)" style="fill: none; stroke: #22c55e; stroke-width: 0.8; stroke-linecap: square"/>
   </g>
   <g id="line2d_61">
    <path d="M 447.028437 105.057913 
L 447.028437 68.89358 
" clip-path="url(#p20afe38ac8)" style="fill: none; stroke: #22c55e; stroke-width: 0.8; stroke-linecap: square"/>
   </g>
   <g id="line2d_62">
    <path d="M 461.428437 107.577803 
L 461.428437 73.601214 
" clip-path="url(#p20afe38ac8)" style="fill: none; stroke: #22c55e; stroke-width: 0.8; stroke-linecap: square"/>
   </g>
   <g id="patch_33">
    <path d="M 29.428438 187.061852 
L 29.428438 24.798438 
" style="fill: none; stroke: #1f2937; stroke-width: 0.8; stroke-linejoin: miter; stroke-linecap: square"/>
   </g>
   <g id="patch_34">
    <path d="M 29.428438 187.061852 
L 475.828437 187.061852 
" style="fill: none; stroke: #1f2937; stroke-width: 0.8; stroke-linejoin: miter; stroke-linecap: square"/>
   </g>
   <g id="text_10">
    <!-- Wolfe Wave (Bearish) — JPM 1H -->
    <g style="fill: #ffffff" transform="translate(163.491719 14.798438) scale(0.1 -0.1)">
     <defs>
      <path id="DejaVuSans-Bold-57" d="M 191 4666 
L 1344 4666 
L 2150 1275 
L 2950 4666 
L 4109 4666 
L 4909 1275 
L 5716 4666 
L 6859 4666 
L 5759 0 
L 4372 0 
L 3525 3547 
L 2688 0 
L 1300 0 
L 191 4666 
z
" transform="scale(0.015625)"/>
      <path id="DejaVuSans-Bold-6f" d="M 2203 2784 
Q 1831 2784 1636 2517 
Q 1441 2250 1441 1747 
Q 1441 1244 1636 976 
Q 1831 709 2203 709 
Q 2569 709 2762 976 
Q 2956 1244 2956 1747 
Q 2956 2250 2762 2517 
Q 2569 2784 2203 2784 
z
M 2203 3584 
Q 3106 3584 3614 3096 
Q 4122 2609 4122 1747 
Q 4122 884 3614 396 
Q 3106 -91 2203 -91 
Q 1297 -91 786 396 
Q 275 884 275 1747 
Q 275 2609 786 3096 
Q 1297 3584 2203 3584 
z
" transform="scale(0.015625)"/>
      <path id="DejaVuSans-Bold-6c" d="M 538 4863 
L 1656 4863 
L 1656 0 
L 538 0 
L 538 4863 
z
" transform="scale(0.015625)"/>
      <path id="DejaVuSans-Bold-66" d="M 2841 4863 
L 2841 4128 
L 2222 4128 
Q 1984 4128 1890 4042 
Q 1797 3956 1797 3744 
L 1797 3500 
L 2753 3500 
L 2753 2700 
L 1797 2700 
L 1797 0 
L 678 0 
L 678 2700 
L 122 2700 
L 122 3500 
L 678 3500 
L 678 3744 
Q 678 4316 997 4589 
Q 1316 4863 1984 4863 
L 2841 4863 
z
" transform="scale(0.015625)"/>
      <path id="DejaVuSans-Bold-65" d="M 4031 1759 
L 4031 1441 
L 1416 1441 
Q 1456 1047 1700 850 
Q 1944 653 2381 653 
Q 2734 653 3104 758 
Q 3475 863 3866 1075 
L 3866 213 
Q 3469 63 3072 -14 
Q 2675 -91 2278 -91 
Q 1328 -91 801 392 
Q 275 875 275 1747 
Q 275 2603 792 3093 
Q 1309 3584 2216 3584 
Q 3041 3584 3536 3087 
Q 4031 2591 4031 1759 
z
M 2881 2131 
Q 2881 2450 2695 2645 
Q 2509 2841 2209 2841 
Q 1884 2841 1681 2658 
Q 1478 2475 1428 2131 
L 2881 2131 
z
" transform="scale(0.015625)"/>
      <path id="DejaVuSans-Bold-20" transform="scale(0.015625)"/>
      <path id="DejaVuSans-Bold-61" d="M 2106 1575 
Q 1756 1575 1579 1456 
Q 1403 1338 1403 1106 
Q 1403 894 1545 773 
Q 1688 653 1941 653 
Q 2256 653 2472 879 
Q 2688 1106 2688 1447 
L 2688 1575 
L 2106 1575 
z
M 3816 1997 
L 3816 0 
L 2688 0 
L 2688 519 
Q 2463 200 2181 54 
Q 1900 -91 1497 -91 
Q 953 -91 614 226 
Q 275 544 275 1050 
Q 275 1666 698 1953 
Q 1122 2241 2028 2241 
L 2688 2241 
L 2688 2328 
Q 2688 2594 2478 2717 
Q 2269 2841 1825 2841 
Q 1466 2841 1156 2769 
Q 847 2697 581 2553 
L 581 3406 
Q 941 3494 1303 3539 
Q 1666 3584 2028 3584 
Q 2975 3584 3395 3211 
Q 3816 2838 3816 1997 
z
" transform="scale(0.015625)"/>
      <path id="DejaVuSans-Bold-76" d="M 97 3500 
L 1216 3500 
L 2088 1081 
L 2956 3500 
L 4078 3500 
L 2700 0 
L 1472 0 
L 97 3500 
z
" transform="scale(0.015625)"/>
      <path id="DejaVuSans-Bold-28" d="M 2413 -844 
L 1484 -844 
Q 1006 -72 778 623 
Q 550 1319 550 2003 
Q 550 2688 779 3389 
Q 1009 4091 1484 4856 
L 2413 4856 
Q 2013 4116 1813 3408 
Q 1613 2700 1613 2009 
Q 1613 1319 1811 609 
Q 2009 -100 2413 -844 
z
" transform="scale(0.015625)"/>
      <path id="DejaVuSans-Bold-42" d="M 2456 2859 
Q 2741 2859 2887 2984 
Q 3034 3109 3034 3353 
Q 3034 3594 2887 3720 
Q 2741 3847 2456 3847 
L 1791 3847 
L 1791 2859 
L 2456 2859 
z
M 2497 819 
Q 2859 819 3042 972 
Q 3225 1125 3225 1434 
Q 3225 1738 3044 1889 
Q 2863 2041 2497 2041 
L 1791 2041 
L 1791 819 
L 2497 819 
z
M 3616 2497 
Q 4003 2384 4215 2081 
Q 4428 1778 4428 1338 
Q 4428 663 3972 331 
Q 3516 0 2584 0 
L 588 0 
L 588 4666 
L 2394 4666 
Q 3366 4666 3802 4372 
Q 4238 4078 4238 3431 
Q 4238 3091 4078 2852 
Q 3919 2613 3616 2497 
z
" transform="scale(0.015625)"/>
      <path id="DejaVuSans-Bold-72" d="M 3138 2547 
Q 2991 2616 2845 2648 
Q 2700 2681 2553 2681 
Q 2122 2681 1889 2404 
Q 1656 2128 1656 1613 
L 1656 0 
L 538 0 
L 538 3500 
L 1656 3500 
L 1656 2925 
Q 1872 3269 2151 3426 
Q 2431 3584 2822 3584 
Q 2878 3584 2943 3579 
Q 3009 3575 3134 3559 
L 3138 2547 
z
" transform="scale(0.015625)"/>
      <path id="DejaVuSans-Bold-69" d="M 538 3500 
L 1656 3500 
L 1656 0 
L 538 0 
L 538 3500 
z
M 538 4863 
L 1656 4863 
L 1656 3950 
L 538 3950 
L 538 4863 
z
" transform="scale(0.015625)"/>
      <path id="DejaVuSans-Bold-73" d="M 3272 3391 
L 3272 2541 
Q 2913 2691 2578 2766 
Q 2244 2841 1947 2841 
Q 1628 2841 1473 2761 
Q 1319 2681 1319 2516 
Q 1319 2381 1436 2309 
Q 1553 2238 1856 2203 
L 2053 2175 
Q 2913 2066 3209 1816 
Q 3506 1566 3506 1031 
Q 3506 472 3093 190 
Q 2681 -91 1863 -91 
Q 1516 -91 1145 -36 
Q 775 19 384 128 
L 384 978 
Q 719 816 1070 734 
Q 1422 653 1784 653 
Q 2113 653 2278 743 
Q 2444 834 2444 1013 
Q 2444 1163 2330 1236 
Q 2216 1309 1875 1350 
L 1678 1375 
Q 931 1469 631 1722 
Q 331 1975 331 2491 
Q 331 3047 712 3315 
Q 1094 3584 1881 3584 
Q 2191 3584 2531 3537 
Q 2872 3491 3272 3391 
z
" transform="scale(0.015625)"/>
      <path id="DejaVuSans-Bold-68" d="M 4056 2131 
L 4056 0 
L 2931 0 
L 2931 347 
L 2931 1625 
Q 2931 2084 2911 2256 
Q 2891 2428 2841 2509 
Q 2775 2619 2662 2680 
Q 2550 2741 2406 2741 
Q 2056 2741 1856 2470 
Q 1656 2200 1656 1722 
L 1656 0 
L 538 0 
L 538 4863 
L 1656 4863 
L 1656 2988 
Q 1909 3294 2193 3439 
Q 2478 3584 2822 3584 
Q 3428 3584 3742 3212 
Q 4056 2841 4056 2131 
z
" transform="scale(0.015625)"/>
      <path id="DejaVuSans-Bold-29" d="M 513 -844 
Q 913 -100 1113 609 
Q 1313 1319 1313 2009 
Q 1313 2700 1113 3408 
Q 913 4116 513 4856 
L 1441 4856 
Q 1916 4091 2145 3389 
Q 2375 2688 2375 2003 
Q 2375 1319 2147 623 
Q 1919 -72 1441 -844 
L 513 -844 
z
" transform="scale(0.015625)"/>
      <path id="DejaVuSans-Bold-2014" d="M 344 2156 
L 6056 2156 
L 6056 1350 
L 344 1350 
L 344 2156 
z
" transform="scale(0.015625)"/>
      <path id="DejaVuSans-Bold-4a" d="M 588 4666 
L 1791 4666 
L 1791 453 
Q 1791 -419 1317 -850 
Q 844 -1281 -116 -1281 
L -359 -1281 
L -359 -372 
L -172 -372 
Q 203 -372 395 -162 
Q 588 47 588 453 
L 588 4666 
z
" transform="scale(0.015625)"/>
      <path id="DejaVuSans-Bold-50" d="M 588 4666 
L 2584 4666 
Q 3475 4666 3951 4270 
Q 4428 3875 4428 3144 
Q 4428 2409 3951 2014 
Q 3475 1619 2584 1619 
L 1791 1619 
L 1791 0 
L 588 0 
L 588 4666 
z
M 1791 3794 
L 1791 2491 
L 2456 2491 
Q 2806 2491 2997 2661 
Q 3188 2831 3188 3144 
Q 3188 3456 2997 3625 
Q 2806 3794 2456 3794 
L 1791 3794 
z
" transform="scale(0.015625)"/>
      <path id="DejaVuSans-Bold-4d" d="M 588 4666 
L 2119 4666 
L 3181 2169 
L 4250 4666 
L 5778 4666 
L 5778 0 
L 4641 0 
L 4641 3413 
L 3566 897 
L 2803 897 
L 1728 3413 
L 1728 0 
L 588 0 
L 588 4666 
z
" transform="scale(0.015625)"/>
      <path id="DejaVuSans-Bold-31" d="M 750 831 
L 1813 831 
L 1813 3847 
L 722 3622 
L 722 4441 
L 1806 4666 
L 2950 4666 
L 2950 831 
L 4013 831 
L 4013 0 
L 750 0 
L 750 831 
z
" transform="scale(0.015625)"/>
      <path id="DejaVuSans-Bold-48" d="M 588 4666 
L 1791 4666 
L 1791 2888 
L 3566 2888 
L 3566 4666 
L 4769 4666 
L 4769 0 
L 3566 0 
L 3566 1978 
L 1791 1978 
L 1791 0 
L 588 0 
L 588 4666 
z
" transform="scale(0.015625)"/>
     </defs>
     <use xlink:href="#DejaVuSans-Bold-57"/>
     <use xlink:href="#DejaVuSans-Bold-6f" transform="translate(106.677734 0)"/>
     <use xlink:href="#DejaVuSans-Bold-6c" transform="translate(175.378906 0)"/>
     <use xlink:href="#DejaVuSans-Bold-66" transform="translate(209.65625 0)"/>
     <use xlink:href="#DejaVuSans-Bold-65" transform="translate(253.162109 0)"/>
     <use xlink:href="#DejaVuSans-Bold-20" transform="translate(320.984375 0)"/>
     <use xlink:href="#DejaVuSans-Bold-57" transform="translate(355.798828 0)"/>
     <use xlink:href="#DejaVuSans-Bold-61" transform="translate(462.476562 0)"/>
     <use xlink:href="#DejaVuSans-Bold-76" transform="translate(529.957031 0)"/>
     <use xlink:href="#DejaVuSans-Bold-65" transform="translate(595.142578 0)"/>
     <use xlink:href="#DejaVuSans-Bold-20" transform="translate(662.964844 0)"/>
     <use xlink:href="#DejaVuSans-Bold-28" transform="translate(697.779297 0)"/>
     <use xlink:href="#DejaVuSans-Bold-42" transform="translate(743.482422 0)"/>
     <use xlink:href="#DejaVuSans-Bold-65" transform="translate(819.703125 0)"/>
     <use xlink:href="#DejaVuSans-Bold-61" transform="translate(887.525391 0)"/>
     <use xlink:href="#DejaVuSans-Bold-72" transform="translate(955.005859 0)"/>
     <use xlink:href="#DejaVuSans-Bold-69" transform="translate(1004.322266 0)"/>
     <use xlink:href="#DejaVuSans-Bold-73" transform="translate(1038.599609 0)"/>
     <use xlink:href="#DejaVuSans-Bold-68" transform="translate(1098.121094 0)"/>
     <use xlink:href="#DejaVuSans-Bold-29" transform="translate(1169.3125 0)"/>
     <use xlink:href="#DejaVuSans-Bold-20" transform="translate(1215.015625 0)"/>
     <use xlink:href="#DejaVuSans-Bold-2014" transform="translate(1249.830078 0)"/>
     <use xlink:href="#DejaVuSans-Bold-20" transform="translate(1349.830078 0)"/>
     <use xlink:href="#DejaVuSans-Bold-4a" transform="translate(1384.644531 0)"/>
     <use xlink:href="#DejaVuSans-Bold-50" transform="translate(1421.851562 0)"/>
     <use xlink:href="#DejaVuSans-Bold-4d" transform="translate(1495.142578 0)"/>
     <use xlink:href="#DejaVuSans-Bold-20" transform="translate(1594.654297 0)"/>
     <use xlink:href="#DejaVuSans-Bold-31" transform="translate(1629.46875 0)"/>
     <use xlink:href="#DejaVuSans-Bold-48" transform="translate(1699.048828 0)"/>
    </g>
   </g>
  </g>
  <g id="axes_2">
   <g id="patch_35">
    <path d="M 29.428438 246.558438 
L 475.828437 246.558438 
L 475.828437 192.470633 
L 29.428438 192.470633 
z
" style="fill: #0a0f1a"/>
   </g>
   <g id="patch_36">
    <path d="M 49.719347 246.558438 
L 59.284085 246.558438 
L 59.284085 216.637622 
L 49.719347 216.637622 
z
" clip-path="url(#pe789a2d44e)" style="fill: #ef4444; fill-opacity: 0.533333"/>
   </g>
   <g id="patch_37">
    <path d="M 63.383258 246.558438 
L 72.947997 246.558438 
L 72.947997 198.03061 
L 63.383258 198.03061 
z
" clip-path="url(#pe789a2d44e)" style="fill: #22c55e; fill-opacity: 0.533333"/>
   </g>
   <g id="patch_38">
    <path d="M 77.04717 246.558438 
L 86.611909 246.558438 
L 86.611909 203.151541 
L 77.04717 203.151541 
z
" clip-path="url(#pe789a2d44e)" style="fill: #ef4444; fill-opacity: 0.533333"/>
   </g>
   <g id="patch_39">
    <path d="M 90.711082 246.558438 
L 100.27582 246.558438 
L 100.27582 233.388954 
L 90.711082 233.388954 
z
" clip-path="url(#pe789a2d44e)" style="fill: #ef4444; fill-opacity: 0.533333"/>
   </g>
   <g id="patch_40">
    <path d="M 104.374994 246.558438 
L 113.939732 246.558438 
L 113.939732 230.689103 
L 104.374994 230.689103 
z
" clip-path="url(#pe789a2d44e)" style="fill: #22c55e; fill-opacity: 0.533333"/>
   </g>
   <g id="patch_41">
    <path d="M 118.038906 246.558438 
L 127.603644 246.558438 
L 127.603644 195.171587 
L 118.038906 195.171587 
z
" clip-path="url(#pe789a2d44e)" style="fill: #22c55e; fill-opacity: 0.533333"/>
   </g>
   <g id="patch_42">
    <path d="M 131.702818 246.558438 
L 141.267556 246.558438 
L 141.267556 208.226102 
L 131.702818 208.226102 
z
" clip-path="url(#pe789a2d44e)" style="fill: #ef4444; fill-opacity: 0.533333"/>
   </g>
   <g id="patch_43">
    <path d="M 145.36673 246.558438 
L 154.931468 246.558438 
L 154.931468 234.379618 
L 145.36673 234.379618 
z
" clip-path="url(#pe789a2d44e)" style="fill: #22c55e; fill-opacity: 0.533333"/>
   </g>
   <g id="patch_44">
    <path d="M 159.030641 246.558438 
L 168.59538 246.558438 
L 168.59538 234.304371 
L 159.030641 234.304371 
z
" clip-path="url(#pe789a2d44e)" style="fill: #ef4444; fill-opacity: 0.533333"/>
   </g>
   <g id="patch_45">
    <path d="M 172.694553 246.558438 
L 182.259291 246.558438 
L 182.259291 222.797923 
L 172.694553 222.797923 
z
" clip-path="url(#pe789a2d44e)" style="fill: #22c55e; fill-opacity: 0.533333"/>
   </g>
   <g id="patch_46">
    <path d="M 186.358465 246.558438 
L 195.923203 246.558438 
L 195.923203 230.699217 
L 186.358465 230.699217 
z
" clip-path="url(#pe789a2d44e)" style="fill: #ef4444; fill-opacity: 0.533333"/>
   </g>
   <g id="patch_47">
    <path d="M 200.022377 246.558438 
L 209.587115 246.558438 
L 209.587115 199.783591 
L 200.022377 199.783591 
z
" clip-path="url(#pe789a2d44e)" style="fill: #22c55e; fill-opacity: 0.533333"/>
   </g>
   <g id="patch_48">
    <path d="M 213.686289 246.558438 
L 223.251027 246.558438 
L 223.251027 233.117587 
L 213.686289 233.117587 
z
" clip-path="url(#pe789a2d44e)" style="fill: #ef4444; fill-opacity: 0.533333"/>
   </g>
   <g id="patch_49">
    <path d="M 227.350201 246.558438 
L 236.914939 246.558438 
L 236.914939 199.792836 
L 227.350201 199.792836 
z
" clip-path="url(#pe789a2d44e)" style="fill: #ef4444; fill-opacity: 0.533333"/>
   </g>
   <g id="patch_50">
    <path d="M 241.014112 246.558438 
L 250.578851 246.558438 
L 250.578851 195.046242 
L 241.014112 195.046242 
z
" clip-path="url(#pe789a2d44e)" style="fill: #ef4444; fill-opacity: 0.533333"/>
   </g>
   <g id="patch_51">
    <path d="M 254.678024 246.558438 
L 264.242763 246.558438 
L 264.242763 233.907073 
L 254.678024 233.907073 
z
" clip-path="url(#pe789a2d44e)" style="fill: #22c55e; fill-opacity: 0.533333"/>
   </g>
   <g id="patch_52">
    <path d="M 268.341936 246.558438 
L 277.906674 246.558438 
L 277.906674 211.321805 
L 268.341936 211.321805 
z
" clip-path="url(#pe789a2d44e)" style="fill: #22c55e; fill-opacity: 0.533333"/>
   </g>
   <g id="patch_53">
    <path d="M 282.005848 246.558438 
L 291.570586 246.558438 
L 291.570586 226.538493 
L 282.005848 226.538493 
z
" clip-path="url(#pe789a2d44e)" style="fill: #22c55e; fill-opacity: 0.533333"/>
   </g>
   <g id="patch_54">
    <path d="M 295.66976 246.558438 
L 305.234498 246.558438 
L 305.234498 227.824594 
L 295.66976 227.824594 
z
" clip-path="url(#pe789a2d44e)" style="fill: #22c55e; fill-opacity: 0.533333"/>
   </g>
   <g id="patch_55">
    <path d="M 309.333672 246.558438 
L 318.89841 246.558438 
L 318.89841 211.992229 
L 309.333672 211.992229 
z
" clip-path="url(#pe789a2d44e)" style="fill: #ef4444; fill-opacity: 0.533333"/>
   </g>
   <g id="patch_56">
    <path d="M 322.997584 246.558438 
L 332.562322 246.558438 
L 332.562322 218.992523 
L 322.997584 218.992523 
z
" clip-path="url(#pe789a2d44e)" style="fill: #ef4444; fill-opacity: 0.533333"/>
   </g>
   <g id="patch_57">
    <path d="M 336.661495 246.558438 
L 346.226234 246.558438 
L 346.226234 214.77744 
L 336.661495 214.77744 
z
" clip-path="url(#pe789a2d44e)" style="fill: #ef4444; fill-opacity: 0.533333"/>
   </g>
   <g id="patch_58">
    <path d="M 350.325407 246.558438 
L 359.890145 246.558438 
L 359.890145 214.947428 
L 350.325407 214.947428 
z
" clip-path="url(#pe789a2d44e)" style="fill: #ef4444; fill-opacity: 0.533333"/>
   </g>
   <g id="patch_59">
    <path d="M 363.989319 246.558438 
L 373.554057 246.558438 
L 373.554057 204.036345 
L 363.989319 204.036345 
z
" clip-path="url(#pe789a2d44e)" style="fill: #22c55e; fill-opacity: 0.533333"/>
   </g>
   <g id="patch_60">
    <path d="M 377.653231 246.558438 
L 387.217969 246.558438 
L 387.217969 196.637423 
L 377.653231 196.637423 
z
" clip-path="url(#pe789a2d44e)" style="fill: #22c55e; fill-opacity: 0.533333"/>
   </g>
   <g id="patch_61">
    <path d="M 391.317143 246.558438 
L 400.881881 246.558438 
L 400.881881 215.164823 
L 391.317143 215.164823 
z
" clip-path="url(#pe789a2d44e)" style="fill: #ef4444; fill-opacity: 0.533333"/>
   </g>
   <g id="patch_62">
    <path d="M 404.981055 246.558438 
L 414.545793 246.558438 
L 414.545793 201.307912 
L 404.981055 201.307912 
z
" clip-path="url(#pe789a2d44e)" style="fill: #22c55e; fill-opacity: 0.533333"/>
   </g>
   <g id="patch_63">
    <path d="M 418.644966 246.558438 
L 428.209705 246.558438 
L 428.209705 234.56285 
L 418.644966 234.56285 
z
" clip-path="url(#pe789a2d44e)" style="fill: #22c55e; fill-opacity: 0.533333"/>
   </g>
   <g id="patch_64">
    <path d="M 432.308878 246.558438 
L 441.873617 246.558438 
L 441.873617 233.244826 
L 432.308878 233.244826 
z
" clip-path="url(#pe789a2d44e)" style="fill: #22c55e; fill-opacity: 0.533333"/>
   </g>
   <g id="patch_65">
    <path d="M 445.97279 246.558438 
L 455.537528 246.558438 
L 455.537528 221.244286 
L 445.97279 221.244286 
z
" clip-path="url(#pe789a2d44e)" style="fill: #22c55e; fill-opacity: 0.533333"/>
   </g>
   <g id="matplotlib.axis_3">
    <g id="xtick_8">
     <g id="line2d_63">
      <path d="M 54.501716 246.558438 
L 54.501716 192.470633 
" clip-path="url(#pe789a2d44e)" style="fill: none; stroke: #374151; stroke-opacity: 0.1; stroke-width: 0.8; stroke-linecap: square"/>
     </g>
     <g id="line2d_64">
      <g>
       <use xlink:href="#mb8c3d692dc" x="54.501716" y="246.558438" style="fill: #4b5563; stroke: #4b5563; stroke-width: 0.8"/>
      </g>
     </g>
     <g id="text_11">
      <!-- 0 -->
      <g style="fill: #4b5563" transform="translate(52.274841 258.877344) scale(0.07 -0.07)">
       <use xlink:href="#DejaVuSans-30"/>
      </g>
     </g>
    </g>
    <g id="xtick_9">
     <g id="line2d_65">
      <path d="M 122.821275 246.558438 
L 122.821275 192.470633 
" clip-path="url(#pe789a2d44e)" style="fill: none; stroke: #374151; stroke-opacity: 0.1; stroke-width: 0.8; stroke-linecap: square"/>
     </g>
     <g id="line2d_66">
      <g>
       <use xlink:href="#mb8c3d692dc" x="122.821275" y="246.558438" style="fill: #4b5563; stroke: #4b5563; stroke-width: 0.8"/>
      </g>
     </g>
     <g id="text_12">
      <!-- 5 -->
      <g style="fill: #4b5563" transform="translate(120.5944 258.877344) scale(0.07 -0.07)">
       <defs>
        <path id="DejaVuSans-35" d="M 691 4666 
L 3169 4666 
L 3169 4134 
L 1269 4134 
L 1269 2991 
Q 1406 3038 1543 3061 
Q 1681 3084 1819 3084 
Q 2600 3084 3056 2656 
Q 3513 2228 3513 1497 
Q 3513 744 3044 326 
Q 2575 -91 1722 -91 
Q 1428 -91 1123 -41 
Q 819 9 494 109 
L 494 744 
Q 775 591 1075 516 
Q 1375 441 1709 441 
Q 2250 441 2565 725 
Q 2881 1009 2881 1497 
Q 2881 1984 2565 2268 
Q 2250 2553 1709 2553 
Q 1456 2553 1204 2497 
Q 953 2441 691 2322 
L 691 4666 
z
" transform="scale(0.015625)"/>
       </defs>
       <use xlink:href="#DejaVuSans-35"/>
      </g>
     </g>
    </g>
    <g id="xtick_10">
     <g id="line2d_67">
      <path d="M 191.140834 246.558438 
L 191.140834 192.470633 
" clip-path="url(#pe789a2d44e)" style="fill: none; stroke: #374151; stroke-opacity: 0.1; stroke-width: 0.8; stroke-linecap: square"/>
     </g>
     <g id="line2d_68">
      <g>
       <use xlink:href="#mb8c3d692dc" x="191.140834" y="246.558438" style="fill: #4b5563; stroke: #4b5563; stroke-width: 0.8"/>
      </g>
     </g>
     <g id="text_13">
      <!-- 10 -->
      <g style="fill: #4b5563" transform="translate(186.687084 258.877344) scale(0.07 -0.07)">
       <use xlink:href="#DejaVuSans-31"/>
       <use xlink:href="#DejaVuSans-30" transform="translate(63.623047 0)"/>
      </g>
     </g>
    </g>
    <g id="xtick_11">
     <g id="line2d_69">
      <path d="M 259.460393 246.558438 
L 259.460393 192.470633 
" clip-path="url(#pe789a2d44e)" style="fill: none; stroke: #374151; stroke-opacity: 0.1; stroke-width: 0.8; stroke-linecap: square"/>
     </g>
     <g id="line2d_70">
      <g>
       <use xlink:href="#mb8c3d692dc" x="259.460393" y="246.558438" style="fill: #4b5563; stroke: #4b5563; stroke-width: 0.8"/>
      </g>
     </g>
     <g id="text_14">
      <!-- 15 -->
      <g style="fill: #4b5563" transform="translate(255.006643 258.877344) scale(0.07 -0.07)">
       <use xlink:href="#DejaVuSans-31"/>
       <use xlink:href="#DejaVuSans-35" transform="translate(63.623047 0)"/>
      </g>
     </g>
    </g>
    <g id="xtick_12">
     <g id="line2d_71">
      <path d="M 327.779953 246.558438 
L 327.779953 192.470633 
" clip-path="url(#pe789a2d44e)" style="fill: none; stroke: #374151; stroke-opacity: 0.1; stroke-width: 0.8; stroke-linecap: square"/>
     </g>
     <g id="line2d_72">
      <g>
       <use xlink:href="#mb8c3d692dc" x="327.779953" y="246.558438" style="fill: #4b5563; stroke: #4b5563; stroke-width: 0.8"/>
      </g>
     </g>
     <g id="text_15">
      <!-- 20 -->
      <g style="fill: #4b5563" transform="translate(323.326203 258.877344) scale(0.07 -0.07)">
       <use xlink:href="#DejaVuSans-32"/>
       <use xlink:href="#DejaVuSans-30" transform="translate(63.623047 0)"/>
      </g>
     </g>
    </g>
    <g id="xtick_13">
     <g id="line2d_73">
      <path d="M 396.099512 246.558438 
L 396.099512 192.470633 
" clip-path="url(#pe789a2d44e)" style="fill: none; stroke: #374151; stroke-opacity: 0.1; stroke-width: 0.8; stroke-linecap: square"/>
     </g>
     <g id="line2d_74">
      <g>
       <use xlink:href="#mb8c3d692dc" x="396.099512" y="246.558438" style="fill: #4b5563; stroke: #4b5563; stroke-width: 0.8"/>
      </g>
     </g>
     <g id="text_16">
      <!-- 25 -->
      <g style="fill: #4b5563" transform="translate(391.645762 258.877344) scale(0.07 -0.07)">
       <use xlink:href="#DejaVuSans-32"/>
       <use xlink:href="#DejaVuSans-35" transform="translate(63.623047 0)"/>
      </g>
     </g>
    </g>
    <g id="xtick_14">
     <g id="line2d_75">
      <path d="M 464.419071 246.558438 
L 464.419071 192.470633 
" clip-path="url(#pe789a2d44e)" style="fill: none; stroke: #374151; stroke-opacity: 0.1; stroke-width: 0.8; stroke-linecap: square"/>
     </g>
     <g id="line2d_76">
      <g>
       <use xlink:href="#mb8c3d692dc" x="464.419071" y="246.558438" style="fill: #4b5563; stroke: #4b5563; stroke-width: 0.8"/>
      </g>
     </g>
     <g id="text_17">
      <!-- 30 -->
      <g style="fill: #4b5563" transform="translate(459.965321 258.877344) scale(0.07 -0.07)">
       <defs>
        <path id="DejaVuSans-33" d="M 2597 2516 
Q 3050 2419 3304 2112 
Q 3559 1806 3559 1356 
Q 3559 666 3084 287 
Q 2609 -91 1734 -91 
Q 1441 -91 1130 -33 
Q 819 25 488 141 
L 488 750 
Q 750 597 1062 519 
Q 1375 441 1716 441 
Q 2309 441 2620 675 
Q 2931 909 2931 1356 
Q 2931 1769 2642 2001 
Q 2353 2234 1838 2234 
L 1294 2234 
L 1294 2753 
L 1863 2753 
Q 2328 2753 2575 2939 
Q 2822 3125 2822 3475 
Q 2822 3834 2567 4026 
Q 2313 4219 1838 4219 
Q 1578 4219 1281 4162 
Q 984 4106 628 3988 
L 628 4550 
Q 988 4650 1302 4700 
Q 1616 4750 1894 4750 
Q 2613 4750 3031 4423 
Q 3450 4097 3450 3541 
Q 3450 3153 3228 2886 
Q 3006 2619 2597 2516 
z
" transform="scale(0.015625)"/>
       </defs>
       <use xlink:href="#DejaVuSans-33"/>
       <use xlink:href="#DejaVuSans-30" transform="translate(63.623047 0)"/>
      </g>
     </g>
    </g>
   </g>
   <g id="matplotlib.axis_4">
    <g id="ytick_10">
     <g id="line2d_77">
      <path d="M 29.428438 246.558438 
L 475.828437 246.558438 
" clip-path="url(#pe789a2d44e)" style="fill: none; stroke: #374151; stroke-opacity: 0.1; stroke-width: 0.8; stroke-linecap: square"/>
     </g>
     <g id="line2d_78">
      <g>
       <use xlink:href="#m3854e70d64" x="29.428438" y="246.558438" style="fill: #4b5563; stroke: #4b5563; stroke-width: 0.8"/>
      </g>
     </g>
     <g id="text_18">
      <!-- 0 -->
      <g style="fill: #4b5563" transform="translate(17.974688 249.217891) scale(0.07 -0.07)">
       <use xlink:href="#DejaVuSans-30"/>
      </g>
     </g>
    </g>
    <g id="ytick_11">
     <g id="line2d_79">
      <path d="M 29.428438 225.618814 
L 475.828437 225.618814 
" clip-path="url(#pe789a2d44e)" style="fill: none; stroke: #374151; stroke-opacity: 0.1; stroke-width: 0.8; stroke-linecap: square"/>
     </g>
     <g id="line2d_80">
      <g>
       <use xlink:href="#m3854e70d64" x="29.428438" y="225.618814" style="fill: #4b5563; stroke: #4b5563; stroke-width: 0.8"/>
      </g>
     </g>
     <g id="text_19">
      <!-- 2 -->
      <g style="fill: #4b5563" transform="translate(17.974688 228.278268) scale(0.07 -0.07)">
       <use xlink:href="#DejaVuSans-32"/>
      </g>
     </g>
    </g>
    <g id="ytick_12">
     <g id="line2d_81">
      <path d="M 29.428438 204.679191 
L 475.828437 204.679191 
" clip-path="url(#pe789a2d44e)" style="fill: none; stroke: #374151; stroke-opacity: 0.1; stroke-width: 0.8; stroke-linecap: square"/>
     </g>
     <g id="line2d_82">
      <g>
       <use xlink:href="#m3854e70d64" x="29.428438" y="204.679191" style="fill: #4b5563; stroke: #4b5563; stroke-width: 0.8"/>
      </g>
     </g>
     <g id="text_20">
      <!-- 4 -->
      <g style="fill: #4b5563" transform="translate(17.974688 207.338645) scale(0.07 -0.07)">
       <use xlink:href="#DejaVuSans-34"/>
      </g>
     </g>
    </g>
    <g id="text_21">
     <!-- Vol -->
     <g style="fill: #4b5563" transform="translate(12.518906 224.75141) rotate(-90) scale(0.07 -0.07)">
      <defs>
       <path id="DejaVuSans-56" d="M 1831 0 
L 50 4666 
L 709 4666 
L 2188 738 
L 3669 4666 
L 4325 4666 
L 2547 0 
L 1831 0 
z
" transform="scale(0.015625)"/>
       <path id="DejaVuSans-6f" d="M 1959 3097 
Q 1497 3097 1228 2736 
Q 959 2375 959 1747 
Q 959 1119 1226 758 
Q 1494 397 1959 397 
Q 2419 397 2687 759 
Q 2956 1122 2956 1747 
Q 2956 2369 2687 2733 
Q 2419 3097 1959 3097 
z
M 1959 3584 
Q 2709 3584 3137 3096 
Q 3566 2609 3566 1747 
Q 3566 888 3137 398 
Q 2709 -91 1959 -91 
Q 1206 -91 779 398 
Q 353 888 353 1747 
Q 353 2609 779 3096 
Q 1206 3584 1959 3584 
z
" transform="scale(0.015625)"/>
       <path id="DejaVuSans-6c" d="M 603 4863 
L 1178 4863 
L 1178 0 
L 603 0 
L 603 4863 
z
" transform="scale(0.015625)"/>
      </defs>
      <use xlink:href="#DejaVuSans-56"/>
      <use xlink:href="#DejaVuSans-6f" transform="translate(60.658203 0)"/>
      <use xlink:href="#DejaVuSans-6c" transform="translate(121.839844 0)"/>
     </g>
    </g>
    <g id="text_22">
     <!-- 1e6 -->
     <g style="fill: #4b5563" transform="translate(29.428438 189.470633) scale(0.1 -0.1)">
      <defs>
       <path id="DejaVuSans-65" d="M 3597 1894 
L 3597 1613 
L 953 1613 
Q 991 1019 1311 708 
Q 1631 397 2203 397 
Q 2534 397 2845 478 
Q 3156 559 3463 722 
L 3463 178 
Q 3153 47 2828 -22 
Q 2503 -91 2169 -91 
Q 1331 -91 842 396 
Q 353 884 353 1716 
Q 353 2575 817 3079 
Q 1281 3584 2069 3584 
Q 2775 3584 3186 3129 
Q 3597 2675 3597 1894 
z
M 3022 2063 
Q 3016 2534 2758 2815 
Q 2500 3097 2075 3097 
Q 1594 3097 1305 2825 
Q 1016 2553 972 2059 
L 3022 2063 
z
" transform="scale(0.015625)"/>
      </defs>
      <use xlink:href="#DejaVuSans-31"/>
      <use xlink:href="#DejaVuSans-65" transform="translate(63.623047 0)"/>
      <use xlink:href="#DejaVuSans-36" transform="translate(125.146484 0)"/>
     </g>
    </g>
   </g>
   <g id="patch_66">
    <path d="M 29.428438 246.558438 
L 29.428438 192.470633 
" style="fill: none; stroke: #1f2937; stroke-width: 0.8; stroke-linejoin: miter; stroke-linecap: square"/>
   </g>
   <g id="patch_67">
    <path d="M 29.428438 246.558438 
L 475.828438 246.558438 
" style="fill: none; stroke: #1f2937; stroke-width: 0.8; stroke-linejoin: miter; stroke-linecap: square"/>
   </g>
  </g>
 </g>
 <defs>
  <clipPath id="p20afe38ac8">
   <rect x="29.428438" y="24.798438" width="446.4" height="162.263415"/>
  </clipPath>
  <clipPath id="pe789a2d44e">
   <rect x="29.428438" y="192.470633" width="446.4" height="54.087805"/>
  </clipPath>
 </defs>
</svg>
