<?xml version="1.0" encoding="utf-8" standalone="no"?>
<!DOCTYPE svg PUBLIC "-//W3C//DTD SVG 1.1//EN"
  "http://www.w3.org/Graphics/SVG/1.1/DTD/svg11.dtd">
<svg xmlns:xlink="http://www.w3.org/1999/xlink" width="484.6325pt" height="275.020625pt" viewBox="0 0 484.6325 275.020625" xmlns="http://www.w3.org/2000/svg" version="1.1">
 <metadata>
  <rdf:RDF xmlns:dc="http://purl.org/dc/elements/1.1/" xmlns:cc="http://creativecommons.org/ns#" xmlns:rdf="http://www.w3.org/1999/02/22-rdf-syntax-ns#">
   <cc:Work>
    <dc:type rdf:resource="http://purl.org/dc/dcmitype/StillImage"/>
    <dc:date>2026-02-16T09:12:31.792922</dc:date>
    <dc:format>image/svg+xml</dc:format>
    <dc:creator>
     <cc:Agent>
      <dc:title>Matplotlib v3.10.8, https://matplotlib.org/</dc:title>
     </cc:Agent>
    </dc:creator>
   </cc:Work>
  </rdf:RDF>
 </metadata>
 <defs>
  <style type="text/css">*{stroke-linejoin: round; stroke-linecap: butt}</style>
 </defs>
 <g id="figure_1">
  <g id="patch_1">
   <path d="M 0 275.020625 
L 484.6325 275.020625 
L 484.6325 0 
L 0 0 
z
" style="fill: #0a0f1a"/>
  </g>
  <g id="axes_1">
   <g id="patch_2">
    <path d="M 31.0325 193.58154 
L 477.4325 193.58154 
L 477.4325 31.318125 
L 31.0325 31.318125 
z
" style="fill: #0a0f1a"/>
   </g>
   <g id="patch_3">
    <path d="M 40.3925 66.451393 
L 50.4725 66.451393 
Q 50.7605 66.451393 50.7605 66.168973 
L 50.7605 51.551025 
Q 50.7605 51.268605 50.4725 51.268605 
L 40.3925 51.268605 
Q 40.1045 51.268605 40.1045 51.551025 
L 40.1045 66.168973 
Q 40.1045 66.451393 40.3925 66.451393 
z
" clip-path="url(#p2a1ee8ad47)" style="fill: #ef4444; stroke: #ef4444; stroke-linejoin: miter"/>
   </g>
   <g id="patch_4">
    <path d="M 54.7925 65.247731 
L 64.8725 65.247731 
Q 65.1605 65.247731 65.1605 64.965311 
L 65.1605 54.180962 
Q 65.1605 53.898542 64.8725 53.898542 
L 54.7925 53.898542 
Q 54.5045 53.898542 54.5045 54.180962 
L 54.5045 64.965311 
Q 54.5045 65.247731 54.7925 65.247731 
z
" clip-path="url(#p2a1ee8ad47)" style="fill: #ef4444; stroke: #ef4444; stroke-linejoin: miter"/>
   </g>
   <g id="patch_5">
    <path d="M 69.1925 76.345737 
L 79.2725 76.345737 
Q 79.5605 76.345737 79.5605 76.063317 
L 79.5605 57.860708 
Q 79.5605 57.578287 79.2725 57.578287 
L 69.1925 57.578287 
Q 68.9045 57.578287 68.9045 57.860708 
L 68.9045 76.063317 
Q 68.9045 76.345737 69.1925 76.345737 
z
" clip-path="url(#p2a1ee8ad47)" style="fill: #ef4444; stroke: #ef4444; stroke-linejoin: miter"/>
   </g>
   <g id="patch_6">
    <path d="M 83.5925 85.804634 
L 93.6725 85.804634 
Q 93.9605 85.804634 93.9605 85.522214 
L 93.9605 69.208977 
Q 93.9605 68.926557 93.6725 68.926557 
L 83.5925 68.926557 
Q 83.3045 68.926557 83.3045 69.208977 
L 83.3045 85.522214 
Q 83.3045 85.804634 83.5925 85.804634 
z
" clip-path="url(#p2a1ee8ad47)" style="fill: #ef4444; stroke: #ef4444; stroke-linejoin: miter"/>
   </g>
   <g id="patch_7">
    <path d="M 97.9925 71.796944 
L 108.0725 71.796944 
Q 108.3605 71.796944 108.3605 71.514524 
L 108.3605 56.781534 
Q 108.3605 56.499114 108.0725 56.499114 
L 97.9925 56.499114 
Q 97.7045 56.499114 97.7045 56.781534 
L 97.7045 71.514524 
Q 97.7045 71.796944 97.9925 71.796944 
z
" clip-path="url(#p2a1ee8ad47)" style="fill: #ef4444; stroke: #ef4444; stroke-linejoin: miter"/>
   </g>
   <g id="patch_8">
    <path d="M 112.3925 88.582087 
L 122.4725 88.582087 
Q 122.7605 88.582087 122.7605 88.299667 
L 122.7605 72.881606 
Q 122.7605 72.599186 122.4725 72.599186 
L 112.3925 72.599186 
Q 112.1045 72.599186 112.1045 72.881606 
L 112.1045 88.299667 
Q 112.1045 88.582087 112.3925 88.582087 
z
" clip-path="url(#p2a1ee8ad47)" style="fill: #22c55e; stroke: #22c55e; stroke-linejoin: miter"/>
   </g>
   <g id="patch_9">
    <path d="M 126.7925 92.492053 
L 136.8725 92.492053 
Q 137.1605 92.492053 137.1605 92.209633 
L 137.1605 80.795525 
Q 137.1605 80.513105 136.8725 80.513105 
L 126.7925 80.513105 
Q 126.5045 80.513105 126.5045 80.795525 
L 126.5045 92.209633 
Q 126.5045 92.492053 126.7925 92.492053 
z
" clip-path="url(#p2a1ee8ad47)" style="fill: #22c55e; stroke: #22c55e; stroke-linejoin: miter"/>
   </g>
   <g id="patch_10">
    <path d="M 141.1925 98.380676 
L 151.2725 98.380676 
Q 151.5605 98.380676 151.5605 98.098256 
L 151.5605 93.159185 
Q 151.5605 92.876765 151.2725 92.876765 
L 141.1925 92.876765 
Q 140.9045 92.876765 140.9045 93.159185 
L 140.9045 98.098256 
Q 140.9045 98.380676 141.1925 98.380676 
z
" clip-path="url(#p2a1ee8ad47)" style="fill: #22c55e; stroke: #22c55e; stroke-linejoin: miter"/>
   </g>
   <g id="patch_11">
    <path d="M 155.5925 80.525887 
L 165.6725 80.525887 
Q 165.9605 80.525887 165.9605 80.243467 
L 165.9605 61.751494 
Q 165.9605 61.469074 165.6725 61.469074 
L 155.5925 61.469074 
Q 155.3045 61.469074 155.3045 61.751494 
L 155.3045 80.243467 
Q 155.3045 80.525887 155.5925 80.525887 
z
" clip-path="url(#p2a1ee8ad47)" style="fill: #ef4444; stroke: #ef4444; stroke-linejoin: miter"/>
   </g>
   <g id="patch_12">
    <path d="M 169.9925 93.295856 
L 180.0725 93.295856 
Q 180.3605 93.295856 180.3605 93.013436 
L 180.3605 87.413455 
Q 180.3605 87.131035 180.0725 87.131035 
L 169.9925 87.131035 
Q 169.7045 87.131035 169.7045 87.413455 
L 169.7045 93.013436 
Q 169.7045 93.295856 169.9925 93.295856 
z
" clip-path="url(#p2a1ee8ad47)" style="fill: #22c55e; stroke: #22c55e; stroke-linejoin: miter"/>
   </g>
   <g id="patch_13">
    <path d="M 184.3925 88.172454 
L 194.4725 88.172454 
Q 194.7605 88.172454 194.7605 87.890034 
L 194.7605 71.46156 
Q 194.7605 71.17914 194.4725 71.17914 
L 184.3925 71.17914 
Q 184.1045 71.17914 184.1045 71.46156 
L 184.1045 87.890034 
Q 184.1045 88.172454 184.3925 88.172454 
z
" clip-path="url(#p2a1ee8ad47)" style="fill: #ef4444; stroke: #ef4444; stroke-linejoin: miter"/>
   </g>
   <g id="patch_14">
    <path d="M 198.7925 90.250523 
L 208.8725 90.250523 
Q 209.1605 90.250523 209.1605 89.968103 
L 209.1605 81.511004 
Q 209.1605 81.228584 208.8725 81.228584 
L 198.7925 81.228584 
Q 198.5045 81.228584 198.5045 81.511004 
L 198.5045 89.968103 
Q 198.5045 90.250523 198.7925 90.250523 
z
" clip-path="url(#p2a1ee8ad47)" style="fill: #ef4444; stroke: #ef4444; stroke-linejoin: miter"/>
   </g>
   <g id="patch_15">
    <path d="M 213.1925 80.934251 
L 223.2725 80.934251 
Q 223.5605 80.934251 223.5605 80.651831 
L 223.5605 60.12631 
Q 223.5605 59.84389 223.2725 59.84389 
L 213.1925 59.84389 
Q 212.9045 59.84389 212.9045 60.12631 
L 212.9045 80.651831 
Q 212.9045 80.934251 213.1925 80.934251 
z
" clip-path="url(#p2a1ee8ad47)" style="fill: #ef4444; stroke: #ef4444; stroke-linejoin: miter"/>
   </g>
   <g id="patch_16">
    <path d="M 227.5925 78.133448 
L 237.6725 78.133448 
Q 237.9605 78.133448 237.9605 77.851028 
L 237.9605 64.245699 
Q 237.9605 63.963278 237.6725 63.963278 
L 227.5925 63.963278 
Q 227.3045 63.963278 227.3045 64.245699 
L 227.3045 77.851028 
Q 227.3045 78.133448 227.5925 78.133448 
z
" clip-path="url(#p2a1ee8ad47)" style="fill: #ef4444; stroke: #ef4444; stroke-linejoin: miter"/>
   </g>
   <g id="patch_17">
    <path d="M 241.9925 95.359751 
L 252.0725 95.359751 
Q 252.3605 95.359751 252.3605 95.077331 
L 252.3605 82.914431 
Q 252.3605 82.632011 252.0725 82.632011 
L 241.9925 82.632011 
Q 241.7045 82.632011 241.7045 82.914431 
L 241.7045 95.077331 
Q 241.7045 95.359751 241.9925 95.359751 
z
" clip-path="url(#p2a1ee8ad47)" style="fill: #22c55e; stroke: #22c55e; stroke-linejoin: miter"/>
   </g>
   <g id="patch_18">
    <path d="M 256.3925 76.877662 
L 266.4725 76.877662 
Q 266.7605 76.877662 266.7605 76.595242 
L 266.7605 55.779028 
Q 266.7605 55.496608 266.4725 55.496608 
L 256.3925 55.496608 
Q 256.1045 55.496608 256.1045 55.779028 
L 256.1045 76.595242 
Q 256.1045 76.877662 256.3925 76.877662 
z
" clip-path="url(#p2a1ee8ad47)" style="fill: #22c55e; stroke: #22c55e; stroke-linejoin: miter"/>
   </g>
   <g id="patch_19">
    <path d="M 270.7925 83.7164 
L 280.8725 83.7164 
Q 281.1605 83.7164 281.1605 83.433979 
L 281.1605 65.607422 
Q 281.1605 65.325002 280.8725 65.325002 
L 270.7925 65.325002 
Q 270.5045 65.325002 270.5045 65.607422 
L 270.5045 83.433979 
Q 270.5045 83.7164 270.7925 83.7164 
z
" clip-path="url(#p2a1ee8ad47)" style="fill: #22c55e; stroke: #22c55e; stroke-linejoin: miter"/>
   </g>
   <g id="patch_20">
    <path d="M 285.1925 94.138263 
L 295.2725 94.138263 
Q 295.5605 94.138263 295.5605 93.855843 
L 295.5605 88.913753 
Q 295.5605 88.631333 295.2725 88.631333 
L 285.1925 88.631333 
Q 284.9045 88.631333 284.9045 88.913753 
L 284.9045 93.855843 
Q 284.9045 94.138263 285.1925 94.138263 
z
" clip-path="url(#p2a1ee8ad47)" style="fill: #22c55e; stroke: #22c55e; stroke-linejoin: miter"/>
   </g>
   <g id="patch_21">
    <path d="M 299.5925 89.367184 
L 309.6725 89.367184 
Q 309.9605 89.367184 309.9605 89.084764 
L 309.9605 84.216963 
Q 309.9605 83.934543 309.6725 83.934543 
L 299.5925 83.934543 
Q 299.3045 83.934543 299.3045 84.216963 
L 299.3045 89.084764 
Q 299.3045 89.367184 299.5925 89.367184 
z
" clip-path="url(#p2a1ee8ad47)" style="fill: #22c55e; stroke: #22c55e; stroke-linejoin: miter"/>
   </g>
   <g id="patch_22">
    <path d="M 313.9925 77.766987 
L 324.0725 77.766987 
Q 324.3605 77.766987 324.3605 77.484567 
L 324.3605 64.869374 
Q 324.3605 64.586954 324.0725 64.586954 
L 313.9925 64.586954 
Q 313.7045 64.586954 313.7045 64.869374 
L 313.7045 77.484567 
Q 313.7045 77.766987 313.9925 77.766987 
z
" clip-path="url(#p2a1ee8ad47)" style="fill: #22c55e; stroke: #22c55e; stroke-linejoin: miter"/>
   </g>
   <g id="patch_23">
    <path d="M 328.3925 72.271025 
L 338.4725 72.271025 
Q 338.7605 72.271025 338.7605 71.988605 
L 338.7605 65.626327 
Q 338.7605 65.343907 338.4725 65.343907 
L 328.3925 65.343907 
Q 328.1045 65.343907 328.1045 65.626327 
L 328.1045 71.988605 
Q 328.1045 72.271025 328.3925 72.271025 
z
" clip-path="url(#p2a1ee8ad47)" style="fill: #ef4444; stroke: #ef4444; stroke-linejoin: miter"/>
   </g>
   <g id="patch_24">
    <path d="M 342.7925 75.853971 
L 352.8725 75.853971 
Q 353.1605 75.853971 353.1605 75.571551 
L 353.1605 58.192935 
Q 353.1605 57.910515 352.8725 57.910515 
L 342.7925 57.910515 
Q 342.5045 57.910515 342.5045 58.192935 
L 342.5045 75.571551 
Q 342.5045 75.853971 342.7925 75.853971 
z
" clip-path="url(#p2a1ee8ad47)" style="fill: #22c55e; stroke: #22c55e; stroke-linejoin: miter"/>
   </g>
   <g id="patch_25">
    <path d="M 357.1925 80.549005 
L 367.2725 80.549005 
Q 367.5605 80.549005 367.5605 80.266585 
L 367.5605 64.770548 
Q 367.5605 64.488128 367.2725 64.488128 
L 357.1925 64.488128 
Q 356.9045 64.488128 356.9045 64.770548 
L 356.9045 80.266585 
Q 356.9045 80.549005 357.1925 80.549005 
z
" clip-path="url(#p2a1ee8ad47)" style="fill: #ef4444; stroke: #ef4444; stroke-linejoin: miter"/>
   </g>
   <g id="patch_26">
    <path d="M 371.5925 85.482998 
L 381.6725 85.482998 
Q 381.9605 85.482998 381.9605 85.200578 
L 381.9605 73.412601 
Q 381.9605 73.130181 381.6725 73.130181 
L 371.5925 73.130181 
Q 371.3045 73.130181 371.3045 73.412601 
L 371.3045 85.200578 
Q 371.3045 85.482998 371.5925 85.482998 
z
" clip-path="url(#p2a1ee8ad47)" style="fill: #22c55e; stroke: #22c55e; stroke-linejoin: miter"/>
   </g>
   <g id="patch_27">
    <path d="M 385.9925 117.848831 
L 396.0725 117.848831 
Q 396.3605 117.848831 396.3605 117.56641 
L 396.3605 102.127734 
Q 396.3605 101.845314 396.0725 101.845314 
L 385.9925 101.845314 
Q 385.7045 101.845314 385.7045 102.127734 
L 385.7045 117.56641 
Q 385.7045 117.848831 385.9925 117.848831 
z
" clip-path="url(#p2a1ee8ad47)" style="fill: #22c55e; stroke: #22c55e; stroke-linejoin: miter"/>
   </g>
   <g id="patch_28">
    <path d="M 400.3925 135.208249 
L 410.4725 135.208249 
Q 410.7605 135.208249 410.7605 134.925829 
L 410.7605 121.305132 
Q 410.7605 121.022712 410.4725 121.022712 
L 400.3925 121.022712 
Q 400.1045 121.022712 400.1045 121.305132 
L 400.1045 134.925829 
Q 400.1045 135.208249 400.3925 135.208249 
z
" clip-path="url(#p2a1ee8ad47)" style="fill: #22c55e; stroke: #22c55e; stroke-linejoin: miter"/>
   </g>
   <g id="patch_29">
    <path d="M 414.7925 165.837114 
L 424.8725 165.837114 
Q 425.1605 165.837114 425.1605 165.554694 
L 425.1605 146.025034 
Q 425.1605 145.742614 424.8725 145.742614 
L 414.7925 145.742614 
Q 414.5045 145.742614 414.5045 146.025034 
L 414.5045 165.554694 
Q 414.5045 165.837114 414.7925 165.837114 
z
" clip-path="url(#p2a1ee8ad47)" style="fill: #22c55e; stroke: #22c55e; stroke-linejoin: miter"/>
   </g>
   <g id="patch_30">
    <path d="M 429.1925 166.905758 
L 439.2725 166.905758 
Q 439.5605 166.905758 439.5605 166.623338 
L 439.5605 161.480959 
Q 439.5605 161.198539 439.2725 161.198539 
L 429.1925 161.198539 
Q 428.9045 161.198539 428.9045 161.480959 
L 428.9045 166.623338 
Q 428.9045 166.905758 429.1925 166.905758 
z
" clip-path="url(#p2a1ee8ad47)" style="fill: #22c55e; stroke: #22c55e; stroke-linejoin: miter"/>
   </g>
   <g id="patch_31">
    <path d="M 443.5925 165.597801 
L 453.6725 165.597801 
Q 453.9605 165.597801 453.9605 165.315381 
L 453.9605 155.782158 
Q 453.9605 155.499738 453.6725 155.499738 
L 443.5925 155.499738 
Q 443.3045 155.499738 443.3045 155.782158 
L 443.3045 165.315381 
Q 443.3045 165.597801 443.5925 165.597801 
z
" clip-path="url(#p2a1ee8ad47)" style="fill: #22c55e; stroke: #22c55e; stroke-linejoin: miter"/>
   </g>
   <g id="patch_32">
    <path d="M 457.9925 169.329514 
L 468.0725 169.329514 
Q 468.3605 169.329514 468.3605 169.047093 
L 468.3605 161.219029 
Q 468.3605 160.936609 468.0725 160.936609 
L 457.9925 160.936609 
Q 457.7045 160.936609 457.7045 161.219029 
L 457.7045 169.047093 
Q 457.7045 169.329514 457.9925 169.329514 
z
" clip-path="url(#p2a1ee8ad47)" style="fill: #ef4444; stroke: #ef4444; stroke-linejoin: miter"/>
   </g>
   <g id="matplotlib.axis_1">
    <g id="xtick_1">
     <g id="line2d_1">
      <path d="M 45.4325 193.58154 
L 45.4325 31.318125 
" clip-path="url(#p2a1ee8ad47)" style="fill: none; stroke-dasharray: 2.96,1.28; stroke-dashoffset: 0; stroke: #374151; stroke-opacity: 0.1; stroke-width: 0.8"/>
     </g>
     <g id="line2d_2">
      <defs>
       <path id="m9948100fb3" d="M 0 0 
L 0 3.5 
" style="stroke: #9ca3af; stroke-width: 0.8"/>
      </defs>
      <g>
       <use xlink:href="#m9948100fb3" x="45.4325" y="193.58154" style="fill: #9ca3af; stroke: #9ca3af; stroke-width: 0.8"/>
      </g>
     </g>
    </g>
    <g id="xtick_2">
     <g id="line2d_3">
      <path d="M 117.4325 193.58154 
L 117.4325 31.318125 
" clip-path="url(#p2a1ee8ad47)" style="fill: none; stroke-dasharray: 2.96,1.28; stroke-dashoffset: 0; stroke: #374151; stroke-opacity: 0.1; stroke-width: 0.8"/>
     </g>
     <g id="line2d_4">
      <g>
       <use xlink:href="#m9948100fb3" x="117.4325" y="193.58154" style="fill: #9ca3af; stroke: #9ca3af; stroke-width: 0.8"/>
      </g>
     </g>
    </g>
    <g id="xtick_3">
     <g id="line2d_5">
      <path d="M 189.4325 193.58154 
L 189.4325 31.318125 
" clip-path="url(#p2a1ee8ad47)" style="fill: none; stroke-dasharray: 2.96,1.28; stroke-dashoffset: 0; stroke: #374151; stroke-opacity: 0.1; stroke-width: 0.8"/>
     </g>
     <g id="line2d_6">
      <g>
       <use xlink:href="#m9948100fb3" x="189.4325" y="193.58154" style="fill: #9ca3af; stroke: #9ca3af; stroke-width: 0.8"/>
      </g>
     </g>
    </g>
    <g id="xtick_4">
     <g id="line2d_7">
      <path d="M 261.4325 193.58154 
L 261.4325 31.318125 
" clip-path="url(#p2a1ee8ad47)" style="fill: none; stroke-dasharray: 2.96,1.28; stroke-dashoffset: 0; stroke: #374151; stroke-opacity: 0.1; stroke-width: 0.8"/>
     </g>
     <g id="line2d_8">
      <g>
       <use xlink:href="#m9948100fb3" x="261.4325" y="193.58154" style="fill: #9ca3af; stroke: #9ca3af; stroke-width: 0.8"/>
      </g>
     </g>
    </g>
    <g id="xtick_5">
     <g id="line2d_9">
      <path d="M 333.4325 193.58154 
L 333.4325 31.318125 
" clip-path="url(#p2a1ee8ad47)" style="fill: none; stroke-dasharray: 2.96,1.28; stroke-dashoffset: 0; stroke: #374151; stroke-opacity: 0.1; stroke-width: 0.8"/>
     </g>
     <g id="line2d_10">
      <g>
       <use xlink:href="#m9948100fb3" x="333.4325" y="193.58154" style="fill: #9ca3af; stroke: #9ca3af; stroke-width: 0.8"/>
      </g>
     </g>
    </g>
    <g id="xtick_6">
     <g id="line2d_11">
      <path d="M 405.4325 193.58154 
L 405.4325 31.318125 
" clip-path="url(#p2a1ee8ad47)" style="fill: none; stroke-dasharray: 2.96,1.28; stroke-dashoffset: 0; stroke: #374151; stroke-opacity: 0.1; stroke-width: 0.8"/>
     </g>
     <g id="line2d_12">
      <g>
       <use xlink:href="#m9948100fb3" x="405.4325" y="193.58154" style="fill: #9ca3af; stroke: #9ca3af; stroke-width: 0.8"/>
      </g>
     </g>
    </g>
    <g id="xtick_7">
     <g id="line2d_13">
      <path d="M 477.4325 193.58154 
L 477.4325 31.318125 
" clip-path="url(#p2a1ee8ad47)" style="fill: none; stroke-dasharray: 2.96,1.28; stroke-dashoffset: 0; stroke: #374151; stroke-opacity: 0.1; stroke-width: 0.8"/>
     </g>
     <g id="line2d_14">
      <g>
       <use xlink:href="#m9948100fb3" x="477.4325" y="193.58154" style="fill: #9ca3af; stroke: #9ca3af; stroke-width: 0.8"/>
      </g>
     </g>
    </g>
   </g>
   <g id="matplotlib.axis_2">
    <g id="ytick_1">
     <g id="line2d_15">
      <path d="M 31.0325 171.828042 
L 477.4325 171.828042 
" clip-path="url(#p2a1ee8ad47)" style="fill: none; stroke-dasharray: 2.96,1.28; stroke-dashoffset: 0; stroke: #374151; stroke-opacity: 0.1; stroke-width: 0.8"/>
     </g>
     <g id="line2d_16">
      <defs>
       <path id="m5dc7bcafbc" d="M 0 0 
L -3.5 0 
" style="stroke: #9ca3af; stroke-width: 0.8"/>
      </defs>
      <g>
       <use xlink:href="#m5dc7bcafbc" x="31.0325" y="171.828042" style="fill: #9ca3af; stroke: #9ca3af; stroke-width: 0.8"/>
      </g>
     </g>
     <g id="text_1">
      <!-- 92 -->
      <g style="fill: #9ca3af" transform="translate(13.8525 174.867417) scale(0.08 -0.08)">
       <defs>
        <path id="DejaVuSans-39" d="M 703 97 
L 703 672 
Q 941 559 1184 500 
Q 1428 441 1663 441 
Q 2288 441 2617 861 
Q 2947 1281 2994 2138 
Q 2813 1869 2534 1725 
Q 2256 1581 1919 1581 
Q 1219 1581 811 2004 
Q 403 2428 403 3163 
Q 403 3881 828 4315 
Q 1253 4750 1959 4750 
Q 2769 4750 3195 4129 
Q 3622 3509 3622 2328 
Q 3622 1225 3098 567 
Q 2575 -91 1691 -91 
Q 1453 -91 1209 -44 
Q 966 3 703 97 
z
M 1959 2075 
Q 2384 2075 2632 2365 
Q 2881 2656 2881 3163 
Q 2881 3666 2632 3958 
Q 2384 4250 1959 4250 
Q 1534 4250 1286 3958 
Q 1038 3666 1038 3163 
Q 1038 2656 1286 2365 
Q 1534 2075 1959 2075 
z
" transform="scale(0.015625)"/>
        <path id="DejaVuSans-32" d="M 1228 531 
L 3431 531 
L 3431 0 
L 469 0 
L 469 531 
Q 828 903 1448 1529 
Q 2069 2156 2228 2338 
Q 2531 2678 2651 2914 
Q 2772 3150 2772 3378 
Q 2772 3750 2511 3984 
Q 2250 4219 1831 4219 
Q 1534 4219 1204 4116 
Q 875 4013 500 3803 
L 500 4441 
Q 881 4594 1212 4672 
Q 1544 4750 1819 4750 
Q 2544 4750 2975 4387 
Q 3406 4025 3406 3419 
Q 3406 3131 3298 2873 
Q 3191 2616 2906 2266 
Q 2828 2175 2409 1742 
Q 1991 1309 1228 531 
z
" transform="scale(0.015625)"/>
       </defs>
       <use xlink:href="#DejaVuSans-39"/>
       <use xlink:href="#DejaVuSans-32" transform="translate(63.623047 0)"/>
      </g>
     </g>
    </g>
    <g id="ytick_2">
     <g id="line2d_17">
      <path d="M 31.0325 143.586031 
L 477.4325 143.586031 
" clip-path="url(#p2a1ee8ad47)" style="fill: none; stroke-dasharray: 2.96,1.28; stroke-dashoffset: 0; stroke: #374151; stroke-opacity: 0.1; stroke-width: 0.8"/>
     </g>
     <g id="line2d_18">
      <g>
       <use xlink:href="#m5dc7bcafbc" x="31.0325" y="143.586031" style="fill: #9ca3af; stroke: #9ca3af; stroke-width: 0.8"/>
      </g>
     </g>
     <g id="text_2">
      <!-- 94 -->
      <g style="fill: #9ca3af" transform="translate(13.8525 146.625406) scale(0.08 -0.08)">
       <defs>
        <path id="DejaVuSans-34" d="M 2419 4116 
L 825 1625 
L 2419 1625 
L 2419 4116 
z
M 2253 4666 
L 3047 4666 
L 3047 1625 
L 3713 1625 
L 3713 1100 
L 3047 1100 
L 3047 0 
L 2419 0 
L 2419 1100 
L 313 1100 
L 313 1709 
L 2253 4666 
z
" transform="scale(0.015625)"/>
       </defs>
       <use xlink:href="#DejaVuSans-39"/>
       <use xlink:href="#DejaVuSans-34" transform="translate(63.623047 0)"/>
      </g>
     </g>
    </g>
    <g id="ytick_3">
     <g id="line2d_19">
      <path d="M 31.0325 115.34402 
L 477.4325 115.34402 
" clip-path="url(#p2a1ee8ad47)" style="fill: none; stroke-dasharray: 2.96,1.28; stroke-dashoffset: 0; stroke: #374151; stroke-opacity: 0.1; stroke-width: 0.8"/>
     </g>
     <g id="line2d_20">
      <g>
       <use xlink:href="#m5dc7bcafbc" x="31.0325" y="115.34402" style="fill: #9ca3af; stroke: #9ca3af; stroke-width: 0.8"/>
      </g>
     </g>
     <g id="text_3">
      <!-- 96 -->
      <g style="fill: #9ca3af" transform="translate(13.8525 118.383395) scale(0.08 -0.08)">
       <defs>
        <path id="DejaVuSans-36" d="M 2113 2584 
Q 1688 2584 1439 2293 
Q 1191 2003 1191 1497 
Q 1191 994 1439 701 
Q 1688 409 2113 409 
Q 2538 409 2786 701 
Q 3034 994 3034 1497 
Q 3034 2003 2786 2293 
Q 2538 2584 2113 2584 
z
M 3366 4563 
L 3366 3988 
Q 3128 4100 2886 4159 
Q 2644 4219 2406 4219 
Q 1781 4219 1451 3797 
Q 1122 3375 1075 2522 
Q 1259 2794 1537 2939 
Q 1816 3084 2150 3084 
Q 2853 3084 3261 2657 
Q 3669 2231 3669 1497 
Q 3669 778 3244 343 
Q 2819 -91 2113 -91 
Q 1303 -91 875 529 
Q 447 1150 447 2328 
Q 447 3434 972 4092 
Q 1497 4750 2381 4750 
Q 2619 4750 2861 4703 
Q 3103 4656 3366 4563 
z
" transform="scale(0.015625)"/>
       </defs>
       <use xlink:href="#DejaVuSans-39"/>
       <use xlink:href="#DejaVuSans-36" transform="translate(63.623047 0)"/>
      </g>
     </g>
    </g>
    <g id="ytick_4">
     <g id="line2d_21">
      <path d="M 31.0325 87.10201 
L 477.4325 87.10201 
" clip-path="url(#p2a1ee8ad47)" style="fill: none; stroke-dasharray: 2.96,1.28; stroke-dashoffset: 0; stroke: #374151; stroke-opacity: 0.1; stroke-width: 0.8"/>
     </g>
     <g id="line2d_22">
      <g>
       <use xlink:href="#m5dc7bcafbc" x="31.0325" y="87.10201" style="fill: #9ca3af; stroke: #9ca3af; stroke-width: 0.8"/>
      </g>
     </g>
     <g id="text_4">
      <!-- 98 -->
      <g style="fill: #9ca3af" transform="translate(13.8525 90.141385) scale(0.08 -0.08)">
       <defs>
        <path id="DejaVuSans-38" d="M 2034 2216 
Q 1584 2216 1326 1975 
Q 1069 1734 1069 1313 
Q 1069 891 1326 650 
Q 1584 409 2034 409 
Q 2484 409 2743 651 
Q 3003 894 3003 1313 
Q 3003 1734 2745 1975 
Q 2488 2216 2034 2216 
z
M 1403 2484 
Q 997 2584 770 2862 
Q 544 3141 544 3541 
Q 544 4100 942 4425 
Q 1341 4750 2034 4750 
Q 2731 4750 3128 4425 
Q 3525 4100 3525 3541 
Q 3525 3141 3298 2862 
Q 3072 2584 2669 2484 
Q 3125 2378 3379 2068 
Q 3634 1759 3634 1313 
Q 3634 634 3220 271 
Q 2806 -91 2034 -91 
Q 1263 -91 848 271 
Q 434 634 434 1313 
Q 434 1759 690 2068 
Q 947 2378 1403 2484 
z
M 1172 3481 
Q 1172 3119 1398 2916 
Q 1625 2713 2034 2713 
Q 2441 2713 2670 2916 
Q 2900 3119 2900 3481 
Q 2900 3844 2670 4047 
Q 2441 4250 2034 4250 
Q 1625 4250 1398 4047 
Q 1172 3844 1172 3481 
z
" transform="scale(0.015625)"/>
       </defs>
       <use xlink:href="#DejaVuSans-39"/>
       <use xlink:href="#DejaVuSans-38" transform="translate(63.623047 0)"/>
      </g>
     </g>
    </g>
    <g id="ytick_5">
     <g id="line2d_23">
      <path d="M 31.0325 58.859999 
L 477.4325 58.859999 
" clip-path="url(#p2a1ee8ad47)" style="fill: none; stroke-dasharray: 2.96,1.28; stroke-dashoffset: 0; stroke: #374151; stroke-opacity: 0.1; stroke-width: 0.8"/>
     </g>
     <g id="line2d_24">
      <g>
       <use xlink:href="#m5dc7bcafbc" x="31.0325" y="58.859999" style="fill: #9ca3af; stroke: #9ca3af; stroke-width: 0.8"/>
      </g>
     </g>
     <g id="text_5">
      <!-- 100 -->
      <g style="fill: #9ca3af" transform="translate(8.7625 61.899374) scale(0.08 -0.08)">
       <defs>
        <path id="DejaVuSans-31" d="M 794 531 
L 1825 531 
L 1825 4091 
L 703 3866 
L 703 4441 
L 1819 4666 
L 2450 4666 
L 2450 531 
L 3481 531 
L 3481 0 
L 794 0 
L 794 531 
z
" transform="scale(0.015625)"/>
        <path id="DejaVuSans-30" d="M 2034 4250 
Q 1547 4250 1301 3770 
Q 1056 3291 1056 2328 
Q 1056 1369 1301 889 
Q 1547 409 2034 409 
Q 2525 409 2770 889 
Q 3016 1369 3016 2328 
Q 3016 3291 2770 3770 
Q 2525 4250 2034 4250 
z
M 2034 4750 
Q 2819 4750 3233 4129 
Q 3647 3509 3647 2328 
Q 3647 1150 3233 529 
Q 2819 -91 2034 -91 
Q 1250 -91 836 529 
Q 422 1150 422 2328 
Q 422 3509 836 4129 
Q 1250 4750 2034 4750 
z
" transform="scale(0.015625)"/>
       </defs>
       <use xlink:href="#DejaVuSans-31"/>
       <use xlink:href="#DejaVuSans-30" transform="translate(63.623047 0)"/>
       <use xlink:href="#DejaVuSans-30" transform="translate(127.246094 0)"/>
      </g>
     </g>
    </g>
   </g>
   <g id="line2d_25">
    <path d="M 45.4325 68.825261 
L 45.4325 44.840076 
" clip-path="url(#p2a1ee8ad47)" style="fill: none; stroke: #ef4444; stroke-width: 1.5; stroke-linecap: square"/>
   </g>
   <g id="line2d_26">
    <path d="M 59.8325 72.088191 
L 59.8325 46.760119 
" clip-path="url(#p2a1ee8ad47)" style="fill: none; stroke: #ef4444; stroke-width: 1.5; stroke-linecap: square"/>
   </g>
   <g id="line2d_27">
    <path d="M 74.2325 79.427549 
L 74.2325 46.655611 
" clip-path="url(#p2a1ee8ad47)" style="fill: none; stroke: #ef4444; stroke-width: 1.5; stroke-linecap: square"/>
   </g>
   <g id="line2d_28">
    <path d="M 88.6325 90.125058 
L 88.6325 62.66405 
" clip-path="url(#p2a1ee8ad47)" style="fill: none; stroke: #ef4444; stroke-width: 1.5; stroke-linecap: square"/>
   </g>
   <g id="line2d_29">
    <path d="M 103.0325 73.723826 
L 103.0325 47.935874 
" clip-path="url(#p2a1ee8ad47)" style="fill: none; stroke: #ef4444; stroke-width: 1.5; stroke-linecap: square"/>
   </g>
   <g id="line2d_30">
    <path d="M 117.4325 90.916705 
L 117.4325 65.219012 
" clip-path="url(#p2a1ee8ad47)" style="fill: none; stroke: #22c55e; stroke-width: 1.5; stroke-linecap: square"/>
   </g>
   <g id="line2d_31">
    <path d="M 131.8325 99.870297 
L 131.8325 74.131913 
" clip-path="url(#p2a1ee8ad47)" style="fill: none; stroke: #22c55e; stroke-width: 1.5; stroke-linecap: square"/>
   </g>
   <g id="line2d_32">
    <path d="M 146.2325 107.451546 
L 146.2325 85.970429 
" clip-path="url(#p2a1ee8ad47)" style="fill: none; stroke: #22c55e; stroke-width: 1.5; stroke-linecap: square"/>
   </g>
   <g id="line2d_33">
    <path d="M 160.6325 88.658874 
L 160.6325 58.838742 
" clip-path="url(#p2a1ee8ad47)" style="fill: none; stroke: #ef4444; stroke-width: 1.5; stroke-linecap: square"/>
   </g>
   <g id="line2d_34">
    <path d="M 175.0325 97.173395 
L 175.0325 80.197402 
" clip-path="url(#p2a1ee8ad47)" style="fill: none; stroke: #22c55e; stroke-width: 1.5; stroke-linecap: square"/>
   </g>
   <g id="line2d_35">
    <path d="M 189.4325 96.494904 
L 189.4325 61.972532 
" clip-path="url(#p2a1ee8ad47)" style="fill: none; stroke: #ef4444; stroke-width: 1.5; stroke-linecap: square"/>
   </g>
   <g id="line2d_36">
    <path d="M 203.8325 91.763489 
L 203.8325 73.849079 
" clip-path="url(#p2a1ee8ad47)" style="fill: none; stroke: #ef4444; stroke-width: 1.5; stroke-linecap: square"/>
   </g>
   <g id="line2d_37">
    <path d="M 218.2325 83.016475 
L 218.2325 54.35694 
" clip-path="url(#p2a1ee8ad47)" style="fill: none; stroke: #ef4444; stroke-width: 1.5; stroke-linecap: square"/>
   </g>
   <g id="line2d_38">
    <path d="M 232.6325 85.077174 
L 232.6325 62.40659 
" clip-path="url(#p2a1ee8ad47)" style="fill: none; stroke: #ef4444; stroke-width: 1.5; stroke-linecap: square"/>
   </g>
   <g id="line2d_39">
    <path d="M 247.0325 99.525492 
L 247.0325 80.670646 
" clip-path="url(#p2a1ee8ad47)" style="fill: none; stroke: #22c55e; stroke-width: 1.5; stroke-linecap: square"/>
   </g>
   <g id="line2d_40">
    <path d="M 261.4325 83.308074 
L 261.4325 49.259186 
" clip-path="url(#p2a1ee8ad47)" style="fill: none; stroke: #22c55e; stroke-width: 1.5; stroke-linecap: square"/>
   </g>
   <g id="line2d_41">
    <path d="M 275.8325 85.863102 
L 275.8325 60.562083 
" clip-path="url(#p2a1ee8ad47)" style="fill: none; stroke: #22c55e; stroke-width: 1.5; stroke-linecap: square"/>
   </g>
   <g id="line2d_42">
    <path d="M 290.2325 102.409071 
L 290.2325 80.496612 
" clip-path="url(#p2a1ee8ad47)" style="fill: none; stroke: #22c55e; stroke-width: 1.5; stroke-linecap: square"/>
   </g>
   <g id="line2d_43">
    <path d="M 304.6325 90.896626 
L 304.6325 80.832784 
" clip-path="url(#p2a1ee8ad47)" style="fill: none; stroke: #22c55e; stroke-width: 1.5; stroke-linecap: square"/>
   </g>
   <g id="line2d_44">
    <path d="M 319.0325 83.05962 
L 319.0325 62.888213 
" clip-path="url(#p2a1ee8ad47)" style="fill: none; stroke: #22c55e; stroke-width: 1.5; stroke-linecap: square"/>
   </g>
   <g id="line2d_45">
    <path d="M 333.4325 79.226824 
L 333.4325 59.083409 
" clip-path="url(#p2a1ee8ad47)" style="fill: none; stroke: #ef4444; stroke-width: 1.5; stroke-linecap: square"/>
   </g>
   <g id="line2d_46">
    <path d="M 347.8325 82.387738 
L 347.8325 52.750835 
" clip-path="url(#p2a1ee8ad47)" style="fill: none; stroke: #22c55e; stroke-width: 1.5; stroke-linecap: square"/>
   </g>
   <g id="line2d_47">
    <path d="M 362.2325 89.492009 
L 362.2325 54.519561 
" clip-path="url(#p2a1ee8ad47)" style="fill: none; stroke: #ef4444; stroke-width: 1.5; stroke-linecap: square"/>
   </g>
   <g id="line2d_48">
    <path d="M 376.6325 88.467614 
L 376.6325 62.954728 
" clip-path="url(#p2a1ee8ad47)" style="fill: none; stroke: #22c55e; stroke-width: 1.5; stroke-linecap: square"/>
   </g>
   <g id="line2d_49">
    <path d="M 391.0325 119.160963 
L 391.0325 100.649995 
" clip-path="url(#p2a1ee8ad47)" style="fill: none; stroke: #22c55e; stroke-width: 1.5; stroke-linecap: square"/>
   </g>
   <g id="line2d_50">
    <path d="M 405.4325 142.917046 
L 405.4325 119.689124 
" clip-path="url(#p2a1ee8ad47)" style="fill: none; stroke: #22c55e; stroke-width: 1.5; stroke-linecap: square"/>
   </g>
   <g id="line2d_51">
    <path d="M 419.8325 171.996497 
L 419.8325 140.460599 
" clip-path="url(#p2a1ee8ad47)" style="fill: none; stroke: #22c55e; stroke-width: 1.5; stroke-linecap: square"/>
   </g>
   <g id="line2d_52">
    <path d="M 434.2325 174.956019 
L 434.2325 154.305176 
" clip-path="url(#p2a1ee8ad47)" style="fill: none; stroke: #22c55e; stroke-width: 1.5; stroke-linecap: square"/>
   </g>
   <g id="line2d_53">
    <path d="M 448.6325 172.80012 
L 448.6325 152.368183 
" clip-path="url(#p2a1ee8ad47)" style="fill: none; stroke: #22c55e; stroke-width: 1.5; stroke-linecap: square"/>
   </g>
   <g id="line2d_54">
    <path d="M 463.0325 180.059588 
L 463.0325 153.315549 
" clip-path="url(#p2a1ee8ad47)" style="fill: none; stroke: #ef4444; stroke-width: 1.5; stroke-linecap: square"/>
   </g>
   <g id="patch_33">
    <path d="M 31.0325 193.58154 
L 31.0325 31.318125 
" style="fill: none; stroke: #1f2937; stroke-width: 0.8; stroke-linejoin: miter; stroke-linecap: square"/>
   </g>
   <g id="patch_34">
    <path d="M 31.0325 193.58154 
L 477.4325 193.58154 
" style="fill: none; stroke: #1f2937; stroke-width: 0.8; stroke-linejoin: miter; stroke-linecap: square"/>
   </g>
   <g id="text_6">
    <!-- Ladder Bottom — BA 1D -->
    <g style="fill: #ffffff" transform="translate(173.21 16.318125) scale(0.12 -0.12)">
     <defs>
      <path id="DejaVuSans-Bold-4c" d="M 588 4666 
L 1791 4666 
L 1791 909 
L 3903 909 
L 3903 0 
L 588 0 
L 588 4666 
z
" transform="scale(0.015625)"/>
      <path id="DejaVuSans-Bold-61" d="M 2106 1575 
Q 1756 1575 1579 1456 
Q 1403 1338 1403 1106 
Q 1403 894 1545 773 
Q 1688 653 1941 653 
Q 2256 653 2472 879 
Q 2688 1106 2688 1447 
L 2688 1575 
L 2106 1575 
z
M 3816 1997 
L 3816 0 
L 2688 0 
L 2688 519 
Q 2463 200 2181 54 
Q 1900 -91 1497 -91 
Q 953 -91 614 226 
Q 275 544 275 1050 
Q 275 1666 698 1953 
Q 1122 2241 2028 2241 
L 2688 2241 
L 2688 2328 
Q 2688 2594 2478 2717 
Q 2269 2841 1825 2841 
Q 1466 2841 1156 2769 
Q 847 2697 581 2553 
L 581 3406 
Q 941 3494 1303 3539 
Q 1666 3584 2028 3584 
Q 2975 3584 3395 3211 
Q 3816 2838 3816 1997 
z
" transform="scale(0.015625)"/>
      <path id="DejaVuSans-Bold-64" d="M 2919 2988 
L 2919 4863 
L 4044 4863 
L 4044 0 
L 2919 0 
L 2919 506 
Q 2688 197 2409 53 
Q 2131 -91 1766 -91 
Q 1119 -91 703 423 
Q 288 938 288 1747 
Q 288 2556 703 3070 
Q 1119 3584 1766 3584 
Q 2128 3584 2408 3439 
Q 2688 3294 2919 2988 
z
M 2181 722 
Q 2541 722 2730 984 
Q 2919 1247 2919 1747 
Q 2919 2247 2730 2509 
Q 2541 2772 2181 2772 
Q 1825 2772 1636 2509 
Q 1447 2247 1447 1747 
Q 1447 1247 1636 984 
Q 1825 722 2181 722 
z
" transform="scale(0.015625)"/>
      <path id="DejaVuSans-Bold-65" d="M 4031 1759 
L 4031 1441 
L 1416 1441 
Q 1456 1047 1700 850 
Q 1944 653 2381 653 
Q 2734 653 3104 758 
Q 3475 863 3866 1075 
L 3866 213 
Q 3469 63 3072 -14 
Q 2675 -91 2278 -91 
Q 1328 -91 801 392 
Q 275 875 275 1747 
Q 275 2603 792 3093 
Q 1309 3584 2216 3584 
Q 3041 3584 3536 3087 
Q 4031 2591 4031 1759 
z
M 2881 2131 
Q 2881 2450 2695 2645 
Q 2509 2841 2209 2841 
Q 1884 2841 1681 2658 
Q 1478 2475 1428 2131 
L 2881 2131 
z
" transform="scale(0.015625)"/>
      <path id="DejaVuSans-Bold-72" d="M 3138 2547 
Q 2991 2616 2845 2648 
Q 2700 2681 2553 2681 
Q 2122 2681 1889 2404 
Q 1656 2128 1656 1613 
L 1656 0 
L 538 0 
L 538 3500 
L 1656 3500 
L 1656 2925 
Q 1872 3269 2151 3426 
Q 2431 3584 2822 3584 
Q 2878 3584 2943 3579 
Q 3009 3575 3134 3559 
L 3138 2547 
z
" transform="scale(0.015625)"/>
      <path id="DejaVuSans-Bold-20" transform="scale(0.015625)"/>
      <path id="DejaVuSans-Bold-42" d="M 2456 2859 
Q 2741 2859 2887 2984 
Q 3034 3109 3034 3353 
Q 3034 3594 2887 3720 
Q 2741 3847 2456 3847 
L 1791 3847 
L 1791 2859 
L 2456 2859 
z
M 2497 819 
Q 2859 819 3042 972 
Q 3225 1125 3225 1434 
Q 3225 1738 3044 1889 
Q 2863 2041 2497 2041 
L 1791 2041 
L 1791 819 
L 2497 819 
z
M 3616 2497 
Q 4003 2384 4215 2081 
Q 4428 1778 4428 1338 
Q 4428 663 3972 331 
Q 3516 0 2584 0 
L 588 0 
L 588 4666 
L 2394 4666 
Q 3366 4666 3802 4372 
Q 4238 4078 4238 3431 
Q 4238 3091 4078 2852 
Q 3919 2613 3616 2497 
z
" transform="scale(0.015625)"/>
      <path id="DejaVuSans-Bold-6f" d="M 2203 2784 
Q 1831 2784 1636 2517 
Q 1441 2250 1441 1747 
Q 1441 1244 1636 976 
Q 1831 709 2203 709 
Q 2569 709 2762 976 
Q 2956 1244 2956 1747 
Q 2956 2250 2762 2517 
Q 2569 2784 2203 2784 
z
M 2203 3584 
Q 3106 3584 3614 3096 
Q 4122 2609 4122 1747 
Q 4122 884 3614 396 
Q 3106 -91 2203 -91 
Q 1297 -91 786 396 
Q 275 884 275 1747 
Q 275 2609 786 3096 
Q 1297 3584 2203 3584 
z
" transform="scale(0.015625)"/>
      <path id="DejaVuSans-Bold-74" d="M 1759 4494 
L 1759 3500 
L 2913 3500 
L 2913 2700 
L 1759 2700 
L 1759 1216 
Q 1759 972 1856 886 
Q 1953 800 2241 800 
L 2816 800 
L 2816 0 
L 1856 0 
Q 1194 0 917 276 
Q 641 553 641 1216 
L 641 2700 
L 84 2700 
L 84 3500 
L 641 3500 
L 641 4494 
L 1759 4494 
z
" transform="scale(0.015625)"/>
      <path id="DejaVuSans-Bold-6d" d="M 3781 2919 
Q 3994 3244 4286 3414 
Q 4578 3584 4928 3584 
Q 5531 3584 5847 3212 
Q 6163 2841 6163 2131 
L 6163 0 
L 5038 0 
L 5038 1825 
Q 5041 1866 5042 1909 
Q 5044 1953 5044 2034 
Q 5044 2406 4934 2573 
Q 4825 2741 4581 2741 
Q 4263 2741 4089 2478 
Q 3916 2216 3909 1719 
L 3909 0 
L 2784 0 
L 2784 1825 
Q 2784 2406 2684 2573 
Q 2584 2741 2328 2741 
Q 2006 2741 1831 2477 
Q 1656 2213 1656 1722 
L 1656 0 
L 531 0 
L 531 3500 
L 1656 3500 
L 1656 2988 
Q 1863 3284 2130 3434 
Q 2397 3584 2719 3584 
Q 3081 3584 3359 3409 
Q 3638 3234 3781 2919 
z
" transform="scale(0.015625)"/>
      <path id="DejaVuSans-Bold-2014" d="M 344 2156 
L 6056 2156 
L 6056 1350 
L 344 1350 
L 344 2156 
z
" transform="scale(0.015625)"/>
      <path id="DejaVuSans-Bold-41" d="M 3419 850 
L 1538 850 
L 1241 0 
L 31 0 
L 1759 4666 
L 3194 4666 
L 4922 0 
L 3713 0 
L 3419 850 
z
M 1838 1716 
L 3116 1716 
L 2478 3572 
L 1838 1716 
z
" transform="scale(0.015625)"/>
      <path id="DejaVuSans-Bold-31" d="M 750 831 
L 1813 831 
L 1813 3847 
L 722 3622 
L 722 4441 
L 1806 4666 
L 2950 4666 
L 2950 831 
L 4013 831 
L 4013 0 
L 750 0 
L 750 831 
z
" transform="scale(0.015625)"/>
      <path id="DejaVuSans-Bold-44" d="M 1791 3756 
L 1791 909 
L 2222 909 
Q 2959 909 3348 1275 
Q 3738 1641 3738 2338 
Q 3738 3031 3350 3393 
Q 2963 3756 2222 3756 
L 1791 3756 
z
M 588 4666 
L 1856 4666 
Q 2919 4666 3439 4514 
Q 3959 4363 4331 4000 
Q 4659 3684 4818 3271 
Q 4978 2859 4978 2338 
Q 4978 1809 4818 1395 
Q 4659 981 4331 666 
Q 3956 303 3431 151 
Q 2906 0 1856 0 
L 588 0 
L 588 4666 
z
" transform="scale(0.015625)"/>
     </defs>
     <use xlink:href="#DejaVuSans-Bold-4c"/>
     <use xlink:href="#DejaVuSans-Bold-61" transform="translate(63.720703 0)"/>
     <use xlink:href="#DejaVuSans-Bold-64" transform="translate(131.201172 0)"/>
     <use xlink:href="#DejaVuSans-Bold-64" transform="translate(202.783203 0)"/>
     <use xlink:href="#DejaVuSans-Bold-65" transform="translate(274.365234 0)"/>
     <use xlink:href="#DejaVuSans-Bold-72" transform="translate(342.1875 0)"/>
     <use xlink:href="#DejaVuSans-Bold-20" transform="translate(391.503906 0)"/>
     <use xlink:href="#DejaVuSans-Bold-42" transform="translate(426.318359 0)"/>
     <use xlink:href="#DejaVuSans-Bold-6f" transform="translate(502.539062 0)"/>
     <use xlink:href="#DejaVuSans-Bold-74" transform="translate(571.240234 0)"/>
     <use xlink:href="#DejaVuSans-Bold-74" transform="translate(619.042969 0)"/>
     <use xlink:href="#DejaVuSans-Bold-6f" transform="translate(666.845703 0)"/>
     <use xlink:href="#DejaVuSans-Bold-6d" transform="translate(735.546875 0)"/>
     <use xlink:href="#DejaVuSans-Bold-20" transform="translate(839.746094 0)"/>
     <use xlink:href="#DejaVuSans-Bold-2014" transform="translate(874.560547 0)"/>
     <use xlink:href="#DejaVuSans-Bold-20" transform="translate(974.560547 0)"/>
     <use xlink:href="#DejaVuSans-Bold-42" transform="translate(1009.375 0)"/>
     <use xlink:href="#DejaVuSans-Bold-41" transform="translate(1085.595703 0)"/>
     <use xlink:href="#DejaVuSans-Bold-20" transform="translate(1162.988281 0)"/>
     <use xlink:href="#DejaVuSans-Bold-31" transform="translate(1197.802734 0)"/>
     <use xlink:href="#DejaVuSans-Bold-44" transform="translate(1267.382812 0)"/>
    </g>
   </g>
  </g>
  <g id="axes_2">
   <g id="patch_35">
    <path d="M 31.0325 253.078125 
L 477.4325 253.078125 
L 477.4325 198.99032 
L 31.0325 198.99032 
z
" style="fill: #0a0f1a"/>
   </g>
   <g id="patch_36">
    <path d="M 51.323409 253.078125 
L 60.888147 253.078125 
L 60.888147 224.591906 
L 51.323409 224.591906 
z
" clip-path="url(#p8d5a19665d)" style="fill: #ef4444; fill-opacity: 0.266667"/>
   </g>
   <g id="patch_37">
    <path d="M 64.987321 253.078125 
L 74.552059 253.078125 
L 74.552059 224.050388 
L 64.987321 224.050388 
z
" clip-path="url(#p8d5a19665d)" style="fill: #ef4444; fill-opacity: 0.266667"/>
   </g>
   <g id="patch_38">
    <path d="M 78.651233 253.078125 
L 88.215971 253.078125 
L 88.215971 211.38663 
L 78.651233 211.38663 
z
" clip-path="url(#p8d5a19665d)" style="fill: #ef4444; fill-opacity: 0.266667"/>
   </g>
   <g id="patch_39">
    <path d="M 92.315145 253.078125 
L 101.879883 253.078125 
L 101.879883 220.633387 
L 92.315145 220.633387 
z
" clip-path="url(#p8d5a19665d)" style="fill: #ef4444; fill-opacity: 0.266667"/>
   </g>
   <g id="patch_40">
    <path d="M 105.979056 253.078125 
L 115.543795 253.078125 
L 115.543795 230.581186 
L 105.979056 230.581186 
z
" clip-path="url(#p8d5a19665d)" style="fill: #ef4444; fill-opacity: 0.266667"/>
   </g>
   <g id="patch_41">
    <path d="M 119.642968 253.078125 
L 129.207707 253.078125 
L 129.207707 222.873543 
L 119.642968 222.873543 
z
" clip-path="url(#p8d5a19665d)" style="fill: #22c55e; fill-opacity: 0.266667"/>
   </g>
   <g id="patch_42">
    <path d="M 133.30688 253.078125 
L 142.871618 253.078125 
L 142.871618 207.130277 
L 133.30688 207.130277 
z
" clip-path="url(#p8d5a19665d)" style="fill: #22c55e; fill-opacity: 0.266667"/>
   </g>
   <g id="patch_43">
    <path d="M 146.970792 253.078125 
L 156.53553 253.078125 
L 156.53553 221.492322 
L 146.970792 221.492322 
z
" clip-path="url(#p8d5a19665d)" style="fill: #22c55e; fill-opacity: 0.266667"/>
   </g>
   <g id="patch_44">
    <path d="M 160.634704 253.078125 
L 170.199442 253.078125 
L 170.199442 206.483726 
L 160.634704 206.483726 
z
" clip-path="url(#p8d5a19665d)" style="fill: #ef4444; fill-opacity: 0.266667"/>
   </g>
   <g id="patch_45">
    <path d="M 174.298616 253.078125 
L 183.863354 253.078125 
L 183.863354 207.090814 
L 174.298616 207.090814 
z
" clip-path="url(#p8d5a19665d)" style="fill: #22c55e; fill-opacity: 0.266667"/>
   </g>
   <g id="patch_46">
    <path d="M 187.962528 253.078125 
L 197.527266 253.078125 
L 197.527266 201.56593 
L 187.962528 201.56593 
z
" clip-path="url(#p8d5a19665d)" style="fill: #ef4444; fill-opacity: 0.266667"/>
   </g>
   <g id="patch_47">
    <path d="M 201.626439 253.078125 
L 211.191178 253.078125 
L 211.191178 205.524243 
L 201.626439 205.524243 
z
" clip-path="url(#p8d5a19665d)" style="fill: #ef4444; fill-opacity: 0.266667"/>
   </g>
   <g id="patch_48">
    <path d="M 215.290351 253.078125 
L 224.85509 253.078125 
L 224.85509 235.659782 
L 215.290351 235.659782 
z
" clip-path="url(#p8d5a19665d)" style="fill: #ef4444; fill-opacity: 0.266667"/>
   </g>
   <g id="patch_49">
    <path d="M 228.954263 253.078125 
L 238.519001 253.078125 
L 238.519001 235.145792 
L 228.954263 235.145792 
z
" clip-path="url(#p8d5a19665d)" style="fill: #ef4444; fill-opacity: 0.266667"/>
   </g>
   <g id="patch_50">
    <path d="M 242.618175 253.078125 
L 252.182913 253.078125 
L 252.182913 241.353011 
L 242.618175 241.353011 
z
" clip-path="url(#p8d5a19665d)" style="fill: #22c55e; fill-opacity: 0.266667"/>
   </g>
   <g id="patch_51">
    <path d="M 256.282087 253.078125 
L 265.846825 253.078125 
L 265.846825 206.646835 
L 256.282087 206.646835 
z
" clip-path="url(#p8d5a19665d)" style="fill: #22c55e; fill-opacity: 0.266667"/>
   </g>
   <g id="patch_52">
    <path d="M 269.945999 253.078125 
L 279.510737 253.078125 
L 279.510737 237.065306 
L 269.945999 237.065306 
z
" clip-path="url(#p8d5a19665d)" style="fill: #22c55e; fill-opacity: 0.266667"/>
   </g>
   <g id="patch_53">
    <path d="M 283.60991 253.078125 
L 293.174649 253.078125 
L 293.174649 215.086819 
L 283.60991 215.086819 
z
" clip-path="url(#p8d5a19665d)" style="fill: #22c55e; fill-opacity: 0.266667"/>
   </g>
   <g id="patch_54">
    <path d="M 297.273822 253.078125 
L 306.838561 253.078125 
L 306.838561 206.98037 
L 297.273822 206.98037 
z
" clip-path="url(#p8d5a19665d)" style="fill: #22c55e; fill-opacity: 0.266667"/>
   </g>
   <g id="patch_55">
    <path d="M 310.937734 253.078125 
L 320.502472 253.078125 
L 320.502472 222.545635 
L 310.937734 222.545635 
z
" clip-path="url(#p8d5a19665d)" style="fill: #22c55e; fill-opacity: 0.266667"/>
   </g>
   <g id="patch_56">
    <path d="M 324.601646 253.078125 
L 334.166384 253.078125 
L 334.166384 202.950573 
L 324.601646 202.950573 
z
" clip-path="url(#p8d5a19665d)" style="fill: #ef4444; fill-opacity: 0.266667"/>
   </g>
   <g id="patch_57">
    <path d="M 338.265558 253.078125 
L 347.830296 253.078125 
L 347.830296 229.706586 
L 338.265558 229.706586 
z
" clip-path="url(#p8d5a19665d)" style="fill: #22c55e; fill-opacity: 0.266667"/>
   </g>
   <g id="patch_58">
    <path d="M 351.92947 253.078125 
L 361.494208 253.078125 
L 361.494208 236.715177 
L 351.92947 236.715177 
z
" clip-path="url(#p8d5a19665d)" style="fill: #ef4444; fill-opacity: 0.266667"/>
   </g>
   <g id="patch_59">
    <path d="M 365.593382 253.078125 
L 375.15812 253.078125 
L 375.15812 209.13522 
L 365.593382 209.13522 
z
" clip-path="url(#p8d5a19665d)" style="fill: #22c55e; fill-opacity: 0.266667"/>
   </g>
   <g id="patch_60">
    <path d="M 379.257293 253.078125 
L 388.822032 253.078125 
L 388.822032 206.117272 
L 379.257293 206.117272 
z
" clip-path="url(#p8d5a19665d)" style="fill: #22c55e; fill-opacity: 0.266667"/>
   </g>
   <g id="patch_61">
    <path d="M 392.921205 253.078125 
L 402.485944 253.078125 
L 402.485944 220.699142 
L 392.921205 220.699142 
z
" clip-path="url(#p8d5a19665d)" style="fill: #22c55e; fill-opacity: 0.266667"/>
   </g>
   <g id="patch_62">
    <path d="M 406.585117 253.078125 
L 416.149855 253.078125 
L 416.149855 236.821755 
L 406.585117 236.821755 
z
" clip-path="url(#p8d5a19665d)" style="fill: #22c55e; fill-opacity: 0.266667"/>
   </g>
   <g id="patch_63">
    <path d="M 420.249029 253.078125 
L 429.813767 253.078125 
L 429.813767 227.697314 
L 420.249029 227.697314 
z
" clip-path="url(#p8d5a19665d)" style="fill: #22c55e; fill-opacity: 0.266667"/>
   </g>
   <g id="patch_64">
    <path d="M 433.912941 253.078125 
L 443.477679 253.078125 
L 443.477679 227.207008 
L 433.912941 227.207008 
z
" clip-path="url(#p8d5a19665d)" style="fill: #22c55e; fill-opacity: 0.266667"/>
   </g>
   <g id="patch_65">
    <path d="M 447.576853 253.078125 
L 457.141591 253.078125 
L 457.141591 207.317936 
L 447.576853 207.317936 
z
" clip-path="url(#p8d5a19665d)" style="fill: #ef4444; fill-opacity: 0.266667"/>
   </g>
   <g id="matplotlib.axis_3">
    <g id="xtick_8">
     <g id="line2d_55">
      <path d="M 56.105778 253.078125 
L 56.105778 198.99032 
" clip-path="url(#p8d5a19665d)" style="fill: none; stroke-dasharray: 2.96,1.28; stroke-dashoffset: 0; stroke: #374151; stroke-opacity: 0.1; stroke-width: 0.8"/>
     </g>
     <g id="line2d_56">
      <g>
       <use xlink:href="#m9948100fb3" x="56.105778" y="253.078125" style="fill: #9ca3af; stroke: #9ca3af; stroke-width: 0.8"/>
      </g>
     </g>
     <g id="text_7">
      <!-- 0 -->
      <g style="fill: #9ca3af" transform="translate(53.560778 266.156875) scale(0.08 -0.08)">
       <use xlink:href="#DejaVuSans-30"/>
      </g>
     </g>
    </g>
    <g id="xtick_9">
     <g id="line2d_57">
      <path d="M 124.425337 253.078125 
L 124.425337 198.99032 
" clip-path="url(#p8d5a19665d)" style="fill: none; stroke-dasharray: 2.96,1.28; stroke-dashoffset: 0; stroke: #374151; stroke-opacity: 0.1; stroke-width: 0.8"/>
     </g>
     <g id="line2d_58">
      <g>
       <use xlink:href="#m9948100fb3" x="124.425337" y="253.078125" style="fill: #9ca3af; stroke: #9ca3af; stroke-width: 0.8"/>
      </g>
     </g>
     <g id="text_8">
      <!-- 5 -->
      <g style="fill: #9ca3af" transform="translate(121.880337 266.156875) scale(0.08 -0.08)">
       <defs>
        <path id="DejaVuSans-35" d="M 691 4666 
L 3169 4666 
L 3169 4134 
L 1269 4134 
L 1269 2991 
Q 1406 3038 1543 3061 
Q 1681 3084 1819 3084 
Q 2600 3084 3056 2656 
Q 3513 2228 3513 1497 
Q 3513 744 3044 326 
Q 2575 -91 1722 -91 
Q 1428 -91 1123 -41 
Q 819 9 494 109 
L 494 744 
Q 775 591 1075 516 
Q 1375 441 1709 441 
Q 2250 441 2565 725 
Q 2881 1009 2881 1497 
Q 2881 1984 2565 2268 
Q 2250 2553 1709 2553 
Q 1456 2553 1204 2497 
Q 953 2441 691 2322 
L 691 4666 
z
" transform="scale(0.015625)"/>
       </defs>
       <use xlink:href="#DejaVuSans-35"/>
      </g>
     </g>
    </g>
    <g id="xtick_10">
     <g id="line2d_59">
      <path d="M 192.744897 253.078125 
L 192.744897 198.99032 
" clip-path="url(#p8d5a19665d)" style="fill: none; stroke-dasharray: 2.96,1.28; stroke-dashoffset: 0; stroke: #374151; stroke-opacity: 0.1; stroke-width: 0.8"/>
     </g>
     <g id="line2d_60">
      <g>
       <use xlink:href="#m9948100fb3" x="192.744897" y="253.078125" style="fill: #9ca3af; stroke: #9ca3af; stroke-width: 0.8"/>
      </g>
     </g>
     <g id="text_9">
      <!-- 10 -->
      <g style="fill: #9ca3af" transform="translate(187.654897 266.156875) scale(0.08 -0.08)">
       <use xlink:href="#DejaVuSans-31"/>
       <use xlink:href="#DejaVuSans-30" transform="translate(63.623047 0)"/>
      </g>
     </g>
    </g>
    <g id="xtick_11">
     <g id="line2d_61">
      <path d="M 261.064456 253.078125 
L 261.064456 198.99032 
" clip-path="url(#p8d5a19665d)" style="fill: none; stroke-dasharray: 2.96,1.28; stroke-dashoffset: 0; stroke: #374151; stroke-opacity: 0.1; stroke-width: 0.8"/>
     </g>
     <g id="line2d_62">
      <g>
       <use xlink:href="#m9948100fb3" x="261.064456" y="253.078125" style="fill: #9ca3af; stroke: #9ca3af; stroke-width: 0.8"/>
      </g>
     </g>
     <g id="text_10">
      <!-- 15 -->
      <g style="fill: #9ca3af" transform="translate(255.974456 266.156875) scale(0.08 -0.08)">
       <use xlink:href="#DejaVuSans-31"/>
       <use xlink:href="#DejaVuSans-35" transform="translate(63.623047 0)"/>
      </g>
     </g>
    </g>
    <g id="xtick_12">
     <g id="line2d_63">
      <path d="M 329.384015 253.078125 
L 329.384015 198.99032 
" clip-path="url(#p8d5a19665d)" style="fill: none; stroke-dasharray: 2.96,1.28; stroke-dashoffset: 0; stroke: #374151; stroke-opacity: 0.1; stroke-width: 0.8"/>
     </g>
     <g id="line2d_64">
      <g>
       <use xlink:href="#m9948100fb3" x="329.384015" y="253.078125" style="fill: #9ca3af; stroke: #9ca3af; stroke-width: 0.8"/>
      </g>
     </g>
     <g id="text_11">
      <!-- 20 -->
      <g style="fill: #9ca3af" transform="translate(324.294015 266.156875) scale(0.08 -0.08)">
       <use xlink:href="#DejaVuSans-32"/>
       <use xlink:href="#DejaVuSans-30" transform="translate(63.623047 0)"/>
      </g>
     </g>
    </g>
    <g id="xtick_13">
     <g id="line2d_65">
      <path d="M 397.703574 253.078125 
L 397.703574 198.99032 
" clip-path="url(#p8d5a19665d)" style="fill: none; stroke-dasharray: 2.96,1.28; stroke-dashoffset: 0; stroke: #374151; stroke-opacity: 0.1; stroke-width: 0.8"/>
     </g>
     <g id="line2d_66">
      <g>
       <use xlink:href="#m9948100fb3" x="397.703574" y="253.078125" style="fill: #9ca3af; stroke: #9ca3af; stroke-width: 0.8"/>
      </g>
     </g>
     <g id="text_12">
      <!-- 25 -->
      <g style="fill: #9ca3af" transform="translate(392.613574 266.156875) scale(0.08 -0.08)">
       <use xlink:href="#DejaVuSans-32"/>
       <use xlink:href="#DejaVuSans-35" transform="translate(63.623047 0)"/>
      </g>
     </g>
    </g>
    <g id="xtick_14">
     <g id="line2d_67">
      <path d="M 466.023134 253.078125 
L 466.023134 198.99032 
" clip-path="url(#p8d5a19665d)" style="fill: none; stroke-dasharray: 2.96,1.28; stroke-dashoffset: 0; stroke: #374151; stroke-opacity: 0.1; stroke-width: 0.8"/>
     </g>
     <g id="line2d_68">
      <g>
       <use xlink:href="#m9948100fb3" x="466.023134" y="253.078125" style="fill: #9ca3af; stroke: #9ca3af; stroke-width: 0.8"/>
      </g>
     </g>
     <g id="text_13">
      <!-- 30 -->
      <g style="fill: #9ca3af" transform="translate(460.933134 266.156875) scale(0.08 -0.08)">
       <defs>
        <path id="DejaVuSans-33" d="M 2597 2516 
Q 3050 2419 3304 2112 
Q 3559 1806 3559 1356 
Q 3559 666 3084 287 
Q 2609 -91 1734 -91 
Q 1441 -91 1130 -33 
Q 819 25 488 141 
L 488 750 
Q 750 597 1062 519 
Q 1375 441 1716 441 
Q 2309 441 2620 675 
Q 2931 909 2931 1356 
Q 2931 1769 2642 2001 
Q 2353 2234 1838 2234 
L 1294 2234 
L 1294 2753 
L 1863 2753 
Q 2328 2753 2575 2939 
Q 2822 3125 2822 3475 
Q 2822 3834 2567 4026 
Q 2313 4219 1838 4219 
Q 1578 4219 1281 4162 
Q 984 4106 628 3988 
L 628 4550 
Q 988 4650 1302 4700 
Q 1616 4750 1894 4750 
Q 2613 4750 3031 4423 
Q 3450 4097 3450 3541 
Q 3450 3153 3228 2886 
Q 3006 2619 2597 2516 
z
" transform="scale(0.015625)"/>
       </defs>
       <use xlink:href="#DejaVuSans-33"/>
       <use xlink:href="#DejaVuSans-30" transform="translate(63.623047 0)"/>
      </g>
     </g>
    </g>
   </g>
   <g id="matplotlib.axis_4">
    <g id="ytick_6">
     <g id="line2d_69">
      <path d="M 31.0325 253.078125 
L 477.4325 253.078125 
" clip-path="url(#p8d5a19665d)" style="fill: none; stroke-dasharray: 2.96,1.28; stroke-dashoffset: 0; stroke: #374151; stroke-opacity: 0.1; stroke-width: 0.8"/>
     </g>
     <g id="line2d_70">
      <g>
       <use xlink:href="#m5dc7bcafbc" x="31.0325" y="253.078125" style="fill: #9ca3af; stroke: #9ca3af; stroke-width: 0.8"/>
      </g>
     </g>
     <g id="text_14">
      <!-- 0 -->
      <g style="fill: #9ca3af" transform="translate(18.9425 256.1175) scale(0.08 -0.08)">
       <use xlink:href="#DejaVuSans-30"/>
      </g>
     </g>
    </g>
    <g id="ytick_7">
     <g id="line2d_71">
      <path d="M 31.0325 232.465348 
L 477.4325 232.465348 
" clip-path="url(#p8d5a19665d)" style="fill: none; stroke-dasharray: 2.96,1.28; stroke-dashoffset: 0; stroke: #374151; stroke-opacity: 0.1; stroke-width: 0.8"/>
     </g>
     <g id="line2d_72">
      <g>
       <use xlink:href="#m5dc7bcafbc" x="31.0325" y="232.465348" style="fill: #9ca3af; stroke: #9ca3af; stroke-width: 0.8"/>
      </g>
     </g>
     <g id="text_15">
      <!-- 2 -->
      <g style="fill: #9ca3af" transform="translate(18.9425 235.504723) scale(0.08 -0.08)">
       <use xlink:href="#DejaVuSans-32"/>
      </g>
     </g>
    </g>
    <g id="ytick_8">
     <g id="line2d_73">
      <path d="M 31.0325 211.852571 
L 477.4325 211.852571 
" clip-path="url(#p8d5a19665d)" style="fill: none; stroke-dasharray: 2.96,1.28; stroke-dashoffset: 0; stroke: #374151; stroke-opacity: 0.1; stroke-width: 0.8"/>
     </g>
     <g id="line2d_74">
      <g>
       <use xlink:href="#m5dc7bcafbc" x="31.0325" y="211.852571" style="fill: #9ca3af; stroke: #9ca3af; stroke-width: 0.8"/>
      </g>
     </g>
     <g id="text_16">
      <!-- 4 -->
      <g style="fill: #9ca3af" transform="translate(18.9425 214.891946) scale(0.08 -0.08)">
       <use xlink:href="#DejaVuSans-34"/>
      </g>
     </g>
    </g>
    <g id="text_17">
     <!-- Vol -->
     <g style="fill: #9ca3af" transform="translate(13.27875 232.019223) rotate(-90) scale(0.08 -0.08)">
      <defs>
       <path id="DejaVuSans-56" d="M 1831 0 
L 50 4666 
L 709 4666 
L 2188 738 
L 3669 4666 
L 4325 4666 
L 2547 0 
L 1831 0 
z
" transform="scale(0.015625)"/>
       <path id="DejaVuSans-6f" d="M 1959 3097 
Q 1497 3097 1228 2736 
Q 959 2375 959 1747 
Q 959 1119 1226 758 
Q 1494 397 1959 397 
Q 2419 397 2687 759 
Q 2956 1122 2956 1747 
Q 2956 2369 2687 2733 
Q 2419 3097 1959 3097 
z
M 1959 3584 
Q 2709 3584 3137 3096 
Q 3566 2609 3566 1747 
Q 3566 888 3137 398 
Q 2709 -91 1959 -91 
Q 1206 -91 779 398 
Q 353 888 353 1747 
Q 353 2609 779 3096 
Q 1206 3584 1959 3584 
z
" transform="scale(0.015625)"/>
       <path id="DejaVuSans-6c" d="M 603 4863 
L 1178 4863 
L 1178 0 
L 603 0 
L 603 4863 
z
" transform="scale(0.015625)"/>
      </defs>
      <use xlink:href="#DejaVuSans-56"/>
      <use xlink:href="#DejaVuSans-6f" transform="translate(60.658203 0)"/>
      <use xlink:href="#DejaVuSans-6c" transform="translate(121.839844 0)"/>
     </g>
    </g>
    <g id="text_18">
     <!-- 1e6 -->
     <g style="fill: #9ca3af" transform="translate(31.0325 195.99032) scale(0.1 -0.1)">
      <defs>
       <path id="DejaVuSans-65" d="M 3597 1894 
L 3597 1613 
L 953 1613 
Q 991 1019 1311 708 
Q 1631 397 2203 397 
Q 2534 397 2845 478 
Q 3156 559 3463 722 
L 3463 178 
Q 3153 47 2828 -22 
Q 2503 -91 2169 -91 
Q 1331 -91 842 396 
Q 353 884 353 1716 
Q 353 2575 817 3079 
Q 1281 3584 2069 3584 
Q 2775 3584 3186 3129 
Q 3597 2675 3597 1894 
z
M 3022 2063 
Q 3016 2534 2758 2815 
Q 2500 3097 2075 3097 
Q 1594 3097 1305 2825 
Q 1016 2553 972 2059 
L 3022 2063 
z
" transform="scale(0.015625)"/>
      </defs>
      <use xlink:href="#DejaVuSans-31"/>
      <use xlink:href="#DejaVuSans-65" transform="translate(63.623047 0)"/>
      <use xlink:href="#DejaVuSans-36" transform="translate(125.146484 0)"/>
     </g>
    </g>
   </g>
   <g id="patch_66">
    <path d="M 31.0325 253.078125 
L 31.0325 198.99032 
" style="fill: none; stroke: #1f2937; stroke-width: 0.8; stroke-linejoin: miter; stroke-linecap: square"/>
   </g>
   <g id="patch_67">
    <path d="M 31.0325 253.078125 
L 477.4325 253.078125 
" style="fill: none; stroke: #1f2937; stroke-width: 0.8; stroke-linejoin: miter; stroke-linecap: square"/>
   </g>
  </g>
 </g>
 <defs>
  <clipPath id="p2a1ee8ad47">
   <rect x="31.0325" y="31.318125" width="446.4" height="162.263415"/>
  </clipPath>
  <clipPath id="p8d5a19665d">
   <rect x="31.0325" y="198.99032" width="446.4" height="54.087805"/>
  </clipPath>
 </defs>
</svg>
