<?xml version="1.0" encoding="utf-8" standalone="no"?>
<!DOCTYPE svg PUBLIC "-//W3C//DTD SVG 1.1//EN"
  "http://www.w3.org/Graphics/SVG/1.1/DTD/svg11.dtd">
<svg xmlns:xlink="http://www.w3.org/1999/xlink" width="484.6325pt" height="275.020625pt" viewBox="0 0 484.6325 275.020625" xmlns="http://www.w3.org/2000/svg" version="1.1">
 <metadata>
  <rdf:RDF xmlns:dc="http://purl.org/dc/elements/1.1/" xmlns:cc="http://creativecommons.org/ns#" xmlns:rdf="http://www.w3.org/1999/02/22-rdf-syntax-ns#">
   <cc:Work>
    <dc:type rdf:resource="http://purl.org/dc/dcmitype/StillImage"/>
    <dc:date>2026-02-16T09:12:30.650867</dc:date>
    <dc:format>image/svg+xml</dc:format>
    <dc:creator>
     <cc:Agent>
      <dc:title>Matplotlib v3.10.8, https://matplotlib.org/</dc:title>
     </cc:Agent>
    </dc:creator>
   </cc:Work>
  </rdf:RDF>
 </metadata>
 <defs>
  <style type="text/css">*{stroke-linejoin: round; stroke-linecap: butt}</style>
 </defs>
 <g id="figure_1">
  <g id="patch_1">
   <path d="M 0 275.020625 
L 484.6325 275.020625 
L 484.6325 0 
L 0 0 
z
" style="fill: #0a0f1a"/>
  </g>
  <g id="axes_1">
   <g id="patch_2">
    <path d="M 31.0325 193.58154 
L 477.4325 193.58154 
L 477.4325 31.318125 
L 31.0325 31.318125 
z
" style="fill: #0a0f1a"/>
   </g>
   <g id="patch_3">
    <path d="M 40.3925 51.571913 
L 50.4725 51.571913 
Q 50.7605 51.571913 50.7605 51.472483 
L 50.7605 47.553002 
Q 50.7605 47.453572 50.4725 47.453572 
L 40.3925 47.453572 
Q 40.1045 47.453572 40.1045 47.553002 
L 40.1045 51.472483 
Q 40.1045 51.571913 40.3925 51.571913 
z
" clip-path="url(#p8dc72b5d61)" style="fill: #22c55e; stroke: #22c55e; stroke-linejoin: miter"/>
   </g>
   <g id="patch_4">
    <path d="M 54.7925 62.850974 
L 64.8725 62.850974 
Q 65.1605 62.850974 65.1605 62.751544 
L 65.1605 57.208249 
Q 65.1605 57.108818 64.8725 57.108818 
L 54.7925 57.108818 
Q 54.5045 57.108818 54.5045 57.208249 
L 54.5045 62.751544 
Q 54.5045 62.850974 54.7925 62.850974 
z
" clip-path="url(#p8dc72b5d61)" style="fill: #ef4444; stroke: #ef4444; stroke-linejoin: miter"/>
   </g>
   <g id="patch_5">
    <path d="M 69.1925 65.289924 
L 79.2725 65.289924 
Q 79.5605 65.289924 79.5605 65.190494 
L 79.5605 61.267183 
Q 79.5605 61.167753 79.2725 61.167753 
L 69.1925 61.167753 
Q 68.9045 61.167753 68.9045 61.267183 
L 68.9045 65.190494 
Q 68.9045 65.289924 69.1925 65.289924 
z
" clip-path="url(#p8dc72b5d61)" style="fill: #ef4444; stroke: #ef4444; stroke-linejoin: miter"/>
   </g>
   <g id="patch_6">
    <path d="M 83.5925 65.93709 
L 93.6725 65.93709 
Q 93.9605 65.93709 93.9605 65.837659 
L 93.9605 62.947739 
Q 93.9605 62.848309 93.6725 62.848309 
L 83.5925 62.848309 
Q 83.3045 62.848309 83.3045 62.947739 
L 83.3045 65.837659 
Q 83.3045 65.93709 83.5925 65.93709 
z
" clip-path="url(#p8dc72b5d61)" style="fill: #ef4444; stroke: #ef4444; stroke-linejoin: miter"/>
   </g>
   <g id="patch_7">
    <path d="M 97.9925 72.055383 
L 108.0725 72.055383 
Q 108.3605 72.055383 108.3605 71.955952 
L 108.3605 68.592802 
Q 108.3605 68.493371 108.0725 68.493371 
L 97.9925 68.493371 
Q 97.7045 68.493371 97.7045 68.592802 
L 97.7045 71.955952 
Q 97.7045 72.055383 97.9925 72.055383 
z
" clip-path="url(#p8dc72b5d61)" style="fill: #22c55e; stroke: #22c55e; stroke-linejoin: miter"/>
   </g>
   <g id="patch_8">
    <path d="M 112.3925 76.663775 
L 122.4725 76.663775 
Q 122.7605 76.663775 122.7605 76.564345 
L 122.7605 74.979574 
Q 122.7605 74.880143 122.4725 74.880143 
L 112.3925 74.880143 
Q 112.1045 74.880143 112.1045 74.979574 
L 112.1045 76.564345 
Q 112.1045 76.663775 112.3925 76.663775 
z
" clip-path="url(#p8dc72b5d61)" style="fill: #22c55e; stroke: #22c55e; stroke-linejoin: miter"/>
   </g>
   <g id="patch_9">
    <path d="M 126.7925 86.051552 
L 136.8725 86.051552 
Q 137.1605 86.051552 137.1605 85.952121 
L 137.1605 80.334383 
Q 137.1605 80.234952 136.8725 80.234952 
L 126.7925 80.234952 
Q 126.5045 80.234952 126.5045 80.334383 
L 126.5045 85.952121 
Q 126.5045 86.051552 126.7925 86.051552 
z
" clip-path="url(#p8dc72b5d61)" style="fill: #22c55e; stroke: #22c55e; stroke-linejoin: miter"/>
   </g>
   <g id="patch_10">
    <path d="M 141.1925 94.563781 
L 151.2725 94.563781 
Q 151.5605 94.563781 151.5605 94.46435 
L 151.5605 87.718153 
Q 151.5605 87.618722 151.2725 87.618722 
L 141.1925 87.618722 
Q 140.9045 87.618722 140.9045 87.718153 
L 140.9045 94.46435 
Q 140.9045 94.563781 141.1925 94.563781 
z
" clip-path="url(#p8dc72b5d61)" style="fill: #ef4444; stroke: #ef4444; stroke-linejoin: miter"/>
   </g>
   <g id="patch_11">
    <path d="M 155.5925 99.781593 
L 165.6725 99.781593 
Q 165.9605 99.781593 165.9605 99.682162 
L 165.9605 94.552702 
Q 165.9605 94.453272 165.6725 94.453272 
L 155.5925 94.453272 
Q 155.3045 94.453272 155.3045 94.552702 
L 155.3045 99.682162 
Q 155.3045 99.781593 155.5925 99.781593 
z
" clip-path="url(#p8dc72b5d61)" style="fill: #22c55e; stroke: #22c55e; stroke-linejoin: miter"/>
   </g>
   <g id="patch_12">
    <path d="M 169.9925 98.721298 
L 180.0725 98.721298 
Q 180.3605 98.721298 180.3605 98.621867 
L 180.3605 91.220782 
Q 180.3605 91.121351 180.0725 91.121351 
L 169.9925 91.121351 
Q 169.7045 91.121351 169.7045 91.220782 
L 169.7045 98.621867 
Q 169.7045 98.721298 169.9925 98.721298 
z
" clip-path="url(#p8dc72b5d61)" style="fill: #22c55e; stroke: #22c55e; stroke-linejoin: miter"/>
   </g>
   <g id="patch_13">
    <path d="M 184.3925 105.366104 
L 194.4725 105.366104 
Q 194.7605 105.366104 194.7605 105.266673 
L 194.7605 101.312378 
Q 194.7605 101.212947 194.4725 101.212947 
L 184.3925 101.212947 
Q 184.1045 101.212947 184.1045 101.312378 
L 184.1045 105.266673 
Q 184.1045 105.366104 184.3925 105.366104 
z
" clip-path="url(#p8dc72b5d61)" style="fill: #22c55e; stroke: #22c55e; stroke-linejoin: miter"/>
   </g>
   <g id="patch_14">
    <path d="M 198.7925 108.887277 
L 208.8725 108.887277 
Q 209.1605 108.887277 209.1605 108.787847 
L 209.1605 106.672218 
Q 209.1605 106.572787 208.8725 106.572787 
L 198.7925 106.572787 
Q 198.5045 106.572787 198.5045 106.672218 
L 198.5045 108.787847 
Q 198.5045 108.887277 198.7925 108.887277 
z
" clip-path="url(#p8dc72b5d61)" style="fill: #ef4444; stroke: #ef4444; stroke-linejoin: miter"/>
   </g>
   <g id="patch_15">
    <path d="M 213.1925 121.069015 
L 223.2725 121.069015 
Q 223.5605 121.069015 223.5605 120.969584 
L 223.5605 119.37467 
Q 223.5605 119.275239 223.2725 119.275239 
L 213.1925 119.275239 
Q 212.9045 119.275239 212.9045 119.37467 
L 212.9045 120.969584 
Q 212.9045 121.069015 213.1925 121.069015 
z
" clip-path="url(#p8dc72b5d61)" style="fill: #22c55e; stroke: #22c55e; stroke-linejoin: miter"/>
   </g>
   <g id="patch_16">
    <path d="M 227.5925 128.244794 
L 237.6725 128.244794 
Q 237.9605 128.244794 237.9605 128.145364 
L 237.9605 125.498734 
Q 237.9605 125.399303 237.6725 125.399303 
L 227.5925 125.399303 
Q 227.3045 125.399303 227.3045 125.498734 
L 227.3045 128.145364 
Q 227.3045 128.244794 227.5925 128.244794 
z
" clip-path="url(#p8dc72b5d61)" style="fill: #22c55e; stroke: #22c55e; stroke-linejoin: miter"/>
   </g>
   <g id="patch_17">
    <path d="M 241.9925 133.074843 
L 252.0725 133.074843 
Q 252.3605 133.074843 252.3605 132.975412 
L 252.3605 131.305675 
Q 252.3605 131.206244 252.0725 131.206244 
L 241.9925 131.206244 
Q 241.7045 131.206244 241.7045 131.305675 
L 241.7045 132.975412 
Q 241.7045 133.074843 241.9925 133.074843 
z
" clip-path="url(#p8dc72b5d61)" style="fill: #ef4444; stroke: #ef4444; stroke-linejoin: miter"/>
   </g>
   <g id="patch_18">
    <path d="M 256.3925 143.541713 
L 266.4725 143.541713 
Q 266.7605 143.541713 266.7605 143.442282 
L 266.7605 137.365405 
Q 266.7605 137.265975 266.4725 137.265975 
L 256.3925 137.265975 
Q 256.1045 137.265975 256.1045 137.365405 
L 256.1045 143.442282 
Q 256.1045 143.541713 256.3925 143.541713 
z
" clip-path="url(#p8dc72b5d61)" style="fill: #22c55e; stroke: #22c55e; stroke-linejoin: miter"/>
   </g>
   <g id="patch_19">
    <path d="M 270.7925 144.136597 
L 280.8725 144.136597 
Q 281.1605 144.136597 281.1605 144.037167 
L 281.1605 136.972061 
Q 281.1605 136.87263 280.8725 136.87263 
L 270.7925 136.87263 
Q 270.5045 136.87263 270.5045 136.972061 
L 270.5045 144.037167 
Q 270.5045 144.136597 270.7925 144.136597 
z
" clip-path="url(#p8dc72b5d61)" style="fill: #ef4444; stroke: #ef4444; stroke-linejoin: miter"/>
   </g>
   <g id="patch_20">
    <path d="M 285.1925 145.955507 
L 295.2725 145.955507 
Q 295.5605 145.955507 295.5605 145.856077 
L 295.5605 139.75575 
Q 295.5605 139.65632 295.2725 139.65632 
L 285.1925 139.65632 
Q 284.9045 139.65632 284.9045 139.75575 
L 284.9045 145.856077 
Q 284.9045 145.955507 285.1925 145.955507 
z
" clip-path="url(#p8dc72b5d61)" style="fill: #22c55e; stroke: #22c55e; stroke-linejoin: miter"/>
   </g>
   <g id="patch_21">
    <path d="M 299.5925 145.20641 
L 309.6725 145.20641 
Q 309.9605 145.20641 309.9605 145.106979 
L 309.9605 143.215136 
Q 309.9605 143.115705 309.6725 143.115705 
L 299.5925 143.115705 
Q 299.3045 143.115705 299.3045 143.215136 
L 299.3045 145.106979 
Q 299.3045 145.20641 299.5925 145.20641 
z
" clip-path="url(#p8dc72b5d61)" style="fill: #ef4444; stroke: #ef4444; stroke-linejoin: miter"/>
   </g>
   <g id="patch_22">
    <path d="M 313.9925 158.898485 
L 324.0725 158.898485 
Q 324.3605 158.898485 324.3605 158.799055 
L 324.3605 156.900364 
Q 324.3605 156.800933 324.0725 156.800933 
L 313.9925 156.800933 
Q 313.7045 156.800933 313.7045 156.900364 
L 313.7045 158.799055 
Q 313.7045 158.898485 313.9925 158.898485 
z
" clip-path="url(#p8dc72b5d61)" style="fill: #22c55e; stroke: #22c55e; stroke-linejoin: miter"/>
   </g>
   <g id="patch_23">
    <path d="M 328.3925 169.111202 
L 338.4725 169.111202 
Q 338.7605 169.111202 338.7605 169.011772 
L 338.7605 165.68015 
Q 338.7605 165.580719 338.4725 165.580719 
L 328.3925 165.580719 
Q 328.1045 165.580719 328.1045 165.68015 
L 328.1045 169.011772 
Q 328.1045 169.111202 328.3925 169.111202 
z
" clip-path="url(#p8dc72b5d61)" style="fill: #ef4444; stroke: #ef4444; stroke-linejoin: miter"/>
   </g>
   <g id="patch_24">
    <path d="M 342.7925 167.826758 
L 352.8725 167.826758 
Q 353.1605 167.826758 353.1605 167.727327 
L 353.1605 165.917188 
Q 353.1605 165.817757 352.8725 165.817757 
L 342.7925 165.817757 
Q 342.5045 165.817757 342.5045 165.917188 
L 342.5045 167.727327 
Q 342.5045 167.826758 342.7925 167.826758 
z
" clip-path="url(#p8dc72b5d61)" style="fill: #22c55e; stroke: #22c55e; stroke-linejoin: miter"/>
   </g>
   <g id="patch_25">
    <path d="M 357.1925 166.747988 
L 367.2725 166.747988 
Q 367.5605 166.747988 367.5605 166.648558 
L 367.5605 159.430119 
Q 367.5605 159.330688 367.2725 159.330688 
L 357.1925 159.330688 
Q 356.9045 159.330688 356.9045 159.430119 
L 356.9045 166.648558 
Q 356.9045 166.747988 357.1925 166.747988 
z
" clip-path="url(#p8dc72b5d61)" style="fill: #ef4444; stroke: #ef4444; stroke-linejoin: miter"/>
   </g>
   <g id="patch_26">
    <path d="M 371.5925 159.790244 
L 381.6725 159.790244 
Q 381.9605 159.790244 381.9605 159.690814 
L 381.9605 155.196516 
Q 381.9605 155.097085 381.6725 155.097085 
L 371.5925 155.097085 
Q 371.3045 155.097085 371.3045 155.196516 
L 371.3045 159.690814 
Q 371.3045 159.790244 371.5925 159.790244 
z
" clip-path="url(#p8dc72b5d61)" style="fill: #22c55e; stroke: #22c55e; stroke-linejoin: miter"/>
   </g>
   <g id="patch_27">
    <path d="M 385.9925 168.626155 
L 396.0725 168.626155 
Q 396.3605 168.626155 396.3605 168.526724 
L 396.3605 161.41028 
Q 396.3605 161.310849 396.0725 161.310849 
L 385.9925 161.310849 
Q 385.7045 161.310849 385.7045 161.41028 
L 385.7045 168.526724 
Q 385.7045 168.626155 385.9925 168.626155 
z
" clip-path="url(#p8dc72b5d61)" style="fill: #22c55e; stroke: #22c55e; stroke-linejoin: miter"/>
   </g>
   <g id="patch_28">
    <path d="M 400.3925 171.440209 
L 410.4725 171.440209 
Q 410.7605 171.440209 410.7605 171.340778 
L 410.7605 166.818262 
Q 410.7605 166.718832 410.4725 166.718832 
L 400.3925 166.718832 
Q 400.1045 166.718832 400.1045 166.818262 
L 400.1045 171.340778 
Q 400.1045 171.440209 400.3925 171.440209 
z
" clip-path="url(#p8dc72b5d61)" style="fill: #ef4444; stroke: #ef4444; stroke-linejoin: miter"/>
   </g>
   <g id="patch_29">
    <path d="M 414.7925 170.200891 
L 424.8725 170.200891 
Q 425.1605 170.200891 425.1605 170.10146 
L 425.1605 163.927765 
Q 425.1605 163.828334 424.8725 163.828334 
L 414.7925 163.828334 
Q 414.5045 163.828334 414.5045 163.927765 
L 414.5045 170.10146 
Q 414.5045 170.200891 414.7925 170.200891 
z
" clip-path="url(#p8dc72b5d61)" style="fill: #ef4444; stroke: #ef4444; stroke-linejoin: miter"/>
   </g>
   <g id="patch_30">
    <path d="M 429.1925 167.406731 
L 439.2725 167.406731 
Q 439.5605 167.406731 439.5605 167.3073 
L 439.5605 160.552902 
Q 439.5605 160.453472 439.2725 160.453472 
L 429.1925 160.453472 
Q 428.9045 160.453472 428.9045 160.552902 
L 428.9045 167.3073 
Q 428.9045 167.406731 429.1925 167.406731 
z
" clip-path="url(#p8dc72b5d61)" style="fill: #ef4444; stroke: #ef4444; stroke-linejoin: miter"/>
   </g>
   <g id="patch_31">
    <path d="M 443.5925 178.187254 
L 453.6725 178.187254 
Q 453.9605 178.187254 453.9605 178.087824 
L 453.9605 174.718629 
Q 453.9605 174.619198 453.6725 174.619198 
L 443.5925 174.619198 
Q 443.3045 174.619198 443.3045 174.718629 
L 443.3045 178.087824 
Q 443.3045 178.187254 443.5925 178.187254 
z
" clip-path="url(#p8dc72b5d61)" style="fill: #ef4444; stroke: #ef4444; stroke-linejoin: miter"/>
   </g>
   <g id="patch_32">
    <path d="M 457.9925 176.182301 
L 468.0725 176.182301 
Q 468.3605 176.182301 468.3605 176.08287 
L 468.3605 169.860076 
Q 468.3605 169.760645 468.0725 169.760645 
L 457.9925 169.760645 
Q 457.7045 169.760645 457.7045 169.860076 
L 457.7045 176.08287 
Q 457.7045 176.182301 457.9925 176.182301 
z
" clip-path="url(#p8dc72b5d61)" style="fill: #22c55e; stroke: #22c55e; stroke-linejoin: miter"/>
   </g>
   <g id="matplotlib.axis_1">
    <g id="xtick_1">
     <g id="line2d_1">
      <path d="M 45.4325 193.58154 
L 45.4325 31.318125 
" clip-path="url(#p8dc72b5d61)" style="fill: none; stroke-dasharray: 2.96,1.28; stroke-dashoffset: 0; stroke: #374151; stroke-opacity: 0.1; stroke-width: 0.8"/>
     </g>
     <g id="line2d_2">
      <defs>
       <path id="me8f4457027" d="M 0 0 
L 0 3.5 
" style="stroke: #9ca3af; stroke-width: 0.8"/>
      </defs>
      <g>
       <use xlink:href="#me8f4457027" x="45.4325" y="193.58154" style="fill: #9ca3af; stroke: #9ca3af; stroke-width: 0.8"/>
      </g>
     </g>
    </g>
    <g id="xtick_2">
     <g id="line2d_3">
      <path d="M 117.4325 193.58154 
L 117.4325 31.318125 
" clip-path="url(#p8dc72b5d61)" style="fill: none; stroke-dasharray: 2.96,1.28; stroke-dashoffset: 0; stroke: #374151; stroke-opacity: 0.1; stroke-width: 0.8"/>
     </g>
     <g id="line2d_4">
      <g>
       <use xlink:href="#me8f4457027" x="117.4325" y="193.58154" style="fill: #9ca3af; stroke: #9ca3af; stroke-width: 0.8"/>
      </g>
     </g>
    </g>
    <g id="xtick_3">
     <g id="line2d_5">
      <path d="M 189.4325 193.58154 
L 189.4325 31.318125 
" clip-path="url(#p8dc72b5d61)" style="fill: none; stroke-dasharray: 2.96,1.28; stroke-dashoffset: 0; stroke: #374151; stroke-opacity: 0.1; stroke-width: 0.8"/>
     </g>
     <g id="line2d_6">
      <g>
       <use xlink:href="#me8f4457027" x="189.4325" y="193.58154" style="fill: #9ca3af; stroke: #9ca3af; stroke-width: 0.8"/>
      </g>
     </g>
    </g>
    <g id="xtick_4">
     <g id="line2d_7">
      <path d="M 261.4325 193.58154 
L 261.4325 31.318125 
" clip-path="url(#p8dc72b5d61)" style="fill: none; stroke-dasharray: 2.96,1.28; stroke-dashoffset: 0; stroke: #374151; stroke-opacity: 0.1; stroke-width: 0.8"/>
     </g>
     <g id="line2d_8">
      <g>
       <use xlink:href="#me8f4457027" x="261.4325" y="193.58154" style="fill: #9ca3af; stroke: #9ca3af; stroke-width: 0.8"/>
      </g>
     </g>
    </g>
    <g id="xtick_5">
     <g id="line2d_9">
      <path d="M 333.4325 193.58154 
L 333.4325 31.318125 
" clip-path="url(#p8dc72b5d61)" style="fill: none; stroke-dasharray: 2.96,1.28; stroke-dashoffset: 0; stroke: #374151; stroke-opacity: 0.1; stroke-width: 0.8"/>
     </g>
     <g id="line2d_10">
      <g>
       <use xlink:href="#me8f4457027" x="333.4325" y="193.58154" style="fill: #9ca3af; stroke: #9ca3af; stroke-width: 0.8"/>
      </g>
     </g>
    </g>
    <g id="xtick_6">
     <g id="line2d_11">
      <path d="M 405.4325 193.58154 
L 405.4325 31.318125 
" clip-path="url(#p8dc72b5d61)" style="fill: none; stroke-dasharray: 2.96,1.28; stroke-dashoffset: 0; stroke: #374151; stroke-opacity: 0.1; stroke-width: 0.8"/>
     </g>
     <g id="line2d_12">
      <g>
       <use xlink:href="#me8f4457027" x="405.4325" y="193.58154" style="fill: #9ca3af; stroke: #9ca3af; stroke-width: 0.8"/>
      </g>
     </g>
    </g>
    <g id="xtick_7">
     <g id="line2d_13">
      <path d="M 477.4325 193.58154 
L 477.4325 31.318125 
" clip-path="url(#p8dc72b5d61)" style="fill: none; stroke-dasharray: 2.96,1.28; stroke-dashoffset: 0; stroke: #374151; stroke-opacity: 0.1; stroke-width: 0.8"/>
     </g>
     <g id="line2d_14">
      <g>
       <use xlink:href="#me8f4457027" x="477.4325" y="193.58154" style="fill: #9ca3af; stroke: #9ca3af; stroke-width: 0.8"/>
      </g>
     </g>
    </g>
   </g>
   <g id="matplotlib.axis_2">
    <g id="ytick_1">
     <g id="line2d_15">
      <path d="M 31.0325 173.801114 
L 477.4325 173.801114 
" clip-path="url(#p8dc72b5d61)" style="fill: none; stroke-dasharray: 2.96,1.28; stroke-dashoffset: 0; stroke: #374151; stroke-opacity: 0.1; stroke-width: 0.8"/>
     </g>
     <g id="line2d_16">
      <defs>
       <path id="m919310c879" d="M 0 0 
L -3.5 0 
" style="stroke: #9ca3af; stroke-width: 0.8"/>
      </defs>
      <g>
       <use xlink:href="#m919310c879" x="31.0325" y="173.801114" style="fill: #9ca3af; stroke: #9ca3af; stroke-width: 0.8"/>
      </g>
     </g>
     <g id="text_1">
      <!-- 75 -->
      <g style="fill: #9ca3af" transform="translate(13.8525 176.840489) scale(0.08 -0.08)">
       <defs>
        <path id="DejaVuSans-37" d="M 525 4666 
L 3525 4666 
L 3525 4397 
L 1831 0 
L 1172 0 
L 2766 4134 
L 525 4134 
L 525 4666 
z
" transform="scale(0.015625)"/>
        <path id="DejaVuSans-35" d="M 691 4666 
L 3169 4666 
L 3169 4134 
L 1269 4134 
L 1269 2991 
Q 1406 3038 1543 3061 
Q 1681 3084 1819 3084 
Q 2600 3084 3056 2656 
Q 3513 2228 3513 1497 
Q 3513 744 3044 326 
Q 2575 -91 1722 -91 
Q 1428 -91 1123 -41 
Q 819 9 494 109 
L 494 744 
Q 775 591 1075 516 
Q 1375 441 1709 441 
Q 2250 441 2565 725 
Q 2881 1009 2881 1497 
Q 2881 1984 2565 2268 
Q 2250 2553 1709 2553 
Q 1456 2553 1204 2497 
Q 953 2441 691 2322 
L 691 4666 
z
" transform="scale(0.015625)"/>
       </defs>
       <use xlink:href="#DejaVuSans-37"/>
       <use xlink:href="#DejaVuSans-35" transform="translate(63.623047 0)"/>
      </g>
     </g>
    </g>
    <g id="ytick_2">
     <g id="line2d_17">
      <path d="M 31.0325 148.94344 
L 477.4325 148.94344 
" clip-path="url(#p8dc72b5d61)" style="fill: none; stroke-dasharray: 2.96,1.28; stroke-dashoffset: 0; stroke: #374151; stroke-opacity: 0.1; stroke-width: 0.8"/>
     </g>
     <g id="line2d_18">
      <g>
       <use xlink:href="#m919310c879" x="31.0325" y="148.94344" style="fill: #9ca3af; stroke: #9ca3af; stroke-width: 0.8"/>
      </g>
     </g>
     <g id="text_2">
      <!-- 80 -->
      <g style="fill: #9ca3af" transform="translate(13.8525 151.982815) scale(0.08 -0.08)">
       <defs>
        <path id="DejaVuSans-38" d="M 2034 2216 
Q 1584 2216 1326 1975 
Q 1069 1734 1069 1313 
Q 1069 891 1326 650 
Q 1584 409 2034 409 
Q 2484 409 2743 651 
Q 3003 894 3003 1313 
Q 3003 1734 2745 1975 
Q 2488 2216 2034 2216 
z
M 1403 2484 
Q 997 2584 770 2862 
Q 544 3141 544 3541 
Q 544 4100 942 4425 
Q 1341 4750 2034 4750 
Q 2731 4750 3128 4425 
Q 3525 4100 3525 3541 
Q 3525 3141 3298 2862 
Q 3072 2584 2669 2484 
Q 3125 2378 3379 2068 
Q 3634 1759 3634 1313 
Q 3634 634 3220 271 
Q 2806 -91 2034 -91 
Q 1263 -91 848 271 
Q 434 634 434 1313 
Q 434 1759 690 2068 
Q 947 2378 1403 2484 
z
M 1172 3481 
Q 1172 3119 1398 2916 
Q 1625 2713 2034 2713 
Q 2441 2713 2670 2916 
Q 2900 3119 2900 3481 
Q 2900 3844 2670 4047 
Q 2441 4250 2034 4250 
Q 1625 4250 1398 4047 
Q 1172 3844 1172 3481 
z
" transform="scale(0.015625)"/>
        <path id="DejaVuSans-30" d="M 2034 4250 
Q 1547 4250 1301 3770 
Q 1056 3291 1056 2328 
Q 1056 1369 1301 889 
Q 1547 409 2034 409 
Q 2525 409 2770 889 
Q 3016 1369 3016 2328 
Q 3016 3291 2770 3770 
Q 2525 4250 2034 4250 
z
M 2034 4750 
Q 2819 4750 3233 4129 
Q 3647 3509 3647 2328 
Q 3647 1150 3233 529 
Q 2819 -91 2034 -91 
Q 1250 -91 836 529 
Q 422 1150 422 2328 
Q 422 3509 836 4129 
Q 1250 4750 2034 4750 
z
" transform="scale(0.015625)"/>
       </defs>
       <use xlink:href="#DejaVuSans-38"/>
       <use xlink:href="#DejaVuSans-30" transform="translate(63.623047 0)"/>
      </g>
     </g>
    </g>
    <g id="ytick_3">
     <g id="line2d_19">
      <path d="M 31.0325 124.085766 
L 477.4325 124.085766 
" clip-path="url(#p8dc72b5d61)" style="fill: none; stroke-dasharray: 2.96,1.28; stroke-dashoffset: 0; stroke: #374151; stroke-opacity: 0.1; stroke-width: 0.8"/>
     </g>
     <g id="line2d_20">
      <g>
       <use xlink:href="#m919310c879" x="31.0325" y="124.085766" style="fill: #9ca3af; stroke: #9ca3af; stroke-width: 0.8"/>
      </g>
     </g>
     <g id="text_3">
      <!-- 85 -->
      <g style="fill: #9ca3af" transform="translate(13.8525 127.125141) scale(0.08 -0.08)">
       <use xlink:href="#DejaVuSans-38"/>
       <use xlink:href="#DejaVuSans-35" transform="translate(63.623047 0)"/>
      </g>
     </g>
    </g>
    <g id="ytick_4">
     <g id="line2d_21">
      <path d="M 31.0325 99.228091 
L 477.4325 99.228091 
" clip-path="url(#p8dc72b5d61)" style="fill: none; stroke-dasharray: 2.96,1.28; stroke-dashoffset: 0; stroke: #374151; stroke-opacity: 0.1; stroke-width: 0.8"/>
     </g>
     <g id="line2d_22">
      <g>
       <use xlink:href="#m919310c879" x="31.0325" y="99.228091" style="fill: #9ca3af; stroke: #9ca3af; stroke-width: 0.8"/>
      </g>
     </g>
     <g id="text_4">
      <!-- 90 -->
      <g style="fill: #9ca3af" transform="translate(13.8525 102.267466) scale(0.08 -0.08)">
       <defs>
        <path id="DejaVuSans-39" d="M 703 97 
L 703 672 
Q 941 559 1184 500 
Q 1428 441 1663 441 
Q 2288 441 2617 861 
Q 2947 1281 2994 2138 
Q 2813 1869 2534 1725 
Q 2256 1581 1919 1581 
Q 1219 1581 811 2004 
Q 403 2428 403 3163 
Q 403 3881 828 4315 
Q 1253 4750 1959 4750 
Q 2769 4750 3195 4129 
Q 3622 3509 3622 2328 
Q 3622 1225 3098 567 
Q 2575 -91 1691 -91 
Q 1453 -91 1209 -44 
Q 966 3 703 97 
z
M 1959 2075 
Q 2384 2075 2632 2365 
Q 2881 2656 2881 3163 
Q 2881 3666 2632 3958 
Q 2384 4250 1959 4250 
Q 1534 4250 1286 3958 
Q 1038 3666 1038 3163 
Q 1038 2656 1286 2365 
Q 1534 2075 1959 2075 
z
" transform="scale(0.015625)"/>
       </defs>
       <use xlink:href="#DejaVuSans-39"/>
       <use xlink:href="#DejaVuSans-30" transform="translate(63.623047 0)"/>
      </g>
     </g>
    </g>
    <g id="ytick_5">
     <g id="line2d_23">
      <path d="M 31.0325 74.370417 
L 477.4325 74.370417 
" clip-path="url(#p8dc72b5d61)" style="fill: none; stroke-dasharray: 2.96,1.28; stroke-dashoffset: 0; stroke: #374151; stroke-opacity: 0.1; stroke-width: 0.8"/>
     </g>
     <g id="line2d_24">
      <g>
       <use xlink:href="#m919310c879" x="31.0325" y="74.370417" style="fill: #9ca3af; stroke: #9ca3af; stroke-width: 0.8"/>
      </g>
     </g>
     <g id="text_5">
      <!-- 95 -->
      <g style="fill: #9ca3af" transform="translate(13.8525 77.409792) scale(0.08 -0.08)">
       <use xlink:href="#DejaVuSans-39"/>
       <use xlink:href="#DejaVuSans-35" transform="translate(63.623047 0)"/>
      </g>
     </g>
    </g>
    <g id="ytick_6">
     <g id="line2d_25">
      <path d="M 31.0325 49.512742 
L 477.4325 49.512742 
" clip-path="url(#p8dc72b5d61)" style="fill: none; stroke-dasharray: 2.96,1.28; stroke-dashoffset: 0; stroke: #374151; stroke-opacity: 0.1; stroke-width: 0.8"/>
     </g>
     <g id="line2d_26">
      <g>
       <use xlink:href="#m919310c879" x="31.0325" y="49.512742" style="fill: #9ca3af; stroke: #9ca3af; stroke-width: 0.8"/>
      </g>
     </g>
     <g id="text_6">
      <!-- 100 -->
      <g style="fill: #9ca3af" transform="translate(8.7625 52.552117) scale(0.08 -0.08)">
       <defs>
        <path id="DejaVuSans-31" d="M 794 531 
L 1825 531 
L 1825 4091 
L 703 3866 
L 703 4441 
L 1819 4666 
L 2450 4666 
L 2450 531 
L 3481 531 
L 3481 0 
L 794 0 
L 794 531 
z
" transform="scale(0.015625)"/>
       </defs>
       <use xlink:href="#DejaVuSans-31"/>
       <use xlink:href="#DejaVuSans-30" transform="translate(63.623047 0)"/>
       <use xlink:href="#DejaVuSans-30" transform="translate(127.246094 0)"/>
      </g>
     </g>
    </g>
   </g>
   <g id="line2d_27">
    <path d="M 45.4325 55.089633 
L 45.4325 44.840076 
" clip-path="url(#p8dc72b5d61)" style="fill: none; stroke: #22c55e; stroke-width: 1.5; stroke-linecap: square"/>
   </g>
   <g id="line2d_28">
    <path d="M 59.8325 63.608181 
L 59.8325 54.011782 
" clip-path="url(#p8dc72b5d61)" style="fill: none; stroke: #ef4444; stroke-width: 1.5; stroke-linecap: square"/>
   </g>
   <g id="line2d_29">
    <path d="M 74.2325 65.932011 
L 74.2325 59.190035 
" clip-path="url(#p8dc72b5d61)" style="fill: none; stroke: #ef4444; stroke-width: 1.5; stroke-linecap: square"/>
   </g>
   <g id="line2d_30">
    <path d="M 88.6325 68.709664 
L 88.6325 60.07757 
" clip-path="url(#p8dc72b5d61)" style="fill: none; stroke: #ef4444; stroke-width: 1.5; stroke-linecap: square"/>
   </g>
   <g id="line2d_31">
    <path d="M 103.0325 75.884065 
L 103.0325 68.031782 
" clip-path="url(#p8dc72b5d61)" style="fill: none; stroke: #22c55e; stroke-width: 1.5; stroke-linecap: square"/>
   </g>
   <g id="line2d_32">
    <path d="M 117.4325 79.790666 
L 117.4325 74.338248 
" clip-path="url(#p8dc72b5d61)" style="fill: none; stroke: #22c55e; stroke-width: 1.5; stroke-linecap: square"/>
   </g>
   <g id="line2d_33">
    <path d="M 131.8325 88.53037 
L 131.8325 79.483819 
" clip-path="url(#p8dc72b5d61)" style="fill: none; stroke: #22c55e; stroke-width: 1.5; stroke-linecap: square"/>
   </g>
   <g id="line2d_34">
    <path d="M 146.2325 96.513466 
L 146.2325 85.176434 
" clip-path="url(#p8dc72b5d61)" style="fill: none; stroke: #ef4444; stroke-width: 1.5; stroke-linecap: square"/>
   </g>
   <g id="line2d_35">
    <path d="M 160.6325 100.664012 
L 160.6325 92.137493 
" clip-path="url(#p8dc72b5d61)" style="fill: none; stroke: #22c55e; stroke-width: 1.5; stroke-linecap: square"/>
   </g>
   <g id="line2d_36">
    <path d="M 175.0325 99.402367 
L 175.0325 88.514076 
" clip-path="url(#p8dc72b5d61)" style="fill: none; stroke: #22c55e; stroke-width: 1.5; stroke-linecap: square"/>
   </g>
   <g id="line2d_37">
    <path d="M 189.4325 108.356026 
L 189.4325 99.593942 
" clip-path="url(#p8dc72b5d61)" style="fill: none; stroke: #22c55e; stroke-width: 1.5; stroke-linecap: square"/>
   </g>
   <g id="line2d_38">
    <path d="M 203.8325 110.547628 
L 203.8325 102.811159 
" clip-path="url(#p8dc72b5d61)" style="fill: none; stroke: #ef4444; stroke-width: 1.5; stroke-linecap: square"/>
   </g>
   <g id="line2d_39">
    <path d="M 218.2325 124.231288 
L 218.2325 117.188132 
" clip-path="url(#p8dc72b5d61)" style="fill: none; stroke: #22c55e; stroke-width: 1.5; stroke-linecap: square"/>
   </g>
   <g id="line2d_40">
    <path d="M 232.6325 129.358751 
L 232.6325 123.270183 
" clip-path="url(#p8dc72b5d61)" style="fill: none; stroke: #22c55e; stroke-width: 1.5; stroke-linecap: square"/>
   </g>
   <g id="line2d_41">
    <path d="M 247.0325 134.901809 
L 247.0325 130.484596 
" clip-path="url(#p8dc72b5d61)" style="fill: none; stroke: #ef4444; stroke-width: 1.5; stroke-linecap: square"/>
   </g>
   <g id="line2d_42">
    <path d="M 261.4325 144.832468 
L 261.4325 134.83739 
" clip-path="url(#p8dc72b5d61)" style="fill: none; stroke: #22c55e; stroke-width: 1.5; stroke-linecap: square"/>
   </g>
   <g id="line2d_43">
    <path d="M 275.8325 147.067785 
L 275.8325 135.999061 
" clip-path="url(#p8dc72b5d61)" style="fill: none; stroke: #ef4444; stroke-width: 1.5; stroke-linecap: square"/>
   </g>
   <g id="line2d_44">
    <path d="M 290.2325 147.782383 
L 290.2325 137.275022 
" clip-path="url(#p8dc72b5d61)" style="fill: none; stroke: #22c55e; stroke-width: 1.5; stroke-linecap: square"/>
   </g>
   <g id="line2d_45">
    <path d="M 304.6325 147.632501 
L 304.6325 141.131864 
" clip-path="url(#p8dc72b5d61)" style="fill: none; stroke: #ef4444; stroke-width: 1.5; stroke-linecap: square"/>
   </g>
   <g id="line2d_46">
    <path d="M 319.0325 160.022562 
L 319.0325 156.180354 
" clip-path="url(#p8dc72b5d61)" style="fill: none; stroke: #22c55e; stroke-width: 1.5; stroke-linecap: square"/>
   </g>
   <g id="line2d_47">
    <path d="M 333.4325 171.01369 
L 333.4325 165.153377 
" clip-path="url(#p8dc72b5d61)" style="fill: none; stroke: #ef4444; stroke-width: 1.5; stroke-linecap: square"/>
   </g>
   <g id="line2d_48">
    <path d="M 347.8325 171.352409 
L 347.8325 164.975769 
" clip-path="url(#p8dc72b5d61)" style="fill: none; stroke: #22c55e; stroke-width: 1.5; stroke-linecap: square"/>
   </g>
   <g id="line2d_49">
    <path d="M 362.2325 168.507448 
L 362.2325 156.161327 
" clip-path="url(#p8dc72b5d61)" style="fill: none; stroke: #ef4444; stroke-width: 1.5; stroke-linecap: square"/>
   </g>
   <g id="line2d_50">
    <path d="M 376.6325 163.634884 
L 376.6325 154.164631 
" clip-path="url(#p8dc72b5d61)" style="fill: none; stroke: #22c55e; stroke-width: 1.5; stroke-linecap: square"/>
   </g>
   <g id="line2d_51">
    <path d="M 391.0325 171.867347 
L 391.0325 158.964292 
" clip-path="url(#p8dc72b5d61)" style="fill: none; stroke: #22c55e; stroke-width: 1.5; stroke-linecap: square"/>
   </g>
   <g id="line2d_52">
    <path d="M 405.4325 173.599917 
L 405.4325 164.433322 
" clip-path="url(#p8dc72b5d61)" style="fill: none; stroke: #ef4444; stroke-width: 1.5; stroke-linecap: square"/>
   </g>
   <g id="line2d_53">
    <path d="M 419.8325 173.004648 
L 419.8325 162.502686 
" clip-path="url(#p8dc72b5d61)" style="fill: none; stroke: #ef4444; stroke-width: 1.5; stroke-linecap: square"/>
   </g>
   <g id="line2d_54">
    <path d="M 434.2325 168.331695 
L 434.2325 157.669655 
" clip-path="url(#p8dc72b5d61)" style="fill: none; stroke: #ef4444; stroke-width: 1.5; stroke-linecap: square"/>
   </g>
   <g id="line2d_55">
    <path d="M 448.6325 180.059588 
L 448.6325 173.9435 
" clip-path="url(#p8dc72b5d61)" style="fill: none; stroke: #ef4444; stroke-width: 1.5; stroke-linecap: square"/>
   </g>
   <g id="line2d_56">
    <path d="M 463.0325 178.676206 
L 463.0325 168.059453 
" clip-path="url(#p8dc72b5d61)" style="fill: none; stroke: #22c55e; stroke-width: 1.5; stroke-linecap: square"/>
   </g>
   <g id="patch_33">
    <path d="M 31.0325 193.58154 
L 31.0325 31.318125 
" style="fill: none; stroke: #1f2937; stroke-width: 0.8; stroke-linejoin: miter; stroke-linecap: square"/>
   </g>
   <g id="patch_34">
    <path d="M 31.0325 193.58154 
L 477.4325 193.58154 
" style="fill: none; stroke: #1f2937; stroke-width: 0.8; stroke-linejoin: miter; stroke-linecap: square"/>
   </g>
   <g id="text_7">
    <!-- Upside Tasuki Gap — AAPL 1H -->
    <g style="fill: #ffffff" transform="translate(153.39875 16.318125) scale(0.12 -0.12)">
     <defs>
      <path id="DejaVuSans-Bold-55" d="M 588 4666 
L 1791 4666 
L 1791 1869 
Q 1791 1291 1980 1042 
Q 2169 794 2597 794 
Q 3028 794 3217 1042 
Q 3406 1291 3406 1869 
L 3406 4666 
L 4609 4666 
L 4609 1869 
Q 4609 878 4112 393 
Q 3616 -91 2597 -91 
Q 1581 -91 1084 393 
Q 588 878 588 1869 
L 588 4666 
z
" transform="scale(0.015625)"/>
      <path id="DejaVuSans-Bold-70" d="M 1656 506 
L 1656 -1331 
L 538 -1331 
L 538 3500 
L 1656 3500 
L 1656 2988 
Q 1888 3294 2169 3439 
Q 2450 3584 2816 3584 
Q 3463 3584 3878 3070 
Q 4294 2556 4294 1747 
Q 4294 938 3878 423 
Q 3463 -91 2816 -91 
Q 2450 -91 2169 54 
Q 1888 200 1656 506 
z
M 2400 2772 
Q 2041 2772 1848 2508 
Q 1656 2244 1656 1747 
Q 1656 1250 1848 986 
Q 2041 722 2400 722 
Q 2759 722 2948 984 
Q 3138 1247 3138 1747 
Q 3138 2247 2948 2509 
Q 2759 2772 2400 2772 
z
" transform="scale(0.015625)"/>
      <path id="DejaVuSans-Bold-73" d="M 3272 3391 
L 3272 2541 
Q 2913 2691 2578 2766 
Q 2244 2841 1947 2841 
Q 1628 2841 1473 2761 
Q 1319 2681 1319 2516 
Q 1319 2381 1436 2309 
Q 1553 2238 1856 2203 
L 2053 2175 
Q 2913 2066 3209 1816 
Q 3506 1566 3506 1031 
Q 3506 472 3093 190 
Q 2681 -91 1863 -91 
Q 1516 -91 1145 -36 
Q 775 19 384 128 
L 384 978 
Q 719 816 1070 734 
Q 1422 653 1784 653 
Q 2113 653 2278 743 
Q 2444 834 2444 1013 
Q 2444 1163 2330 1236 
Q 2216 1309 1875 1350 
L 1678 1375 
Q 931 1469 631 1722 
Q 331 1975 331 2491 
Q 331 3047 712 3315 
Q 1094 3584 1881 3584 
Q 2191 3584 2531 3537 
Q 2872 3491 3272 3391 
z
" transform="scale(0.015625)"/>
      <path id="DejaVuSans-Bold-69" d="M 538 3500 
L 1656 3500 
L 1656 0 
L 538 0 
L 538 3500 
z
M 538 4863 
L 1656 4863 
L 1656 3950 
L 538 3950 
L 538 4863 
z
" transform="scale(0.015625)"/>
      <path id="DejaVuSans-Bold-64" d="M 2919 2988 
L 2919 4863 
L 4044 4863 
L 4044 0 
L 2919 0 
L 2919 506 
Q 2688 197 2409 53 
Q 2131 -91 1766 -91 
Q 1119 -91 703 423 
Q 288 938 288 1747 
Q 288 2556 703 3070 
Q 1119 3584 1766 3584 
Q 2128 3584 2408 3439 
Q 2688 3294 2919 2988 
z
M 2181 722 
Q 2541 722 2730 984 
Q 2919 1247 2919 1747 
Q 2919 2247 2730 2509 
Q 2541 2772 2181 2772 
Q 1825 2772 1636 2509 
Q 1447 2247 1447 1747 
Q 1447 1247 1636 984 
Q 1825 722 2181 722 
z
" transform="scale(0.015625)"/>
      <path id="DejaVuSans-Bold-65" d="M 4031 1759 
L 4031 1441 
L 1416 1441 
Q 1456 1047 1700 850 
Q 1944 653 2381 653 
Q 2734 653 3104 758 
Q 3475 863 3866 1075 
L 3866 213 
Q 3469 63 3072 -14 
Q 2675 -91 2278 -91 
Q 1328 -91 801 392 
Q 275 875 275 1747 
Q 275 2603 792 3093 
Q 1309 3584 2216 3584 
Q 3041 3584 3536 3087 
Q 4031 2591 4031 1759 
z
M 2881 2131 
Q 2881 2450 2695 2645 
Q 2509 2841 2209 2841 
Q 1884 2841 1681 2658 
Q 1478 2475 1428 2131 
L 2881 2131 
z
" transform="scale(0.015625)"/>
      <path id="DejaVuSans-Bold-20" transform="scale(0.015625)"/>
      <path id="DejaVuSans-Bold-54" d="M 31 4666 
L 4331 4666 
L 4331 3756 
L 2784 3756 
L 2784 0 
L 1581 0 
L 1581 3756 
L 31 3756 
L 31 4666 
z
" transform="scale(0.015625)"/>
      <path id="DejaVuSans-Bold-61" d="M 2106 1575 
Q 1756 1575 1579 1456 
Q 1403 1338 1403 1106 
Q 1403 894 1545 773 
Q 1688 653 1941 653 
Q 2256 653 2472 879 
Q 2688 1106 2688 1447 
L 2688 1575 
L 2106 1575 
z
M 3816 1997 
L 3816 0 
L 2688 0 
L 2688 519 
Q 2463 200 2181 54 
Q 1900 -91 1497 -91 
Q 953 -91 614 226 
Q 275 544 275 1050 
Q 275 1666 698 1953 
Q 1122 2241 2028 2241 
L 2688 2241 
L 2688 2328 
Q 2688 2594 2478 2717 
Q 2269 2841 1825 2841 
Q 1466 2841 1156 2769 
Q 847 2697 581 2553 
L 581 3406 
Q 941 3494 1303 3539 
Q 1666 3584 2028 3584 
Q 2975 3584 3395 3211 
Q 3816 2838 3816 1997 
z
" transform="scale(0.015625)"/>
      <path id="DejaVuSans-Bold-75" d="M 500 1363 
L 500 3500 
L 1625 3500 
L 1625 3150 
Q 1625 2866 1622 2436 
Q 1619 2006 1619 1863 
Q 1619 1441 1641 1255 
Q 1663 1069 1716 984 
Q 1784 875 1895 815 
Q 2006 756 2150 756 
Q 2500 756 2700 1025 
Q 2900 1294 2900 1772 
L 2900 3500 
L 4019 3500 
L 4019 0 
L 2900 0 
L 2900 506 
Q 2647 200 2364 54 
Q 2081 -91 1741 -91 
Q 1134 -91 817 281 
Q 500 653 500 1363 
z
" transform="scale(0.015625)"/>
      <path id="DejaVuSans-Bold-6b" d="M 538 4863 
L 1656 4863 
L 1656 2216 
L 2944 3500 
L 4244 3500 
L 2534 1894 
L 4378 0 
L 3022 0 
L 1656 1459 
L 1656 0 
L 538 0 
L 538 4863 
z
" transform="scale(0.015625)"/>
      <path id="DejaVuSans-Bold-47" d="M 4781 347 
Q 4331 128 3847 18 
Q 3363 -91 2847 -91 
Q 1681 -91 1000 561 
Q 319 1213 319 2328 
Q 319 3456 1012 4103 
Q 1706 4750 2913 4750 
Q 3378 4750 3804 4662 
Q 4231 4575 4609 4403 
L 4609 3438 
Q 4219 3659 3833 3768 
Q 3447 3878 3059 3878 
Q 2341 3878 1952 3476 
Q 1563 3075 1563 2328 
Q 1563 1588 1938 1184 
Q 2313 781 3003 781 
Q 3191 781 3352 804 
Q 3513 828 3641 878 
L 3641 1784 
L 2906 1784 
L 2906 2591 
L 4781 2591 
L 4781 347 
z
" transform="scale(0.015625)"/>
      <path id="DejaVuSans-Bold-2014" d="M 344 2156 
L 6056 2156 
L 6056 1350 
L 344 1350 
L 344 2156 
z
" transform="scale(0.015625)"/>
      <path id="DejaVuSans-Bold-41" d="M 3419 850 
L 1538 850 
L 1241 0 
L 31 0 
L 1759 4666 
L 3194 4666 
L 4922 0 
L 3713 0 
L 3419 850 
z
M 1838 1716 
L 3116 1716 
L 2478 3572 
L 1838 1716 
z
" transform="scale(0.015625)"/>
      <path id="DejaVuSans-Bold-50" d="M 588 4666 
L 2584 4666 
Q 3475 4666 3951 4270 
Q 4428 3875 4428 3144 
Q 4428 2409 3951 2014 
Q 3475 1619 2584 1619 
L 1791 1619 
L 1791 0 
L 588 0 
L 588 4666 
z
M 1791 3794 
L 1791 2491 
L 2456 2491 
Q 2806 2491 2997 2661 
Q 3188 2831 3188 3144 
Q 3188 3456 2997 3625 
Q 2806 3794 2456 3794 
L 1791 3794 
z
" transform="scale(0.015625)"/>
      <path id="DejaVuSans-Bold-4c" d="M 588 4666 
L 1791 4666 
L 1791 909 
L 3903 909 
L 3903 0 
L 588 0 
L 588 4666 
z
" transform="scale(0.015625)"/>
      <path id="DejaVuSans-Bold-31" d="M 750 831 
L 1813 831 
L 1813 3847 
L 722 3622 
L 722 4441 
L 1806 4666 
L 2950 4666 
L 2950 831 
L 4013 831 
L 4013 0 
L 750 0 
L 750 831 
z
" transform="scale(0.015625)"/>
      <path id="DejaVuSans-Bold-48" d="M 588 4666 
L 1791 4666 
L 1791 2888 
L 3566 2888 
L 3566 4666 
L 4769 4666 
L 4769 0 
L 3566 0 
L 3566 1978 
L 1791 1978 
L 1791 0 
L 588 0 
L 588 4666 
z
" transform="scale(0.015625)"/>
     </defs>
     <use xlink:href="#DejaVuSans-Bold-55"/>
     <use xlink:href="#DejaVuSans-Bold-70" transform="translate(81.201172 0)"/>
     <use xlink:href="#DejaVuSans-Bold-73" transform="translate(152.783203 0)"/>
     <use xlink:href="#DejaVuSans-Bold-69" transform="translate(212.304688 0)"/>
     <use xlink:href="#DejaVuSans-Bold-64" transform="translate(246.582031 0)"/>
     <use xlink:href="#DejaVuSans-Bold-65" transform="translate(318.164062 0)"/>
     <use xlink:href="#DejaVuSans-Bold-20" transform="translate(385.986328 0)"/>
     <use xlink:href="#DejaVuSans-Bold-54" transform="translate(420.800781 0)"/>
     <use xlink:href="#DejaVuSans-Bold-61" transform="translate(476.138672 0)"/>
     <use xlink:href="#DejaVuSans-Bold-73" transform="translate(543.619141 0)"/>
     <use xlink:href="#DejaVuSans-Bold-75" transform="translate(603.140625 0)"/>
     <use xlink:href="#DejaVuSans-Bold-6b" transform="translate(674.332031 0)"/>
     <use xlink:href="#DejaVuSans-Bold-69" transform="translate(740.835938 0)"/>
     <use xlink:href="#DejaVuSans-Bold-20" transform="translate(775.113281 0)"/>
     <use xlink:href="#DejaVuSans-Bold-47" transform="translate(809.927734 0)"/>
     <use xlink:href="#DejaVuSans-Bold-61" transform="translate(892.007812 0)"/>
     <use xlink:href="#DejaVuSans-Bold-70" transform="translate(959.488281 0)"/>
     <use xlink:href="#DejaVuSans-Bold-20" transform="translate(1031.070312 0)"/>
     <use xlink:href="#DejaVuSans-Bold-2014" transform="translate(1065.884766 0)"/>
     <use xlink:href="#DejaVuSans-Bold-20" transform="translate(1165.884766 0)"/>
     <use xlink:href="#DejaVuSans-Bold-41" transform="translate(1200.699219 0)"/>
     <use xlink:href="#DejaVuSans-Bold-41" transform="translate(1278.091797 0)"/>
     <use xlink:href="#DejaVuSans-Bold-50" transform="translate(1355.484375 0)"/>
     <use xlink:href="#DejaVuSans-Bold-4c" transform="translate(1428.775391 0)"/>
     <use xlink:href="#DejaVuSans-Bold-20" transform="translate(1492.496094 0)"/>
     <use xlink:href="#DejaVuSans-Bold-31" transform="translate(1527.310547 0)"/>
     <use xlink:href="#DejaVuSans-Bold-48" transform="translate(1596.890625 0)"/>
    </g>
   </g>
  </g>
  <g id="axes_2">
   <g id="patch_35">
    <path d="M 31.0325 253.078125 
L 477.4325 253.078125 
L 477.4325 198.99032 
L 31.0325 198.99032 
z
" style="fill: #0a0f1a"/>
   </g>
   <g id="patch_36">
    <path d="M 51.323409 253.078125 
L 60.888147 253.078125 
L 60.888147 215.313953 
L 51.323409 215.313953 
z
" clip-path="url(#p3848ec7a4f)" style="fill: #22c55e; fill-opacity: 0.266667"/>
   </g>
   <g id="patch_37">
    <path d="M 64.987321 253.078125 
L 74.552059 253.078125 
L 74.552059 228.818447 
L 64.987321 228.818447 
z
" clip-path="url(#p3848ec7a4f)" style="fill: #ef4444; fill-opacity: 0.266667"/>
   </g>
   <g id="patch_38">
    <path d="M 78.651233 253.078125 
L 88.215971 253.078125 
L 88.215971 221.939477 
L 78.651233 221.939477 
z
" clip-path="url(#p3848ec7a4f)" style="fill: #ef4444; fill-opacity: 0.266667"/>
   </g>
   <g id="patch_39">
    <path d="M 92.315145 253.078125 
L 101.879883 253.078125 
L 101.879883 221.98585 
L 92.315145 221.98585 
z
" clip-path="url(#p3848ec7a4f)" style="fill: #ef4444; fill-opacity: 0.266667"/>
   </g>
   <g id="patch_40">
    <path d="M 105.979056 253.078125 
L 115.543795 253.078125 
L 115.543795 222.118451 
L 105.979056 222.118451 
z
" clip-path="url(#p3848ec7a4f)" style="fill: #22c55e; fill-opacity: 0.266667"/>
   </g>
   <g id="patch_41">
    <path d="M 119.642968 253.078125 
L 129.207707 253.078125 
L 129.207707 225.542359 
L 119.642968 225.542359 
z
" clip-path="url(#p3848ec7a4f)" style="fill: #22c55e; fill-opacity: 0.266667"/>
   </g>
   <g id="patch_42">
    <path d="M 133.30688 253.078125 
L 142.871618 253.078125 
L 142.871618 239.144194 
L 133.30688 239.144194 
z
" clip-path="url(#p3848ec7a4f)" style="fill: #22c55e; fill-opacity: 0.266667"/>
   </g>
   <g id="patch_43">
    <path d="M 146.970792 253.078125 
L 156.53553 253.078125 
L 156.53553 233.080603 
L 146.970792 233.080603 
z
" clip-path="url(#p3848ec7a4f)" style="fill: #ef4444; fill-opacity: 0.266667"/>
   </g>
   <g id="patch_44">
    <path d="M 160.634704 253.078125 
L 170.199442 253.078125 
L 170.199442 213.751762 
L 160.634704 213.751762 
z
" clip-path="url(#p3848ec7a4f)" style="fill: #22c55e; fill-opacity: 0.266667"/>
   </g>
   <g id="patch_45">
    <path d="M 174.298616 253.078125 
L 183.863354 253.078125 
L 183.863354 216.209665 
L 174.298616 216.209665 
z
" clip-path="url(#p3848ec7a4f)" style="fill: #22c55e; fill-opacity: 0.266667"/>
   </g>
   <g id="patch_46">
    <path d="M 187.962528 253.078125 
L 197.527266 253.078125 
L 197.527266 236.784485 
L 187.962528 236.784485 
z
" clip-path="url(#p3848ec7a4f)" style="fill: #22c55e; fill-opacity: 0.266667"/>
   </g>
   <g id="patch_47">
    <path d="M 201.626439 253.078125 
L 211.191178 253.078125 
L 211.191178 215.303869 
L 201.626439 215.303869 
z
" clip-path="url(#p3848ec7a4f)" style="fill: #ef4444; fill-opacity: 0.266667"/>
   </g>
   <g id="patch_48">
    <path d="M 215.290351 253.078125 
L 224.85509 253.078125 
L 224.85509 238.608291 
L 215.290351 238.608291 
z
" clip-path="url(#p3848ec7a4f)" style="fill: #22c55e; fill-opacity: 0.266667"/>
   </g>
   <g id="patch_49">
    <path d="M 228.954263 253.078125 
L 238.519001 253.078125 
L 238.519001 209.461789 
L 228.954263 209.461789 
z
" clip-path="url(#p3848ec7a4f)" style="fill: #22c55e; fill-opacity: 0.266667"/>
   </g>
   <g id="patch_50">
    <path d="M 242.618175 253.078125 
L 252.182913 253.078125 
L 252.182913 216.838003 
L 242.618175 216.838003 
z
" clip-path="url(#p3848ec7a4f)" style="fill: #ef4444; fill-opacity: 0.266667"/>
   </g>
   <g id="patch_51">
    <path d="M 256.282087 253.078125 
L 265.846825 253.078125 
L 265.846825 212.065038 
L 256.282087 212.065038 
z
" clip-path="url(#p3848ec7a4f)" style="fill: #22c55e; fill-opacity: 0.266667"/>
   </g>
   <g id="patch_52">
    <path d="M 269.945999 253.078125 
L 279.510737 253.078125 
L 279.510737 218.441327 
L 269.945999 218.441327 
z
" clip-path="url(#p3848ec7a4f)" style="fill: #ef4444; fill-opacity: 0.266667"/>
   </g>
   <g id="patch_53">
    <path d="M 283.60991 253.078125 
L 293.174649 253.078125 
L 293.174649 211.375857 
L 283.60991 211.375857 
z
" clip-path="url(#p3848ec7a4f)" style="fill: #22c55e; fill-opacity: 0.266667"/>
   </g>
   <g id="patch_54">
    <path d="M 297.273822 253.078125 
L 306.838561 253.078125 
L 306.838561 229.863695 
L 297.273822 229.863695 
z
" clip-path="url(#p3848ec7a4f)" style="fill: #ef4444; fill-opacity: 0.266667"/>
   </g>
   <g id="patch_55">
    <path d="M 310.937734 253.078125 
L 320.502472 253.078125 
L 320.502472 235.191275 
L 310.937734 235.191275 
z
" clip-path="url(#p3848ec7a4f)" style="fill: #22c55e; fill-opacity: 0.266667"/>
   </g>
   <g id="patch_56">
    <path d="M 324.601646 253.078125 
L 334.166384 253.078125 
L 334.166384 236.996869 
L 324.601646 236.996869 
z
" clip-path="url(#p3848ec7a4f)" style="fill: #ef4444; fill-opacity: 0.266667"/>
   </g>
   <g id="patch_57">
    <path d="M 338.265558 253.078125 
L 347.830296 253.078125 
L 347.830296 219.983413 
L 338.265558 219.983413 
z
" clip-path="url(#p3848ec7a4f)" style="fill: #22c55e; fill-opacity: 0.266667"/>
   </g>
   <g id="patch_58">
    <path d="M 351.92947 253.078125 
L 361.494208 253.078125 
L 361.494208 214.280005 
L 351.92947 214.280005 
z
" clip-path="url(#p3848ec7a4f)" style="fill: #ef4444; fill-opacity: 0.266667"/>
   </g>
   <g id="patch_59">
    <path d="M 365.593382 253.078125 
L 375.15812 253.078125 
L 375.15812 223.226787 
L 365.593382 223.226787 
z
" clip-path="url(#p3848ec7a4f)" style="fill: #22c55e; fill-opacity: 0.266667"/>
   </g>
   <g id="patch_60">
    <path d="M 379.257293 253.078125 
L 388.822032 253.078125 
L 388.822032 226.559446 
L 379.257293 226.559446 
z
" clip-path="url(#p3848ec7a4f)" style="fill: #22c55e; fill-opacity: 0.266667"/>
   </g>
   <g id="patch_61">
    <path d="M 392.921205 253.078125 
L 402.485944 253.078125 
L 402.485944 226.394422 
L 392.921205 226.394422 
z
" clip-path="url(#p3848ec7a4f)" style="fill: #ef4444; fill-opacity: 0.266667"/>
   </g>
   <g id="patch_62">
    <path d="M 406.585117 253.078125 
L 416.149855 253.078125 
L 416.149855 219.534548 
L 406.585117 219.534548 
z
" clip-path="url(#p3848ec7a4f)" style="fill: #ef4444; fill-opacity: 0.266667"/>
   </g>
   <g id="patch_63">
    <path d="M 420.249029 253.078125 
L 429.813767 253.078125 
L 429.813767 209.031657 
L 420.249029 209.031657 
z
" clip-path="url(#p3848ec7a4f)" style="fill: #ef4444; fill-opacity: 0.266667"/>
   </g>
   <g id="patch_64">
    <path d="M 433.912941 253.078125 
L 443.477679 253.078125 
L 443.477679 227.388598 
L 433.912941 227.388598 
z
" clip-path="url(#p3848ec7a4f)" style="fill: #ef4444; fill-opacity: 0.266667"/>
   </g>
   <g id="patch_65">
    <path d="M 447.576853 253.078125 
L 457.141591 253.078125 
L 457.141591 201.56593 
L 447.576853 201.56593 
z
" clip-path="url(#p3848ec7a4f)" style="fill: #22c55e; fill-opacity: 0.266667"/>
   </g>
   <g id="matplotlib.axis_3">
    <g id="xtick_8">
     <g id="line2d_57">
      <path d="M 56.105778 253.078125 
L 56.105778 198.99032 
" clip-path="url(#p3848ec7a4f)" style="fill: none; stroke-dasharray: 2.96,1.28; stroke-dashoffset: 0; stroke: #374151; stroke-opacity: 0.1; stroke-width: 0.8"/>
     </g>
     <g id="line2d_58">
      <g>
       <use xlink:href="#me8f4457027" x="56.105778" y="253.078125" style="fill: #9ca3af; stroke: #9ca3af; stroke-width: 0.8"/>
      </g>
     </g>
     <g id="text_8">
      <!-- 0 -->
      <g style="fill: #9ca3af" transform="translate(53.560778 266.156875) scale(0.08 -0.08)">
       <use xlink:href="#DejaVuSans-30"/>
      </g>
     </g>
    </g>
    <g id="xtick_9">
     <g id="line2d_59">
      <path d="M 124.425337 253.078125 
L 124.425337 198.99032 
" clip-path="url(#p3848ec7a4f)" style="fill: none; stroke-dasharray: 2.96,1.28; stroke-dashoffset: 0; stroke: #374151; stroke-opacity: 0.1; stroke-width: 0.8"/>
     </g>
     <g id="line2d_60">
      <g>
       <use xlink:href="#me8f4457027" x="124.425337" y="253.078125" style="fill: #9ca3af; stroke: #9ca3af; stroke-width: 0.8"/>
      </g>
     </g>
     <g id="text_9">
      <!-- 5 -->
      <g style="fill: #9ca3af" transform="translate(121.880337 266.156875) scale(0.08 -0.08)">
       <use xlink:href="#DejaVuSans-35"/>
      </g>
     </g>
    </g>
    <g id="xtick_10">
     <g id="line2d_61">
      <path d="M 192.744897 253.078125 
L 192.744897 198.99032 
" clip-path="url(#p3848ec7a4f)" style="fill: none; stroke-dasharray: 2.96,1.28; stroke-dashoffset: 0; stroke: #374151; stroke-opacity: 0.1; stroke-width: 0.8"/>
     </g>
     <g id="line2d_62">
      <g>
       <use xlink:href="#me8f4457027" x="192.744897" y="253.078125" style="fill: #9ca3af; stroke: #9ca3af; stroke-width: 0.8"/>
      </g>
     </g>
     <g id="text_10">
      <!-- 10 -->
      <g style="fill: #9ca3af" transform="translate(187.654897 266.156875) scale(0.08 -0.08)">
       <use xlink:href="#DejaVuSans-31"/>
       <use xlink:href="#DejaVuSans-30" transform="translate(63.623047 0)"/>
      </g>
     </g>
    </g>
    <g id="xtick_11">
     <g id="line2d_63">
      <path d="M 261.064456 253.078125 
L 261.064456 198.99032 
" clip-path="url(#p3848ec7a4f)" style="fill: none; stroke-dasharray: 2.96,1.28; stroke-dashoffset: 0; stroke: #374151; stroke-opacity: 0.1; stroke-width: 0.8"/>
     </g>
     <g id="line2d_64">
      <g>
       <use xlink:href="#me8f4457027" x="261.064456" y="253.078125" style="fill: #9ca3af; stroke: #9ca3af; stroke-width: 0.8"/>
      </g>
     </g>
     <g id="text_11">
      <!-- 15 -->
      <g style="fill: #9ca3af" transform="translate(255.974456 266.156875) scale(0.08 -0.08)">
       <use xlink:href="#DejaVuSans-31"/>
       <use xlink:href="#DejaVuSans-35" transform="translate(63.623047 0)"/>
      </g>
     </g>
    </g>
    <g id="xtick_12">
     <g id="line2d_65">
      <path d="M 329.384015 253.078125 
L 329.384015 198.99032 
" clip-path="url(#p3848ec7a4f)" style="fill: none; stroke-dasharray: 2.96,1.28; stroke-dashoffset: 0; stroke: #374151; stroke-opacity: 0.1; stroke-width: 0.8"/>
     </g>
     <g id="line2d_66">
      <g>
       <use xlink:href="#me8f4457027" x="329.384015" y="253.078125" style="fill: #9ca3af; stroke: #9ca3af; stroke-width: 0.8"/>
      </g>
     </g>
     <g id="text_12">
      <!-- 20 -->
      <g style="fill: #9ca3af" transform="translate(324.294015 266.156875) scale(0.08 -0.08)">
       <defs>
        <path id="DejaVuSans-32" d="M 1228 531 
L 3431 531 
L 3431 0 
L 469 0 
L 469 531 
Q 828 903 1448 1529 
Q 2069 2156 2228 2338 
Q 2531 2678 2651 2914 
Q 2772 3150 2772 3378 
Q 2772 3750 2511 3984 
Q 2250 4219 1831 4219 
Q 1534 4219 1204 4116 
Q 875 4013 500 3803 
L 500 4441 
Q 881 4594 1212 4672 
Q 1544 4750 1819 4750 
Q 2544 4750 2975 4387 
Q 3406 4025 3406 3419 
Q 3406 3131 3298 2873 
Q 3191 2616 2906 2266 
Q 2828 2175 2409 1742 
Q 1991 1309 1228 531 
z
" transform="scale(0.015625)"/>
       </defs>
       <use xlink:href="#DejaVuSans-32"/>
       <use xlink:href="#DejaVuSans-30" transform="translate(63.623047 0)"/>
      </g>
     </g>
    </g>
    <g id="xtick_13">
     <g id="line2d_67">
      <path d="M 397.703574 253.078125 
L 397.703574 198.99032 
" clip-path="url(#p3848ec7a4f)" style="fill: none; stroke-dasharray: 2.96,1.28; stroke-dashoffset: 0; stroke: #374151; stroke-opacity: 0.1; stroke-width: 0.8"/>
     </g>
     <g id="line2d_68">
      <g>
       <use xlink:href="#me8f4457027" x="397.703574" y="253.078125" style="fill: #9ca3af; stroke: #9ca3af; stroke-width: 0.8"/>
      </g>
     </g>
     <g id="text_13">
      <!-- 25 -->
      <g style="fill: #9ca3af" transform="translate(392.613574 266.156875) scale(0.08 -0.08)">
       <use xlink:href="#DejaVuSans-32"/>
       <use xlink:href="#DejaVuSans-35" transform="translate(63.623047 0)"/>
      </g>
     </g>
    </g>
    <g id="xtick_14">
     <g id="line2d_69">
      <path d="M 466.023134 253.078125 
L 466.023134 198.99032 
" clip-path="url(#p3848ec7a4f)" style="fill: none; stroke-dasharray: 2.96,1.28; stroke-dashoffset: 0; stroke: #374151; stroke-opacity: 0.1; stroke-width: 0.8"/>
     </g>
     <g id="line2d_70">
      <g>
       <use xlink:href="#me8f4457027" x="466.023134" y="253.078125" style="fill: #9ca3af; stroke: #9ca3af; stroke-width: 0.8"/>
      </g>
     </g>
     <g id="text_14">
      <!-- 30 -->
      <g style="fill: #9ca3af" transform="translate(460.933134 266.156875) scale(0.08 -0.08)">
       <defs>
        <path id="DejaVuSans-33" d="M 2597 2516 
Q 3050 2419 3304 2112 
Q 3559 1806 3559 1356 
Q 3559 666 3084 287 
Q 2609 -91 1734 -91 
Q 1441 -91 1130 -33 
Q 819 25 488 141 
L 488 750 
Q 750 597 1062 519 
Q 1375 441 1716 441 
Q 2309 441 2620 675 
Q 2931 909 2931 1356 
Q 2931 1769 2642 2001 
Q 2353 2234 1838 2234 
L 1294 2234 
L 1294 2753 
L 1863 2753 
Q 2328 2753 2575 2939 
Q 2822 3125 2822 3475 
Q 2822 3834 2567 4026 
Q 2313 4219 1838 4219 
Q 1578 4219 1281 4162 
Q 984 4106 628 3988 
L 628 4550 
Q 988 4650 1302 4700 
Q 1616 4750 1894 4750 
Q 2613 4750 3031 4423 
Q 3450 4097 3450 3541 
Q 3450 3153 3228 2886 
Q 3006 2619 2597 2516 
z
" transform="scale(0.015625)"/>
       </defs>
       <use xlink:href="#DejaVuSans-33"/>
       <use xlink:href="#DejaVuSans-30" transform="translate(63.623047 0)"/>
      </g>
     </g>
    </g>
   </g>
   <g id="matplotlib.axis_4">
    <g id="ytick_7">
     <g id="line2d_71">
      <path d="M 31.0325 253.078125 
L 477.4325 253.078125 
" clip-path="url(#p3848ec7a4f)" style="fill: none; stroke-dasharray: 2.96,1.28; stroke-dashoffset: 0; stroke: #374151; stroke-opacity: 0.1; stroke-width: 0.8"/>
     </g>
     <g id="line2d_72">
      <g>
       <use xlink:href="#m919310c879" x="31.0325" y="253.078125" style="fill: #9ca3af; stroke: #9ca3af; stroke-width: 0.8"/>
      </g>
     </g>
     <g id="text_15">
      <!-- 0 -->
      <g style="fill: #9ca3af" transform="translate(18.9425 256.1175) scale(0.08 -0.08)">
       <use xlink:href="#DejaVuSans-30"/>
      </g>
     </g>
    </g>
    <g id="ytick_8">
     <g id="line2d_73">
      <path d="M 31.0325 232.28773 
L 477.4325 232.28773 
" clip-path="url(#p3848ec7a4f)" style="fill: none; stroke-dasharray: 2.96,1.28; stroke-dashoffset: 0; stroke: #374151; stroke-opacity: 0.1; stroke-width: 0.8"/>
     </g>
     <g id="line2d_74">
      <g>
       <use xlink:href="#m919310c879" x="31.0325" y="232.28773" style="fill: #9ca3af; stroke: #9ca3af; stroke-width: 0.8"/>
      </g>
     </g>
     <g id="text_16">
      <!-- 2 -->
      <g style="fill: #9ca3af" transform="translate(18.9425 235.327105) scale(0.08 -0.08)">
       <use xlink:href="#DejaVuSans-32"/>
      </g>
     </g>
    </g>
    <g id="ytick_9">
     <g id="line2d_75">
      <path d="M 31.0325 211.497335 
L 477.4325 211.497335 
" clip-path="url(#p3848ec7a4f)" style="fill: none; stroke-dasharray: 2.96,1.28; stroke-dashoffset: 0; stroke: #374151; stroke-opacity: 0.1; stroke-width: 0.8"/>
     </g>
     <g id="line2d_76">
      <g>
       <use xlink:href="#m919310c879" x="31.0325" y="211.497335" style="fill: #9ca3af; stroke: #9ca3af; stroke-width: 0.8"/>
      </g>
     </g>
     <g id="text_17">
      <!-- 4 -->
      <g style="fill: #9ca3af" transform="translate(18.9425 214.53671) scale(0.08 -0.08)">
       <defs>
        <path id="DejaVuSans-34" d="M 2419 4116 
L 825 1625 
L 2419 1625 
L 2419 4116 
z
M 2253 4666 
L 3047 4666 
L 3047 1625 
L 3713 1625 
L 3713 1100 
L 3047 1100 
L 3047 0 
L 2419 0 
L 2419 1100 
L 313 1100 
L 313 1709 
L 2253 4666 
z
" transform="scale(0.015625)"/>
       </defs>
       <use xlink:href="#DejaVuSans-34"/>
      </g>
     </g>
    </g>
    <g id="text_18">
     <!-- Vol -->
     <g style="fill: #9ca3af" transform="translate(13.27875 232.019223) rotate(-90) scale(0.08 -0.08)">
      <defs>
       <path id="DejaVuSans-56" d="M 1831 0 
L 50 4666 
L 709 4666 
L 2188 738 
L 3669 4666 
L 4325 4666 
L 2547 0 
L 1831 0 
z
" transform="scale(0.015625)"/>
       <path id="DejaVuSans-6f" d="M 1959 3097 
Q 1497 3097 1228 2736 
Q 959 2375 959 1747 
Q 959 1119 1226 758 
Q 1494 397 1959 397 
Q 2419 397 2687 759 
Q 2956 1122 2956 1747 
Q 2956 2369 2687 2733 
Q 2419 3097 1959 3097 
z
M 1959 3584 
Q 2709 3584 3137 3096 
Q 3566 2609 3566 1747 
Q 3566 888 3137 398 
Q 2709 -91 1959 -91 
Q 1206 -91 779 398 
Q 353 888 353 1747 
Q 353 2609 779 3096 
Q 1206 3584 1959 3584 
z
" transform="scale(0.015625)"/>
       <path id="DejaVuSans-6c" d="M 603 4863 
L 1178 4863 
L 1178 0 
L 603 0 
L 603 4863 
z
" transform="scale(0.015625)"/>
      </defs>
      <use xlink:href="#DejaVuSans-56"/>
      <use xlink:href="#DejaVuSans-6f" transform="translate(60.658203 0)"/>
      <use xlink:href="#DejaVuSans-6c" transform="translate(121.839844 0)"/>
     </g>
    </g>
    <g id="text_19">
     <!-- 1e6 -->
     <g style="fill: #9ca3af" transform="translate(31.0325 195.99032) scale(0.1 -0.1)">
      <defs>
       <path id="DejaVuSans-65" d="M 3597 1894 
L 3597 1613 
L 953 1613 
Q 991 1019 1311 708 
Q 1631 397 2203 397 
Q 2534 397 2845 478 
Q 3156 559 3463 722 
L 3463 178 
Q 3153 47 2828 -22 
Q 2503 -91 2169 -91 
Q 1331 -91 842 396 
Q 353 884 353 1716 
Q 353 2575 817 3079 
Q 1281 3584 2069 3584 
Q 2775 3584 3186 3129 
Q 3597 2675 3597 1894 
z
M 3022 2063 
Q 3016 2534 2758 2815 
Q 2500 3097 2075 3097 
Q 1594 3097 1305 2825 
Q 1016 2553 972 2059 
L 3022 2063 
z
" transform="scale(0.015625)"/>
       <path id="DejaVuSans-36" d="M 2113 2584 
Q 1688 2584 1439 2293 
Q 1191 2003 1191 1497 
Q 1191 994 1439 701 
Q 1688 409 2113 409 
Q 2538 409 2786 701 
Q 3034 994 3034 1497 
Q 3034 2003 2786 2293 
Q 2538 2584 2113 2584 
z
M 3366 4563 
L 3366 3988 
Q 3128 4100 2886 4159 
Q 2644 4219 2406 4219 
Q 1781 4219 1451 3797 
Q 1122 3375 1075 2522 
Q 1259 2794 1537 2939 
Q 1816 3084 2150 3084 
Q 2853 3084 3261 2657 
Q 3669 2231 3669 1497 
Q 3669 778 3244 343 
Q 2819 -91 2113 -91 
Q 1303 -91 875 529 
Q 447 1150 447 2328 
Q 447 3434 972 4092 
Q 1497 4750 2381 4750 
Q 2619 4750 2861 4703 
Q 3103 4656 3366 4563 
z
" transform="scale(0.015625)"/>
      </defs>
      <use xlink:href="#DejaVuSans-31"/>
      <use xlink:href="#DejaVuSans-65" transform="translate(63.623047 0)"/>
      <use xlink:href="#DejaVuSans-36" transform="translate(125.146484 0)"/>
     </g>
    </g>
   </g>
   <g id="patch_66">
    <path d="M 31.0325 253.078125 
L 31.0325 198.99032 
" style="fill: none; stroke: #1f2937; stroke-width: 0.8; stroke-linejoin: miter; stroke-linecap: square"/>
   </g>
   <g id="patch_67">
    <path d="M 31.0325 253.078125 
L 477.4325 253.078125 
" style="fill: none; stroke: #1f2937; stroke-width: 0.8; stroke-linejoin: miter; stroke-linecap: square"/>
   </g>
  </g>
 </g>
 <defs>
  <clipPath id="p8dc72b5d61">
   <rect x="31.0325" y="31.318125" width="446.4" height="162.263415"/>
  </clipPath>
  <clipPath id="p3848ec7a4f">
   <rect x="31.0325" y="198.99032" width="446.4" height="54.087805"/>
  </clipPath>
 </defs>
</svg>
