<?xml version="1.0" encoding="utf-8" standalone="no"?>
<!DOCTYPE svg PUBLIC "-//W3C//DTD SVG 1.1//EN"
  "http://www.w3.org/Graphics/SVG/1.1/DTD/svg11.dtd">
<svg xmlns:xlink="http://www.w3.org/1999/xlink" width="490.7025pt" height="275.020625pt" viewBox="0 0 490.7025 275.020625" xmlns="http://www.w3.org/2000/svg" version="1.1">
 <metadata>
  <rdf:RDF xmlns:dc="http://purl.org/dc/elements/1.1/" xmlns:cc="http://creativecommons.org/ns#" xmlns:rdf="http://www.w3.org/1999/02/22-rdf-syntax-ns#">
   <cc:Work>
    <dc:type rdf:resource="http://purl.org/dc/dcmitype/StillImage"/>
    <dc:date>2026-02-16T09:12:37.919965</dc:date>
    <dc:format>image/svg+xml</dc:format>
    <dc:creator>
     <cc:Agent>
      <dc:title>Matplotlib v3.10.8, https://matplotlib.org/</dc:title>
     </cc:Agent>
    </dc:creator>
   </cc:Work>
  </rdf:RDF>
 </metadata>
 <defs>
  <style type="text/css">*{stroke-linejoin: round; stroke-linecap: butt}</style>
 </defs>
 <g id="figure_1">
  <g id="patch_1">
   <path d="M 0 275.020625 
L 490.7025 275.020625 
L 490.7025 0 
L 0 0 
z
" style="fill: #0a0f1a"/>
  </g>
  <g id="axes_1">
   <g id="patch_2">
    <path d="M 37.1025 193.58154 
L 483.5025 193.58154 
L 483.5025 31.318125 
L 37.1025 31.318125 
z
" style="fill: #0a0f1a"/>
   </g>
   <g id="patch_3">
    <path d="M 46.4625 53.728644 
L 56.5425 53.728644 
Q 56.8305 53.728644 56.8305 53.555477 
L 56.8305 49.226309 
Q 56.8305 49.053142 56.5425 49.053142 
L 46.4625 49.053142 
Q 46.1745 49.053142 46.1745 49.226309 
L 46.1745 53.555477 
Q 46.1745 53.728644 46.4625 53.728644 
z
" clip-path="url(#pa08c52dc7e)" style="fill: #22c55e; stroke: #22c55e; stroke-linejoin: miter"/>
   </g>
   <g id="patch_4">
    <path d="M 60.8625 52.690527 
L 70.9425 52.690527 
Q 71.2305 52.690527 71.2305 52.51736 
L 71.2305 49.226309 
Q 71.2305 49.053142 70.9425 49.053142 
L 60.8625 49.053142 
Q 60.5745 49.053142 60.5745 49.226309 
L 60.5745 52.51736 
Q 60.5745 52.690527 60.8625 52.690527 
z
" clip-path="url(#pa08c52dc7e)" style="fill: #ef4444; stroke: #ef4444; stroke-linejoin: miter"/>
   </g>
   <g id="patch_5">
    <path d="M 75.2625 56.809496 
L 85.3425 56.809496 
Q 85.6305 56.809496 85.6305 56.63633 
L 85.6305 52.51736 
Q 85.6305 52.344193 85.3425 52.344193 
L 75.2625 52.344193 
Q 74.9745 52.344193 74.9745 52.51736 
L 74.9745 56.63633 
Q 74.9745 56.809496 75.2625 56.809496 
z
" clip-path="url(#pa08c52dc7e)" style="fill: #ef4444; stroke: #ef4444; stroke-linejoin: miter"/>
   </g>
   <g id="patch_6">
    <path d="M 89.6625 61.230113 
L 99.7425 61.230113 
Q 100.0305 61.230113 100.0305 61.056947 
L 100.0305 56.63633 
Q 100.0305 56.463163 99.7425 56.463163 
L 89.6625 56.463163 
Q 89.3745 56.463163 89.3745 56.63633 
L 89.3745 61.056947 
Q 89.3745 61.230113 89.6625 61.230113 
z
" clip-path="url(#pa08c52dc7e)" style="fill: #ef4444; stroke: #ef4444; stroke-linejoin: miter"/>
   </g>
   <g id="patch_7">
    <path d="M 104.0625 67.72019 
L 114.1425 67.72019 
Q 114.4305 67.72019 114.4305 67.547023 
L 114.4305 61.056947 
Q 114.4305 60.88378 114.1425 60.88378 
L 104.0625 60.88378 
Q 103.7745 60.88378 103.7745 61.056947 
L 103.7745 67.547023 
Q 103.7745 67.72019 104.0625 67.72019 
z
" clip-path="url(#pa08c52dc7e)" style="fill: #ef4444; stroke: #ef4444; stroke-linejoin: miter"/>
   </g>
   <g id="patch_8">
    <path d="M 118.4625 72.929209 
L 128.5425 72.929209 
Q 128.8305 72.929209 128.8305 72.756043 
L 128.8305 67.547023 
Q 128.8305 67.373857 128.5425 67.373857 
L 118.4625 67.373857 
Q 118.1745 67.373857 118.1745 67.547023 
L 118.1745 72.756043 
Q 118.1745 72.929209 118.4625 72.929209 
z
" clip-path="url(#pa08c52dc7e)" style="fill: #ef4444; stroke: #ef4444; stroke-linejoin: miter"/>
   </g>
   <g id="patch_9">
    <path d="M 132.8625 77.97065 
L 142.9425 77.97065 
Q 143.2305 77.97065 143.2305 77.797483 
L 143.2305 72.756043 
Q 143.2305 72.582876 142.9425 72.582876 
L 132.8625 72.582876 
Q 132.5745 72.582876 132.5745 72.756043 
L 132.5745 77.797483 
Q 132.5745 77.97065 132.8625 77.97065 
z
" clip-path="url(#pa08c52dc7e)" style="fill: #ef4444; stroke: #ef4444; stroke-linejoin: miter"/>
   </g>
   <g id="patch_10">
    <path d="M 147.2625 79.334514 
L 157.3425 79.334514 
Q 157.6305 79.334514 157.6305 79.161348 
L 157.6305 77.797483 
Q 157.6305 77.624316 157.3425 77.624316 
L 147.2625 77.624316 
Q 146.9745 77.624316 146.9745 77.797483 
L 146.9745 79.161348 
Q 146.9745 79.334514 147.2625 79.334514 
z
" clip-path="url(#pa08c52dc7e)" style="fill: #ef4444; stroke: #ef4444; stroke-linejoin: miter"/>
   </g>
   <g id="patch_11">
    <path d="M 161.6625 84.151574 
L 171.7425 84.151574 
Q 172.0305 84.151574 172.0305 83.978407 
L 172.0305 79.161348 
Q 172.0305 78.988181 171.7425 78.988181 
L 161.6625 78.988181 
Q 161.3745 78.988181 161.3745 79.161348 
L 161.3745 83.978407 
Q 161.3745 84.151574 161.6625 84.151574 
z
" clip-path="url(#pa08c52dc7e)" style="fill: #ef4444; stroke: #ef4444; stroke-linejoin: miter"/>
   </g>
   <g id="patch_12">
    <path d="M 176.0625 88.919332 
L 186.1425 88.919332 
Q 186.4305 88.919332 186.4305 88.746165 
L 186.4305 83.978407 
Q 186.4305 83.80524 186.1425 83.80524 
L 176.0625 83.80524 
Q 175.7745 83.80524 175.7745 83.978407 
L 175.7745 88.746165 
Q 175.7745 88.919332 176.0625 88.919332 
z
" clip-path="url(#pa08c52dc7e)" style="fill: #ef4444; stroke: #ef4444; stroke-linejoin: miter"/>
   </g>
   <g id="patch_13">
    <path d="M 190.4625 94.811605 
L 200.5425 94.811605 
Q 200.8305 94.811605 200.8305 94.638438 
L 200.8305 88.746165 
Q 200.8305 88.572999 200.5425 88.572999 
L 190.4625 88.572999 
Q 190.1745 88.572999 190.1745 88.746165 
L 190.1745 94.638438 
Q 190.1745 94.811605 190.4625 94.811605 
z
" clip-path="url(#pa08c52dc7e)" style="fill: #ef4444; stroke: #ef4444; stroke-linejoin: miter"/>
   </g>
   <g id="patch_14">
    <path d="M 204.8625 99.806283 
L 214.9425 99.806283 
Q 215.2305 99.806283 215.2305 99.633117 
L 215.2305 94.638438 
Q 215.2305 94.465272 214.9425 94.465272 
L 204.8625 94.465272 
Q 204.5745 94.465272 204.5745 94.638438 
L 204.5745 99.633117 
Q 204.5745 99.806283 204.8625 99.806283 
z
" clip-path="url(#pa08c52dc7e)" style="fill: #ef4444; stroke: #ef4444; stroke-linejoin: miter"/>
   </g>
   <g id="patch_15">
    <path d="M 219.2625 103.205105 
L 229.3425 103.205105 
Q 229.6305 103.205105 229.6305 103.031938 
L 229.6305 99.633117 
Q 229.6305 99.45995 229.3425 99.45995 
L 219.2625 99.45995 
Q 218.9745 99.45995 218.9745 99.633117 
L 218.9745 103.031938 
Q 218.9745 103.205105 219.2625 103.205105 
z
" clip-path="url(#pa08c52dc7e)" style="fill: #ef4444; stroke: #ef4444; stroke-linejoin: miter"/>
   </g>
   <g id="patch_16">
    <path d="M 233.6625 106.506005 
L 243.7425 106.506005 
Q 244.0305 106.506005 244.0305 106.332838 
L 244.0305 103.031938 
Q 244.0305 102.858772 243.7425 102.858772 
L 233.6625 102.858772 
Q 233.3745 102.858772 233.3745 103.031938 
L 233.3745 106.332838 
Q 233.3745 106.506005 233.6625 106.506005 
z
" clip-path="url(#pa08c52dc7e)" style="fill: #ef4444; stroke: #ef4444; stroke-linejoin: miter"/>
   </g>
   <g id="patch_17">
    <path d="M 248.0625 111.305224 
L 258.1425 111.305224 
Q 258.4305 111.305224 258.4305 111.132057 
L 258.4305 106.332838 
Q 258.4305 106.159671 258.1425 106.159671 
L 248.0625 106.159671 
Q 247.7745 106.159671 247.7745 106.332838 
L 247.7745 111.132057 
Q 247.7745 111.305224 248.0625 111.305224 
z
" clip-path="url(#pa08c52dc7e)" style="fill: #ef4444; stroke: #ef4444; stroke-linejoin: miter"/>
   </g>
   <g id="patch_18">
    <path d="M 262.4625 116.686405 
L 272.5425 116.686405 
Q 272.8305 116.686405 272.8305 116.513238 
L 272.8305 111.132057 
Q 272.8305 110.95889 272.5425 110.95889 
L 262.4625 110.95889 
Q 262.1745 110.95889 262.1745 111.132057 
L 262.1745 116.513238 
Q 262.1745 116.686405 262.4625 116.686405 
z
" clip-path="url(#pa08c52dc7e)" style="fill: #ef4444; stroke: #ef4444; stroke-linejoin: miter"/>
   </g>
   <g id="patch_19">
    <path d="M 276.8625 122.641887 
L 286.9425 122.641887 
Q 287.2305 122.641887 287.2305 122.46872 
L 287.2305 116.513238 
Q 287.2305 116.340072 286.9425 116.340072 
L 276.8625 116.340072 
Q 276.5745 116.340072 276.5745 116.513238 
L 276.5745 122.46872 
Q 276.5745 122.641887 276.8625 122.641887 
z
" clip-path="url(#pa08c52dc7e)" style="fill: #ef4444; stroke: #ef4444; stroke-linejoin: miter"/>
   </g>
   <g id="patch_20">
    <path d="M 291.2625 124.938629 
L 301.3425 124.938629 
Q 301.6305 124.938629 301.6305 124.765462 
L 301.6305 122.46872 
Q 301.6305 122.295553 301.3425 122.295553 
L 291.2625 122.295553 
Q 290.9745 122.295553 290.9745 122.46872 
L 290.9745 124.765462 
Q 290.9745 124.938629 291.2625 124.938629 
z
" clip-path="url(#pa08c52dc7e)" style="fill: #ef4444; stroke: #ef4444; stroke-linejoin: miter"/>
   </g>
   <g id="patch_21">
    <path d="M 305.6625 131.515109 
L 315.7425 131.515109 
Q 316.0305 131.515109 316.0305 131.341942 
L 316.0305 124.765462 
Q 316.0305 124.592295 315.7425 124.592295 
L 305.6625 124.592295 
Q 305.3745 124.592295 305.3745 124.765462 
L 305.3745 131.341942 
Q 305.3745 131.515109 305.6625 131.515109 
z
" clip-path="url(#pa08c52dc7e)" style="fill: #ef4444; stroke: #ef4444; stroke-linejoin: miter"/>
   </g>
   <g id="patch_22">
    <path d="M 320.0625 133.439712 
L 330.1425 133.439712 
Q 330.4305 133.439712 330.4305 133.266546 
L 330.4305 131.341942 
Q 330.4305 131.168776 330.1425 131.168776 
L 320.0625 131.168776 
Q 319.7745 131.168776 319.7745 131.341942 
L 319.7745 133.266546 
Q 319.7745 133.439712 320.0625 133.439712 
z
" clip-path="url(#pa08c52dc7e)" style="fill: #ef4444; stroke: #ef4444; stroke-linejoin: miter"/>
   </g>
   <g id="patch_23">
    <path d="M 334.4625 139.367961 
L 344.5425 139.367961 
Q 344.8305 139.367961 344.8305 139.194794 
L 344.8305 133.266546 
Q 344.8305 133.093379 344.5425 133.093379 
L 334.4625 133.093379 
Q 334.1745 133.093379 334.1745 133.266546 
L 334.1745 139.194794 
Q 334.1745 139.367961 334.4625 139.367961 
z
" clip-path="url(#pa08c52dc7e)" style="fill: #ef4444; stroke: #ef4444; stroke-linejoin: miter"/>
   </g>
   <g id="patch_24">
    <path d="M 348.8625 145.070797 
L 358.9425 145.070797 
Q 359.2305 145.070797 359.2305 144.897631 
L 359.2305 139.194794 
Q 359.2305 139.021628 358.9425 139.021628 
L 348.8625 139.021628 
Q 348.5745 139.021628 348.5745 139.194794 
L 348.5745 144.897631 
Q 348.5745 145.070797 348.8625 145.070797 
z
" clip-path="url(#pa08c52dc7e)" style="fill: #ef4444; stroke: #ef4444; stroke-linejoin: miter"/>
   </g>
   <g id="patch_25">
    <path d="M 363.2625 147.974125 
L 373.3425 147.974125 
Q 373.6305 147.974125 373.6305 147.800958 
L 373.6305 144.897631 
Q 373.6305 144.724464 373.3425 144.724464 
L 363.2625 144.724464 
Q 362.9745 144.724464 362.9745 144.897631 
L 362.9745 147.800958 
Q 362.9745 147.974125 363.2625 147.974125 
z
" clip-path="url(#pa08c52dc7e)" style="fill: #ef4444; stroke: #ef4444; stroke-linejoin: miter"/>
   </g>
   <g id="patch_26">
    <path d="M 377.6625 152.380314 
L 387.7425 152.380314 
Q 388.0305 152.380314 388.0305 152.207148 
L 388.0305 147.800958 
Q 388.0305 147.627791 387.7425 147.627791 
L 377.6625 147.627791 
Q 377.3745 147.627791 377.3745 147.800958 
L 377.3745 152.207148 
Q 377.3745 152.380314 377.6625 152.380314 
z
" clip-path="url(#pa08c52dc7e)" style="fill: #ef4444; stroke: #ef4444; stroke-linejoin: miter"/>
   </g>
   <g id="patch_27">
    <path d="M 392.0625 157.090848 
L 402.1425 157.090848 
Q 402.4305 157.090848 402.4305 156.917681 
L 402.4305 152.207148 
Q 402.4305 152.033981 402.1425 152.033981 
L 392.0625 152.033981 
Q 391.7745 152.033981 391.7745 152.207148 
L 391.7745 156.917681 
Q 391.7745 157.090848 392.0625 157.090848 
z
" clip-path="url(#pa08c52dc7e)" style="fill: #ef4444; stroke: #ef4444; stroke-linejoin: miter"/>
   </g>
   <g id="patch_28">
    <path d="M 406.4625 160.347587 
L 416.5425 160.347587 
Q 416.8305 160.347587 416.8305 160.17442 
L 416.8305 156.917681 
Q 416.8305 156.744514 416.5425 156.744514 
L 406.4625 156.744514 
Q 406.1745 156.744514 406.1745 156.917681 
L 406.1745 160.17442 
Q 406.1745 160.347587 406.4625 160.347587 
z
" clip-path="url(#pa08c52dc7e)" style="fill: #ef4444; stroke: #ef4444; stroke-linejoin: miter"/>
   </g>
   <g id="patch_29">
    <path d="M 420.8625 164.911805 
L 430.9425 164.911805 
Q 431.2305 164.911805 431.2305 164.738638 
L 431.2305 160.17442 
Q 431.2305 160.001253 430.9425 160.001253 
L 420.8625 160.001253 
Q 420.5745 160.001253 420.5745 160.17442 
L 420.5745 164.738638 
Q 420.5745 164.911805 420.8625 164.911805 
z
" clip-path="url(#pa08c52dc7e)" style="fill: #ef4444; stroke: #ef4444; stroke-linejoin: miter"/>
   </g>
   <g id="patch_30">
    <path d="M 435.2625 170.419025 
L 445.3425 170.419025 
Q 445.6305 170.419025 445.6305 170.245858 
L 445.6305 164.738638 
Q 445.6305 164.565471 445.3425 164.565471 
L 435.2625 164.565471 
Q 434.9745 164.565471 434.9745 164.738638 
L 434.9745 170.245858 
Q 434.9745 170.419025 435.2625 170.419025 
z
" clip-path="url(#pa08c52dc7e)" style="fill: #ef4444; stroke: #ef4444; stroke-linejoin: miter"/>
   </g>
   <g id="patch_31">
    <path d="M 449.6625 176.408441 
L 459.7425 176.408441 
Q 460.0305 176.408441 460.0305 176.235275 
L 460.0305 170.245858 
Q 460.0305 170.072691 459.7425 170.072691 
L 449.6625 170.072691 
Q 449.3745 170.072691 449.3745 170.245858 
L 449.3745 176.235275 
Q 449.3745 176.408441 449.6625 176.408441 
z
" clip-path="url(#pa08c52dc7e)" style="fill: #ef4444; stroke: #ef4444; stroke-linejoin: miter"/>
   </g>
   <g id="patch_32">
    <path d="M 464.0625 178.063774 
L 474.1425 178.063774 
Q 474.4305 178.063774 474.4305 177.890607 
L 474.4305 176.235275 
Q 474.4305 176.062108 474.1425 176.062108 
L 464.0625 176.062108 
Q 463.7745 176.062108 463.7745 176.235275 
L 463.7745 177.890607 
Q 463.7745 178.063774 464.0625 178.063774 
z
" clip-path="url(#pa08c52dc7e)" style="fill: #ef4444; stroke: #ef4444; stroke-linejoin: miter"/>
   </g>
   <g id="matplotlib.axis_1">
    <g id="xtick_1">
     <g id="line2d_1">
      <path d="M 51.5025 193.58154 
L 51.5025 31.318125 
" clip-path="url(#pa08c52dc7e)" style="fill: none; stroke-dasharray: 2.96,1.28; stroke-dashoffset: 0; stroke: #374151; stroke-opacity: 0.1; stroke-width: 0.8"/>
     </g>
     <g id="line2d_2">
      <defs>
       <path id="m5349cdf1d1" d="M 0 0 
L 0 3.5 
" style="stroke: #9ca3af; stroke-width: 0.8"/>
      </defs>
      <g>
       <use xlink:href="#m5349cdf1d1" x="51.5025" y="193.58154" style="fill: #9ca3af; stroke: #9ca3af; stroke-width: 0.8"/>
      </g>
     </g>
    </g>
    <g id="xtick_2">
     <g id="line2d_3">
      <path d="M 123.5025 193.58154 
L 123.5025 31.318125 
" clip-path="url(#pa08c52dc7e)" style="fill: none; stroke-dasharray: 2.96,1.28; stroke-dashoffset: 0; stroke: #374151; stroke-opacity: 0.1; stroke-width: 0.8"/>
     </g>
     <g id="line2d_4">
      <g>
       <use xlink:href="#m5349cdf1d1" x="123.5025" y="193.58154" style="fill: #9ca3af; stroke: #9ca3af; stroke-width: 0.8"/>
      </g>
     </g>
    </g>
    <g id="xtick_3">
     <g id="line2d_5">
      <path d="M 195.5025 193.58154 
L 195.5025 31.318125 
" clip-path="url(#pa08c52dc7e)" style="fill: none; stroke-dasharray: 2.96,1.28; stroke-dashoffset: 0; stroke: #374151; stroke-opacity: 0.1; stroke-width: 0.8"/>
     </g>
     <g id="line2d_6">
      <g>
       <use xlink:href="#m5349cdf1d1" x="195.5025" y="193.58154" style="fill: #9ca3af; stroke: #9ca3af; stroke-width: 0.8"/>
      </g>
     </g>
    </g>
    <g id="xtick_4">
     <g id="line2d_7">
      <path d="M 267.5025 193.58154 
L 267.5025 31.318125 
" clip-path="url(#pa08c52dc7e)" style="fill: none; stroke-dasharray: 2.96,1.28; stroke-dashoffset: 0; stroke: #374151; stroke-opacity: 0.1; stroke-width: 0.8"/>
     </g>
     <g id="line2d_8">
      <g>
       <use xlink:href="#m5349cdf1d1" x="267.5025" y="193.58154" style="fill: #9ca3af; stroke: #9ca3af; stroke-width: 0.8"/>
      </g>
     </g>
    </g>
    <g id="xtick_5">
     <g id="line2d_9">
      <path d="M 339.5025 193.58154 
L 339.5025 31.318125 
" clip-path="url(#pa08c52dc7e)" style="fill: none; stroke-dasharray: 2.96,1.28; stroke-dashoffset: 0; stroke: #374151; stroke-opacity: 0.1; stroke-width: 0.8"/>
     </g>
     <g id="line2d_10">
      <g>
       <use xlink:href="#m5349cdf1d1" x="339.5025" y="193.58154" style="fill: #9ca3af; stroke: #9ca3af; stroke-width: 0.8"/>
      </g>
     </g>
    </g>
    <g id="xtick_6">
     <g id="line2d_11">
      <path d="M 411.5025 193.58154 
L 411.5025 31.318125 
" clip-path="url(#pa08c52dc7e)" style="fill: none; stroke-dasharray: 2.96,1.28; stroke-dashoffset: 0; stroke: #374151; stroke-opacity: 0.1; stroke-width: 0.8"/>
     </g>
     <g id="line2d_12">
      <g>
       <use xlink:href="#m5349cdf1d1" x="411.5025" y="193.58154" style="fill: #9ca3af; stroke: #9ca3af; stroke-width: 0.8"/>
      </g>
     </g>
    </g>
    <g id="xtick_7">
     <g id="line2d_13">
      <path d="M 483.5025 193.58154 
L 483.5025 31.318125 
" clip-path="url(#pa08c52dc7e)" style="fill: none; stroke-dasharray: 2.96,1.28; stroke-dashoffset: 0; stroke: #374151; stroke-opacity: 0.1; stroke-width: 0.8"/>
     </g>
     <g id="line2d_14">
      <g>
       <use xlink:href="#m5349cdf1d1" x="483.5025" y="193.58154" style="fill: #9ca3af; stroke: #9ca3af; stroke-width: 0.8"/>
      </g>
     </g>
    </g>
   </g>
   <g id="matplotlib.axis_2">
    <g id="ytick_1">
     <g id="line2d_15">
      <path d="M 37.1025 179.101353 
L 483.5025 179.101353 
" clip-path="url(#pa08c52dc7e)" style="fill: none; stroke-dasharray: 2.96,1.28; stroke-dashoffset: 0; stroke: #374151; stroke-opacity: 0.1; stroke-width: 0.8"/>
     </g>
     <g id="line2d_16">
      <defs>
       <path id="ma519c628e2" d="M 0 0 
L -3.5 0 
" style="stroke: #9ca3af; stroke-width: 0.8"/>
      </defs>
      <g>
       <use xlink:href="#ma519c628e2" x="37.1025" y="179.101353" style="fill: #9ca3af; stroke: #9ca3af; stroke-width: 0.8"/>
      </g>
     </g>
     <g id="text_1">
      <!-- 90.0 -->
      <g style="fill: #9ca3af" transform="translate(12.29 182.140728) scale(0.08 -0.08)">
       <defs>
        <path id="DejaVuSans-39" d="M 703 97 
L 703 672 
Q 941 559 1184 500 
Q 1428 441 1663 441 
Q 2288 441 2617 861 
Q 2947 1281 2994 2138 
Q 2813 1869 2534 1725 
Q 2256 1581 1919 1581 
Q 1219 1581 811 2004 
Q 403 2428 403 3163 
Q 403 3881 828 4315 
Q 1253 4750 1959 4750 
Q 2769 4750 3195 4129 
Q 3622 3509 3622 2328 
Q 3622 1225 3098 567 
Q 2575 -91 1691 -91 
Q 1453 -91 1209 -44 
Q 966 3 703 97 
z
M 1959 2075 
Q 2384 2075 2632 2365 
Q 2881 2656 2881 3163 
Q 2881 3666 2632 3958 
Q 2384 4250 1959 4250 
Q 1534 4250 1286 3958 
Q 1038 3666 1038 3163 
Q 1038 2656 1286 2365 
Q 1534 2075 1959 2075 
z
" transform="scale(0.015625)"/>
        <path id="DejaVuSans-30" d="M 2034 4250 
Q 1547 4250 1301 3770 
Q 1056 3291 1056 2328 
Q 1056 1369 1301 889 
Q 1547 409 2034 409 
Q 2525 409 2770 889 
Q 3016 1369 3016 2328 
Q 3016 3291 2770 3770 
Q 2525 4250 2034 4250 
z
M 2034 4750 
Q 2819 4750 3233 4129 
Q 3647 3509 3647 2328 
Q 3647 1150 3233 529 
Q 2819 -91 2034 -91 
Q 1250 -91 836 529 
Q 422 1150 422 2328 
Q 422 3509 836 4129 
Q 1250 4750 2034 4750 
z
" transform="scale(0.015625)"/>
        <path id="DejaVuSans-2e" d="M 684 794 
L 1344 794 
L 1344 0 
L 684 0 
L 684 794 
z
" transform="scale(0.015625)"/>
       </defs>
       <use xlink:href="#DejaVuSans-39"/>
       <use xlink:href="#DejaVuSans-30" transform="translate(63.623047 0)"/>
       <use xlink:href="#DejaVuSans-2e" transform="translate(127.246094 0)"/>
       <use xlink:href="#DejaVuSans-30" transform="translate(159.033203 0)"/>
      </g>
     </g>
    </g>
    <g id="ytick_2">
     <g id="line2d_17">
      <path d="M 37.1025 157.455512 
L 483.5025 157.455512 
" clip-path="url(#pa08c52dc7e)" style="fill: none; stroke-dasharray: 2.96,1.28; stroke-dashoffset: 0; stroke: #374151; stroke-opacity: 0.1; stroke-width: 0.8"/>
     </g>
     <g id="line2d_18">
      <g>
       <use xlink:href="#ma519c628e2" x="37.1025" y="157.455512" style="fill: #9ca3af; stroke: #9ca3af; stroke-width: 0.8"/>
      </g>
     </g>
     <g id="text_2">
      <!-- 92.5 -->
      <g style="fill: #9ca3af" transform="translate(12.29 160.494887) scale(0.08 -0.08)">
       <defs>
        <path id="DejaVuSans-32" d="M 1228 531 
L 3431 531 
L 3431 0 
L 469 0 
L 469 531 
Q 828 903 1448 1529 
Q 2069 2156 2228 2338 
Q 2531 2678 2651 2914 
Q 2772 3150 2772 3378 
Q 2772 3750 2511 3984 
Q 2250 4219 1831 4219 
Q 1534 4219 1204 4116 
Q 875 4013 500 3803 
L 500 4441 
Q 881 4594 1212 4672 
Q 1544 4750 1819 4750 
Q 2544 4750 2975 4387 
Q 3406 4025 3406 3419 
Q 3406 3131 3298 2873 
Q 3191 2616 2906 2266 
Q 2828 2175 2409 1742 
Q 1991 1309 1228 531 
z
" transform="scale(0.015625)"/>
        <path id="DejaVuSans-35" d="M 691 4666 
L 3169 4666 
L 3169 4134 
L 1269 4134 
L 1269 2991 
Q 1406 3038 1543 3061 
Q 1681 3084 1819 3084 
Q 2600 3084 3056 2656 
Q 3513 2228 3513 1497 
Q 3513 744 3044 326 
Q 2575 -91 1722 -91 
Q 1428 -91 1123 -41 
Q 819 9 494 109 
L 494 744 
Q 775 591 1075 516 
Q 1375 441 1709 441 
Q 2250 441 2565 725 
Q 2881 1009 2881 1497 
Q 2881 1984 2565 2268 
Q 2250 2553 1709 2553 
Q 1456 2553 1204 2497 
Q 953 2441 691 2322 
L 691 4666 
z
" transform="scale(0.015625)"/>
       </defs>
       <use xlink:href="#DejaVuSans-39"/>
       <use xlink:href="#DejaVuSans-32" transform="translate(63.623047 0)"/>
       <use xlink:href="#DejaVuSans-2e" transform="translate(127.246094 0)"/>
       <use xlink:href="#DejaVuSans-35" transform="translate(159.033203 0)"/>
      </g>
     </g>
    </g>
    <g id="ytick_3">
     <g id="line2d_19">
      <path d="M 37.1025 135.809672 
L 483.5025 135.809672 
" clip-path="url(#pa08c52dc7e)" style="fill: none; stroke-dasharray: 2.96,1.28; stroke-dashoffset: 0; stroke: #374151; stroke-opacity: 0.1; stroke-width: 0.8"/>
     </g>
     <g id="line2d_20">
      <g>
       <use xlink:href="#ma519c628e2" x="37.1025" y="135.809672" style="fill: #9ca3af; stroke: #9ca3af; stroke-width: 0.8"/>
      </g>
     </g>
     <g id="text_3">
      <!-- 95.0 -->
      <g style="fill: #9ca3af" transform="translate(12.29 138.849047) scale(0.08 -0.08)">
       <use xlink:href="#DejaVuSans-39"/>
       <use xlink:href="#DejaVuSans-35" transform="translate(63.623047 0)"/>
       <use xlink:href="#DejaVuSans-2e" transform="translate(127.246094 0)"/>
       <use xlink:href="#DejaVuSans-30" transform="translate(159.033203 0)"/>
      </g>
     </g>
    </g>
    <g id="ytick_4">
     <g id="line2d_21">
      <path d="M 37.1025 114.163831 
L 483.5025 114.163831 
" clip-path="url(#pa08c52dc7e)" style="fill: none; stroke-dasharray: 2.96,1.28; stroke-dashoffset: 0; stroke: #374151; stroke-opacity: 0.1; stroke-width: 0.8"/>
     </g>
     <g id="line2d_22">
      <g>
       <use xlink:href="#ma519c628e2" x="37.1025" y="114.163831" style="fill: #9ca3af; stroke: #9ca3af; stroke-width: 0.8"/>
      </g>
     </g>
     <g id="text_4">
      <!-- 97.5 -->
      <g style="fill: #9ca3af" transform="translate(12.29 117.203206) scale(0.08 -0.08)">
       <defs>
        <path id="DejaVuSans-37" d="M 525 4666 
L 3525 4666 
L 3525 4397 
L 1831 0 
L 1172 0 
L 2766 4134 
L 525 4134 
L 525 4666 
z
" transform="scale(0.015625)"/>
       </defs>
       <use xlink:href="#DejaVuSans-39"/>
       <use xlink:href="#DejaVuSans-37" transform="translate(63.623047 0)"/>
       <use xlink:href="#DejaVuSans-2e" transform="translate(127.246094 0)"/>
       <use xlink:href="#DejaVuSans-35" transform="translate(159.033203 0)"/>
      </g>
     </g>
    </g>
    <g id="ytick_5">
     <g id="line2d_23">
      <path d="M 37.1025 92.51799 
L 483.5025 92.51799 
" clip-path="url(#pa08c52dc7e)" style="fill: none; stroke-dasharray: 2.96,1.28; stroke-dashoffset: 0; stroke: #374151; stroke-opacity: 0.1; stroke-width: 0.8"/>
     </g>
     <g id="line2d_24">
      <g>
       <use xlink:href="#ma519c628e2" x="37.1025" y="92.51799" style="fill: #9ca3af; stroke: #9ca3af; stroke-width: 0.8"/>
      </g>
     </g>
     <g id="text_5">
      <!-- 100.0 -->
      <g style="fill: #9ca3af" transform="translate(7.2 95.557365) scale(0.08 -0.08)">
       <defs>
        <path id="DejaVuSans-31" d="M 794 531 
L 1825 531 
L 1825 4091 
L 703 3866 
L 703 4441 
L 1819 4666 
L 2450 4666 
L 2450 531 
L 3481 531 
L 3481 0 
L 794 0 
L 794 531 
z
" transform="scale(0.015625)"/>
       </defs>
       <use xlink:href="#DejaVuSans-31"/>
       <use xlink:href="#DejaVuSans-30" transform="translate(63.623047 0)"/>
       <use xlink:href="#DejaVuSans-30" transform="translate(127.246094 0)"/>
       <use xlink:href="#DejaVuSans-2e" transform="translate(190.869141 0)"/>
       <use xlink:href="#DejaVuSans-30" transform="translate(222.65625 0)"/>
      </g>
     </g>
    </g>
    <g id="ytick_6">
     <g id="line2d_25">
      <path d="M 37.1025 70.87215 
L 483.5025 70.87215 
" clip-path="url(#pa08c52dc7e)" style="fill: none; stroke-dasharray: 2.96,1.28; stroke-dashoffset: 0; stroke: #374151; stroke-opacity: 0.1; stroke-width: 0.8"/>
     </g>
     <g id="line2d_26">
      <g>
       <use xlink:href="#ma519c628e2" x="37.1025" y="70.87215" style="fill: #9ca3af; stroke: #9ca3af; stroke-width: 0.8"/>
      </g>
     </g>
     <g id="text_6">
      <!-- 102.5 -->
      <g style="fill: #9ca3af" transform="translate(7.2 73.911525) scale(0.08 -0.08)">
       <use xlink:href="#DejaVuSans-31"/>
       <use xlink:href="#DejaVuSans-30" transform="translate(63.623047 0)"/>
       <use xlink:href="#DejaVuSans-32" transform="translate(127.246094 0)"/>
       <use xlink:href="#DejaVuSans-2e" transform="translate(190.869141 0)"/>
       <use xlink:href="#DejaVuSans-35" transform="translate(222.65625 0)"/>
      </g>
     </g>
    </g>
    <g id="ytick_7">
     <g id="line2d_27">
      <path d="M 37.1025 49.226309 
L 483.5025 49.226309 
" clip-path="url(#pa08c52dc7e)" style="fill: none; stroke-dasharray: 2.96,1.28; stroke-dashoffset: 0; stroke: #374151; stroke-opacity: 0.1; stroke-width: 0.8"/>
     </g>
     <g id="line2d_28">
      <g>
       <use xlink:href="#ma519c628e2" x="37.1025" y="49.226309" style="fill: #9ca3af; stroke: #9ca3af; stroke-width: 0.8"/>
      </g>
     </g>
     <g id="text_7">
      <!-- 105.0 -->
      <g style="fill: #9ca3af" transform="translate(7.2 52.265684) scale(0.08 -0.08)">
       <use xlink:href="#DejaVuSans-31"/>
       <use xlink:href="#DejaVuSans-30" transform="translate(63.623047 0)"/>
       <use xlink:href="#DejaVuSans-35" transform="translate(127.246094 0)"/>
       <use xlink:href="#DejaVuSans-2e" transform="translate(190.869141 0)"/>
       <use xlink:href="#DejaVuSans-30" transform="translate(222.65625 0)"/>
      </g>
     </g>
    </g>
   </g>
   <g id="line2d_29">
    <path d="M 51.5025 53.555477 
L 51.5025 44.897141 
" clip-path="url(#pa08c52dc7e)" style="fill: none; stroke: #22c55e; stroke-width: 1.5; stroke-linecap: square"/>
   </g>
   <g id="line2d_30">
    <path d="M 65.9025 54.690617 
L 65.9025 44.840076 
" clip-path="url(#pa08c52dc7e)" style="fill: none; stroke: #ef4444; stroke-width: 1.5; stroke-linecap: square"/>
   </g>
   <g id="line2d_31">
    <path d="M 80.3025 59.978315 
L 80.3025 49.707765 
" clip-path="url(#pa08c52dc7e)" style="fill: none; stroke: #ef4444; stroke-width: 1.5; stroke-linecap: square"/>
   </g>
   <g id="line2d_32">
    <path d="M 94.7025 62.221741 
L 94.7025 52.37363 
" clip-path="url(#pa08c52dc7e)" style="fill: none; stroke: #ef4444; stroke-width: 1.5; stroke-linecap: square"/>
   </g>
   <g id="line2d_33">
    <path d="M 109.1025 71.079886 
L 109.1025 55.919973 
" clip-path="url(#pa08c52dc7e)" style="fill: none; stroke: #ef4444; stroke-width: 1.5; stroke-linecap: square"/>
   </g>
   <g id="line2d_34">
    <path d="M 123.5025 74.569982 
L 123.5025 63.818776 
" clip-path="url(#pa08c52dc7e)" style="fill: none; stroke: #ef4444; stroke-width: 1.5; stroke-linecap: square"/>
   </g>
   <g id="line2d_35">
    <path d="M 137.9025 77.984655 
L 137.9025 71.400635 
" clip-path="url(#pa08c52dc7e)" style="fill: none; stroke: #ef4444; stroke-width: 1.5; stroke-linecap: square"/>
   </g>
   <g id="line2d_36">
    <path d="M 152.3025 83.031912 
L 152.3025 74.93639 
" clip-path="url(#pa08c52dc7e)" style="fill: none; stroke: #ef4444; stroke-width: 1.5; stroke-linecap: square"/>
   </g>
   <g id="line2d_37">
    <path d="M 166.7025 86.10731 
L 166.7025 74.21863 
" clip-path="url(#pa08c52dc7e)" style="fill: none; stroke: #ef4444; stroke-width: 1.5; stroke-linecap: square"/>
   </g>
   <g id="line2d_38">
    <path d="M 181.1025 89.797676 
L 181.1025 83.371294 
" clip-path="url(#pa08c52dc7e)" style="fill: none; stroke: #ef4444; stroke-width: 1.5; stroke-linecap: square"/>
   </g>
   <g id="line2d_39">
    <path d="M 195.5025 95.444826 
L 195.5025 85.483515 
" clip-path="url(#pa08c52dc7e)" style="fill: none; stroke: #ef4444; stroke-width: 1.5; stroke-linecap: square"/>
   </g>
   <g id="line2d_40">
    <path d="M 209.9025 104.739333 
L 209.9025 92.765726 
" clip-path="url(#pa08c52dc7e)" style="fill: none; stroke: #ef4444; stroke-width: 1.5; stroke-linecap: square"/>
   </g>
   <g id="line2d_41">
    <path d="M 224.3025 103.120152 
L 224.3025 95.781609 
" clip-path="url(#pa08c52dc7e)" style="fill: none; stroke: #ef4444; stroke-width: 1.5; stroke-linecap: square"/>
   </g>
   <g id="line2d_42">
    <path d="M 238.7025 106.445217 
L 238.7025 100.000698 
" clip-path="url(#pa08c52dc7e)" style="fill: none; stroke: #ef4444; stroke-width: 1.5; stroke-linecap: square"/>
   </g>
   <g id="line2d_43">
    <path d="M 253.1025 113.78124 
L 253.1025 102.850541 
" clip-path="url(#pa08c52dc7e)" style="fill: none; stroke: #ef4444; stroke-width: 1.5; stroke-linecap: square"/>
   </g>
   <g id="line2d_44">
    <path d="M 267.5025 117.946676 
L 267.5025 107.629305 
" clip-path="url(#pa08c52dc7e)" style="fill: none; stroke: #ef4444; stroke-width: 1.5; stroke-linecap: square"/>
   </g>
   <g id="line2d_45">
    <path d="M 281.9025 126.772139 
L 281.9025 116.411511 
" clip-path="url(#pa08c52dc7e)" style="fill: none; stroke: #ef4444; stroke-width: 1.5; stroke-linecap: square"/>
   </g>
   <g id="line2d_46">
    <path d="M 296.3025 128.537039 
L 296.3025 118.539299 
" clip-path="url(#pa08c52dc7e)" style="fill: none; stroke: #ef4444; stroke-width: 1.5; stroke-linecap: square"/>
   </g>
   <g id="line2d_47">
    <path d="M 310.7025 133.468011 
L 310.7025 120.710537 
" clip-path="url(#pa08c52dc7e)" style="fill: none; stroke: #ef4444; stroke-width: 1.5; stroke-linecap: square"/>
   </g>
   <g id="line2d_48">
    <path d="M 325.1025 137.948024 
L 325.1025 126.681214 
" clip-path="url(#pa08c52dc7e)" style="fill: none; stroke: #ef4444; stroke-width: 1.5; stroke-linecap: square"/>
   </g>
   <g id="line2d_49">
    <path d="M 339.5025 143.877736 
L 339.5025 132.636829 
" clip-path="url(#pa08c52dc7e)" style="fill: none; stroke: #ef4444; stroke-width: 1.5; stroke-linecap: square"/>
   </g>
   <g id="line2d_50">
    <path d="M 353.9025 148.651131 
L 353.9025 136.682483 
" clip-path="url(#pa08c52dc7e)" style="fill: none; stroke: #ef4444; stroke-width: 1.5; stroke-linecap: square"/>
   </g>
   <g id="line2d_51">
    <path d="M 368.3025 148.777372 
L 368.3025 143.641811 
" clip-path="url(#pa08c52dc7e)" style="fill: none; stroke: #ef4444; stroke-width: 1.5; stroke-linecap: square"/>
   </g>
   <g id="line2d_52">
    <path d="M 382.7025 156.587796 
L 382.7025 143.574001 
" clip-path="url(#pa08c52dc7e)" style="fill: none; stroke: #ef4444; stroke-width: 1.5; stroke-linecap: square"/>
   </g>
   <g id="line2d_53">
    <path d="M 397.1025 159.570107 
L 397.1025 149.886025 
" clip-path="url(#pa08c52dc7e)" style="fill: none; stroke: #ef4444; stroke-width: 1.5; stroke-linecap: square"/>
   </g>
   <g id="line2d_54">
    <path d="M 411.5025 160.329001 
L 411.5025 152.764286 
" clip-path="url(#pa08c52dc7e)" style="fill: none; stroke: #ef4444; stroke-width: 1.5; stroke-linecap: square"/>
   </g>
   <g id="line2d_55">
    <path d="M 425.9025 165.095831 
L 425.9025 158.688775 
" clip-path="url(#pa08c52dc7e)" style="fill: none; stroke: #ef4444; stroke-width: 1.5; stroke-linecap: square"/>
   </g>
   <g id="line2d_56">
    <path d="M 440.3025 175.121949 
L 440.3025 163.848249 
" clip-path="url(#pa08c52dc7e)" style="fill: none; stroke: #ef4444; stroke-width: 1.5; stroke-linecap: square"/>
   </g>
   <g id="line2d_57">
    <path d="M 454.7025 176.6189 
L 454.7025 168.196366 
" clip-path="url(#pa08c52dc7e)" style="fill: none; stroke: #ef4444; stroke-width: 1.5; stroke-linecap: square"/>
   </g>
   <g id="line2d_58">
    <path d="M 469.1025 180.059588 
L 469.1025 171.13873 
" clip-path="url(#pa08c52dc7e)" style="fill: none; stroke: #ef4444; stroke-width: 1.5; stroke-linecap: square"/>
   </g>
   <g id="patch_33">
    <path d="M 37.1025 193.58154 
L 37.1025 31.318125 
" style="fill: none; stroke: #1f2937; stroke-width: 0.8; stroke-linejoin: miter; stroke-linecap: square"/>
   </g>
   <g id="patch_34">
    <path d="M 37.1025 193.58154 
L 483.5025 193.58154 
" style="fill: none; stroke: #1f2937; stroke-width: 0.8; stroke-linejoin: miter; stroke-linecap: square"/>
   </g>
   <g id="text_8">
    <!-- Falling Wedge — AAPL 4H -->
    <g style="fill: #ffffff" transform="translate(173.582813 16.318125) scale(0.12 -0.12)">
     <defs>
      <path id="DejaVuSans-Bold-46" d="M 588 4666 
L 3834 4666 
L 3834 3756 
L 1791 3756 
L 1791 2888 
L 3713 2888 
L 3713 1978 
L 1791 1978 
L 1791 0 
L 588 0 
L 588 4666 
z
" transform="scale(0.015625)"/>
      <path id="DejaVuSans-Bold-61" d="M 2106 1575 
Q 1756 1575 1579 1456 
Q 1403 1338 1403 1106 
Q 1403 894 1545 773 
Q 1688 653 1941 653 
Q 2256 653 2472 879 
Q 2688 1106 2688 1447 
L 2688 1575 
L 2106 1575 
z
M 3816 1997 
L 3816 0 
L 2688 0 
L 2688 519 
Q 2463 200 2181 54 
Q 1900 -91 1497 -91 
Q 953 -91 614 226 
Q 275 544 275 1050 
Q 275 1666 698 1953 
Q 1122 2241 2028 2241 
L 2688 2241 
L 2688 2328 
Q 2688 2594 2478 2717 
Q 2269 2841 1825 2841 
Q 1466 2841 1156 2769 
Q 847 2697 581 2553 
L 581 3406 
Q 941 3494 1303 3539 
Q 1666 3584 2028 3584 
Q 2975 3584 3395 3211 
Q 3816 2838 3816 1997 
z
" transform="scale(0.015625)"/>
      <path id="DejaVuSans-Bold-6c" d="M 538 4863 
L 1656 4863 
L 1656 0 
L 538 0 
L 538 4863 
z
" transform="scale(0.015625)"/>
      <path id="DejaVuSans-Bold-69" d="M 538 3500 
L 1656 3500 
L 1656 0 
L 538 0 
L 538 3500 
z
M 538 4863 
L 1656 4863 
L 1656 3950 
L 538 3950 
L 538 4863 
z
" transform="scale(0.015625)"/>
      <path id="DejaVuSans-Bold-6e" d="M 4056 2131 
L 4056 0 
L 2931 0 
L 2931 347 
L 2931 1631 
Q 2931 2084 2911 2256 
Q 2891 2428 2841 2509 
Q 2775 2619 2662 2680 
Q 2550 2741 2406 2741 
Q 2056 2741 1856 2470 
Q 1656 2200 1656 1722 
L 1656 0 
L 538 0 
L 538 3500 
L 1656 3500 
L 1656 2988 
Q 1909 3294 2193 3439 
Q 2478 3584 2822 3584 
Q 3428 3584 3742 3212 
Q 4056 2841 4056 2131 
z
" transform="scale(0.015625)"/>
      <path id="DejaVuSans-Bold-67" d="M 2919 594 
Q 2688 288 2409 144 
Q 2131 0 1766 0 
Q 1125 0 706 504 
Q 288 1009 288 1791 
Q 288 2575 706 3076 
Q 1125 3578 1766 3578 
Q 2131 3578 2409 3434 
Q 2688 3291 2919 2981 
L 2919 3500 
L 4044 3500 
L 4044 353 
Q 4044 -491 3511 -936 
Q 2978 -1381 1966 -1381 
Q 1638 -1381 1331 -1331 
Q 1025 -1281 716 -1178 
L 716 -306 
Q 1009 -475 1290 -558 
Q 1572 -641 1856 -641 
Q 2406 -641 2662 -400 
Q 2919 -159 2919 353 
L 2919 594 
z
M 2181 2772 
Q 1834 2772 1640 2515 
Q 1447 2259 1447 1791 
Q 1447 1309 1634 1061 
Q 1822 813 2181 813 
Q 2531 813 2725 1069 
Q 2919 1325 2919 1791 
Q 2919 2259 2725 2515 
Q 2531 2772 2181 2772 
z
" transform="scale(0.015625)"/>
      <path id="DejaVuSans-Bold-20" transform="scale(0.015625)"/>
      <path id="DejaVuSans-Bold-57" d="M 191 4666 
L 1344 4666 
L 2150 1275 
L 2950 4666 
L 4109 4666 
L 4909 1275 
L 5716 4666 
L 6859 4666 
L 5759 0 
L 4372 0 
L 3525 3547 
L 2688 0 
L 1300 0 
L 191 4666 
z
" transform="scale(0.015625)"/>
      <path id="DejaVuSans-Bold-65" d="M 4031 1759 
L 4031 1441 
L 1416 1441 
Q 1456 1047 1700 850 
Q 1944 653 2381 653 
Q 2734 653 3104 758 
Q 3475 863 3866 1075 
L 3866 213 
Q 3469 63 3072 -14 
Q 2675 -91 2278 -91 
Q 1328 -91 801 392 
Q 275 875 275 1747 
Q 275 2603 792 3093 
Q 1309 3584 2216 3584 
Q 3041 3584 3536 3087 
Q 4031 2591 4031 1759 
z
M 2881 2131 
Q 2881 2450 2695 2645 
Q 2509 2841 2209 2841 
Q 1884 2841 1681 2658 
Q 1478 2475 1428 2131 
L 2881 2131 
z
" transform="scale(0.015625)"/>
      <path id="DejaVuSans-Bold-64" d="M 2919 2988 
L 2919 4863 
L 4044 4863 
L 4044 0 
L 2919 0 
L 2919 506 
Q 2688 197 2409 53 
Q 2131 -91 1766 -91 
Q 1119 -91 703 423 
Q 288 938 288 1747 
Q 288 2556 703 3070 
Q 1119 3584 1766 3584 
Q 2128 3584 2408 3439 
Q 2688 3294 2919 2988 
z
M 2181 722 
Q 2541 722 2730 984 
Q 2919 1247 2919 1747 
Q 2919 2247 2730 2509 
Q 2541 2772 2181 2772 
Q 1825 2772 1636 2509 
Q 1447 2247 1447 1747 
Q 1447 1247 1636 984 
Q 1825 722 2181 722 
z
" transform="scale(0.015625)"/>
      <path id="DejaVuSans-Bold-2014" d="M 344 2156 
L 6056 2156 
L 6056 1350 
L 344 1350 
L 344 2156 
z
" transform="scale(0.015625)"/>
      <path id="DejaVuSans-Bold-41" d="M 3419 850 
L 1538 850 
L 1241 0 
L 31 0 
L 1759 4666 
L 3194 4666 
L 4922 0 
L 3713 0 
L 3419 850 
z
M 1838 1716 
L 3116 1716 
L 2478 3572 
L 1838 1716 
z
" transform="scale(0.015625)"/>
      <path id="DejaVuSans-Bold-50" d="M 588 4666 
L 2584 4666 
Q 3475 4666 3951 4270 
Q 4428 3875 4428 3144 
Q 4428 2409 3951 2014 
Q 3475 1619 2584 1619 
L 1791 1619 
L 1791 0 
L 588 0 
L 588 4666 
z
M 1791 3794 
L 1791 2491 
L 2456 2491 
Q 2806 2491 2997 2661 
Q 3188 2831 3188 3144 
Q 3188 3456 2997 3625 
Q 2806 3794 2456 3794 
L 1791 3794 
z
" transform="scale(0.015625)"/>
      <path id="DejaVuSans-Bold-4c" d="M 588 4666 
L 1791 4666 
L 1791 909 
L 3903 909 
L 3903 0 
L 588 0 
L 588 4666 
z
" transform="scale(0.015625)"/>
      <path id="DejaVuSans-Bold-34" d="M 2356 3675 
L 1038 1722 
L 2356 1722 
L 2356 3675 
z
M 2156 4666 
L 3494 4666 
L 3494 1722 
L 4159 1722 
L 4159 850 
L 3494 850 
L 3494 0 
L 2356 0 
L 2356 850 
L 288 850 
L 288 1881 
L 2156 4666 
z
" transform="scale(0.015625)"/>
      <path id="DejaVuSans-Bold-48" d="M 588 4666 
L 1791 4666 
L 1791 2888 
L 3566 2888 
L 3566 4666 
L 4769 4666 
L 4769 0 
L 3566 0 
L 3566 1978 
L 1791 1978 
L 1791 0 
L 588 0 
L 588 4666 
z
" transform="scale(0.015625)"/>
     </defs>
     <use xlink:href="#DejaVuSans-Bold-46"/>
     <use xlink:href="#DejaVuSans-Bold-61" transform="translate(62.435547 0)"/>
     <use xlink:href="#DejaVuSans-Bold-6c" transform="translate(129.916016 0)"/>
     <use xlink:href="#DejaVuSans-Bold-6c" transform="translate(164.193359 0)"/>
     <use xlink:href="#DejaVuSans-Bold-69" transform="translate(198.470703 0)"/>
     <use xlink:href="#DejaVuSans-Bold-6e" transform="translate(232.748047 0)"/>
     <use xlink:href="#DejaVuSans-Bold-67" transform="translate(303.939453 0)"/>
     <use xlink:href="#DejaVuSans-Bold-20" transform="translate(375.521484 0)"/>
     <use xlink:href="#DejaVuSans-Bold-57" transform="translate(410.335938 0)"/>
     <use xlink:href="#DejaVuSans-Bold-65" transform="translate(517.013672 0)"/>
     <use xlink:href="#DejaVuSans-Bold-64" transform="translate(584.835938 0)"/>
     <use xlink:href="#DejaVuSans-Bold-67" transform="translate(656.417969 0)"/>
     <use xlink:href="#DejaVuSans-Bold-65" transform="translate(728 0)"/>
     <use xlink:href="#DejaVuSans-Bold-20" transform="translate(795.822266 0)"/>
     <use xlink:href="#DejaVuSans-Bold-2014" transform="translate(830.636719 0)"/>
     <use xlink:href="#DejaVuSans-Bold-20" transform="translate(930.636719 0)"/>
     <use xlink:href="#DejaVuSans-Bold-41" transform="translate(965.451172 0)"/>
     <use xlink:href="#DejaVuSans-Bold-41" transform="translate(1042.84375 0)"/>
     <use xlink:href="#DejaVuSans-Bold-50" transform="translate(1120.236328 0)"/>
     <use xlink:href="#DejaVuSans-Bold-4c" transform="translate(1193.527344 0)"/>
     <use xlink:href="#DejaVuSans-Bold-20" transform="translate(1257.248047 0)"/>
     <use xlink:href="#DejaVuSans-Bold-34" transform="translate(1292.0625 0)"/>
     <use xlink:href="#DejaVuSans-Bold-48" transform="translate(1361.642578 0)"/>
    </g>
   </g>
  </g>
  <g id="axes_2">
   <g id="patch_35">
    <path d="M 37.1025 253.078125 
L 483.5025 253.078125 
L 483.5025 198.99032 
L 37.1025 198.99032 
z
" style="fill: #0a0f1a"/>
   </g>
   <g id="patch_36">
    <path d="M 57.393409 253.078125 
L 66.958147 253.078125 
L 66.958147 235.236233 
L 57.393409 235.236233 
z
" clip-path="url(#p9913444fdd)" style="fill: #22c55e; fill-opacity: 0.266667"/>
   </g>
   <g id="patch_37">
    <path d="M 71.057321 253.078125 
L 80.622059 253.078125 
L 80.622059 201.56593 
L 71.057321 201.56593 
z
" clip-path="url(#p9913444fdd)" style="fill: #ef4444; fill-opacity: 0.266667"/>
   </g>
   <g id="patch_38">
    <path d="M 84.721233 253.078125 
L 94.285971 253.078125 
L 94.285971 208.631207 
L 84.721233 208.631207 
z
" clip-path="url(#p9913444fdd)" style="fill: #ef4444; fill-opacity: 0.266667"/>
   </g>
   <g id="patch_39">
    <path d="M 98.385145 253.078125 
L 107.949883 253.078125 
L 107.949883 218.129094 
L 98.385145 218.129094 
z
" clip-path="url(#p9913444fdd)" style="fill: #ef4444; fill-opacity: 0.266667"/>
   </g>
   <g id="patch_40">
    <path d="M 112.049056 253.078125 
L 121.613795 253.078125 
L 121.613795 231.015003 
L 112.049056 231.015003 
z
" clip-path="url(#p9913444fdd)" style="fill: #ef4444; fill-opacity: 0.266667"/>
   </g>
   <g id="patch_41">
    <path d="M 125.712968 253.078125 
L 135.277707 253.078125 
L 135.277707 226.649606 
L 125.712968 226.649606 
z
" clip-path="url(#p9913444fdd)" style="fill: #ef4444; fill-opacity: 0.266667"/>
   </g>
   <g id="patch_42">
    <path d="M 139.37688 253.078125 
L 148.941618 253.078125 
L 148.941618 218.324931 
L 139.37688 218.324931 
z
" clip-path="url(#p9913444fdd)" style="fill: #ef4444; fill-opacity: 0.266667"/>
   </g>
   <g id="patch_43">
    <path d="M 153.040792 253.078125 
L 162.60553 253.078125 
L 162.60553 215.199829 
L 153.040792 215.199829 
z
" clip-path="url(#p9913444fdd)" style="fill: #ef4444; fill-opacity: 0.266667"/>
   </g>
   <g id="patch_44">
    <path d="M 166.704704 253.078125 
L 176.269442 253.078125 
L 176.269442 206.812332 
L 166.704704 206.812332 
z
" clip-path="url(#p9913444fdd)" style="fill: #ef4444; fill-opacity: 0.266667"/>
   </g>
   <g id="patch_45">
    <path d="M 180.368616 253.078125 
L 189.933354 253.078125 
L 189.933354 207.708339 
L 180.368616 207.708339 
z
" clip-path="url(#p9913444fdd)" style="fill: #ef4444; fill-opacity: 0.266667"/>
   </g>
   <g id="patch_46">
    <path d="M 194.032528 253.078125 
L 203.597266 253.078125 
L 203.597266 235.623088 
L 194.032528 235.623088 
z
" clip-path="url(#p9913444fdd)" style="fill: #ef4444; fill-opacity: 0.266667"/>
   </g>
   <g id="patch_47">
    <path d="M 207.696439 253.078125 
L 217.261178 253.078125 
L 217.261178 223.409168 
L 207.696439 223.409168 
z
" clip-path="url(#p9913444fdd)" style="fill: #ef4444; fill-opacity: 0.266667"/>
   </g>
   <g id="patch_48">
    <path d="M 221.360351 253.078125 
L 230.92509 253.078125 
L 230.92509 235.662354 
L 221.360351 235.662354 
z
" clip-path="url(#p9913444fdd)" style="fill: #ef4444; fill-opacity: 0.266667"/>
   </g>
   <g id="patch_49">
    <path d="M 235.024263 253.078125 
L 244.589001 253.078125 
L 244.589001 224.730306 
L 235.024263 224.730306 
z
" clip-path="url(#p9913444fdd)" style="fill: #ef4444; fill-opacity: 0.266667"/>
   </g>
   <g id="patch_50">
    <path d="M 248.688175 253.078125 
L 258.252913 253.078125 
L 258.252913 209.24911 
L 248.688175 209.24911 
z
" clip-path="url(#p9913444fdd)" style="fill: #ef4444; fill-opacity: 0.266667"/>
   </g>
   <g id="patch_51">
    <path d="M 262.352087 253.078125 
L 271.916825 253.078125 
L 271.916825 224.733017 
L 262.352087 224.733017 
z
" clip-path="url(#p9913444fdd)" style="fill: #ef4444; fill-opacity: 0.266667"/>
   </g>
   <g id="patch_52">
    <path d="M 276.015999 253.078125 
L 285.580737 253.078125 
L 285.580737 206.189713 
L 276.015999 206.189713 
z
" clip-path="url(#p9913444fdd)" style="fill: #ef4444; fill-opacity: 0.266667"/>
   </g>
   <g id="patch_53">
    <path d="M 289.67991 253.078125 
L 299.244649 253.078125 
L 299.244649 224.825525 
L 289.67991 224.825525 
z
" clip-path="url(#p9913444fdd)" style="fill: #ef4444; fill-opacity: 0.266667"/>
   </g>
   <g id="patch_54">
    <path d="M 303.343822 253.078125 
L 312.908561 253.078125 
L 312.908561 226.958899 
L 303.343822 226.958899 
z
" clip-path="url(#p9913444fdd)" style="fill: #ef4444; fill-opacity: 0.266667"/>
   </g>
   <g id="patch_55">
    <path d="M 317.007734 253.078125 
L 326.572472 253.078125 
L 326.572472 237.743317 
L 317.007734 237.743317 
z
" clip-path="url(#p9913444fdd)" style="fill: #ef4444; fill-opacity: 0.266667"/>
   </g>
   <g id="patch_56">
    <path d="M 330.671646 253.078125 
L 340.236384 253.078125 
L 340.236384 234.742208 
L 330.671646 234.742208 
z
" clip-path="url(#p9913444fdd)" style="fill: #ef4444; fill-opacity: 0.266667"/>
   </g>
   <g id="patch_57">
    <path d="M 344.335558 253.078125 
L 353.900296 253.078125 
L 353.900296 237.920371 
L 344.335558 237.920371 
z
" clip-path="url(#p9913444fdd)" style="fill: #ef4444; fill-opacity: 0.266667"/>
   </g>
   <g id="patch_58">
    <path d="M 357.99947 253.078125 
L 367.564208 253.078125 
L 367.564208 203.165445 
L 357.99947 203.165445 
z
" clip-path="url(#p9913444fdd)" style="fill: #ef4444; fill-opacity: 0.266667"/>
   </g>
   <g id="patch_59">
    <path d="M 371.663382 253.078125 
L 381.22812 253.078125 
L 381.22812 202.272479 
L 371.663382 202.272479 
z
" clip-path="url(#p9913444fdd)" style="fill: #ef4444; fill-opacity: 0.266667"/>
   </g>
   <g id="patch_60">
    <path d="M 385.327293 253.078125 
L 394.892032 253.078125 
L 394.892032 226.120121 
L 385.327293 226.120121 
z
" clip-path="url(#p9913444fdd)" style="fill: #ef4444; fill-opacity: 0.266667"/>
   </g>
   <g id="patch_61">
    <path d="M 398.991205 253.078125 
L 408.555944 253.078125 
L 408.555944 210.810374 
L 398.991205 210.810374 
z
" clip-path="url(#p9913444fdd)" style="fill: #ef4444; fill-opacity: 0.266667"/>
   </g>
   <g id="patch_62">
    <path d="M 412.655117 253.078125 
L 422.219855 253.078125 
L 422.219855 215.288088 
L 412.655117 215.288088 
z
" clip-path="url(#p9913444fdd)" style="fill: #ef4444; fill-opacity: 0.266667"/>
   </g>
   <g id="patch_63">
    <path d="M 426.319029 253.078125 
L 435.883767 253.078125 
L 435.883767 238.534959 
L 426.319029 238.534959 
z
" clip-path="url(#p9913444fdd)" style="fill: #ef4444; fill-opacity: 0.266667"/>
   </g>
   <g id="patch_64">
    <path d="M 439.982941 253.078125 
L 449.547679 253.078125 
L 449.547679 234.336694 
L 439.982941 234.336694 
z
" clip-path="url(#p9913444fdd)" style="fill: #ef4444; fill-opacity: 0.266667"/>
   </g>
   <g id="patch_65">
    <path d="M 453.646853 253.078125 
L 463.211591 253.078125 
L 463.211591 216.713728 
L 453.646853 216.713728 
z
" clip-path="url(#p9913444fdd)" style="fill: #ef4444; fill-opacity: 0.266667"/>
   </g>
   <g id="matplotlib.axis_3">
    <g id="xtick_8">
     <g id="line2d_59">
      <path d="M 62.175778 253.078125 
L 62.175778 198.99032 
" clip-path="url(#p9913444fdd)" style="fill: none; stroke-dasharray: 2.96,1.28; stroke-dashoffset: 0; stroke: #374151; stroke-opacity: 0.1; stroke-width: 0.8"/>
     </g>
     <g id="line2d_60">
      <g>
       <use xlink:href="#m5349cdf1d1" x="62.175778" y="253.078125" style="fill: #9ca3af; stroke: #9ca3af; stroke-width: 0.8"/>
      </g>
     </g>
     <g id="text_9">
      <!-- 0 -->
      <g style="fill: #9ca3af" transform="translate(59.630778 266.156875) scale(0.08 -0.08)">
       <use xlink:href="#DejaVuSans-30"/>
      </g>
     </g>
    </g>
    <g id="xtick_9">
     <g id="line2d_61">
      <path d="M 130.495337 253.078125 
L 130.495337 198.99032 
" clip-path="url(#p9913444fdd)" style="fill: none; stroke-dasharray: 2.96,1.28; stroke-dashoffset: 0; stroke: #374151; stroke-opacity: 0.1; stroke-width: 0.8"/>
     </g>
     <g id="line2d_62">
      <g>
       <use xlink:href="#m5349cdf1d1" x="130.495337" y="253.078125" style="fill: #9ca3af; stroke: #9ca3af; stroke-width: 0.8"/>
      </g>
     </g>
     <g id="text_10">
      <!-- 5 -->
      <g style="fill: #9ca3af" transform="translate(127.950337 266.156875) scale(0.08 -0.08)">
       <use xlink:href="#DejaVuSans-35"/>
      </g>
     </g>
    </g>
    <g id="xtick_10">
     <g id="line2d_63">
      <path d="M 198.814897 253.078125 
L 198.814897 198.99032 
" clip-path="url(#p9913444fdd)" style="fill: none; stroke-dasharray: 2.96,1.28; stroke-dashoffset: 0; stroke: #374151; stroke-opacity: 0.1; stroke-width: 0.8"/>
     </g>
     <g id="line2d_64">
      <g>
       <use xlink:href="#m5349cdf1d1" x="198.814897" y="253.078125" style="fill: #9ca3af; stroke: #9ca3af; stroke-width: 0.8"/>
      </g>
     </g>
     <g id="text_11">
      <!-- 10 -->
      <g style="fill: #9ca3af" transform="translate(193.724897 266.156875) scale(0.08 -0.08)">
       <use xlink:href="#DejaVuSans-31"/>
       <use xlink:href="#DejaVuSans-30" transform="translate(63.623047 0)"/>
      </g>
     </g>
    </g>
    <g id="xtick_11">
     <g id="line2d_65">
      <path d="M 267.134456 253.078125 
L 267.134456 198.99032 
" clip-path="url(#p9913444fdd)" style="fill: none; stroke-dasharray: 2.96,1.28; stroke-dashoffset: 0; stroke: #374151; stroke-opacity: 0.1; stroke-width: 0.8"/>
     </g>
     <g id="line2d_66">
      <g>
       <use xlink:href="#m5349cdf1d1" x="267.134456" y="253.078125" style="fill: #9ca3af; stroke: #9ca3af; stroke-width: 0.8"/>
      </g>
     </g>
     <g id="text_12">
      <!-- 15 -->
      <g style="fill: #9ca3af" transform="translate(262.044456 266.156875) scale(0.08 -0.08)">
       <use xlink:href="#DejaVuSans-31"/>
       <use xlink:href="#DejaVuSans-35" transform="translate(63.623047 0)"/>
      </g>
     </g>
    </g>
    <g id="xtick_12">
     <g id="line2d_67">
      <path d="M 335.454015 253.078125 
L 335.454015 198.99032 
" clip-path="url(#p9913444fdd)" style="fill: none; stroke-dasharray: 2.96,1.28; stroke-dashoffset: 0; stroke: #374151; stroke-opacity: 0.1; stroke-width: 0.8"/>
     </g>
     <g id="line2d_68">
      <g>
       <use xlink:href="#m5349cdf1d1" x="335.454015" y="253.078125" style="fill: #9ca3af; stroke: #9ca3af; stroke-width: 0.8"/>
      </g>
     </g>
     <g id="text_13">
      <!-- 20 -->
      <g style="fill: #9ca3af" transform="translate(330.364015 266.156875) scale(0.08 -0.08)">
       <use xlink:href="#DejaVuSans-32"/>
       <use xlink:href="#DejaVuSans-30" transform="translate(63.623047 0)"/>
      </g>
     </g>
    </g>
    <g id="xtick_13">
     <g id="line2d_69">
      <path d="M 403.773574 253.078125 
L 403.773574 198.99032 
" clip-path="url(#p9913444fdd)" style="fill: none; stroke-dasharray: 2.96,1.28; stroke-dashoffset: 0; stroke: #374151; stroke-opacity: 0.1; stroke-width: 0.8"/>
     </g>
     <g id="line2d_70">
      <g>
       <use xlink:href="#m5349cdf1d1" x="403.773574" y="253.078125" style="fill: #9ca3af; stroke: #9ca3af; stroke-width: 0.8"/>
      </g>
     </g>
     <g id="text_14">
      <!-- 25 -->
      <g style="fill: #9ca3af" transform="translate(398.683574 266.156875) scale(0.08 -0.08)">
       <use xlink:href="#DejaVuSans-32"/>
       <use xlink:href="#DejaVuSans-35" transform="translate(63.623047 0)"/>
      </g>
     </g>
    </g>
    <g id="xtick_14">
     <g id="line2d_71">
      <path d="M 472.093134 253.078125 
L 472.093134 198.99032 
" clip-path="url(#p9913444fdd)" style="fill: none; stroke-dasharray: 2.96,1.28; stroke-dashoffset: 0; stroke: #374151; stroke-opacity: 0.1; stroke-width: 0.8"/>
     </g>
     <g id="line2d_72">
      <g>
       <use xlink:href="#m5349cdf1d1" x="472.093134" y="253.078125" style="fill: #9ca3af; stroke: #9ca3af; stroke-width: 0.8"/>
      </g>
     </g>
     <g id="text_15">
      <!-- 30 -->
      <g style="fill: #9ca3af" transform="translate(467.003134 266.156875) scale(0.08 -0.08)">
       <defs>
        <path id="DejaVuSans-33" d="M 2597 2516 
Q 3050 2419 3304 2112 
Q 3559 1806 3559 1356 
Q 3559 666 3084 287 
Q 2609 -91 1734 -91 
Q 1441 -91 1130 -33 
Q 819 25 488 141 
L 488 750 
Q 750 597 1062 519 
Q 1375 441 1716 441 
Q 2309 441 2620 675 
Q 2931 909 2931 1356 
Q 2931 1769 2642 2001 
Q 2353 2234 1838 2234 
L 1294 2234 
L 1294 2753 
L 1863 2753 
Q 2328 2753 2575 2939 
Q 2822 3125 2822 3475 
Q 2822 3834 2567 4026 
Q 2313 4219 1838 4219 
Q 1578 4219 1281 4162 
Q 984 4106 628 3988 
L 628 4550 
Q 988 4650 1302 4700 
Q 1616 4750 1894 4750 
Q 2613 4750 3031 4423 
Q 3450 4097 3450 3541 
Q 3450 3153 3228 2886 
Q 3006 2619 2597 2516 
z
" transform="scale(0.015625)"/>
       </defs>
       <use xlink:href="#DejaVuSans-33"/>
       <use xlink:href="#DejaVuSans-30" transform="translate(63.623047 0)"/>
      </g>
     </g>
    </g>
   </g>
   <g id="matplotlib.axis_4">
    <g id="ytick_8">
     <g id="line2d_73">
      <path d="M 37.1025 253.078125 
L 483.5025 253.078125 
" clip-path="url(#p9913444fdd)" style="fill: none; stroke-dasharray: 2.96,1.28; stroke-dashoffset: 0; stroke: #374151; stroke-opacity: 0.1; stroke-width: 0.8"/>
     </g>
     <g id="line2d_74">
      <g>
       <use xlink:href="#ma519c628e2" x="37.1025" y="253.078125" style="fill: #9ca3af; stroke: #9ca3af; stroke-width: 0.8"/>
      </g>
     </g>
     <g id="text_16">
      <!-- 0 -->
      <g style="fill: #9ca3af" transform="translate(25.0125 256.1175) scale(0.08 -0.08)">
       <use xlink:href="#DejaVuSans-30"/>
      </g>
     </g>
    </g>
    <g id="ytick_9">
     <g id="line2d_75">
      <path d="M 37.1025 230.295764 
L 483.5025 230.295764 
" clip-path="url(#p9913444fdd)" style="fill: none; stroke-dasharray: 2.96,1.28; stroke-dashoffset: 0; stroke: #374151; stroke-opacity: 0.1; stroke-width: 0.8"/>
     </g>
     <g id="line2d_76">
      <g>
       <use xlink:href="#ma519c628e2" x="37.1025" y="230.295764" style="fill: #9ca3af; stroke: #9ca3af; stroke-width: 0.8"/>
      </g>
     </g>
     <g id="text_17">
      <!-- 2 -->
      <g style="fill: #9ca3af" transform="translate(25.0125 233.335139) scale(0.08 -0.08)">
       <use xlink:href="#DejaVuSans-32"/>
      </g>
     </g>
    </g>
    <g id="ytick_10">
     <g id="line2d_77">
      <path d="M 37.1025 207.513402 
L 483.5025 207.513402 
" clip-path="url(#p9913444fdd)" style="fill: none; stroke-dasharray: 2.96,1.28; stroke-dashoffset: 0; stroke: #374151; stroke-opacity: 0.1; stroke-width: 0.8"/>
     </g>
     <g id="line2d_78">
      <g>
       <use xlink:href="#ma519c628e2" x="37.1025" y="207.513402" style="fill: #9ca3af; stroke: #9ca3af; stroke-width: 0.8"/>
      </g>
     </g>
     <g id="text_18">
      <!-- 4 -->
      <g style="fill: #9ca3af" transform="translate(25.0125 210.552777) scale(0.08 -0.08)">
       <defs>
        <path id="DejaVuSans-34" d="M 2419 4116 
L 825 1625 
L 2419 1625 
L 2419 4116 
z
M 2253 4666 
L 3047 4666 
L 3047 1625 
L 3713 1625 
L 3713 1100 
L 3047 1100 
L 3047 0 
L 2419 0 
L 2419 1100 
L 313 1100 
L 313 1709 
L 2253 4666 
z
" transform="scale(0.015625)"/>
       </defs>
       <use xlink:href="#DejaVuSans-34"/>
      </g>
     </g>
    </g>
    <g id="text_19">
     <!-- Vol -->
     <g style="fill: #9ca3af" transform="translate(19.34875 232.019223) rotate(-90) scale(0.08 -0.08)">
      <defs>
       <path id="DejaVuSans-56" d="M 1831 0 
L 50 4666 
L 709 4666 
L 2188 738 
L 3669 4666 
L 4325 4666 
L 2547 0 
L 1831 0 
z
" transform="scale(0.015625)"/>
       <path id="DejaVuSans-6f" d="M 1959 3097 
Q 1497 3097 1228 2736 
Q 959 2375 959 1747 
Q 959 1119 1226 758 
Q 1494 397 1959 397 
Q 2419 397 2687 759 
Q 2956 1122 2956 1747 
Q 2956 2369 2687 2733 
Q 2419 3097 1959 3097 
z
M 1959 3584 
Q 2709 3584 3137 3096 
Q 3566 2609 3566 1747 
Q 3566 888 3137 398 
Q 2709 -91 1959 -91 
Q 1206 -91 779 398 
Q 353 888 353 1747 
Q 353 2609 779 3096 
Q 1206 3584 1959 3584 
z
" transform="scale(0.015625)"/>
       <path id="DejaVuSans-6c" d="M 603 4863 
L 1178 4863 
L 1178 0 
L 603 0 
L 603 4863 
z
" transform="scale(0.015625)"/>
      </defs>
      <use xlink:href="#DejaVuSans-56"/>
      <use xlink:href="#DejaVuSans-6f" transform="translate(60.658203 0)"/>
      <use xlink:href="#DejaVuSans-6c" transform="translate(121.839844 0)"/>
     </g>
    </g>
    <g id="text_20">
     <!-- 1e6 -->
     <g style="fill: #9ca3af" transform="translate(37.1025 195.99032) scale(0.1 -0.1)">
      <defs>
       <path id="DejaVuSans-65" d="M 3597 1894 
L 3597 1613 
L 953 1613 
Q 991 1019 1311 708 
Q 1631 397 2203 397 
Q 2534 397 2845 478 
Q 3156 559 3463 722 
L 3463 178 
Q 3153 47 2828 -22 
Q 2503 -91 2169 -91 
Q 1331 -91 842 396 
Q 353 884 353 1716 
Q 353 2575 817 3079 
Q 1281 3584 2069 3584 
Q 2775 3584 3186 3129 
Q 3597 2675 3597 1894 
z
M 3022 2063 
Q 3016 2534 2758 2815 
Q 2500 3097 2075 3097 
Q 1594 3097 1305 2825 
Q 1016 2553 972 2059 
L 3022 2063 
z
" transform="scale(0.015625)"/>
       <path id="DejaVuSans-36" d="M 2113 2584 
Q 1688 2584 1439 2293 
Q 1191 2003 1191 1497 
Q 1191 994 1439 701 
Q 1688 409 2113 409 
Q 2538 409 2786 701 
Q 3034 994 3034 1497 
Q 3034 2003 2786 2293 
Q 2538 2584 2113 2584 
z
M 3366 4563 
L 3366 3988 
Q 3128 4100 2886 4159 
Q 2644 4219 2406 4219 
Q 1781 4219 1451 3797 
Q 1122 3375 1075 2522 
Q 1259 2794 1537 2939 
Q 1816 3084 2150 3084 
Q 2853 3084 3261 2657 
Q 3669 2231 3669 1497 
Q 3669 778 3244 343 
Q 2819 -91 2113 -91 
Q 1303 -91 875 529 
Q 447 1150 447 2328 
Q 447 3434 972 4092 
Q 1497 4750 2381 4750 
Q 2619 4750 2861 4703 
Q 3103 4656 3366 4563 
z
" transform="scale(0.015625)"/>
      </defs>
      <use xlink:href="#DejaVuSans-31"/>
      <use xlink:href="#DejaVuSans-65" transform="translate(63.623047 0)"/>
      <use xlink:href="#DejaVuSans-36" transform="translate(125.146484 0)"/>
     </g>
    </g>
   </g>
   <g id="patch_66">
    <path d="M 37.1025 253.078125 
L 37.1025 198.99032 
" style="fill: none; stroke: #1f2937; stroke-width: 0.8; stroke-linejoin: miter; stroke-linecap: square"/>
   </g>
   <g id="patch_67">
    <path d="M 37.1025 253.078125 
L 483.5025 253.078125 
" style="fill: none; stroke: #1f2937; stroke-width: 0.8; stroke-linejoin: miter; stroke-linecap: square"/>
   </g>
  </g>
 </g>
 <defs>
  <clipPath id="pa08c52dc7e">
   <rect x="37.1025" y="31.318125" width="446.4" height="162.263415"/>
  </clipPath>
  <clipPath id="p9913444fdd">
   <rect x="37.1025" y="198.99032" width="446.4" height="54.087805"/>
  </clipPath>
 </defs>
</svg>
