<?xml version="1.0" encoding="utf-8" standalone="no"?>
<!DOCTYPE svg PUBLIC "-//W3C//DTD SVG 1.1//EN"
  "http://www.w3.org/Graphics/SVG/1.1/DTD/svg11.dtd">
<svg xmlns:xlink="http://www.w3.org/1999/xlink" width="483.028437pt" height="267.533125pt" viewBox="0 0 483.028437 267.533125" xmlns="http://www.w3.org/2000/svg" version="1.1">
 <metadata>
  <rdf:RDF xmlns:dc="http://purl.org/dc/elements/1.1/" xmlns:cc="http://creativecommons.org/ns#" xmlns:rdf="http://www.w3.org/1999/02/22-rdf-syntax-ns#">
   <cc:Work>
    <dc:type rdf:resource="http://purl.org/dc/dcmitype/StillImage"/>
    <dc:date>2026-02-16T00:23:18.875915</dc:date>
    <dc:format>image/svg+xml</dc:format>
    <dc:creator>
     <cc:Agent>
      <dc:title>Matplotlib v3.10.8, https://matplotlib.org/</dc:title>
     </cc:Agent>
    </dc:creator>
   </cc:Work>
  </rdf:RDF>
 </metadata>
 <defs>
  <style type="text/css">*{stroke-linejoin: round; stroke-linecap: butt}</style>
 </defs>
 <g id="figure_1">
  <g id="patch_1">
   <path d="M 0 267.533125 
L 483.028437 267.533125 
L 483.028437 0 
L 0 0 
z
" style="fill: #0a0f1a"/>
  </g>
  <g id="axes_1">
   <g id="patch_2">
    <path d="M 29.428438 187.061852 
L 475.828437 187.061852 
L 475.828437 24.798438 
L 29.428438 24.798438 
z
" style="fill: #0a0f1a"/>
   </g>
   <g id="patch_3">
    <path d="M 38.788438 95.904089 
L 48.868437 95.904089 
Q 49.156437 95.904089 49.156437 95.618563 
L 49.156437 69.830503 
Q 49.156437 69.544977 48.868437 69.544977 
L 38.788438 69.544977 
Q 38.500438 69.544977 38.500438 69.830503 
L 38.500438 95.618563 
Q 38.500438 95.904089 38.788438 95.904089 
z
" clip-path="url(#pb36fbe092c)" style="fill: #ef4444; stroke: #ef4444; stroke-linejoin: miter"/>
   </g>
   <g id="patch_4">
    <path d="M 53.188437 84.816917 
L 63.268437 84.816917 
Q 63.556438 84.816917 63.556438 84.531391 
L 63.556438 57.254695 
Q 63.556438 56.969169 63.268437 56.969169 
L 53.188437 56.969169 
Q 52.900437 56.969169 52.900437 57.254695 
L 52.900437 84.531391 
Q 52.900437 84.816917 53.188437 84.816917 
z
" clip-path="url(#pb36fbe092c)" style="fill: #ef4444; stroke: #ef4444; stroke-linejoin: miter"/>
   </g>
   <g id="patch_5">
    <path d="M 67.588437 84.732841 
L 77.668437 84.732841 
Q 77.956437 84.732841 77.956437 84.447315 
L 77.956437 67.857379 
Q 77.956437 67.571853 77.668437 67.571853 
L 67.588437 67.571853 
Q 67.300438 67.571853 67.300438 67.857379 
L 67.300438 84.447315 
Q 67.300438 84.732841 67.588437 84.732841 
z
" clip-path="url(#pb36fbe092c)" style="fill: #22c55e; stroke: #22c55e; stroke-linejoin: miter"/>
   </g>
   <g id="patch_6">
    <path d="M 81.988438 105.337616 
L 92.068437 105.337616 
Q 92.356437 105.337616 92.356437 105.052089 
L 92.356437 95.874132 
Q 92.356437 95.588606 92.068437 95.588606 
L 81.988438 95.588606 
Q 81.700437 95.588606 81.700437 95.874132 
L 81.700437 105.052089 
Q 81.700437 105.337616 81.988438 105.337616 
z
" clip-path="url(#pb36fbe092c)" style="fill: #ef4444; stroke: #ef4444; stroke-linejoin: miter"/>
   </g>
   <g id="patch_7">
    <path d="M 96.388437 84.977152 
L 106.468437 84.977152 
Q 106.756438 84.977152 106.756438 84.691626 
L 106.756438 72.757138 
Q 106.756438 72.471611 106.468437 72.471611 
L 96.388437 72.471611 
Q 96.100437 72.471611 96.100437 72.757138 
L 96.100437 84.691626 
Q 96.100437 84.977152 96.388437 84.977152 
z
" clip-path="url(#pb36fbe092c)" style="fill: #22c55e; stroke: #22c55e; stroke-linejoin: miter"/>
   </g>
   <g id="patch_8">
    <path d="M 110.788437 90.832126 
L 120.868437 90.832126 
Q 121.156438 90.832126 121.156438 90.5466 
L 121.156438 80.924142 
Q 121.156438 80.638616 120.868437 80.638616 
L 110.788437 80.638616 
Q 110.500438 80.638616 110.500438 80.924142 
L 110.500438 90.5466 
Q 110.500438 90.832126 110.788437 90.832126 
z
" clip-path="url(#pb36fbe092c)" style="fill: #22c55e; stroke: #22c55e; stroke-linejoin: miter"/>
   </g>
   <g id="patch_9">
    <path d="M 125.188437 98.844141 
L 135.268438 98.844141 
Q 135.556438 98.844141 135.556438 98.558614 
L 135.556438 70.260276 
Q 135.556438 69.974749 135.268438 69.974749 
L 125.188437 69.974749 
Q 124.900438 69.974749 124.900438 70.260276 
L 124.900438 98.558614 
Q 124.900438 98.844141 125.188437 98.844141 
z
" clip-path="url(#pb36fbe092c)" style="fill: #ef4444; stroke: #ef4444; stroke-linejoin: miter"/>
   </g>
   <g id="patch_10">
    <path d="M 139.588437 101.344101 
L 149.668438 101.344101 
Q 149.956437 101.344101 149.956437 101.058575 
L 149.956437 86.692798 
Q 149.956437 86.407271 149.668438 86.407271 
L 139.588437 86.407271 
Q 139.300438 86.407271 139.300438 86.692798 
L 139.300438 101.058575 
Q 139.300438 101.344101 139.588437 101.344101 
z
" clip-path="url(#pb36fbe092c)" style="fill: #22c55e; stroke: #22c55e; stroke-linejoin: miter"/>
   </g>
   <g id="patch_11">
    <path d="M 153.988438 131.762618 
L 164.068438 131.762618 
Q 164.356437 131.762618 164.356437 131.477092 
L 164.356437 121.938227 
Q 164.356437 121.6527 164.068438 121.6527 
L 153.988438 121.6527 
Q 153.700437 121.6527 153.700437 121.938227 
L 153.700437 131.477092 
Q 153.700437 131.762618 153.988438 131.762618 
z
" clip-path="url(#pb36fbe092c)" style="fill: #22c55e; stroke: #22c55e; stroke-linejoin: miter"/>
   </g>
   <g id="patch_12">
    <path d="M 168.388437 126.705994 
L 178.468438 126.705994 
Q 178.756438 126.705994 178.756438 126.420468 
L 178.756438 112.236952 
Q 178.756438 111.951426 178.468438 111.951426 
L 168.388437 111.951426 
Q 168.100437 111.951426 168.100437 112.236952 
L 168.100437 126.420468 
Q 168.100437 126.705994 168.388437 126.705994 
z
" clip-path="url(#pb36fbe092c)" style="fill: #ef4444; stroke: #ef4444; stroke-linejoin: miter"/>
   </g>
   <g id="patch_13">
    <path d="M 182.788437 122.583477 
L 192.868437 122.583477 
Q 193.156438 122.583477 193.156438 122.297951 
L 193.156438 94.823901 
Q 193.156438 94.538375 192.868437 94.538375 
L 182.788437 94.538375 
Q 182.500438 94.538375 182.500438 94.823901 
L 182.500438 122.297951 
Q 182.500438 122.583477 182.788437 122.583477 
z
" clip-path="url(#pb36fbe092c)" style="fill: #22c55e; stroke: #22c55e; stroke-linejoin: miter"/>
   </g>
   <g id="patch_14">
    <path d="M 197.188437 142.613902 
L 207.268438 142.613902 
Q 207.556438 142.613902 207.556438 142.328375 
L 207.556438 125.255861 
Q 207.556438 124.970335 207.268438 124.970335 
L 197.188437 124.970335 
Q 196.900438 124.970335 196.900438 125.255861 
L 196.900438 142.328375 
Q 196.900438 142.613902 197.188437 142.613902 
z
" clip-path="url(#pb36fbe092c)" style="fill: #22c55e; stroke: #22c55e; stroke-linejoin: miter"/>
   </g>
   <g id="patch_15">
    <path d="M 211.588437 161.196092 
L 221.668438 161.196092 
Q 221.956437 161.196092 221.956437 160.910566 
L 221.956437 140.523129 
Q 221.956437 140.237602 221.668438 140.237602 
L 211.588437 140.237602 
Q 211.300438 140.237602 211.300438 140.523129 
L 211.300438 160.910566 
Q 211.300438 161.196092 211.588437 161.196092 
z
" clip-path="url(#pb36fbe092c)" style="fill: #ef4444; stroke: #ef4444; stroke-linejoin: miter"/>
   </g>
   <g id="patch_16">
    <path d="M 225.988438 168.328889 
L 236.068438 168.328889 
Q 236.356437 168.328889 236.356437 168.043362 
L 236.356437 158.687164 
Q 236.356437 158.401638 236.068438 158.401638 
L 225.988438 158.401638 
Q 225.700437 158.401638 225.700437 158.687164 
L 225.700437 168.043362 
Q 225.700437 168.328889 225.988438 168.328889 
z
" clip-path="url(#pb36fbe092c)" style="fill: #22c55e; stroke: #22c55e; stroke-linejoin: miter"/>
   </g>
   <g id="patch_17">
    <path d="M 240.388437 162.567454 
L 250.468437 162.567454 
Q 250.756438 162.567454 250.756438 162.281928 
L 250.756438 142.612723 
Q 250.756438 142.327196 250.468437 142.327196 
L 240.388437 142.327196 
Q 240.100437 142.327196 240.100437 142.612723 
L 240.100437 162.281928 
Q 240.100437 162.567454 240.388437 162.567454 
z
" clip-path="url(#pb36fbe092c)" style="fill: #ef4444; stroke: #ef4444; stroke-linejoin: miter"/>
   </g>
   <g id="patch_18">
    <path d="M 254.788437 169.370135 
L 264.868437 169.370135 
Q 265.156437 169.370135 265.156437 169.084609 
L 265.156437 160.365426 
Q 265.156437 160.079899 264.868437 160.079899 
L 254.788437 160.079899 
Q 254.500438 160.079899 254.500438 160.365426 
L 254.500438 169.084609 
Q 254.500438 169.370135 254.788437 169.370135 
z
" clip-path="url(#pb36fbe092c)" style="fill: #ef4444; stroke: #ef4444; stroke-linejoin: miter"/>
   </g>
   <g id="patch_19">
    <path d="M 269.188437 132.804182 
L 279.268438 132.804182 
Q 279.556437 132.804182 279.556437 132.518656 
L 279.556437 123.254085 
Q 279.556437 122.968559 279.268438 122.968559 
L 269.188437 122.968559 
Q 268.900438 122.968559 268.900438 123.254085 
L 268.900438 132.518656 
Q 268.900438 132.804182 269.188437 132.804182 
z
" clip-path="url(#pb36fbe092c)" style="fill: #22c55e; stroke: #22c55e; stroke-linejoin: miter"/>
   </g>
   <g id="patch_20">
    <path d="M 283.588437 132.547211 
L 293.668437 132.547211 
Q 293.956437 132.547211 293.956437 132.261684 
L 293.956437 114.369163 
Q 293.956437 114.083636 293.668437 114.083636 
L 283.588437 114.083636 
Q 283.300437 114.083636 283.300437 114.369163 
L 283.300437 132.261684 
Q 283.300437 132.547211 283.588437 132.547211 
z
" clip-path="url(#pb36fbe092c)" style="fill: #22c55e; stroke: #22c55e; stroke-linejoin: miter"/>
   </g>
   <g id="patch_21">
    <path d="M 297.988437 137.565954 
L 308.068437 137.565954 
Q 308.356437 137.565954 308.356437 137.280427 
L 308.356437 132.987618 
Q 308.356437 132.702092 308.068437 132.702092 
L 297.988437 132.702092 
Q 297.700437 132.702092 297.700437 132.987618 
L 297.700437 137.280427 
Q 297.700437 137.565954 297.988437 137.565954 
z
" clip-path="url(#pb36fbe092c)" style="fill: #22c55e; stroke: #22c55e; stroke-linejoin: miter"/>
   </g>
   <g id="patch_22">
    <path d="M 312.388437 126.706444 
L 322.468437 126.706444 
Q 322.756437 126.706444 322.756437 126.420918 
L 322.756437 102.62498 
Q 322.756437 102.339453 322.468437 102.339453 
L 312.388437 102.339453 
Q 312.100437 102.339453 312.100437 102.62498 
L 312.100437 126.420918 
Q 312.100437 126.706444 312.388437 126.706444 
z
" clip-path="url(#pb36fbe092c)" style="fill: #ef4444; stroke: #ef4444; stroke-linejoin: miter"/>
   </g>
   <g id="patch_23">
    <path d="M 326.788437 120.449846 
L 336.868437 120.449846 
Q 337.156437 120.449846 337.156437 120.16432 
L 337.156437 104.358988 
Q 337.156437 104.073462 336.868437 104.073462 
L 326.788437 104.073462 
Q 326.500437 104.073462 326.500437 104.358988 
L 326.500437 120.16432 
Q 326.500437 120.449846 326.788437 120.449846 
z
" clip-path="url(#pb36fbe092c)" style="fill: #ef4444; stroke: #ef4444; stroke-linejoin: miter"/>
   </g>
   <g id="patch_24">
    <path d="M 341.188437 91.782653 
L 351.268437 91.782653 
Q 351.556437 91.782653 351.556437 91.497127 
L 351.556437 80.174857 
Q 351.556437 79.889331 351.268437 79.889331 
L 341.188437 79.889331 
Q 340.900437 79.889331 340.900437 80.174857 
L 340.900437 91.497127 
Q 340.900437 91.782653 341.188437 91.782653 
z
" clip-path="url(#pb36fbe092c)" style="fill: #22c55e; stroke: #22c55e; stroke-linejoin: miter"/>
   </g>
   <g id="patch_25">
    <path d="M 355.588437 90.947356 
L 365.668437 90.947356 
Q 365.956437 90.947356 365.956437 90.66183 
L 365.956437 76.458838 
Q 365.956437 76.173311 365.668437 76.173311 
L 355.588437 76.173311 
Q 355.300437 76.173311 355.300437 76.458838 
L 355.300437 90.66183 
Q 355.300437 90.947356 355.588437 90.947356 
z
" clip-path="url(#pb36fbe092c)" style="fill: #ef4444; stroke: #ef4444; stroke-linejoin: miter"/>
   </g>
   <g id="patch_26">
    <path d="M 369.988437 78.538996 
L 380.068437 78.538996 
Q 380.356437 78.538996 380.356437 78.25347 
L 380.356437 66.268398 
Q 380.356437 65.982872 380.068437 65.982872 
L 369.988437 65.982872 
Q 369.700437 65.982872 369.700437 66.268398 
L 369.700437 78.25347 
Q 369.700437 78.538996 369.988437 78.538996 
z
" clip-path="url(#pb36fbe092c)" style="fill: #ef4444; stroke: #ef4444; stroke-linejoin: miter"/>
   </g>
   <g id="patch_27">
    <path d="M 384.388437 90.525197 
L 394.468437 90.525197 
Q 394.756437 90.525197 394.756437 90.239671 
L 394.756437 63.931035 
Q 394.756437 63.645509 394.468437 63.645509 
L 384.388437 63.645509 
Q 384.100437 63.645509 384.100437 63.931035 
L 384.100437 90.239671 
Q 384.100437 90.525197 384.388437 90.525197 
z
" clip-path="url(#pb36fbe092c)" style="fill: #ef4444; stroke: #ef4444; stroke-linejoin: miter"/>
   </g>
   <g id="patch_28">
    <path d="M 398.788437 89.0304 
L 408.868437 89.0304 
Q 409.156437 89.0304 409.156437 88.744874 
L 409.156437 69.79162 
Q 409.156437 69.506093 408.868437 69.506093 
L 398.788437 69.506093 
Q 398.500437 69.506093 398.500437 69.79162 
L 398.500437 88.744874 
Q 398.500437 89.0304 398.788437 89.0304 
z
" clip-path="url(#pb36fbe092c)" style="fill: #22c55e; stroke: #22c55e; stroke-linejoin: miter"/>
   </g>
   <g id="patch_29">
    <path d="M 413.188437 87.654895 
L 423.268437 87.654895 
Q 423.556437 87.654895 423.556437 87.369369 
L 423.556437 59.101362 
Q 423.556437 58.815836 423.268437 58.815836 
L 413.188437 58.815836 
Q 412.900437 58.815836 412.900437 59.101362 
L 412.900437 87.369369 
Q 412.900437 87.654895 413.188437 87.654895 
z
" clip-path="url(#pb36fbe092c)" style="fill: #22c55e; stroke: #22c55e; stroke-linejoin: miter"/>
   </g>
   <g id="patch_30">
    <path d="M 427.588437 73.652616 
L 437.668437 73.652616 
Q 437.956437 73.652616 437.956437 73.36709 
L 437.956437 48.243111 
Q 437.956437 47.957585 437.668437 47.957585 
L 427.588437 47.957585 
Q 427.300437 47.957585 427.300437 48.243111 
L 427.300437 73.36709 
Q 427.300437 73.652616 427.588437 73.652616 
z
" clip-path="url(#pb36fbe092c)" style="fill: #ef4444; stroke: #ef4444; stroke-linejoin: miter"/>
   </g>
   <g id="patch_31">
    <path d="M 441.988437 77.159535 
L 452.068437 77.159535 
Q 452.356437 77.159535 452.356437 76.874009 
L 452.356437 51.594485 
Q 452.356437 51.308959 452.068437 51.308959 
L 441.988437 51.308959 
Q 441.700437 51.308959 441.700437 51.594485 
L 441.700437 76.874009 
Q 441.700437 77.159535 441.988437 77.159535 
z
" clip-path="url(#pb36fbe092c)" style="fill: #ef4444; stroke: #ef4444; stroke-linejoin: miter"/>
   </g>
   <g id="patch_32">
    <path d="M 456.388437 86.157954 
L 466.468437 86.157954 
Q 466.756437 86.157954 466.756437 85.872428 
L 466.756437 69.735281 
Q 466.756437 69.449754 466.468437 69.449754 
L 456.388437 69.449754 
Q 456.100437 69.449754 456.100437 69.735281 
L 456.100437 85.872428 
Q 456.100437 86.157954 456.388437 86.157954 
z
" clip-path="url(#pb36fbe092c)" style="fill: #22c55e; stroke: #22c55e; stroke-linejoin: miter"/>
   </g>
   <g id="matplotlib.axis_1">
    <g id="xtick_1">
     <g id="line2d_1">
      <path d="M 43.828437 187.061852 
L 43.828437 24.798438 
" clip-path="url(#pb36fbe092c)" style="fill: none; stroke: #374151; stroke-opacity: 0.1; stroke-width: 0.8; stroke-linecap: square"/>
     </g>
     <g id="line2d_2">
      <defs>
       <path id="m2aa50173bd" d="M 0 0 
L 0 3.5 
" style="stroke: #4b5563; stroke-width: 0.8"/>
      </defs>
      <g>
       <use xlink:href="#m2aa50173bd" x="43.828437" y="187.061852" style="fill: #4b5563; stroke: #4b5563; stroke-width: 0.8"/>
      </g>
     </g>
    </g>
    <g id="xtick_2">
     <g id="line2d_3">
      <path d="M 115.828438 187.061852 
L 115.828438 24.798438 
" clip-path="url(#pb36fbe092c)" style="fill: none; stroke: #374151; stroke-opacity: 0.1; stroke-width: 0.8; stroke-linecap: square"/>
     </g>
     <g id="line2d_4">
      <g>
       <use xlink:href="#m2aa50173bd" x="115.828438" y="187.061852" style="fill: #4b5563; stroke: #4b5563; stroke-width: 0.8"/>
      </g>
     </g>
    </g>
    <g id="xtick_3">
     <g id="line2d_5">
      <path d="M 187.828438 187.061852 
L 187.828438 24.798438 
" clip-path="url(#pb36fbe092c)" style="fill: none; stroke: #374151; stroke-opacity: 0.1; stroke-width: 0.8; stroke-linecap: square"/>
     </g>
     <g id="line2d_6">
      <g>
       <use xlink:href="#m2aa50173bd" x="187.828438" y="187.061852" style="fill: #4b5563; stroke: #4b5563; stroke-width: 0.8"/>
      </g>
     </g>
    </g>
    <g id="xtick_4">
     <g id="line2d_7">
      <path d="M 259.828437 187.061852 
L 259.828437 24.798438 
" clip-path="url(#pb36fbe092c)" style="fill: none; stroke: #374151; stroke-opacity: 0.1; stroke-width: 0.8; stroke-linecap: square"/>
     </g>
     <g id="line2d_8">
      <g>
       <use xlink:href="#m2aa50173bd" x="259.828437" y="187.061852" style="fill: #4b5563; stroke: #4b5563; stroke-width: 0.8"/>
      </g>
     </g>
    </g>
    <g id="xtick_5">
     <g id="line2d_9">
      <path d="M 331.828438 187.061852 
L 331.828438 24.798438 
" clip-path="url(#pb36fbe092c)" style="fill: none; stroke: #374151; stroke-opacity: 0.1; stroke-width: 0.8; stroke-linecap: square"/>
     </g>
     <g id="line2d_10">
      <g>
       <use xlink:href="#m2aa50173bd" x="331.828438" y="187.061852" style="fill: #4b5563; stroke: #4b5563; stroke-width: 0.8"/>
      </g>
     </g>
    </g>
    <g id="xtick_6">
     <g id="line2d_11">
      <path d="M 403.828437 187.061852 
L 403.828437 24.798438 
" clip-path="url(#pb36fbe092c)" style="fill: none; stroke: #374151; stroke-opacity: 0.1; stroke-width: 0.8; stroke-linecap: square"/>
     </g>
     <g id="line2d_12">
      <g>
       <use xlink:href="#m2aa50173bd" x="403.828437" y="187.061852" style="fill: #4b5563; stroke: #4b5563; stroke-width: 0.8"/>
      </g>
     </g>
    </g>
    <g id="xtick_7">
     <g id="line2d_13">
      <path d="M 475.828437 187.061852 
L 475.828437 24.798438 
" clip-path="url(#pb36fbe092c)" style="fill: none; stroke: #374151; stroke-opacity: 0.1; stroke-width: 0.8; stroke-linecap: square"/>
     </g>
     <g id="line2d_14">
      <g>
       <use xlink:href="#m2aa50173bd" x="475.828437" y="187.061852" style="fill: #4b5563; stroke: #4b5563; stroke-width: 0.8"/>
      </g>
     </g>
    </g>
   </g>
   <g id="matplotlib.axis_2">
    <g id="ytick_1">
     <g id="line2d_15">
      <path d="M 29.428438 168.38242 
L 475.828437 168.38242 
" clip-path="url(#pb36fbe092c)" style="fill: none; stroke: #374151; stroke-opacity: 0.1; stroke-width: 0.8; stroke-linecap: square"/>
     </g>
     <g id="line2d_16">
      <defs>
       <path id="m7aa0851380" d="M 0 0 
L -3.5 0 
" style="stroke: #4b5563; stroke-width: 0.8"/>
      </defs>
      <g>
       <use xlink:href="#m7aa0851380" x="29.428438" y="168.38242" style="fill: #4b5563; stroke: #4b5563; stroke-width: 0.8"/>
      </g>
     </g>
     <g id="text_1">
      <!-- 94 -->
      <g style="fill: #4b5563" transform="translate(13.520938 171.041873) scale(0.07 -0.07)">
       <defs>
        <path id="DejaVuSans-39" d="M 703 97 
L 703 672 
Q 941 559 1184 500 
Q 1428 441 1663 441 
Q 2288 441 2617 861 
Q 2947 1281 2994 2138 
Q 2813 1869 2534 1725 
Q 2256 1581 1919 1581 
Q 1219 1581 811 2004 
Q 403 2428 403 3163 
Q 403 3881 828 4315 
Q 1253 4750 1959 4750 
Q 2769 4750 3195 4129 
Q 3622 3509 3622 2328 
Q 3622 1225 3098 567 
Q 2575 -91 1691 -91 
Q 1453 -91 1209 -44 
Q 966 3 703 97 
z
M 1959 2075 
Q 2384 2075 2632 2365 
Q 2881 2656 2881 3163 
Q 2881 3666 2632 3958 
Q 2384 4250 1959 4250 
Q 1534 4250 1286 3958 
Q 1038 3666 1038 3163 
Q 1038 2656 1286 2365 
Q 1534 2075 1959 2075 
z
" transform="scale(0.015625)"/>
        <path id="DejaVuSans-34" d="M 2419 4116 
L 825 1625 
L 2419 1625 
L 2419 4116 
z
M 2253 4666 
L 3047 4666 
L 3047 1625 
L 3713 1625 
L 3713 1100 
L 3047 1100 
L 3047 0 
L 2419 0 
L 2419 1100 
L 313 1100 
L 313 1709 
L 2253 4666 
z
" transform="scale(0.015625)"/>
       </defs>
       <use xlink:href="#DejaVuSans-39"/>
       <use xlink:href="#DejaVuSans-34" transform="translate(63.623047 0)"/>
      </g>
     </g>
    </g>
    <g id="ytick_2">
     <g id="line2d_17">
      <path d="M 29.428438 139.829791 
L 475.828437 139.829791 
" clip-path="url(#pb36fbe092c)" style="fill: none; stroke: #374151; stroke-opacity: 0.1; stroke-width: 0.8; stroke-linecap: square"/>
     </g>
     <g id="line2d_18">
      <g>
       <use xlink:href="#m7aa0851380" x="29.428438" y="139.829791" style="fill: #4b5563; stroke: #4b5563; stroke-width: 0.8"/>
      </g>
     </g>
     <g id="text_2">
      <!-- 96 -->
      <g style="fill: #4b5563" transform="translate(13.520938 142.489244) scale(0.07 -0.07)">
       <defs>
        <path id="DejaVuSans-36" d="M 2113 2584 
Q 1688 2584 1439 2293 
Q 1191 2003 1191 1497 
Q 1191 994 1439 701 
Q 1688 409 2113 409 
Q 2538 409 2786 701 
Q 3034 994 3034 1497 
Q 3034 2003 2786 2293 
Q 2538 2584 2113 2584 
z
M 3366 4563 
L 3366 3988 
Q 3128 4100 2886 4159 
Q 2644 4219 2406 4219 
Q 1781 4219 1451 3797 
Q 1122 3375 1075 2522 
Q 1259 2794 1537 2939 
Q 1816 3084 2150 3084 
Q 2853 3084 3261 2657 
Q 3669 2231 3669 1497 
Q 3669 778 3244 343 
Q 2819 -91 2113 -91 
Q 1303 -91 875 529 
Q 447 1150 447 2328 
Q 447 3434 972 4092 
Q 1497 4750 2381 4750 
Q 2619 4750 2861 4703 
Q 3103 4656 3366 4563 
z
" transform="scale(0.015625)"/>
       </defs>
       <use xlink:href="#DejaVuSans-39"/>
       <use xlink:href="#DejaVuSans-36" transform="translate(63.623047 0)"/>
      </g>
     </g>
    </g>
    <g id="ytick_3">
     <g id="line2d_19">
      <path d="M 29.428438 111.277162 
L 475.828437 111.277162 
" clip-path="url(#pb36fbe092c)" style="fill: none; stroke: #374151; stroke-opacity: 0.1; stroke-width: 0.8; stroke-linecap: square"/>
     </g>
     <g id="line2d_20">
      <g>
       <use xlink:href="#m7aa0851380" x="29.428438" y="111.277162" style="fill: #4b5563; stroke: #4b5563; stroke-width: 0.8"/>
      </g>
     </g>
     <g id="text_3">
      <!-- 98 -->
      <g style="fill: #4b5563" transform="translate(13.520938 113.936615) scale(0.07 -0.07)">
       <defs>
        <path id="DejaVuSans-38" d="M 2034 2216 
Q 1584 2216 1326 1975 
Q 1069 1734 1069 1313 
Q 1069 891 1326 650 
Q 1584 409 2034 409 
Q 2484 409 2743 651 
Q 3003 894 3003 1313 
Q 3003 1734 2745 1975 
Q 2488 2216 2034 2216 
z
M 1403 2484 
Q 997 2584 770 2862 
Q 544 3141 544 3541 
Q 544 4100 942 4425 
Q 1341 4750 2034 4750 
Q 2731 4750 3128 4425 
Q 3525 4100 3525 3541 
Q 3525 3141 3298 2862 
Q 3072 2584 2669 2484 
Q 3125 2378 3379 2068 
Q 3634 1759 3634 1313 
Q 3634 634 3220 271 
Q 2806 -91 2034 -91 
Q 1263 -91 848 271 
Q 434 634 434 1313 
Q 434 1759 690 2068 
Q 947 2378 1403 2484 
z
M 1172 3481 
Q 1172 3119 1398 2916 
Q 1625 2713 2034 2713 
Q 2441 2713 2670 2916 
Q 2900 3119 2900 3481 
Q 2900 3844 2670 4047 
Q 2441 4250 2034 4250 
Q 1625 4250 1398 4047 
Q 1172 3844 1172 3481 
z
" transform="scale(0.015625)"/>
       </defs>
       <use xlink:href="#DejaVuSans-39"/>
       <use xlink:href="#DejaVuSans-38" transform="translate(63.623047 0)"/>
      </g>
     </g>
    </g>
    <g id="ytick_4">
     <g id="line2d_21">
      <path d="M 29.428438 82.724533 
L 475.828437 82.724533 
" clip-path="url(#pb36fbe092c)" style="fill: none; stroke: #374151; stroke-opacity: 0.1; stroke-width: 0.8; stroke-linecap: square"/>
     </g>
     <g id="line2d_22">
      <g>
       <use xlink:href="#m7aa0851380" x="29.428438" y="82.724533" style="fill: #4b5563; stroke: #4b5563; stroke-width: 0.8"/>
      </g>
     </g>
     <g id="text_4">
      <!-- 100 -->
      <g style="fill: #4b5563" transform="translate(9.067187 85.383986) scale(0.07 -0.07)">
       <defs>
        <path id="DejaVuSans-31" d="M 794 531 
L 1825 531 
L 1825 4091 
L 703 3866 
L 703 4441 
L 1819 4666 
L 2450 4666 
L 2450 531 
L 3481 531 
L 3481 0 
L 794 0 
L 794 531 
z
" transform="scale(0.015625)"/>
        <path id="DejaVuSans-30" d="M 2034 4250 
Q 1547 4250 1301 3770 
Q 1056 3291 1056 2328 
Q 1056 1369 1301 889 
Q 1547 409 2034 409 
Q 2525 409 2770 889 
Q 3016 1369 3016 2328 
Q 3016 3291 2770 3770 
Q 2525 4250 2034 4250 
z
M 2034 4750 
Q 2819 4750 3233 4129 
Q 3647 3509 3647 2328 
Q 3647 1150 3233 529 
Q 2819 -91 2034 -91 
Q 1250 -91 836 529 
Q 422 1150 422 2328 
Q 422 3509 836 4129 
Q 1250 4750 2034 4750 
z
" transform="scale(0.015625)"/>
       </defs>
       <use xlink:href="#DejaVuSans-31"/>
       <use xlink:href="#DejaVuSans-30" transform="translate(63.623047 0)"/>
       <use xlink:href="#DejaVuSans-30" transform="translate(127.246094 0)"/>
      </g>
     </g>
    </g>
    <g id="ytick_5">
     <g id="line2d_23">
      <path d="M 29.428438 54.171904 
L 475.828437 54.171904 
" clip-path="url(#pb36fbe092c)" style="fill: none; stroke: #374151; stroke-opacity: 0.1; stroke-width: 0.8; stroke-linecap: square"/>
     </g>
     <g id="line2d_24">
      <g>
       <use xlink:href="#m7aa0851380" x="29.428438" y="54.171904" style="fill: #4b5563; stroke: #4b5563; stroke-width: 0.8"/>
      </g>
     </g>
     <g id="text_5">
      <!-- 102 -->
      <g style="fill: #4b5563" transform="translate(9.067187 56.831357) scale(0.07 -0.07)">
       <defs>
        <path id="DejaVuSans-32" d="M 1228 531 
L 3431 531 
L 3431 0 
L 469 0 
L 469 531 
Q 828 903 1448 1529 
Q 2069 2156 2228 2338 
Q 2531 2678 2651 2914 
Q 2772 3150 2772 3378 
Q 2772 3750 2511 3984 
Q 2250 4219 1831 4219 
Q 1534 4219 1204 4116 
Q 875 4013 500 3803 
L 500 4441 
Q 881 4594 1212 4672 
Q 1544 4750 1819 4750 
Q 2544 4750 2975 4387 
Q 3406 4025 3406 3419 
Q 3406 3131 3298 2873 
Q 3191 2616 2906 2266 
Q 2828 2175 2409 1742 
Q 1991 1309 1228 531 
z
" transform="scale(0.015625)"/>
       </defs>
       <use xlink:href="#DejaVuSans-31"/>
       <use xlink:href="#DejaVuSans-30" transform="translate(63.623047 0)"/>
       <use xlink:href="#DejaVuSans-32" transform="translate(127.246094 0)"/>
      </g>
     </g>
    </g>
    <g id="ytick_6">
     <g id="line2d_25">
      <path d="M 29.428438 25.619275 
L 475.828437 25.619275 
" clip-path="url(#pb36fbe092c)" style="fill: none; stroke: #374151; stroke-opacity: 0.1; stroke-width: 0.8; stroke-linecap: square"/>
     </g>
     <g id="line2d_26">
      <g>
       <use xlink:href="#m7aa0851380" x="29.428438" y="25.619275" style="fill: #4b5563; stroke: #4b5563; stroke-width: 0.8"/>
      </g>
     </g>
     <g id="text_6">
      <!-- 104 -->
      <g style="fill: #4b5563" transform="translate(9.067187 28.278728) scale(0.07 -0.07)">
       <use xlink:href="#DejaVuSans-31"/>
       <use xlink:href="#DejaVuSans-30" transform="translate(63.623047 0)"/>
       <use xlink:href="#DejaVuSans-34" transform="translate(127.246094 0)"/>
      </g>
     </g>
    </g>
   </g>
   <g id="line2d_27">
    <path d="M 43.828437 116.887234 
L 43.828437 54.345977 
" clip-path="url(#pb36fbe092c)" style="fill: none; stroke: #ef4444; stroke-width: 0.8; stroke-linecap: square"/>
   </g>
   <g id="line2d_28">
    <path d="M 58.228437 85.974808 
L 58.228437 51.29112 
" clip-path="url(#pb36fbe092c)" style="fill: none; stroke: #ef4444; stroke-width: 0.8; stroke-linecap: square"/>
   </g>
   <g id="line2d_29">
    <path d="M 72.628437 102.455462 
L 72.628437 47.82466 
" clip-path="url(#pb36fbe092c)" style="fill: none; stroke: #22c55e; stroke-width: 0.8; stroke-linecap: square"/>
   </g>
   <g id="line2d_30">
    <path d="M 87.028437 116.048973 
L 87.028437 85.950207 
" clip-path="url(#pb36fbe092c)" style="fill: none; stroke: #ef4444; stroke-width: 0.8; stroke-linecap: square"/>
   </g>
   <g id="line2d_31">
    <path d="M 101.428438 93.694685 
L 101.428438 70.160571 
" clip-path="url(#pb36fbe092c)" style="fill: none; stroke: #22c55e; stroke-width: 0.8; stroke-linecap: square"/>
   </g>
   <g id="line2d_32">
    <path d="M 115.828438 94.221601 
L 115.828438 68.098857 
" clip-path="url(#pb36fbe092c)" style="fill: none; stroke: #22c55e; stroke-width: 0.8; stroke-linecap: square"/>
   </g>
   <g id="line2d_33">
    <path d="M 130.228437 100.401187 
L 130.228437 53.059645 
" clip-path="url(#pb36fbe092c)" style="fill: none; stroke: #ef4444; stroke-width: 0.8; stroke-linecap: square"/>
   </g>
   <g id="line2d_34">
    <path d="M 144.628437 108.703878 
L 144.628437 69.500152 
" clip-path="url(#pb36fbe092c)" style="fill: none; stroke: #22c55e; stroke-width: 0.8; stroke-linecap: square"/>
   </g>
   <g id="line2d_35">
    <path d="M 159.028437 147.642322 
L 159.028437 106.965376 
" clip-path="url(#pb36fbe092c)" style="fill: none; stroke: #22c55e; stroke-width: 0.8; stroke-linecap: square"/>
   </g>
   <g id="line2d_36">
    <path d="M 173.428438 129.081594 
L 173.428438 103.224302 
" clip-path="url(#pb36fbe092c)" style="fill: none; stroke: #ef4444; stroke-width: 0.8; stroke-linecap: square"/>
   </g>
   <g id="line2d_37">
    <path d="M 187.828438 126.696003 
L 187.828438 86.62196 
" clip-path="url(#pb36fbe092c)" style="fill: none; stroke: #22c55e; stroke-width: 0.8; stroke-linecap: square"/>
   </g>
   <g id="line2d_38">
    <path d="M 202.228437 149.314635 
L 202.228437 114.520477 
" clip-path="url(#pb36fbe092c)" style="fill: none; stroke: #22c55e; stroke-width: 0.8; stroke-linecap: square"/>
   </g>
   <g id="line2d_39">
    <path d="M 216.628437 175.101362 
L 216.628437 131.673343 
" clip-path="url(#pb36fbe092c)" style="fill: none; stroke: #ef4444; stroke-width: 0.8; stroke-linecap: square"/>
   </g>
   <g id="line2d_40">
    <path d="M 231.028437 179.686242 
L 231.028437 154.242404 
" clip-path="url(#pb36fbe092c)" style="fill: none; stroke: #22c55e; stroke-width: 0.8; stroke-linecap: square"/>
   </g>
   <g id="line2d_41">
    <path d="M 245.428437 171.7933 
L 245.428437 140.523968 
" clip-path="url(#pb36fbe092c)" style="fill: none; stroke: #ef4444; stroke-width: 0.8; stroke-linecap: square"/>
   </g>
   <g id="line2d_42">
    <path d="M 259.828437 178.589317 
L 259.828437 145.410333 
" clip-path="url(#pb36fbe092c)" style="fill: none; stroke: #ef4444; stroke-width: 0.8; stroke-linecap: square"/>
   </g>
   <g id="line2d_43">
    <path d="M 274.228437 137.175428 
L 274.228437 106.847012 
" clip-path="url(#pb36fbe092c)" style="fill: none; stroke: #22c55e; stroke-width: 0.8; stroke-linecap: square"/>
   </g>
   <g id="line2d_44">
    <path d="M 288.628437 139.145027 
L 288.628437 109.557694 
" clip-path="url(#pb36fbe092c)" style="fill: none; stroke: #22c55e; stroke-width: 0.8; stroke-linecap: square"/>
   </g>
   <g id="line2d_45">
    <path d="M 303.028437 149.6845 
L 303.028437 113.424463 
" clip-path="url(#pb36fbe092c)" style="fill: none; stroke: #22c55e; stroke-width: 0.8; stroke-linecap: square"/>
   </g>
   <g id="line2d_46">
    <path d="M 317.428437 135.671723 
L 317.428437 89.34074 
" clip-path="url(#pb36fbe092c)" style="fill: none; stroke: #ef4444; stroke-width: 0.8; stroke-linecap: square"/>
   </g>
   <g id="line2d_47">
    <path d="M 331.828438 141.106271 
L 331.828438 89.683035 
" clip-path="url(#pb36fbe092c)" style="fill: none; stroke: #ef4444; stroke-width: 0.8; stroke-linecap: square"/>
   </g>
   <g id="line2d_48">
    <path d="M 346.228437 102.289588 
L 346.228437 76.251388 
" clip-path="url(#pb36fbe092c)" style="fill: none; stroke: #22c55e; stroke-width: 0.8; stroke-linecap: square"/>
   </g>
   <g id="line2d_49">
    <path d="M 360.628437 101.720911 
L 360.628437 71.83608 
" clip-path="url(#pb36fbe092c)" style="fill: none; stroke: #ef4444; stroke-width: 0.8; stroke-linecap: square"/>
   </g>
   <g id="line2d_50">
    <path d="M 375.028437 86.997926 
L 375.028437 60.916646 
" clip-path="url(#pb36fbe092c)" style="fill: none; stroke: #ef4444; stroke-width: 0.8; stroke-linecap: square"/>
   </g>
   <g id="line2d_51">
    <path d="M 389.428437 97.000214 
L 389.428437 56.585526 
" clip-path="url(#pb36fbe092c)" style="fill: none; stroke: #ef4444; stroke-width: 0.8; stroke-linecap: square"/>
   </g>
   <g id="line2d_52">
    <path d="M 403.828437 108.281195 
L 403.828437 53.836872 
" clip-path="url(#pb36fbe092c)" style="fill: none; stroke: #22c55e; stroke-width: 0.8; stroke-linecap: square"/>
   </g>
   <g id="line2d_53">
    <path d="M 418.228437 108.568478 
L 418.228437 43.40858 
" clip-path="url(#pb36fbe092c)" style="fill: none; stroke: #22c55e; stroke-width: 0.8; stroke-linecap: square"/>
   </g>
   <g id="line2d_54">
    <path d="M 432.628437 83.154919 
L 432.628437 32.174047 
" clip-path="url(#pb36fbe092c)" style="fill: none; stroke: #ef4444; stroke-width: 0.8; stroke-linecap: square"/>
   </g>
   <g id="line2d_55">
    <path d="M 447.028437 84.245394 
L 447.028437 33.981881 
" clip-path="url(#pb36fbe092c)" style="fill: none; stroke: #ef4444; stroke-width: 0.8; stroke-linecap: square"/>
   </g>
   <g id="line2d_56">
    <path d="M 461.428437 89.410554 
L 461.428437 48.878444 
" clip-path="url(#pb36fbe092c)" style="fill: none; stroke: #22c55e; stroke-width: 0.8; stroke-linecap: square"/>
   </g>
   <g id="patch_33">
    <path d="M 29.428438 187.061852 
L 29.428438 24.798437 
" style="fill: none; stroke: #1f2937; stroke-width: 0.8; stroke-linejoin: miter; stroke-linecap: square"/>
   </g>
   <g id="patch_34">
    <path d="M 29.428438 187.061852 
L 475.828437 187.061852 
" style="fill: none; stroke: #1f2937; stroke-width: 0.8; stroke-linejoin: miter; stroke-linecap: square"/>
   </g>
   <g id="text_7">
    <!-- Falling Wedge — MSFT 1H -->
    <g style="fill: #ffffff" transform="translate(179.54875 14.798438) scale(0.1 -0.1)">
     <defs>
      <path id="DejaVuSans-Bold-46" d="M 588 4666 
L 3834 4666 
L 3834 3756 
L 1791 3756 
L 1791 2888 
L 3713 2888 
L 3713 1978 
L 1791 1978 
L 1791 0 
L 588 0 
L 588 4666 
z
" transform="scale(0.015625)"/>
      <path id="DejaVuSans-Bold-61" d="M 2106 1575 
Q 1756 1575 1579 1456 
Q 1403 1338 1403 1106 
Q 1403 894 1545 773 
Q 1688 653 1941 653 
Q 2256 653 2472 879 
Q 2688 1106 2688 1447 
L 2688 1575 
L 2106 1575 
z
M 3816 1997 
L 3816 0 
L 2688 0 
L 2688 519 
Q 2463 200 2181 54 
Q 1900 -91 1497 -91 
Q 953 -91 614 226 
Q 275 544 275 1050 
Q 275 1666 698 1953 
Q 1122 2241 2028 2241 
L 2688 2241 
L 2688 2328 
Q 2688 2594 2478 2717 
Q 2269 2841 1825 2841 
Q 1466 2841 1156 2769 
Q 847 2697 581 2553 
L 581 3406 
Q 941 3494 1303 3539 
Q 1666 3584 2028 3584 
Q 2975 3584 3395 3211 
Q 3816 2838 3816 1997 
z
" transform="scale(0.015625)"/>
      <path id="DejaVuSans-Bold-6c" d="M 538 4863 
L 1656 4863 
L 1656 0 
L 538 0 
L 538 4863 
z
" transform="scale(0.015625)"/>
      <path id="DejaVuSans-Bold-69" d="M 538 3500 
L 1656 3500 
L 1656 0 
L 538 0 
L 538 3500 
z
M 538 4863 
L 1656 4863 
L 1656 3950 
L 538 3950 
L 538 4863 
z
" transform="scale(0.015625)"/>
      <path id="DejaVuSans-Bold-6e" d="M 4056 2131 
L 4056 0 
L 2931 0 
L 2931 347 
L 2931 1631 
Q 2931 2084 2911 2256 
Q 2891 2428 2841 2509 
Q 2775 2619 2662 2680 
Q 2550 2741 2406 2741 
Q 2056 2741 1856 2470 
Q 1656 2200 1656 1722 
L 1656 0 
L 538 0 
L 538 3500 
L 1656 3500 
L 1656 2988 
Q 1909 3294 2193 3439 
Q 2478 3584 2822 3584 
Q 3428 3584 3742 3212 
Q 4056 2841 4056 2131 
z
" transform="scale(0.015625)"/>
      <path id="DejaVuSans-Bold-67" d="M 2919 594 
Q 2688 288 2409 144 
Q 2131 0 1766 0 
Q 1125 0 706 504 
Q 288 1009 288 1791 
Q 288 2575 706 3076 
Q 1125 3578 1766 3578 
Q 2131 3578 2409 3434 
Q 2688 3291 2919 2981 
L 2919 3500 
L 4044 3500 
L 4044 353 
Q 4044 -491 3511 -936 
Q 2978 -1381 1966 -1381 
Q 1638 -1381 1331 -1331 
Q 1025 -1281 716 -1178 
L 716 -306 
Q 1009 -475 1290 -558 
Q 1572 -641 1856 -641 
Q 2406 -641 2662 -400 
Q 2919 -159 2919 353 
L 2919 594 
z
M 2181 2772 
Q 1834 2772 1640 2515 
Q 1447 2259 1447 1791 
Q 1447 1309 1634 1061 
Q 1822 813 2181 813 
Q 2531 813 2725 1069 
Q 2919 1325 2919 1791 
Q 2919 2259 2725 2515 
Q 2531 2772 2181 2772 
z
" transform="scale(0.015625)"/>
      <path id="DejaVuSans-Bold-20" transform="scale(0.015625)"/>
      <path id="DejaVuSans-Bold-57" d="M 191 4666 
L 1344 4666 
L 2150 1275 
L 2950 4666 
L 4109 4666 
L 4909 1275 
L 5716 4666 
L 6859 4666 
L 5759 0 
L 4372 0 
L 3525 3547 
L 2688 0 
L 1300 0 
L 191 4666 
z
" transform="scale(0.015625)"/>
      <path id="DejaVuSans-Bold-65" d="M 4031 1759 
L 4031 1441 
L 1416 1441 
Q 1456 1047 1700 850 
Q 1944 653 2381 653 
Q 2734 653 3104 758 
Q 3475 863 3866 1075 
L 3866 213 
Q 3469 63 3072 -14 
Q 2675 -91 2278 -91 
Q 1328 -91 801 392 
Q 275 875 275 1747 
Q 275 2603 792 3093 
Q 1309 3584 2216 3584 
Q 3041 3584 3536 3087 
Q 4031 2591 4031 1759 
z
M 2881 2131 
Q 2881 2450 2695 2645 
Q 2509 2841 2209 2841 
Q 1884 2841 1681 2658 
Q 1478 2475 1428 2131 
L 2881 2131 
z
" transform="scale(0.015625)"/>
      <path id="DejaVuSans-Bold-64" d="M 2919 2988 
L 2919 4863 
L 4044 4863 
L 4044 0 
L 2919 0 
L 2919 506 
Q 2688 197 2409 53 
Q 2131 -91 1766 -91 
Q 1119 -91 703 423 
Q 288 938 288 1747 
Q 288 2556 703 3070 
Q 1119 3584 1766 3584 
Q 2128 3584 2408 3439 
Q 2688 3294 2919 2988 
z
M 2181 722 
Q 2541 722 2730 984 
Q 2919 1247 2919 1747 
Q 2919 2247 2730 2509 
Q 2541 2772 2181 2772 
Q 1825 2772 1636 2509 
Q 1447 2247 1447 1747 
Q 1447 1247 1636 984 
Q 1825 722 2181 722 
z
" transform="scale(0.015625)"/>
      <path id="DejaVuSans-Bold-2014" d="M 344 2156 
L 6056 2156 
L 6056 1350 
L 344 1350 
L 344 2156 
z
" transform="scale(0.015625)"/>
      <path id="DejaVuSans-Bold-4d" d="M 588 4666 
L 2119 4666 
L 3181 2169 
L 4250 4666 
L 5778 4666 
L 5778 0 
L 4641 0 
L 4641 3413 
L 3566 897 
L 2803 897 
L 1728 3413 
L 1728 0 
L 588 0 
L 588 4666 
z
" transform="scale(0.015625)"/>
      <path id="DejaVuSans-Bold-53" d="M 3834 4519 
L 3834 3531 
Q 3450 3703 3084 3790 
Q 2719 3878 2394 3878 
Q 1963 3878 1756 3759 
Q 1550 3641 1550 3391 
Q 1550 3203 1689 3098 
Q 1828 2994 2194 2919 
L 2706 2816 
Q 3484 2659 3812 2340 
Q 4141 2022 4141 1434 
Q 4141 663 3683 286 
Q 3225 -91 2284 -91 
Q 1841 -91 1394 -6 
Q 947 78 500 244 
L 500 1259 
Q 947 1022 1364 901 
Q 1781 781 2169 781 
Q 2563 781 2772 912 
Q 2981 1044 2981 1288 
Q 2981 1506 2839 1625 
Q 2697 1744 2272 1838 
L 1806 1941 
Q 1106 2091 782 2419 
Q 459 2747 459 3303 
Q 459 4000 909 4375 
Q 1359 4750 2203 4750 
Q 2588 4750 2994 4692 
Q 3400 4634 3834 4519 
z
" transform="scale(0.015625)"/>
      <path id="DejaVuSans-Bold-54" d="M 31 4666 
L 4331 4666 
L 4331 3756 
L 2784 3756 
L 2784 0 
L 1581 0 
L 1581 3756 
L 31 3756 
L 31 4666 
z
" transform="scale(0.015625)"/>
      <path id="DejaVuSans-Bold-31" d="M 750 831 
L 1813 831 
L 1813 3847 
L 722 3622 
L 722 4441 
L 1806 4666 
L 2950 4666 
L 2950 831 
L 4013 831 
L 4013 0 
L 750 0 
L 750 831 
z
" transform="scale(0.015625)"/>
      <path id="DejaVuSans-Bold-48" d="M 588 4666 
L 1791 4666 
L 1791 2888 
L 3566 2888 
L 3566 4666 
L 4769 4666 
L 4769 0 
L 3566 0 
L 3566 1978 
L 1791 1978 
L 1791 0 
L 588 0 
L 588 4666 
z
" transform="scale(0.015625)"/>
     </defs>
     <use xlink:href="#DejaVuSans-Bold-46"/>
     <use xlink:href="#DejaVuSans-Bold-61" transform="translate(62.435547 0)"/>
     <use xlink:href="#DejaVuSans-Bold-6c" transform="translate(129.916016 0)"/>
     <use xlink:href="#DejaVuSans-Bold-6c" transform="translate(164.193359 0)"/>
     <use xlink:href="#DejaVuSans-Bold-69" transform="translate(198.470703 0)"/>
     <use xlink:href="#DejaVuSans-Bold-6e" transform="translate(232.748047 0)"/>
     <use xlink:href="#DejaVuSans-Bold-67" transform="translate(303.939453 0)"/>
     <use xlink:href="#DejaVuSans-Bold-20" transform="translate(375.521484 0)"/>
     <use xlink:href="#DejaVuSans-Bold-57" transform="translate(410.335938 0)"/>
     <use xlink:href="#DejaVuSans-Bold-65" transform="translate(517.013672 0)"/>
     <use xlink:href="#DejaVuSans-Bold-64" transform="translate(584.835938 0)"/>
     <use xlink:href="#DejaVuSans-Bold-67" transform="translate(656.417969 0)"/>
     <use xlink:href="#DejaVuSans-Bold-65" transform="translate(728 0)"/>
     <use xlink:href="#DejaVuSans-Bold-20" transform="translate(795.822266 0)"/>
     <use xlink:href="#DejaVuSans-Bold-2014" transform="translate(830.636719 0)"/>
     <use xlink:href="#DejaVuSans-Bold-20" transform="translate(930.636719 0)"/>
     <use xlink:href="#DejaVuSans-Bold-4d" transform="translate(965.451172 0)"/>
     <use xlink:href="#DejaVuSans-Bold-53" transform="translate(1064.962891 0)"/>
     <use xlink:href="#DejaVuSans-Bold-46" transform="translate(1136.984375 0)"/>
     <use xlink:href="#DejaVuSans-Bold-54" transform="translate(1205.294922 0)"/>
     <use xlink:href="#DejaVuSans-Bold-20" transform="translate(1273.507812 0)"/>
     <use xlink:href="#DejaVuSans-Bold-31" transform="translate(1308.322266 0)"/>
     <use xlink:href="#DejaVuSans-Bold-48" transform="translate(1377.902344 0)"/>
    </g>
   </g>
  </g>
  <g id="axes_2">
   <g id="patch_35">
    <path d="M 29.428438 246.558438 
L 475.828437 246.558438 
L 475.828437 192.470633 
L 29.428438 192.470633 
z
" style="fill: #0a0f1a"/>
   </g>
   <g id="patch_36">
    <path d="M 49.719347 246.558438 
L 59.284085 246.558438 
L 59.284085 195.046242 
L 49.719347 195.046242 
z
" clip-path="url(#p3a0d76091a)" style="fill: #ef4444; fill-opacity: 0.533333"/>
   </g>
   <g id="patch_37">
    <path d="M 63.383258 246.558438 
L 72.947997 246.558438 
L 72.947997 218.084278 
L 63.383258 218.084278 
z
" clip-path="url(#p3a0d76091a)" style="fill: #ef4444; fill-opacity: 0.533333"/>
   </g>
   <g id="patch_38">
    <path d="M 77.04717 246.558438 
L 86.611909 246.558438 
L 86.611909 202.395745 
L 77.04717 202.395745 
z
" clip-path="url(#p3a0d76091a)" style="fill: #22c55e; fill-opacity: 0.533333"/>
   </g>
   <g id="patch_39">
    <path d="M 90.711082 246.558438 
L 100.27582 246.558438 
L 100.27582 228.62168 
L 90.711082 228.62168 
z
" clip-path="url(#p3a0d76091a)" style="fill: #ef4444; fill-opacity: 0.533333"/>
   </g>
   <g id="patch_40">
    <path d="M 104.374994 246.558438 
L 113.939732 246.558438 
L 113.939732 206.286663 
L 104.374994 206.286663 
z
" clip-path="url(#p3a0d76091a)" style="fill: #22c55e; fill-opacity: 0.533333"/>
   </g>
   <g id="patch_41">
    <path d="M 118.038906 246.558438 
L 127.603644 246.558438 
L 127.603644 200.584524 
L 118.038906 200.584524 
z
" clip-path="url(#p3a0d76091a)" style="fill: #22c55e; fill-opacity: 0.533333"/>
   </g>
   <g id="patch_42">
    <path d="M 131.702818 246.558438 
L 141.267556 246.558438 
L 141.267556 210.570792 
L 131.702818 210.570792 
z
" clip-path="url(#p3a0d76091a)" style="fill: #ef4444; fill-opacity: 0.533333"/>
   </g>
   <g id="patch_43">
    <path d="M 145.36673 246.558438 
L 154.931468 246.558438 
L 154.931468 231.382065 
L 145.36673 231.382065 
z
" clip-path="url(#p3a0d76091a)" style="fill: #22c55e; fill-opacity: 0.533333"/>
   </g>
   <g id="patch_44">
    <path d="M 159.030641 246.558438 
L 168.59538 246.558438 
L 168.59538 201.103743 
L 159.030641 201.103743 
z
" clip-path="url(#p3a0d76091a)" style="fill: #22c55e; fill-opacity: 0.533333"/>
   </g>
   <g id="patch_45">
    <path d="M 172.694553 246.558438 
L 182.259291 246.558438 
L 182.259291 214.780539 
L 172.694553 214.780539 
z
" clip-path="url(#p3a0d76091a)" style="fill: #ef4444; fill-opacity: 0.533333"/>
   </g>
   <g id="patch_46">
    <path d="M 186.358465 246.558438 
L 195.923203 246.558438 
L 195.923203 200.379497 
L 186.358465 200.379497 
z
" clip-path="url(#p3a0d76091a)" style="fill: #22c55e; fill-opacity: 0.533333"/>
   </g>
   <g id="patch_47">
    <path d="M 200.022377 246.558438 
L 209.587115 246.558438 
L 209.587115 221.405657 
L 200.022377 221.405657 
z
" clip-path="url(#p3a0d76091a)" style="fill: #22c55e; fill-opacity: 0.533333"/>
   </g>
   <g id="patch_48">
    <path d="M 213.686289 246.558438 
L 223.251027 246.558438 
L 223.251027 228.727458 
L 213.686289 228.727458 
z
" clip-path="url(#p3a0d76091a)" style="fill: #ef4444; fill-opacity: 0.533333"/>
   </g>
   <g id="patch_49">
    <path d="M 227.350201 246.558438 
L 236.914939 246.558438 
L 236.914939 222.258448 
L 227.350201 222.258448 
z
" clip-path="url(#p3a0d76091a)" style="fill: #22c55e; fill-opacity: 0.533333"/>
   </g>
   <g id="patch_50">
    <path d="M 241.014112 246.558438 
L 250.578851 246.558438 
L 250.578851 222.232306 
L 241.014112 222.232306 
z
" clip-path="url(#p3a0d76091a)" style="fill: #ef4444; fill-opacity: 0.533333"/>
   </g>
   <g id="patch_51">
    <path d="M 254.678024 246.558438 
L 264.242763 246.558438 
L 264.242763 232.360311 
L 254.678024 232.360311 
z
" clip-path="url(#p3a0d76091a)" style="fill: #ef4444; fill-opacity: 0.533333"/>
   </g>
   <g id="patch_52">
    <path d="M 268.341936 246.558438 
L 277.906674 246.558438 
L 277.906674 214.120846 
L 268.341936 214.120846 
z
" clip-path="url(#p3a0d76091a)" style="fill: #22c55e; fill-opacity: 0.533333"/>
   </g>
   <g id="patch_53">
    <path d="M 282.005848 246.558438 
L 291.570586 246.558438 
L 291.570586 212.956295 
L 282.005848 212.956295 
z
" clip-path="url(#p3a0d76091a)" style="fill: #22c55e; fill-opacity: 0.533333"/>
   </g>
   <g id="patch_54">
    <path d="M 295.66976 246.558438 
L 305.234498 246.558438 
L 305.234498 203.990867 
L 295.66976 203.990867 
z
" clip-path="url(#p3a0d76091a)" style="fill: #22c55e; fill-opacity: 0.533333"/>
   </g>
   <g id="patch_55">
    <path d="M 309.333672 246.558438 
L 318.89841 246.558438 
L 318.89841 198.752968 
L 309.333672 198.752968 
z
" clip-path="url(#p3a0d76091a)" style="fill: #ef4444; fill-opacity: 0.533333"/>
   </g>
   <g id="patch_56">
    <path d="M 322.997584 246.558438 
L 332.562322 246.558438 
L 332.562322 196.496666 
L 322.997584 196.496666 
z
" clip-path="url(#p3a0d76091a)" style="fill: #ef4444; fill-opacity: 0.533333"/>
   </g>
   <g id="patch_57">
    <path d="M 336.661495 246.558438 
L 346.226234 246.558438 
L 346.226234 211.554854 
L 336.661495 211.554854 
z
" clip-path="url(#p3a0d76091a)" style="fill: #22c55e; fill-opacity: 0.533333"/>
   </g>
   <g id="patch_58">
    <path d="M 350.325407 246.558438 
L 359.890145 246.558438 
L 359.890145 230.751666 
L 350.325407 230.751666 
z
" clip-path="url(#p3a0d76091a)" style="fill: #ef4444; fill-opacity: 0.533333"/>
   </g>
   <g id="patch_59">
    <path d="M 363.989319 246.558438 
L 373.554057 246.558438 
L 373.554057 229.933997 
L 363.989319 229.933997 
z
" clip-path="url(#p3a0d76091a)" style="fill: #ef4444; fill-opacity: 0.533333"/>
   </g>
   <g id="patch_60">
    <path d="M 377.653231 246.558438 
L 387.217969 246.558438 
L 387.217969 219.674837 
L 377.653231 219.674837 
z
" clip-path="url(#p3a0d76091a)" style="fill: #ef4444; fill-opacity: 0.533333"/>
   </g>
   <g id="patch_61">
    <path d="M 391.317143 246.558438 
L 400.881881 246.558438 
L 400.881881 234.532858 
L 391.317143 234.532858 
z
" clip-path="url(#p3a0d76091a)" style="fill: #22c55e; fill-opacity: 0.533333"/>
   </g>
   <g id="patch_62">
    <path d="M 404.981055 246.558438 
L 414.545793 246.558438 
L 414.545793 212.269516 
L 404.981055 212.269516 
z
" clip-path="url(#p3a0d76091a)" style="fill: #22c55e; fill-opacity: 0.533333"/>
   </g>
   <g id="patch_63">
    <path d="M 418.644966 246.558438 
L 428.209705 246.558438 
L 428.209705 210.056095 
L 418.644966 210.056095 
z
" clip-path="url(#p3a0d76091a)" style="fill: #ef4444; fill-opacity: 0.533333"/>
   </g>
   <g id="patch_64">
    <path d="M 432.308878 246.558438 
L 441.873617 246.558438 
L 441.873617 224.888282 
L 432.308878 224.888282 
z
" clip-path="url(#p3a0d76091a)" style="fill: #ef4444; fill-opacity: 0.533333"/>
   </g>
   <g id="patch_65">
    <path d="M 445.97279 246.558438 
L 455.537528 246.558438 
L 455.537528 205.315963 
L 445.97279 205.315963 
z
" clip-path="url(#p3a0d76091a)" style="fill: #22c55e; fill-opacity: 0.533333"/>
   </g>
   <g id="matplotlib.axis_3">
    <g id="xtick_8">
     <g id="line2d_57">
      <path d="M 54.501716 246.558438 
L 54.501716 192.470633 
" clip-path="url(#p3a0d76091a)" style="fill: none; stroke: #374151; stroke-opacity: 0.1; stroke-width: 0.8; stroke-linecap: square"/>
     </g>
     <g id="line2d_58">
      <g>
       <use xlink:href="#m2aa50173bd" x="54.501716" y="246.558438" style="fill: #4b5563; stroke: #4b5563; stroke-width: 0.8"/>
      </g>
     </g>
     <g id="text_8">
      <!-- 0 -->
      <g style="fill: #4b5563" transform="translate(52.274841 258.877344) scale(0.07 -0.07)">
       <use xlink:href="#DejaVuSans-30"/>
      </g>
     </g>
    </g>
    <g id="xtick_9">
     <g id="line2d_59">
      <path d="M 122.821275 246.558438 
L 122.821275 192.470633 
" clip-path="url(#p3a0d76091a)" style="fill: none; stroke: #374151; stroke-opacity: 0.1; stroke-width: 0.8; stroke-linecap: square"/>
     </g>
     <g id="line2d_60">
      <g>
       <use xlink:href="#m2aa50173bd" x="122.821275" y="246.558438" style="fill: #4b5563; stroke: #4b5563; stroke-width: 0.8"/>
      </g>
     </g>
     <g id="text_9">
      <!-- 5 -->
      <g style="fill: #4b5563" transform="translate(120.5944 258.877344) scale(0.07 -0.07)">
       <defs>
        <path id="DejaVuSans-35" d="M 691 4666 
L 3169 4666 
L 3169 4134 
L 1269 4134 
L 1269 2991 
Q 1406 3038 1543 3061 
Q 1681 3084 1819 3084 
Q 2600 3084 3056 2656 
Q 3513 2228 3513 1497 
Q 3513 744 3044 326 
Q 2575 -91 1722 -91 
Q 1428 -91 1123 -41 
Q 819 9 494 109 
L 494 744 
Q 775 591 1075 516 
Q 1375 441 1709 441 
Q 2250 441 2565 725 
Q 2881 1009 2881 1497 
Q 2881 1984 2565 2268 
Q 2250 2553 1709 2553 
Q 1456 2553 1204 2497 
Q 953 2441 691 2322 
L 691 4666 
z
" transform="scale(0.015625)"/>
       </defs>
       <use xlink:href="#DejaVuSans-35"/>
      </g>
     </g>
    </g>
    <g id="xtick_10">
     <g id="line2d_61">
      <path d="M 191.140834 246.558438 
L 191.140834 192.470633 
" clip-path="url(#p3a0d76091a)" style="fill: none; stroke: #374151; stroke-opacity: 0.1; stroke-width: 0.8; stroke-linecap: square"/>
     </g>
     <g id="line2d_62">
      <g>
       <use xlink:href="#m2aa50173bd" x="191.140834" y="246.558438" style="fill: #4b5563; stroke: #4b5563; stroke-width: 0.8"/>
      </g>
     </g>
     <g id="text_10">
      <!-- 10 -->
      <g style="fill: #4b5563" transform="translate(186.687084 258.877344) scale(0.07 -0.07)">
       <use xlink:href="#DejaVuSans-31"/>
       <use xlink:href="#DejaVuSans-30" transform="translate(63.623047 0)"/>
      </g>
     </g>
    </g>
    <g id="xtick_11">
     <g id="line2d_63">
      <path d="M 259.460393 246.558438 
L 259.460393 192.470633 
" clip-path="url(#p3a0d76091a)" style="fill: none; stroke: #374151; stroke-opacity: 0.1; stroke-width: 0.8; stroke-linecap: square"/>
     </g>
     <g id="line2d_64">
      <g>
       <use xlink:href="#m2aa50173bd" x="259.460393" y="246.558438" style="fill: #4b5563; stroke: #4b5563; stroke-width: 0.8"/>
      </g>
     </g>
     <g id="text_11">
      <!-- 15 -->
      <g style="fill: #4b5563" transform="translate(255.006643 258.877344) scale(0.07 -0.07)">
       <use xlink:href="#DejaVuSans-31"/>
       <use xlink:href="#DejaVuSans-35" transform="translate(63.623047 0)"/>
      </g>
     </g>
    </g>
    <g id="xtick_12">
     <g id="line2d_65">
      <path d="M 327.779953 246.558438 
L 327.779953 192.470633 
" clip-path="url(#p3a0d76091a)" style="fill: none; stroke: #374151; stroke-opacity: 0.1; stroke-width: 0.8; stroke-linecap: square"/>
     </g>
     <g id="line2d_66">
      <g>
       <use xlink:href="#m2aa50173bd" x="327.779953" y="246.558438" style="fill: #4b5563; stroke: #4b5563; stroke-width: 0.8"/>
      </g>
     </g>
     <g id="text_12">
      <!-- 20 -->
      <g style="fill: #4b5563" transform="translate(323.326203 258.877344) scale(0.07 -0.07)">
       <use xlink:href="#DejaVuSans-32"/>
       <use xlink:href="#DejaVuSans-30" transform="translate(63.623047 0)"/>
      </g>
     </g>
    </g>
    <g id="xtick_13">
     <g id="line2d_67">
      <path d="M 396.099512 246.558438 
L 396.099512 192.470633 
" clip-path="url(#p3a0d76091a)" style="fill: none; stroke: #374151; stroke-opacity: 0.1; stroke-width: 0.8; stroke-linecap: square"/>
     </g>
     <g id="line2d_68">
      <g>
       <use xlink:href="#m2aa50173bd" x="396.099512" y="246.558438" style="fill: #4b5563; stroke: #4b5563; stroke-width: 0.8"/>
      </g>
     </g>
     <g id="text_13">
      <!-- 25 -->
      <g style="fill: #4b5563" transform="translate(391.645762 258.877344) scale(0.07 -0.07)">
       <use xlink:href="#DejaVuSans-32"/>
       <use xlink:href="#DejaVuSans-35" transform="translate(63.623047 0)"/>
      </g>
     </g>
    </g>
    <g id="xtick_14">
     <g id="line2d_69">
      <path d="M 464.419071 246.558438 
L 464.419071 192.470633 
" clip-path="url(#p3a0d76091a)" style="fill: none; stroke: #374151; stroke-opacity: 0.1; stroke-width: 0.8; stroke-linecap: square"/>
     </g>
     <g id="line2d_70">
      <g>
       <use xlink:href="#m2aa50173bd" x="464.419071" y="246.558438" style="fill: #4b5563; stroke: #4b5563; stroke-width: 0.8"/>
      </g>
     </g>
     <g id="text_14">
      <!-- 30 -->
      <g style="fill: #4b5563" transform="translate(459.965321 258.877344) scale(0.07 -0.07)">
       <defs>
        <path id="DejaVuSans-33" d="M 2597 2516 
Q 3050 2419 3304 2112 
Q 3559 1806 3559 1356 
Q 3559 666 3084 287 
Q 2609 -91 1734 -91 
Q 1441 -91 1130 -33 
Q 819 25 488 141 
L 488 750 
Q 750 597 1062 519 
Q 1375 441 1716 441 
Q 2309 441 2620 675 
Q 2931 909 2931 1356 
Q 2931 1769 2642 2001 
Q 2353 2234 1838 2234 
L 1294 2234 
L 1294 2753 
L 1863 2753 
Q 2328 2753 2575 2939 
Q 2822 3125 2822 3475 
Q 2822 3834 2567 4026 
Q 2313 4219 1838 4219 
Q 1578 4219 1281 4162 
Q 984 4106 628 3988 
L 628 4550 
Q 988 4650 1302 4700 
Q 1616 4750 1894 4750 
Q 2613 4750 3031 4423 
Q 3450 4097 3450 3541 
Q 3450 3153 3228 2886 
Q 3006 2619 2597 2516 
z
" transform="scale(0.015625)"/>
       </defs>
       <use xlink:href="#DejaVuSans-33"/>
       <use xlink:href="#DejaVuSans-30" transform="translate(63.623047 0)"/>
      </g>
     </g>
    </g>
   </g>
   <g id="matplotlib.axis_4">
    <g id="ytick_7">
     <g id="line2d_71">
      <path d="M 29.428438 246.558438 
L 475.828437 246.558438 
" clip-path="url(#p3a0d76091a)" style="fill: none; stroke: #374151; stroke-opacity: 0.1; stroke-width: 0.8; stroke-linecap: square"/>
     </g>
     <g id="line2d_72">
      <g>
       <use xlink:href="#m7aa0851380" x="29.428438" y="246.558438" style="fill: #4b5563; stroke: #4b5563; stroke-width: 0.8"/>
      </g>
     </g>
     <g id="text_15">
      <!-- 0 -->
      <g style="fill: #4b5563" transform="translate(17.974688 249.217891) scale(0.07 -0.07)">
       <use xlink:href="#DejaVuSans-30"/>
      </g>
     </g>
    </g>
    <g id="ytick_8">
     <g id="line2d_73">
      <path d="M 29.428438 225.330752 
L 475.828437 225.330752 
" clip-path="url(#p3a0d76091a)" style="fill: none; stroke: #374151; stroke-opacity: 0.1; stroke-width: 0.8; stroke-linecap: square"/>
     </g>
     <g id="line2d_74">
      <g>
       <use xlink:href="#m7aa0851380" x="29.428438" y="225.330752" style="fill: #4b5563; stroke: #4b5563; stroke-width: 0.8"/>
      </g>
     </g>
     <g id="text_16">
      <!-- 2 -->
      <g style="fill: #4b5563" transform="translate(17.974688 227.990205) scale(0.07 -0.07)">
       <use xlink:href="#DejaVuSans-32"/>
      </g>
     </g>
    </g>
    <g id="ytick_9">
     <g id="line2d_75">
      <path d="M 29.428438 204.103066 
L 475.828437 204.103066 
" clip-path="url(#p3a0d76091a)" style="fill: none; stroke: #374151; stroke-opacity: 0.1; stroke-width: 0.8; stroke-linecap: square"/>
     </g>
     <g id="line2d_76">
      <g>
       <use xlink:href="#m7aa0851380" x="29.428438" y="204.103066" style="fill: #4b5563; stroke: #4b5563; stroke-width: 0.8"/>
      </g>
     </g>
     <g id="text_17">
      <!-- 4 -->
      <g style="fill: #4b5563" transform="translate(17.974688 206.762519) scale(0.07 -0.07)">
       <use xlink:href="#DejaVuSans-34"/>
      </g>
     </g>
    </g>
    <g id="text_18">
     <!-- Vol -->
     <g style="fill: #4b5563" transform="translate(12.518906 224.75141) rotate(-90) scale(0.07 -0.07)">
      <defs>
       <path id="DejaVuSans-56" d="M 1831 0 
L 50 4666 
L 709 4666 
L 2188 738 
L 3669 4666 
L 4325 4666 
L 2547 0 
L 1831 0 
z
" transform="scale(0.015625)"/>
       <path id="DejaVuSans-6f" d="M 1959 3097 
Q 1497 3097 1228 2736 
Q 959 2375 959 1747 
Q 959 1119 1226 758 
Q 1494 397 1959 397 
Q 2419 397 2687 759 
Q 2956 1122 2956 1747 
Q 2956 2369 2687 2733 
Q 2419 3097 1959 3097 
z
M 1959 3584 
Q 2709 3584 3137 3096 
Q 3566 2609 3566 1747 
Q 3566 888 3137 398 
Q 2709 -91 1959 -91 
Q 1206 -91 779 398 
Q 353 888 353 1747 
Q 353 2609 779 3096 
Q 1206 3584 1959 3584 
z
" transform="scale(0.015625)"/>
       <path id="DejaVuSans-6c" d="M 603 4863 
L 1178 4863 
L 1178 0 
L 603 0 
L 603 4863 
z
" transform="scale(0.015625)"/>
      </defs>
      <use xlink:href="#DejaVuSans-56"/>
      <use xlink:href="#DejaVuSans-6f" transform="translate(60.658203 0)"/>
      <use xlink:href="#DejaVuSans-6c" transform="translate(121.839844 0)"/>
     </g>
    </g>
    <g id="text_19">
     <!-- 1e6 -->
     <g style="fill: #4b5563" transform="translate(29.428438 189.470633) scale(0.1 -0.1)">
      <defs>
       <path id="DejaVuSans-65" d="M 3597 1894 
L 3597 1613 
L 953 1613 
Q 991 1019 1311 708 
Q 1631 397 2203 397 
Q 2534 397 2845 478 
Q 3156 559 3463 722 
L 3463 178 
Q 3153 47 2828 -22 
Q 2503 -91 2169 -91 
Q 1331 -91 842 396 
Q 353 884 353 1716 
Q 353 2575 817 3079 
Q 1281 3584 2069 3584 
Q 2775 3584 3186 3129 
Q 3597 2675 3597 1894 
z
M 3022 2063 
Q 3016 2534 2758 2815 
Q 2500 3097 2075 3097 
Q 1594 3097 1305 2825 
Q 1016 2553 972 2059 
L 3022 2063 
z
" transform="scale(0.015625)"/>
      </defs>
      <use xlink:href="#DejaVuSans-31"/>
      <use xlink:href="#DejaVuSans-65" transform="translate(63.623047 0)"/>
      <use xlink:href="#DejaVuSans-36" transform="translate(125.146484 0)"/>
     </g>
    </g>
   </g>
   <g id="patch_66">
    <path d="M 29.428438 246.558438 
L 29.428438 192.470633 
" style="fill: none; stroke: #1f2937; stroke-width: 0.8; stroke-linejoin: miter; stroke-linecap: square"/>
   </g>
   <g id="patch_67">
    <path d="M 29.428438 246.558438 
L 475.828438 246.558438 
" style="fill: none; stroke: #1f2937; stroke-width: 0.8; stroke-linejoin: miter; stroke-linecap: square"/>
   </g>
  </g>
 </g>
 <defs>
  <clipPath id="pb36fbe092c">
   <rect x="29.428438" y="24.798438" width="446.4" height="162.263415"/>
  </clipPath>
  <clipPath id="p3a0d76091a">
   <rect x="29.428438" y="192.470633" width="446.4" height="54.087805"/>
  </clipPath>
 </defs>
</svg>
