<?xml version="1.0" encoding="utf-8" standalone="no"?>
<!DOCTYPE svg PUBLIC "-//W3C//DTD SVG 1.1//EN"
  "http://www.w3.org/Graphics/SVG/1.1/DTD/svg11.dtd">
<svg xmlns:xlink="http://www.w3.org/1999/xlink" width="483.028437pt" height="267.533125pt" viewBox="0 0 483.028437 267.533125" xmlns="http://www.w3.org/2000/svg" version="1.1">
 <metadata>
  <rdf:RDF xmlns:dc="http://purl.org/dc/elements/1.1/" xmlns:cc="http://creativecommons.org/ns#" xmlns:rdf="http://www.w3.org/1999/02/22-rdf-syntax-ns#">
   <cc:Work>
    <dc:type rdf:resource="http://purl.org/dc/dcmitype/StillImage"/>
    <dc:date>2026-02-16T00:23:02.577396</dc:date>
    <dc:format>image/svg+xml</dc:format>
    <dc:creator>
     <cc:Agent>
      <dc:title>Matplotlib v3.10.8, https://matplotlib.org/</dc:title>
     </cc:Agent>
    </dc:creator>
   </cc:Work>
  </rdf:RDF>
 </metadata>
 <defs>
  <style type="text/css">*{stroke-linejoin: round; stroke-linecap: butt}</style>
 </defs>
 <g id="figure_1">
  <g id="patch_1">
   <path d="M 0 267.533125 
L 483.028437 267.533125 
L 483.028437 0 
L 0 0 
z
" style="fill: #0a0f1a"/>
  </g>
  <g id="axes_1">
   <g id="patch_2">
    <path d="M 29.428438 187.061852 
L 475.828437 187.061852 
L 475.828437 24.798438 
L 29.428438 24.798438 
z
" style="fill: #0a0f1a"/>
   </g>
   <g id="patch_3">
    <path d="M 38.788438 129.263543 
L 48.868437 129.263543 
Q 49.156437 129.263543 49.156437 129.017813 
L 49.156437 115.61693 
Q 49.156437 115.371199 48.868437 115.371199 
L 38.788438 115.371199 
Q 38.500438 115.371199 38.500438 115.61693 
L 38.500438 129.017813 
Q 38.500438 129.263543 38.788438 129.263543 
z
" clip-path="url(#p7e39f65e30)" style="fill: #ef4444; stroke: #ef4444; stroke-linejoin: miter"/>
   </g>
   <g id="patch_4">
    <path d="M 53.188437 133.97481 
L 63.268437 133.97481 
Q 63.556438 133.97481 63.556438 133.729079 
L 63.556438 111.451554 
Q 63.556438 111.205824 63.268437 111.205824 
L 53.188437 111.205824 
Q 52.900437 111.205824 52.900437 111.451554 
L 52.900437 133.729079 
Q 52.900437 133.97481 53.188437 133.97481 
z
" clip-path="url(#p7e39f65e30)" style="fill: #ef4444; stroke: #ef4444; stroke-linejoin: miter"/>
   </g>
   <g id="patch_5">
    <path d="M 67.588437 127.133964 
L 77.668437 127.133964 
Q 77.956437 127.133964 77.956437 126.888234 
L 77.956437 119.834721 
Q 77.956437 119.588991 77.668437 119.588991 
L 67.588437 119.588991 
Q 67.300438 119.588991 67.300438 119.834721 
L 67.300438 126.888234 
Q 67.300438 127.133964 67.588437 127.133964 
z
" clip-path="url(#p7e39f65e30)" style="fill: #22c55e; stroke: #22c55e; stroke-linejoin: miter"/>
   </g>
   <g id="patch_6">
    <path d="M 81.988438 122.646841 
L 92.068437 122.646841 
Q 92.356437 122.646841 92.356437 122.401111 
L 92.356437 109.37467 
Q 92.356437 109.12894 92.068437 109.12894 
L 81.988438 109.12894 
Q 81.700437 109.12894 81.700437 109.37467 
L 81.700437 122.401111 
Q 81.700437 122.646841 81.988438 122.646841 
z
" clip-path="url(#p7e39f65e30)" style="fill: #22c55e; stroke: #22c55e; stroke-linejoin: miter"/>
   </g>
   <g id="patch_7">
    <path d="M 96.388437 126.085556 
L 106.468437 126.085556 
Q 106.756438 126.085556 106.756438 125.839826 
L 106.756438 120.260366 
Q 106.756438 120.014635 106.468437 120.014635 
L 96.388437 120.014635 
Q 96.100437 120.014635 96.100437 120.260366 
L 96.100437 125.839826 
Q 96.100437 126.085556 96.388437 126.085556 
z
" clip-path="url(#p7e39f65e30)" style="fill: #ef4444; stroke: #ef4444; stroke-linejoin: miter"/>
   </g>
   <g id="patch_8">
    <path d="M 110.788437 103.054797 
L 120.868437 103.054797 
Q 121.156438 103.054797 121.156438 102.809067 
L 121.156438 92.858658 
Q 121.156438 92.612928 120.868437 92.612928 
L 110.788437 92.612928 
Q 110.500438 92.612928 110.500438 92.858658 
L 110.500438 102.809067 
Q 110.500438 103.054797 110.788437 103.054797 
z
" clip-path="url(#p7e39f65e30)" style="fill: #ef4444; stroke: #ef4444; stroke-linejoin: miter"/>
   </g>
   <g id="patch_9">
    <path d="M 125.188437 110.321356 
L 135.268438 110.321356 
Q 135.556438 110.321356 135.556438 110.075626 
L 135.556438 98.294686 
Q 135.556438 98.048956 135.268438 98.048956 
L 125.188437 98.048956 
Q 124.900438 98.048956 124.900438 98.294686 
L 124.900438 110.075626 
Q 124.900438 110.321356 125.188437 110.321356 
z
" clip-path="url(#p7e39f65e30)" style="fill: #22c55e; stroke: #22c55e; stroke-linejoin: miter"/>
   </g>
   <g id="patch_10">
    <path d="M 139.588437 116.983525 
L 149.668438 116.983525 
Q 149.956437 116.983525 149.956437 116.737795 
L 149.956437 94.096721 
Q 149.956437 93.850991 149.668438 93.850991 
L 139.588437 93.850991 
Q 139.300438 93.850991 139.300438 94.096721 
L 139.300438 116.737795 
Q 139.300438 116.983525 139.588437 116.983525 
z
" clip-path="url(#p7e39f65e30)" style="fill: #22c55e; stroke: #22c55e; stroke-linejoin: miter"/>
   </g>
   <g id="patch_11">
    <path d="M 153.988438 95.897076 
L 164.068438 95.897076 
Q 164.356437 95.897076 164.356437 95.651346 
L 164.356437 79.30416 
Q 164.356437 79.05843 164.068438 79.05843 
L 153.988438 79.05843 
Q 153.700437 79.05843 153.700437 79.30416 
L 153.700437 95.651346 
Q 153.700437 95.897076 153.988438 95.897076 
z
" clip-path="url(#p7e39f65e30)" style="fill: #ef4444; stroke: #ef4444; stroke-linejoin: miter"/>
   </g>
   <g id="patch_12">
    <path d="M 168.388437 93.352528 
L 178.468438 93.352528 
Q 178.756438 93.352528 178.756438 93.106798 
L 178.756438 75.049183 
Q 178.756438 74.803452 178.468438 74.803452 
L 168.388437 74.803452 
Q 168.100437 74.803452 168.100437 75.049183 
L 168.100437 93.106798 
Q 168.100437 93.352528 168.388437 93.352528 
z
" clip-path="url(#p7e39f65e30)" style="fill: #22c55e; stroke: #22c55e; stroke-linejoin: miter"/>
   </g>
   <g id="patch_13">
    <path d="M 182.788437 78.27475 
L 192.868437 78.27475 
Q 193.156438 78.27475 193.156438 78.02902 
L 193.156438 73.556358 
Q 193.156438 73.310628 192.868437 73.310628 
L 182.788437 73.310628 
Q 182.500438 73.310628 182.500438 73.556358 
L 182.500438 78.02902 
Q 182.500438 78.27475 182.788437 78.27475 
z
" clip-path="url(#p7e39f65e30)" style="fill: #ef4444; stroke: #ef4444; stroke-linejoin: miter"/>
   </g>
   <g id="patch_14">
    <path d="M 197.188437 63.459896 
L 207.268438 63.459896 
Q 207.556438 63.459896 207.556438 63.214166 
L 207.556438 46.134311 
Q 207.556438 45.888581 207.268438 45.888581 
L 197.188437 45.888581 
Q 196.900438 45.888581 196.900438 46.134311 
L 196.900438 63.214166 
Q 196.900438 63.459896 197.188437 63.459896 
z
" clip-path="url(#p7e39f65e30)" style="fill: #ef4444; stroke: #ef4444; stroke-linejoin: miter"/>
   </g>
   <g id="patch_15">
    <path d="M 211.588437 71.277406 
L 221.668438 71.277406 
Q 221.956437 71.277406 221.956437 71.031676 
L 221.956437 64.071706 
Q 221.956437 63.825976 221.668438 63.825976 
L 211.588437 63.825976 
Q 211.300438 63.825976 211.300438 64.071706 
L 211.300438 71.031676 
Q 211.300438 71.277406 211.588437 71.277406 
z
" clip-path="url(#p7e39f65e30)" style="fill: #ef4444; stroke: #ef4444; stroke-linejoin: miter"/>
   </g>
   <g id="patch_16">
    <path d="M 225.988438 81.45348 
L 236.068438 81.45348 
Q 236.356437 81.45348 236.356437 81.20775 
L 236.356437 69.260051 
Q 236.356437 69.014321 236.068438 69.014321 
L 225.988438 69.014321 
Q 225.700437 69.014321 225.700437 69.260051 
L 225.700437 81.20775 
Q 225.700437 81.45348 225.988438 81.45348 
z
" clip-path="url(#p7e39f65e30)" style="fill: #ef4444; stroke: #ef4444; stroke-linejoin: miter"/>
   </g>
   <g id="patch_17">
    <path d="M 240.388437 72.911587 
L 250.468437 72.911587 
Q 250.756438 72.911587 250.756438 72.665857 
L 250.756438 67.725645 
Q 250.756438 67.479915 250.468437 67.479915 
L 240.388437 67.479915 
Q 240.100437 67.479915 240.100437 67.725645 
L 240.100437 72.665857 
Q 240.100437 72.911587 240.388437 72.911587 
z
" clip-path="url(#p7e39f65e30)" style="fill: #ef4444; stroke: #ef4444; stroke-linejoin: miter"/>
   </g>
   <g id="patch_18">
    <path d="M 254.788437 100.078666 
L 264.868437 100.078666 
Q 265.156437 100.078666 265.156437 99.832936 
L 265.156437 86.185971 
Q 265.156437 85.940241 264.868437 85.940241 
L 254.788437 85.940241 
Q 254.500438 85.940241 254.500438 86.185971 
L 254.500438 99.832936 
Q 254.500438 100.078666 254.788437 100.078666 
z
" clip-path="url(#p7e39f65e30)" style="fill: #ef4444; stroke: #ef4444; stroke-linejoin: miter"/>
   </g>
   <g id="patch_19">
    <path d="M 269.188437 98.767726 
L 279.268438 98.767726 
Q 279.556437 98.767726 279.556437 98.521996 
L 279.556437 84.880933 
Q 279.556437 84.635202 279.268438 84.635202 
L 269.188437 84.635202 
Q 268.900438 84.635202 268.900438 84.880933 
L 268.900438 98.521996 
Q 268.900438 98.767726 269.188437 98.767726 
z
" clip-path="url(#p7e39f65e30)" style="fill: #ef4444; stroke: #ef4444; stroke-linejoin: miter"/>
   </g>
   <g id="patch_20">
    <path d="M 283.588437 118.630998 
L 293.668437 118.630998 
Q 293.956437 118.630998 293.956437 118.385268 
L 293.956437 97.224547 
Q 293.956437 96.978817 293.668437 96.978817 
L 283.588437 96.978817 
Q 283.300437 96.978817 283.300437 97.224547 
L 283.300437 118.385268 
Q 283.300437 118.630998 283.588437 118.630998 
z
" clip-path="url(#p7e39f65e30)" style="fill: #22c55e; stroke: #22c55e; stroke-linejoin: miter"/>
   </g>
   <g id="patch_21">
    <path d="M 297.988437 128.530815 
L 308.068437 128.530815 
Q 308.356437 128.530815 308.356437 128.285085 
L 308.356437 106.052921 
Q 308.356437 105.80719 308.068437 105.80719 
L 297.988437 105.80719 
Q 297.700437 105.80719 297.700437 106.052921 
L 297.700437 128.285085 
Q 297.700437 128.530815 297.988437 128.530815 
z
" clip-path="url(#p7e39f65e30)" style="fill: #22c55e; stroke: #22c55e; stroke-linejoin: miter"/>
   </g>
   <g id="patch_22">
    <path d="M 312.388437 119.411488 
L 322.468437 119.411488 
Q 322.756437 119.411488 322.756437 119.165758 
L 322.756437 96.077023 
Q 322.756437 95.831293 322.468437 95.831293 
L 312.388437 95.831293 
Q 312.100437 95.831293 312.100437 96.077023 
L 312.100437 119.165758 
Q 312.100437 119.411488 312.388437 119.411488 
z
" clip-path="url(#p7e39f65e30)" style="fill: #ef4444; stroke: #ef4444; stroke-linejoin: miter"/>
   </g>
   <g id="patch_23">
    <path d="M 326.788437 171.116787 
L 336.868437 171.116787 
Q 337.156437 171.116787 337.156437 170.871057 
L 337.156437 146.527276 
Q 337.156437 146.281546 336.868437 146.281546 
L 326.788437 146.281546 
Q 326.500437 146.281546 326.500437 146.527276 
L 326.500437 170.871057 
Q 326.500437 171.116787 326.788437 171.116787 
z
" clip-path="url(#p7e39f65e30)" style="fill: #22c55e; stroke: #22c55e; stroke-linejoin: miter"/>
   </g>
   <g id="patch_24">
    <path d="M 341.188437 138.061701 
L 351.268437 138.061701 
Q 351.556437 138.061701 351.556437 137.815971 
L 351.556437 130.648184 
Q 351.556437 130.402454 351.268437 130.402454 
L 341.188437 130.402454 
Q 340.900437 130.402454 340.900437 130.648184 
L 340.900437 137.815971 
Q 340.900437 138.061701 341.188437 138.061701 
z
" clip-path="url(#p7e39f65e30)" style="fill: #22c55e; stroke: #22c55e; stroke-linejoin: miter"/>
   </g>
   <g id="patch_25">
    <path d="M 355.588437 124.115579 
L 365.668437 124.115579 
Q 365.956437 124.115579 365.956437 123.869849 
L 365.956437 100.500362 
Q 365.956437 100.254632 365.668437 100.254632 
L 355.588437 100.254632 
Q 355.300437 100.254632 355.300437 100.500362 
L 355.300437 123.869849 
Q 355.300437 124.115579 355.588437 124.115579 
z
" clip-path="url(#p7e39f65e30)" style="fill: #22c55e; stroke: #22c55e; stroke-linejoin: miter"/>
   </g>
   <g id="patch_26">
    <path d="M 369.988437 112.96045 
L 380.068437 112.96045 
Q 380.356437 112.96045 380.356437 112.71472 
L 380.356437 99.059885 
Q 380.356437 98.814155 380.068437 98.814155 
L 369.988437 98.814155 
Q 369.700437 98.814155 369.700437 99.059885 
L 369.700437 112.71472 
Q 369.700437 112.96045 369.988437 112.96045 
z
" clip-path="url(#p7e39f65e30)" style="fill: #22c55e; stroke: #22c55e; stroke-linejoin: miter"/>
   </g>
   <g id="patch_27">
    <path d="M 384.388437 121.213718 
L 394.468437 121.213718 
Q 394.756437 121.213718 394.756437 120.967988 
L 394.756437 104.995343 
Q 394.756437 104.749613 394.468437 104.749613 
L 384.388437 104.749613 
Q 384.100437 104.749613 384.100437 104.995343 
L 384.100437 120.967988 
Q 384.100437 121.213718 384.388437 121.213718 
z
" clip-path="url(#p7e39f65e30)" style="fill: #ef4444; stroke: #ef4444; stroke-linejoin: miter"/>
   </g>
   <g id="patch_28">
    <path d="M 398.788437 112.109022 
L 408.868437 112.109022 
Q 409.156437 112.109022 409.156437 111.863291 
L 409.156437 102.019404 
Q 409.156437 101.773674 408.868437 101.773674 
L 398.788437 101.773674 
Q 398.500437 101.773674 398.500437 102.019404 
L 398.500437 111.863291 
Q 398.500437 112.109022 398.788437 112.109022 
z
" clip-path="url(#p7e39f65e30)" style="fill: #22c55e; stroke: #22c55e; stroke-linejoin: miter"/>
   </g>
   <g id="patch_29">
    <path d="M 413.188437 124.033548 
L 423.268437 124.033548 
Q 423.556437 124.033548 423.556437 123.787818 
L 423.556437 99.247468 
Q 423.556437 99.001737 423.268437 99.001737 
L 413.188437 99.001737 
Q 412.900437 99.001737 412.900437 99.247468 
L 412.900437 123.787818 
Q 412.900437 124.033548 413.188437 124.033548 
z
" clip-path="url(#p7e39f65e30)" style="fill: #ef4444; stroke: #ef4444; stroke-linejoin: miter"/>
   </g>
   <g id="patch_30">
    <path d="M 427.588437 128.355104 
L 437.668437 128.355104 
Q 437.956437 128.355104 437.956437 128.109374 
L 437.956437 109.762172 
Q 437.956437 109.516442 437.668437 109.516442 
L 427.588437 109.516442 
Q 427.300437 109.516442 427.300437 109.762172 
L 427.300437 128.109374 
Q 427.300437 128.355104 427.588437 128.355104 
z
" clip-path="url(#p7e39f65e30)" style="fill: #22c55e; stroke: #22c55e; stroke-linejoin: miter"/>
   </g>
   <g id="patch_31">
    <path d="M 441.988437 124.092934 
L 452.068437 124.092934 
Q 452.356437 124.092934 452.356437 123.847204 
L 452.356437 110.724983 
Q 452.356437 110.479252 452.068437 110.479252 
L 441.988437 110.479252 
Q 441.700437 110.479252 441.700437 110.724983 
L 441.700437 123.847204 
Q 441.700437 124.092934 441.988437 124.092934 
z
" clip-path="url(#p7e39f65e30)" style="fill: #22c55e; stroke: #22c55e; stroke-linejoin: miter"/>
   </g>
   <g id="patch_32">
    <path d="M 456.388437 157.239819 
L 466.468437 157.239819 
Q 466.756437 157.239819 466.756437 156.994089 
L 466.756437 152.851622 
Q 466.756437 152.605892 466.468437 152.605892 
L 456.388437 152.605892 
Q 456.100437 152.605892 456.100437 152.851622 
L 456.100437 156.994089 
Q 456.100437 157.239819 456.388437 157.239819 
z
" clip-path="url(#p7e39f65e30)" style="fill: #22c55e; stroke: #22c55e; stroke-linejoin: miter"/>
   </g>
   <g id="matplotlib.axis_1">
    <g id="xtick_1">
     <g id="line2d_1">
      <path d="M 43.828437 187.061852 
L 43.828437 24.798438 
" clip-path="url(#p7e39f65e30)" style="fill: none; stroke: #374151; stroke-opacity: 0.1; stroke-width: 0.8; stroke-linecap: square"/>
     </g>
     <g id="line2d_2">
      <defs>
       <path id="m3d250d3220" d="M 0 0 
L 0 3.5 
" style="stroke: #4b5563; stroke-width: 0.8"/>
      </defs>
      <g>
       <use xlink:href="#m3d250d3220" x="43.828437" y="187.061852" style="fill: #4b5563; stroke: #4b5563; stroke-width: 0.8"/>
      </g>
     </g>
    </g>
    <g id="xtick_2">
     <g id="line2d_3">
      <path d="M 115.828438 187.061852 
L 115.828438 24.798438 
" clip-path="url(#p7e39f65e30)" style="fill: none; stroke: #374151; stroke-opacity: 0.1; stroke-width: 0.8; stroke-linecap: square"/>
     </g>
     <g id="line2d_4">
      <g>
       <use xlink:href="#m3d250d3220" x="115.828438" y="187.061852" style="fill: #4b5563; stroke: #4b5563; stroke-width: 0.8"/>
      </g>
     </g>
    </g>
    <g id="xtick_3">
     <g id="line2d_5">
      <path d="M 187.828438 187.061852 
L 187.828438 24.798438 
" clip-path="url(#p7e39f65e30)" style="fill: none; stroke: #374151; stroke-opacity: 0.1; stroke-width: 0.8; stroke-linecap: square"/>
     </g>
     <g id="line2d_6">
      <g>
       <use xlink:href="#m3d250d3220" x="187.828438" y="187.061852" style="fill: #4b5563; stroke: #4b5563; stroke-width: 0.8"/>
      </g>
     </g>
    </g>
    <g id="xtick_4">
     <g id="line2d_7">
      <path d="M 259.828437 187.061852 
L 259.828437 24.798438 
" clip-path="url(#p7e39f65e30)" style="fill: none; stroke: #374151; stroke-opacity: 0.1; stroke-width: 0.8; stroke-linecap: square"/>
     </g>
     <g id="line2d_8">
      <g>
       <use xlink:href="#m3d250d3220" x="259.828437" y="187.061852" style="fill: #4b5563; stroke: #4b5563; stroke-width: 0.8"/>
      </g>
     </g>
    </g>
    <g id="xtick_5">
     <g id="line2d_9">
      <path d="M 331.828438 187.061852 
L 331.828438 24.798438 
" clip-path="url(#p7e39f65e30)" style="fill: none; stroke: #374151; stroke-opacity: 0.1; stroke-width: 0.8; stroke-linecap: square"/>
     </g>
     <g id="line2d_10">
      <g>
       <use xlink:href="#m3d250d3220" x="331.828438" y="187.061852" style="fill: #4b5563; stroke: #4b5563; stroke-width: 0.8"/>
      </g>
     </g>
    </g>
    <g id="xtick_6">
     <g id="line2d_11">
      <path d="M 403.828437 187.061852 
L 403.828437 24.798438 
" clip-path="url(#p7e39f65e30)" style="fill: none; stroke: #374151; stroke-opacity: 0.1; stroke-width: 0.8; stroke-linecap: square"/>
     </g>
     <g id="line2d_12">
      <g>
       <use xlink:href="#m3d250d3220" x="403.828437" y="187.061852" style="fill: #4b5563; stroke: #4b5563; stroke-width: 0.8"/>
      </g>
     </g>
    </g>
    <g id="xtick_7">
     <g id="line2d_13">
      <path d="M 475.828437 187.061852 
L 475.828437 24.798438 
" clip-path="url(#p7e39f65e30)" style="fill: none; stroke: #374151; stroke-opacity: 0.1; stroke-width: 0.8; stroke-linecap: square"/>
     </g>
     <g id="line2d_14">
      <g>
       <use xlink:href="#m3d250d3220" x="475.828437" y="187.061852" style="fill: #4b5563; stroke: #4b5563; stroke-width: 0.8"/>
      </g>
     </g>
    </g>
   </g>
   <g id="matplotlib.axis_2">
    <g id="ytick_1">
     <g id="line2d_15">
      <path d="M 29.428438 171.463407 
L 475.828437 171.463407 
" clip-path="url(#p7e39f65e30)" style="fill: none; stroke: #374151; stroke-opacity: 0.1; stroke-width: 0.8; stroke-linecap: square"/>
     </g>
     <g id="line2d_16">
      <defs>
       <path id="mdb821eaad5" d="M 0 0 
L -3.5 0 
" style="stroke: #4b5563; stroke-width: 0.8"/>
      </defs>
      <g>
       <use xlink:href="#mdb821eaad5" x="29.428438" y="171.463407" style="fill: #4b5563; stroke: #4b5563; stroke-width: 0.8"/>
      </g>
     </g>
     <g id="text_1">
      <!-- 96 -->
      <g style="fill: #4b5563" transform="translate(13.520938 174.12286) scale(0.07 -0.07)">
       <defs>
        <path id="DejaVuSans-39" d="M 703 97 
L 703 672 
Q 941 559 1184 500 
Q 1428 441 1663 441 
Q 2288 441 2617 861 
Q 2947 1281 2994 2138 
Q 2813 1869 2534 1725 
Q 2256 1581 1919 1581 
Q 1219 1581 811 2004 
Q 403 2428 403 3163 
Q 403 3881 828 4315 
Q 1253 4750 1959 4750 
Q 2769 4750 3195 4129 
Q 3622 3509 3622 2328 
Q 3622 1225 3098 567 
Q 2575 -91 1691 -91 
Q 1453 -91 1209 -44 
Q 966 3 703 97 
z
M 1959 2075 
Q 2384 2075 2632 2365 
Q 2881 2656 2881 3163 
Q 2881 3666 2632 3958 
Q 2384 4250 1959 4250 
Q 1534 4250 1286 3958 
Q 1038 3666 1038 3163 
Q 1038 2656 1286 2365 
Q 1534 2075 1959 2075 
z
" transform="scale(0.015625)"/>
        <path id="DejaVuSans-36" d="M 2113 2584 
Q 1688 2584 1439 2293 
Q 1191 2003 1191 1497 
Q 1191 994 1439 701 
Q 1688 409 2113 409 
Q 2538 409 2786 701 
Q 3034 994 3034 1497 
Q 3034 2003 2786 2293 
Q 2538 2584 2113 2584 
z
M 3366 4563 
L 3366 3988 
Q 3128 4100 2886 4159 
Q 2644 4219 2406 4219 
Q 1781 4219 1451 3797 
Q 1122 3375 1075 2522 
Q 1259 2794 1537 2939 
Q 1816 3084 2150 3084 
Q 2853 3084 3261 2657 
Q 3669 2231 3669 1497 
Q 3669 778 3244 343 
Q 2819 -91 2113 -91 
Q 1303 -91 875 529 
Q 447 1150 447 2328 
Q 447 3434 972 4092 
Q 1497 4750 2381 4750 
Q 2619 4750 2861 4703 
Q 3103 4656 3366 4563 
z
" transform="scale(0.015625)"/>
       </defs>
       <use xlink:href="#DejaVuSans-39"/>
       <use xlink:href="#DejaVuSans-36" transform="translate(63.623047 0)"/>
      </g>
     </g>
    </g>
    <g id="ytick_2">
     <g id="line2d_17">
      <path d="M 29.428438 146.890389 
L 475.828437 146.890389 
" clip-path="url(#p7e39f65e30)" style="fill: none; stroke: #374151; stroke-opacity: 0.1; stroke-width: 0.8; stroke-linecap: square"/>
     </g>
     <g id="line2d_18">
      <g>
       <use xlink:href="#mdb821eaad5" x="29.428438" y="146.890389" style="fill: #4b5563; stroke: #4b5563; stroke-width: 0.8"/>
      </g>
     </g>
     <g id="text_2">
      <!-- 98 -->
      <g style="fill: #4b5563" transform="translate(13.520938 149.549842) scale(0.07 -0.07)">
       <defs>
        <path id="DejaVuSans-38" d="M 2034 2216 
Q 1584 2216 1326 1975 
Q 1069 1734 1069 1313 
Q 1069 891 1326 650 
Q 1584 409 2034 409 
Q 2484 409 2743 651 
Q 3003 894 3003 1313 
Q 3003 1734 2745 1975 
Q 2488 2216 2034 2216 
z
M 1403 2484 
Q 997 2584 770 2862 
Q 544 3141 544 3541 
Q 544 4100 942 4425 
Q 1341 4750 2034 4750 
Q 2731 4750 3128 4425 
Q 3525 4100 3525 3541 
Q 3525 3141 3298 2862 
Q 3072 2584 2669 2484 
Q 3125 2378 3379 2068 
Q 3634 1759 3634 1313 
Q 3634 634 3220 271 
Q 2806 -91 2034 -91 
Q 1263 -91 848 271 
Q 434 634 434 1313 
Q 434 1759 690 2068 
Q 947 2378 1403 2484 
z
M 1172 3481 
Q 1172 3119 1398 2916 
Q 1625 2713 2034 2713 
Q 2441 2713 2670 2916 
Q 2900 3119 2900 3481 
Q 2900 3844 2670 4047 
Q 2441 4250 2034 4250 
Q 1625 4250 1398 4047 
Q 1172 3844 1172 3481 
z
" transform="scale(0.015625)"/>
       </defs>
       <use xlink:href="#DejaVuSans-39"/>
       <use xlink:href="#DejaVuSans-38" transform="translate(63.623047 0)"/>
      </g>
     </g>
    </g>
    <g id="ytick_3">
     <g id="line2d_19">
      <path d="M 29.428438 122.317371 
L 475.828437 122.317371 
" clip-path="url(#p7e39f65e30)" style="fill: none; stroke: #374151; stroke-opacity: 0.1; stroke-width: 0.8; stroke-linecap: square"/>
     </g>
     <g id="line2d_20">
      <g>
       <use xlink:href="#mdb821eaad5" x="29.428438" y="122.317371" style="fill: #4b5563; stroke: #4b5563; stroke-width: 0.8"/>
      </g>
     </g>
     <g id="text_3">
      <!-- 100 -->
      <g style="fill: #4b5563" transform="translate(9.067187 124.976824) scale(0.07 -0.07)">
       <defs>
        <path id="DejaVuSans-31" d="M 794 531 
L 1825 531 
L 1825 4091 
L 703 3866 
L 703 4441 
L 1819 4666 
L 2450 4666 
L 2450 531 
L 3481 531 
L 3481 0 
L 794 0 
L 794 531 
z
" transform="scale(0.015625)"/>
        <path id="DejaVuSans-30" d="M 2034 4250 
Q 1547 4250 1301 3770 
Q 1056 3291 1056 2328 
Q 1056 1369 1301 889 
Q 1547 409 2034 409 
Q 2525 409 2770 889 
Q 3016 1369 3016 2328 
Q 3016 3291 2770 3770 
Q 2525 4250 2034 4250 
z
M 2034 4750 
Q 2819 4750 3233 4129 
Q 3647 3509 3647 2328 
Q 3647 1150 3233 529 
Q 2819 -91 2034 -91 
Q 1250 -91 836 529 
Q 422 1150 422 2328 
Q 422 3509 836 4129 
Q 1250 4750 2034 4750 
z
" transform="scale(0.015625)"/>
       </defs>
       <use xlink:href="#DejaVuSans-31"/>
       <use xlink:href="#DejaVuSans-30" transform="translate(63.623047 0)"/>
       <use xlink:href="#DejaVuSans-30" transform="translate(127.246094 0)"/>
      </g>
     </g>
    </g>
    <g id="ytick_4">
     <g id="line2d_21">
      <path d="M 29.428438 97.744353 
L 475.828437 97.744353 
" clip-path="url(#p7e39f65e30)" style="fill: none; stroke: #374151; stroke-opacity: 0.1; stroke-width: 0.8; stroke-linecap: square"/>
     </g>
     <g id="line2d_22">
      <g>
       <use xlink:href="#mdb821eaad5" x="29.428438" y="97.744353" style="fill: #4b5563; stroke: #4b5563; stroke-width: 0.8"/>
      </g>
     </g>
     <g id="text_4">
      <!-- 102 -->
      <g style="fill: #4b5563" transform="translate(9.067187 100.403806) scale(0.07 -0.07)">
       <defs>
        <path id="DejaVuSans-32" d="M 1228 531 
L 3431 531 
L 3431 0 
L 469 0 
L 469 531 
Q 828 903 1448 1529 
Q 2069 2156 2228 2338 
Q 2531 2678 2651 2914 
Q 2772 3150 2772 3378 
Q 2772 3750 2511 3984 
Q 2250 4219 1831 4219 
Q 1534 4219 1204 4116 
Q 875 4013 500 3803 
L 500 4441 
Q 881 4594 1212 4672 
Q 1544 4750 1819 4750 
Q 2544 4750 2975 4387 
Q 3406 4025 3406 3419 
Q 3406 3131 3298 2873 
Q 3191 2616 2906 2266 
Q 2828 2175 2409 1742 
Q 1991 1309 1228 531 
z
" transform="scale(0.015625)"/>
       </defs>
       <use xlink:href="#DejaVuSans-31"/>
       <use xlink:href="#DejaVuSans-30" transform="translate(63.623047 0)"/>
       <use xlink:href="#DejaVuSans-32" transform="translate(127.246094 0)"/>
      </g>
     </g>
    </g>
    <g id="ytick_5">
     <g id="line2d_23">
      <path d="M 29.428438 73.171336 
L 475.828437 73.171336 
" clip-path="url(#p7e39f65e30)" style="fill: none; stroke: #374151; stroke-opacity: 0.1; stroke-width: 0.8; stroke-linecap: square"/>
     </g>
     <g id="line2d_24">
      <g>
       <use xlink:href="#mdb821eaad5" x="29.428438" y="73.171336" style="fill: #4b5563; stroke: #4b5563; stroke-width: 0.8"/>
      </g>
     </g>
     <g id="text_5">
      <!-- 104 -->
      <g style="fill: #4b5563" transform="translate(9.067187 75.830789) scale(0.07 -0.07)">
       <defs>
        <path id="DejaVuSans-34" d="M 2419 4116 
L 825 1625 
L 2419 1625 
L 2419 4116 
z
M 2253 4666 
L 3047 4666 
L 3047 1625 
L 3713 1625 
L 3713 1100 
L 3047 1100 
L 3047 0 
L 2419 0 
L 2419 1100 
L 313 1100 
L 313 1709 
L 2253 4666 
z
" transform="scale(0.015625)"/>
       </defs>
       <use xlink:href="#DejaVuSans-31"/>
       <use xlink:href="#DejaVuSans-30" transform="translate(63.623047 0)"/>
       <use xlink:href="#DejaVuSans-34" transform="translate(127.246094 0)"/>
      </g>
     </g>
    </g>
    <g id="ytick_6">
     <g id="line2d_25">
      <path d="M 29.428438 48.598318 
L 475.828437 48.598318 
" clip-path="url(#p7e39f65e30)" style="fill: none; stroke: #374151; stroke-opacity: 0.1; stroke-width: 0.8; stroke-linecap: square"/>
     </g>
     <g id="line2d_26">
      <g>
       <use xlink:href="#mdb821eaad5" x="29.428438" y="48.598318" style="fill: #4b5563; stroke: #4b5563; stroke-width: 0.8"/>
      </g>
     </g>
     <g id="text_6">
      <!-- 106 -->
      <g style="fill: #4b5563" transform="translate(9.067187 51.257771) scale(0.07 -0.07)">
       <use xlink:href="#DejaVuSans-31"/>
       <use xlink:href="#DejaVuSans-30" transform="translate(63.623047 0)"/>
       <use xlink:href="#DejaVuSans-36" transform="translate(127.246094 0)"/>
      </g>
     </g>
    </g>
   </g>
   <g id="line2d_27">
    <path d="M 43.828437 136.767201 
L 43.828437 100.811369 
" clip-path="url(#p7e39f65e30)" style="fill: none; stroke: #ef4444; stroke-width: 0.8; stroke-linecap: square"/>
   </g>
   <g id="line2d_28">
    <path d="M 58.228437 142.142379 
L 58.228437 102.783104 
" clip-path="url(#p7e39f65e30)" style="fill: none; stroke: #ef4444; stroke-width: 0.8; stroke-linecap: square"/>
   </g>
   <g id="line2d_29">
    <path d="M 72.628437 132.156394 
L 72.628437 117.650561 
" clip-path="url(#p7e39f65e30)" style="fill: none; stroke: #22c55e; stroke-width: 0.8; stroke-linecap: square"/>
   </g>
   <g id="line2d_30">
    <path d="M 87.028437 135.671542 
L 87.028437 105.092784 
" clip-path="url(#p7e39f65e30)" style="fill: none; stroke: #22c55e; stroke-width: 0.8; stroke-linecap: square"/>
   </g>
   <g id="line2d_31">
    <path d="M 101.428438 139.476341 
L 101.428438 104.712301 
" clip-path="url(#p7e39f65e30)" style="fill: none; stroke: #ef4444; stroke-width: 0.8; stroke-linecap: square"/>
   </g>
   <g id="line2d_32">
    <path d="M 115.828438 117.068137 
L 115.828438 78.705005 
" clip-path="url(#p7e39f65e30)" style="fill: none; stroke: #ef4444; stroke-width: 0.8; stroke-linecap: square"/>
   </g>
   <g id="line2d_33">
    <path d="M 130.228437 122.799728 
L 130.228437 96.03746 
" clip-path="url(#p7e39f65e30)" style="fill: none; stroke: #22c55e; stroke-width: 0.8; stroke-linecap: square"/>
   </g>
   <g id="line2d_34">
    <path d="M 144.628437 127.949534 
L 144.628437 83.83071 
" clip-path="url(#p7e39f65e30)" style="fill: none; stroke: #22c55e; stroke-width: 0.8; stroke-linecap: square"/>
   </g>
   <g id="line2d_35">
    <path d="M 159.028437 110.769302 
L 159.028437 76.029759 
" clip-path="url(#p7e39f65e30)" style="fill: none; stroke: #ef4444; stroke-width: 0.8; stroke-linecap: square"/>
   </g>
   <g id="line2d_36">
    <path d="M 173.428438 101.609913 
L 173.428438 73.219186 
" clip-path="url(#p7e39f65e30)" style="fill: none; stroke: #22c55e; stroke-width: 0.8; stroke-linecap: square"/>
   </g>
   <g id="line2d_37">
    <path d="M 187.828438 92.085146 
L 187.828438 60.589085 
" clip-path="url(#p7e39f65e30)" style="fill: none; stroke: #ef4444; stroke-width: 0.8; stroke-linecap: square"/>
   </g>
   <g id="line2d_38">
    <path d="M 202.228437 77.116719 
L 202.228437 32.174047 
" clip-path="url(#p7e39f65e30)" style="fill: none; stroke: #ef4444; stroke-width: 0.8; stroke-linecap: square"/>
   </g>
   <g id="line2d_39">
    <path d="M 216.628437 80.877055 
L 216.628437 52.237681 
" clip-path="url(#p7e39f65e30)" style="fill: none; stroke: #ef4444; stroke-width: 0.8; stroke-linecap: square"/>
   </g>
   <g id="line2d_40">
    <path d="M 231.028437 84.584805 
L 231.028437 53.225965 
" clip-path="url(#p7e39f65e30)" style="fill: none; stroke: #ef4444; stroke-width: 0.8; stroke-linecap: square"/>
   </g>
   <g id="line2d_41">
    <path d="M 245.428437 84.21493 
L 245.428437 53.38072 
" clip-path="url(#p7e39f65e30)" style="fill: none; stroke: #ef4444; stroke-width: 0.8; stroke-linecap: square"/>
   </g>
   <g id="line2d_42">
    <path d="M 259.828437 112.347618 
L 259.828437 83.460848 
" clip-path="url(#p7e39f65e30)" style="fill: none; stroke: #ef4444; stroke-width: 0.8; stroke-linecap: square"/>
   </g>
   <g id="line2d_43">
    <path d="M 274.228437 115.359443 
L 274.228437 72.091392 
" clip-path="url(#p7e39f65e30)" style="fill: none; stroke: #ef4444; stroke-width: 0.8; stroke-linecap: square"/>
   </g>
   <g id="line2d_44">
    <path d="M 288.628437 132.505178 
L 288.628437 81.938723 
" clip-path="url(#p7e39f65e30)" style="fill: none; stroke: #22c55e; stroke-width: 0.8; stroke-linecap: square"/>
   </g>
   <g id="line2d_45">
    <path d="M 303.028437 142.439636 
L 303.028437 102.498496 
" clip-path="url(#p7e39f65e30)" style="fill: none; stroke: #22c55e; stroke-width: 0.8; stroke-linecap: square"/>
   </g>
   <g id="line2d_46">
    <path d="M 317.428437 129.492008 
L 317.428437 93.307378 
" clip-path="url(#p7e39f65e30)" style="fill: none; stroke: #ef4444; stroke-width: 0.8; stroke-linecap: square"/>
   </g>
   <g id="line2d_47">
    <path d="M 331.828438 179.686242 
L 331.828438 137.623258 
" clip-path="url(#p7e39f65e30)" style="fill: none; stroke: #22c55e; stroke-width: 0.8; stroke-linecap: square"/>
   </g>
   <g id="line2d_48">
    <path d="M 346.228437 144.367728 
L 346.228437 124.722519 
" clip-path="url(#p7e39f65e30)" style="fill: none; stroke: #22c55e; stroke-width: 0.8; stroke-linecap: square"/>
   </g>
   <g id="line2d_49">
    <path d="M 360.628437 136.305327 
L 360.628437 88.005686 
" clip-path="url(#p7e39f65e30)" style="fill: none; stroke: #22c55e; stroke-width: 0.8; stroke-linecap: square"/>
   </g>
   <g id="line2d_50">
    <path d="M 375.028437 121.947307 
L 375.028437 95.292172 
" clip-path="url(#p7e39f65e30)" style="fill: none; stroke: #22c55e; stroke-width: 0.8; stroke-linecap: square"/>
   </g>
   <g id="line2d_51">
    <path d="M 389.428437 124.594941 
L 389.428437 87.072234 
" clip-path="url(#p7e39f65e30)" style="fill: none; stroke: #ef4444; stroke-width: 0.8; stroke-linecap: square"/>
   </g>
   <g id="line2d_52">
    <path d="M 403.828437 117.284842 
L 403.828437 94.857441 
" clip-path="url(#p7e39f65e30)" style="fill: none; stroke: #22c55e; stroke-width: 0.8; stroke-linecap: square"/>
   </g>
   <g id="line2d_53">
    <path d="M 418.228437 138.331514 
L 418.228437 82.85103 
" clip-path="url(#p7e39f65e30)" style="fill: none; stroke: #ef4444; stroke-width: 0.8; stroke-linecap: square"/>
   </g>
   <g id="line2d_54">
    <path d="M 432.628437 131.873259 
L 432.628437 99.217858 
" clip-path="url(#p7e39f65e30)" style="fill: none; stroke: #22c55e; stroke-width: 0.8; stroke-linecap: square"/>
   </g>
   <g id="line2d_55">
    <path d="M 447.028437 137.949542 
L 447.028437 103.946195 
" clip-path="url(#p7e39f65e30)" style="fill: none; stroke: #22c55e; stroke-width: 0.8; stroke-linecap: square"/>
   </g>
   <g id="line2d_56">
    <path d="M 461.428437 161.728654 
L 461.428437 139.327787 
" clip-path="url(#p7e39f65e30)" style="fill: none; stroke: #22c55e; stroke-width: 0.8; stroke-linecap: square"/>
   </g>
   <g id="patch_33">
    <path d="M 29.428438 187.061852 
L 29.428438 24.798437 
" style="fill: none; stroke: #1f2937; stroke-width: 0.8; stroke-linejoin: miter; stroke-linecap: square"/>
   </g>
   <g id="patch_34">
    <path d="M 29.428438 187.061852 
L 475.828437 187.061852 
" style="fill: none; stroke: #1f2937; stroke-width: 0.8; stroke-linejoin: miter; stroke-linecap: square"/>
   </g>
   <g id="text_7">
    <!-- Belt Hold (Bearish) — INTC 4H -->
    <g style="fill: #ffffff" transform="translate(168.056562 14.798438) scale(0.1 -0.1)">
     <defs>
      <path id="DejaVuSans-Bold-42" d="M 2456 2859 
Q 2741 2859 2887 2984 
Q 3034 3109 3034 3353 
Q 3034 3594 2887 3720 
Q 2741 3847 2456 3847 
L 1791 3847 
L 1791 2859 
L 2456 2859 
z
M 2497 819 
Q 2859 819 3042 972 
Q 3225 1125 3225 1434 
Q 3225 1738 3044 1889 
Q 2863 2041 2497 2041 
L 1791 2041 
L 1791 819 
L 2497 819 
z
M 3616 2497 
Q 4003 2384 4215 2081 
Q 4428 1778 4428 1338 
Q 4428 663 3972 331 
Q 3516 0 2584 0 
L 588 0 
L 588 4666 
L 2394 4666 
Q 3366 4666 3802 4372 
Q 4238 4078 4238 3431 
Q 4238 3091 4078 2852 
Q 3919 2613 3616 2497 
z
" transform="scale(0.015625)"/>
      <path id="DejaVuSans-Bold-65" d="M 4031 1759 
L 4031 1441 
L 1416 1441 
Q 1456 1047 1700 850 
Q 1944 653 2381 653 
Q 2734 653 3104 758 
Q 3475 863 3866 1075 
L 3866 213 
Q 3469 63 3072 -14 
Q 2675 -91 2278 -91 
Q 1328 -91 801 392 
Q 275 875 275 1747 
Q 275 2603 792 3093 
Q 1309 3584 2216 3584 
Q 3041 3584 3536 3087 
Q 4031 2591 4031 1759 
z
M 2881 2131 
Q 2881 2450 2695 2645 
Q 2509 2841 2209 2841 
Q 1884 2841 1681 2658 
Q 1478 2475 1428 2131 
L 2881 2131 
z
" transform="scale(0.015625)"/>
      <path id="DejaVuSans-Bold-6c" d="M 538 4863 
L 1656 4863 
L 1656 0 
L 538 0 
L 538 4863 
z
" transform="scale(0.015625)"/>
      <path id="DejaVuSans-Bold-74" d="M 1759 4494 
L 1759 3500 
L 2913 3500 
L 2913 2700 
L 1759 2700 
L 1759 1216 
Q 1759 972 1856 886 
Q 1953 800 2241 800 
L 2816 800 
L 2816 0 
L 1856 0 
Q 1194 0 917 276 
Q 641 553 641 1216 
L 641 2700 
L 84 2700 
L 84 3500 
L 641 3500 
L 641 4494 
L 1759 4494 
z
" transform="scale(0.015625)"/>
      <path id="DejaVuSans-Bold-20" transform="scale(0.015625)"/>
      <path id="DejaVuSans-Bold-48" d="M 588 4666 
L 1791 4666 
L 1791 2888 
L 3566 2888 
L 3566 4666 
L 4769 4666 
L 4769 0 
L 3566 0 
L 3566 1978 
L 1791 1978 
L 1791 0 
L 588 0 
L 588 4666 
z
" transform="scale(0.015625)"/>
      <path id="DejaVuSans-Bold-6f" d="M 2203 2784 
Q 1831 2784 1636 2517 
Q 1441 2250 1441 1747 
Q 1441 1244 1636 976 
Q 1831 709 2203 709 
Q 2569 709 2762 976 
Q 2956 1244 2956 1747 
Q 2956 2250 2762 2517 
Q 2569 2784 2203 2784 
z
M 2203 3584 
Q 3106 3584 3614 3096 
Q 4122 2609 4122 1747 
Q 4122 884 3614 396 
Q 3106 -91 2203 -91 
Q 1297 -91 786 396 
Q 275 884 275 1747 
Q 275 2609 786 3096 
Q 1297 3584 2203 3584 
z
" transform="scale(0.015625)"/>
      <path id="DejaVuSans-Bold-64" d="M 2919 2988 
L 2919 4863 
L 4044 4863 
L 4044 0 
L 2919 0 
L 2919 506 
Q 2688 197 2409 53 
Q 2131 -91 1766 -91 
Q 1119 -91 703 423 
Q 288 938 288 1747 
Q 288 2556 703 3070 
Q 1119 3584 1766 3584 
Q 2128 3584 2408 3439 
Q 2688 3294 2919 2988 
z
M 2181 722 
Q 2541 722 2730 984 
Q 2919 1247 2919 1747 
Q 2919 2247 2730 2509 
Q 2541 2772 2181 2772 
Q 1825 2772 1636 2509 
Q 1447 2247 1447 1747 
Q 1447 1247 1636 984 
Q 1825 722 2181 722 
z
" transform="scale(0.015625)"/>
      <path id="DejaVuSans-Bold-28" d="M 2413 -844 
L 1484 -844 
Q 1006 -72 778 623 
Q 550 1319 550 2003 
Q 550 2688 779 3389 
Q 1009 4091 1484 4856 
L 2413 4856 
Q 2013 4116 1813 3408 
Q 1613 2700 1613 2009 
Q 1613 1319 1811 609 
Q 2009 -100 2413 -844 
z
" transform="scale(0.015625)"/>
      <path id="DejaVuSans-Bold-61" d="M 2106 1575 
Q 1756 1575 1579 1456 
Q 1403 1338 1403 1106 
Q 1403 894 1545 773 
Q 1688 653 1941 653 
Q 2256 653 2472 879 
Q 2688 1106 2688 1447 
L 2688 1575 
L 2106 1575 
z
M 3816 1997 
L 3816 0 
L 2688 0 
L 2688 519 
Q 2463 200 2181 54 
Q 1900 -91 1497 -91 
Q 953 -91 614 226 
Q 275 544 275 1050 
Q 275 1666 698 1953 
Q 1122 2241 2028 2241 
L 2688 2241 
L 2688 2328 
Q 2688 2594 2478 2717 
Q 2269 2841 1825 2841 
Q 1466 2841 1156 2769 
Q 847 2697 581 2553 
L 581 3406 
Q 941 3494 1303 3539 
Q 1666 3584 2028 3584 
Q 2975 3584 3395 3211 
Q 3816 2838 3816 1997 
z
" transform="scale(0.015625)"/>
      <path id="DejaVuSans-Bold-72" d="M 3138 2547 
Q 2991 2616 2845 2648 
Q 2700 2681 2553 2681 
Q 2122 2681 1889 2404 
Q 1656 2128 1656 1613 
L 1656 0 
L 538 0 
L 538 3500 
L 1656 3500 
L 1656 2925 
Q 1872 3269 2151 3426 
Q 2431 3584 2822 3584 
Q 2878 3584 2943 3579 
Q 3009 3575 3134 3559 
L 3138 2547 
z
" transform="scale(0.015625)"/>
      <path id="DejaVuSans-Bold-69" d="M 538 3500 
L 1656 3500 
L 1656 0 
L 538 0 
L 538 3500 
z
M 538 4863 
L 1656 4863 
L 1656 3950 
L 538 3950 
L 538 4863 
z
" transform="scale(0.015625)"/>
      <path id="DejaVuSans-Bold-73" d="M 3272 3391 
L 3272 2541 
Q 2913 2691 2578 2766 
Q 2244 2841 1947 2841 
Q 1628 2841 1473 2761 
Q 1319 2681 1319 2516 
Q 1319 2381 1436 2309 
Q 1553 2238 1856 2203 
L 2053 2175 
Q 2913 2066 3209 1816 
Q 3506 1566 3506 1031 
Q 3506 472 3093 190 
Q 2681 -91 1863 -91 
Q 1516 -91 1145 -36 
Q 775 19 384 128 
L 384 978 
Q 719 816 1070 734 
Q 1422 653 1784 653 
Q 2113 653 2278 743 
Q 2444 834 2444 1013 
Q 2444 1163 2330 1236 
Q 2216 1309 1875 1350 
L 1678 1375 
Q 931 1469 631 1722 
Q 331 1975 331 2491 
Q 331 3047 712 3315 
Q 1094 3584 1881 3584 
Q 2191 3584 2531 3537 
Q 2872 3491 3272 3391 
z
" transform="scale(0.015625)"/>
      <path id="DejaVuSans-Bold-68" d="M 4056 2131 
L 4056 0 
L 2931 0 
L 2931 347 
L 2931 1625 
Q 2931 2084 2911 2256 
Q 2891 2428 2841 2509 
Q 2775 2619 2662 2680 
Q 2550 2741 2406 2741 
Q 2056 2741 1856 2470 
Q 1656 2200 1656 1722 
L 1656 0 
L 538 0 
L 538 4863 
L 1656 4863 
L 1656 2988 
Q 1909 3294 2193 3439 
Q 2478 3584 2822 3584 
Q 3428 3584 3742 3212 
Q 4056 2841 4056 2131 
z
" transform="scale(0.015625)"/>
      <path id="DejaVuSans-Bold-29" d="M 513 -844 
Q 913 -100 1113 609 
Q 1313 1319 1313 2009 
Q 1313 2700 1113 3408 
Q 913 4116 513 4856 
L 1441 4856 
Q 1916 4091 2145 3389 
Q 2375 2688 2375 2003 
Q 2375 1319 2147 623 
Q 1919 -72 1441 -844 
L 513 -844 
z
" transform="scale(0.015625)"/>
      <path id="DejaVuSans-Bold-2014" d="M 344 2156 
L 6056 2156 
L 6056 1350 
L 344 1350 
L 344 2156 
z
" transform="scale(0.015625)"/>
      <path id="DejaVuSans-Bold-49" d="M 588 4666 
L 1791 4666 
L 1791 0 
L 588 0 
L 588 4666 
z
" transform="scale(0.015625)"/>
      <path id="DejaVuSans-Bold-4e" d="M 588 4666 
L 1931 4666 
L 3628 1466 
L 3628 4666 
L 4769 4666 
L 4769 0 
L 3425 0 
L 1728 3200 
L 1728 0 
L 588 0 
L 588 4666 
z
" transform="scale(0.015625)"/>
      <path id="DejaVuSans-Bold-54" d="M 31 4666 
L 4331 4666 
L 4331 3756 
L 2784 3756 
L 2784 0 
L 1581 0 
L 1581 3756 
L 31 3756 
L 31 4666 
z
" transform="scale(0.015625)"/>
      <path id="DejaVuSans-Bold-43" d="M 4288 256 
Q 3956 84 3597 -3 
Q 3238 -91 2847 -91 
Q 1681 -91 1000 561 
Q 319 1213 319 2328 
Q 319 3447 1000 4098 
Q 1681 4750 2847 4750 
Q 3238 4750 3597 4662 
Q 3956 4575 4288 4403 
L 4288 3438 
Q 3953 3666 3628 3772 
Q 3303 3878 2944 3878 
Q 2300 3878 1931 3465 
Q 1563 3053 1563 2328 
Q 1563 1606 1931 1193 
Q 2300 781 2944 781 
Q 3303 781 3628 887 
Q 3953 994 4288 1222 
L 4288 256 
z
" transform="scale(0.015625)"/>
      <path id="DejaVuSans-Bold-34" d="M 2356 3675 
L 1038 1722 
L 2356 1722 
L 2356 3675 
z
M 2156 4666 
L 3494 4666 
L 3494 1722 
L 4159 1722 
L 4159 850 
L 3494 850 
L 3494 0 
L 2356 0 
L 2356 850 
L 288 850 
L 288 1881 
L 2156 4666 
z
" transform="scale(0.015625)"/>
     </defs>
     <use xlink:href="#DejaVuSans-Bold-42"/>
     <use xlink:href="#DejaVuSans-Bold-65" transform="translate(76.220703 0)"/>
     <use xlink:href="#DejaVuSans-Bold-6c" transform="translate(144.042969 0)"/>
     <use xlink:href="#DejaVuSans-Bold-74" transform="translate(178.320312 0)"/>
     <use xlink:href="#DejaVuSans-Bold-20" transform="translate(226.123047 0)"/>
     <use xlink:href="#DejaVuSans-Bold-48" transform="translate(260.9375 0)"/>
     <use xlink:href="#DejaVuSans-Bold-6f" transform="translate(344.628906 0)"/>
     <use xlink:href="#DejaVuSans-Bold-6c" transform="translate(413.330078 0)"/>
     <use xlink:href="#DejaVuSans-Bold-64" transform="translate(447.607422 0)"/>
     <use xlink:href="#DejaVuSans-Bold-20" transform="translate(519.189453 0)"/>
     <use xlink:href="#DejaVuSans-Bold-28" transform="translate(554.003906 0)"/>
     <use xlink:href="#DejaVuSans-Bold-42" transform="translate(599.707031 0)"/>
     <use xlink:href="#DejaVuSans-Bold-65" transform="translate(675.927734 0)"/>
     <use xlink:href="#DejaVuSans-Bold-61" transform="translate(743.75 0)"/>
     <use xlink:href="#DejaVuSans-Bold-72" transform="translate(811.230469 0)"/>
     <use xlink:href="#DejaVuSans-Bold-69" transform="translate(860.546875 0)"/>
     <use xlink:href="#DejaVuSans-Bold-73" transform="translate(894.824219 0)"/>
     <use xlink:href="#DejaVuSans-Bold-68" transform="translate(954.345703 0)"/>
     <use xlink:href="#DejaVuSans-Bold-29" transform="translate(1025.537109 0)"/>
     <use xlink:href="#DejaVuSans-Bold-20" transform="translate(1071.240234 0)"/>
     <use xlink:href="#DejaVuSans-Bold-2014" transform="translate(1106.054688 0)"/>
     <use xlink:href="#DejaVuSans-Bold-20" transform="translate(1206.054688 0)"/>
     <use xlink:href="#DejaVuSans-Bold-49" transform="translate(1240.869141 0)"/>
     <use xlink:href="#DejaVuSans-Bold-4e" transform="translate(1278.076172 0)"/>
     <use xlink:href="#DejaVuSans-Bold-54" transform="translate(1361.767578 0)"/>
     <use xlink:href="#DejaVuSans-Bold-43" transform="translate(1429.980469 0)"/>
     <use xlink:href="#DejaVuSans-Bold-20" transform="translate(1503.369141 0)"/>
     <use xlink:href="#DejaVuSans-Bold-34" transform="translate(1538.183594 0)"/>
     <use xlink:href="#DejaVuSans-Bold-48" transform="translate(1607.763672 0)"/>
    </g>
   </g>
  </g>
  <g id="axes_2">
   <g id="patch_35">
    <path d="M 29.428438 246.558438 
L 475.828437 246.558438 
L 475.828437 192.470633 
L 29.428438 192.470633 
z
" style="fill: #0a0f1a"/>
   </g>
   <g id="patch_36">
    <path d="M 49.719347 246.558438 
L 59.284085 246.558438 
L 59.284085 195.173704 
L 49.719347 195.173704 
z
" clip-path="url(#p797081eeb7)" style="fill: #ef4444; fill-opacity: 0.533333"/>
   </g>
   <g id="patch_37">
    <path d="M 63.383258 246.558438 
L 72.947997 246.558438 
L 72.947997 229.245188 
L 63.383258 229.245188 
z
" clip-path="url(#p797081eeb7)" style="fill: #ef4444; fill-opacity: 0.533333"/>
   </g>
   <g id="patch_38">
    <path d="M 77.04717 246.558438 
L 86.611909 246.558438 
L 86.611909 204.127499 
L 77.04717 204.127499 
z
" clip-path="url(#p797081eeb7)" style="fill: #22c55e; fill-opacity: 0.533333"/>
   </g>
   <g id="patch_39">
    <path d="M 90.711082 246.558438 
L 100.27582 246.558438 
L 100.27582 209.340881 
L 90.711082 209.340881 
z
" clip-path="url(#p797081eeb7)" style="fill: #22c55e; fill-opacity: 0.533333"/>
   </g>
   <g id="patch_40">
    <path d="M 104.374994 246.558438 
L 113.939732 246.558438 
L 113.939732 195.046242 
L 104.374994 195.046242 
z
" clip-path="url(#p797081eeb7)" style="fill: #ef4444; fill-opacity: 0.533333"/>
   </g>
   <g id="patch_41">
    <path d="M 118.038906 246.558438 
L 127.603644 246.558438 
L 127.603644 215.738042 
L 118.038906 215.738042 
z
" clip-path="url(#p797081eeb7)" style="fill: #ef4444; fill-opacity: 0.533333"/>
   </g>
   <g id="patch_42">
    <path d="M 131.702818 246.558438 
L 141.267556 246.558438 
L 141.267556 204.40582 
L 131.702818 204.40582 
z
" clip-path="url(#p797081eeb7)" style="fill: #22c55e; fill-opacity: 0.533333"/>
   </g>
   <g id="patch_43">
    <path d="M 145.36673 246.558438 
L 154.931468 246.558438 
L 154.931468 211.545349 
L 145.36673 211.545349 
z
" clip-path="url(#p797081eeb7)" style="fill: #22c55e; fill-opacity: 0.533333"/>
   </g>
   <g id="patch_44">
    <path d="M 159.030641 246.558438 
L 168.59538 246.558438 
L 168.59538 222.286199 
L 159.030641 222.286199 
z
" clip-path="url(#p797081eeb7)" style="fill: #ef4444; fill-opacity: 0.533333"/>
   </g>
   <g id="patch_45">
    <path d="M 172.694553 246.558438 
L 182.259291 246.558438 
L 182.259291 212.830088 
L 172.694553 212.830088 
z
" clip-path="url(#p797081eeb7)" style="fill: #22c55e; fill-opacity: 0.533333"/>
   </g>
   <g id="patch_46">
    <path d="M 186.358465 246.558438 
L 195.923203 246.558438 
L 195.923203 209.573507 
L 186.358465 209.573507 
z
" clip-path="url(#p797081eeb7)" style="fill: #ef4444; fill-opacity: 0.533333"/>
   </g>
   <g id="patch_47">
    <path d="M 200.022377 246.558438 
L 209.587115 246.558438 
L 209.587115 226.994635 
L 200.022377 226.994635 
z
" clip-path="url(#p797081eeb7)" style="fill: #ef4444; fill-opacity: 0.533333"/>
   </g>
   <g id="patch_48">
    <path d="M 213.686289 246.558438 
L 223.251027 246.558438 
L 223.251027 218.19491 
L 213.686289 218.19491 
z
" clip-path="url(#p797081eeb7)" style="fill: #ef4444; fill-opacity: 0.533333"/>
   </g>
   <g id="patch_49">
    <path d="M 227.350201 246.558438 
L 236.914939 246.558438 
L 236.914939 232.425928 
L 227.350201 232.425928 
z
" clip-path="url(#p797081eeb7)" style="fill: #ef4444; fill-opacity: 0.533333"/>
   </g>
   <g id="patch_50">
    <path d="M 241.014112 246.558438 
L 250.578851 246.558438 
L 250.578851 234.771431 
L 241.014112 234.771431 
z
" clip-path="url(#p797081eeb7)" style="fill: #ef4444; fill-opacity: 0.533333"/>
   </g>
   <g id="patch_51">
    <path d="M 254.678024 246.558438 
L 264.242763 246.558438 
L 264.242763 218.707388 
L 254.678024 218.707388 
z
" clip-path="url(#p797081eeb7)" style="fill: #ef4444; fill-opacity: 0.533333"/>
   </g>
   <g id="patch_52">
    <path d="M 268.341936 246.558438 
L 277.906674 246.558438 
L 277.906674 197.740024 
L 268.341936 197.740024 
z
" clip-path="url(#p797081eeb7)" style="fill: #ef4444; fill-opacity: 0.533333"/>
   </g>
   <g id="patch_53">
    <path d="M 282.005848 246.558438 
L 291.570586 246.558438 
L 291.570586 211.394543 
L 282.005848 211.394543 
z
" clip-path="url(#p797081eeb7)" style="fill: #22c55e; fill-opacity: 0.533333"/>
   </g>
   <g id="patch_54">
    <path d="M 295.66976 246.558438 
L 305.234498 246.558438 
L 305.234498 205.715846 
L 295.66976 205.715846 
z
" clip-path="url(#p797081eeb7)" style="fill: #22c55e; fill-opacity: 0.533333"/>
   </g>
   <g id="patch_55">
    <path d="M 309.333672 246.558438 
L 318.89841 246.558438 
L 318.89841 212.260518 
L 309.333672 212.260518 
z
" clip-path="url(#p797081eeb7)" style="fill: #ef4444; fill-opacity: 0.533333"/>
   </g>
   <g id="patch_56">
    <path d="M 322.997584 246.558438 
L 332.562322 246.558438 
L 332.562322 214.558361 
L 322.997584 214.558361 
z
" clip-path="url(#p797081eeb7)" style="fill: #22c55e; fill-opacity: 0.533333"/>
   </g>
   <g id="patch_57">
    <path d="M 336.661495 246.558438 
L 346.226234 246.558438 
L 346.226234 204.241441 
L 336.661495 204.241441 
z
" clip-path="url(#p797081eeb7)" style="fill: #22c55e; fill-opacity: 0.533333"/>
   </g>
   <g id="patch_58">
    <path d="M 350.325407 246.558438 
L 359.890145 246.558438 
L 359.890145 197.492019 
L 350.325407 197.492019 
z
" clip-path="url(#p797081eeb7)" style="fill: #22c55e; fill-opacity: 0.533333"/>
   </g>
   <g id="patch_59">
    <path d="M 363.989319 246.558438 
L 373.554057 246.558438 
L 373.554057 215.666658 
L 363.989319 215.666658 
z
" clip-path="url(#p797081eeb7)" style="fill: #22c55e; fill-opacity: 0.533333"/>
   </g>
   <g id="patch_60">
    <path d="M 377.653231 246.558438 
L 387.217969 246.558438 
L 387.217969 209.214327 
L 377.653231 209.214327 
z
" clip-path="url(#p797081eeb7)" style="fill: #ef4444; fill-opacity: 0.533333"/>
   </g>
   <g id="patch_61">
    <path d="M 391.317143 246.558438 
L 400.881881 246.558438 
L 400.881881 225.99354 
L 391.317143 225.99354 
z
" clip-path="url(#p797081eeb7)" style="fill: #22c55e; fill-opacity: 0.533333"/>
   </g>
   <g id="patch_62">
    <path d="M 404.981055 246.558438 
L 414.545793 246.558438 
L 414.545793 204.738286 
L 404.981055 204.738286 
z
" clip-path="url(#p797081eeb7)" style="fill: #ef4444; fill-opacity: 0.533333"/>
   </g>
   <g id="patch_63">
    <path d="M 418.644966 246.558438 
L 428.209705 246.558438 
L 428.209705 226.891942 
L 418.644966 226.891942 
z
" clip-path="url(#p797081eeb7)" style="fill: #22c55e; fill-opacity: 0.533333"/>
   </g>
   <g id="patch_64">
    <path d="M 432.308878 246.558438 
L 441.873617 246.558438 
L 441.873617 208.803559 
L 432.308878 208.803559 
z
" clip-path="url(#p797081eeb7)" style="fill: #22c55e; fill-opacity: 0.533333"/>
   </g>
   <g id="patch_65">
    <path d="M 445.97279 246.558438 
L 455.537528 246.558438 
L 455.537528 210.49425 
L 445.97279 210.49425 
z
" clip-path="url(#p797081eeb7)" style="fill: #22c55e; fill-opacity: 0.533333"/>
   </g>
   <g id="matplotlib.axis_3">
    <g id="xtick_8">
     <g id="line2d_57">
      <path d="M 54.501716 246.558438 
L 54.501716 192.470633 
" clip-path="url(#p797081eeb7)" style="fill: none; stroke: #374151; stroke-opacity: 0.1; stroke-width: 0.8; stroke-linecap: square"/>
     </g>
     <g id="line2d_58">
      <g>
       <use xlink:href="#m3d250d3220" x="54.501716" y="246.558438" style="fill: #4b5563; stroke: #4b5563; stroke-width: 0.8"/>
      </g>
     </g>
     <g id="text_8">
      <!-- 0 -->
      <g style="fill: #4b5563" transform="translate(52.274841 258.877344) scale(0.07 -0.07)">
       <use xlink:href="#DejaVuSans-30"/>
      </g>
     </g>
    </g>
    <g id="xtick_9">
     <g id="line2d_59">
      <path d="M 122.821275 246.558438 
L 122.821275 192.470633 
" clip-path="url(#p797081eeb7)" style="fill: none; stroke: #374151; stroke-opacity: 0.1; stroke-width: 0.8; stroke-linecap: square"/>
     </g>
     <g id="line2d_60">
      <g>
       <use xlink:href="#m3d250d3220" x="122.821275" y="246.558438" style="fill: #4b5563; stroke: #4b5563; stroke-width: 0.8"/>
      </g>
     </g>
     <g id="text_9">
      <!-- 5 -->
      <g style="fill: #4b5563" transform="translate(120.5944 258.877344) scale(0.07 -0.07)">
       <defs>
        <path id="DejaVuSans-35" d="M 691 4666 
L 3169 4666 
L 3169 4134 
L 1269 4134 
L 1269 2991 
Q 1406 3038 1543 3061 
Q 1681 3084 1819 3084 
Q 2600 3084 3056 2656 
Q 3513 2228 3513 1497 
Q 3513 744 3044 326 
Q 2575 -91 1722 -91 
Q 1428 -91 1123 -41 
Q 819 9 494 109 
L 494 744 
Q 775 591 1075 516 
Q 1375 441 1709 441 
Q 2250 441 2565 725 
Q 2881 1009 2881 1497 
Q 2881 1984 2565 2268 
Q 2250 2553 1709 2553 
Q 1456 2553 1204 2497 
Q 953 2441 691 2322 
L 691 4666 
z
" transform="scale(0.015625)"/>
       </defs>
       <use xlink:href="#DejaVuSans-35"/>
      </g>
     </g>
    </g>
    <g id="xtick_10">
     <g id="line2d_61">
      <path d="M 191.140834 246.558438 
L 191.140834 192.470633 
" clip-path="url(#p797081eeb7)" style="fill: none; stroke: #374151; stroke-opacity: 0.1; stroke-width: 0.8; stroke-linecap: square"/>
     </g>
     <g id="line2d_62">
      <g>
       <use xlink:href="#m3d250d3220" x="191.140834" y="246.558438" style="fill: #4b5563; stroke: #4b5563; stroke-width: 0.8"/>
      </g>
     </g>
     <g id="text_10">
      <!-- 10 -->
      <g style="fill: #4b5563" transform="translate(186.687084 258.877344) scale(0.07 -0.07)">
       <use xlink:href="#DejaVuSans-31"/>
       <use xlink:href="#DejaVuSans-30" transform="translate(63.623047 0)"/>
      </g>
     </g>
    </g>
    <g id="xtick_11">
     <g id="line2d_63">
      <path d="M 259.460393 246.558438 
L 259.460393 192.470633 
" clip-path="url(#p797081eeb7)" style="fill: none; stroke: #374151; stroke-opacity: 0.1; stroke-width: 0.8; stroke-linecap: square"/>
     </g>
     <g id="line2d_64">
      <g>
       <use xlink:href="#m3d250d3220" x="259.460393" y="246.558438" style="fill: #4b5563; stroke: #4b5563; stroke-width: 0.8"/>
      </g>
     </g>
     <g id="text_11">
      <!-- 15 -->
      <g style="fill: #4b5563" transform="translate(255.006643 258.877344) scale(0.07 -0.07)">
       <use xlink:href="#DejaVuSans-31"/>
       <use xlink:href="#DejaVuSans-35" transform="translate(63.623047 0)"/>
      </g>
     </g>
    </g>
    <g id="xtick_12">
     <g id="line2d_65">
      <path d="M 327.779953 246.558438 
L 327.779953 192.470633 
" clip-path="url(#p797081eeb7)" style="fill: none; stroke: #374151; stroke-opacity: 0.1; stroke-width: 0.8; stroke-linecap: square"/>
     </g>
     <g id="line2d_66">
      <g>
       <use xlink:href="#m3d250d3220" x="327.779953" y="246.558438" style="fill: #4b5563; stroke: #4b5563; stroke-width: 0.8"/>
      </g>
     </g>
     <g id="text_12">
      <!-- 20 -->
      <g style="fill: #4b5563" transform="translate(323.326203 258.877344) scale(0.07 -0.07)">
       <use xlink:href="#DejaVuSans-32"/>
       <use xlink:href="#DejaVuSans-30" transform="translate(63.623047 0)"/>
      </g>
     </g>
    </g>
    <g id="xtick_13">
     <g id="line2d_67">
      <path d="M 396.099512 246.558438 
L 396.099512 192.470633 
" clip-path="url(#p797081eeb7)" style="fill: none; stroke: #374151; stroke-opacity: 0.1; stroke-width: 0.8; stroke-linecap: square"/>
     </g>
     <g id="line2d_68">
      <g>
       <use xlink:href="#m3d250d3220" x="396.099512" y="246.558438" style="fill: #4b5563; stroke: #4b5563; stroke-width: 0.8"/>
      </g>
     </g>
     <g id="text_13">
      <!-- 25 -->
      <g style="fill: #4b5563" transform="translate(391.645762 258.877344) scale(0.07 -0.07)">
       <use xlink:href="#DejaVuSans-32"/>
       <use xlink:href="#DejaVuSans-35" transform="translate(63.623047 0)"/>
      </g>
     </g>
    </g>
    <g id="xtick_14">
     <g id="line2d_69">
      <path d="M 464.419071 246.558438 
L 464.419071 192.470633 
" clip-path="url(#p797081eeb7)" style="fill: none; stroke: #374151; stroke-opacity: 0.1; stroke-width: 0.8; stroke-linecap: square"/>
     </g>
     <g id="line2d_70">
      <g>
       <use xlink:href="#m3d250d3220" x="464.419071" y="246.558438" style="fill: #4b5563; stroke: #4b5563; stroke-width: 0.8"/>
      </g>
     </g>
     <g id="text_14">
      <!-- 30 -->
      <g style="fill: #4b5563" transform="translate(459.965321 258.877344) scale(0.07 -0.07)">
       <defs>
        <path id="DejaVuSans-33" d="M 2597 2516 
Q 3050 2419 3304 2112 
Q 3559 1806 3559 1356 
Q 3559 666 3084 287 
Q 2609 -91 1734 -91 
Q 1441 -91 1130 -33 
Q 819 25 488 141 
L 488 750 
Q 750 597 1062 519 
Q 1375 441 1716 441 
Q 2309 441 2620 675 
Q 2931 909 2931 1356 
Q 2931 1769 2642 2001 
Q 2353 2234 1838 2234 
L 1294 2234 
L 1294 2753 
L 1863 2753 
Q 2328 2753 2575 2939 
Q 2822 3125 2822 3475 
Q 2822 3834 2567 4026 
Q 2313 4219 1838 4219 
Q 1578 4219 1281 4162 
Q 984 4106 628 3988 
L 628 4550 
Q 988 4650 1302 4700 
Q 1616 4750 1894 4750 
Q 2613 4750 3031 4423 
Q 3450 4097 3450 3541 
Q 3450 3153 3228 2886 
Q 3006 2619 2597 2516 
z
" transform="scale(0.015625)"/>
       </defs>
       <use xlink:href="#DejaVuSans-33"/>
       <use xlink:href="#DejaVuSans-30" transform="translate(63.623047 0)"/>
      </g>
     </g>
    </g>
   </g>
   <g id="matplotlib.axis_4">
    <g id="ytick_7">
     <g id="line2d_71">
      <path d="M 29.428438 246.558438 
L 475.828437 246.558438 
" clip-path="url(#p797081eeb7)" style="fill: none; stroke: #374151; stroke-opacity: 0.1; stroke-width: 0.8; stroke-linecap: square"/>
     </g>
     <g id="line2d_72">
      <g>
       <use xlink:href="#mdb821eaad5" x="29.428438" y="246.558438" style="fill: #4b5563; stroke: #4b5563; stroke-width: 0.8"/>
      </g>
     </g>
     <g id="text_15">
      <!-- 0 -->
      <g style="fill: #4b5563" transform="translate(17.974688 249.217891) scale(0.07 -0.07)">
       <use xlink:href="#DejaVuSans-30"/>
      </g>
     </g>
    </g>
    <g id="ytick_8">
     <g id="line2d_73">
      <path d="M 29.428438 225.432726 
L 475.828437 225.432726 
" clip-path="url(#p797081eeb7)" style="fill: none; stroke: #374151; stroke-opacity: 0.1; stroke-width: 0.8; stroke-linecap: square"/>
     </g>
     <g id="line2d_74">
      <g>
       <use xlink:href="#mdb821eaad5" x="29.428438" y="225.432726" style="fill: #4b5563; stroke: #4b5563; stroke-width: 0.8"/>
      </g>
     </g>
     <g id="text_16">
      <!-- 2 -->
      <g style="fill: #4b5563" transform="translate(17.974688 228.092179) scale(0.07 -0.07)">
       <use xlink:href="#DejaVuSans-32"/>
      </g>
     </g>
    </g>
    <g id="ytick_9">
     <g id="line2d_75">
      <path d="M 29.428438 204.307015 
L 475.828437 204.307015 
" clip-path="url(#p797081eeb7)" style="fill: none; stroke: #374151; stroke-opacity: 0.1; stroke-width: 0.8; stroke-linecap: square"/>
     </g>
     <g id="line2d_76">
      <g>
       <use xlink:href="#mdb821eaad5" x="29.428438" y="204.307015" style="fill: #4b5563; stroke: #4b5563; stroke-width: 0.8"/>
      </g>
     </g>
     <g id="text_17">
      <!-- 4 -->
      <g style="fill: #4b5563" transform="translate(17.974688 206.966468) scale(0.07 -0.07)">
       <use xlink:href="#DejaVuSans-34"/>
      </g>
     </g>
    </g>
    <g id="text_18">
     <!-- Vol -->
     <g style="fill: #4b5563" transform="translate(12.518906 224.75141) rotate(-90) scale(0.07 -0.07)">
      <defs>
       <path id="DejaVuSans-56" d="M 1831 0 
L 50 4666 
L 709 4666 
L 2188 738 
L 3669 4666 
L 4325 4666 
L 2547 0 
L 1831 0 
z
" transform="scale(0.015625)"/>
       <path id="DejaVuSans-6f" d="M 1959 3097 
Q 1497 3097 1228 2736 
Q 959 2375 959 1747 
Q 959 1119 1226 758 
Q 1494 397 1959 397 
Q 2419 397 2687 759 
Q 2956 1122 2956 1747 
Q 2956 2369 2687 2733 
Q 2419 3097 1959 3097 
z
M 1959 3584 
Q 2709 3584 3137 3096 
Q 3566 2609 3566 1747 
Q 3566 888 3137 398 
Q 2709 -91 1959 -91 
Q 1206 -91 779 398 
Q 353 888 353 1747 
Q 353 2609 779 3096 
Q 1206 3584 1959 3584 
z
" transform="scale(0.015625)"/>
       <path id="DejaVuSans-6c" d="M 603 4863 
L 1178 4863 
L 1178 0 
L 603 0 
L 603 4863 
z
" transform="scale(0.015625)"/>
      </defs>
      <use xlink:href="#DejaVuSans-56"/>
      <use xlink:href="#DejaVuSans-6f" transform="translate(60.658203 0)"/>
      <use xlink:href="#DejaVuSans-6c" transform="translate(121.839844 0)"/>
     </g>
    </g>
    <g id="text_19">
     <!-- 1e6 -->
     <g style="fill: #4b5563" transform="translate(29.428438 189.470633) scale(0.1 -0.1)">
      <defs>
       <path id="DejaVuSans-65" d="M 3597 1894 
L 3597 1613 
L 953 1613 
Q 991 1019 1311 708 
Q 1631 397 2203 397 
Q 2534 397 2845 478 
Q 3156 559 3463 722 
L 3463 178 
Q 3153 47 2828 -22 
Q 2503 -91 2169 -91 
Q 1331 -91 842 396 
Q 353 884 353 1716 
Q 353 2575 817 3079 
Q 1281 3584 2069 3584 
Q 2775 3584 3186 3129 
Q 3597 2675 3597 1894 
z
M 3022 2063 
Q 3016 2534 2758 2815 
Q 2500 3097 2075 3097 
Q 1594 3097 1305 2825 
Q 1016 2553 972 2059 
L 3022 2063 
z
" transform="scale(0.015625)"/>
      </defs>
      <use xlink:href="#DejaVuSans-31"/>
      <use xlink:href="#DejaVuSans-65" transform="translate(63.623047 0)"/>
      <use xlink:href="#DejaVuSans-36" transform="translate(125.146484 0)"/>
     </g>
    </g>
   </g>
   <g id="patch_66">
    <path d="M 29.428438 246.558438 
L 29.428438 192.470633 
" style="fill: none; stroke: #1f2937; stroke-width: 0.8; stroke-linejoin: miter; stroke-linecap: square"/>
   </g>
   <g id="patch_67">
    <path d="M 29.428438 246.558438 
L 475.828438 246.558438 
" style="fill: none; stroke: #1f2937; stroke-width: 0.8; stroke-linejoin: miter; stroke-linecap: square"/>
   </g>
  </g>
 </g>
 <defs>
  <clipPath id="p7e39f65e30">
   <rect x="29.428438" y="24.798438" width="446.4" height="162.263415"/>
  </clipPath>
  <clipPath id="p797081eeb7">
   <rect x="29.428438" y="192.470633" width="446.4" height="54.087805"/>
  </clipPath>
 </defs>
</svg>
