<?xml version="1.0" encoding="utf-8" standalone="no"?>
<!DOCTYPE svg PUBLIC "-//W3C//DTD SVG 1.1//EN"
  "http://www.w3.org/Graphics/SVG/1.1/DTD/svg11.dtd">
<svg xmlns:xlink="http://www.w3.org/1999/xlink" width="484.6325pt" height="275.020625pt" viewBox="0 0 484.6325 275.020625" xmlns="http://www.w3.org/2000/svg" version="1.1">
 <metadata>
  <rdf:RDF xmlns:dc="http://purl.org/dc/elements/1.1/" xmlns:cc="http://creativecommons.org/ns#" xmlns:rdf="http://www.w3.org/1999/02/22-rdf-syntax-ns#">
   <cc:Work>
    <dc:type rdf:resource="http://purl.org/dc/dcmitype/StillImage"/>
    <dc:date>2026-02-16T08:56:51.350598</dc:date>
    <dc:format>image/svg+xml</dc:format>
    <dc:creator>
     <cc:Agent>
      <dc:title>Matplotlib v3.10.8, https://matplotlib.org/</dc:title>
     </cc:Agent>
    </dc:creator>
   </cc:Work>
  </rdf:RDF>
 </metadata>
 <defs>
  <style type="text/css">*{stroke-linejoin: round; stroke-linecap: butt}</style>
 </defs>
 <g id="figure_1">
  <g id="patch_1">
   <path d="M 0 275.020625 
L 484.6325 275.020625 
L 484.6325 0 
L 0 0 
z
" style="fill: #0a0f1a"/>
  </g>
  <g id="axes_1">
   <g id="patch_2">
    <path d="M 31.0325 193.58154 
L 477.4325 193.58154 
L 477.4325 31.318125 
L 31.0325 31.318125 
z
" style="fill: #0a0f1a"/>
   </g>
   <g id="patch_3">
    <path d="M 40.3925 70.029493 
L 50.4725 70.029493 
Q 50.7605 70.029493 50.7605 69.796695 
L 50.7605 61.028955 
Q 50.7605 60.796157 50.4725 60.796157 
L 40.3925 60.796157 
Q 40.1045 60.796157 40.1045 61.028955 
L 40.1045 69.796695 
Q 40.1045 70.029493 40.3925 70.029493 
z
" clip-path="url(#p8e824b9c07)" style="fill: #ef4444; stroke: #ef4444; stroke-linejoin: miter"/>
   </g>
   <g id="patch_4">
    <path d="M 54.7925 56.839415 
L 64.8725 56.839415 
Q 65.1605 56.839415 65.1605 56.606617 
L 65.1605 52.109602 
Q 65.1605 51.876804 64.8725 51.876804 
L 54.7925 51.876804 
Q 54.5045 51.876804 54.5045 52.109602 
L 54.5045 56.606617 
Q 54.5045 56.839415 54.7925 56.839415 
z
" clip-path="url(#p8e824b9c07)" style="fill: #ef4444; stroke: #ef4444; stroke-linejoin: miter"/>
   </g>
   <g id="patch_5">
    <path d="M 69.1925 70.829246 
L 79.2725 70.829246 
Q 79.5605 70.829246 79.5605 70.596448 
L 79.5605 61.041873 
Q 79.5605 60.809075 79.2725 60.809075 
L 69.1925 60.809075 
Q 68.9045 60.809075 68.9045 61.041873 
L 68.9045 70.596448 
Q 68.9045 70.829246 69.1925 70.829246 
z
" clip-path="url(#p8e824b9c07)" style="fill: #ef4444; stroke: #ef4444; stroke-linejoin: miter"/>
   </g>
   <g id="patch_6">
    <path d="M 83.5925 54.960489 
L 93.6725 54.960489 
Q 93.9605 54.960489 93.9605 54.727691 
L 93.9605 47.368516 
Q 93.9605 47.135718 93.6725 47.135718 
L 83.5925 47.135718 
Q 83.3045 47.135718 83.3045 47.368516 
L 83.3045 54.727691 
Q 83.3045 54.960489 83.5925 54.960489 
z
" clip-path="url(#p8e824b9c07)" style="fill: #ef4444; stroke: #ef4444; stroke-linejoin: miter"/>
   </g>
   <g id="patch_7">
    <path d="M 97.9925 61.675136 
L 108.0725 61.675136 
Q 108.3605 61.675136 108.3605 61.442338 
L 108.3605 57.939926 
Q 108.3605 57.707128 108.0725 57.707128 
L 97.9925 57.707128 
Q 97.7045 57.707128 97.7045 57.939926 
L 97.7045 61.442338 
Q 97.7045 61.675136 97.9925 61.675136 
z
" clip-path="url(#p8e824b9c07)" style="fill: #22c55e; stroke: #22c55e; stroke-linejoin: miter"/>
   </g>
   <g id="patch_8">
    <path d="M 112.3925 93.169073 
L 122.4725 93.169073 
Q 122.7605 93.169073 122.7605 92.936275 
L 122.7605 83.436716 
Q 122.7605 83.203918 122.4725 83.203918 
L 112.3925 83.203918 
Q 112.1045 83.203918 112.1045 83.436716 
L 112.1045 92.936275 
Q 112.1045 93.169073 112.3925 93.169073 
z
" clip-path="url(#p8e824b9c07)" style="fill: #ef4444; stroke: #ef4444; stroke-linejoin: miter"/>
   </g>
   <g id="patch_9">
    <path d="M 126.7925 88.089864 
L 136.8725 88.089864 
Q 137.1605 88.089864 137.1605 87.857067 
L 137.1605 79.993443 
Q 137.1605 79.760645 136.8725 79.760645 
L 126.7925 79.760645 
Q 126.5045 79.760645 126.5045 79.993443 
L 126.5045 87.857067 
Q 126.5045 88.089864 126.7925 88.089864 
z
" clip-path="url(#p8e824b9c07)" style="fill: #22c55e; stroke: #22c55e; stroke-linejoin: miter"/>
   </g>
   <g id="patch_10">
    <path d="M 141.1925 85.328972 
L 151.2725 85.328972 
Q 151.5605 85.328972 151.5605 85.096174 
L 151.5605 76.841176 
Q 151.5605 76.608378 151.2725 76.608378 
L 141.1925 76.608378 
Q 140.9045 76.608378 140.9045 76.841176 
L 140.9045 85.096174 
Q 140.9045 85.328972 141.1925 85.328972 
z
" clip-path="url(#p8e824b9c07)" style="fill: #ef4444; stroke: #ef4444; stroke-linejoin: miter"/>
   </g>
   <g id="patch_11">
    <path d="M 155.5925 105.307203 
L 165.6725 105.307203 
Q 165.9605 105.307203 165.9605 105.074405 
L 165.9605 90.501383 
Q 165.9605 90.268586 165.6725 90.268586 
L 155.5925 90.268586 
Q 155.3045 90.268586 155.3045 90.501383 
L 155.3045 105.074405 
Q 155.3045 105.307203 155.5925 105.307203 
z
" clip-path="url(#p8e824b9c07)" style="fill: #22c55e; stroke: #22c55e; stroke-linejoin: miter"/>
   </g>
   <g id="patch_12">
    <path d="M 169.9925 111.606621 
L 180.0725 111.606621 
Q 180.3605 111.606621 180.3605 111.373823 
L 180.3605 94.844701 
Q 180.3605 94.611903 180.0725 94.611903 
L 169.9925 94.611903 
Q 169.7045 94.611903 169.7045 94.844701 
L 169.7045 111.373823 
Q 169.7045 111.606621 169.9925 111.606621 
z
" clip-path="url(#p8e824b9c07)" style="fill: #ef4444; stroke: #ef4444; stroke-linejoin: miter"/>
   </g>
   <g id="patch_13">
    <path d="M 184.3925 111.944321 
L 194.4725 111.944321 
Q 194.7605 111.944321 194.7605 111.711523 
L 194.7605 97.083481 
Q 194.7605 96.850683 194.4725 96.850683 
L 184.3925 96.850683 
Q 184.1045 96.850683 184.1045 97.083481 
L 184.1045 111.711523 
Q 184.1045 111.944321 184.3925 111.944321 
z
" clip-path="url(#p8e824b9c07)" style="fill: #22c55e; stroke: #22c55e; stroke-linejoin: miter"/>
   </g>
   <g id="patch_14">
    <path d="M 198.7925 106.337574 
L 208.8725 106.337574 
Q 209.1605 106.337574 209.1605 106.104776 
L 209.1605 94.246307 
Q 209.1605 94.013509 208.8725 94.013509 
L 198.7925 94.013509 
Q 198.5045 94.013509 198.5045 94.246307 
L 198.5045 106.104776 
Q 198.5045 106.337574 198.7925 106.337574 
z
" clip-path="url(#p8e824b9c07)" style="fill: #22c55e; stroke: #22c55e; stroke-linejoin: miter"/>
   </g>
   <g id="patch_15">
    <path d="M 213.1925 111.479474 
L 223.2725 111.479474 
Q 223.5605 111.479474 223.5605 111.246676 
L 223.5605 96.461118 
Q 223.5605 96.22832 223.2725 96.22832 
L 213.1925 96.22832 
Q 212.9045 96.22832 212.9045 96.461118 
L 212.9045 111.246676 
Q 212.9045 111.479474 213.1925 111.479474 
z
" clip-path="url(#p8e824b9c07)" style="fill: #22c55e; stroke: #22c55e; stroke-linejoin: miter"/>
   </g>
   <g id="patch_16">
    <path d="M 227.5925 88.232382 
L 237.6725 88.232382 
Q 237.9605 88.232382 237.9605 87.999584 
L 237.9605 81.541837 
Q 237.9605 81.309039 237.6725 81.309039 
L 227.5925 81.309039 
Q 227.3045 81.309039 227.3045 81.541837 
L 227.3045 87.999584 
Q 227.3045 88.232382 227.5925 88.232382 
z
" clip-path="url(#p8e824b9c07)" style="fill: #22c55e; stroke: #22c55e; stroke-linejoin: miter"/>
   </g>
   <g id="patch_17">
    <path d="M 241.9925 99.201114 
L 252.0725 99.201114 
Q 252.3605 99.201114 252.3605 98.968316 
L 252.3605 81.946213 
Q 252.3605 81.713415 252.0725 81.713415 
L 241.9925 81.713415 
Q 241.7045 81.713415 241.7045 81.946213 
L 241.7045 98.968316 
Q 241.7045 99.201114 241.9925 99.201114 
z
" clip-path="url(#p8e824b9c07)" style="fill: #22c55e; stroke: #22c55e; stroke-linejoin: miter"/>
   </g>
   <g id="patch_18">
    <path d="M 256.3925 118.33768 
L 266.4725 118.33768 
Q 266.7605 118.33768 266.7605 118.104882 
L 266.7605 112.411986 
Q 266.7605 112.179188 266.4725 112.179188 
L 256.3925 112.179188 
Q 256.1045 112.179188 256.1045 112.411986 
L 256.1045 118.104882 
Q 256.1045 118.33768 256.3925 118.33768 
z
" clip-path="url(#p8e824b9c07)" style="fill: #22c55e; stroke: #22c55e; stroke-linejoin: miter"/>
   </g>
   <g id="patch_19">
    <path d="M 270.7925 113.427057 
L 280.8725 113.427057 
Q 281.1605 113.427057 281.1605 113.194259 
L 281.1605 106.938017 
Q 281.1605 106.705219 280.8725 106.705219 
L 270.7925 106.705219 
Q 270.5045 106.705219 270.5045 106.938017 
L 270.5045 113.194259 
Q 270.5045 113.427057 270.7925 113.427057 
z
" clip-path="url(#p8e824b9c07)" style="fill: #ef4444; stroke: #ef4444; stroke-linejoin: miter"/>
   </g>
   <g id="patch_20">
    <path d="M 285.1925 114.171028 
L 295.2725 114.171028 
Q 295.5605 114.171028 295.5605 113.93823 
L 295.5605 96.724771 
Q 295.5605 96.491973 295.2725 96.491973 
L 285.1925 96.491973 
Q 284.9045 96.491973 284.9045 96.724771 
L 284.9045 113.93823 
Q 284.9045 114.171028 285.1925 114.171028 
z
" clip-path="url(#p8e824b9c07)" style="fill: #ef4444; stroke: #ef4444; stroke-linejoin: miter"/>
   </g>
   <g id="patch_21">
    <path d="M 299.5925 110.821467 
L 309.6725 110.821467 
Q 309.9605 110.821467 309.9605 110.588669 
L 309.9605 102.552296 
Q 309.9605 102.319498 309.6725 102.319498 
L 299.5925 102.319498 
Q 299.3045 102.319498 299.3045 102.552296 
L 299.3045 110.588669 
Q 299.3045 110.821467 299.5925 110.821467 
z
" clip-path="url(#p8e824b9c07)" style="fill: #ef4444; stroke: #ef4444; stroke-linejoin: miter"/>
   </g>
   <g id="patch_22">
    <path d="M 313.9925 113.925101 
L 324.0725 113.925101 
Q 324.3605 113.925101 324.3605 113.692303 
L 324.3605 109.971608 
Q 324.3605 109.73881 324.0725 109.73881 
L 313.9925 109.73881 
Q 313.7045 109.73881 313.7045 109.971608 
L 313.7045 113.692303 
Q 313.7045 113.925101 313.9925 113.925101 
z
" clip-path="url(#p8e824b9c07)" style="fill: #ef4444; stroke: #ef4444; stroke-linejoin: miter"/>
   </g>
   <g id="patch_23">
    <path d="M 328.3925 116.357061 
L 338.4725 116.357061 
Q 338.7605 116.357061 338.7605 116.124263 
L 338.7605 109.316161 
Q 338.7605 109.083363 338.4725 109.083363 
L 328.3925 109.083363 
Q 328.1045 109.083363 328.1045 109.316161 
L 328.1045 116.124263 
Q 328.1045 116.357061 328.3925 116.357061 
z
" clip-path="url(#p8e824b9c07)" style="fill: #ef4444; stroke: #ef4444; stroke-linejoin: miter"/>
   </g>
   <g id="patch_24">
    <path d="M 342.7925 108.563252 
L 352.8725 108.563252 
Q 353.1605 108.563252 353.1605 108.330454 
L 353.1605 98.930701 
Q 353.1605 98.697903 352.8725 98.697903 
L 342.7925 98.697903 
Q 342.5045 98.697903 342.5045 98.930701 
L 342.5045 108.330454 
Q 342.5045 108.563252 342.7925 108.563252 
z
" clip-path="url(#p8e824b9c07)" style="fill: #22c55e; stroke: #22c55e; stroke-linejoin: miter"/>
   </g>
   <g id="patch_25">
    <path d="M 357.1925 121.636549 
L 367.2725 121.636549 
Q 367.5605 121.636549 367.5605 121.403751 
L 367.5605 105.054037 
Q 367.5605 104.821239 367.2725 104.821239 
L 357.1925 104.821239 
Q 356.9045 104.821239 356.9045 105.054037 
L 356.9045 121.403751 
Q 356.9045 121.636549 357.1925 121.636549 
z
" clip-path="url(#p8e824b9c07)" style="fill: #22c55e; stroke: #22c55e; stroke-linejoin: miter"/>
   </g>
   <g id="patch_26">
    <path d="M 371.5925 125.986596 
L 381.6725 125.986596 
Q 381.9605 125.986596 381.9605 125.753798 
L 381.9605 115.014318 
Q 381.9605 114.78152 381.6725 114.78152 
L 371.5925 114.78152 
Q 371.3045 114.78152 371.3045 115.014318 
L 371.3045 125.753798 
Q 371.3045 125.986596 371.5925 125.986596 
z
" clip-path="url(#p8e824b9c07)" style="fill: #ef4444; stroke: #ef4444; stroke-linejoin: miter"/>
   </g>
   <g id="patch_27">
    <path d="M 385.9925 129.826652 
L 396.0725 129.826652 
Q 396.3605 129.826652 396.3605 129.593854 
L 396.3605 117.151891 
Q 396.3605 116.919093 396.0725 116.919093 
L 385.9925 116.919093 
Q 385.7045 116.919093 385.7045 117.151891 
L 385.7045 129.593854 
Q 385.7045 129.826652 385.9925 129.826652 
z
" clip-path="url(#p8e824b9c07)" style="fill: #22c55e; stroke: #22c55e; stroke-linejoin: miter"/>
   </g>
   <g id="patch_28">
    <path d="M 400.3925 133.381559 
L 410.4725 133.381559 
Q 410.7605 133.381559 410.7605 133.148761 
L 410.7605 119.285334 
Q 410.7605 119.052536 410.4725 119.052536 
L 400.3925 119.052536 
Q 400.1045 119.052536 400.1045 119.285334 
L 400.1045 133.148761 
Q 400.1045 133.381559 400.3925 133.381559 
z
" clip-path="url(#p8e824b9c07)" style="fill: #22c55e; stroke: #22c55e; stroke-linejoin: miter"/>
   </g>
   <g id="patch_29">
    <path d="M 414.7925 154.227122 
L 424.8725 154.227122 
Q 425.1605 154.227122 425.1605 153.994324 
L 425.1605 137.755649 
Q 425.1605 137.522851 424.8725 137.522851 
L 414.7925 137.522851 
Q 414.5045 137.522851 414.5045 137.755649 
L 414.5045 153.994324 
Q 414.5045 154.227122 414.7925 154.227122 
z
" clip-path="url(#p8e824b9c07)" style="fill: #22c55e; stroke: #22c55e; stroke-linejoin: miter"/>
   </g>
   <g id="patch_30">
    <path d="M 429.1925 160.09985 
L 439.2725 160.09985 
Q 439.5605 160.09985 439.5605 159.867052 
L 439.5605 151.843102 
Q 439.5605 151.610304 439.2725 151.610304 
L 429.1925 151.610304 
Q 428.9045 151.610304 428.9045 151.843102 
L 428.9045 159.867052 
Q 428.9045 160.09985 429.1925 160.09985 
z
" clip-path="url(#p8e824b9c07)" style="fill: #22c55e; stroke: #22c55e; stroke-linejoin: miter"/>
   </g>
   <g id="patch_31">
    <path d="M 443.5925 155.8997 
L 453.6725 155.8997 
Q 453.9605 155.8997 453.9605 155.666902 
L 453.9605 145.590488 
Q 453.9605 145.35769 453.6725 145.35769 
L 443.5925 145.35769 
Q 443.3045 145.35769 443.3045 145.590488 
L 443.3045 155.666902 
Q 443.3045 155.8997 443.5925 155.8997 
z
" clip-path="url(#p8e824b9c07)" style="fill: #ef4444; stroke: #ef4444; stroke-linejoin: miter"/>
   </g>
   <g id="patch_32">
    <path d="M 457.9925 171.048966 
L 468.0725 171.048966 
Q 468.3605 171.048966 468.3605 170.816168 
L 468.3605 166.012233 
Q 468.3605 165.779435 468.0725 165.779435 
L 457.9925 165.779435 
Q 457.7045 165.779435 457.7045 166.012233 
L 457.7045 170.816168 
Q 457.7045 171.048966 457.9925 171.048966 
z
" clip-path="url(#p8e824b9c07)" style="fill: #ef4444; stroke: #ef4444; stroke-linejoin: miter"/>
   </g>
   <g id="matplotlib.axis_1">
    <g id="xtick_1">
     <g id="line2d_1">
      <path d="M 45.4325 193.58154 
L 45.4325 31.318125 
" clip-path="url(#p8e824b9c07)" style="fill: none; stroke-dasharray: 2.96,1.28; stroke-dashoffset: 0; stroke: #374151; stroke-opacity: 0.1; stroke-width: 0.8"/>
     </g>
     <g id="line2d_2">
      <defs>
       <path id="m9ace47effb" d="M 0 0 
L 0 3.5 
" style="stroke: #9ca3af; stroke-width: 0.8"/>
      </defs>
      <g>
       <use xlink:href="#m9ace47effb" x="45.4325" y="193.58154" style="fill: #9ca3af; stroke: #9ca3af; stroke-width: 0.8"/>
      </g>
     </g>
    </g>
    <g id="xtick_2">
     <g id="line2d_3">
      <path d="M 117.4325 193.58154 
L 117.4325 31.318125 
" clip-path="url(#p8e824b9c07)" style="fill: none; stroke-dasharray: 2.96,1.28; stroke-dashoffset: 0; stroke: #374151; stroke-opacity: 0.1; stroke-width: 0.8"/>
     </g>
     <g id="line2d_4">
      <g>
       <use xlink:href="#m9ace47effb" x="117.4325" y="193.58154" style="fill: #9ca3af; stroke: #9ca3af; stroke-width: 0.8"/>
      </g>
     </g>
    </g>
    <g id="xtick_3">
     <g id="line2d_5">
      <path d="M 189.4325 193.58154 
L 189.4325 31.318125 
" clip-path="url(#p8e824b9c07)" style="fill: none; stroke-dasharray: 2.96,1.28; stroke-dashoffset: 0; stroke: #374151; stroke-opacity: 0.1; stroke-width: 0.8"/>
     </g>
     <g id="line2d_6">
      <g>
       <use xlink:href="#m9ace47effb" x="189.4325" y="193.58154" style="fill: #9ca3af; stroke: #9ca3af; stroke-width: 0.8"/>
      </g>
     </g>
    </g>
    <g id="xtick_4">
     <g id="line2d_7">
      <path d="M 261.4325 193.58154 
L 261.4325 31.318125 
" clip-path="url(#p8e824b9c07)" style="fill: none; stroke-dasharray: 2.96,1.28; stroke-dashoffset: 0; stroke: #374151; stroke-opacity: 0.1; stroke-width: 0.8"/>
     </g>
     <g id="line2d_8">
      <g>
       <use xlink:href="#m9ace47effb" x="261.4325" y="193.58154" style="fill: #9ca3af; stroke: #9ca3af; stroke-width: 0.8"/>
      </g>
     </g>
    </g>
    <g id="xtick_5">
     <g id="line2d_9">
      <path d="M 333.4325 193.58154 
L 333.4325 31.318125 
" clip-path="url(#p8e824b9c07)" style="fill: none; stroke-dasharray: 2.96,1.28; stroke-dashoffset: 0; stroke: #374151; stroke-opacity: 0.1; stroke-width: 0.8"/>
     </g>
     <g id="line2d_10">
      <g>
       <use xlink:href="#m9ace47effb" x="333.4325" y="193.58154" style="fill: #9ca3af; stroke: #9ca3af; stroke-width: 0.8"/>
      </g>
     </g>
    </g>
    <g id="xtick_6">
     <g id="line2d_11">
      <path d="M 405.4325 193.58154 
L 405.4325 31.318125 
" clip-path="url(#p8e824b9c07)" style="fill: none; stroke-dasharray: 2.96,1.28; stroke-dashoffset: 0; stroke: #374151; stroke-opacity: 0.1; stroke-width: 0.8"/>
     </g>
     <g id="line2d_12">
      <g>
       <use xlink:href="#m9ace47effb" x="405.4325" y="193.58154" style="fill: #9ca3af; stroke: #9ca3af; stroke-width: 0.8"/>
      </g>
     </g>
    </g>
    <g id="xtick_7">
     <g id="line2d_13">
      <path d="M 477.4325 193.58154 
L 477.4325 31.318125 
" clip-path="url(#p8e824b9c07)" style="fill: none; stroke-dasharray: 2.96,1.28; stroke-dashoffset: 0; stroke: #374151; stroke-opacity: 0.1; stroke-width: 0.8"/>
     </g>
     <g id="line2d_14">
      <g>
       <use xlink:href="#m9ace47effb" x="477.4325" y="193.58154" style="fill: #9ca3af; stroke: #9ca3af; stroke-width: 0.8"/>
      </g>
     </g>
    </g>
   </g>
   <g id="matplotlib.axis_2">
    <g id="ytick_1">
     <g id="line2d_15">
      <path d="M 31.0325 181.811781 
L 477.4325 181.811781 
" clip-path="url(#p8e824b9c07)" style="fill: none; stroke-dasharray: 2.96,1.28; stroke-dashoffset: 0; stroke: #374151; stroke-opacity: 0.1; stroke-width: 0.8"/>
     </g>
     <g id="line2d_16">
      <defs>
       <path id="m72edf6f70b" d="M 0 0 
L -3.5 0 
" style="stroke: #9ca3af; stroke-width: 0.8"/>
      </defs>
      <g>
       <use xlink:href="#m72edf6f70b" x="31.0325" y="181.811781" style="fill: #9ca3af; stroke: #9ca3af; stroke-width: 0.8"/>
      </g>
     </g>
     <g id="text_1">
      <!-- 90 -->
      <g style="fill: #9ca3af" transform="translate(13.8525 184.851156) scale(0.08 -0.08)">
       <defs>
        <path id="DejaVuSans-39" d="M 703 97 
L 703 672 
Q 941 559 1184 500 
Q 1428 441 1663 441 
Q 2288 441 2617 861 
Q 2947 1281 2994 2138 
Q 2813 1869 2534 1725 
Q 2256 1581 1919 1581 
Q 1219 1581 811 2004 
Q 403 2428 403 3163 
Q 403 3881 828 4315 
Q 1253 4750 1959 4750 
Q 2769 4750 3195 4129 
Q 3622 3509 3622 2328 
Q 3622 1225 3098 567 
Q 2575 -91 1691 -91 
Q 1453 -91 1209 -44 
Q 966 3 703 97 
z
M 1959 2075 
Q 2384 2075 2632 2365 
Q 2881 2656 2881 3163 
Q 2881 3666 2632 3958 
Q 2384 4250 1959 4250 
Q 1534 4250 1286 3958 
Q 1038 3666 1038 3163 
Q 1038 2656 1286 2365 
Q 1534 2075 1959 2075 
z
" transform="scale(0.015625)"/>
        <path id="DejaVuSans-30" d="M 2034 4250 
Q 1547 4250 1301 3770 
Q 1056 3291 1056 2328 
Q 1056 1369 1301 889 
Q 1547 409 2034 409 
Q 2525 409 2770 889 
Q 3016 1369 3016 2328 
Q 3016 3291 2770 3770 
Q 2525 4250 2034 4250 
z
M 2034 4750 
Q 2819 4750 3233 4129 
Q 3647 3509 3647 2328 
Q 3647 1150 3233 529 
Q 2819 -91 2034 -91 
Q 1250 -91 836 529 
Q 422 1150 422 2328 
Q 422 3509 836 4129 
Q 1250 4750 2034 4750 
z
" transform="scale(0.015625)"/>
       </defs>
       <use xlink:href="#DejaVuSans-39"/>
       <use xlink:href="#DejaVuSans-30" transform="translate(63.623047 0)"/>
      </g>
     </g>
    </g>
    <g id="ytick_2">
     <g id="line2d_17">
      <path d="M 31.0325 158.53199 
L 477.4325 158.53199 
" clip-path="url(#p8e824b9c07)" style="fill: none; stroke-dasharray: 2.96,1.28; stroke-dashoffset: 0; stroke: #374151; stroke-opacity: 0.1; stroke-width: 0.8"/>
     </g>
     <g id="line2d_18">
      <g>
       <use xlink:href="#m72edf6f70b" x="31.0325" y="158.53199" style="fill: #9ca3af; stroke: #9ca3af; stroke-width: 0.8"/>
      </g>
     </g>
     <g id="text_2">
      <!-- 92 -->
      <g style="fill: #9ca3af" transform="translate(13.8525 161.571365) scale(0.08 -0.08)">
       <defs>
        <path id="DejaVuSans-32" d="M 1228 531 
L 3431 531 
L 3431 0 
L 469 0 
L 469 531 
Q 828 903 1448 1529 
Q 2069 2156 2228 2338 
Q 2531 2678 2651 2914 
Q 2772 3150 2772 3378 
Q 2772 3750 2511 3984 
Q 2250 4219 1831 4219 
Q 1534 4219 1204 4116 
Q 875 4013 500 3803 
L 500 4441 
Q 881 4594 1212 4672 
Q 1544 4750 1819 4750 
Q 2544 4750 2975 4387 
Q 3406 4025 3406 3419 
Q 3406 3131 3298 2873 
Q 3191 2616 2906 2266 
Q 2828 2175 2409 1742 
Q 1991 1309 1228 531 
z
" transform="scale(0.015625)"/>
       </defs>
       <use xlink:href="#DejaVuSans-39"/>
       <use xlink:href="#DejaVuSans-32" transform="translate(63.623047 0)"/>
      </g>
     </g>
    </g>
    <g id="ytick_3">
     <g id="line2d_19">
      <path d="M 31.0325 135.252199 
L 477.4325 135.252199 
" clip-path="url(#p8e824b9c07)" style="fill: none; stroke-dasharray: 2.96,1.28; stroke-dashoffset: 0; stroke: #374151; stroke-opacity: 0.1; stroke-width: 0.8"/>
     </g>
     <g id="line2d_20">
      <g>
       <use xlink:href="#m72edf6f70b" x="31.0325" y="135.252199" style="fill: #9ca3af; stroke: #9ca3af; stroke-width: 0.8"/>
      </g>
     </g>
     <g id="text_3">
      <!-- 94 -->
      <g style="fill: #9ca3af" transform="translate(13.8525 138.291574) scale(0.08 -0.08)">
       <defs>
        <path id="DejaVuSans-34" d="M 2419 4116 
L 825 1625 
L 2419 1625 
L 2419 4116 
z
M 2253 4666 
L 3047 4666 
L 3047 1625 
L 3713 1625 
L 3713 1100 
L 3047 1100 
L 3047 0 
L 2419 0 
L 2419 1100 
L 313 1100 
L 313 1709 
L 2253 4666 
z
" transform="scale(0.015625)"/>
       </defs>
       <use xlink:href="#DejaVuSans-39"/>
       <use xlink:href="#DejaVuSans-34" transform="translate(63.623047 0)"/>
      </g>
     </g>
    </g>
    <g id="ytick_4">
     <g id="line2d_21">
      <path d="M 31.0325 111.972407 
L 477.4325 111.972407 
" clip-path="url(#p8e824b9c07)" style="fill: none; stroke-dasharray: 2.96,1.28; stroke-dashoffset: 0; stroke: #374151; stroke-opacity: 0.1; stroke-width: 0.8"/>
     </g>
     <g id="line2d_22">
      <g>
       <use xlink:href="#m72edf6f70b" x="31.0325" y="111.972407" style="fill: #9ca3af; stroke: #9ca3af; stroke-width: 0.8"/>
      </g>
     </g>
     <g id="text_4">
      <!-- 96 -->
      <g style="fill: #9ca3af" transform="translate(13.8525 115.011782) scale(0.08 -0.08)">
       <defs>
        <path id="DejaVuSans-36" d="M 2113 2584 
Q 1688 2584 1439 2293 
Q 1191 2003 1191 1497 
Q 1191 994 1439 701 
Q 1688 409 2113 409 
Q 2538 409 2786 701 
Q 3034 994 3034 1497 
Q 3034 2003 2786 2293 
Q 2538 2584 2113 2584 
z
M 3366 4563 
L 3366 3988 
Q 3128 4100 2886 4159 
Q 2644 4219 2406 4219 
Q 1781 4219 1451 3797 
Q 1122 3375 1075 2522 
Q 1259 2794 1537 2939 
Q 1816 3084 2150 3084 
Q 2853 3084 3261 2657 
Q 3669 2231 3669 1497 
Q 3669 778 3244 343 
Q 2819 -91 2113 -91 
Q 1303 -91 875 529 
Q 447 1150 447 2328 
Q 447 3434 972 4092 
Q 1497 4750 2381 4750 
Q 2619 4750 2861 4703 
Q 3103 4656 3366 4563 
z
" transform="scale(0.015625)"/>
       </defs>
       <use xlink:href="#DejaVuSans-39"/>
       <use xlink:href="#DejaVuSans-36" transform="translate(63.623047 0)"/>
      </g>
     </g>
    </g>
    <g id="ytick_5">
     <g id="line2d_23">
      <path d="M 31.0325 88.692616 
L 477.4325 88.692616 
" clip-path="url(#p8e824b9c07)" style="fill: none; stroke-dasharray: 2.96,1.28; stroke-dashoffset: 0; stroke: #374151; stroke-opacity: 0.1; stroke-width: 0.8"/>
     </g>
     <g id="line2d_24">
      <g>
       <use xlink:href="#m72edf6f70b" x="31.0325" y="88.692616" style="fill: #9ca3af; stroke: #9ca3af; stroke-width: 0.8"/>
      </g>
     </g>
     <g id="text_5">
      <!-- 98 -->
      <g style="fill: #9ca3af" transform="translate(13.8525 91.731991) scale(0.08 -0.08)">
       <defs>
        <path id="DejaVuSans-38" d="M 2034 2216 
Q 1584 2216 1326 1975 
Q 1069 1734 1069 1313 
Q 1069 891 1326 650 
Q 1584 409 2034 409 
Q 2484 409 2743 651 
Q 3003 894 3003 1313 
Q 3003 1734 2745 1975 
Q 2488 2216 2034 2216 
z
M 1403 2484 
Q 997 2584 770 2862 
Q 544 3141 544 3541 
Q 544 4100 942 4425 
Q 1341 4750 2034 4750 
Q 2731 4750 3128 4425 
Q 3525 4100 3525 3541 
Q 3525 3141 3298 2862 
Q 3072 2584 2669 2484 
Q 3125 2378 3379 2068 
Q 3634 1759 3634 1313 
Q 3634 634 3220 271 
Q 2806 -91 2034 -91 
Q 1263 -91 848 271 
Q 434 634 434 1313 
Q 434 1759 690 2068 
Q 947 2378 1403 2484 
z
M 1172 3481 
Q 1172 3119 1398 2916 
Q 1625 2713 2034 2713 
Q 2441 2713 2670 2916 
Q 2900 3119 2900 3481 
Q 2900 3844 2670 4047 
Q 2441 4250 2034 4250 
Q 1625 4250 1398 4047 
Q 1172 3844 1172 3481 
z
" transform="scale(0.015625)"/>
       </defs>
       <use xlink:href="#DejaVuSans-39"/>
       <use xlink:href="#DejaVuSans-38" transform="translate(63.623047 0)"/>
      </g>
     </g>
    </g>
    <g id="ytick_6">
     <g id="line2d_25">
      <path d="M 31.0325 65.412825 
L 477.4325 65.412825 
" clip-path="url(#p8e824b9c07)" style="fill: none; stroke-dasharray: 2.96,1.28; stroke-dashoffset: 0; stroke: #374151; stroke-opacity: 0.1; stroke-width: 0.8"/>
     </g>
     <g id="line2d_26">
      <g>
       <use xlink:href="#m72edf6f70b" x="31.0325" y="65.412825" style="fill: #9ca3af; stroke: #9ca3af; stroke-width: 0.8"/>
      </g>
     </g>
     <g id="text_6">
      <!-- 100 -->
      <g style="fill: #9ca3af" transform="translate(8.7625 68.4522) scale(0.08 -0.08)">
       <defs>
        <path id="DejaVuSans-31" d="M 794 531 
L 1825 531 
L 1825 4091 
L 703 3866 
L 703 4441 
L 1819 4666 
L 2450 4666 
L 2450 531 
L 3481 531 
L 3481 0 
L 794 0 
L 794 531 
z
" transform="scale(0.015625)"/>
       </defs>
       <use xlink:href="#DejaVuSans-31"/>
       <use xlink:href="#DejaVuSans-30" transform="translate(63.623047 0)"/>
       <use xlink:href="#DejaVuSans-30" transform="translate(127.246094 0)"/>
      </g>
     </g>
    </g>
    <g id="ytick_7">
     <g id="line2d_27">
      <path d="M 31.0325 42.133034 
L 477.4325 42.133034 
" clip-path="url(#p8e824b9c07)" style="fill: none; stroke-dasharray: 2.96,1.28; stroke-dashoffset: 0; stroke: #374151; stroke-opacity: 0.1; stroke-width: 0.8"/>
     </g>
     <g id="line2d_28">
      <g>
       <use xlink:href="#m72edf6f70b" x="31.0325" y="42.133034" style="fill: #9ca3af; stroke: #9ca3af; stroke-width: 0.8"/>
      </g>
     </g>
     <g id="text_7">
      <!-- 102 -->
      <g style="fill: #9ca3af" transform="translate(8.7625 45.172409) scale(0.08 -0.08)">
       <use xlink:href="#DejaVuSans-31"/>
       <use xlink:href="#DejaVuSans-30" transform="translate(63.623047 0)"/>
       <use xlink:href="#DejaVuSans-32" transform="translate(127.246094 0)"/>
      </g>
     </g>
    </g>
   </g>
   <g id="line2d_29">
    <path d="M 45.4325 72.725228 
L 45.4325 58.472495 
" clip-path="url(#p8e824b9c07)" style="fill: none; stroke: #ef4444; stroke-width: 1.5; stroke-linecap: square"/>
   </g>
   <g id="line2d_30">
    <path d="M 59.8325 63.776603 
L 59.8325 44.840076 
" clip-path="url(#p8e824b9c07)" style="fill: none; stroke: #ef4444; stroke-width: 1.5; stroke-linecap: square"/>
   </g>
   <g id="line2d_31">
    <path d="M 74.2325 79.724068 
L 74.2325 55.300868 
" clip-path="url(#p8e824b9c07)" style="fill: none; stroke: #ef4444; stroke-width: 1.5; stroke-linecap: square"/>
   </g>
   <g id="line2d_32">
    <path d="M 88.6325 58.086221 
L 88.6325 44.995629 
" clip-path="url(#p8e824b9c07)" style="fill: none; stroke: #ef4444; stroke-width: 1.5; stroke-linecap: square"/>
   </g>
   <g id="line2d_33">
    <path d="M 103.0325 69.374939 
L 103.0325 55.358078 
" clip-path="url(#p8e824b9c07)" style="fill: none; stroke: #22c55e; stroke-width: 1.5; stroke-linecap: square"/>
   </g>
   <g id="line2d_34">
    <path d="M 117.4325 101.718294 
L 117.4325 75.924595 
" clip-path="url(#p8e824b9c07)" style="fill: none; stroke: #ef4444; stroke-width: 1.5; stroke-linecap: square"/>
   </g>
   <g id="line2d_35">
    <path d="M 131.8325 96.511717 
L 131.8325 74.639265 
" clip-path="url(#p8e824b9c07)" style="fill: none; stroke: #22c55e; stroke-width: 1.5; stroke-linecap: square"/>
   </g>
   <g id="line2d_36">
    <path d="M 146.2325 90.193799 
L 146.2325 73.12028 
" clip-path="url(#p8e824b9c07)" style="fill: none; stroke: #ef4444; stroke-width: 1.5; stroke-linecap: square"/>
   </g>
   <g id="line2d_37">
    <path d="M 160.6325 109.985507 
L 160.6325 87.668908 
" clip-path="url(#p8e824b9c07)" style="fill: none; stroke: #22c55e; stroke-width: 1.5; stroke-linecap: square"/>
   </g>
   <g id="line2d_38">
    <path d="M 175.0325 119.518773 
L 175.0325 90.620398 
" clip-path="url(#p8e824b9c07)" style="fill: none; stroke: #ef4444; stroke-width: 1.5; stroke-linecap: square"/>
   </g>
   <g id="line2d_39">
    <path d="M 189.4325 119.883571 
L 189.4325 92.125663 
" clip-path="url(#p8e824b9c07)" style="fill: none; stroke: #22c55e; stroke-width: 1.5; stroke-linecap: square"/>
   </g>
   <g id="line2d_40">
    <path d="M 203.8325 109.248748 
L 203.8325 86.952588 
" clip-path="url(#p8e824b9c07)" style="fill: none; stroke: #22c55e; stroke-width: 1.5; stroke-linecap: square"/>
   </g>
   <g id="line2d_41">
    <path d="M 218.2325 118.111404 
L 218.2325 93.063276 
" clip-path="url(#p8e824b9c07)" style="fill: none; stroke: #22c55e; stroke-width: 1.5; stroke-linecap: square"/>
   </g>
   <g id="line2d_42">
    <path d="M 232.6325 91.693673 
L 232.6325 76.120048 
" clip-path="url(#p8e824b9c07)" style="fill: none; stroke: #22c55e; stroke-width: 1.5; stroke-linecap: square"/>
   </g>
   <g id="line2d_43">
    <path d="M 247.0325 102.494833 
L 247.0325 77.461026 
" clip-path="url(#p8e824b9c07)" style="fill: none; stroke: #22c55e; stroke-width: 1.5; stroke-linecap: square"/>
   </g>
   <g id="line2d_44">
    <path d="M 261.4325 119.441152 
L 261.4325 110.965138 
" clip-path="url(#p8e824b9c07)" style="fill: none; stroke: #22c55e; stroke-width: 1.5; stroke-linecap: square"/>
   </g>
   <g id="line2d_45">
    <path d="M 275.8325 114.680408 
L 275.8325 98.33268 
" clip-path="url(#p8e824b9c07)" style="fill: none; stroke: #ef4444; stroke-width: 1.5; stroke-linecap: square"/>
   </g>
   <g id="line2d_46">
    <path d="M 290.2325 119.647433 
L 290.2325 91.59357 
" clip-path="url(#p8e824b9c07)" style="fill: none; stroke: #ef4444; stroke-width: 1.5; stroke-linecap: square"/>
   </g>
   <g id="line2d_47">
    <path d="M 304.6325 113.047603 
L 304.6325 98.933763 
" clip-path="url(#p8e824b9c07)" style="fill: none; stroke: #ef4444; stroke-width: 1.5; stroke-linecap: square"/>
   </g>
   <g id="line2d_48">
    <path d="M 319.0325 121.048017 
L 319.0325 108.136068 
" clip-path="url(#p8e824b9c07)" style="fill: none; stroke: #ef4444; stroke-width: 1.5; stroke-linecap: square"/>
   </g>
   <g id="line2d_49">
    <path d="M 333.4325 124.349959 
L 333.4325 105.534377 
" clip-path="url(#p8e824b9c07)" style="fill: none; stroke: #ef4444; stroke-width: 1.5; stroke-linecap: square"/>
   </g>
   <g id="line2d_50">
    <path d="M 347.8325 116.557283 
L 347.8325 95.089074 
" clip-path="url(#p8e824b9c07)" style="fill: none; stroke: #22c55e; stroke-width: 1.5; stroke-linecap: square"/>
   </g>
   <g id="line2d_51">
    <path d="M 362.2325 124.082516 
L 362.2325 102.041593 
" clip-path="url(#p8e824b9c07)" style="fill: none; stroke: #22c55e; stroke-width: 1.5; stroke-linecap: square"/>
   </g>
   <g id="line2d_52">
    <path d="M 376.6325 133.457421 
L 376.6325 106.299691 
" clip-path="url(#p8e824b9c07)" style="fill: none; stroke: #ef4444; stroke-width: 1.5; stroke-linecap: square"/>
   </g>
   <g id="line2d_53">
    <path d="M 391.0325 133.799947 
L 391.0325 110.455808 
" clip-path="url(#p8e824b9c07)" style="fill: none; stroke: #22c55e; stroke-width: 1.5; stroke-linecap: square"/>
   </g>
   <g id="line2d_54">
    <path d="M 405.4325 138.972429 
L 405.4325 111.16788 
" clip-path="url(#p8e824b9c07)" style="fill: none; stroke: #22c55e; stroke-width: 1.5; stroke-linecap: square"/>
   </g>
   <g id="line2d_55">
    <path d="M 419.8325 157.430204 
L 419.8325 133.453529 
" clip-path="url(#p8e824b9c07)" style="fill: none; stroke: #22c55e; stroke-width: 1.5; stroke-linecap: square"/>
   </g>
   <g id="line2d_56">
    <path d="M 434.2325 165.933594 
L 434.2325 144.972175 
" clip-path="url(#p8e824b9c07)" style="fill: none; stroke: #22c55e; stroke-width: 1.5; stroke-linecap: square"/>
   </g>
   <g id="line2d_57">
    <path d="M 448.6325 161.115042 
L 448.6325 136.806314 
" clip-path="url(#p8e824b9c07)" style="fill: none; stroke: #ef4444; stroke-width: 1.5; stroke-linecap: square"/>
   </g>
   <g id="line2d_58">
    <path d="M 463.0325 180.059588 
L 463.0325 157.716328 
" clip-path="url(#p8e824b9c07)" style="fill: none; stroke: #ef4444; stroke-width: 1.5; stroke-linecap: square"/>
   </g>
   <g id="patch_33">
    <path d="M 31.0325 193.58154 
L 31.0325 31.318125 
" style="fill: none; stroke: #1f2937; stroke-width: 0.8; stroke-linejoin: miter; stroke-linecap: square"/>
   </g>
   <g id="patch_34">
    <path d="M 31.0325 193.58154 
L 477.4325 193.58154 
" style="fill: none; stroke: #1f2937; stroke-width: 0.8; stroke-linejoin: miter; stroke-linecap: square"/>
   </g>
   <g id="text_8">
    <!-- Rising Three Methods — MSFT 4H -->
    <g style="fill: #ffffff" transform="translate(140.608437 16.318125) scale(0.12 -0.12)">
     <defs>
      <path id="DejaVuSans-Bold-52" d="M 2297 2597 
Q 2675 2597 2839 2737 
Q 3003 2878 3003 3200 
Q 3003 3519 2839 3656 
Q 2675 3794 2297 3794 
L 1791 3794 
L 1791 2597 
L 2297 2597 
z
M 1791 1766 
L 1791 0 
L 588 0 
L 588 4666 
L 2425 4666 
Q 3347 4666 3776 4356 
Q 4206 4047 4206 3378 
Q 4206 2916 3982 2619 
Q 3759 2322 3309 2181 
Q 3556 2125 3751 1926 
Q 3947 1728 4147 1325 
L 4800 0 
L 3519 0 
L 2950 1159 
Q 2778 1509 2601 1637 
Q 2425 1766 2131 1766 
L 1791 1766 
z
" transform="scale(0.015625)"/>
      <path id="DejaVuSans-Bold-69" d="M 538 3500 
L 1656 3500 
L 1656 0 
L 538 0 
L 538 3500 
z
M 538 4863 
L 1656 4863 
L 1656 3950 
L 538 3950 
L 538 4863 
z
" transform="scale(0.015625)"/>
      <path id="DejaVuSans-Bold-73" d="M 3272 3391 
L 3272 2541 
Q 2913 2691 2578 2766 
Q 2244 2841 1947 2841 
Q 1628 2841 1473 2761 
Q 1319 2681 1319 2516 
Q 1319 2381 1436 2309 
Q 1553 2238 1856 2203 
L 2053 2175 
Q 2913 2066 3209 1816 
Q 3506 1566 3506 1031 
Q 3506 472 3093 190 
Q 2681 -91 1863 -91 
Q 1516 -91 1145 -36 
Q 775 19 384 128 
L 384 978 
Q 719 816 1070 734 
Q 1422 653 1784 653 
Q 2113 653 2278 743 
Q 2444 834 2444 1013 
Q 2444 1163 2330 1236 
Q 2216 1309 1875 1350 
L 1678 1375 
Q 931 1469 631 1722 
Q 331 1975 331 2491 
Q 331 3047 712 3315 
Q 1094 3584 1881 3584 
Q 2191 3584 2531 3537 
Q 2872 3491 3272 3391 
z
" transform="scale(0.015625)"/>
      <path id="DejaVuSans-Bold-6e" d="M 4056 2131 
L 4056 0 
L 2931 0 
L 2931 347 
L 2931 1631 
Q 2931 2084 2911 2256 
Q 2891 2428 2841 2509 
Q 2775 2619 2662 2680 
Q 2550 2741 2406 2741 
Q 2056 2741 1856 2470 
Q 1656 2200 1656 1722 
L 1656 0 
L 538 0 
L 538 3500 
L 1656 3500 
L 1656 2988 
Q 1909 3294 2193 3439 
Q 2478 3584 2822 3584 
Q 3428 3584 3742 3212 
Q 4056 2841 4056 2131 
z
" transform="scale(0.015625)"/>
      <path id="DejaVuSans-Bold-67" d="M 2919 594 
Q 2688 288 2409 144 
Q 2131 0 1766 0 
Q 1125 0 706 504 
Q 288 1009 288 1791 
Q 288 2575 706 3076 
Q 1125 3578 1766 3578 
Q 2131 3578 2409 3434 
Q 2688 3291 2919 2981 
L 2919 3500 
L 4044 3500 
L 4044 353 
Q 4044 -491 3511 -936 
Q 2978 -1381 1966 -1381 
Q 1638 -1381 1331 -1331 
Q 1025 -1281 716 -1178 
L 716 -306 
Q 1009 -475 1290 -558 
Q 1572 -641 1856 -641 
Q 2406 -641 2662 -400 
Q 2919 -159 2919 353 
L 2919 594 
z
M 2181 2772 
Q 1834 2772 1640 2515 
Q 1447 2259 1447 1791 
Q 1447 1309 1634 1061 
Q 1822 813 2181 813 
Q 2531 813 2725 1069 
Q 2919 1325 2919 1791 
Q 2919 2259 2725 2515 
Q 2531 2772 2181 2772 
z
" transform="scale(0.015625)"/>
      <path id="DejaVuSans-Bold-20" transform="scale(0.015625)"/>
      <path id="DejaVuSans-Bold-54" d="M 31 4666 
L 4331 4666 
L 4331 3756 
L 2784 3756 
L 2784 0 
L 1581 0 
L 1581 3756 
L 31 3756 
L 31 4666 
z
" transform="scale(0.015625)"/>
      <path id="DejaVuSans-Bold-68" d="M 4056 2131 
L 4056 0 
L 2931 0 
L 2931 347 
L 2931 1625 
Q 2931 2084 2911 2256 
Q 2891 2428 2841 2509 
Q 2775 2619 2662 2680 
Q 2550 2741 2406 2741 
Q 2056 2741 1856 2470 
Q 1656 2200 1656 1722 
L 1656 0 
L 538 0 
L 538 4863 
L 1656 4863 
L 1656 2988 
Q 1909 3294 2193 3439 
Q 2478 3584 2822 3584 
Q 3428 3584 3742 3212 
Q 4056 2841 4056 2131 
z
" transform="scale(0.015625)"/>
      <path id="DejaVuSans-Bold-72" d="M 3138 2547 
Q 2991 2616 2845 2648 
Q 2700 2681 2553 2681 
Q 2122 2681 1889 2404 
Q 1656 2128 1656 1613 
L 1656 0 
L 538 0 
L 538 3500 
L 1656 3500 
L 1656 2925 
Q 1872 3269 2151 3426 
Q 2431 3584 2822 3584 
Q 2878 3584 2943 3579 
Q 3009 3575 3134 3559 
L 3138 2547 
z
" transform="scale(0.015625)"/>
      <path id="DejaVuSans-Bold-65" d="M 4031 1759 
L 4031 1441 
L 1416 1441 
Q 1456 1047 1700 850 
Q 1944 653 2381 653 
Q 2734 653 3104 758 
Q 3475 863 3866 1075 
L 3866 213 
Q 3469 63 3072 -14 
Q 2675 -91 2278 -91 
Q 1328 -91 801 392 
Q 275 875 275 1747 
Q 275 2603 792 3093 
Q 1309 3584 2216 3584 
Q 3041 3584 3536 3087 
Q 4031 2591 4031 1759 
z
M 2881 2131 
Q 2881 2450 2695 2645 
Q 2509 2841 2209 2841 
Q 1884 2841 1681 2658 
Q 1478 2475 1428 2131 
L 2881 2131 
z
" transform="scale(0.015625)"/>
      <path id="DejaVuSans-Bold-4d" d="M 588 4666 
L 2119 4666 
L 3181 2169 
L 4250 4666 
L 5778 4666 
L 5778 0 
L 4641 0 
L 4641 3413 
L 3566 897 
L 2803 897 
L 1728 3413 
L 1728 0 
L 588 0 
L 588 4666 
z
" transform="scale(0.015625)"/>
      <path id="DejaVuSans-Bold-74" d="M 1759 4494 
L 1759 3500 
L 2913 3500 
L 2913 2700 
L 1759 2700 
L 1759 1216 
Q 1759 972 1856 886 
Q 1953 800 2241 800 
L 2816 800 
L 2816 0 
L 1856 0 
Q 1194 0 917 276 
Q 641 553 641 1216 
L 641 2700 
L 84 2700 
L 84 3500 
L 641 3500 
L 641 4494 
L 1759 4494 
z
" transform="scale(0.015625)"/>
      <path id="DejaVuSans-Bold-6f" d="M 2203 2784 
Q 1831 2784 1636 2517 
Q 1441 2250 1441 1747 
Q 1441 1244 1636 976 
Q 1831 709 2203 709 
Q 2569 709 2762 976 
Q 2956 1244 2956 1747 
Q 2956 2250 2762 2517 
Q 2569 2784 2203 2784 
z
M 2203 3584 
Q 3106 3584 3614 3096 
Q 4122 2609 4122 1747 
Q 4122 884 3614 396 
Q 3106 -91 2203 -91 
Q 1297 -91 786 396 
Q 275 884 275 1747 
Q 275 2609 786 3096 
Q 1297 3584 2203 3584 
z
" transform="scale(0.015625)"/>
      <path id="DejaVuSans-Bold-64" d="M 2919 2988 
L 2919 4863 
L 4044 4863 
L 4044 0 
L 2919 0 
L 2919 506 
Q 2688 197 2409 53 
Q 2131 -91 1766 -91 
Q 1119 -91 703 423 
Q 288 938 288 1747 
Q 288 2556 703 3070 
Q 1119 3584 1766 3584 
Q 2128 3584 2408 3439 
Q 2688 3294 2919 2988 
z
M 2181 722 
Q 2541 722 2730 984 
Q 2919 1247 2919 1747 
Q 2919 2247 2730 2509 
Q 2541 2772 2181 2772 
Q 1825 2772 1636 2509 
Q 1447 2247 1447 1747 
Q 1447 1247 1636 984 
Q 1825 722 2181 722 
z
" transform="scale(0.015625)"/>
      <path id="DejaVuSans-Bold-2014" d="M 344 2156 
L 6056 2156 
L 6056 1350 
L 344 1350 
L 344 2156 
z
" transform="scale(0.015625)"/>
      <path id="DejaVuSans-Bold-53" d="M 3834 4519 
L 3834 3531 
Q 3450 3703 3084 3790 
Q 2719 3878 2394 3878 
Q 1963 3878 1756 3759 
Q 1550 3641 1550 3391 
Q 1550 3203 1689 3098 
Q 1828 2994 2194 2919 
L 2706 2816 
Q 3484 2659 3812 2340 
Q 4141 2022 4141 1434 
Q 4141 663 3683 286 
Q 3225 -91 2284 -91 
Q 1841 -91 1394 -6 
Q 947 78 500 244 
L 500 1259 
Q 947 1022 1364 901 
Q 1781 781 2169 781 
Q 2563 781 2772 912 
Q 2981 1044 2981 1288 
Q 2981 1506 2839 1625 
Q 2697 1744 2272 1838 
L 1806 1941 
Q 1106 2091 782 2419 
Q 459 2747 459 3303 
Q 459 4000 909 4375 
Q 1359 4750 2203 4750 
Q 2588 4750 2994 4692 
Q 3400 4634 3834 4519 
z
" transform="scale(0.015625)"/>
      <path id="DejaVuSans-Bold-46" d="M 588 4666 
L 3834 4666 
L 3834 3756 
L 1791 3756 
L 1791 2888 
L 3713 2888 
L 3713 1978 
L 1791 1978 
L 1791 0 
L 588 0 
L 588 4666 
z
" transform="scale(0.015625)"/>
      <path id="DejaVuSans-Bold-34" d="M 2356 3675 
L 1038 1722 
L 2356 1722 
L 2356 3675 
z
M 2156 4666 
L 3494 4666 
L 3494 1722 
L 4159 1722 
L 4159 850 
L 3494 850 
L 3494 0 
L 2356 0 
L 2356 850 
L 288 850 
L 288 1881 
L 2156 4666 
z
" transform="scale(0.015625)"/>
      <path id="DejaVuSans-Bold-48" d="M 588 4666 
L 1791 4666 
L 1791 2888 
L 3566 2888 
L 3566 4666 
L 4769 4666 
L 4769 0 
L 3566 0 
L 3566 1978 
L 1791 1978 
L 1791 0 
L 588 0 
L 588 4666 
z
" transform="scale(0.015625)"/>
     </defs>
     <use xlink:href="#DejaVuSans-Bold-52"/>
     <use xlink:href="#DejaVuSans-Bold-69" transform="translate(77.001953 0)"/>
     <use xlink:href="#DejaVuSans-Bold-73" transform="translate(111.279297 0)"/>
     <use xlink:href="#DejaVuSans-Bold-69" transform="translate(170.800781 0)"/>
     <use xlink:href="#DejaVuSans-Bold-6e" transform="translate(205.078125 0)"/>
     <use xlink:href="#DejaVuSans-Bold-67" transform="translate(276.269531 0)"/>
     <use xlink:href="#DejaVuSans-Bold-20" transform="translate(347.851562 0)"/>
     <use xlink:href="#DejaVuSans-Bold-54" transform="translate(382.666016 0)"/>
     <use xlink:href="#DejaVuSans-Bold-68" transform="translate(450.878906 0)"/>
     <use xlink:href="#DejaVuSans-Bold-72" transform="translate(522.070312 0)"/>
     <use xlink:href="#DejaVuSans-Bold-65" transform="translate(571.386719 0)"/>
     <use xlink:href="#DejaVuSans-Bold-65" transform="translate(639.208984 0)"/>
     <use xlink:href="#DejaVuSans-Bold-20" transform="translate(707.03125 0)"/>
     <use xlink:href="#DejaVuSans-Bold-4d" transform="translate(741.845703 0)"/>
     <use xlink:href="#DejaVuSans-Bold-65" transform="translate(841.357422 0)"/>
     <use xlink:href="#DejaVuSans-Bold-74" transform="translate(909.179688 0)"/>
     <use xlink:href="#DejaVuSans-Bold-68" transform="translate(956.982422 0)"/>
     <use xlink:href="#DejaVuSans-Bold-6f" transform="translate(1028.173828 0)"/>
     <use xlink:href="#DejaVuSans-Bold-64" transform="translate(1096.875 0)"/>
     <use xlink:href="#DejaVuSans-Bold-73" transform="translate(1168.457031 0)"/>
     <use xlink:href="#DejaVuSans-Bold-20" transform="translate(1227.978516 0)"/>
     <use xlink:href="#DejaVuSans-Bold-2014" transform="translate(1262.792969 0)"/>
     <use xlink:href="#DejaVuSans-Bold-20" transform="translate(1362.792969 0)"/>
     <use xlink:href="#DejaVuSans-Bold-4d" transform="translate(1397.607422 0)"/>
     <use xlink:href="#DejaVuSans-Bold-53" transform="translate(1497.119141 0)"/>
     <use xlink:href="#DejaVuSans-Bold-46" transform="translate(1569.140625 0)"/>
     <use xlink:href="#DejaVuSans-Bold-54" transform="translate(1637.451172 0)"/>
     <use xlink:href="#DejaVuSans-Bold-20" transform="translate(1705.664062 0)"/>
     <use xlink:href="#DejaVuSans-Bold-34" transform="translate(1740.478516 0)"/>
     <use xlink:href="#DejaVuSans-Bold-48" transform="translate(1810.058594 0)"/>
    </g>
   </g>
  </g>
  <g id="axes_2">
   <g id="patch_35">
    <path d="M 31.0325 253.078125 
L 477.4325 253.078125 
L 477.4325 198.99032 
L 31.0325 198.99032 
z
" style="fill: #0a0f1a"/>
   </g>
   <g id="patch_36">
    <path d="M 51.323409 253.078125 
L 60.888147 253.078125 
L 60.888147 233.133331 
L 51.323409 233.133331 
z
" clip-path="url(#pbb9a122467)" style="fill: #ef4444; fill-opacity: 0.266667"/>
   </g>
   <g id="patch_37">
    <path d="M 64.987321 253.078125 
L 74.552059 253.078125 
L 74.552059 206.3728 
L 64.987321 206.3728 
z
" clip-path="url(#pbb9a122467)" style="fill: #ef4444; fill-opacity: 0.266667"/>
   </g>
   <g id="patch_38">
    <path d="M 78.651233 253.078125 
L 88.215971 253.078125 
L 88.215971 206.796683 
L 78.651233 206.796683 
z
" clip-path="url(#pbb9a122467)" style="fill: #ef4444; fill-opacity: 0.266667"/>
   </g>
   <g id="patch_39">
    <path d="M 92.315145 253.078125 
L 101.879883 253.078125 
L 101.879883 222.180574 
L 92.315145 222.180574 
z
" clip-path="url(#pbb9a122467)" style="fill: #ef4444; fill-opacity: 0.266667"/>
   </g>
   <g id="patch_40">
    <path d="M 105.979056 253.078125 
L 115.543795 253.078125 
L 115.543795 227.942824 
L 105.979056 227.942824 
z
" clip-path="url(#pbb9a122467)" style="fill: #22c55e; fill-opacity: 0.266667"/>
   </g>
   <g id="patch_41">
    <path d="M 119.642968 253.078125 
L 129.207707 253.078125 
L 129.207707 238.609886 
L 119.642968 238.609886 
z
" clip-path="url(#pbb9a122467)" style="fill: #ef4444; fill-opacity: 0.266667"/>
   </g>
   <g id="patch_42">
    <path d="M 133.30688 253.078125 
L 142.871618 253.078125 
L 142.871618 201.56593 
L 133.30688 201.56593 
z
" clip-path="url(#pbb9a122467)" style="fill: #22c55e; fill-opacity: 0.266667"/>
   </g>
   <g id="patch_43">
    <path d="M 146.970792 253.078125 
L 156.53553 253.078125 
L 156.53553 221.412731 
L 146.970792 221.412731 
z
" clip-path="url(#pbb9a122467)" style="fill: #ef4444; fill-opacity: 0.266667"/>
   </g>
   <g id="patch_44">
    <path d="M 160.634704 253.078125 
L 170.199442 253.078125 
L 170.199442 228.856568 
L 160.634704 228.856568 
z
" clip-path="url(#pbb9a122467)" style="fill: #22c55e; fill-opacity: 0.266667"/>
   </g>
   <g id="patch_45">
    <path d="M 174.298616 253.078125 
L 183.863354 253.078125 
L 183.863354 223.250006 
L 174.298616 223.250006 
z
" clip-path="url(#pbb9a122467)" style="fill: #ef4444; fill-opacity: 0.266667"/>
   </g>
   <g id="patch_46">
    <path d="M 187.962528 253.078125 
L 197.527266 253.078125 
L 197.527266 237.844199 
L 187.962528 237.844199 
z
" clip-path="url(#pbb9a122467)" style="fill: #22c55e; fill-opacity: 0.266667"/>
   </g>
   <g id="patch_47">
    <path d="M 201.626439 253.078125 
L 211.191178 253.078125 
L 211.191178 230.115216 
L 201.626439 230.115216 
z
" clip-path="url(#pbb9a122467)" style="fill: #22c55e; fill-opacity: 0.266667"/>
   </g>
   <g id="patch_48">
    <path d="M 215.290351 253.078125 
L 224.85509 253.078125 
L 224.85509 204.015008 
L 215.290351 204.015008 
z
" clip-path="url(#pbb9a122467)" style="fill: #22c55e; fill-opacity: 0.266667"/>
   </g>
   <g id="patch_49">
    <path d="M 228.954263 253.078125 
L 238.519001 253.078125 
L 238.519001 237.579342 
L 228.954263 237.579342 
z
" clip-path="url(#pbb9a122467)" style="fill: #22c55e; fill-opacity: 0.266667"/>
   </g>
   <g id="patch_50">
    <path d="M 242.618175 253.078125 
L 252.182913 253.078125 
L 252.182913 234.274547 
L 242.618175 234.274547 
z
" clip-path="url(#pbb9a122467)" style="fill: #22c55e; fill-opacity: 0.266667"/>
   </g>
   <g id="patch_51">
    <path d="M 256.282087 253.078125 
L 265.846825 253.078125 
L 265.846825 221.956409 
L 256.282087 221.956409 
z
" clip-path="url(#pbb9a122467)" style="fill: #22c55e; fill-opacity: 0.266667"/>
   </g>
   <g id="patch_52">
    <path d="M 269.945999 253.078125 
L 279.510737 253.078125 
L 279.510737 230.522449 
L 269.945999 230.522449 
z
" clip-path="url(#pbb9a122467)" style="fill: #ef4444; fill-opacity: 0.266667"/>
   </g>
   <g id="patch_53">
    <path d="M 283.60991 253.078125 
L 293.174649 253.078125 
L 293.174649 204.556551 
L 283.60991 204.556551 
z
" clip-path="url(#pbb9a122467)" style="fill: #ef4444; fill-opacity: 0.266667"/>
   </g>
   <g id="patch_54">
    <path d="M 297.273822 253.078125 
L 306.838561 253.078125 
L 306.838561 235.201219 
L 297.273822 235.201219 
z
" clip-path="url(#pbb9a122467)" style="fill: #ef4444; fill-opacity: 0.266667"/>
   </g>
   <g id="patch_55">
    <path d="M 310.937734 253.078125 
L 320.502472 253.078125 
L 320.502472 231.661944 
L 310.937734 231.661944 
z
" clip-path="url(#pbb9a122467)" style="fill: #ef4444; fill-opacity: 0.266667"/>
   </g>
   <g id="patch_56">
    <path d="M 324.601646 253.078125 
L 334.166384 253.078125 
L 334.166384 225.398262 
L 324.601646 225.398262 
z
" clip-path="url(#pbb9a122467)" style="fill: #ef4444; fill-opacity: 0.266667"/>
   </g>
   <g id="patch_57">
    <path d="M 338.265558 253.078125 
L 347.830296 253.078125 
L 347.830296 242.42338 
L 338.265558 242.42338 
z
" clip-path="url(#pbb9a122467)" style="fill: #22c55e; fill-opacity: 0.266667"/>
   </g>
   <g id="patch_58">
    <path d="M 351.92947 253.078125 
L 361.494208 253.078125 
L 361.494208 220.956491 
L 351.92947 220.956491 
z
" clip-path="url(#pbb9a122467)" style="fill: #22c55e; fill-opacity: 0.266667"/>
   </g>
   <g id="patch_59">
    <path d="M 365.593382 253.078125 
L 375.15812 253.078125 
L 375.15812 226.95514 
L 365.593382 226.95514 
z
" clip-path="url(#pbb9a122467)" style="fill: #ef4444; fill-opacity: 0.266667"/>
   </g>
   <g id="patch_60">
    <path d="M 379.257293 253.078125 
L 388.822032 253.078125 
L 388.822032 221.204574 
L 379.257293 221.204574 
z
" clip-path="url(#pbb9a122467)" style="fill: #22c55e; fill-opacity: 0.266667"/>
   </g>
   <g id="patch_61">
    <path d="M 392.921205 253.078125 
L 402.485944 253.078125 
L 402.485944 231.223577 
L 392.921205 231.223577 
z
" clip-path="url(#pbb9a122467)" style="fill: #22c55e; fill-opacity: 0.266667"/>
   </g>
   <g id="patch_62">
    <path d="M 406.585117 253.078125 
L 416.149855 253.078125 
L 416.149855 219.584445 
L 406.585117 219.584445 
z
" clip-path="url(#pbb9a122467)" style="fill: #22c55e; fill-opacity: 0.266667"/>
   </g>
   <g id="patch_63">
    <path d="M 420.249029 253.078125 
L 429.813767 253.078125 
L 429.813767 241.919533 
L 420.249029 241.919533 
z
" clip-path="url(#pbb9a122467)" style="fill: #22c55e; fill-opacity: 0.266667"/>
   </g>
   <g id="patch_64">
    <path d="M 433.912941 253.078125 
L 443.477679 253.078125 
L 443.477679 234.269571 
L 433.912941 234.269571 
z
" clip-path="url(#pbb9a122467)" style="fill: #ef4444; fill-opacity: 0.266667"/>
   </g>
   <g id="patch_65">
    <path d="M 447.576853 253.078125 
L 457.141591 253.078125 
L 457.141591 215.226681 
L 447.576853 215.226681 
z
" clip-path="url(#pbb9a122467)" style="fill: #ef4444; fill-opacity: 0.266667"/>
   </g>
   <g id="matplotlib.axis_3">
    <g id="xtick_8">
     <g id="line2d_59">
      <path d="M 56.105778 253.078125 
L 56.105778 198.99032 
" clip-path="url(#pbb9a122467)" style="fill: none; stroke-dasharray: 2.96,1.28; stroke-dashoffset: 0; stroke: #374151; stroke-opacity: 0.1; stroke-width: 0.8"/>
     </g>
     <g id="line2d_60">
      <g>
       <use xlink:href="#m9ace47effb" x="56.105778" y="253.078125" style="fill: #9ca3af; stroke: #9ca3af; stroke-width: 0.8"/>
      </g>
     </g>
     <g id="text_9">
      <!-- 0 -->
      <g style="fill: #9ca3af" transform="translate(53.560778 266.156875) scale(0.08 -0.08)">
       <use xlink:href="#DejaVuSans-30"/>
      </g>
     </g>
    </g>
    <g id="xtick_9">
     <g id="line2d_61">
      <path d="M 124.425337 253.078125 
L 124.425337 198.99032 
" clip-path="url(#pbb9a122467)" style="fill: none; stroke-dasharray: 2.96,1.28; stroke-dashoffset: 0; stroke: #374151; stroke-opacity: 0.1; stroke-width: 0.8"/>
     </g>
     <g id="line2d_62">
      <g>
       <use xlink:href="#m9ace47effb" x="124.425337" y="253.078125" style="fill: #9ca3af; stroke: #9ca3af; stroke-width: 0.8"/>
      </g>
     </g>
     <g id="text_10">
      <!-- 5 -->
      <g style="fill: #9ca3af" transform="translate(121.880337 266.156875) scale(0.08 -0.08)">
       <defs>
        <path id="DejaVuSans-35" d="M 691 4666 
L 3169 4666 
L 3169 4134 
L 1269 4134 
L 1269 2991 
Q 1406 3038 1543 3061 
Q 1681 3084 1819 3084 
Q 2600 3084 3056 2656 
Q 3513 2228 3513 1497 
Q 3513 744 3044 326 
Q 2575 -91 1722 -91 
Q 1428 -91 1123 -41 
Q 819 9 494 109 
L 494 744 
Q 775 591 1075 516 
Q 1375 441 1709 441 
Q 2250 441 2565 725 
Q 2881 1009 2881 1497 
Q 2881 1984 2565 2268 
Q 2250 2553 1709 2553 
Q 1456 2553 1204 2497 
Q 953 2441 691 2322 
L 691 4666 
z
" transform="scale(0.015625)"/>
       </defs>
       <use xlink:href="#DejaVuSans-35"/>
      </g>
     </g>
    </g>
    <g id="xtick_10">
     <g id="line2d_63">
      <path d="M 192.744897 253.078125 
L 192.744897 198.99032 
" clip-path="url(#pbb9a122467)" style="fill: none; stroke-dasharray: 2.96,1.28; stroke-dashoffset: 0; stroke: #374151; stroke-opacity: 0.1; stroke-width: 0.8"/>
     </g>
     <g id="line2d_64">
      <g>
       <use xlink:href="#m9ace47effb" x="192.744897" y="253.078125" style="fill: #9ca3af; stroke: #9ca3af; stroke-width: 0.8"/>
      </g>
     </g>
     <g id="text_11">
      <!-- 10 -->
      <g style="fill: #9ca3af" transform="translate(187.654897 266.156875) scale(0.08 -0.08)">
       <use xlink:href="#DejaVuSans-31"/>
       <use xlink:href="#DejaVuSans-30" transform="translate(63.623047 0)"/>
      </g>
     </g>
    </g>
    <g id="xtick_11">
     <g id="line2d_65">
      <path d="M 261.064456 253.078125 
L 261.064456 198.99032 
" clip-path="url(#pbb9a122467)" style="fill: none; stroke-dasharray: 2.96,1.28; stroke-dashoffset: 0; stroke: #374151; stroke-opacity: 0.1; stroke-width: 0.8"/>
     </g>
     <g id="line2d_66">
      <g>
       <use xlink:href="#m9ace47effb" x="261.064456" y="253.078125" style="fill: #9ca3af; stroke: #9ca3af; stroke-width: 0.8"/>
      </g>
     </g>
     <g id="text_12">
      <!-- 15 -->
      <g style="fill: #9ca3af" transform="translate(255.974456 266.156875) scale(0.08 -0.08)">
       <use xlink:href="#DejaVuSans-31"/>
       <use xlink:href="#DejaVuSans-35" transform="translate(63.623047 0)"/>
      </g>
     </g>
    </g>
    <g id="xtick_12">
     <g id="line2d_67">
      <path d="M 329.384015 253.078125 
L 329.384015 198.99032 
" clip-path="url(#pbb9a122467)" style="fill: none; stroke-dasharray: 2.96,1.28; stroke-dashoffset: 0; stroke: #374151; stroke-opacity: 0.1; stroke-width: 0.8"/>
     </g>
     <g id="line2d_68">
      <g>
       <use xlink:href="#m9ace47effb" x="329.384015" y="253.078125" style="fill: #9ca3af; stroke: #9ca3af; stroke-width: 0.8"/>
      </g>
     </g>
     <g id="text_13">
      <!-- 20 -->
      <g style="fill: #9ca3af" transform="translate(324.294015 266.156875) scale(0.08 -0.08)">
       <use xlink:href="#DejaVuSans-32"/>
       <use xlink:href="#DejaVuSans-30" transform="translate(63.623047 0)"/>
      </g>
     </g>
    </g>
    <g id="xtick_13">
     <g id="line2d_69">
      <path d="M 397.703574 253.078125 
L 397.703574 198.99032 
" clip-path="url(#pbb9a122467)" style="fill: none; stroke-dasharray: 2.96,1.28; stroke-dashoffset: 0; stroke: #374151; stroke-opacity: 0.1; stroke-width: 0.8"/>
     </g>
     <g id="line2d_70">
      <g>
       <use xlink:href="#m9ace47effb" x="397.703574" y="253.078125" style="fill: #9ca3af; stroke: #9ca3af; stroke-width: 0.8"/>
      </g>
     </g>
     <g id="text_14">
      <!-- 25 -->
      <g style="fill: #9ca3af" transform="translate(392.613574 266.156875) scale(0.08 -0.08)">
       <use xlink:href="#DejaVuSans-32"/>
       <use xlink:href="#DejaVuSans-35" transform="translate(63.623047 0)"/>
      </g>
     </g>
    </g>
    <g id="xtick_14">
     <g id="line2d_71">
      <path d="M 466.023134 253.078125 
L 466.023134 198.99032 
" clip-path="url(#pbb9a122467)" style="fill: none; stroke-dasharray: 2.96,1.28; stroke-dashoffset: 0; stroke: #374151; stroke-opacity: 0.1; stroke-width: 0.8"/>
     </g>
     <g id="line2d_72">
      <g>
       <use xlink:href="#m9ace47effb" x="466.023134" y="253.078125" style="fill: #9ca3af; stroke: #9ca3af; stroke-width: 0.8"/>
      </g>
     </g>
     <g id="text_15">
      <!-- 30 -->
      <g style="fill: #9ca3af" transform="translate(460.933134 266.156875) scale(0.08 -0.08)">
       <defs>
        <path id="DejaVuSans-33" d="M 2597 2516 
Q 3050 2419 3304 2112 
Q 3559 1806 3559 1356 
Q 3559 666 3084 287 
Q 2609 -91 1734 -91 
Q 1441 -91 1130 -33 
Q 819 25 488 141 
L 488 750 
Q 750 597 1062 519 
Q 1375 441 1716 441 
Q 2309 441 2620 675 
Q 2931 909 2931 1356 
Q 2931 1769 2642 2001 
Q 2353 2234 1838 2234 
L 1294 2234 
L 1294 2753 
L 1863 2753 
Q 2328 2753 2575 2939 
Q 2822 3125 2822 3475 
Q 2822 3834 2567 4026 
Q 2313 4219 1838 4219 
Q 1578 4219 1281 4162 
Q 984 4106 628 3988 
L 628 4550 
Q 988 4650 1302 4700 
Q 1616 4750 1894 4750 
Q 2613 4750 3031 4423 
Q 3450 4097 3450 3541 
Q 3450 3153 3228 2886 
Q 3006 2619 2597 2516 
z
" transform="scale(0.015625)"/>
       </defs>
       <use xlink:href="#DejaVuSans-33"/>
       <use xlink:href="#DejaVuSans-30" transform="translate(63.623047 0)"/>
      </g>
     </g>
    </g>
   </g>
   <g id="matplotlib.axis_4">
    <g id="ytick_8">
     <g id="line2d_73">
      <path d="M 31.0325 253.078125 
L 477.4325 253.078125 
" clip-path="url(#pbb9a122467)" style="fill: none; stroke-dasharray: 2.96,1.28; stroke-dashoffset: 0; stroke: #374151; stroke-opacity: 0.1; stroke-width: 0.8"/>
     </g>
     <g id="line2d_74">
      <g>
       <use xlink:href="#m72edf6f70b" x="31.0325" y="253.078125" style="fill: #9ca3af; stroke: #9ca3af; stroke-width: 0.8"/>
      </g>
     </g>
     <g id="text_16">
      <!-- 0 -->
      <g style="fill: #9ca3af" transform="translate(18.9425 256.1175) scale(0.08 -0.08)">
       <use xlink:href="#DejaVuSans-30"/>
      </g>
     </g>
    </g>
    <g id="ytick_9">
     <g id="line2d_75">
      <path d="M 31.0325 232.34326 
L 477.4325 232.34326 
" clip-path="url(#pbb9a122467)" style="fill: none; stroke-dasharray: 2.96,1.28; stroke-dashoffset: 0; stroke: #374151; stroke-opacity: 0.1; stroke-width: 0.8"/>
     </g>
     <g id="line2d_76">
      <g>
       <use xlink:href="#m72edf6f70b" x="31.0325" y="232.34326" style="fill: #9ca3af; stroke: #9ca3af; stroke-width: 0.8"/>
      </g>
     </g>
     <g id="text_17">
      <!-- 2 -->
      <g style="fill: #9ca3af" transform="translate(18.9425 235.382635) scale(0.08 -0.08)">
       <use xlink:href="#DejaVuSans-32"/>
      </g>
     </g>
    </g>
    <g id="ytick_10">
     <g id="line2d_77">
      <path d="M 31.0325 211.608395 
L 477.4325 211.608395 
" clip-path="url(#pbb9a122467)" style="fill: none; stroke-dasharray: 2.96,1.28; stroke-dashoffset: 0; stroke: #374151; stroke-opacity: 0.1; stroke-width: 0.8"/>
     </g>
     <g id="line2d_78">
      <g>
       <use xlink:href="#m72edf6f70b" x="31.0325" y="211.608395" style="fill: #9ca3af; stroke: #9ca3af; stroke-width: 0.8"/>
      </g>
     </g>
     <g id="text_18">
      <!-- 4 -->
      <g style="fill: #9ca3af" transform="translate(18.9425 214.64777) scale(0.08 -0.08)">
       <use xlink:href="#DejaVuSans-34"/>
      </g>
     </g>
    </g>
    <g id="text_19">
     <!-- Vol -->
     <g style="fill: #9ca3af" transform="translate(13.27875 232.019223) rotate(-90) scale(0.08 -0.08)">
      <defs>
       <path id="DejaVuSans-56" d="M 1831 0 
L 50 4666 
L 709 4666 
L 2188 738 
L 3669 4666 
L 4325 4666 
L 2547 0 
L 1831 0 
z
" transform="scale(0.015625)"/>
       <path id="DejaVuSans-6f" d="M 1959 3097 
Q 1497 3097 1228 2736 
Q 959 2375 959 1747 
Q 959 1119 1226 758 
Q 1494 397 1959 397 
Q 2419 397 2687 759 
Q 2956 1122 2956 1747 
Q 2956 2369 2687 2733 
Q 2419 3097 1959 3097 
z
M 1959 3584 
Q 2709 3584 3137 3096 
Q 3566 2609 3566 1747 
Q 3566 888 3137 398 
Q 2709 -91 1959 -91 
Q 1206 -91 779 398 
Q 353 888 353 1747 
Q 353 2609 779 3096 
Q 1206 3584 1959 3584 
z
" transform="scale(0.015625)"/>
       <path id="DejaVuSans-6c" d="M 603 4863 
L 1178 4863 
L 1178 0 
L 603 0 
L 603 4863 
z
" transform="scale(0.015625)"/>
      </defs>
      <use xlink:href="#DejaVuSans-56"/>
      <use xlink:href="#DejaVuSans-6f" transform="translate(60.658203 0)"/>
      <use xlink:href="#DejaVuSans-6c" transform="translate(121.839844 0)"/>
     </g>
    </g>
    <g id="text_20">
     <!-- 1e6 -->
     <g style="fill: #9ca3af" transform="translate(31.0325 195.99032) scale(0.1 -0.1)">
      <defs>
       <path id="DejaVuSans-65" d="M 3597 1894 
L 3597 1613 
L 953 1613 
Q 991 1019 1311 708 
Q 1631 397 2203 397 
Q 2534 397 2845 478 
Q 3156 559 3463 722 
L 3463 178 
Q 3153 47 2828 -22 
Q 2503 -91 2169 -91 
Q 1331 -91 842 396 
Q 353 884 353 1716 
Q 353 2575 817 3079 
Q 1281 3584 2069 3584 
Q 2775 3584 3186 3129 
Q 3597 2675 3597 1894 
z
M 3022 2063 
Q 3016 2534 2758 2815 
Q 2500 3097 2075 3097 
Q 1594 3097 1305 2825 
Q 1016 2553 972 2059 
L 3022 2063 
z
" transform="scale(0.015625)"/>
      </defs>
      <use xlink:href="#DejaVuSans-31"/>
      <use xlink:href="#DejaVuSans-65" transform="translate(63.623047 0)"/>
      <use xlink:href="#DejaVuSans-36" transform="translate(125.146484 0)"/>
     </g>
    </g>
   </g>
   <g id="patch_66">
    <path d="M 31.0325 253.078125 
L 31.0325 198.99032 
" style="fill: none; stroke: #1f2937; stroke-width: 0.8; stroke-linejoin: miter; stroke-linecap: square"/>
   </g>
   <g id="patch_67">
    <path d="M 31.0325 253.078125 
L 477.4325 253.078125 
" style="fill: none; stroke: #1f2937; stroke-width: 0.8; stroke-linejoin: miter; stroke-linecap: square"/>
   </g>
  </g>
 </g>
 <defs>
  <clipPath id="p8e824b9c07">
   <rect x="31.0325" y="31.318125" width="446.4" height="162.263415"/>
  </clipPath>
  <clipPath id="pbb9a122467">
   <rect x="31.0325" y="198.99032" width="446.4" height="54.087805"/>
  </clipPath>
 </defs>
</svg>
