<?xml version="1.0" encoding="utf-8" standalone="no"?>
<!DOCTYPE svg PUBLIC "-//W3C//DTD SVG 1.1//EN"
  "http://www.w3.org/Graphics/SVG/1.1/DTD/svg11.dtd">
<svg xmlns:xlink="http://www.w3.org/1999/xlink" width="490.7025pt" height="275.020625pt" viewBox="0 0 490.7025 275.020625" xmlns="http://www.w3.org/2000/svg" version="1.1">
 <metadata>
  <rdf:RDF xmlns:dc="http://purl.org/dc/elements/1.1/" xmlns:cc="http://creativecommons.org/ns#" xmlns:rdf="http://www.w3.org/1999/02/22-rdf-syntax-ns#">
   <cc:Work>
    <dc:type rdf:resource="http://purl.org/dc/dcmitype/StillImage"/>
    <dc:date>2026-02-16T09:12:39.554213</dc:date>
    <dc:format>image/svg+xml</dc:format>
    <dc:creator>
     <cc:Agent>
      <dc:title>Matplotlib v3.10.8, https://matplotlib.org/</dc:title>
     </cc:Agent>
    </dc:creator>
   </cc:Work>
  </rdf:RDF>
 </metadata>
 <defs>
  <style type="text/css">*{stroke-linejoin: round; stroke-linecap: butt}</style>
 </defs>
 <g id="figure_1">
  <g id="patch_1">
   <path d="M 0 275.020625 
L 490.7025 275.020625 
L 490.7025 0 
L 0 0 
z
" style="fill: #0a0f1a"/>
  </g>
  <g id="axes_1">
   <g id="patch_2">
    <path d="M 37.1025 193.58154 
L 483.5025 193.58154 
L 483.5025 31.318125 
L 37.1025 31.318125 
z
" style="fill: #0a0f1a"/>
   </g>
   <g id="patch_3">
    <path d="M 46.4625 76.158937 
L 56.5425 76.158937 
Q 56.8305 76.158937 56.8305 75.992846 
L 56.8305 71.840573 
Q 56.8305 71.674482 56.5425 71.674482 
L 46.4625 71.674482 
Q 46.1745 71.674482 46.1745 71.840573 
L 46.1745 75.992846 
Q 46.1745 76.158937 46.4625 76.158937 
z
" clip-path="url(#p24de9ef646)" style="fill: #22c55e; stroke: #22c55e; stroke-linejoin: miter"/>
   </g>
   <g id="patch_4">
    <path d="M 60.8625 84.638038 
L 70.9425 84.638038 
Q 71.2305 84.638038 71.2305 84.471947 
L 71.2305 71.840573 
Q 71.2305 71.674482 70.9425 71.674482 
L 60.8625 71.674482 
Q 60.5745 71.674482 60.5745 71.840573 
L 60.5745 84.471947 
Q 60.5745 84.638038 60.8625 84.638038 
z
" clip-path="url(#p24de9ef646)" style="fill: #ef4444; stroke: #ef4444; stroke-linejoin: miter"/>
   </g>
   <g id="patch_5">
    <path d="M 75.2625 98.904087 
L 85.3425 98.904087 
Q 85.6305 98.904087 85.6305 98.737996 
L 85.6305 84.471947 
Q 85.6305 84.305856 85.3425 84.305856 
L 75.2625 84.305856 
Q 74.9745 84.305856 74.9745 84.471947 
L 74.9745 98.737996 
Q 74.9745 98.904087 75.2625 98.904087 
z
" clip-path="url(#p24de9ef646)" style="fill: #ef4444; stroke: #ef4444; stroke-linejoin: miter"/>
   </g>
   <g id="patch_6">
    <path d="M 89.6625 112.796589 
L 99.7425 112.796589 
Q 100.0305 112.796589 100.0305 112.630498 
L 100.0305 98.737996 
Q 100.0305 98.571905 99.7425 98.571905 
L 89.6625 98.571905 
Q 89.3745 98.571905 89.3745 98.737996 
L 89.3745 112.630498 
Q 89.3745 112.796589 89.6625 112.796589 
z
" clip-path="url(#p24de9ef646)" style="fill: #ef4444; stroke: #ef4444; stroke-linejoin: miter"/>
   </g>
   <g id="patch_7">
    <path d="M 104.0625 126.943562 
L 114.1425 126.943562 
Q 114.4305 126.943562 114.4305 126.777471 
L 114.4305 112.630498 
Q 114.4305 112.464407 114.1425 112.464407 
L 104.0625 112.464407 
Q 103.7745 112.464407 103.7745 112.630498 
L 103.7745 126.777471 
Q 103.7745 126.943562 104.0625 126.943562 
z
" clip-path="url(#p24de9ef646)" style="fill: #ef4444; stroke: #ef4444; stroke-linejoin: miter"/>
   </g>
   <g id="patch_8">
    <path d="M 118.4625 139.769977 
L 128.5425 139.769977 
Q 128.8305 139.769977 128.8305 139.603886 
L 128.8305 126.777471 
Q 128.8305 126.61138 128.5425 126.61138 
L 118.4625 126.61138 
Q 118.1745 126.61138 118.1745 126.777471 
L 118.1745 139.603886 
Q 118.1745 139.769977 118.4625 139.769977 
z
" clip-path="url(#p24de9ef646)" style="fill: #ef4444; stroke: #ef4444; stroke-linejoin: miter"/>
   </g>
   <g id="patch_9">
    <path d="M 132.8625 154.02219 
L 142.9425 154.02219 
Q 143.2305 154.02219 143.2305 153.856099 
L 143.2305 139.603886 
Q 143.2305 139.437795 142.9425 139.437795 
L 132.8625 139.437795 
Q 132.5745 139.437795 132.5745 139.603886 
L 132.5745 153.856099 
Q 132.5745 154.02219 132.8625 154.02219 
z
" clip-path="url(#p24de9ef646)" style="fill: #ef4444; stroke: #ef4444; stroke-linejoin: miter"/>
   </g>
   <g id="patch_10">
    <path d="M 147.2625 159.050315 
L 157.3425 159.050315 
Q 157.6305 159.050315 157.6305 158.884224 
L 157.6305 153.856099 
Q 157.6305 153.690008 157.3425 153.690008 
L 147.2625 153.690008 
Q 146.9745 153.690008 146.9745 153.856099 
L 146.9745 158.884224 
Q 146.9745 159.050315 147.2625 159.050315 
z
" clip-path="url(#p24de9ef646)" style="fill: #ef4444; stroke: #ef4444; stroke-linejoin: miter"/>
   </g>
   <g id="patch_11">
    <path d="M 161.6625 161.146013 
L 171.7425 161.146013 
Q 172.0305 161.146013 172.0305 160.979922 
L 172.0305 158.884224 
Q 172.0305 158.718133 171.7425 158.718133 
L 161.6625 158.718133 
Q 161.3745 158.718133 161.3745 158.884224 
L 161.3745 160.979922 
Q 161.3745 161.146013 161.6625 161.146013 
z
" clip-path="url(#p24de9ef646)" style="fill: #ef4444; stroke: #ef4444; stroke-linejoin: miter"/>
   </g>
   <g id="patch_12">
    <path d="M 176.0625 163.586351 
L 186.1425 163.586351 
Q 186.4305 163.586351 186.4305 163.42026 
L 186.4305 160.979922 
Q 186.4305 160.813831 186.1425 160.813831 
L 176.0625 160.813831 
Q 175.7745 160.813831 175.7745 160.979922 
L 175.7745 163.42026 
Q 175.7745 163.586351 176.0625 163.586351 
z
" clip-path="url(#p24de9ef646)" style="fill: #ef4444; stroke: #ef4444; stroke-linejoin: miter"/>
   </g>
   <g id="patch_13">
    <path d="M 190.4625 166.189956 
L 200.5425 166.189956 
Q 200.8305 166.189956 200.8305 166.023865 
L 200.8305 163.42026 
Q 200.8305 163.254169 200.5425 163.254169 
L 190.4625 163.254169 
Q 190.1745 163.254169 190.1745 163.42026 
L 190.1745 166.023865 
Q 190.1745 166.189956 190.4625 166.189956 
z
" clip-path="url(#p24de9ef646)" style="fill: #ef4444; stroke: #ef4444; stroke-linejoin: miter"/>
   </g>
   <g id="patch_14">
    <path d="M 204.8625 169.025255 
L 214.9425 169.025255 
Q 215.2305 169.025255 215.2305 168.859164 
L 215.2305 166.023865 
Q 215.2305 165.857774 214.9425 165.857774 
L 204.8625 165.857774 
Q 204.5745 165.857774 204.5745 166.023865 
L 204.5745 168.859164 
Q 204.5745 169.025255 204.8625 169.025255 
z
" clip-path="url(#p24de9ef646)" style="fill: #ef4444; stroke: #ef4444; stroke-linejoin: miter"/>
   </g>
   <g id="patch_15">
    <path d="M 219.2625 172.961033 
L 229.3425 172.961033 
Q 229.6305 172.961033 229.6305 172.794942 
L 229.6305 168.859164 
Q 229.6305 168.693073 229.3425 168.693073 
L 219.2625 168.693073 
Q 218.9745 168.693073 218.9745 168.859164 
L 218.9745 172.794942 
Q 218.9745 172.961033 219.2625 172.961033 
z
" clip-path="url(#p24de9ef646)" style="fill: #ef4444; stroke: #ef4444; stroke-linejoin: miter"/>
   </g>
   <g id="patch_16">
    <path d="M 233.6625 174.652611 
L 243.7425 174.652611 
Q 244.0305 174.652611 244.0305 174.486521 
L 244.0305 172.794942 
Q 244.0305 172.628851 243.7425 172.628851 
L 233.6625 172.628851 
Q 233.3745 172.628851 233.3745 172.794942 
L 233.3745 174.486521 
Q 233.3745 174.652611 233.6625 174.652611 
z
" clip-path="url(#p24de9ef646)" style="fill: #ef4444; stroke: #ef4444; stroke-linejoin: miter"/>
   </g>
   <g id="patch_17">
    <path d="M 248.0625 175.78348 
L 258.1425 175.78348 
Q 258.4305 175.78348 258.4305 175.61739 
L 258.4305 174.486521 
Q 258.4305 174.32043 258.1425 174.32043 
L 248.0625 174.32043 
Q 247.7745 174.32043 247.7745 174.486521 
L 247.7745 175.61739 
Q 247.7745 175.78348 248.0625 175.78348 
z
" clip-path="url(#p24de9ef646)" style="fill: #ef4444; stroke: #ef4444; stroke-linejoin: miter"/>
   </g>
   <g id="patch_18">
    <path d="M 262.4625 178.326852 
L 272.5425 178.326852 
Q 272.8305 178.326852 272.8305 178.160762 
L 272.8305 175.61739 
Q 272.8305 175.451299 272.5425 175.451299 
L 262.4625 175.451299 
Q 262.1745 175.451299 262.1745 175.61739 
L 262.1745 178.160762 
Q 262.1745 178.326852 262.4625 178.326852 
z
" clip-path="url(#p24de9ef646)" style="fill: #ef4444; stroke: #ef4444; stroke-linejoin: miter"/>
   </g>
   <g id="patch_19">
    <path d="M 276.8625 178.326852 
L 286.9425 178.326852 
Q 287.2305 178.326852 287.2305 178.160762 
L 287.2305 167.825807 
Q 287.2305 167.659716 286.9425 167.659716 
L 276.8625 167.659716 
Q 276.5745 167.659716 276.5745 167.825807 
L 276.5745 178.160762 
Q 276.5745 178.326852 276.8625 178.326852 
z
" clip-path="url(#p24de9ef646)" style="fill: #22c55e; stroke: #22c55e; stroke-linejoin: miter"/>
   </g>
   <g id="patch_20">
    <path d="M 291.2625 167.991898 
L 301.3425 167.991898 
Q 301.6305 167.991898 301.6305 167.825807 
L 301.6305 154.23399 
Q 301.6305 154.067899 301.3425 154.067899 
L 291.2625 154.067899 
Q 290.9745 154.067899 290.9745 154.23399 
L 290.9745 167.825807 
Q 290.9745 167.991898 291.2625 167.991898 
z
" clip-path="url(#p24de9ef646)" style="fill: #22c55e; stroke: #22c55e; stroke-linejoin: miter"/>
   </g>
   <g id="patch_21">
    <path d="M 305.6625 154.400081 
L 315.7425 154.400081 
Q 316.0305 154.400081 316.0305 154.23399 
L 316.0305 142.4941 
Q 316.0305 142.328009 315.7425 142.328009 
L 305.6625 142.328009 
Q 305.3745 142.328009 305.3745 142.4941 
L 305.3745 154.23399 
Q 305.3745 154.400081 305.6625 154.400081 
z
" clip-path="url(#p24de9ef646)" style="fill: #22c55e; stroke: #22c55e; stroke-linejoin: miter"/>
   </g>
   <g id="patch_22">
    <path d="M 320.0625 142.660191 
L 330.1425 142.660191 
Q 330.4305 142.660191 330.4305 142.4941 
L 330.4305 130.781724 
Q 330.4305 130.615633 330.1425 130.615633 
L 320.0625 130.615633 
Q 319.7745 130.615633 319.7745 130.781724 
L 319.7745 142.4941 
Q 319.7745 142.660191 320.0625 142.660191 
z
" clip-path="url(#p24de9ef646)" style="fill: #22c55e; stroke: #22c55e; stroke-linejoin: miter"/>
   </g>
   <g id="patch_23">
    <path d="M 334.4625 130.947815 
L 344.5425 130.947815 
Q 344.8305 130.947815 344.8305 130.781724 
L 344.8305 120.605951 
Q 344.8305 120.43986 344.5425 120.43986 
L 334.4625 120.43986 
Q 334.1745 120.43986 334.1745 120.605951 
L 334.1745 130.781724 
Q 334.1745 130.947815 334.4625 130.947815 
z
" clip-path="url(#p24de9ef646)" style="fill: #22c55e; stroke: #22c55e; stroke-linejoin: miter"/>
   </g>
   <g id="patch_24">
    <path d="M 348.8625 120.772042 
L 358.9425 120.772042 
Q 359.2305 120.772042 359.2305 120.605951 
L 359.2305 106.397146 
Q 359.2305 106.231055 358.9425 106.231055 
L 348.8625 106.231055 
Q 348.5745 106.231055 348.5745 106.397146 
L 348.5745 120.605951 
Q 348.5745 120.772042 348.8625 120.772042 
z
" clip-path="url(#p24de9ef646)" style="fill: #22c55e; stroke: #22c55e; stroke-linejoin: miter"/>
   </g>
   <g id="patch_25">
    <path d="M 363.2625 106.563237 
L 373.3425 106.563237 
Q 373.6305 106.563237 373.6305 106.397146 
L 373.6305 96.684202 
Q 373.6305 96.518111 373.3425 96.518111 
L 363.2625 96.518111 
Q 362.9745 96.518111 362.9745 96.684202 
L 362.9745 106.397146 
Q 362.9745 106.563237 363.2625 106.563237 
z
" clip-path="url(#p24de9ef646)" style="fill: #22c55e; stroke: #22c55e; stroke-linejoin: miter"/>
   </g>
   <g id="patch_26">
    <path d="M 377.6625 96.850293 
L 387.7425 96.850293 
Q 388.0305 96.850293 388.0305 96.684202 
L 388.0305 84.046774 
Q 388.0305 83.880683 387.7425 83.880683 
L 377.6625 83.880683 
Q 377.3745 83.880683 377.3745 84.046774 
L 377.3745 96.684202 
Q 377.3745 96.850293 377.6625 96.850293 
z
" clip-path="url(#p24de9ef646)" style="fill: #22c55e; stroke: #22c55e; stroke-linejoin: miter"/>
   </g>
   <g id="patch_27">
    <path d="M 392.0625 84.212864 
L 402.1425 84.212864 
Q 402.4305 84.212864 402.4305 84.046774 
L 402.4305 70.419211 
Q 402.4305 70.25312 402.1425 70.25312 
L 392.0625 70.25312 
Q 391.7745 70.25312 391.7745 70.419211 
L 391.7745 84.046774 
Q 391.7745 84.212864 392.0625 84.212864 
z
" clip-path="url(#p24de9ef646)" style="fill: #22c55e; stroke: #22c55e; stroke-linejoin: miter"/>
   </g>
   <g id="patch_28">
    <path d="M 406.4625 80.315712 
L 416.5425 80.315712 
Q 416.8305 80.315712 416.8305 80.149621 
L 416.8305 70.419211 
Q 416.8305 70.25312 416.5425 70.25312 
L 406.4625 70.25312 
Q 406.1745 70.25312 406.1745 70.419211 
L 406.1745 80.149621 
Q 406.1745 80.315712 406.4625 80.315712 
z
" clip-path="url(#p24de9ef646)" style="fill: #ef4444; stroke: #ef4444; stroke-linejoin: miter"/>
   </g>
   <g id="patch_29">
    <path d="M 420.8625 88.603767 
L 430.9425 88.603767 
Q 431.2305 88.603767 431.2305 88.437676 
L 431.2305 80.149621 
Q 431.2305 79.98353 430.9425 79.98353 
L 420.8625 79.98353 
Q 420.5745 79.98353 420.5745 80.149621 
L 420.5745 88.437676 
Q 420.5745 88.603767 420.8625 88.603767 
z
" clip-path="url(#p24de9ef646)" style="fill: #ef4444; stroke: #ef4444; stroke-linejoin: miter"/>
   </g>
   <g id="patch_30">
    <path d="M 435.2625 95.742631 
L 445.3425 95.742631 
Q 445.6305 95.742631 445.6305 95.57654 
L 445.6305 88.437676 
Q 445.6305 88.271585 445.3425 88.271585 
L 435.2625 88.271585 
Q 434.9745 88.271585 434.9745 88.437676 
L 434.9745 95.57654 
Q 434.9745 95.742631 435.2625 95.742631 
z
" clip-path="url(#p24de9ef646)" style="fill: #ef4444; stroke: #ef4444; stroke-linejoin: miter"/>
   </g>
   <g id="patch_31">
    <path d="M 449.6625 95.742631 
L 459.7425 95.742631 
Q 460.0305 95.742631 460.0305 95.57654 
L 460.0305 72.737145 
Q 460.0305 72.571054 459.7425 72.571054 
L 449.6625 72.571054 
Q 449.3745 72.571054 449.3745 72.737145 
L 449.3745 95.57654 
Q 449.3745 95.742631 449.6625 95.742631 
z
" clip-path="url(#p24de9ef646)" style="fill: #22c55e; stroke: #22c55e; stroke-linejoin: miter"/>
   </g>
   <g id="patch_32">
    <path d="M 464.0625 72.903236 
L 474.1425 72.903236 
Q 474.4305 72.903236 474.4305 72.737145 
L 474.4305 46.854449 
Q 474.4305 46.688358 474.1425 46.688358 
L 464.0625 46.688358 
Q 463.7745 46.688358 463.7745 46.854449 
L 463.7745 72.737145 
Q 463.7745 72.903236 464.0625 72.903236 
z
" clip-path="url(#p24de9ef646)" style="fill: #22c55e; stroke: #22c55e; stroke-linejoin: miter"/>
   </g>
   <g id="matplotlib.axis_1">
    <g id="xtick_1">
     <g id="line2d_1">
      <path d="M 51.5025 193.58154 
L 51.5025 31.318125 
" clip-path="url(#p24de9ef646)" style="fill: none; stroke-dasharray: 2.96,1.28; stroke-dashoffset: 0; stroke: #374151; stroke-opacity: 0.1; stroke-width: 0.8"/>
     </g>
     <g id="line2d_2">
      <defs>
       <path id="m979fcf8ced" d="M 0 0 
L 0 3.5 
" style="stroke: #9ca3af; stroke-width: 0.8"/>
      </defs>
      <g>
       <use xlink:href="#m979fcf8ced" x="51.5025" y="193.58154" style="fill: #9ca3af; stroke: #9ca3af; stroke-width: 0.8"/>
      </g>
     </g>
    </g>
    <g id="xtick_2">
     <g id="line2d_3">
      <path d="M 123.5025 193.58154 
L 123.5025 31.318125 
" clip-path="url(#p24de9ef646)" style="fill: none; stroke-dasharray: 2.96,1.28; stroke-dashoffset: 0; stroke: #374151; stroke-opacity: 0.1; stroke-width: 0.8"/>
     </g>
     <g id="line2d_4">
      <g>
       <use xlink:href="#m979fcf8ced" x="123.5025" y="193.58154" style="fill: #9ca3af; stroke: #9ca3af; stroke-width: 0.8"/>
      </g>
     </g>
    </g>
    <g id="xtick_3">
     <g id="line2d_5">
      <path d="M 195.5025 193.58154 
L 195.5025 31.318125 
" clip-path="url(#p24de9ef646)" style="fill: none; stroke-dasharray: 2.96,1.28; stroke-dashoffset: 0; stroke: #374151; stroke-opacity: 0.1; stroke-width: 0.8"/>
     </g>
     <g id="line2d_6">
      <g>
       <use xlink:href="#m979fcf8ced" x="195.5025" y="193.58154" style="fill: #9ca3af; stroke: #9ca3af; stroke-width: 0.8"/>
      </g>
     </g>
    </g>
    <g id="xtick_4">
     <g id="line2d_7">
      <path d="M 267.5025 193.58154 
L 267.5025 31.318125 
" clip-path="url(#p24de9ef646)" style="fill: none; stroke-dasharray: 2.96,1.28; stroke-dashoffset: 0; stroke: #374151; stroke-opacity: 0.1; stroke-width: 0.8"/>
     </g>
     <g id="line2d_8">
      <g>
       <use xlink:href="#m979fcf8ced" x="267.5025" y="193.58154" style="fill: #9ca3af; stroke: #9ca3af; stroke-width: 0.8"/>
      </g>
     </g>
    </g>
    <g id="xtick_5">
     <g id="line2d_9">
      <path d="M 339.5025 193.58154 
L 339.5025 31.318125 
" clip-path="url(#p24de9ef646)" style="fill: none; stroke-dasharray: 2.96,1.28; stroke-dashoffset: 0; stroke: #374151; stroke-opacity: 0.1; stroke-width: 0.8"/>
     </g>
     <g id="line2d_10">
      <g>
       <use xlink:href="#m979fcf8ced" x="339.5025" y="193.58154" style="fill: #9ca3af; stroke: #9ca3af; stroke-width: 0.8"/>
      </g>
     </g>
    </g>
    <g id="xtick_6">
     <g id="line2d_11">
      <path d="M 411.5025 193.58154 
L 411.5025 31.318125 
" clip-path="url(#p24de9ef646)" style="fill: none; stroke-dasharray: 2.96,1.28; stroke-dashoffset: 0; stroke: #374151; stroke-opacity: 0.1; stroke-width: 0.8"/>
     </g>
     <g id="line2d_12">
      <g>
       <use xlink:href="#m979fcf8ced" x="411.5025" y="193.58154" style="fill: #9ca3af; stroke: #9ca3af; stroke-width: 0.8"/>
      </g>
     </g>
    </g>
    <g id="xtick_7">
     <g id="line2d_13">
      <path d="M 483.5025 193.58154 
L 483.5025 31.318125 
" clip-path="url(#p24de9ef646)" style="fill: none; stroke-dasharray: 2.96,1.28; stroke-dashoffset: 0; stroke: #374151; stroke-opacity: 0.1; stroke-width: 0.8"/>
     </g>
     <g id="line2d_14">
      <g>
       <use xlink:href="#m979fcf8ced" x="483.5025" y="193.58154" style="fill: #9ca3af; stroke: #9ca3af; stroke-width: 0.8"/>
      </g>
     </g>
    </g>
   </g>
   <g id="matplotlib.axis_2">
    <g id="ytick_1">
     <g id="line2d_15">
      <path d="M 37.1025 175.647407 
L 483.5025 175.647407 
" clip-path="url(#p24de9ef646)" style="fill: none; stroke-dasharray: 2.96,1.28; stroke-dashoffset: 0; stroke: #374151; stroke-opacity: 0.1; stroke-width: 0.8"/>
     </g>
     <g id="line2d_16">
      <defs>
       <path id="md35c5d60f4" d="M 0 0 
L -3.5 0 
" style="stroke: #9ca3af; stroke-width: 0.8"/>
      </defs>
      <g>
       <use xlink:href="#md35c5d60f4" x="37.1025" y="175.647407" style="fill: #9ca3af; stroke: #9ca3af; stroke-width: 0.8"/>
      </g>
     </g>
     <g id="text_1">
      <!-- 92.5 -->
      <g style="fill: #9ca3af" transform="translate(12.29 178.686782) scale(0.08 -0.08)">
       <defs>
        <path id="DejaVuSans-39" d="M 703 97 
L 703 672 
Q 941 559 1184 500 
Q 1428 441 1663 441 
Q 2288 441 2617 861 
Q 2947 1281 2994 2138 
Q 2813 1869 2534 1725 
Q 2256 1581 1919 1581 
Q 1219 1581 811 2004 
Q 403 2428 403 3163 
Q 403 3881 828 4315 
Q 1253 4750 1959 4750 
Q 2769 4750 3195 4129 
Q 3622 3509 3622 2328 
Q 3622 1225 3098 567 
Q 2575 -91 1691 -91 
Q 1453 -91 1209 -44 
Q 966 3 703 97 
z
M 1959 2075 
Q 2384 2075 2632 2365 
Q 2881 2656 2881 3163 
Q 2881 3666 2632 3958 
Q 2384 4250 1959 4250 
Q 1534 4250 1286 3958 
Q 1038 3666 1038 3163 
Q 1038 2656 1286 2365 
Q 1534 2075 1959 2075 
z
" transform="scale(0.015625)"/>
        <path id="DejaVuSans-32" d="M 1228 531 
L 3431 531 
L 3431 0 
L 469 0 
L 469 531 
Q 828 903 1448 1529 
Q 2069 2156 2228 2338 
Q 2531 2678 2651 2914 
Q 2772 3150 2772 3378 
Q 2772 3750 2511 3984 
Q 2250 4219 1831 4219 
Q 1534 4219 1204 4116 
Q 875 4013 500 3803 
L 500 4441 
Q 881 4594 1212 4672 
Q 1544 4750 1819 4750 
Q 2544 4750 2975 4387 
Q 3406 4025 3406 3419 
Q 3406 3131 3298 2873 
Q 3191 2616 2906 2266 
Q 2828 2175 2409 1742 
Q 1991 1309 1228 531 
z
" transform="scale(0.015625)"/>
        <path id="DejaVuSans-2e" d="M 684 794 
L 1344 794 
L 1344 0 
L 684 0 
L 684 794 
z
" transform="scale(0.015625)"/>
        <path id="DejaVuSans-35" d="M 691 4666 
L 3169 4666 
L 3169 4134 
L 1269 4134 
L 1269 2991 
Q 1406 3038 1543 3061 
Q 1681 3084 1819 3084 
Q 2600 3084 3056 2656 
Q 3513 2228 3513 1497 
Q 3513 744 3044 326 
Q 2575 -91 1722 -91 
Q 1428 -91 1123 -41 
Q 819 9 494 109 
L 494 744 
Q 775 591 1075 516 
Q 1375 441 1709 441 
Q 2250 441 2565 725 
Q 2881 1009 2881 1497 
Q 2881 1984 2565 2268 
Q 2250 2553 1709 2553 
Q 1456 2553 1204 2497 
Q 953 2441 691 2322 
L 691 4666 
z
" transform="scale(0.015625)"/>
       </defs>
       <use xlink:href="#DejaVuSans-39"/>
       <use xlink:href="#DejaVuSans-32" transform="translate(63.623047 0)"/>
       <use xlink:href="#DejaVuSans-2e" transform="translate(127.246094 0)"/>
       <use xlink:href="#DejaVuSans-35" transform="translate(159.033203 0)"/>
      </g>
     </g>
    </g>
    <g id="ytick_2">
     <g id="line2d_17">
      <path d="M 37.1025 154.88604 
L 483.5025 154.88604 
" clip-path="url(#p24de9ef646)" style="fill: none; stroke-dasharray: 2.96,1.28; stroke-dashoffset: 0; stroke: #374151; stroke-opacity: 0.1; stroke-width: 0.8"/>
     </g>
     <g id="line2d_18">
      <g>
       <use xlink:href="#md35c5d60f4" x="37.1025" y="154.88604" style="fill: #9ca3af; stroke: #9ca3af; stroke-width: 0.8"/>
      </g>
     </g>
     <g id="text_2">
      <!-- 95.0 -->
      <g style="fill: #9ca3af" transform="translate(12.29 157.925415) scale(0.08 -0.08)">
       <defs>
        <path id="DejaVuSans-30" d="M 2034 4250 
Q 1547 4250 1301 3770 
Q 1056 3291 1056 2328 
Q 1056 1369 1301 889 
Q 1547 409 2034 409 
Q 2525 409 2770 889 
Q 3016 1369 3016 2328 
Q 3016 3291 2770 3770 
Q 2525 4250 2034 4250 
z
M 2034 4750 
Q 2819 4750 3233 4129 
Q 3647 3509 3647 2328 
Q 3647 1150 3233 529 
Q 2819 -91 2034 -91 
Q 1250 -91 836 529 
Q 422 1150 422 2328 
Q 422 3509 836 4129 
Q 1250 4750 2034 4750 
z
" transform="scale(0.015625)"/>
       </defs>
       <use xlink:href="#DejaVuSans-39"/>
       <use xlink:href="#DejaVuSans-35" transform="translate(63.623047 0)"/>
       <use xlink:href="#DejaVuSans-2e" transform="translate(127.246094 0)"/>
       <use xlink:href="#DejaVuSans-30" transform="translate(159.033203 0)"/>
      </g>
     </g>
    </g>
    <g id="ytick_3">
     <g id="line2d_19">
      <path d="M 37.1025 134.124674 
L 483.5025 134.124674 
" clip-path="url(#p24de9ef646)" style="fill: none; stroke-dasharray: 2.96,1.28; stroke-dashoffset: 0; stroke: #374151; stroke-opacity: 0.1; stroke-width: 0.8"/>
     </g>
     <g id="line2d_20">
      <g>
       <use xlink:href="#md35c5d60f4" x="37.1025" y="134.124674" style="fill: #9ca3af; stroke: #9ca3af; stroke-width: 0.8"/>
      </g>
     </g>
     <g id="text_3">
      <!-- 97.5 -->
      <g style="fill: #9ca3af" transform="translate(12.29 137.164049) scale(0.08 -0.08)">
       <defs>
        <path id="DejaVuSans-37" d="M 525 4666 
L 3525 4666 
L 3525 4397 
L 1831 0 
L 1172 0 
L 2766 4134 
L 525 4134 
L 525 4666 
z
" transform="scale(0.015625)"/>
       </defs>
       <use xlink:href="#DejaVuSans-39"/>
       <use xlink:href="#DejaVuSans-37" transform="translate(63.623047 0)"/>
       <use xlink:href="#DejaVuSans-2e" transform="translate(127.246094 0)"/>
       <use xlink:href="#DejaVuSans-35" transform="translate(159.033203 0)"/>
      </g>
     </g>
    </g>
    <g id="ytick_4">
     <g id="line2d_21">
      <path d="M 37.1025 113.363307 
L 483.5025 113.363307 
" clip-path="url(#p24de9ef646)" style="fill: none; stroke-dasharray: 2.96,1.28; stroke-dashoffset: 0; stroke: #374151; stroke-opacity: 0.1; stroke-width: 0.8"/>
     </g>
     <g id="line2d_22">
      <g>
       <use xlink:href="#md35c5d60f4" x="37.1025" y="113.363307" style="fill: #9ca3af; stroke: #9ca3af; stroke-width: 0.8"/>
      </g>
     </g>
     <g id="text_4">
      <!-- 100.0 -->
      <g style="fill: #9ca3af" transform="translate(7.2 116.402682) scale(0.08 -0.08)">
       <defs>
        <path id="DejaVuSans-31" d="M 794 531 
L 1825 531 
L 1825 4091 
L 703 3866 
L 703 4441 
L 1819 4666 
L 2450 4666 
L 2450 531 
L 3481 531 
L 3481 0 
L 794 0 
L 794 531 
z
" transform="scale(0.015625)"/>
       </defs>
       <use xlink:href="#DejaVuSans-31"/>
       <use xlink:href="#DejaVuSans-30" transform="translate(63.623047 0)"/>
       <use xlink:href="#DejaVuSans-30" transform="translate(127.246094 0)"/>
       <use xlink:href="#DejaVuSans-2e" transform="translate(190.869141 0)"/>
       <use xlink:href="#DejaVuSans-30" transform="translate(222.65625 0)"/>
      </g>
     </g>
    </g>
    <g id="ytick_5">
     <g id="line2d_23">
      <path d="M 37.1025 92.60194 
L 483.5025 92.60194 
" clip-path="url(#p24de9ef646)" style="fill: none; stroke-dasharray: 2.96,1.28; stroke-dashoffset: 0; stroke: #374151; stroke-opacity: 0.1; stroke-width: 0.8"/>
     </g>
     <g id="line2d_24">
      <g>
       <use xlink:href="#md35c5d60f4" x="37.1025" y="92.60194" style="fill: #9ca3af; stroke: #9ca3af; stroke-width: 0.8"/>
      </g>
     </g>
     <g id="text_5">
      <!-- 102.5 -->
      <g style="fill: #9ca3af" transform="translate(7.2 95.641315) scale(0.08 -0.08)">
       <use xlink:href="#DejaVuSans-31"/>
       <use xlink:href="#DejaVuSans-30" transform="translate(63.623047 0)"/>
       <use xlink:href="#DejaVuSans-32" transform="translate(127.246094 0)"/>
       <use xlink:href="#DejaVuSans-2e" transform="translate(190.869141 0)"/>
       <use xlink:href="#DejaVuSans-35" transform="translate(222.65625 0)"/>
      </g>
     </g>
    </g>
    <g id="ytick_6">
     <g id="line2d_25">
      <path d="M 37.1025 71.840573 
L 483.5025 71.840573 
" clip-path="url(#p24de9ef646)" style="fill: none; stroke-dasharray: 2.96,1.28; stroke-dashoffset: 0; stroke: #374151; stroke-opacity: 0.1; stroke-width: 0.8"/>
     </g>
     <g id="line2d_26">
      <g>
       <use xlink:href="#md35c5d60f4" x="37.1025" y="71.840573" style="fill: #9ca3af; stroke: #9ca3af; stroke-width: 0.8"/>
      </g>
     </g>
     <g id="text_6">
      <!-- 105.0 -->
      <g style="fill: #9ca3af" transform="translate(7.2 74.879948) scale(0.08 -0.08)">
       <use xlink:href="#DejaVuSans-31"/>
       <use xlink:href="#DejaVuSans-30" transform="translate(63.623047 0)"/>
       <use xlink:href="#DejaVuSans-35" transform="translate(127.246094 0)"/>
       <use xlink:href="#DejaVuSans-2e" transform="translate(190.869141 0)"/>
       <use xlink:href="#DejaVuSans-30" transform="translate(222.65625 0)"/>
      </g>
     </g>
    </g>
    <g id="ytick_7">
     <g id="line2d_27">
      <path d="M 37.1025 51.079206 
L 483.5025 51.079206 
" clip-path="url(#p24de9ef646)" style="fill: none; stroke-dasharray: 2.96,1.28; stroke-dashoffset: 0; stroke: #374151; stroke-opacity: 0.1; stroke-width: 0.8"/>
     </g>
     <g id="line2d_28">
      <g>
       <use xlink:href="#md35c5d60f4" x="37.1025" y="51.079206" style="fill: #9ca3af; stroke: #9ca3af; stroke-width: 0.8"/>
      </g>
     </g>
     <g id="text_7">
      <!-- 107.5 -->
      <g style="fill: #9ca3af" transform="translate(7.2 54.118581) scale(0.08 -0.08)">
       <use xlink:href="#DejaVuSans-31"/>
       <use xlink:href="#DejaVuSans-30" transform="translate(63.623047 0)"/>
       <use xlink:href="#DejaVuSans-37" transform="translate(127.246094 0)"/>
       <use xlink:href="#DejaVuSans-2e" transform="translate(190.869141 0)"/>
       <use xlink:href="#DejaVuSans-35" transform="translate(222.65625 0)"/>
      </g>
     </g>
    </g>
   </g>
   <g id="line2d_29">
    <path d="M 51.5025 75.992846 
L 51.5025 67.688299 
" clip-path="url(#p24de9ef646)" style="fill: none; stroke: #22c55e; stroke-width: 1.5; stroke-linecap: square"/>
   </g>
   <g id="line2d_30">
    <path d="M 65.9025 89.054144 
L 65.9025 70.717517 
" clip-path="url(#p24de9ef646)" style="fill: none; stroke: #ef4444; stroke-width: 1.5; stroke-linecap: square"/>
   </g>
   <g id="line2d_31">
    <path d="M 80.3025 102.623587 
L 80.3025 81.81075 
" clip-path="url(#p24de9ef646)" style="fill: none; stroke: #ef4444; stroke-width: 1.5; stroke-linecap: square"/>
   </g>
   <g id="line2d_32">
    <path d="M 94.7025 112.887273 
L 94.7025 93.766914 
" clip-path="url(#p24de9ef646)" style="fill: none; stroke: #ef4444; stroke-width: 1.5; stroke-linecap: square"/>
   </g>
   <g id="line2d_33">
    <path d="M 109.1025 128.634231 
L 109.1025 112.069421 
" clip-path="url(#p24de9ef646)" style="fill: none; stroke: #ef4444; stroke-width: 1.5; stroke-linecap: square"/>
   </g>
   <g id="line2d_34">
    <path d="M 123.5025 142.796141 
L 123.5025 123.85411 
" clip-path="url(#p24de9ef646)" style="fill: none; stroke: #ef4444; stroke-width: 1.5; stroke-linecap: square"/>
   </g>
   <g id="line2d_35">
    <path d="M 137.9025 155.959015 
L 137.9025 137.028897 
" clip-path="url(#p24de9ef646)" style="fill: none; stroke: #ef4444; stroke-width: 1.5; stroke-linecap: square"/>
   </g>
   <g id="line2d_36">
    <path d="M 152.3025 162.64224 
L 152.3025 150.629234 
" clip-path="url(#p24de9ef646)" style="fill: none; stroke: #ef4444; stroke-width: 1.5; stroke-linecap: square"/>
   </g>
   <g id="line2d_37">
    <path d="M 166.7025 163.539286 
L 166.7025 154.2424 
" clip-path="url(#p24de9ef646)" style="fill: none; stroke: #ef4444; stroke-width: 1.5; stroke-linecap: square"/>
   </g>
   <g id="line2d_38">
    <path d="M 181.1025 168.11032 
L 181.1025 156.873458 
" clip-path="url(#p24de9ef646)" style="fill: none; stroke: #ef4444; stroke-width: 1.5; stroke-linecap: square"/>
   </g>
   <g id="line2d_39">
    <path d="M 195.5025 168.390772 
L 195.5025 160.424704 
" clip-path="url(#p24de9ef646)" style="fill: none; stroke: #ef4444; stroke-width: 1.5; stroke-linecap: square"/>
   </g>
   <g id="line2d_40">
    <path d="M 209.9025 173.683179 
L 209.9025 162.9818 
" clip-path="url(#p24de9ef646)" style="fill: none; stroke: #ef4444; stroke-width: 1.5; stroke-linecap: square"/>
   </g>
   <g id="line2d_41">
    <path d="M 224.3025 174.434232 
L 224.3025 168.501175 
" clip-path="url(#p24de9ef646)" style="fill: none; stroke: #ef4444; stroke-width: 1.5; stroke-linecap: square"/>
   </g>
   <g id="line2d_42">
    <path d="M 238.7025 178.857297 
L 238.7025 172.363731 
" clip-path="url(#p24de9ef646)" style="fill: none; stroke: #ef4444; stroke-width: 1.5; stroke-linecap: square"/>
   </g>
   <g id="line2d_43">
    <path d="M 253.1025 177.921023 
L 253.1025 170.27388 
" clip-path="url(#p24de9ef646)" style="fill: none; stroke: #ef4444; stroke-width: 1.5; stroke-linecap: square"/>
   </g>
   <g id="line2d_44">
    <path d="M 267.5025 180.059588 
L 267.5025 171.027063 
" clip-path="url(#p24de9ef646)" style="fill: none; stroke: #ef4444; stroke-width: 1.5; stroke-linecap: square"/>
   </g>
   <g id="line2d_45">
    <path d="M 281.9025 178.336585 
L 281.9025 162.866337 
" clip-path="url(#p24de9ef646)" style="fill: none; stroke: #22c55e; stroke-width: 1.5; stroke-linecap: square"/>
   </g>
   <g id="line2d_46">
    <path d="M 296.3025 168.498199 
L 296.3025 151.674472 
" clip-path="url(#p24de9ef646)" style="fill: none; stroke: #22c55e; stroke-width: 1.5; stroke-linecap: square"/>
   </g>
   <g id="line2d_47">
    <path d="M 310.7025 154.255113 
L 310.7025 141.108787 
" clip-path="url(#p24de9ef646)" style="fill: none; stroke: #22c55e; stroke-width: 1.5; stroke-linecap: square"/>
   </g>
   <g id="line2d_48">
    <path d="M 325.1025 146.17513 
L 325.1025 129.485685 
" clip-path="url(#p24de9ef646)" style="fill: none; stroke: #22c55e; stroke-width: 1.5; stroke-linecap: square"/>
   </g>
   <g id="line2d_49">
    <path d="M 339.5025 134.846552 
L 339.5025 118.678872 
" clip-path="url(#p24de9ef646)" style="fill: none; stroke: #22c55e; stroke-width: 1.5; stroke-linecap: square"/>
   </g>
   <g id="line2d_50">
    <path d="M 353.9025 122.381523 
L 353.9025 105.159091 
" clip-path="url(#p24de9ef646)" style="fill: none; stroke: #22c55e; stroke-width: 1.5; stroke-linecap: square"/>
   </g>
   <g id="line2d_51">
    <path d="M 368.3025 110.279183 
L 368.3025 92.398788 
" clip-path="url(#p24de9ef646)" style="fill: none; stroke: #22c55e; stroke-width: 1.5; stroke-linecap: square"/>
   </g>
   <g id="line2d_52">
    <path d="M 382.7025 100.331673 
L 382.7025 84.002006 
" clip-path="url(#p24de9ef646)" style="fill: none; stroke: #22c55e; stroke-width: 1.5; stroke-linecap: square"/>
   </g>
   <g id="line2d_53">
    <path d="M 397.1025 85.177854 
L 397.1025 66.962393 
" clip-path="url(#p24de9ef646)" style="fill: none; stroke: #22c55e; stroke-width: 1.5; stroke-linecap: square"/>
   </g>
   <g id="line2d_54">
    <path d="M 411.5025 80.447356 
L 411.5025 67.352664 
" clip-path="url(#p24de9ef646)" style="fill: none; stroke: #ef4444; stroke-width: 1.5; stroke-linecap: square"/>
   </g>
   <g id="line2d_55">
    <path d="M 425.9025 93.076961 
L 425.9025 79.823506 
" clip-path="url(#p24de9ef646)" style="fill: none; stroke: #ef4444; stroke-width: 1.5; stroke-linecap: square"/>
   </g>
   <g id="line2d_56">
    <path d="M 440.3025 98.094866 
L 440.3025 84.257561 
" clip-path="url(#p24de9ef646)" style="fill: none; stroke: #ef4444; stroke-width: 1.5; stroke-linecap: square"/>
   </g>
   <g id="line2d_57">
    <path d="M 454.7025 96.285751 
L 454.7025 70.362074 
" clip-path="url(#p24de9ef646)" style="fill: none; stroke: #22c55e; stroke-width: 1.5; stroke-linecap: square"/>
   </g>
   <g id="line2d_58">
    <path d="M 469.1025 74.917586 
L 469.1025 44.840076 
" clip-path="url(#p24de9ef646)" style="fill: none; stroke: #22c55e; stroke-width: 1.5; stroke-linecap: square"/>
   </g>
   <g id="patch_33">
    <path d="M 37.1025 193.58154 
L 37.1025 31.318125 
" style="fill: none; stroke: #1f2937; stroke-width: 0.8; stroke-linejoin: miter; stroke-linecap: square"/>
   </g>
   <g id="patch_34">
    <path d="M 37.1025 193.58154 
L 483.5025 193.58154 
" style="fill: none; stroke: #1f2937; stroke-width: 0.8; stroke-linejoin: miter; stroke-linecap: square"/>
   </g>
   <g id="text_8">
    <!-- Inverted Cup and Handle — WMT 4H -->
    <g style="fill: #ffffff" transform="translate(137.869687 16.318125) scale(0.12 -0.12)">
     <defs>
      <path id="DejaVuSans-Bold-49" d="M 588 4666 
L 1791 4666 
L 1791 0 
L 588 0 
L 588 4666 
z
" transform="scale(0.015625)"/>
      <path id="DejaVuSans-Bold-6e" d="M 4056 2131 
L 4056 0 
L 2931 0 
L 2931 347 
L 2931 1631 
Q 2931 2084 2911 2256 
Q 2891 2428 2841 2509 
Q 2775 2619 2662 2680 
Q 2550 2741 2406 2741 
Q 2056 2741 1856 2470 
Q 1656 2200 1656 1722 
L 1656 0 
L 538 0 
L 538 3500 
L 1656 3500 
L 1656 2988 
Q 1909 3294 2193 3439 
Q 2478 3584 2822 3584 
Q 3428 3584 3742 3212 
Q 4056 2841 4056 2131 
z
" transform="scale(0.015625)"/>
      <path id="DejaVuSans-Bold-76" d="M 97 3500 
L 1216 3500 
L 2088 1081 
L 2956 3500 
L 4078 3500 
L 2700 0 
L 1472 0 
L 97 3500 
z
" transform="scale(0.015625)"/>
      <path id="DejaVuSans-Bold-65" d="M 4031 1759 
L 4031 1441 
L 1416 1441 
Q 1456 1047 1700 850 
Q 1944 653 2381 653 
Q 2734 653 3104 758 
Q 3475 863 3866 1075 
L 3866 213 
Q 3469 63 3072 -14 
Q 2675 -91 2278 -91 
Q 1328 -91 801 392 
Q 275 875 275 1747 
Q 275 2603 792 3093 
Q 1309 3584 2216 3584 
Q 3041 3584 3536 3087 
Q 4031 2591 4031 1759 
z
M 2881 2131 
Q 2881 2450 2695 2645 
Q 2509 2841 2209 2841 
Q 1884 2841 1681 2658 
Q 1478 2475 1428 2131 
L 2881 2131 
z
" transform="scale(0.015625)"/>
      <path id="DejaVuSans-Bold-72" d="M 3138 2547 
Q 2991 2616 2845 2648 
Q 2700 2681 2553 2681 
Q 2122 2681 1889 2404 
Q 1656 2128 1656 1613 
L 1656 0 
L 538 0 
L 538 3500 
L 1656 3500 
L 1656 2925 
Q 1872 3269 2151 3426 
Q 2431 3584 2822 3584 
Q 2878 3584 2943 3579 
Q 3009 3575 3134 3559 
L 3138 2547 
z
" transform="scale(0.015625)"/>
      <path id="DejaVuSans-Bold-74" d="M 1759 4494 
L 1759 3500 
L 2913 3500 
L 2913 2700 
L 1759 2700 
L 1759 1216 
Q 1759 972 1856 886 
Q 1953 800 2241 800 
L 2816 800 
L 2816 0 
L 1856 0 
Q 1194 0 917 276 
Q 641 553 641 1216 
L 641 2700 
L 84 2700 
L 84 3500 
L 641 3500 
L 641 4494 
L 1759 4494 
z
" transform="scale(0.015625)"/>
      <path id="DejaVuSans-Bold-64" d="M 2919 2988 
L 2919 4863 
L 4044 4863 
L 4044 0 
L 2919 0 
L 2919 506 
Q 2688 197 2409 53 
Q 2131 -91 1766 -91 
Q 1119 -91 703 423 
Q 288 938 288 1747 
Q 288 2556 703 3070 
Q 1119 3584 1766 3584 
Q 2128 3584 2408 3439 
Q 2688 3294 2919 2988 
z
M 2181 722 
Q 2541 722 2730 984 
Q 2919 1247 2919 1747 
Q 2919 2247 2730 2509 
Q 2541 2772 2181 2772 
Q 1825 2772 1636 2509 
Q 1447 2247 1447 1747 
Q 1447 1247 1636 984 
Q 1825 722 2181 722 
z
" transform="scale(0.015625)"/>
      <path id="DejaVuSans-Bold-20" transform="scale(0.015625)"/>
      <path id="DejaVuSans-Bold-43" d="M 4288 256 
Q 3956 84 3597 -3 
Q 3238 -91 2847 -91 
Q 1681 -91 1000 561 
Q 319 1213 319 2328 
Q 319 3447 1000 4098 
Q 1681 4750 2847 4750 
Q 3238 4750 3597 4662 
Q 3956 4575 4288 4403 
L 4288 3438 
Q 3953 3666 3628 3772 
Q 3303 3878 2944 3878 
Q 2300 3878 1931 3465 
Q 1563 3053 1563 2328 
Q 1563 1606 1931 1193 
Q 2300 781 2944 781 
Q 3303 781 3628 887 
Q 3953 994 4288 1222 
L 4288 256 
z
" transform="scale(0.015625)"/>
      <path id="DejaVuSans-Bold-75" d="M 500 1363 
L 500 3500 
L 1625 3500 
L 1625 3150 
Q 1625 2866 1622 2436 
Q 1619 2006 1619 1863 
Q 1619 1441 1641 1255 
Q 1663 1069 1716 984 
Q 1784 875 1895 815 
Q 2006 756 2150 756 
Q 2500 756 2700 1025 
Q 2900 1294 2900 1772 
L 2900 3500 
L 4019 3500 
L 4019 0 
L 2900 0 
L 2900 506 
Q 2647 200 2364 54 
Q 2081 -91 1741 -91 
Q 1134 -91 817 281 
Q 500 653 500 1363 
z
" transform="scale(0.015625)"/>
      <path id="DejaVuSans-Bold-70" d="M 1656 506 
L 1656 -1331 
L 538 -1331 
L 538 3500 
L 1656 3500 
L 1656 2988 
Q 1888 3294 2169 3439 
Q 2450 3584 2816 3584 
Q 3463 3584 3878 3070 
Q 4294 2556 4294 1747 
Q 4294 938 3878 423 
Q 3463 -91 2816 -91 
Q 2450 -91 2169 54 
Q 1888 200 1656 506 
z
M 2400 2772 
Q 2041 2772 1848 2508 
Q 1656 2244 1656 1747 
Q 1656 1250 1848 986 
Q 2041 722 2400 722 
Q 2759 722 2948 984 
Q 3138 1247 3138 1747 
Q 3138 2247 2948 2509 
Q 2759 2772 2400 2772 
z
" transform="scale(0.015625)"/>
      <path id="DejaVuSans-Bold-61" d="M 2106 1575 
Q 1756 1575 1579 1456 
Q 1403 1338 1403 1106 
Q 1403 894 1545 773 
Q 1688 653 1941 653 
Q 2256 653 2472 879 
Q 2688 1106 2688 1447 
L 2688 1575 
L 2106 1575 
z
M 3816 1997 
L 3816 0 
L 2688 0 
L 2688 519 
Q 2463 200 2181 54 
Q 1900 -91 1497 -91 
Q 953 -91 614 226 
Q 275 544 275 1050 
Q 275 1666 698 1953 
Q 1122 2241 2028 2241 
L 2688 2241 
L 2688 2328 
Q 2688 2594 2478 2717 
Q 2269 2841 1825 2841 
Q 1466 2841 1156 2769 
Q 847 2697 581 2553 
L 581 3406 
Q 941 3494 1303 3539 
Q 1666 3584 2028 3584 
Q 2975 3584 3395 3211 
Q 3816 2838 3816 1997 
z
" transform="scale(0.015625)"/>
      <path id="DejaVuSans-Bold-48" d="M 588 4666 
L 1791 4666 
L 1791 2888 
L 3566 2888 
L 3566 4666 
L 4769 4666 
L 4769 0 
L 3566 0 
L 3566 1978 
L 1791 1978 
L 1791 0 
L 588 0 
L 588 4666 
z
" transform="scale(0.015625)"/>
      <path id="DejaVuSans-Bold-6c" d="M 538 4863 
L 1656 4863 
L 1656 0 
L 538 0 
L 538 4863 
z
" transform="scale(0.015625)"/>
      <path id="DejaVuSans-Bold-2014" d="M 344 2156 
L 6056 2156 
L 6056 1350 
L 344 1350 
L 344 2156 
z
" transform="scale(0.015625)"/>
      <path id="DejaVuSans-Bold-57" d="M 191 4666 
L 1344 4666 
L 2150 1275 
L 2950 4666 
L 4109 4666 
L 4909 1275 
L 5716 4666 
L 6859 4666 
L 5759 0 
L 4372 0 
L 3525 3547 
L 2688 0 
L 1300 0 
L 191 4666 
z
" transform="scale(0.015625)"/>
      <path id="DejaVuSans-Bold-4d" d="M 588 4666 
L 2119 4666 
L 3181 2169 
L 4250 4666 
L 5778 4666 
L 5778 0 
L 4641 0 
L 4641 3413 
L 3566 897 
L 2803 897 
L 1728 3413 
L 1728 0 
L 588 0 
L 588 4666 
z
" transform="scale(0.015625)"/>
      <path id="DejaVuSans-Bold-54" d="M 31 4666 
L 4331 4666 
L 4331 3756 
L 2784 3756 
L 2784 0 
L 1581 0 
L 1581 3756 
L 31 3756 
L 31 4666 
z
" transform="scale(0.015625)"/>
      <path id="DejaVuSans-Bold-34" d="M 2356 3675 
L 1038 1722 
L 2356 1722 
L 2356 3675 
z
M 2156 4666 
L 3494 4666 
L 3494 1722 
L 4159 1722 
L 4159 850 
L 3494 850 
L 3494 0 
L 2356 0 
L 2356 850 
L 288 850 
L 288 1881 
L 2156 4666 
z
" transform="scale(0.015625)"/>
     </defs>
     <use xlink:href="#DejaVuSans-Bold-49"/>
     <use xlink:href="#DejaVuSans-Bold-6e" transform="translate(37.207031 0)"/>
     <use xlink:href="#DejaVuSans-Bold-76" transform="translate(108.398438 0)"/>
     <use xlink:href="#DejaVuSans-Bold-65" transform="translate(173.583984 0)"/>
     <use xlink:href="#DejaVuSans-Bold-72" transform="translate(241.40625 0)"/>
     <use xlink:href="#DejaVuSans-Bold-74" transform="translate(290.722656 0)"/>
     <use xlink:href="#DejaVuSans-Bold-65" transform="translate(338.525391 0)"/>
     <use xlink:href="#DejaVuSans-Bold-64" transform="translate(406.347656 0)"/>
     <use xlink:href="#DejaVuSans-Bold-20" transform="translate(477.929688 0)"/>
     <use xlink:href="#DejaVuSans-Bold-43" transform="translate(512.744141 0)"/>
     <use xlink:href="#DejaVuSans-Bold-75" transform="translate(586.132812 0)"/>
     <use xlink:href="#DejaVuSans-Bold-70" transform="translate(657.324219 0)"/>
     <use xlink:href="#DejaVuSans-Bold-20" transform="translate(728.90625 0)"/>
     <use xlink:href="#DejaVuSans-Bold-61" transform="translate(763.720703 0)"/>
     <use xlink:href="#DejaVuSans-Bold-6e" transform="translate(831.201172 0)"/>
     <use xlink:href="#DejaVuSans-Bold-64" transform="translate(902.392578 0)"/>
     <use xlink:href="#DejaVuSans-Bold-20" transform="translate(973.974609 0)"/>
     <use xlink:href="#DejaVuSans-Bold-48" transform="translate(1008.789062 0)"/>
     <use xlink:href="#DejaVuSans-Bold-61" transform="translate(1092.480469 0)"/>
     <use xlink:href="#DejaVuSans-Bold-6e" transform="translate(1159.960938 0)"/>
     <use xlink:href="#DejaVuSans-Bold-64" transform="translate(1231.152344 0)"/>
     <use xlink:href="#DejaVuSans-Bold-6c" transform="translate(1302.734375 0)"/>
     <use xlink:href="#DejaVuSans-Bold-65" transform="translate(1337.011719 0)"/>
     <use xlink:href="#DejaVuSans-Bold-20" transform="translate(1404.833984 0)"/>
     <use xlink:href="#DejaVuSans-Bold-2014" transform="translate(1439.648438 0)"/>
     <use xlink:href="#DejaVuSans-Bold-20" transform="translate(1539.648438 0)"/>
     <use xlink:href="#DejaVuSans-Bold-57" transform="translate(1574.462891 0)"/>
     <use xlink:href="#DejaVuSans-Bold-4d" transform="translate(1684.765625 0)"/>
     <use xlink:href="#DejaVuSans-Bold-54" transform="translate(1784.277344 0)"/>
     <use xlink:href="#DejaVuSans-Bold-20" transform="translate(1852.490234 0)"/>
     <use xlink:href="#DejaVuSans-Bold-34" transform="translate(1887.304688 0)"/>
     <use xlink:href="#DejaVuSans-Bold-48" transform="translate(1956.884766 0)"/>
    </g>
   </g>
  </g>
  <g id="axes_2">
   <g id="patch_35">
    <path d="M 37.1025 253.078125 
L 483.5025 253.078125 
L 483.5025 198.99032 
L 37.1025 198.99032 
z
" style="fill: #0a0f1a"/>
   </g>
   <g id="patch_36">
    <path d="M 57.393409 253.078125 
L 66.958147 253.078125 
L 66.958147 207.337862 
L 57.393409 207.337862 
z
" clip-path="url(#pa40e63e31d)" style="fill: #22c55e; fill-opacity: 0.266667"/>
   </g>
   <g id="patch_37">
    <path d="M 71.057321 253.078125 
L 80.622059 253.078125 
L 80.622059 229.854948 
L 71.057321 229.854948 
z
" clip-path="url(#pa40e63e31d)" style="fill: #ef4444; fill-opacity: 0.266667"/>
   </g>
   <g id="patch_38">
    <path d="M 84.721233 253.078125 
L 94.285971 253.078125 
L 94.285971 240.833381 
L 84.721233 240.833381 
z
" clip-path="url(#pa40e63e31d)" style="fill: #ef4444; fill-opacity: 0.266667"/>
   </g>
   <g id="patch_39">
    <path d="M 98.385145 253.078125 
L 107.949883 253.078125 
L 107.949883 216.707603 
L 98.385145 216.707603 
z
" clip-path="url(#pa40e63e31d)" style="fill: #ef4444; fill-opacity: 0.266667"/>
   </g>
   <g id="patch_40">
    <path d="M 112.049056 253.078125 
L 121.613795 253.078125 
L 121.613795 226.082153 
L 112.049056 226.082153 
z
" clip-path="url(#pa40e63e31d)" style="fill: #ef4444; fill-opacity: 0.266667"/>
   </g>
   <g id="patch_41">
    <path d="M 125.712968 253.078125 
L 135.277707 253.078125 
L 135.277707 229.75599 
L 125.712968 229.75599 
z
" clip-path="url(#pa40e63e31d)" style="fill: #ef4444; fill-opacity: 0.266667"/>
   </g>
   <g id="patch_42">
    <path d="M 139.37688 253.078125 
L 148.941618 253.078125 
L 148.941618 238.704154 
L 139.37688 238.704154 
z
" clip-path="url(#pa40e63e31d)" style="fill: #ef4444; fill-opacity: 0.266667"/>
   </g>
   <g id="patch_43">
    <path d="M 153.040792 253.078125 
L 162.60553 253.078125 
L 162.60553 213.031967 
L 153.040792 213.031967 
z
" clip-path="url(#pa40e63e31d)" style="fill: #ef4444; fill-opacity: 0.266667"/>
   </g>
   <g id="patch_44">
    <path d="M 166.704704 253.078125 
L 176.269442 253.078125 
L 176.269442 224.4001 
L 166.704704 224.4001 
z
" clip-path="url(#pa40e63e31d)" style="fill: #ef4444; fill-opacity: 0.266667"/>
   </g>
   <g id="patch_45">
    <path d="M 180.368616 253.078125 
L 189.933354 253.078125 
L 189.933354 217.004426 
L 180.368616 217.004426 
z
" clip-path="url(#pa40e63e31d)" style="fill: #ef4444; fill-opacity: 0.266667"/>
   </g>
   <g id="patch_46">
    <path d="M 194.032528 253.078125 
L 203.597266 253.078125 
L 203.597266 213.469791 
L 194.032528 213.469791 
z
" clip-path="url(#pa40e63e31d)" style="fill: #ef4444; fill-opacity: 0.266667"/>
   </g>
   <g id="patch_47">
    <path d="M 207.696439 253.078125 
L 217.261178 253.078125 
L 217.261178 213.751214 
L 207.696439 213.751214 
z
" clip-path="url(#pa40e63e31d)" style="fill: #ef4444; fill-opacity: 0.266667"/>
   </g>
   <g id="patch_48">
    <path d="M 221.360351 253.078125 
L 230.92509 253.078125 
L 230.92509 204.883287 
L 221.360351 204.883287 
z
" clip-path="url(#pa40e63e31d)" style="fill: #ef4444; fill-opacity: 0.266667"/>
   </g>
   <g id="patch_49">
    <path d="M 235.024263 253.078125 
L 244.589001 253.078125 
L 244.589001 230.155825 
L 235.024263 230.155825 
z
" clip-path="url(#pa40e63e31d)" style="fill: #ef4444; fill-opacity: 0.266667"/>
   </g>
   <g id="patch_50">
    <path d="M 248.688175 253.078125 
L 258.252913 253.078125 
L 258.252913 201.56593 
L 248.688175 201.56593 
z
" clip-path="url(#pa40e63e31d)" style="fill: #ef4444; fill-opacity: 0.266667"/>
   </g>
   <g id="patch_51">
    <path d="M 262.352087 253.078125 
L 271.916825 253.078125 
L 271.916825 225.207642 
L 262.352087 225.207642 
z
" clip-path="url(#pa40e63e31d)" style="fill: #ef4444; fill-opacity: 0.266667"/>
   </g>
   <g id="patch_52">
    <path d="M 276.015999 253.078125 
L 285.580737 253.078125 
L 285.580737 217.100075 
L 276.015999 217.100075 
z
" clip-path="url(#pa40e63e31d)" style="fill: #22c55e; fill-opacity: 0.266667"/>
   </g>
   <g id="patch_53">
    <path d="M 289.67991 253.078125 
L 299.244649 253.078125 
L 299.244649 230.868991 
L 289.67991 230.868991 
z
" clip-path="url(#pa40e63e31d)" style="fill: #22c55e; fill-opacity: 0.266667"/>
   </g>
   <g id="patch_54">
    <path d="M 303.343822 253.078125 
L 312.908561 253.078125 
L 312.908561 238.695839 
L 303.343822 238.695839 
z
" clip-path="url(#pa40e63e31d)" style="fill: #22c55e; fill-opacity: 0.266667"/>
   </g>
   <g id="patch_55">
    <path d="M 317.007734 253.078125 
L 326.572472 253.078125 
L 326.572472 231.504494 
L 317.007734 231.504494 
z
" clip-path="url(#pa40e63e31d)" style="fill: #22c55e; fill-opacity: 0.266667"/>
   </g>
   <g id="patch_56">
    <path d="M 330.671646 253.078125 
L 340.236384 253.078125 
L 340.236384 208.122858 
L 330.671646 208.122858 
z
" clip-path="url(#pa40e63e31d)" style="fill: #22c55e; fill-opacity: 0.266667"/>
   </g>
   <g id="patch_57">
    <path d="M 344.335558 253.078125 
L 353.900296 253.078125 
L 353.900296 213.883827 
L 344.335558 213.883827 
z
" clip-path="url(#pa40e63e31d)" style="fill: #22c55e; fill-opacity: 0.266667"/>
   </g>
   <g id="patch_58">
    <path d="M 357.99947 253.078125 
L 367.564208 253.078125 
L 367.564208 221.756503 
L 357.99947 221.756503 
z
" clip-path="url(#pa40e63e31d)" style="fill: #22c55e; fill-opacity: 0.266667"/>
   </g>
   <g id="patch_59">
    <path d="M 371.663382 253.078125 
L 381.22812 253.078125 
L 381.22812 208.771082 
L 371.663382 208.771082 
z
" clip-path="url(#pa40e63e31d)" style="fill: #22c55e; fill-opacity: 0.266667"/>
   </g>
   <g id="patch_60">
    <path d="M 385.327293 253.078125 
L 394.892032 253.078125 
L 394.892032 221.593306 
L 385.327293 221.593306 
z
" clip-path="url(#pa40e63e31d)" style="fill: #22c55e; fill-opacity: 0.266667"/>
   </g>
   <g id="patch_61">
    <path d="M 398.991205 253.078125 
L 408.555944 253.078125 
L 408.555944 212.276086 
L 398.991205 212.276086 
z
" clip-path="url(#pa40e63e31d)" style="fill: #ef4444; fill-opacity: 0.266667"/>
   </g>
   <g id="patch_62">
    <path d="M 412.655117 253.078125 
L 422.219855 253.078125 
L 422.219855 209.090907 
L 412.655117 209.090907 
z
" clip-path="url(#pa40e63e31d)" style="fill: #ef4444; fill-opacity: 0.266667"/>
   </g>
   <g id="patch_63">
    <path d="M 426.319029 253.078125 
L 435.883767 253.078125 
L 435.883767 238.381692 
L 426.319029 238.381692 
z
" clip-path="url(#pa40e63e31d)" style="fill: #ef4444; fill-opacity: 0.266667"/>
   </g>
   <g id="patch_64">
    <path d="M 439.982941 253.078125 
L 449.547679 253.078125 
L 449.547679 209.607935 
L 439.982941 209.607935 
z
" clip-path="url(#pa40e63e31d)" style="fill: #22c55e; fill-opacity: 0.266667"/>
   </g>
   <g id="patch_65">
    <path d="M 453.646853 253.078125 
L 463.211591 253.078125 
L 463.211591 241.210267 
L 453.646853 241.210267 
z
" clip-path="url(#pa40e63e31d)" style="fill: #22c55e; fill-opacity: 0.266667"/>
   </g>
   <g id="matplotlib.axis_3">
    <g id="xtick_8">
     <g id="line2d_59">
      <path d="M 62.175778 253.078125 
L 62.175778 198.99032 
" clip-path="url(#pa40e63e31d)" style="fill: none; stroke-dasharray: 2.96,1.28; stroke-dashoffset: 0; stroke: #374151; stroke-opacity: 0.1; stroke-width: 0.8"/>
     </g>
     <g id="line2d_60">
      <g>
       <use xlink:href="#m979fcf8ced" x="62.175778" y="253.078125" style="fill: #9ca3af; stroke: #9ca3af; stroke-width: 0.8"/>
      </g>
     </g>
     <g id="text_9">
      <!-- 0 -->
      <g style="fill: #9ca3af" transform="translate(59.630778 266.156875) scale(0.08 -0.08)">
       <use xlink:href="#DejaVuSans-30"/>
      </g>
     </g>
    </g>
    <g id="xtick_9">
     <g id="line2d_61">
      <path d="M 130.495337 253.078125 
L 130.495337 198.99032 
" clip-path="url(#pa40e63e31d)" style="fill: none; stroke-dasharray: 2.96,1.28; stroke-dashoffset: 0; stroke: #374151; stroke-opacity: 0.1; stroke-width: 0.8"/>
     </g>
     <g id="line2d_62">
      <g>
       <use xlink:href="#m979fcf8ced" x="130.495337" y="253.078125" style="fill: #9ca3af; stroke: #9ca3af; stroke-width: 0.8"/>
      </g>
     </g>
     <g id="text_10">
      <!-- 5 -->
      <g style="fill: #9ca3af" transform="translate(127.950337 266.156875) scale(0.08 -0.08)">
       <use xlink:href="#DejaVuSans-35"/>
      </g>
     </g>
    </g>
    <g id="xtick_10">
     <g id="line2d_63">
      <path d="M 198.814897 253.078125 
L 198.814897 198.99032 
" clip-path="url(#pa40e63e31d)" style="fill: none; stroke-dasharray: 2.96,1.28; stroke-dashoffset: 0; stroke: #374151; stroke-opacity: 0.1; stroke-width: 0.8"/>
     </g>
     <g id="line2d_64">
      <g>
       <use xlink:href="#m979fcf8ced" x="198.814897" y="253.078125" style="fill: #9ca3af; stroke: #9ca3af; stroke-width: 0.8"/>
      </g>
     </g>
     <g id="text_11">
      <!-- 10 -->
      <g style="fill: #9ca3af" transform="translate(193.724897 266.156875) scale(0.08 -0.08)">
       <use xlink:href="#DejaVuSans-31"/>
       <use xlink:href="#DejaVuSans-30" transform="translate(63.623047 0)"/>
      </g>
     </g>
    </g>
    <g id="xtick_11">
     <g id="line2d_65">
      <path d="M 267.134456 253.078125 
L 267.134456 198.99032 
" clip-path="url(#pa40e63e31d)" style="fill: none; stroke-dasharray: 2.96,1.28; stroke-dashoffset: 0; stroke: #374151; stroke-opacity: 0.1; stroke-width: 0.8"/>
     </g>
     <g id="line2d_66">
      <g>
       <use xlink:href="#m979fcf8ced" x="267.134456" y="253.078125" style="fill: #9ca3af; stroke: #9ca3af; stroke-width: 0.8"/>
      </g>
     </g>
     <g id="text_12">
      <!-- 15 -->
      <g style="fill: #9ca3af" transform="translate(262.044456 266.156875) scale(0.08 -0.08)">
       <use xlink:href="#DejaVuSans-31"/>
       <use xlink:href="#DejaVuSans-35" transform="translate(63.623047 0)"/>
      </g>
     </g>
    </g>
    <g id="xtick_12">
     <g id="line2d_67">
      <path d="M 335.454015 253.078125 
L 335.454015 198.99032 
" clip-path="url(#pa40e63e31d)" style="fill: none; stroke-dasharray: 2.96,1.28; stroke-dashoffset: 0; stroke: #374151; stroke-opacity: 0.1; stroke-width: 0.8"/>
     </g>
     <g id="line2d_68">
      <g>
       <use xlink:href="#m979fcf8ced" x="335.454015" y="253.078125" style="fill: #9ca3af; stroke: #9ca3af; stroke-width: 0.8"/>
      </g>
     </g>
     <g id="text_13">
      <!-- 20 -->
      <g style="fill: #9ca3af" transform="translate(330.364015 266.156875) scale(0.08 -0.08)">
       <use xlink:href="#DejaVuSans-32"/>
       <use xlink:href="#DejaVuSans-30" transform="translate(63.623047 0)"/>
      </g>
     </g>
    </g>
    <g id="xtick_13">
     <g id="line2d_69">
      <path d="M 403.773574 253.078125 
L 403.773574 198.99032 
" clip-path="url(#pa40e63e31d)" style="fill: none; stroke-dasharray: 2.96,1.28; stroke-dashoffset: 0; stroke: #374151; stroke-opacity: 0.1; stroke-width: 0.8"/>
     </g>
     <g id="line2d_70">
      <g>
       <use xlink:href="#m979fcf8ced" x="403.773574" y="253.078125" style="fill: #9ca3af; stroke: #9ca3af; stroke-width: 0.8"/>
      </g>
     </g>
     <g id="text_14">
      <!-- 25 -->
      <g style="fill: #9ca3af" transform="translate(398.683574 266.156875) scale(0.08 -0.08)">
       <use xlink:href="#DejaVuSans-32"/>
       <use xlink:href="#DejaVuSans-35" transform="translate(63.623047 0)"/>
      </g>
     </g>
    </g>
    <g id="xtick_14">
     <g id="line2d_71">
      <path d="M 472.093134 253.078125 
L 472.093134 198.99032 
" clip-path="url(#pa40e63e31d)" style="fill: none; stroke-dasharray: 2.96,1.28; stroke-dashoffset: 0; stroke: #374151; stroke-opacity: 0.1; stroke-width: 0.8"/>
     </g>
     <g id="line2d_72">
      <g>
       <use xlink:href="#m979fcf8ced" x="472.093134" y="253.078125" style="fill: #9ca3af; stroke: #9ca3af; stroke-width: 0.8"/>
      </g>
     </g>
     <g id="text_15">
      <!-- 30 -->
      <g style="fill: #9ca3af" transform="translate(467.003134 266.156875) scale(0.08 -0.08)">
       <defs>
        <path id="DejaVuSans-33" d="M 2597 2516 
Q 3050 2419 3304 2112 
Q 3559 1806 3559 1356 
Q 3559 666 3084 287 
Q 2609 -91 1734 -91 
Q 1441 -91 1130 -33 
Q 819 25 488 141 
L 488 750 
Q 750 597 1062 519 
Q 1375 441 1716 441 
Q 2309 441 2620 675 
Q 2931 909 2931 1356 
Q 2931 1769 2642 2001 
Q 2353 2234 1838 2234 
L 1294 2234 
L 1294 2753 
L 1863 2753 
Q 2328 2753 2575 2939 
Q 2822 3125 2822 3475 
Q 2822 3834 2567 4026 
Q 2313 4219 1838 4219 
Q 1578 4219 1281 4162 
Q 984 4106 628 3988 
L 628 4550 
Q 988 4650 1302 4700 
Q 1616 4750 1894 4750 
Q 2613 4750 3031 4423 
Q 3450 4097 3450 3541 
Q 3450 3153 3228 2886 
Q 3006 2619 2597 2516 
z
" transform="scale(0.015625)"/>
       </defs>
       <use xlink:href="#DejaVuSans-33"/>
       <use xlink:href="#DejaVuSans-30" transform="translate(63.623047 0)"/>
      </g>
     </g>
    </g>
   </g>
   <g id="matplotlib.axis_4">
    <g id="ytick_8">
     <g id="line2d_73">
      <path d="M 37.1025 253.078125 
L 483.5025 253.078125 
" clip-path="url(#pa40e63e31d)" style="fill: none; stroke-dasharray: 2.96,1.28; stroke-dashoffset: 0; stroke: #374151; stroke-opacity: 0.1; stroke-width: 0.8"/>
     </g>
     <g id="line2d_74">
      <g>
       <use xlink:href="#md35c5d60f4" x="37.1025" y="253.078125" style="fill: #9ca3af; stroke: #9ca3af; stroke-width: 0.8"/>
      </g>
     </g>
     <g id="text_16">
      <!-- 0 -->
      <g style="fill: #9ca3af" transform="translate(25.0125 256.1175) scale(0.08 -0.08)">
       <use xlink:href="#DejaVuSans-30"/>
      </g>
     </g>
    </g>
    <g id="ytick_9">
     <g id="line2d_75">
      <path d="M 37.1025 232.392864 
L 483.5025 232.392864 
" clip-path="url(#pa40e63e31d)" style="fill: none; stroke-dasharray: 2.96,1.28; stroke-dashoffset: 0; stroke: #374151; stroke-opacity: 0.1; stroke-width: 0.8"/>
     </g>
     <g id="line2d_76">
      <g>
       <use xlink:href="#md35c5d60f4" x="37.1025" y="232.392864" style="fill: #9ca3af; stroke: #9ca3af; stroke-width: 0.8"/>
      </g>
     </g>
     <g id="text_17">
      <!-- 2 -->
      <g style="fill: #9ca3af" transform="translate(25.0125 235.432239) scale(0.08 -0.08)">
       <use xlink:href="#DejaVuSans-32"/>
      </g>
     </g>
    </g>
    <g id="ytick_10">
     <g id="line2d_77">
      <path d="M 37.1025 211.707603 
L 483.5025 211.707603 
" clip-path="url(#pa40e63e31d)" style="fill: none; stroke-dasharray: 2.96,1.28; stroke-dashoffset: 0; stroke: #374151; stroke-opacity: 0.1; stroke-width: 0.8"/>
     </g>
     <g id="line2d_78">
      <g>
       <use xlink:href="#md35c5d60f4" x="37.1025" y="211.707603" style="fill: #9ca3af; stroke: #9ca3af; stroke-width: 0.8"/>
      </g>
     </g>
     <g id="text_18">
      <!-- 4 -->
      <g style="fill: #9ca3af" transform="translate(25.0125 214.746978) scale(0.08 -0.08)">
       <defs>
        <path id="DejaVuSans-34" d="M 2419 4116 
L 825 1625 
L 2419 1625 
L 2419 4116 
z
M 2253 4666 
L 3047 4666 
L 3047 1625 
L 3713 1625 
L 3713 1100 
L 3047 1100 
L 3047 0 
L 2419 0 
L 2419 1100 
L 313 1100 
L 313 1709 
L 2253 4666 
z
" transform="scale(0.015625)"/>
       </defs>
       <use xlink:href="#DejaVuSans-34"/>
      </g>
     </g>
    </g>
    <g id="text_19">
     <!-- Vol -->
     <g style="fill: #9ca3af" transform="translate(19.34875 232.019223) rotate(-90) scale(0.08 -0.08)">
      <defs>
       <path id="DejaVuSans-56" d="M 1831 0 
L 50 4666 
L 709 4666 
L 2188 738 
L 3669 4666 
L 4325 4666 
L 2547 0 
L 1831 0 
z
" transform="scale(0.015625)"/>
       <path id="DejaVuSans-6f" d="M 1959 3097 
Q 1497 3097 1228 2736 
Q 959 2375 959 1747 
Q 959 1119 1226 758 
Q 1494 397 1959 397 
Q 2419 397 2687 759 
Q 2956 1122 2956 1747 
Q 2956 2369 2687 2733 
Q 2419 3097 1959 3097 
z
M 1959 3584 
Q 2709 3584 3137 3096 
Q 3566 2609 3566 1747 
Q 3566 888 3137 398 
Q 2709 -91 1959 -91 
Q 1206 -91 779 398 
Q 353 888 353 1747 
Q 353 2609 779 3096 
Q 1206 3584 1959 3584 
z
" transform="scale(0.015625)"/>
       <path id="DejaVuSans-6c" d="M 603 4863 
L 1178 4863 
L 1178 0 
L 603 0 
L 603 4863 
z
" transform="scale(0.015625)"/>
      </defs>
      <use xlink:href="#DejaVuSans-56"/>
      <use xlink:href="#DejaVuSans-6f" transform="translate(60.658203 0)"/>
      <use xlink:href="#DejaVuSans-6c" transform="translate(121.839844 0)"/>
     </g>
    </g>
    <g id="text_20">
     <!-- 1e6 -->
     <g style="fill: #9ca3af" transform="translate(37.1025 195.99032) scale(0.1 -0.1)">
      <defs>
       <path id="DejaVuSans-65" d="M 3597 1894 
L 3597 1613 
L 953 1613 
Q 991 1019 1311 708 
Q 1631 397 2203 397 
Q 2534 397 2845 478 
Q 3156 559 3463 722 
L 3463 178 
Q 3153 47 2828 -22 
Q 2503 -91 2169 -91 
Q 1331 -91 842 396 
Q 353 884 353 1716 
Q 353 2575 817 3079 
Q 1281 3584 2069 3584 
Q 2775 3584 3186 3129 
Q 3597 2675 3597 1894 
z
M 3022 2063 
Q 3016 2534 2758 2815 
Q 2500 3097 2075 3097 
Q 1594 3097 1305 2825 
Q 1016 2553 972 2059 
L 3022 2063 
z
" transform="scale(0.015625)"/>
       <path id="DejaVuSans-36" d="M 2113 2584 
Q 1688 2584 1439 2293 
Q 1191 2003 1191 1497 
Q 1191 994 1439 701 
Q 1688 409 2113 409 
Q 2538 409 2786 701 
Q 3034 994 3034 1497 
Q 3034 2003 2786 2293 
Q 2538 2584 2113 2584 
z
M 3366 4563 
L 3366 3988 
Q 3128 4100 2886 4159 
Q 2644 4219 2406 4219 
Q 1781 4219 1451 3797 
Q 1122 3375 1075 2522 
Q 1259 2794 1537 2939 
Q 1816 3084 2150 3084 
Q 2853 3084 3261 2657 
Q 3669 2231 3669 1497 
Q 3669 778 3244 343 
Q 2819 -91 2113 -91 
Q 1303 -91 875 529 
Q 447 1150 447 2328 
Q 447 3434 972 4092 
Q 1497 4750 2381 4750 
Q 2619 4750 2861 4703 
Q 3103 4656 3366 4563 
z
" transform="scale(0.015625)"/>
      </defs>
      <use xlink:href="#DejaVuSans-31"/>
      <use xlink:href="#DejaVuSans-65" transform="translate(63.623047 0)"/>
      <use xlink:href="#DejaVuSans-36" transform="translate(125.146484 0)"/>
     </g>
    </g>
   </g>
   <g id="patch_66">
    <path d="M 37.1025 253.078125 
L 37.1025 198.99032 
" style="fill: none; stroke: #1f2937; stroke-width: 0.8; stroke-linejoin: miter; stroke-linecap: square"/>
   </g>
   <g id="patch_67">
    <path d="M 37.1025 253.078125 
L 483.5025 253.078125 
" style="fill: none; stroke: #1f2937; stroke-width: 0.8; stroke-linejoin: miter; stroke-linecap: square"/>
   </g>
  </g>
 </g>
 <defs>
  <clipPath id="p24de9ef646">
   <rect x="37.1025" y="31.318125" width="446.4" height="162.263415"/>
  </clipPath>
  <clipPath id="pa40e63e31d">
   <rect x="37.1025" y="198.99032" width="446.4" height="54.087805"/>
  </clipPath>
 </defs>
</svg>
