<?xml version="1.0" encoding="utf-8" standalone="no"?>
<!DOCTYPE svg PUBLIC "-//W3C//DTD SVG 1.1//EN"
  "http://www.w3.org/Graphics/SVG/1.1/DTD/svg11.dtd">
<svg xmlns:xlink="http://www.w3.org/1999/xlink" width="484.6325pt" height="275.020625pt" viewBox="0 0 484.6325 275.020625" xmlns="http://www.w3.org/2000/svg" version="1.1">
 <metadata>
  <rdf:RDF xmlns:dc="http://purl.org/dc/elements/1.1/" xmlns:cc="http://creativecommons.org/ns#" xmlns:rdf="http://www.w3.org/1999/02/22-rdf-syntax-ns#">
   <cc:Work>
    <dc:type rdf:resource="http://purl.org/dc/dcmitype/StillImage"/>
    <dc:date>2026-02-16T08:56:40.493258</dc:date>
    <dc:format>image/svg+xml</dc:format>
    <dc:creator>
     <cc:Agent>
      <dc:title>Matplotlib v3.10.8, https://matplotlib.org/</dc:title>
     </cc:Agent>
    </dc:creator>
   </cc:Work>
  </rdf:RDF>
 </metadata>
 <defs>
  <style type="text/css">*{stroke-linejoin: round; stroke-linecap: butt}</style>
 </defs>
 <g id="figure_1">
  <g id="patch_1">
   <path d="M 0 275.020625 
L 484.6325 275.020625 
L 484.6325 0 
L 0 0 
z
" style="fill: #0a0f1a"/>
  </g>
  <g id="axes_1">
   <g id="patch_2">
    <path d="M 31.0325 193.58154 
L 477.4325 193.58154 
L 477.4325 31.318125 
L 31.0325 31.318125 
z
" style="fill: #0a0f1a"/>
   </g>
   <g id="patch_3">
    <path d="M 40.3925 158.446048 
L 50.4725 158.446048 
Q 50.7605 158.446048 50.7605 158.247982 
L 50.7605 152.370219 
Q 50.7605 152.172153 50.4725 152.172153 
L 40.3925 152.172153 
Q 40.1045 152.172153 40.1045 152.370219 
L 40.1045 158.247982 
Q 40.1045 158.446048 40.3925 158.446048 
z
" clip-path="url(#pada09c58ba)" style="fill: #22c55e; stroke: #22c55e; stroke-linejoin: miter"/>
   </g>
   <g id="patch_4">
    <path d="M 54.7925 155.107709 
L 64.8725 155.107709 
Q 65.1605 155.107709 65.1605 154.909643 
L 65.1605 145.072969 
Q 65.1605 144.874902 64.8725 144.874902 
L 54.7925 144.874902 
Q 54.5045 144.874902 54.5045 145.072969 
L 54.5045 154.909643 
Q 54.5045 155.107709 54.7925 155.107709 
z
" clip-path="url(#pada09c58ba)" style="fill: #22c55e; stroke: #22c55e; stroke-linejoin: miter"/>
   </g>
   <g id="patch_5">
    <path d="M 69.1925 146.1155 
L 79.2725 146.1155 
Q 79.5605 146.1155 79.5605 145.917434 
L 79.5605 136.505026 
Q 79.5605 136.30696 79.2725 136.30696 
L 69.1925 136.30696 
Q 68.9045 136.30696 68.9045 136.505026 
L 68.9045 145.917434 
Q 68.9045 146.1155 69.1925 146.1155 
z
" clip-path="url(#pada09c58ba)" style="fill: #22c55e; stroke: #22c55e; stroke-linejoin: miter"/>
   </g>
   <g id="patch_6">
    <path d="M 83.5925 153.995818 
L 93.6725 153.995818 
Q 93.9605 153.995818 93.9605 153.797752 
L 93.9605 143.717571 
Q 93.9605 143.519504 93.6725 143.519504 
L 83.5925 143.519504 
Q 83.3045 143.519504 83.3045 143.717571 
L 83.3045 153.797752 
Q 83.3045 153.995818 83.5925 153.995818 
z
" clip-path="url(#pada09c58ba)" style="fill: #22c55e; stroke: #22c55e; stroke-linejoin: miter"/>
   </g>
   <g id="patch_7">
    <path d="M 97.9925 177.723341 
L 108.0725 177.723341 
Q 108.3605 177.723341 108.3605 177.525275 
L 108.3605 163.690029 
Q 108.3605 163.491963 108.0725 163.491963 
L 97.9925 163.491963 
Q 97.7045 163.491963 97.7045 163.690029 
L 97.7045 177.525275 
Q 97.7045 177.723341 97.9925 177.723341 
z
" clip-path="url(#pada09c58ba)" style="fill: #ef4444; stroke: #ef4444; stroke-linejoin: miter"/>
   </g>
   <g id="patch_8">
    <path d="M 112.3925 168.342967 
L 122.4725 168.342967 
Q 122.7605 168.342967 122.7605 168.144901 
L 122.7605 164.956548 
Q 122.7605 164.758482 122.4725 164.758482 
L 112.3925 164.758482 
Q 112.1045 164.758482 112.1045 164.956548 
L 112.1045 168.144901 
Q 112.1045 168.342967 112.3925 168.342967 
z
" clip-path="url(#pada09c58ba)" style="fill: #22c55e; stroke: #22c55e; stroke-linejoin: miter"/>
   </g>
   <g id="patch_9">
    <path d="M 126.7925 157.701501 
L 136.8725 157.701501 
Q 137.1605 157.701501 137.1605 157.503435 
L 137.1605 148.760266 
Q 137.1605 148.5622 136.8725 148.5622 
L 126.7925 148.5622 
Q 126.5045 148.5622 126.5045 148.760266 
L 126.5045 157.503435 
Q 126.5045 157.701501 126.7925 157.701501 
z
" clip-path="url(#pada09c58ba)" style="fill: #22c55e; stroke: #22c55e; stroke-linejoin: miter"/>
   </g>
   <g id="patch_10">
    <path d="M 141.1925 148.866533 
L 151.2725 148.866533 
Q 151.5605 148.866533 151.5605 148.668467 
L 151.5605 144.089824 
Q 151.5605 143.891758 151.2725 143.891758 
L 141.1925 143.891758 
Q 140.9045 143.891758 140.9045 144.089824 
L 140.9045 148.668467 
Q 140.9045 148.866533 141.1925 148.866533 
z
" clip-path="url(#pada09c58ba)" style="fill: #22c55e; stroke: #22c55e; stroke-linejoin: miter"/>
   </g>
   <g id="patch_11">
    <path d="M 155.5925 133.881675 
L 165.6725 133.881675 
Q 165.9605 133.881675 165.9605 133.683609 
L 165.9605 127.262309 
Q 165.9605 127.064243 165.6725 127.064243 
L 155.5925 127.064243 
Q 155.3045 127.064243 155.3045 127.262309 
L 155.3045 133.683609 
Q 155.3045 133.881675 155.5925 133.881675 
z
" clip-path="url(#pada09c58ba)" style="fill: #22c55e; stroke: #22c55e; stroke-linejoin: miter"/>
   </g>
   <g id="patch_12">
    <path d="M 169.9925 95.030518 
L 180.0725 95.030518 
Q 180.3605 95.030518 180.3605 94.832452 
L 180.3605 88.062528 
Q 180.3605 87.864462 180.0725 87.864462 
L 169.9925 87.864462 
Q 169.7045 87.864462 169.7045 88.062528 
L 169.7045 94.832452 
Q 169.7045 95.030518 169.9925 95.030518 
z
" clip-path="url(#pada09c58ba)" style="fill: #22c55e; stroke: #22c55e; stroke-linejoin: miter"/>
   </g>
   <g id="patch_13">
    <path d="M 184.3925 118.143866 
L 194.4725 118.143866 
Q 194.7605 118.143866 194.7605 117.9458 
L 194.7605 114.633825 
Q 194.7605 114.435759 194.4725 114.435759 
L 184.3925 114.435759 
Q 184.1045 114.435759 184.1045 114.633825 
L 184.1045 117.9458 
Q 184.1045 118.143866 184.3925 118.143866 
z
" clip-path="url(#pada09c58ba)" style="fill: #22c55e; stroke: #22c55e; stroke-linejoin: miter"/>
   </g>
   <g id="patch_14">
    <path d="M 198.7925 121.559865 
L 208.8725 121.559865 
Q 209.1605 121.559865 209.1605 121.361799 
L 209.1605 116.1228 
Q 209.1605 115.924734 208.8725 115.924734 
L 198.7925 115.924734 
Q 198.5045 115.924734 198.5045 116.1228 
L 198.5045 121.361799 
Q 198.5045 121.559865 198.7925 121.559865 
z
" clip-path="url(#pada09c58ba)" style="fill: #ef4444; stroke: #ef4444; stroke-linejoin: miter"/>
   </g>
   <g id="patch_15">
    <path d="M 213.1925 116.010884 
L 223.2725 116.010884 
Q 223.5605 116.010884 223.5605 115.812818 
L 223.5605 112.540578 
Q 223.5605 112.342512 223.2725 112.342512 
L 213.1925 112.342512 
Q 212.9045 112.342512 212.9045 112.540578 
L 212.9045 115.812818 
Q 212.9045 116.010884 213.1925 116.010884 
z
" clip-path="url(#pada09c58ba)" style="fill: #22c55e; stroke: #22c55e; stroke-linejoin: miter"/>
   </g>
   <g id="patch_16">
    <path d="M 227.5925 121.003681 
L 237.6725 121.003681 
Q 237.9605 121.003681 237.9605 120.805615 
L 237.9605 109.246985 
Q 237.9605 109.048919 237.6725 109.048919 
L 227.5925 109.048919 
Q 227.3045 109.048919 227.3045 109.246985 
L 227.3045 120.805615 
Q 227.3045 121.003681 227.5925 121.003681 
z
" clip-path="url(#pada09c58ba)" style="fill: #ef4444; stroke: #ef4444; stroke-linejoin: miter"/>
   </g>
   <g id="patch_17">
    <path d="M 241.9925 122.027732 
L 252.0725 122.027732 
Q 252.3605 122.027732 252.3605 121.829666 
L 252.3605 109.640371 
Q 252.3605 109.442304 252.0725 109.442304 
L 241.9925 109.442304 
Q 241.7045 109.442304 241.7045 109.640371 
L 241.7045 121.829666 
Q 241.7045 122.027732 241.9925 122.027732 
z
" clip-path="url(#pada09c58ba)" style="fill: #ef4444; stroke: #ef4444; stroke-linejoin: miter"/>
   </g>
   <g id="patch_18">
    <path d="M 256.3925 107.61514 
L 266.4725 107.61514 
Q 266.7605 107.61514 266.7605 107.417074 
L 266.7605 98.863268 
Q 266.7605 98.665202 266.4725 98.665202 
L 256.3925 98.665202 
Q 256.1045 98.665202 256.1045 98.863268 
L 256.1045 107.417074 
Q 256.1045 107.61514 256.3925 107.61514 
z
" clip-path="url(#pada09c58ba)" style="fill: #ef4444; stroke: #ef4444; stroke-linejoin: miter"/>
   </g>
   <g id="patch_19">
    <path d="M 270.7925 108.173784 
L 280.8725 108.173784 
Q 281.1605 108.173784 281.1605 107.975718 
L 281.1605 100.287288 
Q 281.1605 100.089222 280.8725 100.089222 
L 270.7925 100.089222 
Q 270.5045 100.089222 270.5045 100.287288 
L 270.5045 107.975718 
Q 270.5045 108.173784 270.7925 108.173784 
z
" clip-path="url(#pada09c58ba)" style="fill: #22c55e; stroke: #22c55e; stroke-linejoin: miter"/>
   </g>
   <g id="patch_20">
    <path d="M 285.1925 98.228418 
L 295.2725 98.228418 
Q 295.5605 98.228418 295.5605 98.030352 
L 295.5605 91.945705 
Q 295.5605 91.747639 295.2725 91.747639 
L 285.1925 91.747639 
Q 284.9045 91.747639 284.9045 91.945705 
L 284.9045 98.030352 
Q 284.9045 98.228418 285.1925 98.228418 
z
" clip-path="url(#pada09c58ba)" style="fill: #ef4444; stroke: #ef4444; stroke-linejoin: miter"/>
   </g>
   <g id="patch_21">
    <path d="M 299.5925 82.530846 
L 309.6725 82.530846 
Q 309.9605 82.530846 309.9605 82.33278 
L 309.9605 71.04885 
Q 309.9605 70.850784 309.6725 70.850784 
L 299.5925 70.850784 
Q 299.3045 70.850784 299.3045 71.04885 
L 299.3045 82.33278 
Q 299.3045 82.530846 299.5925 82.530846 
z
" clip-path="url(#pada09c58ba)" style="fill: #22c55e; stroke: #22c55e; stroke-linejoin: miter"/>
   </g>
   <g id="patch_22">
    <path d="M 313.9925 76.265231 
L 324.0725 76.265231 
Q 324.3605 76.265231 324.3605 76.067165 
L 324.3605 63.569406 
Q 324.3605 63.37134 324.0725 63.37134 
L 313.9925 63.37134 
Q 313.7045 63.37134 313.7045 63.569406 
L 313.7045 76.067165 
Q 313.7045 76.265231 313.9925 76.265231 
z
" clip-path="url(#pada09c58ba)" style="fill: #ef4444; stroke: #ef4444; stroke-linejoin: miter"/>
   </g>
   <g id="patch_23">
    <path d="M 328.3925 71.623577 
L 338.4725 71.623577 
Q 338.7605 71.623577 338.7605 71.425511 
L 338.7605 65.800829 
Q 338.7605 65.602763 338.4725 65.602763 
L 328.3925 65.602763 
Q 328.1045 65.602763 328.1045 65.800829 
L 328.1045 71.425511 
Q 328.1045 71.623577 328.3925 71.623577 
z
" clip-path="url(#pada09c58ba)" style="fill: #ef4444; stroke: #ef4444; stroke-linejoin: miter"/>
   </g>
   <g id="patch_24">
    <path d="M 342.7925 81.794989 
L 352.8725 81.794989 
Q 353.1605 81.794989 353.1605 81.596923 
L 353.1605 76.156754 
Q 353.1605 75.958688 352.8725 75.958688 
L 342.7925 75.958688 
Q 342.5045 75.958688 342.5045 76.156754 
L 342.5045 81.596923 
Q 342.5045 81.794989 342.7925 81.794989 
z
" clip-path="url(#pada09c58ba)" style="fill: #ef4444; stroke: #ef4444; stroke-linejoin: miter"/>
   </g>
   <g id="patch_25">
    <path d="M 357.1925 82.509821 
L 367.2725 82.509821 
Q 367.5605 82.509821 367.5605 82.311755 
L 367.5605 78.345407 
Q 367.5605 78.147341 367.2725 78.147341 
L 357.1925 78.147341 
Q 356.9045 78.147341 356.9045 78.345407 
L 356.9045 82.311755 
Q 356.9045 82.509821 357.1925 82.509821 
z
" clip-path="url(#pada09c58ba)" style="fill: #ef4444; stroke: #ef4444; stroke-linejoin: miter"/>
   </g>
   <g id="patch_26">
    <path d="M 371.5925 91.905161 
L 381.6725 91.905161 
Q 381.9605 91.905161 381.9605 91.707095 
L 381.9605 86.780971 
Q 381.9605 86.582905 381.6725 86.582905 
L 371.5925 86.582905 
Q 371.3045 86.582905 371.3045 86.780971 
L 371.3045 91.707095 
Q 371.3045 91.905161 371.5925 91.905161 
z
" clip-path="url(#pada09c58ba)" style="fill: #ef4444; stroke: #ef4444; stroke-linejoin: miter"/>
   </g>
   <g id="patch_27">
    <path d="M 385.9925 76.619324 
L 396.0725 76.619324 
Q 396.3605 76.619324 396.3605 76.421258 
L 396.3605 69.768615 
Q 396.3605 69.570549 396.0725 69.570549 
L 385.9925 69.570549 
Q 385.7045 69.570549 385.7045 69.768615 
L 385.7045 76.421258 
Q 385.7045 76.619324 385.9925 76.619324 
z
" clip-path="url(#pada09c58ba)" style="fill: #22c55e; stroke: #22c55e; stroke-linejoin: miter"/>
   </g>
   <g id="patch_28">
    <path d="M 400.3925 73.004749 
L 410.4725 73.004749 
Q 410.7605 73.004749 410.7605 72.806683 
L 410.7605 64.733926 
Q 410.7605 64.53586 410.4725 64.53586 
L 400.3925 64.53586 
Q 400.1045 64.53586 400.1045 64.733926 
L 400.1045 72.806683 
Q 400.1045 73.004749 400.3925 73.004749 
z
" clip-path="url(#pada09c58ba)" style="fill: #22c55e; stroke: #22c55e; stroke-linejoin: miter"/>
   </g>
   <g id="patch_29">
    <path d="M 414.7925 53.107249 
L 424.8725 53.107249 
Q 425.1605 53.107249 425.1605 52.909183 
L 425.1605 48.149123 
Q 425.1605 47.951057 424.8725 47.951057 
L 414.7925 47.951057 
Q 414.5045 47.951057 414.5045 48.149123 
L 414.5045 52.909183 
Q 414.5045 53.107249 414.7925 53.107249 
z
" clip-path="url(#pada09c58ba)" style="fill: #22c55e; stroke: #22c55e; stroke-linejoin: miter"/>
   </g>
   <g id="patch_30">
    <path d="M 429.1925 60.748418 
L 439.2725 60.748418 
Q 439.5605 60.748418 439.5605 60.550352 
L 439.5605 49.943091 
Q 439.5605 49.745025 439.2725 49.745025 
L 429.1925 49.745025 
Q 428.9045 49.745025 428.9045 49.943091 
L 428.9045 60.550352 
Q 428.9045 60.748418 429.1925 60.748418 
z
" clip-path="url(#pada09c58ba)" style="fill: #22c55e; stroke: #22c55e; stroke-linejoin: miter"/>
   </g>
   <g id="patch_31">
    <path d="M 443.5925 64.55885 
L 453.6725 64.55885 
Q 453.9605 64.55885 453.9605 64.360784 
L 453.9605 49.916214 
Q 453.9605 49.718148 453.6725 49.718148 
L 443.5925 49.718148 
Q 443.3045 49.718148 443.3045 49.916214 
L 443.3045 64.360784 
Q 443.3045 64.55885 443.5925 64.55885 
z
" clip-path="url(#pada09c58ba)" style="fill: #ef4444; stroke: #ef4444; stroke-linejoin: miter"/>
   </g>
   <g id="patch_32">
    <path d="M 457.9925 62.578189 
L 468.0725 62.578189 
Q 468.3605 62.578189 468.3605 62.380123 
L 468.3605 59.409132 
Q 468.3605 59.211066 468.0725 59.211066 
L 457.9925 59.211066 
Q 457.7045 59.211066 457.7045 59.409132 
L 457.7045 62.380123 
Q 457.7045 62.578189 457.9925 62.578189 
z
" clip-path="url(#pada09c58ba)" style="fill: #ef4444; stroke: #ef4444; stroke-linejoin: miter"/>
   </g>
   <g id="matplotlib.axis_1">
    <g id="xtick_1">
     <g id="line2d_1">
      <path d="M 45.4325 193.58154 
L 45.4325 31.318125 
" clip-path="url(#pada09c58ba)" style="fill: none; stroke-dasharray: 2.96,1.28; stroke-dashoffset: 0; stroke: #374151; stroke-opacity: 0.1; stroke-width: 0.8"/>
     </g>
     <g id="line2d_2">
      <defs>
       <path id="md093d93ef5" d="M 0 0 
L 0 3.5 
" style="stroke: #9ca3af; stroke-width: 0.8"/>
      </defs>
      <g>
       <use xlink:href="#md093d93ef5" x="45.4325" y="193.58154" style="fill: #9ca3af; stroke: #9ca3af; stroke-width: 0.8"/>
      </g>
     </g>
    </g>
    <g id="xtick_2">
     <g id="line2d_3">
      <path d="M 117.4325 193.58154 
L 117.4325 31.318125 
" clip-path="url(#pada09c58ba)" style="fill: none; stroke-dasharray: 2.96,1.28; stroke-dashoffset: 0; stroke: #374151; stroke-opacity: 0.1; stroke-width: 0.8"/>
     </g>
     <g id="line2d_4">
      <g>
       <use xlink:href="#md093d93ef5" x="117.4325" y="193.58154" style="fill: #9ca3af; stroke: #9ca3af; stroke-width: 0.8"/>
      </g>
     </g>
    </g>
    <g id="xtick_3">
     <g id="line2d_5">
      <path d="M 189.4325 193.58154 
L 189.4325 31.318125 
" clip-path="url(#pada09c58ba)" style="fill: none; stroke-dasharray: 2.96,1.28; stroke-dashoffset: 0; stroke: #374151; stroke-opacity: 0.1; stroke-width: 0.8"/>
     </g>
     <g id="line2d_6">
      <g>
       <use xlink:href="#md093d93ef5" x="189.4325" y="193.58154" style="fill: #9ca3af; stroke: #9ca3af; stroke-width: 0.8"/>
      </g>
     </g>
    </g>
    <g id="xtick_4">
     <g id="line2d_7">
      <path d="M 261.4325 193.58154 
L 261.4325 31.318125 
" clip-path="url(#pada09c58ba)" style="fill: none; stroke-dasharray: 2.96,1.28; stroke-dashoffset: 0; stroke: #374151; stroke-opacity: 0.1; stroke-width: 0.8"/>
     </g>
     <g id="line2d_8">
      <g>
       <use xlink:href="#md093d93ef5" x="261.4325" y="193.58154" style="fill: #9ca3af; stroke: #9ca3af; stroke-width: 0.8"/>
      </g>
     </g>
    </g>
    <g id="xtick_5">
     <g id="line2d_9">
      <path d="M 333.4325 193.58154 
L 333.4325 31.318125 
" clip-path="url(#pada09c58ba)" style="fill: none; stroke-dasharray: 2.96,1.28; stroke-dashoffset: 0; stroke: #374151; stroke-opacity: 0.1; stroke-width: 0.8"/>
     </g>
     <g id="line2d_10">
      <g>
       <use xlink:href="#md093d93ef5" x="333.4325" y="193.58154" style="fill: #9ca3af; stroke: #9ca3af; stroke-width: 0.8"/>
      </g>
     </g>
    </g>
    <g id="xtick_6">
     <g id="line2d_11">
      <path d="M 405.4325 193.58154 
L 405.4325 31.318125 
" clip-path="url(#pada09c58ba)" style="fill: none; stroke-dasharray: 2.96,1.28; stroke-dashoffset: 0; stroke: #374151; stroke-opacity: 0.1; stroke-width: 0.8"/>
     </g>
     <g id="line2d_12">
      <g>
       <use xlink:href="#md093d93ef5" x="405.4325" y="193.58154" style="fill: #9ca3af; stroke: #9ca3af; stroke-width: 0.8"/>
      </g>
     </g>
    </g>
    <g id="xtick_7">
     <g id="line2d_13">
      <path d="M 477.4325 193.58154 
L 477.4325 31.318125 
" clip-path="url(#pada09c58ba)" style="fill: none; stroke-dasharray: 2.96,1.28; stroke-dashoffset: 0; stroke: #374151; stroke-opacity: 0.1; stroke-width: 0.8"/>
     </g>
     <g id="line2d_14">
      <g>
       <use xlink:href="#md093d93ef5" x="477.4325" y="193.58154" style="fill: #9ca3af; stroke: #9ca3af; stroke-width: 0.8"/>
      </g>
     </g>
    </g>
   </g>
   <g id="matplotlib.axis_2">
    <g id="ytick_1">
     <g id="line2d_15">
      <path d="M 31.0325 175.115708 
L 477.4325 175.115708 
" clip-path="url(#pada09c58ba)" style="fill: none; stroke-dasharray: 2.96,1.28; stroke-dashoffset: 0; stroke: #374151; stroke-opacity: 0.1; stroke-width: 0.8"/>
     </g>
     <g id="line2d_16">
      <defs>
       <path id="mdcb642127d" d="M 0 0 
L -3.5 0 
" style="stroke: #9ca3af; stroke-width: 0.8"/>
      </defs>
      <g>
       <use xlink:href="#mdcb642127d" x="31.0325" y="175.115708" style="fill: #9ca3af; stroke: #9ca3af; stroke-width: 0.8"/>
      </g>
     </g>
     <g id="text_1">
      <!-- 98 -->
      <g style="fill: #9ca3af" transform="translate(13.8525 178.155083) scale(0.08 -0.08)">
       <defs>
        <path id="DejaVuSans-39" d="M 703 97 
L 703 672 
Q 941 559 1184 500 
Q 1428 441 1663 441 
Q 2288 441 2617 861 
Q 2947 1281 2994 2138 
Q 2813 1869 2534 1725 
Q 2256 1581 1919 1581 
Q 1219 1581 811 2004 
Q 403 2428 403 3163 
Q 403 3881 828 4315 
Q 1253 4750 1959 4750 
Q 2769 4750 3195 4129 
Q 3622 3509 3622 2328 
Q 3622 1225 3098 567 
Q 2575 -91 1691 -91 
Q 1453 -91 1209 -44 
Q 966 3 703 97 
z
M 1959 2075 
Q 2384 2075 2632 2365 
Q 2881 2656 2881 3163 
Q 2881 3666 2632 3958 
Q 2384 4250 1959 4250 
Q 1534 4250 1286 3958 
Q 1038 3666 1038 3163 
Q 1038 2656 1286 2365 
Q 1534 2075 1959 2075 
z
" transform="scale(0.015625)"/>
        <path id="DejaVuSans-38" d="M 2034 2216 
Q 1584 2216 1326 1975 
Q 1069 1734 1069 1313 
Q 1069 891 1326 650 
Q 1584 409 2034 409 
Q 2484 409 2743 651 
Q 3003 894 3003 1313 
Q 3003 1734 2745 1975 
Q 2488 2216 2034 2216 
z
M 1403 2484 
Q 997 2584 770 2862 
Q 544 3141 544 3541 
Q 544 4100 942 4425 
Q 1341 4750 2034 4750 
Q 2731 4750 3128 4425 
Q 3525 4100 3525 3541 
Q 3525 3141 3298 2862 
Q 3072 2584 2669 2484 
Q 3125 2378 3379 2068 
Q 3634 1759 3634 1313 
Q 3634 634 3220 271 
Q 2806 -91 2034 -91 
Q 1263 -91 848 271 
Q 434 634 434 1313 
Q 434 1759 690 2068 
Q 947 2378 1403 2484 
z
M 1172 3481 
Q 1172 3119 1398 2916 
Q 1625 2713 2034 2713 
Q 2441 2713 2670 2916 
Q 2900 3119 2900 3481 
Q 2900 3844 2670 4047 
Q 2441 4250 2034 4250 
Q 1625 4250 1398 4047 
Q 1172 3844 1172 3481 
z
" transform="scale(0.015625)"/>
       </defs>
       <use xlink:href="#DejaVuSans-39"/>
       <use xlink:href="#DejaVuSans-38" transform="translate(63.623047 0)"/>
      </g>
     </g>
    </g>
    <g id="ytick_2">
     <g id="line2d_17">
      <path d="M 31.0325 155.3091 
L 477.4325 155.3091 
" clip-path="url(#pada09c58ba)" style="fill: none; stroke-dasharray: 2.96,1.28; stroke-dashoffset: 0; stroke: #374151; stroke-opacity: 0.1; stroke-width: 0.8"/>
     </g>
     <g id="line2d_18">
      <g>
       <use xlink:href="#mdcb642127d" x="31.0325" y="155.3091" style="fill: #9ca3af; stroke: #9ca3af; stroke-width: 0.8"/>
      </g>
     </g>
     <g id="text_2">
      <!-- 100 -->
      <g style="fill: #9ca3af" transform="translate(8.7625 158.348475) scale(0.08 -0.08)">
       <defs>
        <path id="DejaVuSans-31" d="M 794 531 
L 1825 531 
L 1825 4091 
L 703 3866 
L 703 4441 
L 1819 4666 
L 2450 4666 
L 2450 531 
L 3481 531 
L 3481 0 
L 794 0 
L 794 531 
z
" transform="scale(0.015625)"/>
        <path id="DejaVuSans-30" d="M 2034 4250 
Q 1547 4250 1301 3770 
Q 1056 3291 1056 2328 
Q 1056 1369 1301 889 
Q 1547 409 2034 409 
Q 2525 409 2770 889 
Q 3016 1369 3016 2328 
Q 3016 3291 2770 3770 
Q 2525 4250 2034 4250 
z
M 2034 4750 
Q 2819 4750 3233 4129 
Q 3647 3509 3647 2328 
Q 3647 1150 3233 529 
Q 2819 -91 2034 -91 
Q 1250 -91 836 529 
Q 422 1150 422 2328 
Q 422 3509 836 4129 
Q 1250 4750 2034 4750 
z
" transform="scale(0.015625)"/>
       </defs>
       <use xlink:href="#DejaVuSans-31"/>
       <use xlink:href="#DejaVuSans-30" transform="translate(63.623047 0)"/>
       <use xlink:href="#DejaVuSans-30" transform="translate(127.246094 0)"/>
      </g>
     </g>
    </g>
    <g id="ytick_3">
     <g id="line2d_19">
      <path d="M 31.0325 135.502493 
L 477.4325 135.502493 
" clip-path="url(#pada09c58ba)" style="fill: none; stroke-dasharray: 2.96,1.28; stroke-dashoffset: 0; stroke: #374151; stroke-opacity: 0.1; stroke-width: 0.8"/>
     </g>
     <g id="line2d_20">
      <g>
       <use xlink:href="#mdcb642127d" x="31.0325" y="135.502493" style="fill: #9ca3af; stroke: #9ca3af; stroke-width: 0.8"/>
      </g>
     </g>
     <g id="text_3">
      <!-- 102 -->
      <g style="fill: #9ca3af" transform="translate(8.7625 138.541868) scale(0.08 -0.08)">
       <defs>
        <path id="DejaVuSans-32" d="M 1228 531 
L 3431 531 
L 3431 0 
L 469 0 
L 469 531 
Q 828 903 1448 1529 
Q 2069 2156 2228 2338 
Q 2531 2678 2651 2914 
Q 2772 3150 2772 3378 
Q 2772 3750 2511 3984 
Q 2250 4219 1831 4219 
Q 1534 4219 1204 4116 
Q 875 4013 500 3803 
L 500 4441 
Q 881 4594 1212 4672 
Q 1544 4750 1819 4750 
Q 2544 4750 2975 4387 
Q 3406 4025 3406 3419 
Q 3406 3131 3298 2873 
Q 3191 2616 2906 2266 
Q 2828 2175 2409 1742 
Q 1991 1309 1228 531 
z
" transform="scale(0.015625)"/>
       </defs>
       <use xlink:href="#DejaVuSans-31"/>
       <use xlink:href="#DejaVuSans-30" transform="translate(63.623047 0)"/>
       <use xlink:href="#DejaVuSans-32" transform="translate(127.246094 0)"/>
      </g>
     </g>
    </g>
    <g id="ytick_4">
     <g id="line2d_21">
      <path d="M 31.0325 115.695885 
L 477.4325 115.695885 
" clip-path="url(#pada09c58ba)" style="fill: none; stroke-dasharray: 2.96,1.28; stroke-dashoffset: 0; stroke: #374151; stroke-opacity: 0.1; stroke-width: 0.8"/>
     </g>
     <g id="line2d_22">
      <g>
       <use xlink:href="#mdcb642127d" x="31.0325" y="115.695885" style="fill: #9ca3af; stroke: #9ca3af; stroke-width: 0.8"/>
      </g>
     </g>
     <g id="text_4">
      <!-- 104 -->
      <g style="fill: #9ca3af" transform="translate(8.7625 118.73526) scale(0.08 -0.08)">
       <defs>
        <path id="DejaVuSans-34" d="M 2419 4116 
L 825 1625 
L 2419 1625 
L 2419 4116 
z
M 2253 4666 
L 3047 4666 
L 3047 1625 
L 3713 1625 
L 3713 1100 
L 3047 1100 
L 3047 0 
L 2419 0 
L 2419 1100 
L 313 1100 
L 313 1709 
L 2253 4666 
z
" transform="scale(0.015625)"/>
       </defs>
       <use xlink:href="#DejaVuSans-31"/>
       <use xlink:href="#DejaVuSans-30" transform="translate(63.623047 0)"/>
       <use xlink:href="#DejaVuSans-34" transform="translate(127.246094 0)"/>
      </g>
     </g>
    </g>
    <g id="ytick_5">
     <g id="line2d_23">
      <path d="M 31.0325 95.889277 
L 477.4325 95.889277 
" clip-path="url(#pada09c58ba)" style="fill: none; stroke-dasharray: 2.96,1.28; stroke-dashoffset: 0; stroke: #374151; stroke-opacity: 0.1; stroke-width: 0.8"/>
     </g>
     <g id="line2d_24">
      <g>
       <use xlink:href="#mdcb642127d" x="31.0325" y="95.889277" style="fill: #9ca3af; stroke: #9ca3af; stroke-width: 0.8"/>
      </g>
     </g>
     <g id="text_5">
      <!-- 106 -->
      <g style="fill: #9ca3af" transform="translate(8.7625 98.928652) scale(0.08 -0.08)">
       <defs>
        <path id="DejaVuSans-36" d="M 2113 2584 
Q 1688 2584 1439 2293 
Q 1191 2003 1191 1497 
Q 1191 994 1439 701 
Q 1688 409 2113 409 
Q 2538 409 2786 701 
Q 3034 994 3034 1497 
Q 3034 2003 2786 2293 
Q 2538 2584 2113 2584 
z
M 3366 4563 
L 3366 3988 
Q 3128 4100 2886 4159 
Q 2644 4219 2406 4219 
Q 1781 4219 1451 3797 
Q 1122 3375 1075 2522 
Q 1259 2794 1537 2939 
Q 1816 3084 2150 3084 
Q 2853 3084 3261 2657 
Q 3669 2231 3669 1497 
Q 3669 778 3244 343 
Q 2819 -91 2113 -91 
Q 1303 -91 875 529 
Q 447 1150 447 2328 
Q 447 3434 972 4092 
Q 1497 4750 2381 4750 
Q 2619 4750 2861 4703 
Q 3103 4656 3366 4563 
z
" transform="scale(0.015625)"/>
       </defs>
       <use xlink:href="#DejaVuSans-31"/>
       <use xlink:href="#DejaVuSans-30" transform="translate(63.623047 0)"/>
       <use xlink:href="#DejaVuSans-36" transform="translate(127.246094 0)"/>
      </g>
     </g>
    </g>
    <g id="ytick_6">
     <g id="line2d_25">
      <path d="M 31.0325 76.08267 
L 477.4325 76.08267 
" clip-path="url(#pada09c58ba)" style="fill: none; stroke-dasharray: 2.96,1.28; stroke-dashoffset: 0; stroke: #374151; stroke-opacity: 0.1; stroke-width: 0.8"/>
     </g>
     <g id="line2d_26">
      <g>
       <use xlink:href="#mdcb642127d" x="31.0325" y="76.08267" style="fill: #9ca3af; stroke: #9ca3af; stroke-width: 0.8"/>
      </g>
     </g>
     <g id="text_6">
      <!-- 108 -->
      <g style="fill: #9ca3af" transform="translate(8.7625 79.122045) scale(0.08 -0.08)">
       <use xlink:href="#DejaVuSans-31"/>
       <use xlink:href="#DejaVuSans-30" transform="translate(63.623047 0)"/>
       <use xlink:href="#DejaVuSans-38" transform="translate(127.246094 0)"/>
      </g>
     </g>
    </g>
    <g id="ytick_7">
     <g id="line2d_27">
      <path d="M 31.0325 56.276062 
L 477.4325 56.276062 
" clip-path="url(#pada09c58ba)" style="fill: none; stroke-dasharray: 2.96,1.28; stroke-dashoffset: 0; stroke: #374151; stroke-opacity: 0.1; stroke-width: 0.8"/>
     </g>
     <g id="line2d_28">
      <g>
       <use xlink:href="#mdcb642127d" x="31.0325" y="56.276062" style="fill: #9ca3af; stroke: #9ca3af; stroke-width: 0.8"/>
      </g>
     </g>
     <g id="text_7">
      <!-- 110 -->
      <g style="fill: #9ca3af" transform="translate(8.7625 59.315437) scale(0.08 -0.08)">
       <use xlink:href="#DejaVuSans-31"/>
       <use xlink:href="#DejaVuSans-31" transform="translate(63.623047 0)"/>
       <use xlink:href="#DejaVuSans-30" transform="translate(127.246094 0)"/>
      </g>
     </g>
    </g>
    <g id="ytick_8">
     <g id="line2d_29">
      <path d="M 31.0325 36.469454 
L 477.4325 36.469454 
" clip-path="url(#pada09c58ba)" style="fill: none; stroke-dasharray: 2.96,1.28; stroke-dashoffset: 0; stroke: #374151; stroke-opacity: 0.1; stroke-width: 0.8"/>
     </g>
     <g id="line2d_30">
      <g>
       <use xlink:href="#mdcb642127d" x="31.0325" y="36.469454" style="fill: #9ca3af; stroke: #9ca3af; stroke-width: 0.8"/>
      </g>
     </g>
     <g id="text_8">
      <!-- 112 -->
      <g style="fill: #9ca3af" transform="translate(8.7625 39.508829) scale(0.08 -0.08)">
       <use xlink:href="#DejaVuSans-31"/>
       <use xlink:href="#DejaVuSans-31" transform="translate(63.623047 0)"/>
       <use xlink:href="#DejaVuSans-32" transform="translate(127.246094 0)"/>
      </g>
     </g>
    </g>
   </g>
   <g id="line2d_31">
    <path d="M 45.4325 161.080427 
L 45.4325 146.204044 
" clip-path="url(#pada09c58ba)" style="fill: none; stroke: #22c55e; stroke-width: 1.5; stroke-linecap: square"/>
   </g>
   <g id="line2d_32">
    <path d="M 59.8325 159.032747 
L 59.8325 137.988641 
" clip-path="url(#pada09c58ba)" style="fill: none; stroke: #22c55e; stroke-width: 1.5; stroke-linecap: square"/>
   </g>
   <g id="line2d_33">
    <path d="M 74.2325 151.876205 
L 74.2325 132.331577 
" clip-path="url(#pada09c58ba)" style="fill: none; stroke: #22c55e; stroke-width: 1.5; stroke-linecap: square"/>
   </g>
   <g id="line2d_34">
    <path d="M 88.6325 155.542736 
L 88.6325 137.026141 
" clip-path="url(#pada09c58ba)" style="fill: none; stroke: #22c55e; stroke-width: 1.5; stroke-linecap: square"/>
   </g>
   <g id="line2d_35">
    <path d="M 103.0325 180.059588 
L 103.0325 157.389664 
" clip-path="url(#pada09c58ba)" style="fill: none; stroke: #ef4444; stroke-width: 1.5; stroke-linecap: square"/>
   </g>
   <g id="line2d_36">
    <path d="M 117.4325 174.74296 
L 117.4325 159.260184 
" clip-path="url(#pada09c58ba)" style="fill: none; stroke: #22c55e; stroke-width: 1.5; stroke-linecap: square"/>
   </g>
   <g id="line2d_37">
    <path d="M 131.8325 159.151145 
L 131.8325 144.243116 
" clip-path="url(#pada09c58ba)" style="fill: none; stroke: #22c55e; stroke-width: 1.5; stroke-linecap: square"/>
   </g>
   <g id="line2d_38">
    <path d="M 146.2325 153.682705 
L 146.2325 138.651824 
" clip-path="url(#pada09c58ba)" style="fill: none; stroke: #22c55e; stroke-width: 1.5; stroke-linecap: square"/>
   </g>
   <g id="line2d_39">
    <path d="M 160.6325 136.891409 
L 160.6325 125.500572 
" clip-path="url(#pada09c58ba)" style="fill: none; stroke: #22c55e; stroke-width: 1.5; stroke-linecap: square"/>
   </g>
   <g id="line2d_40">
    <path d="M 175.0325 102.080748 
L 175.0325 84.817543 
" clip-path="url(#pada09c58ba)" style="fill: none; stroke: #22c55e; stroke-width: 1.5; stroke-linecap: square"/>
   </g>
   <g id="line2d_41">
    <path d="M 189.4325 124.939691 
L 189.4325 112.321495 
" clip-path="url(#pada09c58ba)" style="fill: none; stroke: #22c55e; stroke-width: 1.5; stroke-linecap: square"/>
   </g>
   <g id="line2d_42">
    <path d="M 203.8325 125.351152 
L 203.8325 111.444552 
" clip-path="url(#pada09c58ba)" style="fill: none; stroke: #ef4444; stroke-width: 1.5; stroke-linecap: square"/>
   </g>
   <g id="line2d_43">
    <path d="M 218.2325 119.93674 
L 218.2325 106.747897 
" clip-path="url(#pada09c58ba)" style="fill: none; stroke: #22c55e; stroke-width: 1.5; stroke-linecap: square"/>
   </g>
   <g id="line2d_44">
    <path d="M 232.6325 125.974414 
L 232.6325 106.751727 
" clip-path="url(#pada09c58ba)" style="fill: none; stroke: #ef4444; stroke-width: 1.5; stroke-linecap: square"/>
   </g>
   <g id="line2d_45">
    <path d="M 247.0325 126.946869 
L 247.0325 104.669036 
" clip-path="url(#pada09c58ba)" style="fill: none; stroke: #ef4444; stroke-width: 1.5; stroke-linecap: square"/>
   </g>
   <g id="line2d_46">
    <path d="M 261.4325 114.503928 
L 261.4325 92.38529 
" clip-path="url(#pada09c58ba)" style="fill: none; stroke: #ef4444; stroke-width: 1.5; stroke-linecap: square"/>
   </g>
   <g id="line2d_47">
    <path d="M 275.8325 115.887215 
L 275.8325 96.584335 
" clip-path="url(#pada09c58ba)" style="fill: none; stroke: #22c55e; stroke-width: 1.5; stroke-linecap: square"/>
   </g>
   <g id="line2d_48">
    <path d="M 290.2325 100.871131 
L 290.2325 85.067873 
" clip-path="url(#pada09c58ba)" style="fill: none; stroke: #ef4444; stroke-width: 1.5; stroke-linecap: square"/>
   </g>
   <g id="line2d_49">
    <path d="M 304.6325 85.617936 
L 304.6325 68.198784 
" clip-path="url(#pada09c58ba)" style="fill: none; stroke: #22c55e; stroke-width: 1.5; stroke-linecap: square"/>
   </g>
   <g id="line2d_50">
    <path d="M 319.0325 82.109715 
L 319.0325 56.375643 
" clip-path="url(#pada09c58ba)" style="fill: none; stroke: #ef4444; stroke-width: 1.5; stroke-linecap: square"/>
   </g>
   <g id="line2d_51">
    <path d="M 333.4325 73.73845 
L 333.4325 60.38478 
" clip-path="url(#pada09c58ba)" style="fill: none; stroke: #ef4444; stroke-width: 1.5; stroke-linecap: square"/>
   </g>
   <g id="line2d_52">
    <path d="M 347.8325 85.184385 
L 347.8325 72.91133 
" clip-path="url(#pada09c58ba)" style="fill: none; stroke: #ef4444; stroke-width: 1.5; stroke-linecap: square"/>
   </g>
   <g id="line2d_53">
    <path d="M 362.2325 83.393035 
L 362.2325 74.526602 
" clip-path="url(#pada09c58ba)" style="fill: none; stroke: #ef4444; stroke-width: 1.5; stroke-linecap: square"/>
   </g>
   <g id="line2d_54">
    <path d="M 376.6325 97.11678 
L 376.6325 79.120934 
" clip-path="url(#pada09c58ba)" style="fill: none; stroke: #ef4444; stroke-width: 1.5; stroke-linecap: square"/>
   </g>
   <g id="line2d_55">
    <path d="M 391.0325 82.001082 
L 391.0325 64.136964 
" clip-path="url(#pada09c58ba)" style="fill: none; stroke: #22c55e; stroke-width: 1.5; stroke-linecap: square"/>
   </g>
   <g id="line2d_56">
    <path d="M 405.4325 77.539746 
L 405.4325 61.730495 
" clip-path="url(#pada09c58ba)" style="fill: none; stroke: #22c55e; stroke-width: 1.5; stroke-linecap: square"/>
   </g>
   <g id="line2d_57">
    <path d="M 419.8325 56.641502 
L 419.8325 44.840076 
" clip-path="url(#pada09c58ba)" style="fill: none; stroke: #22c55e; stroke-width: 1.5; stroke-linecap: square"/>
   </g>
   <g id="line2d_58">
    <path d="M 434.2325 66.249006 
L 434.2325 47.032324 
" clip-path="url(#pada09c58ba)" style="fill: none; stroke: #22c55e; stroke-width: 1.5; stroke-linecap: square"/>
   </g>
   <g id="line2d_59">
    <path d="M 448.6325 69.838761 
L 448.6325 45.635722 
" clip-path="url(#pada09c58ba)" style="fill: none; stroke: #ef4444; stroke-width: 1.5; stroke-linecap: square"/>
   </g>
   <g id="line2d_60">
    <path d="M 463.0325 77.489274 
L 463.0325 58.121137 
" clip-path="url(#pada09c58ba)" style="fill: none; stroke: #ef4444; stroke-width: 1.5; stroke-linecap: square"/>
   </g>
   <g id="patch_33">
    <path d="M 31.0325 193.58154 
L 31.0325 31.318125 
" style="fill: none; stroke: #1f2937; stroke-width: 0.8; stroke-linejoin: miter; stroke-linecap: square"/>
   </g>
   <g id="patch_34">
    <path d="M 31.0325 193.58154 
L 477.4325 193.58154 
" style="fill: none; stroke: #1f2937; stroke-width: 0.8; stroke-linejoin: miter; stroke-linecap: square"/>
   </g>
   <g id="text_9">
    <!-- Hanging Man — AMD 15m -->
    <g style="fill: #ffffff" transform="translate(167.130313 16.318125) scale(0.12 -0.12)">
     <defs>
      <path id="DejaVuSans-Bold-48" d="M 588 4666 
L 1791 4666 
L 1791 2888 
L 3566 2888 
L 3566 4666 
L 4769 4666 
L 4769 0 
L 3566 0 
L 3566 1978 
L 1791 1978 
L 1791 0 
L 588 0 
L 588 4666 
z
" transform="scale(0.015625)"/>
      <path id="DejaVuSans-Bold-61" d="M 2106 1575 
Q 1756 1575 1579 1456 
Q 1403 1338 1403 1106 
Q 1403 894 1545 773 
Q 1688 653 1941 653 
Q 2256 653 2472 879 
Q 2688 1106 2688 1447 
L 2688 1575 
L 2106 1575 
z
M 3816 1997 
L 3816 0 
L 2688 0 
L 2688 519 
Q 2463 200 2181 54 
Q 1900 -91 1497 -91 
Q 953 -91 614 226 
Q 275 544 275 1050 
Q 275 1666 698 1953 
Q 1122 2241 2028 2241 
L 2688 2241 
L 2688 2328 
Q 2688 2594 2478 2717 
Q 2269 2841 1825 2841 
Q 1466 2841 1156 2769 
Q 847 2697 581 2553 
L 581 3406 
Q 941 3494 1303 3539 
Q 1666 3584 2028 3584 
Q 2975 3584 3395 3211 
Q 3816 2838 3816 1997 
z
" transform="scale(0.015625)"/>
      <path id="DejaVuSans-Bold-6e" d="M 4056 2131 
L 4056 0 
L 2931 0 
L 2931 347 
L 2931 1631 
Q 2931 2084 2911 2256 
Q 2891 2428 2841 2509 
Q 2775 2619 2662 2680 
Q 2550 2741 2406 2741 
Q 2056 2741 1856 2470 
Q 1656 2200 1656 1722 
L 1656 0 
L 538 0 
L 538 3500 
L 1656 3500 
L 1656 2988 
Q 1909 3294 2193 3439 
Q 2478 3584 2822 3584 
Q 3428 3584 3742 3212 
Q 4056 2841 4056 2131 
z
" transform="scale(0.015625)"/>
      <path id="DejaVuSans-Bold-67" d="M 2919 594 
Q 2688 288 2409 144 
Q 2131 0 1766 0 
Q 1125 0 706 504 
Q 288 1009 288 1791 
Q 288 2575 706 3076 
Q 1125 3578 1766 3578 
Q 2131 3578 2409 3434 
Q 2688 3291 2919 2981 
L 2919 3500 
L 4044 3500 
L 4044 353 
Q 4044 -491 3511 -936 
Q 2978 -1381 1966 -1381 
Q 1638 -1381 1331 -1331 
Q 1025 -1281 716 -1178 
L 716 -306 
Q 1009 -475 1290 -558 
Q 1572 -641 1856 -641 
Q 2406 -641 2662 -400 
Q 2919 -159 2919 353 
L 2919 594 
z
M 2181 2772 
Q 1834 2772 1640 2515 
Q 1447 2259 1447 1791 
Q 1447 1309 1634 1061 
Q 1822 813 2181 813 
Q 2531 813 2725 1069 
Q 2919 1325 2919 1791 
Q 2919 2259 2725 2515 
Q 2531 2772 2181 2772 
z
" transform="scale(0.015625)"/>
      <path id="DejaVuSans-Bold-69" d="M 538 3500 
L 1656 3500 
L 1656 0 
L 538 0 
L 538 3500 
z
M 538 4863 
L 1656 4863 
L 1656 3950 
L 538 3950 
L 538 4863 
z
" transform="scale(0.015625)"/>
      <path id="DejaVuSans-Bold-20" transform="scale(0.015625)"/>
      <path id="DejaVuSans-Bold-4d" d="M 588 4666 
L 2119 4666 
L 3181 2169 
L 4250 4666 
L 5778 4666 
L 5778 0 
L 4641 0 
L 4641 3413 
L 3566 897 
L 2803 897 
L 1728 3413 
L 1728 0 
L 588 0 
L 588 4666 
z
" transform="scale(0.015625)"/>
      <path id="DejaVuSans-Bold-2014" d="M 344 2156 
L 6056 2156 
L 6056 1350 
L 344 1350 
L 344 2156 
z
" transform="scale(0.015625)"/>
      <path id="DejaVuSans-Bold-41" d="M 3419 850 
L 1538 850 
L 1241 0 
L 31 0 
L 1759 4666 
L 3194 4666 
L 4922 0 
L 3713 0 
L 3419 850 
z
M 1838 1716 
L 3116 1716 
L 2478 3572 
L 1838 1716 
z
" transform="scale(0.015625)"/>
      <path id="DejaVuSans-Bold-44" d="M 1791 3756 
L 1791 909 
L 2222 909 
Q 2959 909 3348 1275 
Q 3738 1641 3738 2338 
Q 3738 3031 3350 3393 
Q 2963 3756 2222 3756 
L 1791 3756 
z
M 588 4666 
L 1856 4666 
Q 2919 4666 3439 4514 
Q 3959 4363 4331 4000 
Q 4659 3684 4818 3271 
Q 4978 2859 4978 2338 
Q 4978 1809 4818 1395 
Q 4659 981 4331 666 
Q 3956 303 3431 151 
Q 2906 0 1856 0 
L 588 0 
L 588 4666 
z
" transform="scale(0.015625)"/>
      <path id="DejaVuSans-Bold-31" d="M 750 831 
L 1813 831 
L 1813 3847 
L 722 3622 
L 722 4441 
L 1806 4666 
L 2950 4666 
L 2950 831 
L 4013 831 
L 4013 0 
L 750 0 
L 750 831 
z
" transform="scale(0.015625)"/>
      <path id="DejaVuSans-Bold-35" d="M 678 4666 
L 3669 4666 
L 3669 3781 
L 1638 3781 
L 1638 3059 
Q 1775 3097 1914 3117 
Q 2053 3138 2203 3138 
Q 3056 3138 3531 2711 
Q 4006 2284 4006 1522 
Q 4006 766 3489 337 
Q 2972 -91 2053 -91 
Q 1656 -91 1267 -14 
Q 878 63 494 219 
L 494 1166 
Q 875 947 1217 837 
Q 1559 728 1863 728 
Q 2300 728 2551 942 
Q 2803 1156 2803 1522 
Q 2803 1891 2551 2103 
Q 2300 2316 1863 2316 
Q 1603 2316 1309 2248 
Q 1016 2181 678 2041 
L 678 4666 
z
" transform="scale(0.015625)"/>
      <path id="DejaVuSans-Bold-6d" d="M 3781 2919 
Q 3994 3244 4286 3414 
Q 4578 3584 4928 3584 
Q 5531 3584 5847 3212 
Q 6163 2841 6163 2131 
L 6163 0 
L 5038 0 
L 5038 1825 
Q 5041 1866 5042 1909 
Q 5044 1953 5044 2034 
Q 5044 2406 4934 2573 
Q 4825 2741 4581 2741 
Q 4263 2741 4089 2478 
Q 3916 2216 3909 1719 
L 3909 0 
L 2784 0 
L 2784 1825 
Q 2784 2406 2684 2573 
Q 2584 2741 2328 2741 
Q 2006 2741 1831 2477 
Q 1656 2213 1656 1722 
L 1656 0 
L 531 0 
L 531 3500 
L 1656 3500 
L 1656 2988 
Q 1863 3284 2130 3434 
Q 2397 3584 2719 3584 
Q 3081 3584 3359 3409 
Q 3638 3234 3781 2919 
z
" transform="scale(0.015625)"/>
     </defs>
     <use xlink:href="#DejaVuSans-Bold-48"/>
     <use xlink:href="#DejaVuSans-Bold-61" transform="translate(83.691406 0)"/>
     <use xlink:href="#DejaVuSans-Bold-6e" transform="translate(151.171875 0)"/>
     <use xlink:href="#DejaVuSans-Bold-67" transform="translate(222.363281 0)"/>
     <use xlink:href="#DejaVuSans-Bold-69" transform="translate(293.945312 0)"/>
     <use xlink:href="#DejaVuSans-Bold-6e" transform="translate(328.222656 0)"/>
     <use xlink:href="#DejaVuSans-Bold-67" transform="translate(399.414062 0)"/>
     <use xlink:href="#DejaVuSans-Bold-20" transform="translate(470.996094 0)"/>
     <use xlink:href="#DejaVuSans-Bold-4d" transform="translate(505.810547 0)"/>
     <use xlink:href="#DejaVuSans-Bold-61" transform="translate(605.322266 0)"/>
     <use xlink:href="#DejaVuSans-Bold-6e" transform="translate(672.802734 0)"/>
     <use xlink:href="#DejaVuSans-Bold-20" transform="translate(743.994141 0)"/>
     <use xlink:href="#DejaVuSans-Bold-2014" transform="translate(778.808594 0)"/>
     <use xlink:href="#DejaVuSans-Bold-20" transform="translate(878.808594 0)"/>
     <use xlink:href="#DejaVuSans-Bold-41" transform="translate(913.623047 0)"/>
     <use xlink:href="#DejaVuSans-Bold-4d" transform="translate(991.015625 0)"/>
     <use xlink:href="#DejaVuSans-Bold-44" transform="translate(1090.527344 0)"/>
     <use xlink:href="#DejaVuSans-Bold-20" transform="translate(1173.535156 0)"/>
     <use xlink:href="#DejaVuSans-Bold-31" transform="translate(1208.349609 0)"/>
     <use xlink:href="#DejaVuSans-Bold-35" transform="translate(1277.929688 0)"/>
     <use xlink:href="#DejaVuSans-Bold-6d" transform="translate(1347.509766 0)"/>
    </g>
   </g>
  </g>
  <g id="axes_2">
   <g id="patch_35">
    <path d="M 31.0325 253.078125 
L 477.4325 253.078125 
L 477.4325 198.99032 
L 31.0325 198.99032 
z
" style="fill: #0a0f1a"/>
   </g>
   <g id="patch_36">
    <path d="M 51.323409 253.078125 
L 60.888147 253.078125 
L 60.888147 203.334841 
L 51.323409 203.334841 
z
" clip-path="url(#p926655479a)" style="fill: #22c55e; fill-opacity: 0.266667"/>
   </g>
   <g id="patch_37">
    <path d="M 64.987321 253.078125 
L 74.552059 253.078125 
L 74.552059 228.603837 
L 64.987321 228.603837 
z
" clip-path="url(#p926655479a)" style="fill: #22c55e; fill-opacity: 0.266667"/>
   </g>
   <g id="patch_38">
    <path d="M 78.651233 253.078125 
L 88.215971 253.078125 
L 88.215971 216.114181 
L 78.651233 216.114181 
z
" clip-path="url(#p926655479a)" style="fill: #22c55e; fill-opacity: 0.266667"/>
   </g>
   <g id="patch_39">
    <path d="M 92.315145 253.078125 
L 101.879883 253.078125 
L 101.879883 240.353507 
L 92.315145 240.353507 
z
" clip-path="url(#p926655479a)" style="fill: #22c55e; fill-opacity: 0.266667"/>
   </g>
   <g id="patch_40">
    <path d="M 105.979056 253.078125 
L 115.543795 253.078125 
L 115.543795 205.384616 
L 105.979056 205.384616 
z
" clip-path="url(#p926655479a)" style="fill: #ef4444; fill-opacity: 0.266667"/>
   </g>
   <g id="patch_41">
    <path d="M 119.642968 253.078125 
L 129.207707 253.078125 
L 129.207707 229.43245 
L 119.642968 229.43245 
z
" clip-path="url(#p926655479a)" style="fill: #22c55e; fill-opacity: 0.266667"/>
   </g>
   <g id="patch_42">
    <path d="M 133.30688 253.078125 
L 142.871618 253.078125 
L 142.871618 207.921381 
L 133.30688 207.921381 
z
" clip-path="url(#p926655479a)" style="fill: #22c55e; fill-opacity: 0.266667"/>
   </g>
   <g id="patch_43">
    <path d="M 146.970792 253.078125 
L 156.53553 253.078125 
L 156.53553 227.087124 
L 146.970792 227.087124 
z
" clip-path="url(#p926655479a)" style="fill: #22c55e; fill-opacity: 0.266667"/>
   </g>
   <g id="patch_44">
    <path d="M 160.634704 253.078125 
L 170.199442 253.078125 
L 170.199442 202.866846 
L 160.634704 202.866846 
z
" clip-path="url(#p926655479a)" style="fill: #22c55e; fill-opacity: 0.266667"/>
   </g>
   <g id="patch_45">
    <path d="M 174.298616 253.078125 
L 183.863354 253.078125 
L 183.863354 208.383787 
L 174.298616 208.383787 
z
" clip-path="url(#p926655479a)" style="fill: #22c55e; fill-opacity: 0.266667"/>
   </g>
   <g id="patch_46">
    <path d="M 187.962528 253.078125 
L 197.527266 253.078125 
L 197.527266 224.292189 
L 187.962528 224.292189 
z
" clip-path="url(#p926655479a)" style="fill: #22c55e; fill-opacity: 0.266667"/>
   </g>
   <g id="patch_47">
    <path d="M 201.626439 253.078125 
L 211.191178 253.078125 
L 211.191178 228.96965 
L 201.626439 228.96965 
z
" clip-path="url(#p926655479a)" style="fill: #ef4444; fill-opacity: 0.266667"/>
   </g>
   <g id="patch_48">
    <path d="M 215.290351 253.078125 
L 224.85509 253.078125 
L 224.85509 235.255757 
L 215.290351 235.255757 
z
" clip-path="url(#p926655479a)" style="fill: #22c55e; fill-opacity: 0.266667"/>
   </g>
   <g id="patch_49">
    <path d="M 228.954263 253.078125 
L 238.519001 253.078125 
L 238.519001 210.040672 
L 228.954263 210.040672 
z
" clip-path="url(#p926655479a)" style="fill: #ef4444; fill-opacity: 0.266667"/>
   </g>
   <g id="patch_50">
    <path d="M 242.618175 253.078125 
L 252.182913 253.078125 
L 252.182913 241.163125 
L 242.618175 241.163125 
z
" clip-path="url(#p926655479a)" style="fill: #ef4444; fill-opacity: 0.266667"/>
   </g>
   <g id="patch_51">
    <path d="M 256.282087 253.078125 
L 265.846825 253.078125 
L 265.846825 224.696022 
L 256.282087 224.696022 
z
" clip-path="url(#p926655479a)" style="fill: #ef4444; fill-opacity: 0.266667"/>
   </g>
   <g id="patch_52">
    <path d="M 269.945999 253.078125 
L 279.510737 253.078125 
L 279.510737 239.317266 
L 269.945999 239.317266 
z
" clip-path="url(#p926655479a)" style="fill: #22c55e; fill-opacity: 0.266667"/>
   </g>
   <g id="patch_53">
    <path d="M 283.60991 253.078125 
L 293.174649 253.078125 
L 293.174649 242.22476 
L 283.60991 242.22476 
z
" clip-path="url(#p926655479a)" style="fill: #ef4444; fill-opacity: 0.266667"/>
   </g>
   <g id="patch_54">
    <path d="M 297.273822 253.078125 
L 306.838561 253.078125 
L 306.838561 226.806632 
L 297.273822 226.806632 
z
" clip-path="url(#p926655479a)" style="fill: #22c55e; fill-opacity: 0.266667"/>
   </g>
   <g id="patch_55">
    <path d="M 310.937734 253.078125 
L 320.502472 253.078125 
L 320.502472 207.61876 
L 310.937734 207.61876 
z
" clip-path="url(#p926655479a)" style="fill: #ef4444; fill-opacity: 0.266667"/>
   </g>
   <g id="patch_56">
    <path d="M 324.601646 253.078125 
L 334.166384 253.078125 
L 334.166384 218.4326 
L 324.601646 218.4326 
z
" clip-path="url(#p926655479a)" style="fill: #ef4444; fill-opacity: 0.266667"/>
   </g>
   <g id="patch_57">
    <path d="M 338.265558 253.078125 
L 347.830296 253.078125 
L 347.830296 223.675406 
L 338.265558 223.675406 
z
" clip-path="url(#p926655479a)" style="fill: #ef4444; fill-opacity: 0.266667"/>
   </g>
   <g id="patch_58">
    <path d="M 351.92947 253.078125 
L 361.494208 253.078125 
L 361.494208 237.417569 
L 351.92947 237.417569 
z
" clip-path="url(#p926655479a)" style="fill: #ef4444; fill-opacity: 0.266667"/>
   </g>
   <g id="patch_59">
    <path d="M 365.593382 253.078125 
L 375.15812 253.078125 
L 375.15812 209.103531 
L 365.593382 209.103531 
z
" clip-path="url(#p926655479a)" style="fill: #ef4444; fill-opacity: 0.266667"/>
   </g>
   <g id="patch_60">
    <path d="M 379.257293 253.078125 
L 388.822032 253.078125 
L 388.822032 208.810775 
L 379.257293 208.810775 
z
" clip-path="url(#p926655479a)" style="fill: #22c55e; fill-opacity: 0.266667"/>
   </g>
   <g id="patch_61">
    <path d="M 392.921205 253.078125 
L 402.485944 253.078125 
L 402.485944 211.613516 
L 392.921205 211.613516 
z
" clip-path="url(#p926655479a)" style="fill: #22c55e; fill-opacity: 0.266667"/>
   </g>
   <g id="patch_62">
    <path d="M 406.585117 253.078125 
L 416.149855 253.078125 
L 416.149855 219.33028 
L 406.585117 219.33028 
z
" clip-path="url(#p926655479a)" style="fill: #22c55e; fill-opacity: 0.266667"/>
   </g>
   <g id="patch_63">
    <path d="M 420.249029 253.078125 
L 429.813767 253.078125 
L 429.813767 211.681805 
L 420.249029 211.681805 
z
" clip-path="url(#p926655479a)" style="fill: #22c55e; fill-opacity: 0.266667"/>
   </g>
   <g id="patch_64">
    <path d="M 433.912941 253.078125 
L 443.477679 253.078125 
L 443.477679 201.56593 
L 433.912941 201.56593 
z
" clip-path="url(#p926655479a)" style="fill: #ef4444; fill-opacity: 0.266667"/>
   </g>
   <g id="patch_65">
    <path d="M 447.576853 253.078125 
L 457.141591 253.078125 
L 457.141591 205.982096 
L 447.576853 205.982096 
z
" clip-path="url(#p926655479a)" style="fill: #ef4444; fill-opacity: 0.266667"/>
   </g>
   <g id="matplotlib.axis_3">
    <g id="xtick_8">
     <g id="line2d_61">
      <path d="M 56.105778 253.078125 
L 56.105778 198.99032 
" clip-path="url(#p926655479a)" style="fill: none; stroke-dasharray: 2.96,1.28; stroke-dashoffset: 0; stroke: #374151; stroke-opacity: 0.1; stroke-width: 0.8"/>
     </g>
     <g id="line2d_62">
      <g>
       <use xlink:href="#md093d93ef5" x="56.105778" y="253.078125" style="fill: #9ca3af; stroke: #9ca3af; stroke-width: 0.8"/>
      </g>
     </g>
     <g id="text_10">
      <!-- 0 -->
      <g style="fill: #9ca3af" transform="translate(53.560778 266.156875) scale(0.08 -0.08)">
       <use xlink:href="#DejaVuSans-30"/>
      </g>
     </g>
    </g>
    <g id="xtick_9">
     <g id="line2d_63">
      <path d="M 124.425337 253.078125 
L 124.425337 198.99032 
" clip-path="url(#p926655479a)" style="fill: none; stroke-dasharray: 2.96,1.28; stroke-dashoffset: 0; stroke: #374151; stroke-opacity: 0.1; stroke-width: 0.8"/>
     </g>
     <g id="line2d_64">
      <g>
       <use xlink:href="#md093d93ef5" x="124.425337" y="253.078125" style="fill: #9ca3af; stroke: #9ca3af; stroke-width: 0.8"/>
      </g>
     </g>
     <g id="text_11">
      <!-- 5 -->
      <g style="fill: #9ca3af" transform="translate(121.880337 266.156875) scale(0.08 -0.08)">
       <defs>
        <path id="DejaVuSans-35" d="M 691 4666 
L 3169 4666 
L 3169 4134 
L 1269 4134 
L 1269 2991 
Q 1406 3038 1543 3061 
Q 1681 3084 1819 3084 
Q 2600 3084 3056 2656 
Q 3513 2228 3513 1497 
Q 3513 744 3044 326 
Q 2575 -91 1722 -91 
Q 1428 -91 1123 -41 
Q 819 9 494 109 
L 494 744 
Q 775 591 1075 516 
Q 1375 441 1709 441 
Q 2250 441 2565 725 
Q 2881 1009 2881 1497 
Q 2881 1984 2565 2268 
Q 2250 2553 1709 2553 
Q 1456 2553 1204 2497 
Q 953 2441 691 2322 
L 691 4666 
z
" transform="scale(0.015625)"/>
       </defs>
       <use xlink:href="#DejaVuSans-35"/>
      </g>
     </g>
    </g>
    <g id="xtick_10">
     <g id="line2d_65">
      <path d="M 192.744897 253.078125 
L 192.744897 198.99032 
" clip-path="url(#p926655479a)" style="fill: none; stroke-dasharray: 2.96,1.28; stroke-dashoffset: 0; stroke: #374151; stroke-opacity: 0.1; stroke-width: 0.8"/>
     </g>
     <g id="line2d_66">
      <g>
       <use xlink:href="#md093d93ef5" x="192.744897" y="253.078125" style="fill: #9ca3af; stroke: #9ca3af; stroke-width: 0.8"/>
      </g>
     </g>
     <g id="text_12">
      <!-- 10 -->
      <g style="fill: #9ca3af" transform="translate(187.654897 266.156875) scale(0.08 -0.08)">
       <use xlink:href="#DejaVuSans-31"/>
       <use xlink:href="#DejaVuSans-30" transform="translate(63.623047 0)"/>
      </g>
     </g>
    </g>
    <g id="xtick_11">
     <g id="line2d_67">
      <path d="M 261.064456 253.078125 
L 261.064456 198.99032 
" clip-path="url(#p926655479a)" style="fill: none; stroke-dasharray: 2.96,1.28; stroke-dashoffset: 0; stroke: #374151; stroke-opacity: 0.1; stroke-width: 0.8"/>
     </g>
     <g id="line2d_68">
      <g>
       <use xlink:href="#md093d93ef5" x="261.064456" y="253.078125" style="fill: #9ca3af; stroke: #9ca3af; stroke-width: 0.8"/>
      </g>
     </g>
     <g id="text_13">
      <!-- 15 -->
      <g style="fill: #9ca3af" transform="translate(255.974456 266.156875) scale(0.08 -0.08)">
       <use xlink:href="#DejaVuSans-31"/>
       <use xlink:href="#DejaVuSans-35" transform="translate(63.623047 0)"/>
      </g>
     </g>
    </g>
    <g id="xtick_12">
     <g id="line2d_69">
      <path d="M 329.384015 253.078125 
L 329.384015 198.99032 
" clip-path="url(#p926655479a)" style="fill: none; stroke-dasharray: 2.96,1.28; stroke-dashoffset: 0; stroke: #374151; stroke-opacity: 0.1; stroke-width: 0.8"/>
     </g>
     <g id="line2d_70">
      <g>
       <use xlink:href="#md093d93ef5" x="329.384015" y="253.078125" style="fill: #9ca3af; stroke: #9ca3af; stroke-width: 0.8"/>
      </g>
     </g>
     <g id="text_14">
      <!-- 20 -->
      <g style="fill: #9ca3af" transform="translate(324.294015 266.156875) scale(0.08 -0.08)">
       <use xlink:href="#DejaVuSans-32"/>
       <use xlink:href="#DejaVuSans-30" transform="translate(63.623047 0)"/>
      </g>
     </g>
    </g>
    <g id="xtick_13">
     <g id="line2d_71">
      <path d="M 397.703574 253.078125 
L 397.703574 198.99032 
" clip-path="url(#p926655479a)" style="fill: none; stroke-dasharray: 2.96,1.28; stroke-dashoffset: 0; stroke: #374151; stroke-opacity: 0.1; stroke-width: 0.8"/>
     </g>
     <g id="line2d_72">
      <g>
       <use xlink:href="#md093d93ef5" x="397.703574" y="253.078125" style="fill: #9ca3af; stroke: #9ca3af; stroke-width: 0.8"/>
      </g>
     </g>
     <g id="text_15">
      <!-- 25 -->
      <g style="fill: #9ca3af" transform="translate(392.613574 266.156875) scale(0.08 -0.08)">
       <use xlink:href="#DejaVuSans-32"/>
       <use xlink:href="#DejaVuSans-35" transform="translate(63.623047 0)"/>
      </g>
     </g>
    </g>
    <g id="xtick_14">
     <g id="line2d_73">
      <path d="M 466.023134 253.078125 
L 466.023134 198.99032 
" clip-path="url(#p926655479a)" style="fill: none; stroke-dasharray: 2.96,1.28; stroke-dashoffset: 0; stroke: #374151; stroke-opacity: 0.1; stroke-width: 0.8"/>
     </g>
     <g id="line2d_74">
      <g>
       <use xlink:href="#md093d93ef5" x="466.023134" y="253.078125" style="fill: #9ca3af; stroke: #9ca3af; stroke-width: 0.8"/>
      </g>
     </g>
     <g id="text_16">
      <!-- 30 -->
      <g style="fill: #9ca3af" transform="translate(460.933134 266.156875) scale(0.08 -0.08)">
       <defs>
        <path id="DejaVuSans-33" d="M 2597 2516 
Q 3050 2419 3304 2112 
Q 3559 1806 3559 1356 
Q 3559 666 3084 287 
Q 2609 -91 1734 -91 
Q 1441 -91 1130 -33 
Q 819 25 488 141 
L 488 750 
Q 750 597 1062 519 
Q 1375 441 1716 441 
Q 2309 441 2620 675 
Q 2931 909 2931 1356 
Q 2931 1769 2642 2001 
Q 2353 2234 1838 2234 
L 1294 2234 
L 1294 2753 
L 1863 2753 
Q 2328 2753 2575 2939 
Q 2822 3125 2822 3475 
Q 2822 3834 2567 4026 
Q 2313 4219 1838 4219 
Q 1578 4219 1281 4162 
Q 984 4106 628 3988 
L 628 4550 
Q 988 4650 1302 4700 
Q 1616 4750 1894 4750 
Q 2613 4750 3031 4423 
Q 3450 4097 3450 3541 
Q 3450 3153 3228 2886 
Q 3006 2619 2597 2516 
z
" transform="scale(0.015625)"/>
       </defs>
       <use xlink:href="#DejaVuSans-33"/>
       <use xlink:href="#DejaVuSans-30" transform="translate(63.623047 0)"/>
      </g>
     </g>
    </g>
   </g>
   <g id="matplotlib.axis_4">
    <g id="ytick_9">
     <g id="line2d_75">
      <path d="M 31.0325 253.078125 
L 477.4325 253.078125 
" clip-path="url(#p926655479a)" style="fill: none; stroke-dasharray: 2.96,1.28; stroke-dashoffset: 0; stroke: #374151; stroke-opacity: 0.1; stroke-width: 0.8"/>
     </g>
     <g id="line2d_76">
      <g>
       <use xlink:href="#mdcb642127d" x="31.0325" y="253.078125" style="fill: #9ca3af; stroke: #9ca3af; stroke-width: 0.8"/>
      </g>
     </g>
     <g id="text_17">
      <!-- 0 -->
      <g style="fill: #9ca3af" transform="translate(18.9425 256.1175) scale(0.08 -0.08)">
       <use xlink:href="#DejaVuSans-30"/>
      </g>
     </g>
    </g>
    <g id="ytick_10">
     <g id="line2d_77">
      <path d="M 31.0325 231.747957 
L 477.4325 231.747957 
" clip-path="url(#p926655479a)" style="fill: none; stroke-dasharray: 2.96,1.28; stroke-dashoffset: 0; stroke: #374151; stroke-opacity: 0.1; stroke-width: 0.8"/>
     </g>
     <g id="line2d_78">
      <g>
       <use xlink:href="#mdcb642127d" x="31.0325" y="231.747957" style="fill: #9ca3af; stroke: #9ca3af; stroke-width: 0.8"/>
      </g>
     </g>
     <g id="text_18">
      <!-- 2 -->
      <g style="fill: #9ca3af" transform="translate(18.9425 234.787332) scale(0.08 -0.08)">
       <use xlink:href="#DejaVuSans-32"/>
      </g>
     </g>
    </g>
    <g id="ytick_11">
     <g id="line2d_79">
      <path d="M 31.0325 210.41779 
L 477.4325 210.41779 
" clip-path="url(#p926655479a)" style="fill: none; stroke-dasharray: 2.96,1.28; stroke-dashoffset: 0; stroke: #374151; stroke-opacity: 0.1; stroke-width: 0.8"/>
     </g>
     <g id="line2d_80">
      <g>
       <use xlink:href="#mdcb642127d" x="31.0325" y="210.41779" style="fill: #9ca3af; stroke: #9ca3af; stroke-width: 0.8"/>
      </g>
     </g>
     <g id="text_19">
      <!-- 4 -->
      <g style="fill: #9ca3af" transform="translate(18.9425 213.457165) scale(0.08 -0.08)">
       <use xlink:href="#DejaVuSans-34"/>
      </g>
     </g>
    </g>
    <g id="text_20">
     <!-- Vol -->
     <g style="fill: #9ca3af" transform="translate(13.27875 232.019223) rotate(-90) scale(0.08 -0.08)">
      <defs>
       <path id="DejaVuSans-56" d="M 1831 0 
L 50 4666 
L 709 4666 
L 2188 738 
L 3669 4666 
L 4325 4666 
L 2547 0 
L 1831 0 
z
" transform="scale(0.015625)"/>
       <path id="DejaVuSans-6f" d="M 1959 3097 
Q 1497 3097 1228 2736 
Q 959 2375 959 1747 
Q 959 1119 1226 758 
Q 1494 397 1959 397 
Q 2419 397 2687 759 
Q 2956 1122 2956 1747 
Q 2956 2369 2687 2733 
Q 2419 3097 1959 3097 
z
M 1959 3584 
Q 2709 3584 3137 3096 
Q 3566 2609 3566 1747 
Q 3566 888 3137 398 
Q 2709 -91 1959 -91 
Q 1206 -91 779 398 
Q 353 888 353 1747 
Q 353 2609 779 3096 
Q 1206 3584 1959 3584 
z
" transform="scale(0.015625)"/>
       <path id="DejaVuSans-6c" d="M 603 4863 
L 1178 4863 
L 1178 0 
L 603 0 
L 603 4863 
z
" transform="scale(0.015625)"/>
      </defs>
      <use xlink:href="#DejaVuSans-56"/>
      <use xlink:href="#DejaVuSans-6f" transform="translate(60.658203 0)"/>
      <use xlink:href="#DejaVuSans-6c" transform="translate(121.839844 0)"/>
     </g>
    </g>
    <g id="text_21">
     <!-- 1e6 -->
     <g style="fill: #9ca3af" transform="translate(31.0325 195.99032) scale(0.1 -0.1)">
      <defs>
       <path id="DejaVuSans-65" d="M 3597 1894 
L 3597 1613 
L 953 1613 
Q 991 1019 1311 708 
Q 1631 397 2203 397 
Q 2534 397 2845 478 
Q 3156 559 3463 722 
L 3463 178 
Q 3153 47 2828 -22 
Q 2503 -91 2169 -91 
Q 1331 -91 842 396 
Q 353 884 353 1716 
Q 353 2575 817 3079 
Q 1281 3584 2069 3584 
Q 2775 3584 3186 3129 
Q 3597 2675 3597 1894 
z
M 3022 2063 
Q 3016 2534 2758 2815 
Q 2500 3097 2075 3097 
Q 1594 3097 1305 2825 
Q 1016 2553 972 2059 
L 3022 2063 
z
" transform="scale(0.015625)"/>
      </defs>
      <use xlink:href="#DejaVuSans-31"/>
      <use xlink:href="#DejaVuSans-65" transform="translate(63.623047 0)"/>
      <use xlink:href="#DejaVuSans-36" transform="translate(125.146484 0)"/>
     </g>
    </g>
   </g>
   <g id="patch_66">
    <path d="M 31.0325 253.078125 
L 31.0325 198.99032 
" style="fill: none; stroke: #1f2937; stroke-width: 0.8; stroke-linejoin: miter; stroke-linecap: square"/>
   </g>
   <g id="patch_67">
    <path d="M 31.0325 253.078125 
L 477.4325 253.078125 
" style="fill: none; stroke: #1f2937; stroke-width: 0.8; stroke-linejoin: miter; stroke-linecap: square"/>
   </g>
  </g>
 </g>
 <defs>
  <clipPath id="pada09c58ba">
   <rect x="31.0325" y="31.318125" width="446.4" height="162.263415"/>
  </clipPath>
  <clipPath id="p926655479a">
   <rect x="31.0325" y="198.99032" width="446.4" height="54.087805"/>
  </clipPath>
 </defs>
</svg>
