<?xml version="1.0" encoding="utf-8" standalone="no"?>
<!DOCTYPE svg PUBLIC "-//W3C//DTD SVG 1.1//EN"
  "http://www.w3.org/Graphics/SVG/1.1/DTD/svg11.dtd">
<svg xmlns:xlink="http://www.w3.org/1999/xlink" width="490.7025pt" height="275.020625pt" viewBox="0 0 490.7025 275.020625" xmlns="http://www.w3.org/2000/svg" version="1.1">
 <metadata>
  <rdf:RDF xmlns:dc="http://purl.org/dc/elements/1.1/" xmlns:cc="http://creativecommons.org/ns#" xmlns:rdf="http://www.w3.org/1999/02/22-rdf-syntax-ns#">
   <cc:Work>
    <dc:type rdf:resource="http://purl.org/dc/dcmitype/StillImage"/>
    <dc:date>2026-02-16T09:12:35.233027</dc:date>
    <dc:format>image/svg+xml</dc:format>
    <dc:creator>
     <cc:Agent>
      <dc:title>Matplotlib v3.10.8, https://matplotlib.org/</dc:title>
     </cc:Agent>
    </dc:creator>
   </cc:Work>
  </rdf:RDF>
 </metadata>
 <defs>
  <style type="text/css">*{stroke-linejoin: round; stroke-linecap: butt}</style>
 </defs>
 <g id="figure_1">
  <g id="patch_1">
   <path d="M 0 275.020625 
L 490.7025 275.020625 
L 490.7025 0 
L 0 0 
z
" style="fill: #0a0f1a"/>
  </g>
  <g id="axes_1">
   <g id="patch_2">
    <path d="M 37.1025 193.58154 
L 483.5025 193.58154 
L 483.5025 31.318125 
L 37.1025 31.318125 
z
" style="fill: #0a0f1a"/>
   </g>
   <g id="patch_3">
    <path d="M 46.4625 147.837227 
L 56.5425 147.837227 
Q 56.8305 147.837227 56.8305 147.691859 
L 56.8305 144.057659 
Q 56.8305 143.912291 56.5425 143.912291 
L 46.4625 143.912291 
Q 46.1745 143.912291 46.1745 144.057659 
L 46.1745 147.691859 
Q 46.1745 147.837227 46.4625 147.837227 
z
" clip-path="url(#p5fba3a55c2)" style="fill: #22c55e; stroke: #22c55e; stroke-linejoin: miter"/>
   </g>
   <g id="patch_4">
    <path d="M 60.8625 144.203027 
L 70.9425 144.203027 
Q 71.2305 144.203027 71.2305 144.057659 
L 71.2305 135.11305 
Q 71.2305 134.967682 70.9425 134.967682 
L 60.8625 134.967682 
Q 60.5745 134.967682 60.5745 135.11305 
L 60.5745 144.057659 
Q 60.5745 144.203027 60.8625 144.203027 
z
" clip-path="url(#p5fba3a55c2)" style="fill: #22c55e; stroke: #22c55e; stroke-linejoin: miter"/>
   </g>
   <g id="patch_5">
    <path d="M 75.2625 135.258418 
L 85.3425 135.258418 
Q 85.6305 135.258418 85.6305 135.11305 
L 85.6305 125.734995 
Q 85.6305 125.589627 85.3425 125.589627 
L 75.2625 125.589627 
Q 74.9745 125.589627 74.9745 125.734995 
L 74.9745 135.11305 
Q 74.9745 135.258418 75.2625 135.258418 
z
" clip-path="url(#p5fba3a55c2)" style="fill: #22c55e; stroke: #22c55e; stroke-linejoin: miter"/>
   </g>
   <g id="patch_6">
    <path d="M 89.6625 125.880363 
L 99.7425 125.880363 
Q 100.0305 125.880363 100.0305 125.734995 
L 100.0305 117.628945 
Q 100.0305 117.483577 99.7425 117.483577 
L 89.6625 117.483577 
Q 89.3745 117.483577 89.3745 117.628945 
L 89.3745 125.734995 
Q 89.3745 125.880363 89.6625 125.880363 
z
" clip-path="url(#p5fba3a55c2)" style="fill: #22c55e; stroke: #22c55e; stroke-linejoin: miter"/>
   </g>
   <g id="patch_7">
    <path d="M 104.0625 117.774312 
L 114.1425 117.774312 
Q 114.4305 117.774312 114.4305 117.628945 
L 114.4305 111.569399 
Q 114.4305 111.424031 114.1425 111.424031 
L 104.0625 111.424031 
Q 103.7745 111.424031 103.7745 111.569399 
L 103.7745 117.628945 
Q 103.7745 117.774312 104.0625 117.774312 
z
" clip-path="url(#p5fba3a55c2)" style="fill: #22c55e; stroke: #22c55e; stroke-linejoin: miter"/>
   </g>
   <g id="patch_8">
    <path d="M 118.4625 111.714767 
L 128.5425 111.714767 
Q 128.8305 111.714767 128.8305 111.569399 
L 128.8305 102.429161 
Q 128.8305 102.283793 128.5425 102.283793 
L 118.4625 102.283793 
Q 118.1745 102.283793 118.1745 102.429161 
L 118.1745 111.569399 
Q 118.1745 111.714767 118.4625 111.714767 
z
" clip-path="url(#p5fba3a55c2)" style="fill: #22c55e; stroke: #22c55e; stroke-linejoin: miter"/>
   </g>
   <g id="patch_9">
    <path d="M 132.8625 102.574529 
L 142.9425 102.574529 
Q 143.2305 102.574529 143.2305 102.429161 
L 143.2305 92.399407 
Q 143.2305 92.254039 142.9425 92.254039 
L 132.8625 92.254039 
Q 132.5745 92.254039 132.5745 92.399407 
L 132.5745 102.429161 
Q 132.5745 102.574529 132.8625 102.574529 
z
" clip-path="url(#p5fba3a55c2)" style="fill: #22c55e; stroke: #22c55e; stroke-linejoin: miter"/>
   </g>
   <g id="patch_10">
    <path d="M 147.2625 100.907724 
L 157.3425 100.907724 
Q 157.6305 100.907724 157.6305 100.762356 
L 157.6305 92.399407 
Q 157.6305 92.254039 157.3425 92.254039 
L 147.2625 92.254039 
Q 146.9745 92.254039 146.9745 92.399407 
L 146.9745 100.762356 
Q 146.9745 100.907724 147.2625 100.907724 
z
" clip-path="url(#p5fba3a55c2)" style="fill: #ef4444; stroke: #ef4444; stroke-linejoin: miter"/>
   </g>
   <g id="patch_11">
    <path d="M 161.6625 106.083957 
L 171.7425 106.083957 
Q 172.0305 106.083957 172.0305 105.938589 
L 172.0305 100.762356 
Q 172.0305 100.616988 171.7425 100.616988 
L 161.6625 100.616988 
Q 161.3745 100.616988 161.3745 100.762356 
L 161.3745 105.938589 
Q 161.3745 106.083957 161.6625 106.083957 
z
" clip-path="url(#p5fba3a55c2)" style="fill: #ef4444; stroke: #ef4444; stroke-linejoin: miter"/>
   </g>
   <g id="patch_12">
    <path d="M 176.0625 111.562472 
L 186.1425 111.562472 
Q 186.4305 111.562472 186.4305 111.417104 
L 186.4305 105.938589 
Q 186.4305 105.793221 186.1425 105.793221 
L 176.0625 105.793221 
Q 175.7745 105.793221 175.7745 105.938589 
L 175.7745 111.417104 
Q 175.7745 111.562472 176.0625 111.562472 
z
" clip-path="url(#p5fba3a55c2)" style="fill: #ef4444; stroke: #ef4444; stroke-linejoin: miter"/>
   </g>
   <g id="patch_13">
    <path d="M 190.4625 118.649179 
L 200.5425 118.649179 
Q 200.8305 118.649179 200.8305 118.503811 
L 200.8305 111.417104 
Q 200.8305 111.271736 200.5425 111.271736 
L 190.4625 111.271736 
Q 190.1745 111.271736 190.1745 111.417104 
L 190.1745 118.503811 
Q 190.1745 118.649179 190.4625 118.649179 
z
" clip-path="url(#p5fba3a55c2)" style="fill: #ef4444; stroke: #ef4444; stroke-linejoin: miter"/>
   </g>
   <g id="patch_14">
    <path d="M 204.8625 118.649179 
L 214.9425 118.649179 
Q 215.2305 118.649179 215.2305 118.503811 
L 215.2305 115.239551 
Q 215.2305 115.094183 214.9425 115.094183 
L 204.8625 115.094183 
Q 204.5745 115.094183 204.5745 115.239551 
L 204.5745 118.503811 
Q 204.5745 118.649179 204.8625 118.649179 
z
" clip-path="url(#p5fba3a55c2)" style="fill: #22c55e; stroke: #22c55e; stroke-linejoin: miter"/>
   </g>
   <g id="patch_15">
    <path d="M 219.2625 115.384919 
L 229.3425 115.384919 
Q 229.6305 115.384919 229.6305 115.239551 
L 229.6305 98.10946 
Q 229.6305 97.964092 229.3425 97.964092 
L 219.2625 97.964092 
Q 218.9745 97.964092 218.9745 98.10946 
L 218.9745 115.239551 
Q 218.9745 115.384919 219.2625 115.384919 
z
" clip-path="url(#p5fba3a55c2)" style="fill: #22c55e; stroke: #22c55e; stroke-linejoin: miter"/>
   </g>
   <g id="patch_16">
    <path d="M 233.6625 98.254828 
L 243.7425 98.254828 
Q 244.0305 98.254828 244.0305 98.10946 
L 244.0305 80.975911 
Q 244.0305 80.830543 243.7425 80.830543 
L 233.6625 80.830543 
Q 233.3745 80.830543 233.3745 80.975911 
L 233.3745 98.10946 
Q 233.3745 98.254828 233.6625 98.254828 
z
" clip-path="url(#p5fba3a55c2)" style="fill: #22c55e; stroke: #22c55e; stroke-linejoin: miter"/>
   </g>
   <g id="patch_17">
    <path d="M 248.0625 81.121279 
L 258.1425 81.121279 
Q 258.4305 81.121279 258.4305 80.975911 
L 258.4305 65.85547 
Q 258.4305 65.710102 258.1425 65.710102 
L 248.0625 65.710102 
Q 247.7745 65.710102 247.7745 65.85547 
L 247.7745 80.975911 
Q 247.7745 81.121279 248.0625 81.121279 
z
" clip-path="url(#p5fba3a55c2)" style="fill: #22c55e; stroke: #22c55e; stroke-linejoin: miter"/>
   </g>
   <g id="patch_18">
    <path d="M 262.4625 66.000838 
L 272.5425 66.000838 
Q 272.8305 66.000838 272.8305 65.85547 
L 272.8305 48.909056 
Q 272.8305 48.763688 272.5425 48.763688 
L 262.4625 48.763688 
Q 262.1745 48.763688 262.1745 48.909056 
L 262.1745 65.85547 
Q 262.1745 66.000838 262.4625 66.000838 
z
" clip-path="url(#p5fba3a55c2)" style="fill: #22c55e; stroke: #22c55e; stroke-linejoin: miter"/>
   </g>
   <g id="patch_19">
    <path d="M 276.8625 65.451097 
L 286.9425 65.451097 
Q 287.2305 65.451097 287.2305 65.305729 
L 287.2305 48.909056 
Q 287.2305 48.763688 286.9425 48.763688 
L 276.8625 48.763688 
Q 276.5745 48.763688 276.5745 48.909056 
L 276.5745 65.305729 
Q 276.5745 65.451097 276.8625 65.451097 
z
" clip-path="url(#p5fba3a55c2)" style="fill: #ef4444; stroke: #ef4444; stroke-linejoin: miter"/>
   </g>
   <g id="patch_20">
    <path d="M 291.2625 81.740359 
L 301.3425 81.740359 
Q 301.6305 81.740359 301.6305 81.594991 
L 301.6305 65.305729 
Q 301.6305 65.160361 301.3425 65.160361 
L 291.2625 65.160361 
Q 290.9745 65.160361 290.9745 65.305729 
L 290.9745 81.594991 
Q 290.9745 81.740359 291.2625 81.740359 
z
" clip-path="url(#p5fba3a55c2)" style="fill: #ef4444; stroke: #ef4444; stroke-linejoin: miter"/>
   </g>
   <g id="patch_21">
    <path d="M 305.6625 96.891135 
L 315.7425 96.891135 
Q 316.0305 96.891135 316.0305 96.745767 
L 316.0305 81.594991 
Q 316.0305 81.449623 315.7425 81.449623 
L 305.6625 81.449623 
Q 305.3745 81.449623 305.3745 81.594991 
L 305.3745 96.745767 
Q 305.3745 96.891135 305.6625 96.891135 
z
" clip-path="url(#p5fba3a55c2)" style="fill: #ef4444; stroke: #ef4444; stroke-linejoin: miter"/>
   </g>
   <g id="patch_22">
    <path d="M 320.0625 114.510998 
L 330.1425 114.510998 
Q 330.4305 114.510998 330.4305 114.36563 
L 330.4305 96.745767 
Q 330.4305 96.600399 330.1425 96.600399 
L 320.0625 96.600399 
Q 319.7745 96.600399 319.7745 96.745767 
L 319.7745 114.36563 
Q 319.7745 114.510998 320.0625 114.510998 
z
" clip-path="url(#p5fba3a55c2)" style="fill: #ef4444; stroke: #ef4444; stroke-linejoin: miter"/>
   </g>
   <g id="patch_23">
    <path d="M 334.4625 120.459859 
L 344.5425 120.459859 
Q 344.8305 120.459859 344.8305 120.314491 
L 344.8305 114.36563 
Q 344.8305 114.220262 344.5425 114.220262 
L 334.4625 114.220262 
Q 334.1745 114.220262 334.1745 114.36563 
L 334.1745 120.314491 
Q 334.1745 120.459859 334.4625 120.459859 
z
" clip-path="url(#p5fba3a55c2)" style="fill: #ef4444; stroke: #ef4444; stroke-linejoin: miter"/>
   </g>
   <g id="patch_24">
    <path d="M 348.8625 120.459859 
L 358.9425 120.459859 
Q 359.2305 120.459859 359.2305 120.314491 
L 359.2305 112.421468 
Q 359.2305 112.2761 358.9425 112.2761 
L 348.8625 112.2761 
Q 348.5745 112.2761 348.5745 112.421468 
L 348.5745 120.314491 
Q 348.5745 120.459859 348.8625 120.459859 
z
" clip-path="url(#p5fba3a55c2)" style="fill: #22c55e; stroke: #22c55e; stroke-linejoin: miter"/>
   </g>
   <g id="patch_25">
    <path d="M 363.2625 112.566836 
L 373.3425 112.566836 
Q 373.6305 112.566836 373.6305 112.421468 
L 373.6305 105.298037 
Q 373.6305 105.152669 373.3425 105.152669 
L 363.2625 105.152669 
Q 362.9745 105.152669 362.9745 105.298037 
L 362.9745 112.421468 
Q 362.9745 112.566836 363.2625 112.566836 
z
" clip-path="url(#p5fba3a55c2)" style="fill: #22c55e; stroke: #22c55e; stroke-linejoin: miter"/>
   </g>
   <g id="patch_26">
    <path d="M 377.6625 105.443405 
L 387.7425 105.443405 
Q 388.0305 105.443405 388.0305 105.298037 
L 388.0305 98.614012 
Q 388.0305 98.468644 387.7425 98.468644 
L 377.6625 98.468644 
Q 377.3745 98.468644 377.3745 98.614012 
L 377.3745 105.298037 
Q 377.3745 105.443405 377.6625 105.443405 
z
" clip-path="url(#p5fba3a55c2)" style="fill: #22c55e; stroke: #22c55e; stroke-linejoin: miter"/>
   </g>
   <g id="patch_27">
    <path d="M 392.0625 98.75938 
L 402.1425 98.75938 
Q 402.4305 98.75938 402.4305 98.614012 
L 402.4305 91.876114 
Q 402.4305 91.730746 402.1425 91.730746 
L 392.0625 91.730746 
Q 391.7745 91.730746 391.7745 91.876114 
L 391.7745 98.614012 
Q 391.7745 98.75938 392.0625 98.75938 
z
" clip-path="url(#p5fba3a55c2)" style="fill: #22c55e; stroke: #22c55e; stroke-linejoin: miter"/>
   </g>
   <g id="patch_28">
    <path d="M 406.4625 111.366217 
L 416.5425 111.366217 
Q 416.8305 111.366217 416.8305 111.220849 
L 416.8305 91.876114 
Q 416.8305 91.730746 416.5425 91.730746 
L 406.4625 91.730746 
Q 406.1745 91.730746 406.1745 91.876114 
L 406.1745 111.220849 
Q 406.1745 111.366217 406.4625 111.366217 
z
" clip-path="url(#p5fba3a55c2)" style="fill: #ef4444; stroke: #ef4444; stroke-linejoin: miter"/>
   </g>
   <g id="patch_29">
    <path d="M 420.8625 128.679273 
L 430.9425 128.679273 
Q 431.2305 128.679273 431.2305 128.533905 
L 431.2305 111.220849 
Q 431.2305 111.075481 430.9425 111.075481 
L 420.8625 111.075481 
Q 420.5745 111.075481 420.5745 111.220849 
L 420.5745 128.533905 
Q 420.5745 128.679273 420.8625 128.679273 
z
" clip-path="url(#p5fba3a55c2)" style="fill: #ef4444; stroke: #ef4444; stroke-linejoin: miter"/>
   </g>
   <g id="patch_30">
    <path d="M 435.2625 146.10784 
L 445.3425 146.10784 
Q 445.6305 146.10784 445.6305 145.962472 
L 445.6305 128.533905 
Q 445.6305 128.388537 445.3425 128.388537 
L 435.2625 128.388537 
Q 434.9745 128.388537 434.9745 128.533905 
L 434.9745 145.962472 
Q 434.9745 146.10784 435.2625 146.10784 
z
" clip-path="url(#p5fba3a55c2)" style="fill: #ef4444; stroke: #ef4444; stroke-linejoin: miter"/>
   </g>
   <g id="patch_31">
    <path d="M 449.6625 161.918057 
L 459.7425 161.918057 
Q 460.0305 161.918057 460.0305 161.772689 
L 460.0305 145.962472 
Q 460.0305 145.817104 459.7425 145.817104 
L 449.6625 145.817104 
Q 449.3745 145.817104 449.3745 145.962472 
L 449.3745 161.772689 
Q 449.3745 161.918057 449.6625 161.918057 
z
" clip-path="url(#p5fba3a55c2)" style="fill: #ef4444; stroke: #ef4444; stroke-linejoin: miter"/>
   </g>
   <g id="patch_32">
    <path d="M 464.0625 179.207596 
L 474.1425 179.207596 
Q 474.4305 179.207596 474.4305 179.062228 
L 474.4305 161.772689 
Q 474.4305 161.627321 474.1425 161.627321 
L 464.0625 161.627321 
Q 463.7745 161.627321 463.7745 161.772689 
L 463.7745 179.062228 
Q 463.7745 179.207596 464.0625 179.207596 
z
" clip-path="url(#p5fba3a55c2)" style="fill: #ef4444; stroke: #ef4444; stroke-linejoin: miter"/>
   </g>
   <g id="matplotlib.axis_1">
    <g id="xtick_1">
     <g id="line2d_1">
      <path d="M 51.5025 193.58154 
L 51.5025 31.318125 
" clip-path="url(#p5fba3a55c2)" style="fill: none; stroke-dasharray: 2.96,1.28; stroke-dashoffset: 0; stroke: #374151; stroke-opacity: 0.1; stroke-width: 0.8"/>
     </g>
     <g id="line2d_2">
      <defs>
       <path id="m9ccd3733cf" d="M 0 0 
L 0 3.5 
" style="stroke: #9ca3af; stroke-width: 0.8"/>
      </defs>
      <g>
       <use xlink:href="#m9ccd3733cf" x="51.5025" y="193.58154" style="fill: #9ca3af; stroke: #9ca3af; stroke-width: 0.8"/>
      </g>
     </g>
    </g>
    <g id="xtick_2">
     <g id="line2d_3">
      <path d="M 123.5025 193.58154 
L 123.5025 31.318125 
" clip-path="url(#p5fba3a55c2)" style="fill: none; stroke-dasharray: 2.96,1.28; stroke-dashoffset: 0; stroke: #374151; stroke-opacity: 0.1; stroke-width: 0.8"/>
     </g>
     <g id="line2d_4">
      <g>
       <use xlink:href="#m9ccd3733cf" x="123.5025" y="193.58154" style="fill: #9ca3af; stroke: #9ca3af; stroke-width: 0.8"/>
      </g>
     </g>
    </g>
    <g id="xtick_3">
     <g id="line2d_5">
      <path d="M 195.5025 193.58154 
L 195.5025 31.318125 
" clip-path="url(#p5fba3a55c2)" style="fill: none; stroke-dasharray: 2.96,1.28; stroke-dashoffset: 0; stroke: #374151; stroke-opacity: 0.1; stroke-width: 0.8"/>
     </g>
     <g id="line2d_6">
      <g>
       <use xlink:href="#m9ccd3733cf" x="195.5025" y="193.58154" style="fill: #9ca3af; stroke: #9ca3af; stroke-width: 0.8"/>
      </g>
     </g>
    </g>
    <g id="xtick_4">
     <g id="line2d_7">
      <path d="M 267.5025 193.58154 
L 267.5025 31.318125 
" clip-path="url(#p5fba3a55c2)" style="fill: none; stroke-dasharray: 2.96,1.28; stroke-dashoffset: 0; stroke: #374151; stroke-opacity: 0.1; stroke-width: 0.8"/>
     </g>
     <g id="line2d_8">
      <g>
       <use xlink:href="#m9ccd3733cf" x="267.5025" y="193.58154" style="fill: #9ca3af; stroke: #9ca3af; stroke-width: 0.8"/>
      </g>
     </g>
    </g>
    <g id="xtick_5">
     <g id="line2d_9">
      <path d="M 339.5025 193.58154 
L 339.5025 31.318125 
" clip-path="url(#p5fba3a55c2)" style="fill: none; stroke-dasharray: 2.96,1.28; stroke-dashoffset: 0; stroke: #374151; stroke-opacity: 0.1; stroke-width: 0.8"/>
     </g>
     <g id="line2d_10">
      <g>
       <use xlink:href="#m9ccd3733cf" x="339.5025" y="193.58154" style="fill: #9ca3af; stroke: #9ca3af; stroke-width: 0.8"/>
      </g>
     </g>
    </g>
    <g id="xtick_6">
     <g id="line2d_11">
      <path d="M 411.5025 193.58154 
L 411.5025 31.318125 
" clip-path="url(#p5fba3a55c2)" style="fill: none; stroke-dasharray: 2.96,1.28; stroke-dashoffset: 0; stroke: #374151; stroke-opacity: 0.1; stroke-width: 0.8"/>
     </g>
     <g id="line2d_12">
      <g>
       <use xlink:href="#m9ccd3733cf" x="411.5025" y="193.58154" style="fill: #9ca3af; stroke: #9ca3af; stroke-width: 0.8"/>
      </g>
     </g>
    </g>
    <g id="xtick_7">
     <g id="line2d_13">
      <path d="M 483.5025 193.58154 
L 483.5025 31.318125 
" clip-path="url(#p5fba3a55c2)" style="fill: none; stroke-dasharray: 2.96,1.28; stroke-dashoffset: 0; stroke: #374151; stroke-opacity: 0.1; stroke-width: 0.8"/>
     </g>
     <g id="line2d_14">
      <g>
       <use xlink:href="#m9ccd3733cf" x="483.5025" y="193.58154" style="fill: #9ca3af; stroke: #9ca3af; stroke-width: 0.8"/>
      </g>
     </g>
    </g>
   </g>
   <g id="matplotlib.axis_2">
    <g id="ytick_1">
     <g id="line2d_15">
      <path d="M 37.1025 180.399655 
L 483.5025 180.399655 
" clip-path="url(#p5fba3a55c2)" style="fill: none; stroke-dasharray: 2.96,1.28; stroke-dashoffset: 0; stroke: #374151; stroke-opacity: 0.1; stroke-width: 0.8"/>
     </g>
     <g id="line2d_16">
      <defs>
       <path id="mcc36f523bb" d="M 0 0 
L -3.5 0 
" style="stroke: #9ca3af; stroke-width: 0.8"/>
      </defs>
      <g>
       <use xlink:href="#mcc36f523bb" x="37.1025" y="180.399655" style="fill: #9ca3af; stroke: #9ca3af; stroke-width: 0.8"/>
      </g>
     </g>
     <g id="text_1">
      <!-- 90.0 -->
      <g style="fill: #9ca3af" transform="translate(12.29 183.43903) scale(0.08 -0.08)">
       <defs>
        <path id="DejaVuSans-39" d="M 703 97 
L 703 672 
Q 941 559 1184 500 
Q 1428 441 1663 441 
Q 2288 441 2617 861 
Q 2947 1281 2994 2138 
Q 2813 1869 2534 1725 
Q 2256 1581 1919 1581 
Q 1219 1581 811 2004 
Q 403 2428 403 3163 
Q 403 3881 828 4315 
Q 1253 4750 1959 4750 
Q 2769 4750 3195 4129 
Q 3622 3509 3622 2328 
Q 3622 1225 3098 567 
Q 2575 -91 1691 -91 
Q 1453 -91 1209 -44 
Q 966 3 703 97 
z
M 1959 2075 
Q 2384 2075 2632 2365 
Q 2881 2656 2881 3163 
Q 2881 3666 2632 3958 
Q 2384 4250 1959 4250 
Q 1534 4250 1286 3958 
Q 1038 3666 1038 3163 
Q 1038 2656 1286 2365 
Q 1534 2075 1959 2075 
z
" transform="scale(0.015625)"/>
        <path id="DejaVuSans-30" d="M 2034 4250 
Q 1547 4250 1301 3770 
Q 1056 3291 1056 2328 
Q 1056 1369 1301 889 
Q 1547 409 2034 409 
Q 2525 409 2770 889 
Q 3016 1369 3016 2328 
Q 3016 3291 2770 3770 
Q 2525 4250 2034 4250 
z
M 2034 4750 
Q 2819 4750 3233 4129 
Q 3647 3509 3647 2328 
Q 3647 1150 3233 529 
Q 2819 -91 2034 -91 
Q 1250 -91 836 529 
Q 422 1150 422 2328 
Q 422 3509 836 4129 
Q 1250 4750 2034 4750 
z
" transform="scale(0.015625)"/>
        <path id="DejaVuSans-2e" d="M 684 794 
L 1344 794 
L 1344 0 
L 684 0 
L 684 794 
z
" transform="scale(0.015625)"/>
       </defs>
       <use xlink:href="#DejaVuSans-39"/>
       <use xlink:href="#DejaVuSans-30" transform="translate(63.623047 0)"/>
       <use xlink:href="#DejaVuSans-2e" transform="translate(127.246094 0)"/>
       <use xlink:href="#DejaVuSans-30" transform="translate(159.033203 0)"/>
      </g>
     </g>
    </g>
    <g id="ytick_2">
     <g id="line2d_17">
      <path d="M 37.1025 162.228657 
L 483.5025 162.228657 
" clip-path="url(#p5fba3a55c2)" style="fill: none; stroke-dasharray: 2.96,1.28; stroke-dashoffset: 0; stroke: #374151; stroke-opacity: 0.1; stroke-width: 0.8"/>
     </g>
     <g id="line2d_18">
      <g>
       <use xlink:href="#mcc36f523bb" x="37.1025" y="162.228657" style="fill: #9ca3af; stroke: #9ca3af; stroke-width: 0.8"/>
      </g>
     </g>
     <g id="text_2">
      <!-- 92.5 -->
      <g style="fill: #9ca3af" transform="translate(12.29 165.268032) scale(0.08 -0.08)">
       <defs>
        <path id="DejaVuSans-32" d="M 1228 531 
L 3431 531 
L 3431 0 
L 469 0 
L 469 531 
Q 828 903 1448 1529 
Q 2069 2156 2228 2338 
Q 2531 2678 2651 2914 
Q 2772 3150 2772 3378 
Q 2772 3750 2511 3984 
Q 2250 4219 1831 4219 
Q 1534 4219 1204 4116 
Q 875 4013 500 3803 
L 500 4441 
Q 881 4594 1212 4672 
Q 1544 4750 1819 4750 
Q 2544 4750 2975 4387 
Q 3406 4025 3406 3419 
Q 3406 3131 3298 2873 
Q 3191 2616 2906 2266 
Q 2828 2175 2409 1742 
Q 1991 1309 1228 531 
z
" transform="scale(0.015625)"/>
        <path id="DejaVuSans-35" d="M 691 4666 
L 3169 4666 
L 3169 4134 
L 1269 4134 
L 1269 2991 
Q 1406 3038 1543 3061 
Q 1681 3084 1819 3084 
Q 2600 3084 3056 2656 
Q 3513 2228 3513 1497 
Q 3513 744 3044 326 
Q 2575 -91 1722 -91 
Q 1428 -91 1123 -41 
Q 819 9 494 109 
L 494 744 
Q 775 591 1075 516 
Q 1375 441 1709 441 
Q 2250 441 2565 725 
Q 2881 1009 2881 1497 
Q 2881 1984 2565 2268 
Q 2250 2553 1709 2553 
Q 1456 2553 1204 2497 
Q 953 2441 691 2322 
L 691 4666 
z
" transform="scale(0.015625)"/>
       </defs>
       <use xlink:href="#DejaVuSans-39"/>
       <use xlink:href="#DejaVuSans-32" transform="translate(63.623047 0)"/>
       <use xlink:href="#DejaVuSans-2e" transform="translate(127.246094 0)"/>
       <use xlink:href="#DejaVuSans-35" transform="translate(159.033203 0)"/>
      </g>
     </g>
    </g>
    <g id="ytick_3">
     <g id="line2d_19">
      <path d="M 37.1025 144.057659 
L 483.5025 144.057659 
" clip-path="url(#p5fba3a55c2)" style="fill: none; stroke-dasharray: 2.96,1.28; stroke-dashoffset: 0; stroke: #374151; stroke-opacity: 0.1; stroke-width: 0.8"/>
     </g>
     <g id="line2d_20">
      <g>
       <use xlink:href="#mcc36f523bb" x="37.1025" y="144.057659" style="fill: #9ca3af; stroke: #9ca3af; stroke-width: 0.8"/>
      </g>
     </g>
     <g id="text_3">
      <!-- 95.0 -->
      <g style="fill: #9ca3af" transform="translate(12.29 147.097034) scale(0.08 -0.08)">
       <use xlink:href="#DejaVuSans-39"/>
       <use xlink:href="#DejaVuSans-35" transform="translate(63.623047 0)"/>
       <use xlink:href="#DejaVuSans-2e" transform="translate(127.246094 0)"/>
       <use xlink:href="#DejaVuSans-30" transform="translate(159.033203 0)"/>
      </g>
     </g>
    </g>
    <g id="ytick_4">
     <g id="line2d_21">
      <path d="M 37.1025 125.886661 
L 483.5025 125.886661 
" clip-path="url(#p5fba3a55c2)" style="fill: none; stroke-dasharray: 2.96,1.28; stroke-dashoffset: 0; stroke: #374151; stroke-opacity: 0.1; stroke-width: 0.8"/>
     </g>
     <g id="line2d_22">
      <g>
       <use xlink:href="#mcc36f523bb" x="37.1025" y="125.886661" style="fill: #9ca3af; stroke: #9ca3af; stroke-width: 0.8"/>
      </g>
     </g>
     <g id="text_4">
      <!-- 97.5 -->
      <g style="fill: #9ca3af" transform="translate(12.29 128.926036) scale(0.08 -0.08)">
       <defs>
        <path id="DejaVuSans-37" d="M 525 4666 
L 3525 4666 
L 3525 4397 
L 1831 0 
L 1172 0 
L 2766 4134 
L 525 4134 
L 525 4666 
z
" transform="scale(0.015625)"/>
       </defs>
       <use xlink:href="#DejaVuSans-39"/>
       <use xlink:href="#DejaVuSans-37" transform="translate(63.623047 0)"/>
       <use xlink:href="#DejaVuSans-2e" transform="translate(127.246094 0)"/>
       <use xlink:href="#DejaVuSans-35" transform="translate(159.033203 0)"/>
      </g>
     </g>
    </g>
    <g id="ytick_5">
     <g id="line2d_23">
      <path d="M 37.1025 107.715664 
L 483.5025 107.715664 
" clip-path="url(#p5fba3a55c2)" style="fill: none; stroke-dasharray: 2.96,1.28; stroke-dashoffset: 0; stroke: #374151; stroke-opacity: 0.1; stroke-width: 0.8"/>
     </g>
     <g id="line2d_24">
      <g>
       <use xlink:href="#mcc36f523bb" x="37.1025" y="107.715664" style="fill: #9ca3af; stroke: #9ca3af; stroke-width: 0.8"/>
      </g>
     </g>
     <g id="text_5">
      <!-- 100.0 -->
      <g style="fill: #9ca3af" transform="translate(7.2 110.755039) scale(0.08 -0.08)">
       <defs>
        <path id="DejaVuSans-31" d="M 794 531 
L 1825 531 
L 1825 4091 
L 703 3866 
L 703 4441 
L 1819 4666 
L 2450 4666 
L 2450 531 
L 3481 531 
L 3481 0 
L 794 0 
L 794 531 
z
" transform="scale(0.015625)"/>
       </defs>
       <use xlink:href="#DejaVuSans-31"/>
       <use xlink:href="#DejaVuSans-30" transform="translate(63.623047 0)"/>
       <use xlink:href="#DejaVuSans-30" transform="translate(127.246094 0)"/>
       <use xlink:href="#DejaVuSans-2e" transform="translate(190.869141 0)"/>
       <use xlink:href="#DejaVuSans-30" transform="translate(222.65625 0)"/>
      </g>
     </g>
    </g>
    <g id="ytick_6">
     <g id="line2d_25">
      <path d="M 37.1025 89.544666 
L 483.5025 89.544666 
" clip-path="url(#p5fba3a55c2)" style="fill: none; stroke-dasharray: 2.96,1.28; stroke-dashoffset: 0; stroke: #374151; stroke-opacity: 0.1; stroke-width: 0.8"/>
     </g>
     <g id="line2d_26">
      <g>
       <use xlink:href="#mcc36f523bb" x="37.1025" y="89.544666" style="fill: #9ca3af; stroke: #9ca3af; stroke-width: 0.8"/>
      </g>
     </g>
     <g id="text_6">
      <!-- 102.5 -->
      <g style="fill: #9ca3af" transform="translate(7.2 92.584041) scale(0.08 -0.08)">
       <use xlink:href="#DejaVuSans-31"/>
       <use xlink:href="#DejaVuSans-30" transform="translate(63.623047 0)"/>
       <use xlink:href="#DejaVuSans-32" transform="translate(127.246094 0)"/>
       <use xlink:href="#DejaVuSans-2e" transform="translate(190.869141 0)"/>
       <use xlink:href="#DejaVuSans-35" transform="translate(222.65625 0)"/>
      </g>
     </g>
    </g>
    <g id="ytick_7">
     <g id="line2d_27">
      <path d="M 37.1025 71.373668 
L 483.5025 71.373668 
" clip-path="url(#p5fba3a55c2)" style="fill: none; stroke-dasharray: 2.96,1.28; stroke-dashoffset: 0; stroke: #374151; stroke-opacity: 0.1; stroke-width: 0.8"/>
     </g>
     <g id="line2d_28">
      <g>
       <use xlink:href="#mcc36f523bb" x="37.1025" y="71.373668" style="fill: #9ca3af; stroke: #9ca3af; stroke-width: 0.8"/>
      </g>
     </g>
     <g id="text_7">
      <!-- 105.0 -->
      <g style="fill: #9ca3af" transform="translate(7.2 74.413043) scale(0.08 -0.08)">
       <use xlink:href="#DejaVuSans-31"/>
       <use xlink:href="#DejaVuSans-30" transform="translate(63.623047 0)"/>
       <use xlink:href="#DejaVuSans-35" transform="translate(127.246094 0)"/>
       <use xlink:href="#DejaVuSans-2e" transform="translate(190.869141 0)"/>
       <use xlink:href="#DejaVuSans-30" transform="translate(222.65625 0)"/>
      </g>
     </g>
    </g>
    <g id="ytick_8">
     <g id="line2d_29">
      <path d="M 37.1025 53.20267 
L 483.5025 53.20267 
" clip-path="url(#p5fba3a55c2)" style="fill: none; stroke-dasharray: 2.96,1.28; stroke-dashoffset: 0; stroke: #374151; stroke-opacity: 0.1; stroke-width: 0.8"/>
     </g>
     <g id="line2d_30">
      <g>
       <use xlink:href="#mcc36f523bb" x="37.1025" y="53.20267" style="fill: #9ca3af; stroke: #9ca3af; stroke-width: 0.8"/>
      </g>
     </g>
     <g id="text_8">
      <!-- 107.5 -->
      <g style="fill: #9ca3af" transform="translate(7.2 56.242045) scale(0.08 -0.08)">
       <use xlink:href="#DejaVuSans-31"/>
       <use xlink:href="#DejaVuSans-30" transform="translate(63.623047 0)"/>
       <use xlink:href="#DejaVuSans-37" transform="translate(127.246094 0)"/>
       <use xlink:href="#DejaVuSans-2e" transform="translate(190.869141 0)"/>
       <use xlink:href="#DejaVuSans-35" transform="translate(222.65625 0)"/>
      </g>
     </g>
    </g>
    <g id="ytick_9">
     <g id="line2d_31">
      <path d="M 37.1025 35.031672 
L 483.5025 35.031672 
" clip-path="url(#p5fba3a55c2)" style="fill: none; stroke-dasharray: 2.96,1.28; stroke-dashoffset: 0; stroke: #374151; stroke-opacity: 0.1; stroke-width: 0.8"/>
     </g>
     <g id="line2d_32">
      <g>
       <use xlink:href="#mcc36f523bb" x="37.1025" y="35.031672" style="fill: #9ca3af; stroke: #9ca3af; stroke-width: 0.8"/>
      </g>
     </g>
     <g id="text_9">
      <!-- 110.0 -->
      <g style="fill: #9ca3af" transform="translate(7.2 38.071047) scale(0.08 -0.08)">
       <use xlink:href="#DejaVuSans-31"/>
       <use xlink:href="#DejaVuSans-31" transform="translate(63.623047 0)"/>
       <use xlink:href="#DejaVuSans-30" transform="translate(127.246094 0)"/>
       <use xlink:href="#DejaVuSans-2e" transform="translate(190.869141 0)"/>
       <use xlink:href="#DejaVuSans-30" transform="translate(222.65625 0)"/>
      </g>
     </g>
    </g>
   </g>
   <g id="line2d_33">
    <path d="M 51.5025 147.691859 
L 51.5025 140.42346 
" clip-path="url(#p5fba3a55c2)" style="fill: none; stroke: #22c55e; stroke-width: 1.5; stroke-linecap: square"/>
   </g>
   <g id="line2d_34">
    <path d="M 65.9025 144.93849 
L 65.9025 134.051183 
" clip-path="url(#p5fba3a55c2)" style="fill: none; stroke: #22c55e; stroke-width: 1.5; stroke-linecap: square"/>
   </g>
   <g id="line2d_35">
    <path d="M 80.3025 136.512581 
L 80.3025 122.086691 
" clip-path="url(#p5fba3a55c2)" style="fill: none; stroke: #22c55e; stroke-width: 1.5; stroke-linecap: square"/>
   </g>
   <g id="line2d_36">
    <path d="M 94.7025 128.883291 
L 94.7025 113.3862 
" clip-path="url(#p5fba3a55c2)" style="fill: none; stroke: #22c55e; stroke-width: 1.5; stroke-linecap: square"/>
   </g>
   <g id="line2d_37">
    <path d="M 109.1025 118.926381 
L 109.1025 111.1822 
" clip-path="url(#p5fba3a55c2)" style="fill: none; stroke: #22c55e; stroke-width: 1.5; stroke-linecap: square"/>
   </g>
   <g id="line2d_38">
    <path d="M 123.5025 114.732324 
L 123.5025 101.658242 
" clip-path="url(#p5fba3a55c2)" style="fill: none; stroke: #22c55e; stroke-width: 1.5; stroke-linecap: square"/>
   </g>
   <g id="line2d_39">
    <path d="M 137.9025 103.193458 
L 137.9025 90.393386 
" clip-path="url(#p5fba3a55c2)" style="fill: none; stroke: #22c55e; stroke-width: 1.5; stroke-linecap: square"/>
   </g>
   <g id="line2d_40">
    <path d="M 152.3025 101.734651 
L 152.3025 92.368561 
" clip-path="url(#p5fba3a55c2)" style="fill: none; stroke: #ef4444; stroke-width: 1.5; stroke-linecap: square"/>
   </g>
   <g id="line2d_41">
    <path d="M 166.7025 108.291453 
L 166.7025 97.744982 
" clip-path="url(#p5fba3a55c2)" style="fill: none; stroke: #ef4444; stroke-width: 1.5; stroke-linecap: square"/>
   </g>
   <g id="line2d_42">
    <path d="M 181.1025 114.93815 
L 181.1025 104.23145 
" clip-path="url(#p5fba3a55c2)" style="fill: none; stroke: #ef4444; stroke-width: 1.5; stroke-linecap: square"/>
   </g>
   <g id="line2d_43">
    <path d="M 195.5025 122.19109 
L 195.5025 108.311428 
" clip-path="url(#p5fba3a55c2)" style="fill: none; stroke: #ef4444; stroke-width: 1.5; stroke-linecap: square"/>
   </g>
   <g id="line2d_44">
    <path d="M 209.9025 122.124995 
L 209.9025 114.464375 
" clip-path="url(#p5fba3a55c2)" style="fill: none; stroke: #22c55e; stroke-width: 1.5; stroke-linecap: square"/>
   </g>
   <g id="line2d_45">
    <path d="M 224.3025 116.694328 
L 224.3025 94.389477 
" clip-path="url(#p5fba3a55c2)" style="fill: none; stroke: #22c55e; stroke-width: 1.5; stroke-linecap: square"/>
   </g>
   <g id="line2d_46">
    <path d="M 238.7025 100.969749 
L 238.7025 77.319259 
" clip-path="url(#p5fba3a55c2)" style="fill: none; stroke: #22c55e; stroke-width: 1.5; stroke-linecap: square"/>
   </g>
   <g id="line2d_47">
    <path d="M 253.1025 82.687258 
L 253.1025 63.084695 
" clip-path="url(#p5fba3a55c2)" style="fill: none; stroke: #22c55e; stroke-width: 1.5; stroke-linecap: square"/>
   </g>
   <g id="line2d_48">
    <path d="M 267.5025 66.762108 
L 267.5025 45.573789 
" clip-path="url(#p5fba3a55c2)" style="fill: none; stroke: #22c55e; stroke-width: 1.5; stroke-linecap: square"/>
   </g>
   <g id="line2d_49">
    <path d="M 281.9025 68.441843 
L 281.9025 44.840076 
" clip-path="url(#p5fba3a55c2)" style="fill: none; stroke: #ef4444; stroke-width: 1.5; stroke-linecap: square"/>
   </g>
   <g id="line2d_50">
    <path d="M 296.3025 83.769464 
L 296.3025 64.014285 
" clip-path="url(#p5fba3a55c2)" style="fill: none; stroke: #ef4444; stroke-width: 1.5; stroke-linecap: square"/>
   </g>
   <g id="line2d_51">
    <path d="M 310.7025 99.159982 
L 310.7025 78.094696 
" clip-path="url(#p5fba3a55c2)" style="fill: none; stroke: #ef4444; stroke-width: 1.5; stroke-linecap: square"/>
   </g>
   <g id="line2d_52">
    <path d="M 325.1025 117.772583 
L 325.1025 96.330686 
" clip-path="url(#p5fba3a55c2)" style="fill: none; stroke: #ef4444; stroke-width: 1.5; stroke-linecap: square"/>
   </g>
   <g id="line2d_53">
    <path d="M 339.5025 121.688809 
L 339.5025 112.305156 
" clip-path="url(#p5fba3a55c2)" style="fill: none; stroke: #ef4444; stroke-width: 1.5; stroke-linecap: square"/>
   </g>
   <g id="line2d_54">
    <path d="M 353.9025 120.47361 
L 353.9025 110.506831 
" clip-path="url(#p5fba3a55c2)" style="fill: none; stroke: #22c55e; stroke-width: 1.5; stroke-linecap: square"/>
   </g>
   <g id="line2d_55">
    <path d="M 368.3025 112.461669 
L 368.3025 102.922925 
" clip-path="url(#p5fba3a55c2)" style="fill: none; stroke: #22c55e; stroke-width: 1.5; stroke-linecap: square"/>
   </g>
   <g id="line2d_56">
    <path d="M 382.7025 106.458251 
L 382.7025 96.898422 
" clip-path="url(#p5fba3a55c2)" style="fill: none; stroke: #22c55e; stroke-width: 1.5; stroke-linecap: square"/>
   </g>
   <g id="line2d_57">
    <path d="M 397.1025 100.734297 
L 397.1025 90.274749 
" clip-path="url(#p5fba3a55c2)" style="fill: none; stroke: #22c55e; stroke-width: 1.5; stroke-linecap: square"/>
   </g>
   <g id="line2d_58">
    <path d="M 411.5025 113.823507 
L 411.5025 89.433775 
" clip-path="url(#p5fba3a55c2)" style="fill: none; stroke: #ef4444; stroke-width: 1.5; stroke-linecap: square"/>
   </g>
   <g id="line2d_59">
    <path d="M 425.9025 129.978009 
L 425.9025 108.381978 
" clip-path="url(#p5fba3a55c2)" style="fill: none; stroke: #ef4444; stroke-width: 1.5; stroke-linecap: square"/>
   </g>
   <g id="line2d_60">
    <path d="M 440.3025 149.286555 
L 440.3025 125.229313 
" clip-path="url(#p5fba3a55c2)" style="fill: none; stroke: #ef4444; stroke-width: 1.5; stroke-linecap: square"/>
   </g>
   <g id="line2d_61">
    <path d="M 454.7025 165.008941 
L 454.7025 143.099366 
" clip-path="url(#p5fba3a55c2)" style="fill: none; stroke: #ef4444; stroke-width: 1.5; stroke-linecap: square"/>
   </g>
   <g id="line2d_62">
    <path d="M 469.1025 180.059588 
L 469.1025 159.435076 
" clip-path="url(#p5fba3a55c2)" style="fill: none; stroke: #ef4444; stroke-width: 1.5; stroke-linecap: square"/>
   </g>
   <g id="patch_33">
    <path d="M 37.1025 193.58154 
L 37.1025 31.318125 
" style="fill: none; stroke: #1f2937; stroke-width: 0.8; stroke-linejoin: miter; stroke-linecap: square"/>
   </g>
   <g id="patch_34">
    <path d="M 37.1025 193.58154 
L 483.5025 193.58154 
" style="fill: none; stroke: #1f2937; stroke-width: 0.8; stroke-linejoin: miter; stroke-linecap: square"/>
   </g>
   <g id="text_10">
    <!-- Head and Shoulders — QQQ 1H -->
    <g style="fill: #ffffff" transform="translate(155.37375 16.318125) scale(0.12 -0.12)">
     <defs>
      <path id="DejaVuSans-Bold-48" d="M 588 4666 
L 1791 4666 
L 1791 2888 
L 3566 2888 
L 3566 4666 
L 4769 4666 
L 4769 0 
L 3566 0 
L 3566 1978 
L 1791 1978 
L 1791 0 
L 588 0 
L 588 4666 
z
" transform="scale(0.015625)"/>
      <path id="DejaVuSans-Bold-65" d="M 4031 1759 
L 4031 1441 
L 1416 1441 
Q 1456 1047 1700 850 
Q 1944 653 2381 653 
Q 2734 653 3104 758 
Q 3475 863 3866 1075 
L 3866 213 
Q 3469 63 3072 -14 
Q 2675 -91 2278 -91 
Q 1328 -91 801 392 
Q 275 875 275 1747 
Q 275 2603 792 3093 
Q 1309 3584 2216 3584 
Q 3041 3584 3536 3087 
Q 4031 2591 4031 1759 
z
M 2881 2131 
Q 2881 2450 2695 2645 
Q 2509 2841 2209 2841 
Q 1884 2841 1681 2658 
Q 1478 2475 1428 2131 
L 2881 2131 
z
" transform="scale(0.015625)"/>
      <path id="DejaVuSans-Bold-61" d="M 2106 1575 
Q 1756 1575 1579 1456 
Q 1403 1338 1403 1106 
Q 1403 894 1545 773 
Q 1688 653 1941 653 
Q 2256 653 2472 879 
Q 2688 1106 2688 1447 
L 2688 1575 
L 2106 1575 
z
M 3816 1997 
L 3816 0 
L 2688 0 
L 2688 519 
Q 2463 200 2181 54 
Q 1900 -91 1497 -91 
Q 953 -91 614 226 
Q 275 544 275 1050 
Q 275 1666 698 1953 
Q 1122 2241 2028 2241 
L 2688 2241 
L 2688 2328 
Q 2688 2594 2478 2717 
Q 2269 2841 1825 2841 
Q 1466 2841 1156 2769 
Q 847 2697 581 2553 
L 581 3406 
Q 941 3494 1303 3539 
Q 1666 3584 2028 3584 
Q 2975 3584 3395 3211 
Q 3816 2838 3816 1997 
z
" transform="scale(0.015625)"/>
      <path id="DejaVuSans-Bold-64" d="M 2919 2988 
L 2919 4863 
L 4044 4863 
L 4044 0 
L 2919 0 
L 2919 506 
Q 2688 197 2409 53 
Q 2131 -91 1766 -91 
Q 1119 -91 703 423 
Q 288 938 288 1747 
Q 288 2556 703 3070 
Q 1119 3584 1766 3584 
Q 2128 3584 2408 3439 
Q 2688 3294 2919 2988 
z
M 2181 722 
Q 2541 722 2730 984 
Q 2919 1247 2919 1747 
Q 2919 2247 2730 2509 
Q 2541 2772 2181 2772 
Q 1825 2772 1636 2509 
Q 1447 2247 1447 1747 
Q 1447 1247 1636 984 
Q 1825 722 2181 722 
z
" transform="scale(0.015625)"/>
      <path id="DejaVuSans-Bold-20" transform="scale(0.015625)"/>
      <path id="DejaVuSans-Bold-6e" d="M 4056 2131 
L 4056 0 
L 2931 0 
L 2931 347 
L 2931 1631 
Q 2931 2084 2911 2256 
Q 2891 2428 2841 2509 
Q 2775 2619 2662 2680 
Q 2550 2741 2406 2741 
Q 2056 2741 1856 2470 
Q 1656 2200 1656 1722 
L 1656 0 
L 538 0 
L 538 3500 
L 1656 3500 
L 1656 2988 
Q 1909 3294 2193 3439 
Q 2478 3584 2822 3584 
Q 3428 3584 3742 3212 
Q 4056 2841 4056 2131 
z
" transform="scale(0.015625)"/>
      <path id="DejaVuSans-Bold-53" d="M 3834 4519 
L 3834 3531 
Q 3450 3703 3084 3790 
Q 2719 3878 2394 3878 
Q 1963 3878 1756 3759 
Q 1550 3641 1550 3391 
Q 1550 3203 1689 3098 
Q 1828 2994 2194 2919 
L 2706 2816 
Q 3484 2659 3812 2340 
Q 4141 2022 4141 1434 
Q 4141 663 3683 286 
Q 3225 -91 2284 -91 
Q 1841 -91 1394 -6 
Q 947 78 500 244 
L 500 1259 
Q 947 1022 1364 901 
Q 1781 781 2169 781 
Q 2563 781 2772 912 
Q 2981 1044 2981 1288 
Q 2981 1506 2839 1625 
Q 2697 1744 2272 1838 
L 1806 1941 
Q 1106 2091 782 2419 
Q 459 2747 459 3303 
Q 459 4000 909 4375 
Q 1359 4750 2203 4750 
Q 2588 4750 2994 4692 
Q 3400 4634 3834 4519 
z
" transform="scale(0.015625)"/>
      <path id="DejaVuSans-Bold-68" d="M 4056 2131 
L 4056 0 
L 2931 0 
L 2931 347 
L 2931 1625 
Q 2931 2084 2911 2256 
Q 2891 2428 2841 2509 
Q 2775 2619 2662 2680 
Q 2550 2741 2406 2741 
Q 2056 2741 1856 2470 
Q 1656 2200 1656 1722 
L 1656 0 
L 538 0 
L 538 4863 
L 1656 4863 
L 1656 2988 
Q 1909 3294 2193 3439 
Q 2478 3584 2822 3584 
Q 3428 3584 3742 3212 
Q 4056 2841 4056 2131 
z
" transform="scale(0.015625)"/>
      <path id="DejaVuSans-Bold-6f" d="M 2203 2784 
Q 1831 2784 1636 2517 
Q 1441 2250 1441 1747 
Q 1441 1244 1636 976 
Q 1831 709 2203 709 
Q 2569 709 2762 976 
Q 2956 1244 2956 1747 
Q 2956 2250 2762 2517 
Q 2569 2784 2203 2784 
z
M 2203 3584 
Q 3106 3584 3614 3096 
Q 4122 2609 4122 1747 
Q 4122 884 3614 396 
Q 3106 -91 2203 -91 
Q 1297 -91 786 396 
Q 275 884 275 1747 
Q 275 2609 786 3096 
Q 1297 3584 2203 3584 
z
" transform="scale(0.015625)"/>
      <path id="DejaVuSans-Bold-75" d="M 500 1363 
L 500 3500 
L 1625 3500 
L 1625 3150 
Q 1625 2866 1622 2436 
Q 1619 2006 1619 1863 
Q 1619 1441 1641 1255 
Q 1663 1069 1716 984 
Q 1784 875 1895 815 
Q 2006 756 2150 756 
Q 2500 756 2700 1025 
Q 2900 1294 2900 1772 
L 2900 3500 
L 4019 3500 
L 4019 0 
L 2900 0 
L 2900 506 
Q 2647 200 2364 54 
Q 2081 -91 1741 -91 
Q 1134 -91 817 281 
Q 500 653 500 1363 
z
" transform="scale(0.015625)"/>
      <path id="DejaVuSans-Bold-6c" d="M 538 4863 
L 1656 4863 
L 1656 0 
L 538 0 
L 538 4863 
z
" transform="scale(0.015625)"/>
      <path id="DejaVuSans-Bold-72" d="M 3138 2547 
Q 2991 2616 2845 2648 
Q 2700 2681 2553 2681 
Q 2122 2681 1889 2404 
Q 1656 2128 1656 1613 
L 1656 0 
L 538 0 
L 538 3500 
L 1656 3500 
L 1656 2925 
Q 1872 3269 2151 3426 
Q 2431 3584 2822 3584 
Q 2878 3584 2943 3579 
Q 3009 3575 3134 3559 
L 3138 2547 
z
" transform="scale(0.015625)"/>
      <path id="DejaVuSans-Bold-73" d="M 3272 3391 
L 3272 2541 
Q 2913 2691 2578 2766 
Q 2244 2841 1947 2841 
Q 1628 2841 1473 2761 
Q 1319 2681 1319 2516 
Q 1319 2381 1436 2309 
Q 1553 2238 1856 2203 
L 2053 2175 
Q 2913 2066 3209 1816 
Q 3506 1566 3506 1031 
Q 3506 472 3093 190 
Q 2681 -91 1863 -91 
Q 1516 -91 1145 -36 
Q 775 19 384 128 
L 384 978 
Q 719 816 1070 734 
Q 1422 653 1784 653 
Q 2113 653 2278 743 
Q 2444 834 2444 1013 
Q 2444 1163 2330 1236 
Q 2216 1309 1875 1350 
L 1678 1375 
Q 931 1469 631 1722 
Q 331 1975 331 2491 
Q 331 3047 712 3315 
Q 1094 3584 1881 3584 
Q 2191 3584 2531 3537 
Q 2872 3491 3272 3391 
z
" transform="scale(0.015625)"/>
      <path id="DejaVuSans-Bold-2014" d="M 344 2156 
L 6056 2156 
L 6056 1350 
L 344 1350 
L 344 2156 
z
" transform="scale(0.015625)"/>
      <path id="DejaVuSans-Bold-51" d="M 2847 -84 
L 2753 -84 
Q 1600 -84 959 553 
Q 319 1191 319 2328 
Q 319 3463 958 4106 
Q 1597 4750 2719 4750 
Q 3853 4750 4486 4112 
Q 5119 3475 5119 2328 
Q 5119 1541 4783 972 
Q 4447 403 3816 116 
L 4756 -934 
L 3609 -934 
L 2847 -84 
z
M 2719 3878 
Q 2169 3878 1866 3472 
Q 1563 3066 1563 2328 
Q 1563 1578 1859 1179 
Q 2156 781 2719 781 
Q 3272 781 3575 1187 
Q 3878 1594 3878 2328 
Q 3878 3066 3575 3472 
Q 3272 3878 2719 3878 
z
" transform="scale(0.015625)"/>
      <path id="DejaVuSans-Bold-31" d="M 750 831 
L 1813 831 
L 1813 3847 
L 722 3622 
L 722 4441 
L 1806 4666 
L 2950 4666 
L 2950 831 
L 4013 831 
L 4013 0 
L 750 0 
L 750 831 
z
" transform="scale(0.015625)"/>
     </defs>
     <use xlink:href="#DejaVuSans-Bold-48"/>
     <use xlink:href="#DejaVuSans-Bold-65" transform="translate(83.691406 0)"/>
     <use xlink:href="#DejaVuSans-Bold-61" transform="translate(151.513672 0)"/>
     <use xlink:href="#DejaVuSans-Bold-64" transform="translate(218.994141 0)"/>
     <use xlink:href="#DejaVuSans-Bold-20" transform="translate(290.576172 0)"/>
     <use xlink:href="#DejaVuSans-Bold-61" transform="translate(325.390625 0)"/>
     <use xlink:href="#DejaVuSans-Bold-6e" transform="translate(392.871094 0)"/>
     <use xlink:href="#DejaVuSans-Bold-64" transform="translate(464.0625 0)"/>
     <use xlink:href="#DejaVuSans-Bold-20" transform="translate(535.644531 0)"/>
     <use xlink:href="#DejaVuSans-Bold-53" transform="translate(570.458984 0)"/>
     <use xlink:href="#DejaVuSans-Bold-68" transform="translate(642.480469 0)"/>
     <use xlink:href="#DejaVuSans-Bold-6f" transform="translate(713.671875 0)"/>
     <use xlink:href="#DejaVuSans-Bold-75" transform="translate(782.373047 0)"/>
     <use xlink:href="#DejaVuSans-Bold-6c" transform="translate(853.564453 0)"/>
     <use xlink:href="#DejaVuSans-Bold-64" transform="translate(887.841797 0)"/>
     <use xlink:href="#DejaVuSans-Bold-65" transform="translate(959.423828 0)"/>
     <use xlink:href="#DejaVuSans-Bold-72" transform="translate(1027.246094 0)"/>
     <use xlink:href="#DejaVuSans-Bold-73" transform="translate(1076.5625 0)"/>
     <use xlink:href="#DejaVuSans-Bold-20" transform="translate(1136.083984 0)"/>
     <use xlink:href="#DejaVuSans-Bold-2014" transform="translate(1170.898438 0)"/>
     <use xlink:href="#DejaVuSans-Bold-20" transform="translate(1270.898438 0)"/>
     <use xlink:href="#DejaVuSans-Bold-51" transform="translate(1305.712891 0)"/>
     <use xlink:href="#DejaVuSans-Bold-51" transform="translate(1390.722656 0)"/>
     <use xlink:href="#DejaVuSans-Bold-51" transform="translate(1475.732422 0)"/>
     <use xlink:href="#DejaVuSans-Bold-20" transform="translate(1560.742188 0)"/>
     <use xlink:href="#DejaVuSans-Bold-31" transform="translate(1595.556641 0)"/>
     <use xlink:href="#DejaVuSans-Bold-48" transform="translate(1665.136719 0)"/>
    </g>
   </g>
  </g>
  <g id="axes_2">
   <g id="patch_35">
    <path d="M 37.1025 253.078125 
L 483.5025 253.078125 
L 483.5025 198.99032 
L 37.1025 198.99032 
z
" style="fill: #0a0f1a"/>
   </g>
   <g id="patch_36">
    <path d="M 57.393409 253.078125 
L 66.958147 253.078125 
L 66.958147 242.280815 
L 57.393409 242.280815 
z
" clip-path="url(#p12174df071)" style="fill: #22c55e; fill-opacity: 0.266667"/>
   </g>
   <g id="patch_37">
    <path d="M 71.057321 253.078125 
L 80.622059 253.078125 
L 80.622059 216.647767 
L 71.057321 216.647767 
z
" clip-path="url(#p12174df071)" style="fill: #22c55e; fill-opacity: 0.266667"/>
   </g>
   <g id="patch_38">
    <path d="M 84.721233 253.078125 
L 94.285971 253.078125 
L 94.285971 218.495023 
L 84.721233 218.495023 
z
" clip-path="url(#p12174df071)" style="fill: #22c55e; fill-opacity: 0.266667"/>
   </g>
   <g id="patch_39">
    <path d="M 98.385145 253.078125 
L 107.949883 253.078125 
L 107.949883 212.299109 
L 98.385145 212.299109 
z
" clip-path="url(#p12174df071)" style="fill: #22c55e; fill-opacity: 0.266667"/>
   </g>
   <g id="patch_40">
    <path d="M 112.049056 253.078125 
L 121.613795 253.078125 
L 121.613795 237.179493 
L 112.049056 237.179493 
z
" clip-path="url(#p12174df071)" style="fill: #22c55e; fill-opacity: 0.266667"/>
   </g>
   <g id="patch_41">
    <path d="M 125.712968 253.078125 
L 135.277707 253.078125 
L 135.277707 202.531982 
L 125.712968 202.531982 
z
" clip-path="url(#p12174df071)" style="fill: #22c55e; fill-opacity: 0.266667"/>
   </g>
   <g id="patch_42">
    <path d="M 139.37688 253.078125 
L 148.941618 253.078125 
L 148.941618 227.179319 
L 139.37688 227.179319 
z
" clip-path="url(#p12174df071)" style="fill: #22c55e; fill-opacity: 0.266667"/>
   </g>
   <g id="patch_43">
    <path d="M 153.040792 253.078125 
L 162.60553 253.078125 
L 162.60553 221.658201 
L 153.040792 221.658201 
z
" clip-path="url(#p12174df071)" style="fill: #ef4444; fill-opacity: 0.266667"/>
   </g>
   <g id="patch_44">
    <path d="M 166.704704 253.078125 
L 176.269442 253.078125 
L 176.269442 211.04337 
L 166.704704 211.04337 
z
" clip-path="url(#p12174df071)" style="fill: #ef4444; fill-opacity: 0.266667"/>
   </g>
   <g id="patch_45">
    <path d="M 180.368616 253.078125 
L 189.933354 253.078125 
L 189.933354 242.168037 
L 180.368616 242.168037 
z
" clip-path="url(#p12174df071)" style="fill: #ef4444; fill-opacity: 0.266667"/>
   </g>
   <g id="patch_46">
    <path d="M 194.032528 253.078125 
L 203.597266 253.078125 
L 203.597266 218.167182 
L 194.032528 218.167182 
z
" clip-path="url(#p12174df071)" style="fill: #ef4444; fill-opacity: 0.266667"/>
   </g>
   <g id="patch_47">
    <path d="M 207.696439 253.078125 
L 217.261178 253.078125 
L 217.261178 217.507551 
L 207.696439 217.507551 
z
" clip-path="url(#p12174df071)" style="fill: #22c55e; fill-opacity: 0.266667"/>
   </g>
   <g id="patch_48">
    <path d="M 221.360351 253.078125 
L 230.92509 253.078125 
L 230.92509 216.341239 
L 221.360351 216.341239 
z
" clip-path="url(#p12174df071)" style="fill: #22c55e; fill-opacity: 0.266667"/>
   </g>
   <g id="patch_49">
    <path d="M 235.024263 253.078125 
L 244.589001 253.078125 
L 244.589001 242.287421 
L 235.024263 242.287421 
z
" clip-path="url(#p12174df071)" style="fill: #22c55e; fill-opacity: 0.266667"/>
   </g>
   <g id="patch_50">
    <path d="M 248.688175 253.078125 
L 258.252913 253.078125 
L 258.252913 223.203529 
L 248.688175 223.203529 
z
" clip-path="url(#p12174df071)" style="fill: #22c55e; fill-opacity: 0.266667"/>
   </g>
   <g id="patch_51">
    <path d="M 262.352087 253.078125 
L 271.916825 253.078125 
L 271.916825 213.390734 
L 262.352087 213.390734 
z
" clip-path="url(#p12174df071)" style="fill: #22c55e; fill-opacity: 0.266667"/>
   </g>
   <g id="patch_52">
    <path d="M 276.015999 253.078125 
L 285.580737 253.078125 
L 285.580737 212.228627 
L 276.015999 212.228627 
z
" clip-path="url(#p12174df071)" style="fill: #ef4444; fill-opacity: 0.266667"/>
   </g>
   <g id="patch_53">
    <path d="M 289.67991 253.078125 
L 299.244649 253.078125 
L 299.244649 206.347479 
L 289.67991 206.347479 
z
" clip-path="url(#p12174df071)" style="fill: #ef4444; fill-opacity: 0.266667"/>
   </g>
   <g id="patch_54">
    <path d="M 303.343822 253.078125 
L 312.908561 253.078125 
L 312.908561 217.986687 
L 303.343822 217.986687 
z
" clip-path="url(#p12174df071)" style="fill: #ef4444; fill-opacity: 0.266667"/>
   </g>
   <g id="patch_55">
    <path d="M 317.007734 253.078125 
L 326.572472 253.078125 
L 326.572472 216.844548 
L 317.007734 216.844548 
z
" clip-path="url(#p12174df071)" style="fill: #ef4444; fill-opacity: 0.266667"/>
   </g>
   <g id="patch_56">
    <path d="M 330.671646 253.078125 
L 340.236384 253.078125 
L 340.236384 231.380439 
L 330.671646 231.380439 
z
" clip-path="url(#p12174df071)" style="fill: #ef4444; fill-opacity: 0.266667"/>
   </g>
   <g id="patch_57">
    <path d="M 344.335558 253.078125 
L 353.900296 253.078125 
L 353.900296 211.604995 
L 344.335558 211.604995 
z
" clip-path="url(#p12174df071)" style="fill: #22c55e; fill-opacity: 0.266667"/>
   </g>
   <g id="patch_58">
    <path d="M 357.99947 253.078125 
L 367.564208 253.078125 
L 367.564208 201.56593 
L 357.99947 201.56593 
z
" clip-path="url(#p12174df071)" style="fill: #22c55e; fill-opacity: 0.266667"/>
   </g>
   <g id="patch_59">
    <path d="M 371.663382 253.078125 
L 381.22812 253.078125 
L 381.22812 234.491321 
L 371.663382 234.491321 
z
" clip-path="url(#p12174df071)" style="fill: #22c55e; fill-opacity: 0.266667"/>
   </g>
   <g id="patch_60">
    <path d="M 385.327293 253.078125 
L 394.892032 253.078125 
L 394.892032 219.06541 
L 385.327293 219.06541 
z
" clip-path="url(#p12174df071)" style="fill: #22c55e; fill-opacity: 0.266667"/>
   </g>
   <g id="patch_61">
    <path d="M 398.991205 253.078125 
L 408.555944 253.078125 
L 408.555944 227.340656 
L 398.991205 227.340656 
z
" clip-path="url(#p12174df071)" style="fill: #ef4444; fill-opacity: 0.266667"/>
   </g>
   <g id="patch_62">
    <path d="M 412.655117 253.078125 
L 422.219855 253.078125 
L 422.219855 220.574953 
L 412.655117 220.574953 
z
" clip-path="url(#p12174df071)" style="fill: #ef4444; fill-opacity: 0.266667"/>
   </g>
   <g id="patch_63">
    <path d="M 426.319029 253.078125 
L 435.883767 253.078125 
L 435.883767 229.015689 
L 426.319029 229.015689 
z
" clip-path="url(#p12174df071)" style="fill: #ef4444; fill-opacity: 0.266667"/>
   </g>
   <g id="patch_64">
    <path d="M 439.982941 253.078125 
L 449.547679 253.078125 
L 449.547679 241.704686 
L 439.982941 241.704686 
z
" clip-path="url(#p12174df071)" style="fill: #ef4444; fill-opacity: 0.266667"/>
   </g>
   <g id="patch_65">
    <path d="M 453.646853 253.078125 
L 463.211591 253.078125 
L 463.211591 234.177205 
L 453.646853 234.177205 
z
" clip-path="url(#p12174df071)" style="fill: #ef4444; fill-opacity: 0.266667"/>
   </g>
   <g id="matplotlib.axis_3">
    <g id="xtick_8">
     <g id="line2d_63">
      <path d="M 62.175778 253.078125 
L 62.175778 198.99032 
" clip-path="url(#p12174df071)" style="fill: none; stroke-dasharray: 2.96,1.28; stroke-dashoffset: 0; stroke: #374151; stroke-opacity: 0.1; stroke-width: 0.8"/>
     </g>
     <g id="line2d_64">
      <g>
       <use xlink:href="#m9ccd3733cf" x="62.175778" y="253.078125" style="fill: #9ca3af; stroke: #9ca3af; stroke-width: 0.8"/>
      </g>
     </g>
     <g id="text_11">
      <!-- 0 -->
      <g style="fill: #9ca3af" transform="translate(59.630778 266.156875) scale(0.08 -0.08)">
       <use xlink:href="#DejaVuSans-30"/>
      </g>
     </g>
    </g>
    <g id="xtick_9">
     <g id="line2d_65">
      <path d="M 130.495337 253.078125 
L 130.495337 198.99032 
" clip-path="url(#p12174df071)" style="fill: none; stroke-dasharray: 2.96,1.28; stroke-dashoffset: 0; stroke: #374151; stroke-opacity: 0.1; stroke-width: 0.8"/>
     </g>
     <g id="line2d_66">
      <g>
       <use xlink:href="#m9ccd3733cf" x="130.495337" y="253.078125" style="fill: #9ca3af; stroke: #9ca3af; stroke-width: 0.8"/>
      </g>
     </g>
     <g id="text_12">
      <!-- 5 -->
      <g style="fill: #9ca3af" transform="translate(127.950337 266.156875) scale(0.08 -0.08)">
       <use xlink:href="#DejaVuSans-35"/>
      </g>
     </g>
    </g>
    <g id="xtick_10">
     <g id="line2d_67">
      <path d="M 198.814897 253.078125 
L 198.814897 198.99032 
" clip-path="url(#p12174df071)" style="fill: none; stroke-dasharray: 2.96,1.28; stroke-dashoffset: 0; stroke: #374151; stroke-opacity: 0.1; stroke-width: 0.8"/>
     </g>
     <g id="line2d_68">
      <g>
       <use xlink:href="#m9ccd3733cf" x="198.814897" y="253.078125" style="fill: #9ca3af; stroke: #9ca3af; stroke-width: 0.8"/>
      </g>
     </g>
     <g id="text_13">
      <!-- 10 -->
      <g style="fill: #9ca3af" transform="translate(193.724897 266.156875) scale(0.08 -0.08)">
       <use xlink:href="#DejaVuSans-31"/>
       <use xlink:href="#DejaVuSans-30" transform="translate(63.623047 0)"/>
      </g>
     </g>
    </g>
    <g id="xtick_11">
     <g id="line2d_69">
      <path d="M 267.134456 253.078125 
L 267.134456 198.99032 
" clip-path="url(#p12174df071)" style="fill: none; stroke-dasharray: 2.96,1.28; stroke-dashoffset: 0; stroke: #374151; stroke-opacity: 0.1; stroke-width: 0.8"/>
     </g>
     <g id="line2d_70">
      <g>
       <use xlink:href="#m9ccd3733cf" x="267.134456" y="253.078125" style="fill: #9ca3af; stroke: #9ca3af; stroke-width: 0.8"/>
      </g>
     </g>
     <g id="text_14">
      <!-- 15 -->
      <g style="fill: #9ca3af" transform="translate(262.044456 266.156875) scale(0.08 -0.08)">
       <use xlink:href="#DejaVuSans-31"/>
       <use xlink:href="#DejaVuSans-35" transform="translate(63.623047 0)"/>
      </g>
     </g>
    </g>
    <g id="xtick_12">
     <g id="line2d_71">
      <path d="M 335.454015 253.078125 
L 335.454015 198.99032 
" clip-path="url(#p12174df071)" style="fill: none; stroke-dasharray: 2.96,1.28; stroke-dashoffset: 0; stroke: #374151; stroke-opacity: 0.1; stroke-width: 0.8"/>
     </g>
     <g id="line2d_72">
      <g>
       <use xlink:href="#m9ccd3733cf" x="335.454015" y="253.078125" style="fill: #9ca3af; stroke: #9ca3af; stroke-width: 0.8"/>
      </g>
     </g>
     <g id="text_15">
      <!-- 20 -->
      <g style="fill: #9ca3af" transform="translate(330.364015 266.156875) scale(0.08 -0.08)">
       <use xlink:href="#DejaVuSans-32"/>
       <use xlink:href="#DejaVuSans-30" transform="translate(63.623047 0)"/>
      </g>
     </g>
    </g>
    <g id="xtick_13">
     <g id="line2d_73">
      <path d="M 403.773574 253.078125 
L 403.773574 198.99032 
" clip-path="url(#p12174df071)" style="fill: none; stroke-dasharray: 2.96,1.28; stroke-dashoffset: 0; stroke: #374151; stroke-opacity: 0.1; stroke-width: 0.8"/>
     </g>
     <g id="line2d_74">
      <g>
       <use xlink:href="#m9ccd3733cf" x="403.773574" y="253.078125" style="fill: #9ca3af; stroke: #9ca3af; stroke-width: 0.8"/>
      </g>
     </g>
     <g id="text_16">
      <!-- 25 -->
      <g style="fill: #9ca3af" transform="translate(398.683574 266.156875) scale(0.08 -0.08)">
       <use xlink:href="#DejaVuSans-32"/>
       <use xlink:href="#DejaVuSans-35" transform="translate(63.623047 0)"/>
      </g>
     </g>
    </g>
    <g id="xtick_14">
     <g id="line2d_75">
      <path d="M 472.093134 253.078125 
L 472.093134 198.99032 
" clip-path="url(#p12174df071)" style="fill: none; stroke-dasharray: 2.96,1.28; stroke-dashoffset: 0; stroke: #374151; stroke-opacity: 0.1; stroke-width: 0.8"/>
     </g>
     <g id="line2d_76">
      <g>
       <use xlink:href="#m9ccd3733cf" x="472.093134" y="253.078125" style="fill: #9ca3af; stroke: #9ca3af; stroke-width: 0.8"/>
      </g>
     </g>
     <g id="text_17">
      <!-- 30 -->
      <g style="fill: #9ca3af" transform="translate(467.003134 266.156875) scale(0.08 -0.08)">
       <defs>
        <path id="DejaVuSans-33" d="M 2597 2516 
Q 3050 2419 3304 2112 
Q 3559 1806 3559 1356 
Q 3559 666 3084 287 
Q 2609 -91 1734 -91 
Q 1441 -91 1130 -33 
Q 819 25 488 141 
L 488 750 
Q 750 597 1062 519 
Q 1375 441 1716 441 
Q 2309 441 2620 675 
Q 2931 909 2931 1356 
Q 2931 1769 2642 2001 
Q 2353 2234 1838 2234 
L 1294 2234 
L 1294 2753 
L 1863 2753 
Q 2328 2753 2575 2939 
Q 2822 3125 2822 3475 
Q 2822 3834 2567 4026 
Q 2313 4219 1838 4219 
Q 1578 4219 1281 4162 
Q 984 4106 628 3988 
L 628 4550 
Q 988 4650 1302 4700 
Q 1616 4750 1894 4750 
Q 2613 4750 3031 4423 
Q 3450 4097 3450 3541 
Q 3450 3153 3228 2886 
Q 3006 2619 2597 2516 
z
" transform="scale(0.015625)"/>
       </defs>
       <use xlink:href="#DejaVuSans-33"/>
       <use xlink:href="#DejaVuSans-30" transform="translate(63.623047 0)"/>
      </g>
     </g>
    </g>
   </g>
   <g id="matplotlib.axis_4">
    <g id="ytick_10">
     <g id="line2d_77">
      <path d="M 37.1025 253.078125 
L 483.5025 253.078125 
" clip-path="url(#p12174df071)" style="fill: none; stroke-dasharray: 2.96,1.28; stroke-dashoffset: 0; stroke: #374151; stroke-opacity: 0.1; stroke-width: 0.8"/>
     </g>
     <g id="line2d_78">
      <g>
       <use xlink:href="#mcc36f523bb" x="37.1025" y="253.078125" style="fill: #9ca3af; stroke: #9ca3af; stroke-width: 0.8"/>
      </g>
     </g>
     <g id="text_18">
      <!-- 0 -->
      <g style="fill: #9ca3af" transform="translate(25.0125 256.1175) scale(0.08 -0.08)">
       <use xlink:href="#DejaVuSans-30"/>
      </g>
     </g>
    </g>
    <g id="ytick_11">
     <g id="line2d_79">
      <path d="M 37.1025 231.732923 
L 483.5025 231.732923 
" clip-path="url(#p12174df071)" style="fill: none; stroke-dasharray: 2.96,1.28; stroke-dashoffset: 0; stroke: #374151; stroke-opacity: 0.1; stroke-width: 0.8"/>
     </g>
     <g id="line2d_80">
      <g>
       <use xlink:href="#mcc36f523bb" x="37.1025" y="231.732923" style="fill: #9ca3af; stroke: #9ca3af; stroke-width: 0.8"/>
      </g>
     </g>
     <g id="text_19">
      <!-- 2 -->
      <g style="fill: #9ca3af" transform="translate(25.0125 234.772298) scale(0.08 -0.08)">
       <use xlink:href="#DejaVuSans-32"/>
      </g>
     </g>
    </g>
    <g id="ytick_12">
     <g id="line2d_81">
      <path d="M 37.1025 210.387721 
L 483.5025 210.387721 
" clip-path="url(#p12174df071)" style="fill: none; stroke-dasharray: 2.96,1.28; stroke-dashoffset: 0; stroke: #374151; stroke-opacity: 0.1; stroke-width: 0.8"/>
     </g>
     <g id="line2d_82">
      <g>
       <use xlink:href="#mcc36f523bb" x="37.1025" y="210.387721" style="fill: #9ca3af; stroke: #9ca3af; stroke-width: 0.8"/>
      </g>
     </g>
     <g id="text_20">
      <!-- 4 -->
      <g style="fill: #9ca3af" transform="translate(25.0125 213.427096) scale(0.08 -0.08)">
       <defs>
        <path id="DejaVuSans-34" d="M 2419 4116 
L 825 1625 
L 2419 1625 
L 2419 4116 
z
M 2253 4666 
L 3047 4666 
L 3047 1625 
L 3713 1625 
L 3713 1100 
L 3047 1100 
L 3047 0 
L 2419 0 
L 2419 1100 
L 313 1100 
L 313 1709 
L 2253 4666 
z
" transform="scale(0.015625)"/>
       </defs>
       <use xlink:href="#DejaVuSans-34"/>
      </g>
     </g>
    </g>
    <g id="text_21">
     <!-- Vol -->
     <g style="fill: #9ca3af" transform="translate(19.34875 232.019223) rotate(-90) scale(0.08 -0.08)">
      <defs>
       <path id="DejaVuSans-56" d="M 1831 0 
L 50 4666 
L 709 4666 
L 2188 738 
L 3669 4666 
L 4325 4666 
L 2547 0 
L 1831 0 
z
" transform="scale(0.015625)"/>
       <path id="DejaVuSans-6f" d="M 1959 3097 
Q 1497 3097 1228 2736 
Q 959 2375 959 1747 
Q 959 1119 1226 758 
Q 1494 397 1959 397 
Q 2419 397 2687 759 
Q 2956 1122 2956 1747 
Q 2956 2369 2687 2733 
Q 2419 3097 1959 3097 
z
M 1959 3584 
Q 2709 3584 3137 3096 
Q 3566 2609 3566 1747 
Q 3566 888 3137 398 
Q 2709 -91 1959 -91 
Q 1206 -91 779 398 
Q 353 888 353 1747 
Q 353 2609 779 3096 
Q 1206 3584 1959 3584 
z
" transform="scale(0.015625)"/>
       <path id="DejaVuSans-6c" d="M 603 4863 
L 1178 4863 
L 1178 0 
L 603 0 
L 603 4863 
z
" transform="scale(0.015625)"/>
      </defs>
      <use xlink:href="#DejaVuSans-56"/>
      <use xlink:href="#DejaVuSans-6f" transform="translate(60.658203 0)"/>
      <use xlink:href="#DejaVuSans-6c" transform="translate(121.839844 0)"/>
     </g>
    </g>
    <g id="text_22">
     <!-- 1e6 -->
     <g style="fill: #9ca3af" transform="translate(37.1025 195.99032) scale(0.1 -0.1)">
      <defs>
       <path id="DejaVuSans-65" d="M 3597 1894 
L 3597 1613 
L 953 1613 
Q 991 1019 1311 708 
Q 1631 397 2203 397 
Q 2534 397 2845 478 
Q 3156 559 3463 722 
L 3463 178 
Q 3153 47 2828 -22 
Q 2503 -91 2169 -91 
Q 1331 -91 842 396 
Q 353 884 353 1716 
Q 353 2575 817 3079 
Q 1281 3584 2069 3584 
Q 2775 3584 3186 3129 
Q 3597 2675 3597 1894 
z
M 3022 2063 
Q 3016 2534 2758 2815 
Q 2500 3097 2075 3097 
Q 1594 3097 1305 2825 
Q 1016 2553 972 2059 
L 3022 2063 
z
" transform="scale(0.015625)"/>
       <path id="DejaVuSans-36" d="M 2113 2584 
Q 1688 2584 1439 2293 
Q 1191 2003 1191 1497 
Q 1191 994 1439 701 
Q 1688 409 2113 409 
Q 2538 409 2786 701 
Q 3034 994 3034 1497 
Q 3034 2003 2786 2293 
Q 2538 2584 2113 2584 
z
M 3366 4563 
L 3366 3988 
Q 3128 4100 2886 4159 
Q 2644 4219 2406 4219 
Q 1781 4219 1451 3797 
Q 1122 3375 1075 2522 
Q 1259 2794 1537 2939 
Q 1816 3084 2150 3084 
Q 2853 3084 3261 2657 
Q 3669 2231 3669 1497 
Q 3669 778 3244 343 
Q 2819 -91 2113 -91 
Q 1303 -91 875 529 
Q 447 1150 447 2328 
Q 447 3434 972 4092 
Q 1497 4750 2381 4750 
Q 2619 4750 2861 4703 
Q 3103 4656 3366 4563 
z
" transform="scale(0.015625)"/>
      </defs>
      <use xlink:href="#DejaVuSans-31"/>
      <use xlink:href="#DejaVuSans-65" transform="translate(63.623047 0)"/>
      <use xlink:href="#DejaVuSans-36" transform="translate(125.146484 0)"/>
     </g>
    </g>
   </g>
   <g id="patch_66">
    <path d="M 37.1025 253.078125 
L 37.1025 198.99032 
" style="fill: none; stroke: #1f2937; stroke-width: 0.8; stroke-linejoin: miter; stroke-linecap: square"/>
   </g>
   <g id="patch_67">
    <path d="M 37.1025 253.078125 
L 483.5025 253.078125 
" style="fill: none; stroke: #1f2937; stroke-width: 0.8; stroke-linejoin: miter; stroke-linecap: square"/>
   </g>
  </g>
 </g>
 <defs>
  <clipPath id="p5fba3a55c2">
   <rect x="37.1025" y="31.318125" width="446.4" height="162.263415"/>
  </clipPath>
  <clipPath id="p12174df071">
   <rect x="37.1025" y="198.99032" width="446.4" height="54.087805"/>
  </clipPath>
 </defs>
</svg>
