<?xml version="1.0" encoding="utf-8" standalone="no"?>
<!DOCTYPE svg PUBLIC "-//W3C//DTD SVG 1.1//EN"
  "http://www.w3.org/Graphics/SVG/1.1/DTD/svg11.dtd">
<svg xmlns:xlink="http://www.w3.org/1999/xlink" width="483.028437pt" height="267.533125pt" viewBox="0 0 483.028437 267.533125" xmlns="http://www.w3.org/2000/svg" version="1.1">
 <metadata>
  <rdf:RDF xmlns:dc="http://purl.org/dc/elements/1.1/" xmlns:cc="http://creativecommons.org/ns#" xmlns:rdf="http://www.w3.org/1999/02/22-rdf-syntax-ns#">
   <cc:Work>
    <dc:type rdf:resource="http://purl.org/dc/dcmitype/StillImage"/>
    <dc:date>2026-02-16T00:23:04.589183</dc:date>
    <dc:format>image/svg+xml</dc:format>
    <dc:creator>
     <cc:Agent>
      <dc:title>Matplotlib v3.10.8, https://matplotlib.org/</dc:title>
     </cc:Agent>
    </dc:creator>
   </cc:Work>
  </rdf:RDF>
 </metadata>
 <defs>
  <style type="text/css">*{stroke-linejoin: round; stroke-linecap: butt}</style>
 </defs>
 <g id="figure_1">
  <g id="patch_1">
   <path d="M 0 267.533125 
L 483.028437 267.533125 
L 483.028437 0 
L 0 0 
z
" style="fill: #0a0f1a"/>
  </g>
  <g id="axes_1">
   <g id="patch_2">
    <path d="M 29.428438 187.061852 
L 475.828437 187.061852 
L 475.828437 24.798438 
L 29.428438 24.798438 
z
" style="fill: #0a0f1a"/>
   </g>
   <g id="patch_3">
    <path d="M 38.788438 104.004471 
L 48.868437 104.004471 
Q 49.156437 104.004471 49.156437 103.72867 
L 49.156437 90.526454 
Q 49.156437 90.250653 48.868437 90.250653 
L 38.788438 90.250653 
Q 38.500438 90.250653 38.500438 90.526454 
L 38.500438 103.72867 
Q 38.500438 104.004471 38.788438 104.004471 
z
" clip-path="url(#p20402c56fb)" style="fill: #22c55e; stroke: #22c55e; stroke-linejoin: miter"/>
   </g>
   <g id="patch_4">
    <path d="M 53.188437 84.898826 
L 63.268437 84.898826 
Q 63.556438 84.898826 63.556438 84.623025 
L 63.556438 64.367028 
Q 63.556438 64.091227 63.268437 64.091227 
L 53.188437 64.091227 
Q 52.900437 64.091227 52.900437 64.367028 
L 52.900437 84.623025 
Q 52.900437 84.898826 53.188437 84.898826 
z
" clip-path="url(#p20402c56fb)" style="fill: #22c55e; stroke: #22c55e; stroke-linejoin: miter"/>
   </g>
   <g id="patch_5">
    <path d="M 67.588437 79.70074 
L 77.668437 79.70074 
Q 77.956437 79.70074 77.956437 79.42494 
L 77.956437 67.26118 
Q 77.956437 66.98538 77.668437 66.98538 
L 67.588437 66.98538 
Q 67.300438 66.98538 67.300438 67.26118 
L 67.300438 79.42494 
Q 67.300438 79.70074 67.588437 79.70074 
z
" clip-path="url(#p20402c56fb)" style="fill: #22c55e; stroke: #22c55e; stroke-linejoin: miter"/>
   </g>
   <g id="patch_6">
    <path d="M 81.988438 83.92022 
L 92.068437 83.92022 
Q 92.356437 83.92022 92.356437 83.644419 
L 92.356437 74.292585 
Q 92.356437 74.016784 92.068437 74.016784 
L 81.988438 74.016784 
Q 81.700437 74.016784 81.700437 74.292585 
L 81.700437 83.644419 
Q 81.700437 83.92022 81.988438 83.92022 
z
" clip-path="url(#p20402c56fb)" style="fill: #22c55e; stroke: #22c55e; stroke-linejoin: miter"/>
   </g>
   <g id="patch_7">
    <path d="M 96.388437 106.660392 
L 106.468437 106.660392 
Q 106.756438 106.660392 106.756438 106.384592 
L 106.756438 97.740847 
Q 106.756438 97.465047 106.468437 97.465047 
L 96.388437 97.465047 
Q 96.100437 97.465047 96.100437 97.740847 
L 96.100437 106.384592 
Q 96.100437 106.660392 96.388437 106.660392 
z
" clip-path="url(#p20402c56fb)" style="fill: #ef4444; stroke: #ef4444; stroke-linejoin: miter"/>
   </g>
   <g id="patch_8">
    <path d="M 110.788437 107.707968 
L 120.868437 107.707968 
Q 121.156438 107.707968 121.156438 107.432167 
L 121.156438 86.093563 
Q 121.156438 85.817763 120.868437 85.817763 
L 110.788437 85.817763 
Q 110.500438 85.817763 110.500438 86.093563 
L 110.500438 107.432167 
Q 110.500438 107.707968 110.788437 107.707968 
z
" clip-path="url(#p20402c56fb)" style="fill: #ef4444; stroke: #ef4444; stroke-linejoin: miter"/>
   </g>
   <g id="patch_9">
    <path d="M 125.188437 84.503398 
L 135.268438 84.503398 
Q 135.556438 84.503398 135.556438 84.227598 
L 135.556438 73.131686 
Q 135.556438 72.855885 135.268438 72.855885 
L 125.188437 72.855885 
Q 124.900438 72.855885 124.900438 73.131686 
L 124.900438 84.227598 
Q 124.900438 84.503398 125.188437 84.503398 
z
" clip-path="url(#p20402c56fb)" style="fill: #22c55e; stroke: #22c55e; stroke-linejoin: miter"/>
   </g>
   <g id="patch_10">
    <path d="M 139.588437 94.720161 
L 149.668438 94.720161 
Q 149.956437 94.720161 149.956437 94.44436 
L 149.956437 81.744062 
Q 149.956437 81.468262 149.668438 81.468262 
L 139.588437 81.468262 
Q 139.300438 81.468262 139.300438 81.744062 
L 139.300438 94.44436 
Q 139.300438 94.720161 139.588437 94.720161 
z
" clip-path="url(#p20402c56fb)" style="fill: #22c55e; stroke: #22c55e; stroke-linejoin: miter"/>
   </g>
   <g id="patch_11">
    <path d="M 153.988438 72.122676 
L 164.068438 72.122676 
Q 164.356437 72.122676 164.356437 71.846876 
L 164.356437 64.729646 
Q 164.356437 64.453845 164.068438 64.453845 
L 153.988438 64.453845 
Q 153.700437 64.453845 153.700437 64.729646 
L 153.700437 71.846876 
Q 153.700437 72.122676 153.988438 72.122676 
z
" clip-path="url(#p20402c56fb)" style="fill: #22c55e; stroke: #22c55e; stroke-linejoin: miter"/>
   </g>
   <g id="patch_12">
    <path d="M 168.388437 58.449379 
L 178.468438 58.449379 
Q 178.756438 58.449379 178.756438 58.173578 
L 178.756438 50.681313 
Q 178.756438 50.405513 178.468438 50.405513 
L 168.388437 50.405513 
Q 168.100437 50.405513 168.100437 50.681313 
L 168.100437 58.173578 
Q 168.100437 58.449379 168.388437 58.449379 
z
" clip-path="url(#p20402c56fb)" style="fill: #22c55e; stroke: #22c55e; stroke-linejoin: miter"/>
   </g>
   <g id="patch_13">
    <path d="M 182.788437 97.889239 
L 192.868437 97.889239 
Q 193.156438 97.889239 193.156438 97.613438 
L 193.156438 80.823531 
Q 193.156438 80.547731 192.868437 80.547731 
L 182.788437 80.547731 
Q 182.500438 80.547731 182.500438 80.823531 
L 182.500438 97.613438 
Q 182.500438 97.889239 182.788437 97.889239 
z
" clip-path="url(#p20402c56fb)" style="fill: #ef4444; stroke: #ef4444; stroke-linejoin: miter"/>
   </g>
   <g id="patch_14">
    <path d="M 197.188437 85.461625 
L 207.268438 85.461625 
Q 207.556438 85.461625 207.556438 85.185824 
L 207.556438 75.105122 
Q 207.556438 74.829322 207.268438 74.829322 
L 197.188437 74.829322 
Q 196.900438 74.829322 196.900438 75.105122 
L 196.900438 85.185824 
Q 196.900438 85.461625 197.188437 85.461625 
z
" clip-path="url(#p20402c56fb)" style="fill: #ef4444; stroke: #ef4444; stroke-linejoin: miter"/>
   </g>
   <g id="patch_15">
    <path d="M 211.588437 124.588176 
L 221.668438 124.588176 
Q 221.956437 124.588176 221.956437 124.312376 
L 221.956437 108.746933 
Q 221.956437 108.471132 221.668438 108.471132 
L 211.588437 108.471132 
Q 211.300438 108.471132 211.300438 108.746933 
L 211.300438 124.312376 
Q 211.300438 124.588176 211.588437 124.588176 
z
" clip-path="url(#p20402c56fb)" style="fill: #22c55e; stroke: #22c55e; stroke-linejoin: miter"/>
   </g>
   <g id="patch_16">
    <path d="M 225.988438 126.458125 
L 236.068438 126.458125 
Q 236.356437 126.458125 236.356437 126.182324 
L 236.356437 109.928338 
Q 236.356437 109.652537 236.068438 109.652537 
L 225.988438 109.652537 
Q 225.700437 109.652537 225.700437 109.928338 
L 225.700437 126.182324 
Q 225.700437 126.458125 225.988438 126.458125 
z
" clip-path="url(#p20402c56fb)" style="fill: #22c55e; stroke: #22c55e; stroke-linejoin: miter"/>
   </g>
   <g id="patch_17">
    <path d="M 240.388437 96.9329 
L 250.468437 96.9329 
Q 250.756438 96.9329 250.756438 96.657099 
L 250.756438 71.10391 
Q 250.756438 70.82811 250.468437 70.82811 
L 240.388437 70.82811 
Q 240.100437 70.82811 240.100437 71.10391 
L 240.100437 96.657099 
Q 240.100437 96.9329 240.388437 96.9329 
z
" clip-path="url(#p20402c56fb)" style="fill: #22c55e; stroke: #22c55e; stroke-linejoin: miter"/>
   </g>
   <g id="patch_18">
    <path d="M 254.788437 88.425309 
L 264.868437 88.425309 
Q 265.156437 88.425309 265.156437 88.149508 
L 265.156437 73.397796 
Q 265.156437 73.121996 264.868437 73.121996 
L 254.788437 73.121996 
Q 254.500438 73.121996 254.500438 73.397796 
L 254.500438 88.149508 
Q 254.500438 88.425309 254.788437 88.425309 
z
" clip-path="url(#p20402c56fb)" style="fill: #ef4444; stroke: #ef4444; stroke-linejoin: miter"/>
   </g>
   <g id="patch_19">
    <path d="M 269.188437 89.159587 
L 279.268438 89.159587 
Q 279.556437 89.159587 279.556437 88.883787 
L 279.556437 79.765056 
Q 279.556437 79.489256 279.268438 79.489256 
L 269.188437 79.489256 
Q 268.900438 79.489256 268.900438 79.765056 
L 268.900438 88.883787 
Q 268.900438 89.159587 269.188437 89.159587 
z
" clip-path="url(#p20402c56fb)" style="fill: #ef4444; stroke: #ef4444; stroke-linejoin: miter"/>
   </g>
   <g id="patch_20">
    <path d="M 283.588437 73.290457 
L 293.668437 73.290457 
Q 293.956437 73.290457 293.956437 73.014657 
L 293.956437 50.654326 
Q 293.956437 50.378525 293.668437 50.378525 
L 283.588437 50.378525 
Q 283.300437 50.378525 283.300437 50.654326 
L 283.300437 73.014657 
Q 283.300437 73.290457 283.588437 73.290457 
z
" clip-path="url(#p20402c56fb)" style="fill: #22c55e; stroke: #22c55e; stroke-linejoin: miter"/>
   </g>
   <g id="patch_21">
    <path d="M 297.988437 100.389844 
L 308.068437 100.389844 
Q 308.356437 100.389844 308.356437 100.114044 
L 308.356437 72.595741 
Q 308.356437 72.31994 308.068437 72.31994 
L 297.988437 72.31994 
Q 297.700437 72.31994 297.700437 72.595741 
L 297.700437 100.114044 
Q 297.700437 100.389844 297.988437 100.389844 
z
" clip-path="url(#p20402c56fb)" style="fill: #ef4444; stroke: #ef4444; stroke-linejoin: miter"/>
   </g>
   <g id="patch_22">
    <path d="M 312.388437 106.952726 
L 322.468437 106.952726 
Q 322.756437 106.952726 322.756437 106.676926 
L 322.756437 86.995897 
Q 322.756437 86.720097 322.468437 86.720097 
L 312.388437 86.720097 
Q 312.100437 86.720097 312.100437 86.995897 
L 312.100437 106.676926 
Q 312.100437 106.952726 312.388437 106.952726 
z
" clip-path="url(#p20402c56fb)" style="fill: #22c55e; stroke: #22c55e; stroke-linejoin: miter"/>
   </g>
   <g id="patch_23">
    <path d="M 326.788437 102.948035 
L 336.868437 102.948035 
Q 337.156437 102.948035 337.156437 102.672235 
L 337.156437 91.262735 
Q 337.156437 90.986935 336.868437 90.986935 
L 326.788437 90.986935 
Q 326.500437 90.986935 326.500437 91.262735 
L 326.500437 102.672235 
Q 326.500437 102.948035 326.788437 102.948035 
z
" clip-path="url(#p20402c56fb)" style="fill: #22c55e; stroke: #22c55e; stroke-linejoin: miter"/>
   </g>
   <g id="patch_24">
    <path d="M 341.188437 99.250214 
L 351.268437 99.250214 
Q 351.556437 99.250214 351.556437 98.974414 
L 351.556437 81.056315 
Q 351.556437 80.780515 351.268437 80.780515 
L 341.188437 80.780515 
Q 340.900437 80.780515 340.900437 81.056315 
L 340.900437 98.974414 
Q 340.900437 99.250214 341.188437 99.250214 
z
" clip-path="url(#p20402c56fb)" style="fill: #22c55e; stroke: #22c55e; stroke-linejoin: miter"/>
   </g>
   <g id="patch_25">
    <path d="M 355.588437 105.940497 
L 365.668437 105.940497 
Q 365.956437 105.940497 365.956437 105.664697 
L 365.956437 79.033902 
Q 365.956437 78.758102 365.668437 78.758102 
L 355.588437 78.758102 
Q 355.300437 78.758102 355.300437 79.033902 
L 355.300437 105.664697 
Q 355.300437 105.940497 355.588437 105.940497 
z
" clip-path="url(#p20402c56fb)" style="fill: #22c55e; stroke: #22c55e; stroke-linejoin: miter"/>
   </g>
   <g id="patch_26">
    <path d="M 369.988437 127.421225 
L 380.068437 127.421225 
Q 380.356437 127.421225 380.356437 127.145425 
L 380.356437 111.186998 
Q 380.356437 110.911198 380.068437 110.911198 
L 369.988437 110.911198 
Q 369.700437 110.911198 369.700437 111.186998 
L 369.700437 127.145425 
Q 369.700437 127.421225 369.988437 127.421225 
z
" clip-path="url(#p20402c56fb)" style="fill: #ef4444; stroke: #ef4444; stroke-linejoin: miter"/>
   </g>
   <g id="patch_27">
    <path d="M 384.388437 164.35198 
L 394.468437 164.35198 
Q 394.756437 164.35198 394.756437 164.07618 
L 394.756437 150.329221 
Q 394.756437 150.053421 394.468437 150.053421 
L 384.388437 150.053421 
Q 384.100437 150.053421 384.100437 150.329221 
L 384.100437 164.07618 
Q 384.100437 164.35198 384.388437 164.35198 
z
" clip-path="url(#p20402c56fb)" style="fill: #22c55e; stroke: #22c55e; stroke-linejoin: miter"/>
   </g>
   <g id="patch_28">
    <path d="M 398.788437 125.377524 
L 408.868437 125.377524 
Q 409.156437 125.377524 409.156437 125.101724 
L 409.156437 115.275318 
Q 409.156437 114.999518 408.868437 114.999518 
L 398.788437 114.999518 
Q 398.500437 114.999518 398.500437 115.275318 
L 398.500437 125.101724 
Q 398.500437 125.377524 398.788437 125.377524 
z
" clip-path="url(#p20402c56fb)" style="fill: #22c55e; stroke: #22c55e; stroke-linejoin: miter"/>
   </g>
   <g id="patch_29">
    <path d="M 413.188437 97.989354 
L 423.268437 97.989354 
Q 423.556437 97.989354 423.556437 97.713553 
L 423.556437 91.929781 
Q 423.556437 91.653981 423.268437 91.653981 
L 413.188437 91.653981 
Q 412.900437 91.653981 412.900437 91.929781 
L 412.900437 97.713553 
Q 412.900437 97.989354 413.188437 97.989354 
z
" clip-path="url(#p20402c56fb)" style="fill: #ef4444; stroke: #ef4444; stroke-linejoin: miter"/>
   </g>
   <g id="patch_30">
    <path d="M 427.588437 94.025084 
L 437.668437 94.025084 
Q 437.956437 94.025084 437.956437 93.749284 
L 437.956437 86.476885 
Q 437.956437 86.201085 437.668437 86.201085 
L 427.588437 86.201085 
Q 427.300437 86.201085 427.300437 86.476885 
L 427.300437 93.749284 
Q 427.300437 94.025084 427.588437 94.025084 
z
" clip-path="url(#p20402c56fb)" style="fill: #22c55e; stroke: #22c55e; stroke-linejoin: miter"/>
   </g>
   <g id="patch_31">
    <path d="M 441.988437 103.080296 
L 452.068437 103.080296 
Q 452.356437 103.080296 452.356437 102.804496 
L 452.356437 82.842648 
Q 452.356437 82.566848 452.068437 82.566848 
L 441.988437 82.566848 
Q 441.700437 82.566848 441.700437 82.842648 
L 441.700437 102.804496 
Q 441.700437 103.080296 441.988437 103.080296 
z
" clip-path="url(#p20402c56fb)" style="fill: #22c55e; stroke: #22c55e; stroke-linejoin: miter"/>
   </g>
   <g id="patch_32">
    <path d="M 456.388437 87.410289 
L 466.468437 87.410289 
Q 466.756437 87.410289 466.756437 87.134489 
L 466.756437 59.835906 
Q 466.756437 59.560105 466.468437 59.560105 
L 456.388437 59.560105 
Q 456.100437 59.560105 456.100437 59.835906 
L 456.100437 87.134489 
Q 456.100437 87.410289 456.388437 87.410289 
z
" clip-path="url(#p20402c56fb)" style="fill: #22c55e; stroke: #22c55e; stroke-linejoin: miter"/>
   </g>
   <g id="matplotlib.axis_1">
    <g id="xtick_1">
     <g id="line2d_1">
      <path d="M 43.828437 187.061852 
L 43.828437 24.798438 
" clip-path="url(#p20402c56fb)" style="fill: none; stroke: #374151; stroke-opacity: 0.1; stroke-width: 0.8; stroke-linecap: square"/>
     </g>
     <g id="line2d_2">
      <defs>
       <path id="mc2f39b7168" d="M 0 0 
L 0 3.5 
" style="stroke: #4b5563; stroke-width: 0.8"/>
      </defs>
      <g>
       <use xlink:href="#mc2f39b7168" x="43.828437" y="187.061852" style="fill: #4b5563; stroke: #4b5563; stroke-width: 0.8"/>
      </g>
     </g>
    </g>
    <g id="xtick_2">
     <g id="line2d_3">
      <path d="M 115.828438 187.061852 
L 115.828438 24.798438 
" clip-path="url(#p20402c56fb)" style="fill: none; stroke: #374151; stroke-opacity: 0.1; stroke-width: 0.8; stroke-linecap: square"/>
     </g>
     <g id="line2d_4">
      <g>
       <use xlink:href="#mc2f39b7168" x="115.828438" y="187.061852" style="fill: #4b5563; stroke: #4b5563; stroke-width: 0.8"/>
      </g>
     </g>
    </g>
    <g id="xtick_3">
     <g id="line2d_5">
      <path d="M 187.828438 187.061852 
L 187.828438 24.798438 
" clip-path="url(#p20402c56fb)" style="fill: none; stroke: #374151; stroke-opacity: 0.1; stroke-width: 0.8; stroke-linecap: square"/>
     </g>
     <g id="line2d_6">
      <g>
       <use xlink:href="#mc2f39b7168" x="187.828438" y="187.061852" style="fill: #4b5563; stroke: #4b5563; stroke-width: 0.8"/>
      </g>
     </g>
    </g>
    <g id="xtick_4">
     <g id="line2d_7">
      <path d="M 259.828437 187.061852 
L 259.828437 24.798438 
" clip-path="url(#p20402c56fb)" style="fill: none; stroke: #374151; stroke-opacity: 0.1; stroke-width: 0.8; stroke-linecap: square"/>
     </g>
     <g id="line2d_8">
      <g>
       <use xlink:href="#mc2f39b7168" x="259.828437" y="187.061852" style="fill: #4b5563; stroke: #4b5563; stroke-width: 0.8"/>
      </g>
     </g>
    </g>
    <g id="xtick_5">
     <g id="line2d_9">
      <path d="M 331.828438 187.061852 
L 331.828438 24.798438 
" clip-path="url(#p20402c56fb)" style="fill: none; stroke: #374151; stroke-opacity: 0.1; stroke-width: 0.8; stroke-linecap: square"/>
     </g>
     <g id="line2d_10">
      <g>
       <use xlink:href="#mc2f39b7168" x="331.828438" y="187.061852" style="fill: #4b5563; stroke: #4b5563; stroke-width: 0.8"/>
      </g>
     </g>
    </g>
    <g id="xtick_6">
     <g id="line2d_11">
      <path d="M 403.828437 187.061852 
L 403.828437 24.798438 
" clip-path="url(#p20402c56fb)" style="fill: none; stroke: #374151; stroke-opacity: 0.1; stroke-width: 0.8; stroke-linecap: square"/>
     </g>
     <g id="line2d_12">
      <g>
       <use xlink:href="#mc2f39b7168" x="403.828437" y="187.061852" style="fill: #4b5563; stroke: #4b5563; stroke-width: 0.8"/>
      </g>
     </g>
    </g>
    <g id="xtick_7">
     <g id="line2d_13">
      <path d="M 475.828437 187.061852 
L 475.828437 24.798438 
" clip-path="url(#p20402c56fb)" style="fill: none; stroke: #374151; stroke-opacity: 0.1; stroke-width: 0.8; stroke-linecap: square"/>
     </g>
     <g id="line2d_14">
      <g>
       <use xlink:href="#mc2f39b7168" x="475.828437" y="187.061852" style="fill: #4b5563; stroke: #4b5563; stroke-width: 0.8"/>
      </g>
     </g>
    </g>
   </g>
   <g id="matplotlib.axis_2">
    <g id="ytick_1">
     <g id="line2d_15">
      <path d="M 29.428438 179.867671 
L 475.828437 179.867671 
" clip-path="url(#p20402c56fb)" style="fill: none; stroke: #374151; stroke-opacity: 0.1; stroke-width: 0.8; stroke-linecap: square"/>
     </g>
     <g id="line2d_16">
      <defs>
       <path id="m45309d3e34" d="M 0 0 
L -3.5 0 
" style="stroke: #4b5563; stroke-width: 0.8"/>
      </defs>
      <g>
       <use xlink:href="#m45309d3e34" x="29.428438" y="179.867671" style="fill: #4b5563; stroke: #4b5563; stroke-width: 0.8"/>
      </g>
     </g>
     <g id="text_1">
      <!-- 94 -->
      <g style="fill: #4b5563" transform="translate(13.520938 182.527124) scale(0.07 -0.07)">
       <defs>
        <path id="DejaVuSans-39" d="M 703 97 
L 703 672 
Q 941 559 1184 500 
Q 1428 441 1663 441 
Q 2288 441 2617 861 
Q 2947 1281 2994 2138 
Q 2813 1869 2534 1725 
Q 2256 1581 1919 1581 
Q 1219 1581 811 2004 
Q 403 2428 403 3163 
Q 403 3881 828 4315 
Q 1253 4750 1959 4750 
Q 2769 4750 3195 4129 
Q 3622 3509 3622 2328 
Q 3622 1225 3098 567 
Q 2575 -91 1691 -91 
Q 1453 -91 1209 -44 
Q 966 3 703 97 
z
M 1959 2075 
Q 2384 2075 2632 2365 
Q 2881 2656 2881 3163 
Q 2881 3666 2632 3958 
Q 2384 4250 1959 4250 
Q 1534 4250 1286 3958 
Q 1038 3666 1038 3163 
Q 1038 2656 1286 2365 
Q 1534 2075 1959 2075 
z
" transform="scale(0.015625)"/>
        <path id="DejaVuSans-34" d="M 2419 4116 
L 825 1625 
L 2419 1625 
L 2419 4116 
z
M 2253 4666 
L 3047 4666 
L 3047 1625 
L 3713 1625 
L 3713 1100 
L 3047 1100 
L 3047 0 
L 2419 0 
L 2419 1100 
L 313 1100 
L 313 1709 
L 2253 4666 
z
" transform="scale(0.015625)"/>
       </defs>
       <use xlink:href="#DejaVuSans-39"/>
       <use xlink:href="#DejaVuSans-34" transform="translate(63.623047 0)"/>
      </g>
     </g>
    </g>
    <g id="ytick_2">
     <g id="line2d_17">
      <path d="M 29.428438 152.287635 
L 475.828437 152.287635 
" clip-path="url(#p20402c56fb)" style="fill: none; stroke: #374151; stroke-opacity: 0.1; stroke-width: 0.8; stroke-linecap: square"/>
     </g>
     <g id="line2d_18">
      <g>
       <use xlink:href="#m45309d3e34" x="29.428438" y="152.287635" style="fill: #4b5563; stroke: #4b5563; stroke-width: 0.8"/>
      </g>
     </g>
     <g id="text_2">
      <!-- 96 -->
      <g style="fill: #4b5563" transform="translate(13.520938 154.947088) scale(0.07 -0.07)">
       <defs>
        <path id="DejaVuSans-36" d="M 2113 2584 
Q 1688 2584 1439 2293 
Q 1191 2003 1191 1497 
Q 1191 994 1439 701 
Q 1688 409 2113 409 
Q 2538 409 2786 701 
Q 3034 994 3034 1497 
Q 3034 2003 2786 2293 
Q 2538 2584 2113 2584 
z
M 3366 4563 
L 3366 3988 
Q 3128 4100 2886 4159 
Q 2644 4219 2406 4219 
Q 1781 4219 1451 3797 
Q 1122 3375 1075 2522 
Q 1259 2794 1537 2939 
Q 1816 3084 2150 3084 
Q 2853 3084 3261 2657 
Q 3669 2231 3669 1497 
Q 3669 778 3244 343 
Q 2819 -91 2113 -91 
Q 1303 -91 875 529 
Q 447 1150 447 2328 
Q 447 3434 972 4092 
Q 1497 4750 2381 4750 
Q 2619 4750 2861 4703 
Q 3103 4656 3366 4563 
z
" transform="scale(0.015625)"/>
       </defs>
       <use xlink:href="#DejaVuSans-39"/>
       <use xlink:href="#DejaVuSans-36" transform="translate(63.623047 0)"/>
      </g>
     </g>
    </g>
    <g id="ytick_3">
     <g id="line2d_19">
      <path d="M 29.428438 124.707598 
L 475.828437 124.707598 
" clip-path="url(#p20402c56fb)" style="fill: none; stroke: #374151; stroke-opacity: 0.1; stroke-width: 0.8; stroke-linecap: square"/>
     </g>
     <g id="line2d_20">
      <g>
       <use xlink:href="#m45309d3e34" x="29.428438" y="124.707598" style="fill: #4b5563; stroke: #4b5563; stroke-width: 0.8"/>
      </g>
     </g>
     <g id="text_3">
      <!-- 98 -->
      <g style="fill: #4b5563" transform="translate(13.520938 127.367051) scale(0.07 -0.07)">
       <defs>
        <path id="DejaVuSans-38" d="M 2034 2216 
Q 1584 2216 1326 1975 
Q 1069 1734 1069 1313 
Q 1069 891 1326 650 
Q 1584 409 2034 409 
Q 2484 409 2743 651 
Q 3003 894 3003 1313 
Q 3003 1734 2745 1975 
Q 2488 2216 2034 2216 
z
M 1403 2484 
Q 997 2584 770 2862 
Q 544 3141 544 3541 
Q 544 4100 942 4425 
Q 1341 4750 2034 4750 
Q 2731 4750 3128 4425 
Q 3525 4100 3525 3541 
Q 3525 3141 3298 2862 
Q 3072 2584 2669 2484 
Q 3125 2378 3379 2068 
Q 3634 1759 3634 1313 
Q 3634 634 3220 271 
Q 2806 -91 2034 -91 
Q 1263 -91 848 271 
Q 434 634 434 1313 
Q 434 1759 690 2068 
Q 947 2378 1403 2484 
z
M 1172 3481 
Q 1172 3119 1398 2916 
Q 1625 2713 2034 2713 
Q 2441 2713 2670 2916 
Q 2900 3119 2900 3481 
Q 2900 3844 2670 4047 
Q 2441 4250 2034 4250 
Q 1625 4250 1398 4047 
Q 1172 3844 1172 3481 
z
" transform="scale(0.015625)"/>
       </defs>
       <use xlink:href="#DejaVuSans-39"/>
       <use xlink:href="#DejaVuSans-38" transform="translate(63.623047 0)"/>
      </g>
     </g>
    </g>
    <g id="ytick_4">
     <g id="line2d_21">
      <path d="M 29.428438 97.127562 
L 475.828437 97.127562 
" clip-path="url(#p20402c56fb)" style="fill: none; stroke: #374151; stroke-opacity: 0.1; stroke-width: 0.8; stroke-linecap: square"/>
     </g>
     <g id="line2d_22">
      <g>
       <use xlink:href="#m45309d3e34" x="29.428438" y="97.127562" style="fill: #4b5563; stroke: #4b5563; stroke-width: 0.8"/>
      </g>
     </g>
     <g id="text_4">
      <!-- 100 -->
      <g style="fill: #4b5563" transform="translate(9.067187 99.787015) scale(0.07 -0.07)">
       <defs>
        <path id="DejaVuSans-31" d="M 794 531 
L 1825 531 
L 1825 4091 
L 703 3866 
L 703 4441 
L 1819 4666 
L 2450 4666 
L 2450 531 
L 3481 531 
L 3481 0 
L 794 0 
L 794 531 
z
" transform="scale(0.015625)"/>
        <path id="DejaVuSans-30" d="M 2034 4250 
Q 1547 4250 1301 3770 
Q 1056 3291 1056 2328 
Q 1056 1369 1301 889 
Q 1547 409 2034 409 
Q 2525 409 2770 889 
Q 3016 1369 3016 2328 
Q 3016 3291 2770 3770 
Q 2525 4250 2034 4250 
z
M 2034 4750 
Q 2819 4750 3233 4129 
Q 3647 3509 3647 2328 
Q 3647 1150 3233 529 
Q 2819 -91 2034 -91 
Q 1250 -91 836 529 
Q 422 1150 422 2328 
Q 422 3509 836 4129 
Q 1250 4750 2034 4750 
z
" transform="scale(0.015625)"/>
       </defs>
       <use xlink:href="#DejaVuSans-31"/>
       <use xlink:href="#DejaVuSans-30" transform="translate(63.623047 0)"/>
       <use xlink:href="#DejaVuSans-30" transform="translate(127.246094 0)"/>
      </g>
     </g>
    </g>
    <g id="ytick_5">
     <g id="line2d_23">
      <path d="M 29.428438 69.547525 
L 475.828437 69.547525 
" clip-path="url(#p20402c56fb)" style="fill: none; stroke: #374151; stroke-opacity: 0.1; stroke-width: 0.8; stroke-linecap: square"/>
     </g>
     <g id="line2d_24">
      <g>
       <use xlink:href="#m45309d3e34" x="29.428438" y="69.547525" style="fill: #4b5563; stroke: #4b5563; stroke-width: 0.8"/>
      </g>
     </g>
     <g id="text_5">
      <!-- 102 -->
      <g style="fill: #4b5563" transform="translate(9.067187 72.206978) scale(0.07 -0.07)">
       <defs>
        <path id="DejaVuSans-32" d="M 1228 531 
L 3431 531 
L 3431 0 
L 469 0 
L 469 531 
Q 828 903 1448 1529 
Q 2069 2156 2228 2338 
Q 2531 2678 2651 2914 
Q 2772 3150 2772 3378 
Q 2772 3750 2511 3984 
Q 2250 4219 1831 4219 
Q 1534 4219 1204 4116 
Q 875 4013 500 3803 
L 500 4441 
Q 881 4594 1212 4672 
Q 1544 4750 1819 4750 
Q 2544 4750 2975 4387 
Q 3406 4025 3406 3419 
Q 3406 3131 3298 2873 
Q 3191 2616 2906 2266 
Q 2828 2175 2409 1742 
Q 1991 1309 1228 531 
z
" transform="scale(0.015625)"/>
       </defs>
       <use xlink:href="#DejaVuSans-31"/>
       <use xlink:href="#DejaVuSans-30" transform="translate(63.623047 0)"/>
       <use xlink:href="#DejaVuSans-32" transform="translate(127.246094 0)"/>
      </g>
     </g>
    </g>
    <g id="ytick_6">
     <g id="line2d_25">
      <path d="M 29.428438 41.967489 
L 475.828437 41.967489 
" clip-path="url(#p20402c56fb)" style="fill: none; stroke: #374151; stroke-opacity: 0.1; stroke-width: 0.8; stroke-linecap: square"/>
     </g>
     <g id="line2d_26">
      <g>
       <use xlink:href="#m45309d3e34" x="29.428438" y="41.967489" style="fill: #4b5563; stroke: #4b5563; stroke-width: 0.8"/>
      </g>
     </g>
     <g id="text_6">
      <!-- 104 -->
      <g style="fill: #4b5563" transform="translate(9.067187 44.626942) scale(0.07 -0.07)">
       <use xlink:href="#DejaVuSans-31"/>
       <use xlink:href="#DejaVuSans-30" transform="translate(63.623047 0)"/>
       <use xlink:href="#DejaVuSans-34" transform="translate(127.246094 0)"/>
      </g>
     </g>
    </g>
   </g>
   <g id="line2d_27">
    <path d="M 43.828437 110.656007 
L 43.828437 88.791999 
" clip-path="url(#p20402c56fb)" style="fill: none; stroke: #22c55e; stroke-width: 0.8; stroke-linecap: square"/>
   </g>
   <g id="line2d_28">
    <path d="M 58.228437 104.528288 
L 58.228437 52.745222 
" clip-path="url(#p20402c56fb)" style="fill: none; stroke: #22c55e; stroke-width: 0.8; stroke-linecap: square"/>
   </g>
   <g id="line2d_29">
    <path d="M 72.628437 98.355838 
L 72.628437 63.870504 
" clip-path="url(#p20402c56fb)" style="fill: none; stroke: #22c55e; stroke-width: 0.8; stroke-linecap: square"/>
   </g>
   <g id="line2d_30">
    <path d="M 87.028437 94.542328 
L 87.028437 67.312086 
" clip-path="url(#p20402c56fb)" style="fill: none; stroke: #22c55e; stroke-width: 0.8; stroke-linecap: square"/>
   </g>
   <g id="line2d_31">
    <path d="M 101.428438 123.36654 
L 101.428438 85.859117 
" clip-path="url(#p20402c56fb)" style="fill: none; stroke: #ef4444; stroke-width: 0.8; stroke-linecap: square"/>
   </g>
   <g id="line2d_32">
    <path d="M 115.828438 114.428005 
L 115.828438 78.688557 
" clip-path="url(#p20402c56fb)" style="fill: none; stroke: #ef4444; stroke-width: 0.8; stroke-linecap: square"/>
   </g>
   <g id="line2d_33">
    <path d="M 130.228437 92.616851 
L 130.228437 52.986997 
" clip-path="url(#p20402c56fb)" style="fill: none; stroke: #22c55e; stroke-width: 0.8; stroke-linecap: square"/>
   </g>
   <g id="line2d_34">
    <path d="M 144.628437 107.202639 
L 144.628437 74.537153 
" clip-path="url(#p20402c56fb)" style="fill: none; stroke: #22c55e; stroke-width: 0.8; stroke-linecap: square"/>
   </g>
   <g id="line2d_35">
    <path d="M 159.028437 88.892308 
L 159.028437 51.985285 
" clip-path="url(#p20402c56fb)" style="fill: none; stroke: #22c55e; stroke-width: 0.8; stroke-linecap: square"/>
   </g>
   <g id="line2d_36">
    <path d="M 173.428438 61.494592 
L 173.428438 32.174047 
" clip-path="url(#p20402c56fb)" style="fill: none; stroke: #22c55e; stroke-width: 0.8; stroke-linecap: square"/>
   </g>
   <g id="line2d_37">
    <path d="M 187.828438 111.718359 
L 187.828438 71.543836 
" clip-path="url(#p20402c56fb)" style="fill: none; stroke: #ef4444; stroke-width: 0.8; stroke-linecap: square"/>
   </g>
   <g id="line2d_38">
    <path d="M 202.228437 104.189337 
L 202.228437 71.819281 
" clip-path="url(#p20402c56fb)" style="fill: none; stroke: #ef4444; stroke-width: 0.8; stroke-linecap: square"/>
   </g>
   <g id="line2d_39">
    <path d="M 216.628437 137.602599 
L 216.628437 89.788364 
" clip-path="url(#p20402c56fb)" style="fill: none; stroke: #22c55e; stroke-width: 0.8; stroke-linecap: square"/>
   </g>
   <g id="line2d_40">
    <path d="M 231.028437 144.8994 
L 231.028437 105.490416 
" clip-path="url(#p20402c56fb)" style="fill: none; stroke: #22c55e; stroke-width: 0.8; stroke-linecap: square"/>
   </g>
   <g id="line2d_41">
    <path d="M 245.428437 104.528103 
L 245.428437 53.826256 
" clip-path="url(#p20402c56fb)" style="fill: none; stroke: #22c55e; stroke-width: 0.8; stroke-linecap: square"/>
   </g>
   <g id="line2d_42">
    <path d="M 259.828437 89.759887 
L 259.828437 65.950199 
" clip-path="url(#p20402c56fb)" style="fill: none; stroke: #ef4444; stroke-width: 0.8; stroke-linecap: square"/>
   </g>
   <g id="line2d_43">
    <path d="M 274.228437 106.821874 
L 274.228437 63.076647 
" clip-path="url(#p20402c56fb)" style="fill: none; stroke: #ef4444; stroke-width: 0.8; stroke-linecap: square"/>
   </g>
   <g id="line2d_44">
    <path d="M 288.628437 92.553517 
L 288.628437 40.927428 
" clip-path="url(#p20402c56fb)" style="fill: none; stroke: #22c55e; stroke-width: 0.8; stroke-linecap: square"/>
   </g>
   <g id="line2d_45">
    <path d="M 303.028437 116.527004 
L 303.028437 60.756597 
" clip-path="url(#p20402c56fb)" style="fill: none; stroke: #ef4444; stroke-width: 0.8; stroke-linecap: square"/>
   </g>
   <g id="line2d_46">
    <path d="M 317.428437 124.075647 
L 317.428437 82.516015 
" clip-path="url(#p20402c56fb)" style="fill: none; stroke: #22c55e; stroke-width: 0.8; stroke-linecap: square"/>
   </g>
   <g id="line2d_47">
    <path d="M 331.828438 115.775912 
L 331.828438 85.613894 
" clip-path="url(#p20402c56fb)" style="fill: none; stroke: #22c55e; stroke-width: 0.8; stroke-linecap: square"/>
   </g>
   <g id="line2d_48">
    <path d="M 346.228437 105.823756 
L 346.228437 60.403417 
" clip-path="url(#p20402c56fb)" style="fill: none; stroke: #22c55e; stroke-width: 0.8; stroke-linecap: square"/>
   </g>
   <g id="line2d_49">
    <path d="M 360.628437 125.560352 
L 360.628437 75.655076 
" clip-path="url(#p20402c56fb)" style="fill: none; stroke: #22c55e; stroke-width: 0.8; stroke-linecap: square"/>
   </g>
   <g id="line2d_50">
    <path d="M 375.028437 128.727836 
L 375.028437 96.537722 
" clip-path="url(#p20402c56fb)" style="fill: none; stroke: #ef4444; stroke-width: 0.8; stroke-linecap: square"/>
   </g>
   <g id="line2d_51">
    <path d="M 389.428437 179.686242 
L 389.428437 147.459758 
" clip-path="url(#p20402c56fb)" style="fill: none; stroke: #22c55e; stroke-width: 0.8; stroke-linecap: square"/>
   </g>
   <g id="line2d_52">
    <path d="M 403.828437 140.718564 
L 403.828437 97.708638 
" clip-path="url(#p20402c56fb)" style="fill: none; stroke: #22c55e; stroke-width: 0.8; stroke-linecap: square"/>
   </g>
   <g id="line2d_53">
    <path d="M 418.228437 101.072277 
L 418.228437 87.539848 
" clip-path="url(#p20402c56fb)" style="fill: none; stroke: #ef4444; stroke-width: 0.8; stroke-linecap: square"/>
   </g>
   <g id="line2d_54">
    <path d="M 432.628437 103.534729 
L 432.628437 82.765213 
" clip-path="url(#p20402c56fb)" style="fill: none; stroke: #22c55e; stroke-width: 0.8; stroke-linecap: square"/>
   </g>
   <g id="line2d_55">
    <path d="M 447.028437 106.115159 
L 447.028437 73.005772 
" clip-path="url(#p20402c56fb)" style="fill: none; stroke: #22c55e; stroke-width: 0.8; stroke-linecap: square"/>
   </g>
   <g id="line2d_56">
    <path d="M 461.428437 101.957771 
L 461.428437 39.62375 
" clip-path="url(#p20402c56fb)" style="fill: none; stroke: #22c55e; stroke-width: 0.8; stroke-linecap: square"/>
   </g>
   <g id="patch_33">
    <path d="M 29.428438 187.061852 
L 29.428438 24.798438 
" style="fill: none; stroke: #1f2937; stroke-width: 0.8; stroke-linejoin: miter; stroke-linecap: square"/>
   </g>
   <g id="patch_34">
    <path d="M 29.428438 187.061852 
L 475.828437 187.061852 
" style="fill: none; stroke: #1f2937; stroke-width: 0.8; stroke-linejoin: miter; stroke-linecap: square"/>
   </g>
   <g id="text_7">
    <!-- Harami Cross (Bearish) — AAPL 1D -->
    <g style="fill: #ffffff" transform="translate(154.999531 14.798438) scale(0.1 -0.1)">
     <defs>
      <path id="DejaVuSans-Bold-48" d="M 588 4666 
L 1791 4666 
L 1791 2888 
L 3566 2888 
L 3566 4666 
L 4769 4666 
L 4769 0 
L 3566 0 
L 3566 1978 
L 1791 1978 
L 1791 0 
L 588 0 
L 588 4666 
z
" transform="scale(0.015625)"/>
      <path id="DejaVuSans-Bold-61" d="M 2106 1575 
Q 1756 1575 1579 1456 
Q 1403 1338 1403 1106 
Q 1403 894 1545 773 
Q 1688 653 1941 653 
Q 2256 653 2472 879 
Q 2688 1106 2688 1447 
L 2688 1575 
L 2106 1575 
z
M 3816 1997 
L 3816 0 
L 2688 0 
L 2688 519 
Q 2463 200 2181 54 
Q 1900 -91 1497 -91 
Q 953 -91 614 226 
Q 275 544 275 1050 
Q 275 1666 698 1953 
Q 1122 2241 2028 2241 
L 2688 2241 
L 2688 2328 
Q 2688 2594 2478 2717 
Q 2269 2841 1825 2841 
Q 1466 2841 1156 2769 
Q 847 2697 581 2553 
L 581 3406 
Q 941 3494 1303 3539 
Q 1666 3584 2028 3584 
Q 2975 3584 3395 3211 
Q 3816 2838 3816 1997 
z
" transform="scale(0.015625)"/>
      <path id="DejaVuSans-Bold-72" d="M 3138 2547 
Q 2991 2616 2845 2648 
Q 2700 2681 2553 2681 
Q 2122 2681 1889 2404 
Q 1656 2128 1656 1613 
L 1656 0 
L 538 0 
L 538 3500 
L 1656 3500 
L 1656 2925 
Q 1872 3269 2151 3426 
Q 2431 3584 2822 3584 
Q 2878 3584 2943 3579 
Q 3009 3575 3134 3559 
L 3138 2547 
z
" transform="scale(0.015625)"/>
      <path id="DejaVuSans-Bold-6d" d="M 3781 2919 
Q 3994 3244 4286 3414 
Q 4578 3584 4928 3584 
Q 5531 3584 5847 3212 
Q 6163 2841 6163 2131 
L 6163 0 
L 5038 0 
L 5038 1825 
Q 5041 1866 5042 1909 
Q 5044 1953 5044 2034 
Q 5044 2406 4934 2573 
Q 4825 2741 4581 2741 
Q 4263 2741 4089 2478 
Q 3916 2216 3909 1719 
L 3909 0 
L 2784 0 
L 2784 1825 
Q 2784 2406 2684 2573 
Q 2584 2741 2328 2741 
Q 2006 2741 1831 2477 
Q 1656 2213 1656 1722 
L 1656 0 
L 531 0 
L 531 3500 
L 1656 3500 
L 1656 2988 
Q 1863 3284 2130 3434 
Q 2397 3584 2719 3584 
Q 3081 3584 3359 3409 
Q 3638 3234 3781 2919 
z
" transform="scale(0.015625)"/>
      <path id="DejaVuSans-Bold-69" d="M 538 3500 
L 1656 3500 
L 1656 0 
L 538 0 
L 538 3500 
z
M 538 4863 
L 1656 4863 
L 1656 3950 
L 538 3950 
L 538 4863 
z
" transform="scale(0.015625)"/>
      <path id="DejaVuSans-Bold-20" transform="scale(0.015625)"/>
      <path id="DejaVuSans-Bold-43" d="M 4288 256 
Q 3956 84 3597 -3 
Q 3238 -91 2847 -91 
Q 1681 -91 1000 561 
Q 319 1213 319 2328 
Q 319 3447 1000 4098 
Q 1681 4750 2847 4750 
Q 3238 4750 3597 4662 
Q 3956 4575 4288 4403 
L 4288 3438 
Q 3953 3666 3628 3772 
Q 3303 3878 2944 3878 
Q 2300 3878 1931 3465 
Q 1563 3053 1563 2328 
Q 1563 1606 1931 1193 
Q 2300 781 2944 781 
Q 3303 781 3628 887 
Q 3953 994 4288 1222 
L 4288 256 
z
" transform="scale(0.015625)"/>
      <path id="DejaVuSans-Bold-6f" d="M 2203 2784 
Q 1831 2784 1636 2517 
Q 1441 2250 1441 1747 
Q 1441 1244 1636 976 
Q 1831 709 2203 709 
Q 2569 709 2762 976 
Q 2956 1244 2956 1747 
Q 2956 2250 2762 2517 
Q 2569 2784 2203 2784 
z
M 2203 3584 
Q 3106 3584 3614 3096 
Q 4122 2609 4122 1747 
Q 4122 884 3614 396 
Q 3106 -91 2203 -91 
Q 1297 -91 786 396 
Q 275 884 275 1747 
Q 275 2609 786 3096 
Q 1297 3584 2203 3584 
z
" transform="scale(0.015625)"/>
      <path id="DejaVuSans-Bold-73" d="M 3272 3391 
L 3272 2541 
Q 2913 2691 2578 2766 
Q 2244 2841 1947 2841 
Q 1628 2841 1473 2761 
Q 1319 2681 1319 2516 
Q 1319 2381 1436 2309 
Q 1553 2238 1856 2203 
L 2053 2175 
Q 2913 2066 3209 1816 
Q 3506 1566 3506 1031 
Q 3506 472 3093 190 
Q 2681 -91 1863 -91 
Q 1516 -91 1145 -36 
Q 775 19 384 128 
L 384 978 
Q 719 816 1070 734 
Q 1422 653 1784 653 
Q 2113 653 2278 743 
Q 2444 834 2444 1013 
Q 2444 1163 2330 1236 
Q 2216 1309 1875 1350 
L 1678 1375 
Q 931 1469 631 1722 
Q 331 1975 331 2491 
Q 331 3047 712 3315 
Q 1094 3584 1881 3584 
Q 2191 3584 2531 3537 
Q 2872 3491 3272 3391 
z
" transform="scale(0.015625)"/>
      <path id="DejaVuSans-Bold-28" d="M 2413 -844 
L 1484 -844 
Q 1006 -72 778 623 
Q 550 1319 550 2003 
Q 550 2688 779 3389 
Q 1009 4091 1484 4856 
L 2413 4856 
Q 2013 4116 1813 3408 
Q 1613 2700 1613 2009 
Q 1613 1319 1811 609 
Q 2009 -100 2413 -844 
z
" transform="scale(0.015625)"/>
      <path id="DejaVuSans-Bold-42" d="M 2456 2859 
Q 2741 2859 2887 2984 
Q 3034 3109 3034 3353 
Q 3034 3594 2887 3720 
Q 2741 3847 2456 3847 
L 1791 3847 
L 1791 2859 
L 2456 2859 
z
M 2497 819 
Q 2859 819 3042 972 
Q 3225 1125 3225 1434 
Q 3225 1738 3044 1889 
Q 2863 2041 2497 2041 
L 1791 2041 
L 1791 819 
L 2497 819 
z
M 3616 2497 
Q 4003 2384 4215 2081 
Q 4428 1778 4428 1338 
Q 4428 663 3972 331 
Q 3516 0 2584 0 
L 588 0 
L 588 4666 
L 2394 4666 
Q 3366 4666 3802 4372 
Q 4238 4078 4238 3431 
Q 4238 3091 4078 2852 
Q 3919 2613 3616 2497 
z
" transform="scale(0.015625)"/>
      <path id="DejaVuSans-Bold-65" d="M 4031 1759 
L 4031 1441 
L 1416 1441 
Q 1456 1047 1700 850 
Q 1944 653 2381 653 
Q 2734 653 3104 758 
Q 3475 863 3866 1075 
L 3866 213 
Q 3469 63 3072 -14 
Q 2675 -91 2278 -91 
Q 1328 -91 801 392 
Q 275 875 275 1747 
Q 275 2603 792 3093 
Q 1309 3584 2216 3584 
Q 3041 3584 3536 3087 
Q 4031 2591 4031 1759 
z
M 2881 2131 
Q 2881 2450 2695 2645 
Q 2509 2841 2209 2841 
Q 1884 2841 1681 2658 
Q 1478 2475 1428 2131 
L 2881 2131 
z
" transform="scale(0.015625)"/>
      <path id="DejaVuSans-Bold-68" d="M 4056 2131 
L 4056 0 
L 2931 0 
L 2931 347 
L 2931 1625 
Q 2931 2084 2911 2256 
Q 2891 2428 2841 2509 
Q 2775 2619 2662 2680 
Q 2550 2741 2406 2741 
Q 2056 2741 1856 2470 
Q 1656 2200 1656 1722 
L 1656 0 
L 538 0 
L 538 4863 
L 1656 4863 
L 1656 2988 
Q 1909 3294 2193 3439 
Q 2478 3584 2822 3584 
Q 3428 3584 3742 3212 
Q 4056 2841 4056 2131 
z
" transform="scale(0.015625)"/>
      <path id="DejaVuSans-Bold-29" d="M 513 -844 
Q 913 -100 1113 609 
Q 1313 1319 1313 2009 
Q 1313 2700 1113 3408 
Q 913 4116 513 4856 
L 1441 4856 
Q 1916 4091 2145 3389 
Q 2375 2688 2375 2003 
Q 2375 1319 2147 623 
Q 1919 -72 1441 -844 
L 513 -844 
z
" transform="scale(0.015625)"/>
      <path id="DejaVuSans-Bold-2014" d="M 344 2156 
L 6056 2156 
L 6056 1350 
L 344 1350 
L 344 2156 
z
" transform="scale(0.015625)"/>
      <path id="DejaVuSans-Bold-41" d="M 3419 850 
L 1538 850 
L 1241 0 
L 31 0 
L 1759 4666 
L 3194 4666 
L 4922 0 
L 3713 0 
L 3419 850 
z
M 1838 1716 
L 3116 1716 
L 2478 3572 
L 1838 1716 
z
" transform="scale(0.015625)"/>
      <path id="DejaVuSans-Bold-50" d="M 588 4666 
L 2584 4666 
Q 3475 4666 3951 4270 
Q 4428 3875 4428 3144 
Q 4428 2409 3951 2014 
Q 3475 1619 2584 1619 
L 1791 1619 
L 1791 0 
L 588 0 
L 588 4666 
z
M 1791 3794 
L 1791 2491 
L 2456 2491 
Q 2806 2491 2997 2661 
Q 3188 2831 3188 3144 
Q 3188 3456 2997 3625 
Q 2806 3794 2456 3794 
L 1791 3794 
z
" transform="scale(0.015625)"/>
      <path id="DejaVuSans-Bold-4c" d="M 588 4666 
L 1791 4666 
L 1791 909 
L 3903 909 
L 3903 0 
L 588 0 
L 588 4666 
z
" transform="scale(0.015625)"/>
      <path id="DejaVuSans-Bold-31" d="M 750 831 
L 1813 831 
L 1813 3847 
L 722 3622 
L 722 4441 
L 1806 4666 
L 2950 4666 
L 2950 831 
L 4013 831 
L 4013 0 
L 750 0 
L 750 831 
z
" transform="scale(0.015625)"/>
      <path id="DejaVuSans-Bold-44" d="M 1791 3756 
L 1791 909 
L 2222 909 
Q 2959 909 3348 1275 
Q 3738 1641 3738 2338 
Q 3738 3031 3350 3393 
Q 2963 3756 2222 3756 
L 1791 3756 
z
M 588 4666 
L 1856 4666 
Q 2919 4666 3439 4514 
Q 3959 4363 4331 4000 
Q 4659 3684 4818 3271 
Q 4978 2859 4978 2338 
Q 4978 1809 4818 1395 
Q 4659 981 4331 666 
Q 3956 303 3431 151 
Q 2906 0 1856 0 
L 588 0 
L 588 4666 
z
" transform="scale(0.015625)"/>
     </defs>
     <use xlink:href="#DejaVuSans-Bold-48"/>
     <use xlink:href="#DejaVuSans-Bold-61" transform="translate(83.691406 0)"/>
     <use xlink:href="#DejaVuSans-Bold-72" transform="translate(151.171875 0)"/>
     <use xlink:href="#DejaVuSans-Bold-61" transform="translate(200.488281 0)"/>
     <use xlink:href="#DejaVuSans-Bold-6d" transform="translate(267.96875 0)"/>
     <use xlink:href="#DejaVuSans-Bold-69" transform="translate(372.167969 0)"/>
     <use xlink:href="#DejaVuSans-Bold-20" transform="translate(406.445312 0)"/>
     <use xlink:href="#DejaVuSans-Bold-43" transform="translate(441.259766 0)"/>
     <use xlink:href="#DejaVuSans-Bold-72" transform="translate(514.648438 0)"/>
     <use xlink:href="#DejaVuSans-Bold-6f" transform="translate(563.964844 0)"/>
     <use xlink:href="#DejaVuSans-Bold-73" transform="translate(632.666016 0)"/>
     <use xlink:href="#DejaVuSans-Bold-73" transform="translate(692.1875 0)"/>
     <use xlink:href="#DejaVuSans-Bold-20" transform="translate(751.708984 0)"/>
     <use xlink:href="#DejaVuSans-Bold-28" transform="translate(786.523438 0)"/>
     <use xlink:href="#DejaVuSans-Bold-42" transform="translate(832.226562 0)"/>
     <use xlink:href="#DejaVuSans-Bold-65" transform="translate(908.447266 0)"/>
     <use xlink:href="#DejaVuSans-Bold-61" transform="translate(976.269531 0)"/>
     <use xlink:href="#DejaVuSans-Bold-72" transform="translate(1043.75 0)"/>
     <use xlink:href="#DejaVuSans-Bold-69" transform="translate(1093.066406 0)"/>
     <use xlink:href="#DejaVuSans-Bold-73" transform="translate(1127.34375 0)"/>
     <use xlink:href="#DejaVuSans-Bold-68" transform="translate(1186.865234 0)"/>
     <use xlink:href="#DejaVuSans-Bold-29" transform="translate(1258.056641 0)"/>
     <use xlink:href="#DejaVuSans-Bold-20" transform="translate(1303.759766 0)"/>
     <use xlink:href="#DejaVuSans-Bold-2014" transform="translate(1338.574219 0)"/>
     <use xlink:href="#DejaVuSans-Bold-20" transform="translate(1438.574219 0)"/>
     <use xlink:href="#DejaVuSans-Bold-41" transform="translate(1473.388672 0)"/>
     <use xlink:href="#DejaVuSans-Bold-41" transform="translate(1550.78125 0)"/>
     <use xlink:href="#DejaVuSans-Bold-50" transform="translate(1628.173828 0)"/>
     <use xlink:href="#DejaVuSans-Bold-4c" transform="translate(1701.464844 0)"/>
     <use xlink:href="#DejaVuSans-Bold-20" transform="translate(1765.185547 0)"/>
     <use xlink:href="#DejaVuSans-Bold-31" transform="translate(1800 0)"/>
     <use xlink:href="#DejaVuSans-Bold-44" transform="translate(1869.580078 0)"/>
    </g>
   </g>
  </g>
  <g id="axes_2">
   <g id="patch_35">
    <path d="M 29.428438 246.558438 
L 475.828437 246.558438 
L 475.828437 192.470633 
L 29.428438 192.470633 
z
" style="fill: #0a0f1a"/>
   </g>
   <g id="patch_36">
    <path d="M 49.719347 246.558438 
L 59.284085 246.558438 
L 59.284085 227.001364 
L 49.719347 227.001364 
z
" clip-path="url(#p9a05ba0ae6)" style="fill: #22c55e; fill-opacity: 0.533333"/>
   </g>
   <g id="patch_37">
    <path d="M 63.383258 246.558438 
L 72.947997 246.558438 
L 72.947997 235.655666 
L 63.383258 235.655666 
z
" clip-path="url(#p9a05ba0ae6)" style="fill: #22c55e; fill-opacity: 0.533333"/>
   </g>
   <g id="patch_38">
    <path d="M 77.04717 246.558438 
L 86.611909 246.558438 
L 86.611909 226.180712 
L 77.04717 226.180712 
z
" clip-path="url(#p9a05ba0ae6)" style="fill: #22c55e; fill-opacity: 0.533333"/>
   </g>
   <g id="patch_39">
    <path d="M 90.711082 246.558438 
L 100.27582 246.558438 
L 100.27582 227.137663 
L 90.711082 227.137663 
z
" clip-path="url(#p9a05ba0ae6)" style="fill: #22c55e; fill-opacity: 0.533333"/>
   </g>
   <g id="patch_40">
    <path d="M 104.374994 246.558438 
L 113.939732 246.558438 
L 113.939732 224.962903 
L 104.374994 224.962903 
z
" clip-path="url(#p9a05ba0ae6)" style="fill: #ef4444; fill-opacity: 0.533333"/>
   </g>
   <g id="patch_41">
    <path d="M 118.038906 246.558438 
L 127.603644 246.558438 
L 127.603644 210.092354 
L 118.038906 210.092354 
z
" clip-path="url(#p9a05ba0ae6)" style="fill: #ef4444; fill-opacity: 0.533333"/>
   </g>
   <g id="patch_42">
    <path d="M 131.702818 246.558438 
L 141.267556 246.558438 
L 141.267556 202.633125 
L 131.702818 202.633125 
z
" clip-path="url(#p9a05ba0ae6)" style="fill: #22c55e; fill-opacity: 0.533333"/>
   </g>
   <g id="patch_43">
    <path d="M 145.36673 246.558438 
L 154.931468 246.558438 
L 154.931468 221.760947 
L 145.36673 221.760947 
z
" clip-path="url(#p9a05ba0ae6)" style="fill: #22c55e; fill-opacity: 0.533333"/>
   </g>
   <g id="patch_44">
    <path d="M 159.030641 246.558438 
L 168.59538 246.558438 
L 168.59538 218.403328 
L 159.030641 218.403328 
z
" clip-path="url(#p9a05ba0ae6)" style="fill: #22c55e; fill-opacity: 0.533333"/>
   </g>
   <g id="patch_45">
    <path d="M 172.694553 246.558438 
L 182.259291 246.558438 
L 182.259291 234.793232 
L 172.694553 234.793232 
z
" clip-path="url(#p9a05ba0ae6)" style="fill: #22c55e; fill-opacity: 0.533333"/>
   </g>
   <g id="patch_46">
    <path d="M 186.358465 246.558438 
L 195.923203 246.558438 
L 195.923203 199.929272 
L 186.358465 199.929272 
z
" clip-path="url(#p9a05ba0ae6)" style="fill: #ef4444; fill-opacity: 0.533333"/>
   </g>
   <g id="patch_47">
    <path d="M 200.022377 246.558438 
L 209.587115 246.558438 
L 209.587115 204.007175 
L 200.022377 204.007175 
z
" clip-path="url(#p9a05ba0ae6)" style="fill: #ef4444; fill-opacity: 0.533333"/>
   </g>
   <g id="patch_48">
    <path d="M 213.686289 246.558438 
L 223.251027 246.558438 
L 223.251027 229.793721 
L 213.686289 229.793721 
z
" clip-path="url(#p9a05ba0ae6)" style="fill: #22c55e; fill-opacity: 0.533333"/>
   </g>
   <g id="patch_49">
    <path d="M 227.350201 246.558438 
L 236.914939 246.558438 
L 236.914939 232.995584 
L 227.350201 232.995584 
z
" clip-path="url(#p9a05ba0ae6)" style="fill: #22c55e; fill-opacity: 0.533333"/>
   </g>
   <g id="patch_50">
    <path d="M 241.014112 246.558438 
L 250.578851 246.558438 
L 250.578851 214.490032 
L 241.014112 214.490032 
z
" clip-path="url(#p9a05ba0ae6)" style="fill: #22c55e; fill-opacity: 0.533333"/>
   </g>
   <g id="patch_51">
    <path d="M 254.678024 246.558438 
L 264.242763 246.558438 
L 264.242763 233.577765 
L 254.678024 233.577765 
z
" clip-path="url(#p9a05ba0ae6)" style="fill: #ef4444; fill-opacity: 0.533333"/>
   </g>
   <g id="patch_52">
    <path d="M 268.341936 246.558438 
L 277.906674 246.558438 
L 277.906674 219.853183 
L 268.341936 219.853183 
z
" clip-path="url(#p9a05ba0ae6)" style="fill: #ef4444; fill-opacity: 0.533333"/>
   </g>
   <g id="patch_53">
    <path d="M 282.005848 246.558438 
L 291.570586 246.558438 
L 291.570586 213.403178 
L 282.005848 213.403178 
z
" clip-path="url(#p9a05ba0ae6)" style="fill: #22c55e; fill-opacity: 0.533333"/>
   </g>
   <g id="patch_54">
    <path d="M 295.66976 246.558438 
L 305.234498 246.558438 
L 305.234498 224.597066 
L 295.66976 224.597066 
z
" clip-path="url(#p9a05ba0ae6)" style="fill: #ef4444; fill-opacity: 0.533333"/>
   </g>
   <g id="patch_55">
    <path d="M 309.333672 246.558438 
L 318.89841 246.558438 
L 318.89841 218.052481 
L 309.333672 218.052481 
z
" clip-path="url(#p9a05ba0ae6)" style="fill: #22c55e; fill-opacity: 0.533333"/>
   </g>
   <g id="patch_56">
    <path d="M 322.997584 246.558438 
L 332.562322 246.558438 
L 332.562322 198.863927 
L 322.997584 198.863927 
z
" clip-path="url(#p9a05ba0ae6)" style="fill: #22c55e; fill-opacity: 0.533333"/>
   </g>
   <g id="patch_57">
    <path d="M 336.661495 246.558438 
L 346.226234 246.558438 
L 346.226234 219.540237 
L 336.661495 219.540237 
z
" clip-path="url(#p9a05ba0ae6)" style="fill: #22c55e; fill-opacity: 0.533333"/>
   </g>
   <g id="patch_58">
    <path d="M 350.325407 246.558438 
L 359.890145 246.558438 
L 359.890145 218.189461 
L 350.325407 218.189461 
z
" clip-path="url(#p9a05ba0ae6)" style="fill: #22c55e; fill-opacity: 0.533333"/>
   </g>
   <g id="patch_59">
    <path d="M 363.989319 246.558438 
L 373.554057 246.558438 
L 373.554057 218.825957 
L 363.989319 218.825957 
z
" clip-path="url(#p9a05ba0ae6)" style="fill: #ef4444; fill-opacity: 0.533333"/>
   </g>
   <g id="patch_60">
    <path d="M 377.653231 246.558438 
L 387.217969 246.558438 
L 387.217969 198.68169 
L 377.653231 198.68169 
z
" clip-path="url(#p9a05ba0ae6)" style="fill: #22c55e; fill-opacity: 0.533333"/>
   </g>
   <g id="patch_61">
    <path d="M 391.317143 246.558438 
L 400.881881 246.558438 
L 400.881881 229.578998 
L 391.317143 229.578998 
z
" clip-path="url(#p9a05ba0ae6)" style="fill: #22c55e; fill-opacity: 0.533333"/>
   </g>
   <g id="patch_62">
    <path d="M 404.981055 246.558438 
L 414.545793 246.558438 
L 414.545793 199.707172 
L 404.981055 199.707172 
z
" clip-path="url(#p9a05ba0ae6)" style="fill: #ef4444; fill-opacity: 0.533333"/>
   </g>
   <g id="patch_63">
    <path d="M 418.644966 246.558438 
L 428.209705 246.558438 
L 428.209705 216.461139 
L 418.644966 216.461139 
z
" clip-path="url(#p9a05ba0ae6)" style="fill: #22c55e; fill-opacity: 0.533333"/>
   </g>
   <g id="patch_64">
    <path d="M 432.308878 246.558438 
L 441.873617 246.558438 
L 441.873617 214.873768 
L 432.308878 214.873768 
z
" clip-path="url(#p9a05ba0ae6)" style="fill: #22c55e; fill-opacity: 0.533333"/>
   </g>
   <g id="patch_65">
    <path d="M 445.97279 246.558438 
L 455.537528 246.558438 
L 455.537528 195.046242 
L 445.97279 195.046242 
z
" clip-path="url(#p9a05ba0ae6)" style="fill: #22c55e; fill-opacity: 0.533333"/>
   </g>
   <g id="matplotlib.axis_3">
    <g id="xtick_8">
     <g id="line2d_57">
      <path d="M 54.501716 246.558438 
L 54.501716 192.470633 
" clip-path="url(#p9a05ba0ae6)" style="fill: none; stroke: #374151; stroke-opacity: 0.1; stroke-width: 0.8; stroke-linecap: square"/>
     </g>
     <g id="line2d_58">
      <g>
       <use xlink:href="#mc2f39b7168" x="54.501716" y="246.558438" style="fill: #4b5563; stroke: #4b5563; stroke-width: 0.8"/>
      </g>
     </g>
     <g id="text_8">
      <!-- 0 -->
      <g style="fill: #4b5563" transform="translate(52.274841 258.877344) scale(0.07 -0.07)">
       <use xlink:href="#DejaVuSans-30"/>
      </g>
     </g>
    </g>
    <g id="xtick_9">
     <g id="line2d_59">
      <path d="M 122.821275 246.558438 
L 122.821275 192.470633 
" clip-path="url(#p9a05ba0ae6)" style="fill: none; stroke: #374151; stroke-opacity: 0.1; stroke-width: 0.8; stroke-linecap: square"/>
     </g>
     <g id="line2d_60">
      <g>
       <use xlink:href="#mc2f39b7168" x="122.821275" y="246.558438" style="fill: #4b5563; stroke: #4b5563; stroke-width: 0.8"/>
      </g>
     </g>
     <g id="text_9">
      <!-- 5 -->
      <g style="fill: #4b5563" transform="translate(120.5944 258.877344) scale(0.07 -0.07)">
       <defs>
        <path id="DejaVuSans-35" d="M 691 4666 
L 3169 4666 
L 3169 4134 
L 1269 4134 
L 1269 2991 
Q 1406 3038 1543 3061 
Q 1681 3084 1819 3084 
Q 2600 3084 3056 2656 
Q 3513 2228 3513 1497 
Q 3513 744 3044 326 
Q 2575 -91 1722 -91 
Q 1428 -91 1123 -41 
Q 819 9 494 109 
L 494 744 
Q 775 591 1075 516 
Q 1375 441 1709 441 
Q 2250 441 2565 725 
Q 2881 1009 2881 1497 
Q 2881 1984 2565 2268 
Q 2250 2553 1709 2553 
Q 1456 2553 1204 2497 
Q 953 2441 691 2322 
L 691 4666 
z
" transform="scale(0.015625)"/>
       </defs>
       <use xlink:href="#DejaVuSans-35"/>
      </g>
     </g>
    </g>
    <g id="xtick_10">
     <g id="line2d_61">
      <path d="M 191.140834 246.558438 
L 191.140834 192.470633 
" clip-path="url(#p9a05ba0ae6)" style="fill: none; stroke: #374151; stroke-opacity: 0.1; stroke-width: 0.8; stroke-linecap: square"/>
     </g>
     <g id="line2d_62">
      <g>
       <use xlink:href="#mc2f39b7168" x="191.140834" y="246.558438" style="fill: #4b5563; stroke: #4b5563; stroke-width: 0.8"/>
      </g>
     </g>
     <g id="text_10">
      <!-- 10 -->
      <g style="fill: #4b5563" transform="translate(186.687084 258.877344) scale(0.07 -0.07)">
       <use xlink:href="#DejaVuSans-31"/>
       <use xlink:href="#DejaVuSans-30" transform="translate(63.623047 0)"/>
      </g>
     </g>
    </g>
    <g id="xtick_11">
     <g id="line2d_63">
      <path d="M 259.460393 246.558438 
L 259.460393 192.470633 
" clip-path="url(#p9a05ba0ae6)" style="fill: none; stroke: #374151; stroke-opacity: 0.1; stroke-width: 0.8; stroke-linecap: square"/>
     </g>
     <g id="line2d_64">
      <g>
       <use xlink:href="#mc2f39b7168" x="259.460393" y="246.558438" style="fill: #4b5563; stroke: #4b5563; stroke-width: 0.8"/>
      </g>
     </g>
     <g id="text_11">
      <!-- 15 -->
      <g style="fill: #4b5563" transform="translate(255.006643 258.877344) scale(0.07 -0.07)">
       <use xlink:href="#DejaVuSans-31"/>
       <use xlink:href="#DejaVuSans-35" transform="translate(63.623047 0)"/>
      </g>
     </g>
    </g>
    <g id="xtick_12">
     <g id="line2d_65">
      <path d="M 327.779953 246.558438 
L 327.779953 192.470633 
" clip-path="url(#p9a05ba0ae6)" style="fill: none; stroke: #374151; stroke-opacity: 0.1; stroke-width: 0.8; stroke-linecap: square"/>
     </g>
     <g id="line2d_66">
      <g>
       <use xlink:href="#mc2f39b7168" x="327.779953" y="246.558438" style="fill: #4b5563; stroke: #4b5563; stroke-width: 0.8"/>
      </g>
     </g>
     <g id="text_12">
      <!-- 20 -->
      <g style="fill: #4b5563" transform="translate(323.326203 258.877344) scale(0.07 -0.07)">
       <use xlink:href="#DejaVuSans-32"/>
       <use xlink:href="#DejaVuSans-30" transform="translate(63.623047 0)"/>
      </g>
     </g>
    </g>
    <g id="xtick_13">
     <g id="line2d_67">
      <path d="M 396.099512 246.558438 
L 396.099512 192.470633 
" clip-path="url(#p9a05ba0ae6)" style="fill: none; stroke: #374151; stroke-opacity: 0.1; stroke-width: 0.8; stroke-linecap: square"/>
     </g>
     <g id="line2d_68">
      <g>
       <use xlink:href="#mc2f39b7168" x="396.099512" y="246.558438" style="fill: #4b5563; stroke: #4b5563; stroke-width: 0.8"/>
      </g>
     </g>
     <g id="text_13">
      <!-- 25 -->
      <g style="fill: #4b5563" transform="translate(391.645762 258.877344) scale(0.07 -0.07)">
       <use xlink:href="#DejaVuSans-32"/>
       <use xlink:href="#DejaVuSans-35" transform="translate(63.623047 0)"/>
      </g>
     </g>
    </g>
    <g id="xtick_14">
     <g id="line2d_69">
      <path d="M 464.419071 246.558438 
L 464.419071 192.470633 
" clip-path="url(#p9a05ba0ae6)" style="fill: none; stroke: #374151; stroke-opacity: 0.1; stroke-width: 0.8; stroke-linecap: square"/>
     </g>
     <g id="line2d_70">
      <g>
       <use xlink:href="#mc2f39b7168" x="464.419071" y="246.558438" style="fill: #4b5563; stroke: #4b5563; stroke-width: 0.8"/>
      </g>
     </g>
     <g id="text_14">
      <!-- 30 -->
      <g style="fill: #4b5563" transform="translate(459.965321 258.877344) scale(0.07 -0.07)">
       <defs>
        <path id="DejaVuSans-33" d="M 2597 2516 
Q 3050 2419 3304 2112 
Q 3559 1806 3559 1356 
Q 3559 666 3084 287 
Q 2609 -91 1734 -91 
Q 1441 -91 1130 -33 
Q 819 25 488 141 
L 488 750 
Q 750 597 1062 519 
Q 1375 441 1716 441 
Q 2309 441 2620 675 
Q 2931 909 2931 1356 
Q 2931 1769 2642 2001 
Q 2353 2234 1838 2234 
L 1294 2234 
L 1294 2753 
L 1863 2753 
Q 2328 2753 2575 2939 
Q 2822 3125 2822 3475 
Q 2822 3834 2567 4026 
Q 2313 4219 1838 4219 
Q 1578 4219 1281 4162 
Q 984 4106 628 3988 
L 628 4550 
Q 988 4650 1302 4700 
Q 1616 4750 1894 4750 
Q 2613 4750 3031 4423 
Q 3450 4097 3450 3541 
Q 3450 3153 3228 2886 
Q 3006 2619 2597 2516 
z
" transform="scale(0.015625)"/>
       </defs>
       <use xlink:href="#DejaVuSans-33"/>
       <use xlink:href="#DejaVuSans-30" transform="translate(63.623047 0)"/>
      </g>
     </g>
    </g>
   </g>
   <g id="matplotlib.axis_4">
    <g id="ytick_7">
     <g id="line2d_71">
      <path d="M 29.428438 246.558438 
L 475.828437 246.558438 
" clip-path="url(#p9a05ba0ae6)" style="fill: none; stroke: #374151; stroke-opacity: 0.1; stroke-width: 0.8; stroke-linecap: square"/>
     </g>
     <g id="line2d_72">
      <g>
       <use xlink:href="#m45309d3e34" x="29.428438" y="246.558438" style="fill: #4b5563; stroke: #4b5563; stroke-width: 0.8"/>
      </g>
     </g>
     <g id="text_15">
      <!-- 0 -->
      <g style="fill: #4b5563" transform="translate(17.974688 249.217891) scale(0.07 -0.07)">
       <use xlink:href="#DejaVuSans-30"/>
      </g>
     </g>
    </g>
    <g id="ytick_8">
     <g id="line2d_73">
      <path d="M 29.428438 225.925817 
L 475.828437 225.925817 
" clip-path="url(#p9a05ba0ae6)" style="fill: none; stroke: #374151; stroke-opacity: 0.1; stroke-width: 0.8; stroke-linecap: square"/>
     </g>
     <g id="line2d_74">
      <g>
       <use xlink:href="#m45309d3e34" x="29.428438" y="225.925817" style="fill: #4b5563; stroke: #4b5563; stroke-width: 0.8"/>
      </g>
     </g>
     <g id="text_16">
      <!-- 2 -->
      <g style="fill: #4b5563" transform="translate(17.974688 228.58527) scale(0.07 -0.07)">
       <use xlink:href="#DejaVuSans-32"/>
      </g>
     </g>
    </g>
    <g id="ytick_9">
     <g id="line2d_75">
      <path d="M 29.428438 205.293196 
L 475.828437 205.293196 
" clip-path="url(#p9a05ba0ae6)" style="fill: none; stroke: #374151; stroke-opacity: 0.1; stroke-width: 0.8; stroke-linecap: square"/>
     </g>
     <g id="line2d_76">
      <g>
       <use xlink:href="#m45309d3e34" x="29.428438" y="205.293196" style="fill: #4b5563; stroke: #4b5563; stroke-width: 0.8"/>
      </g>
     </g>
     <g id="text_17">
      <!-- 4 -->
      <g style="fill: #4b5563" transform="translate(17.974688 207.952649) scale(0.07 -0.07)">
       <use xlink:href="#DejaVuSans-34"/>
      </g>
     </g>
    </g>
    <g id="text_18">
     <!-- Vol -->
     <g style="fill: #4b5563" transform="translate(12.518906 224.75141) rotate(-90) scale(0.07 -0.07)">
      <defs>
       <path id="DejaVuSans-56" d="M 1831 0 
L 50 4666 
L 709 4666 
L 2188 738 
L 3669 4666 
L 4325 4666 
L 2547 0 
L 1831 0 
z
" transform="scale(0.015625)"/>
       <path id="DejaVuSans-6f" d="M 1959 3097 
Q 1497 3097 1228 2736 
Q 959 2375 959 1747 
Q 959 1119 1226 758 
Q 1494 397 1959 397 
Q 2419 397 2687 759 
Q 2956 1122 2956 1747 
Q 2956 2369 2687 2733 
Q 2419 3097 1959 3097 
z
M 1959 3584 
Q 2709 3584 3137 3096 
Q 3566 2609 3566 1747 
Q 3566 888 3137 398 
Q 2709 -91 1959 -91 
Q 1206 -91 779 398 
Q 353 888 353 1747 
Q 353 2609 779 3096 
Q 1206 3584 1959 3584 
z
" transform="scale(0.015625)"/>
       <path id="DejaVuSans-6c" d="M 603 4863 
L 1178 4863 
L 1178 0 
L 603 0 
L 603 4863 
z
" transform="scale(0.015625)"/>
      </defs>
      <use xlink:href="#DejaVuSans-56"/>
      <use xlink:href="#DejaVuSans-6f" transform="translate(60.658203 0)"/>
      <use xlink:href="#DejaVuSans-6c" transform="translate(121.839844 0)"/>
     </g>
    </g>
    <g id="text_19">
     <!-- 1e6 -->
     <g style="fill: #4b5563" transform="translate(29.428438 189.470633) scale(0.1 -0.1)">
      <defs>
       <path id="DejaVuSans-65" d="M 3597 1894 
L 3597 1613 
L 953 1613 
Q 991 1019 1311 708 
Q 1631 397 2203 397 
Q 2534 397 2845 478 
Q 3156 559 3463 722 
L 3463 178 
Q 3153 47 2828 -22 
Q 2503 -91 2169 -91 
Q 1331 -91 842 396 
Q 353 884 353 1716 
Q 353 2575 817 3079 
Q 1281 3584 2069 3584 
Q 2775 3584 3186 3129 
Q 3597 2675 3597 1894 
z
M 3022 2063 
Q 3016 2534 2758 2815 
Q 2500 3097 2075 3097 
Q 1594 3097 1305 2825 
Q 1016 2553 972 2059 
L 3022 2063 
z
" transform="scale(0.015625)"/>
      </defs>
      <use xlink:href="#DejaVuSans-31"/>
      <use xlink:href="#DejaVuSans-65" transform="translate(63.623047 0)"/>
      <use xlink:href="#DejaVuSans-36" transform="translate(125.146484 0)"/>
     </g>
    </g>
   </g>
   <g id="patch_66">
    <path d="M 29.428438 246.558438 
L 29.428438 192.470633 
" style="fill: none; stroke: #1f2937; stroke-width: 0.8; stroke-linejoin: miter; stroke-linecap: square"/>
   </g>
   <g id="patch_67">
    <path d="M 29.428438 246.558438 
L 475.828438 246.558438 
" style="fill: none; stroke: #1f2937; stroke-width: 0.8; stroke-linejoin: miter; stroke-linecap: square"/>
   </g>
  </g>
 </g>
 <defs>
  <clipPath id="p20402c56fb">
   <rect x="29.428438" y="24.798438" width="446.4" height="162.263415"/>
  </clipPath>
  <clipPath id="p9a05ba0ae6">
   <rect x="29.428438" y="192.470633" width="446.4" height="54.087805"/>
  </clipPath>
 </defs>
</svg>
