<?xml version="1.0" encoding="utf-8" standalone="no"?>
<!DOCTYPE svg PUBLIC "-//W3C//DTD SVG 1.1//EN"
  "http://www.w3.org/Graphics/SVG/1.1/DTD/svg11.dtd">
<svg xmlns:xlink="http://www.w3.org/1999/xlink" width="484.6325pt" height="275.020625pt" viewBox="0 0 484.6325 275.020625" xmlns="http://www.w3.org/2000/svg" version="1.1">
 <metadata>
  <rdf:RDF xmlns:dc="http://purl.org/dc/elements/1.1/" xmlns:cc="http://creativecommons.org/ns#" xmlns:rdf="http://www.w3.org/1999/02/22-rdf-syntax-ns#">
   <cc:Work>
    <dc:type rdf:resource="http://purl.org/dc/dcmitype/StillImage"/>
    <dc:date>2026-02-16T09:12:34.130772</dc:date>
    <dc:format>image/svg+xml</dc:format>
    <dc:creator>
     <cc:Agent>
      <dc:title>Matplotlib v3.10.8, https://matplotlib.org/</dc:title>
     </cc:Agent>
    </dc:creator>
   </cc:Work>
  </rdf:RDF>
 </metadata>
 <defs>
  <style type="text/css">*{stroke-linejoin: round; stroke-linecap: butt}</style>
 </defs>
 <g id="figure_1">
  <g id="patch_1">
   <path d="M 0 275.020625 
L 484.6325 275.020625 
L 484.6325 0 
L 0 0 
z
" style="fill: #0a0f1a"/>
  </g>
  <g id="axes_1">
   <g id="patch_2">
    <path d="M 31.0325 193.58154 
L 477.4325 193.58154 
L 477.4325 31.318125 
L 31.0325 31.318125 
z
" style="fill: #0a0f1a"/>
   </g>
   <g id="patch_3">
    <path d="M 40.3925 80.837129 
L 50.4725 80.837129 
Q 50.7605 80.837129 50.7605 80.634884 
L 50.7605 72.422632 
Q 50.7605 72.220387 50.4725 72.220387 
L 40.3925 72.220387 
Q 40.1045 72.220387 40.1045 72.422632 
L 40.1045 80.634884 
Q 40.1045 80.837129 40.3925 80.837129 
z
" clip-path="url(#pb8d0123f37)" style="fill: #22c55e; stroke: #22c55e; stroke-linejoin: miter"/>
   </g>
   <g id="patch_4">
    <path d="M 54.7925 72.856482 
L 64.8725 72.856482 
Q 65.1605 72.856482 65.1605 72.654237 
L 65.1605 69.298064 
Q 65.1605 69.095819 64.8725 69.095819 
L 54.7925 69.095819 
Q 54.5045 69.095819 54.5045 69.298064 
L 54.5045 72.654237 
Q 54.5045 72.856482 54.7925 72.856482 
z
" clip-path="url(#pb8d0123f37)" style="fill: #ef4444; stroke: #ef4444; stroke-linejoin: miter"/>
   </g>
   <g id="patch_5">
    <path d="M 69.1925 78.437047 
L 79.2725 78.437047 
Q 79.5605 78.437047 79.5605 78.234802 
L 79.5605 67.531662 
Q 79.5605 67.329417 79.2725 67.329417 
L 69.1925 67.329417 
Q 68.9045 67.329417 68.9045 67.531662 
L 68.9045 78.234802 
Q 68.9045 78.437047 69.1925 78.437047 
z
" clip-path="url(#pb8d0123f37)" style="fill: #22c55e; stroke: #22c55e; stroke-linejoin: miter"/>
   </g>
   <g id="patch_6">
    <path d="M 83.5925 72.351903 
L 93.6725 72.351903 
Q 93.9605 72.351903 93.9605 72.149658 
L 93.9605 59.187177 
Q 93.9605 58.984932 93.6725 58.984932 
L 83.5925 58.984932 
Q 83.3045 58.984932 83.3045 59.187177 
L 83.3045 72.149658 
Q 83.3045 72.351903 83.5925 72.351903 
z
" clip-path="url(#pb8d0123f37)" style="fill: #22c55e; stroke: #22c55e; stroke-linejoin: miter"/>
   </g>
   <g id="patch_7">
    <path d="M 97.9925 56.396131 
L 108.0725 56.396131 
Q 108.3605 56.396131 108.3605 56.193886 
L 108.3605 51.974419 
Q 108.3605 51.772174 108.0725 51.772174 
L 97.9925 51.772174 
Q 97.7045 51.772174 97.7045 51.974419 
L 97.7045 56.193886 
Q 97.7045 56.396131 97.9925 56.396131 
z
" clip-path="url(#pb8d0123f37)" style="fill: #22c55e; stroke: #22c55e; stroke-linejoin: miter"/>
   </g>
   <g id="patch_8">
    <path d="M 112.3925 60.742867 
L 122.4725 60.742867 
Q 122.7605 60.742867 122.7605 60.540622 
L 122.7605 51.646782 
Q 122.7605 51.444537 122.4725 51.444537 
L 112.3925 51.444537 
Q 112.1045 51.444537 112.1045 51.646782 
L 112.1045 60.540622 
Q 112.1045 60.742867 112.3925 60.742867 
z
" clip-path="url(#pb8d0123f37)" style="fill: #ef4444; stroke: #ef4444; stroke-linejoin: miter"/>
   </g>
   <g id="patch_9">
    <path d="M 126.7925 66.604897 
L 136.8725 66.604897 
Q 137.1605 66.604897 137.1605 66.402652 
L 137.1605 56.52448 
Q 137.1605 56.322235 136.8725 56.322235 
L 126.7925 56.322235 
Q 126.5045 56.322235 126.5045 56.52448 
L 126.5045 66.402652 
Q 126.5045 66.604897 126.7925 66.604897 
z
" clip-path="url(#pb8d0123f37)" style="fill: #ef4444; stroke: #ef4444; stroke-linejoin: miter"/>
   </g>
   <g id="patch_10">
    <path d="M 141.1925 63.642351 
L 151.2725 63.642351 
Q 151.5605 63.642351 151.5605 63.440106 
L 151.5605 53.379466 
Q 151.5605 53.177221 151.2725 53.177221 
L 141.1925 53.177221 
Q 140.9045 53.177221 140.9045 53.379466 
L 140.9045 63.440106 
Q 140.9045 63.642351 141.1925 63.642351 
z
" clip-path="url(#pb8d0123f37)" style="fill: #ef4444; stroke: #ef4444; stroke-linejoin: miter"/>
   </g>
   <g id="patch_11">
    <path d="M 155.5925 65.951499 
L 165.6725 65.951499 
Q 165.9605 65.951499 165.9605 65.749254 
L 165.9605 59.462126 
Q 165.9605 59.259881 165.6725 59.259881 
L 155.5925 59.259881 
Q 155.3045 59.259881 155.3045 59.462126 
L 155.3045 65.749254 
Q 155.3045 65.951499 155.5925 65.951499 
z
" clip-path="url(#pb8d0123f37)" style="fill: #ef4444; stroke: #ef4444; stroke-linejoin: miter"/>
   </g>
   <g id="patch_12">
    <path d="M 169.9925 70.27352 
L 180.0725 70.27352 
Q 180.3605 70.27352 180.3605 70.071275 
L 180.3605 56.733112 
Q 180.3605 56.530867 180.0725 56.530867 
L 169.9925 56.530867 
Q 169.7045 56.530867 169.7045 56.733112 
L 169.7045 70.071275 
Q 169.7045 70.27352 169.9925 70.27352 
z
" clip-path="url(#pb8d0123f37)" style="fill: #ef4444; stroke: #ef4444; stroke-linejoin: miter"/>
   </g>
   <g id="patch_13">
    <path d="M 184.3925 55.753938 
L 194.4725 55.753938 
Q 194.7605 55.753938 194.7605 55.551693 
L 194.7605 51.59051 
Q 194.7605 51.388265 194.4725 51.388265 
L 184.3925 51.388265 
Q 184.1045 51.388265 184.1045 51.59051 
L 184.1045 55.551693 
Q 184.1045 55.753938 184.3925 55.753938 
z
" clip-path="url(#pb8d0123f37)" style="fill: #ef4444; stroke: #ef4444; stroke-linejoin: miter"/>
   </g>
   <g id="patch_14">
    <path d="M 198.7925 65.526631 
L 208.8725 65.526631 
Q 209.1605 65.526631 209.1605 65.324386 
L 209.1605 56.871693 
Q 209.1605 56.669448 208.8725 56.669448 
L 198.7925 56.669448 
Q 198.5045 56.669448 198.5045 56.871693 
L 198.5045 65.324386 
Q 198.5045 65.526631 198.7925 65.526631 
z
" clip-path="url(#pb8d0123f37)" style="fill: #22c55e; stroke: #22c55e; stroke-linejoin: miter"/>
   </g>
   <g id="patch_15">
    <path d="M 213.1925 69.209324 
L 223.2725 69.209324 
Q 223.5605 69.209324 223.5605 69.007079 
L 223.5605 61.520064 
Q 223.5605 61.317819 223.2725 61.317819 
L 213.1925 61.317819 
Q 212.9045 61.317819 212.9045 61.520064 
L 212.9045 69.007079 
Q 212.9045 69.209324 213.1925 69.209324 
z
" clip-path="url(#pb8d0123f37)" style="fill: #22c55e; stroke: #22c55e; stroke-linejoin: miter"/>
   </g>
   <g id="patch_16">
    <path d="M 227.5925 60.338759 
L 237.6725 60.338759 
Q 237.9605 60.338759 237.9605 60.136514 
L 237.9605 48.266472 
Q 237.9605 48.064227 237.6725 48.064227 
L 227.5925 48.064227 
Q 227.3045 48.064227 227.3045 48.266472 
L 227.3045 60.136514 
Q 227.3045 60.338759 227.5925 60.338759 
z
" clip-path="url(#pb8d0123f37)" style="fill: #ef4444; stroke: #ef4444; stroke-linejoin: miter"/>
   </g>
   <g id="patch_17">
    <path d="M 241.9925 60.614866 
L 252.0725 60.614866 
Q 252.3605 60.614866 252.3605 60.412621 
L 252.3605 48.752664 
Q 252.3605 48.550419 252.0725 48.550419 
L 241.9925 48.550419 
Q 241.7045 48.550419 241.7045 48.752664 
L 241.7045 60.412621 
Q 241.7045 60.614866 241.9925 60.614866 
z
" clip-path="url(#pb8d0123f37)" style="fill: #ef4444; stroke: #ef4444; stroke-linejoin: miter"/>
   </g>
   <g id="patch_18">
    <path d="M 256.3925 65.058582 
L 266.4725 65.058582 
Q 266.7605 65.058582 266.7605 64.856337 
L 266.7605 60.779835 
Q 266.7605 60.57759 266.4725 60.57759 
L 256.3925 60.57759 
Q 256.1045 60.57759 256.1045 60.779835 
L 256.1045 64.856337 
Q 256.1045 65.058582 256.3925 65.058582 
z
" clip-path="url(#pb8d0123f37)" style="fill: #22c55e; stroke: #22c55e; stroke-linejoin: miter"/>
   </g>
   <g id="patch_19">
    <path d="M 270.7925 64.563766 
L 280.8725 64.563766 
Q 281.1605 64.563766 281.1605 64.361521 
L 281.1605 56.950854 
Q 281.1605 56.748609 280.8725 56.748609 
L 270.7925 56.748609 
Q 270.5045 56.748609 270.5045 56.950854 
L 270.5045 64.361521 
Q 270.5045 64.563766 270.7925 64.563766 
z
" clip-path="url(#pb8d0123f37)" style="fill: #22c55e; stroke: #22c55e; stroke-linejoin: miter"/>
   </g>
   <g id="patch_20">
    <path d="M 285.1925 85.681657 
L 295.2725 85.681657 
Q 295.5605 85.681657 295.5605 85.479412 
L 295.5605 76.99763 
Q 295.5605 76.795385 295.2725 76.795385 
L 285.1925 76.795385 
Q 284.9045 76.795385 284.9045 76.99763 
L 284.9045 85.479412 
Q 284.9045 85.681657 285.1925 85.681657 
z
" clip-path="url(#pb8d0123f37)" style="fill: #22c55e; stroke: #22c55e; stroke-linejoin: miter"/>
   </g>
   <g id="patch_21">
    <path d="M 299.5925 87.041819 
L 309.6725 87.041819 
Q 309.9605 87.041819 309.9605 86.839574 
L 309.9605 74.9915 
Q 309.9605 74.789255 309.6725 74.789255 
L 299.5925 74.789255 
Q 299.3045 74.789255 299.3045 74.9915 
L 299.3045 86.839574 
Q 299.3045 87.041819 299.5925 87.041819 
z
" clip-path="url(#pb8d0123f37)" style="fill: #22c55e; stroke: #22c55e; stroke-linejoin: miter"/>
   </g>
   <g id="patch_22">
    <path d="M 313.9925 96.131895 
L 324.0725 96.131895 
Q 324.3605 96.131895 324.3605 95.92965 
L 324.3605 85.403787 
Q 324.3605 85.201542 324.0725 85.201542 
L 313.9925 85.201542 
Q 313.7045 85.201542 313.7045 85.403787 
L 313.7045 95.92965 
Q 313.7045 96.131895 313.9925 96.131895 
z
" clip-path="url(#pb8d0123f37)" style="fill: #ef4444; stroke: #ef4444; stroke-linejoin: miter"/>
   </g>
   <g id="patch_23">
    <path d="M 328.3925 119.421791 
L 338.4725 119.421791 
Q 338.7605 119.421791 338.7605 119.219546 
L 338.7605 108.08749 
Q 338.7605 107.885245 338.4725 107.885245 
L 328.3925 107.885245 
Q 328.1045 107.885245 328.1045 108.08749 
L 328.1045 119.219546 
Q 328.1045 119.421791 328.3925 119.421791 
z
" clip-path="url(#pb8d0123f37)" style="fill: #ef4444; stroke: #ef4444; stroke-linejoin: miter"/>
   </g>
   <g id="patch_24">
    <path d="M 342.7925 118.886098 
L 352.8725 118.886098 
Q 353.1605 118.886098 353.1605 118.683853 
L 353.1605 106.694756 
Q 353.1605 106.492511 352.8725 106.492511 
L 342.7925 106.492511 
Q 342.5045 106.492511 342.5045 106.694756 
L 342.5045 118.683853 
Q 342.5045 118.886098 342.7925 118.886098 
z
" clip-path="url(#pb8d0123f37)" style="fill: #22c55e; stroke: #22c55e; stroke-linejoin: miter"/>
   </g>
   <g id="patch_25">
    <path d="M 357.1925 128.132949 
L 367.2725 128.132949 
Q 367.5605 128.132949 367.5605 127.930704 
L 367.5605 113.912115 
Q 367.5605 113.70987 367.2725 113.70987 
L 357.1925 113.70987 
Q 356.9045 113.70987 356.9045 113.912115 
L 356.9045 127.930704 
Q 356.9045 128.132949 357.1925 128.132949 
z
" clip-path="url(#pb8d0123f37)" style="fill: #22c55e; stroke: #22c55e; stroke-linejoin: miter"/>
   </g>
   <g id="patch_26">
    <path d="M 371.5925 133.419853 
L 381.6725 133.419853 
Q 381.9605 133.419853 381.9605 133.217608 
L 381.9605 118.312053 
Q 381.9605 118.109808 381.6725 118.109808 
L 371.5925 118.109808 
Q 371.3045 118.109808 371.3045 118.312053 
L 371.3045 133.217608 
Q 371.3045 133.419853 371.5925 133.419853 
z
" clip-path="url(#pb8d0123f37)" style="fill: #22c55e; stroke: #22c55e; stroke-linejoin: miter"/>
   </g>
   <g id="patch_27">
    <path d="M 385.9925 136.060936 
L 396.0725 136.060936 
Q 396.3605 136.060936 396.3605 135.858692 
L 396.3605 126.466716 
Q 396.3605 126.264471 396.0725 126.264471 
L 385.9925 126.264471 
Q 385.7045 126.264471 385.7045 126.466716 
L 385.7045 135.858692 
Q 385.7045 136.060936 385.9925 136.060936 
z
" clip-path="url(#pb8d0123f37)" style="fill: #22c55e; stroke: #22c55e; stroke-linejoin: miter"/>
   </g>
   <g id="patch_28">
    <path d="M 400.3925 139.161247 
L 410.4725 139.161247 
Q 410.7605 139.161247 410.7605 138.959002 
L 410.7605 129.686111 
Q 410.7605 129.483866 410.4725 129.483866 
L 400.3925 129.483866 
Q 400.1045 129.483866 400.1045 129.686111 
L 400.1045 138.959002 
Q 400.1045 139.161247 400.3925 139.161247 
z
" clip-path="url(#pb8d0123f37)" style="fill: #22c55e; stroke: #22c55e; stroke-linejoin: miter"/>
   </g>
   <g id="patch_29">
    <path d="M 414.7925 149.67118 
L 424.8725 149.67118 
Q 425.1605 149.67118 425.1605 149.468935 
L 425.1605 137.363005 
Q 425.1605 137.16076 424.8725 137.16076 
L 414.7925 137.16076 
Q 414.5045 137.16076 414.5045 137.363005 
L 414.5045 149.468935 
Q 414.5045 149.67118 414.7925 149.67118 
z
" clip-path="url(#pb8d0123f37)" style="fill: #22c55e; stroke: #22c55e; stroke-linejoin: miter"/>
   </g>
   <g id="patch_30">
    <path d="M 429.1925 152.291213 
L 439.2725 152.291213 
Q 439.5605 152.291213 439.5605 152.088968 
L 439.5605 145.470736 
Q 439.5605 145.268491 439.2725 145.268491 
L 429.1925 145.268491 
Q 428.9045 145.268491 428.9045 145.470736 
L 428.9045 152.088968 
Q 428.9045 152.291213 429.1925 152.291213 
z
" clip-path="url(#pb8d0123f37)" style="fill: #22c55e; stroke: #22c55e; stroke-linejoin: miter"/>
   </g>
   <g id="patch_31">
    <path d="M 443.5925 159.6004 
L 453.6725 159.6004 
Q 453.9605 159.6004 453.9605 159.398155 
L 453.9605 151.256736 
Q 453.9605 151.054491 453.6725 151.054491 
L 443.5925 151.054491 
Q 443.3045 151.054491 443.3045 151.256736 
L 443.3045 159.398155 
Q 443.3045 159.6004 443.5925 159.6004 
z
" clip-path="url(#pb8d0123f37)" style="fill: #22c55e; stroke: #22c55e; stroke-linejoin: miter"/>
   </g>
   <g id="patch_32">
    <path d="M 457.9925 173.686052 
L 468.0725 173.686052 
Q 468.3605 173.686052 468.3605 173.483807 
L 468.3605 162.32279 
Q 468.3605 162.120545 468.0725 162.120545 
L 457.9925 162.120545 
Q 457.7045 162.120545 457.7045 162.32279 
L 457.7045 173.483807 
Q 457.7045 173.686052 457.9925 173.686052 
z
" clip-path="url(#pb8d0123f37)" style="fill: #ef4444; stroke: #ef4444; stroke-linejoin: miter"/>
   </g>
   <g id="matplotlib.axis_1">
    <g id="xtick_1">
     <g id="line2d_1">
      <path d="M 45.4325 193.58154 
L 45.4325 31.318125 
" clip-path="url(#pb8d0123f37)" style="fill: none; stroke-dasharray: 2.96,1.28; stroke-dashoffset: 0; stroke: #374151; stroke-opacity: 0.1; stroke-width: 0.8"/>
     </g>
     <g id="line2d_2">
      <defs>
       <path id="mb57daf4f7a" d="M 0 0 
L 0 3.5 
" style="stroke: #9ca3af; stroke-width: 0.8"/>
      </defs>
      <g>
       <use xlink:href="#mb57daf4f7a" x="45.4325" y="193.58154" style="fill: #9ca3af; stroke: #9ca3af; stroke-width: 0.8"/>
      </g>
     </g>
    </g>
    <g id="xtick_2">
     <g id="line2d_3">
      <path d="M 117.4325 193.58154 
L 117.4325 31.318125 
" clip-path="url(#pb8d0123f37)" style="fill: none; stroke-dasharray: 2.96,1.28; stroke-dashoffset: 0; stroke: #374151; stroke-opacity: 0.1; stroke-width: 0.8"/>
     </g>
     <g id="line2d_4">
      <g>
       <use xlink:href="#mb57daf4f7a" x="117.4325" y="193.58154" style="fill: #9ca3af; stroke: #9ca3af; stroke-width: 0.8"/>
      </g>
     </g>
    </g>
    <g id="xtick_3">
     <g id="line2d_5">
      <path d="M 189.4325 193.58154 
L 189.4325 31.318125 
" clip-path="url(#pb8d0123f37)" style="fill: none; stroke-dasharray: 2.96,1.28; stroke-dashoffset: 0; stroke: #374151; stroke-opacity: 0.1; stroke-width: 0.8"/>
     </g>
     <g id="line2d_6">
      <g>
       <use xlink:href="#mb57daf4f7a" x="189.4325" y="193.58154" style="fill: #9ca3af; stroke: #9ca3af; stroke-width: 0.8"/>
      </g>
     </g>
    </g>
    <g id="xtick_4">
     <g id="line2d_7">
      <path d="M 261.4325 193.58154 
L 261.4325 31.318125 
" clip-path="url(#pb8d0123f37)" style="fill: none; stroke-dasharray: 2.96,1.28; stroke-dashoffset: 0; stroke: #374151; stroke-opacity: 0.1; stroke-width: 0.8"/>
     </g>
     <g id="line2d_8">
      <g>
       <use xlink:href="#mb57daf4f7a" x="261.4325" y="193.58154" style="fill: #9ca3af; stroke: #9ca3af; stroke-width: 0.8"/>
      </g>
     </g>
    </g>
    <g id="xtick_5">
     <g id="line2d_9">
      <path d="M 333.4325 193.58154 
L 333.4325 31.318125 
" clip-path="url(#pb8d0123f37)" style="fill: none; stroke-dasharray: 2.96,1.28; stroke-dashoffset: 0; stroke: #374151; stroke-opacity: 0.1; stroke-width: 0.8"/>
     </g>
     <g id="line2d_10">
      <g>
       <use xlink:href="#mb57daf4f7a" x="333.4325" y="193.58154" style="fill: #9ca3af; stroke: #9ca3af; stroke-width: 0.8"/>
      </g>
     </g>
    </g>
    <g id="xtick_6">
     <g id="line2d_11">
      <path d="M 405.4325 193.58154 
L 405.4325 31.318125 
" clip-path="url(#pb8d0123f37)" style="fill: none; stroke-dasharray: 2.96,1.28; stroke-dashoffset: 0; stroke: #374151; stroke-opacity: 0.1; stroke-width: 0.8"/>
     </g>
     <g id="line2d_12">
      <g>
       <use xlink:href="#mb57daf4f7a" x="405.4325" y="193.58154" style="fill: #9ca3af; stroke: #9ca3af; stroke-width: 0.8"/>
      </g>
     </g>
    </g>
    <g id="xtick_7">
     <g id="line2d_13">
      <path d="M 477.4325 193.58154 
L 477.4325 31.318125 
" clip-path="url(#pb8d0123f37)" style="fill: none; stroke-dasharray: 2.96,1.28; stroke-dashoffset: 0; stroke: #374151; stroke-opacity: 0.1; stroke-width: 0.8"/>
     </g>
     <g id="line2d_14">
      <g>
       <use xlink:href="#mb57daf4f7a" x="477.4325" y="193.58154" style="fill: #9ca3af; stroke: #9ca3af; stroke-width: 0.8"/>
      </g>
     </g>
    </g>
   </g>
   <g id="matplotlib.axis_2">
    <g id="ytick_1">
     <g id="line2d_15">
      <path d="M 31.0325 177.651235 
L 477.4325 177.651235 
" clip-path="url(#pb8d0123f37)" style="fill: none; stroke-dasharray: 2.96,1.28; stroke-dashoffset: 0; stroke: #374151; stroke-opacity: 0.1; stroke-width: 0.8"/>
     </g>
     <g id="line2d_16">
      <defs>
       <path id="m8ffcd896fa" d="M 0 0 
L -3.5 0 
" style="stroke: #9ca3af; stroke-width: 0.8"/>
      </defs>
      <g>
       <use xlink:href="#m8ffcd896fa" x="31.0325" y="177.651235" style="fill: #9ca3af; stroke: #9ca3af; stroke-width: 0.8"/>
      </g>
     </g>
     <g id="text_1">
      <!-- 90 -->
      <g style="fill: #9ca3af" transform="translate(13.8525 180.69061) scale(0.08 -0.08)">
       <defs>
        <path id="DejaVuSans-39" d="M 703 97 
L 703 672 
Q 941 559 1184 500 
Q 1428 441 1663 441 
Q 2288 441 2617 861 
Q 2947 1281 2994 2138 
Q 2813 1869 2534 1725 
Q 2256 1581 1919 1581 
Q 1219 1581 811 2004 
Q 403 2428 403 3163 
Q 403 3881 828 4315 
Q 1253 4750 1959 4750 
Q 2769 4750 3195 4129 
Q 3622 3509 3622 2328 
Q 3622 1225 3098 567 
Q 2575 -91 1691 -91 
Q 1453 -91 1209 -44 
Q 966 3 703 97 
z
M 1959 2075 
Q 2384 2075 2632 2365 
Q 2881 2656 2881 3163 
Q 2881 3666 2632 3958 
Q 2384 4250 1959 4250 
Q 1534 4250 1286 3958 
Q 1038 3666 1038 3163 
Q 1038 2656 1286 2365 
Q 1534 2075 1959 2075 
z
" transform="scale(0.015625)"/>
        <path id="DejaVuSans-30" d="M 2034 4250 
Q 1547 4250 1301 3770 
Q 1056 3291 1056 2328 
Q 1056 1369 1301 889 
Q 1547 409 2034 409 
Q 2525 409 2770 889 
Q 3016 1369 3016 2328 
Q 3016 3291 2770 3770 
Q 2525 4250 2034 4250 
z
M 2034 4750 
Q 2819 4750 3233 4129 
Q 3647 3509 3647 2328 
Q 3647 1150 3233 529 
Q 2819 -91 2034 -91 
Q 1250 -91 836 529 
Q 422 1150 422 2328 
Q 422 3509 836 4129 
Q 1250 4750 2034 4750 
z
" transform="scale(0.015625)"/>
       </defs>
       <use xlink:href="#DejaVuSans-39"/>
       <use xlink:href="#DejaVuSans-30" transform="translate(63.623047 0)"/>
      </g>
     </g>
    </g>
    <g id="ytick_2">
     <g id="line2d_17">
      <path d="M 31.0325 157.42674 
L 477.4325 157.42674 
" clip-path="url(#pb8d0123f37)" style="fill: none; stroke-dasharray: 2.96,1.28; stroke-dashoffset: 0; stroke: #374151; stroke-opacity: 0.1; stroke-width: 0.8"/>
     </g>
     <g id="line2d_18">
      <g>
       <use xlink:href="#m8ffcd896fa" x="31.0325" y="157.42674" style="fill: #9ca3af; stroke: #9ca3af; stroke-width: 0.8"/>
      </g>
     </g>
     <g id="text_2">
      <!-- 92 -->
      <g style="fill: #9ca3af" transform="translate(13.8525 160.466115) scale(0.08 -0.08)">
       <defs>
        <path id="DejaVuSans-32" d="M 1228 531 
L 3431 531 
L 3431 0 
L 469 0 
L 469 531 
Q 828 903 1448 1529 
Q 2069 2156 2228 2338 
Q 2531 2678 2651 2914 
Q 2772 3150 2772 3378 
Q 2772 3750 2511 3984 
Q 2250 4219 1831 4219 
Q 1534 4219 1204 4116 
Q 875 4013 500 3803 
L 500 4441 
Q 881 4594 1212 4672 
Q 1544 4750 1819 4750 
Q 2544 4750 2975 4387 
Q 3406 4025 3406 3419 
Q 3406 3131 3298 2873 
Q 3191 2616 2906 2266 
Q 2828 2175 2409 1742 
Q 1991 1309 1228 531 
z
" transform="scale(0.015625)"/>
       </defs>
       <use xlink:href="#DejaVuSans-39"/>
       <use xlink:href="#DejaVuSans-32" transform="translate(63.623047 0)"/>
      </g>
     </g>
    </g>
    <g id="ytick_3">
     <g id="line2d_19">
      <path d="M 31.0325 137.202245 
L 477.4325 137.202245 
" clip-path="url(#pb8d0123f37)" style="fill: none; stroke-dasharray: 2.96,1.28; stroke-dashoffset: 0; stroke: #374151; stroke-opacity: 0.1; stroke-width: 0.8"/>
     </g>
     <g id="line2d_20">
      <g>
       <use xlink:href="#m8ffcd896fa" x="31.0325" y="137.202245" style="fill: #9ca3af; stroke: #9ca3af; stroke-width: 0.8"/>
      </g>
     </g>
     <g id="text_3">
      <!-- 94 -->
      <g style="fill: #9ca3af" transform="translate(13.8525 140.24162) scale(0.08 -0.08)">
       <defs>
        <path id="DejaVuSans-34" d="M 2419 4116 
L 825 1625 
L 2419 1625 
L 2419 4116 
z
M 2253 4666 
L 3047 4666 
L 3047 1625 
L 3713 1625 
L 3713 1100 
L 3047 1100 
L 3047 0 
L 2419 0 
L 2419 1100 
L 313 1100 
L 313 1709 
L 2253 4666 
z
" transform="scale(0.015625)"/>
       </defs>
       <use xlink:href="#DejaVuSans-39"/>
       <use xlink:href="#DejaVuSans-34" transform="translate(63.623047 0)"/>
      </g>
     </g>
    </g>
    <g id="ytick_4">
     <g id="line2d_21">
      <path d="M 31.0325 116.977749 
L 477.4325 116.977749 
" clip-path="url(#pb8d0123f37)" style="fill: none; stroke-dasharray: 2.96,1.28; stroke-dashoffset: 0; stroke: #374151; stroke-opacity: 0.1; stroke-width: 0.8"/>
     </g>
     <g id="line2d_22">
      <g>
       <use xlink:href="#m8ffcd896fa" x="31.0325" y="116.977749" style="fill: #9ca3af; stroke: #9ca3af; stroke-width: 0.8"/>
      </g>
     </g>
     <g id="text_4">
      <!-- 96 -->
      <g style="fill: #9ca3af" transform="translate(13.8525 120.017124) scale(0.08 -0.08)">
       <defs>
        <path id="DejaVuSans-36" d="M 2113 2584 
Q 1688 2584 1439 2293 
Q 1191 2003 1191 1497 
Q 1191 994 1439 701 
Q 1688 409 2113 409 
Q 2538 409 2786 701 
Q 3034 994 3034 1497 
Q 3034 2003 2786 2293 
Q 2538 2584 2113 2584 
z
M 3366 4563 
L 3366 3988 
Q 3128 4100 2886 4159 
Q 2644 4219 2406 4219 
Q 1781 4219 1451 3797 
Q 1122 3375 1075 2522 
Q 1259 2794 1537 2939 
Q 1816 3084 2150 3084 
Q 2853 3084 3261 2657 
Q 3669 2231 3669 1497 
Q 3669 778 3244 343 
Q 2819 -91 2113 -91 
Q 1303 -91 875 529 
Q 447 1150 447 2328 
Q 447 3434 972 4092 
Q 1497 4750 2381 4750 
Q 2619 4750 2861 4703 
Q 3103 4656 3366 4563 
z
" transform="scale(0.015625)"/>
       </defs>
       <use xlink:href="#DejaVuSans-39"/>
       <use xlink:href="#DejaVuSans-36" transform="translate(63.623047 0)"/>
      </g>
     </g>
    </g>
    <g id="ytick_5">
     <g id="line2d_23">
      <path d="M 31.0325 96.753254 
L 477.4325 96.753254 
" clip-path="url(#pb8d0123f37)" style="fill: none; stroke-dasharray: 2.96,1.28; stroke-dashoffset: 0; stroke: #374151; stroke-opacity: 0.1; stroke-width: 0.8"/>
     </g>
     <g id="line2d_24">
      <g>
       <use xlink:href="#m8ffcd896fa" x="31.0325" y="96.753254" style="fill: #9ca3af; stroke: #9ca3af; stroke-width: 0.8"/>
      </g>
     </g>
     <g id="text_5">
      <!-- 98 -->
      <g style="fill: #9ca3af" transform="translate(13.8525 99.792629) scale(0.08 -0.08)">
       <defs>
        <path id="DejaVuSans-38" d="M 2034 2216 
Q 1584 2216 1326 1975 
Q 1069 1734 1069 1313 
Q 1069 891 1326 650 
Q 1584 409 2034 409 
Q 2484 409 2743 651 
Q 3003 894 3003 1313 
Q 3003 1734 2745 1975 
Q 2488 2216 2034 2216 
z
M 1403 2484 
Q 997 2584 770 2862 
Q 544 3141 544 3541 
Q 544 4100 942 4425 
Q 1341 4750 2034 4750 
Q 2731 4750 3128 4425 
Q 3525 4100 3525 3541 
Q 3525 3141 3298 2862 
Q 3072 2584 2669 2484 
Q 3125 2378 3379 2068 
Q 3634 1759 3634 1313 
Q 3634 634 3220 271 
Q 2806 -91 2034 -91 
Q 1263 -91 848 271 
Q 434 634 434 1313 
Q 434 1759 690 2068 
Q 947 2378 1403 2484 
z
M 1172 3481 
Q 1172 3119 1398 2916 
Q 1625 2713 2034 2713 
Q 2441 2713 2670 2916 
Q 2900 3119 2900 3481 
Q 2900 3844 2670 4047 
Q 2441 4250 2034 4250 
Q 1625 4250 1398 4047 
Q 1172 3844 1172 3481 
z
" transform="scale(0.015625)"/>
       </defs>
       <use xlink:href="#DejaVuSans-39"/>
       <use xlink:href="#DejaVuSans-38" transform="translate(63.623047 0)"/>
      </g>
     </g>
    </g>
    <g id="ytick_6">
     <g id="line2d_25">
      <path d="M 31.0325 76.528758 
L 477.4325 76.528758 
" clip-path="url(#pb8d0123f37)" style="fill: none; stroke-dasharray: 2.96,1.28; stroke-dashoffset: 0; stroke: #374151; stroke-opacity: 0.1; stroke-width: 0.8"/>
     </g>
     <g id="line2d_26">
      <g>
       <use xlink:href="#m8ffcd896fa" x="31.0325" y="76.528758" style="fill: #9ca3af; stroke: #9ca3af; stroke-width: 0.8"/>
      </g>
     </g>
     <g id="text_6">
      <!-- 100 -->
      <g style="fill: #9ca3af" transform="translate(8.7625 79.568133) scale(0.08 -0.08)">
       <defs>
        <path id="DejaVuSans-31" d="M 794 531 
L 1825 531 
L 1825 4091 
L 703 3866 
L 703 4441 
L 1819 4666 
L 2450 4666 
L 2450 531 
L 3481 531 
L 3481 0 
L 794 0 
L 794 531 
z
" transform="scale(0.015625)"/>
       </defs>
       <use xlink:href="#DejaVuSans-31"/>
       <use xlink:href="#DejaVuSans-30" transform="translate(63.623047 0)"/>
       <use xlink:href="#DejaVuSans-30" transform="translate(127.246094 0)"/>
      </g>
     </g>
    </g>
    <g id="ytick_7">
     <g id="line2d_27">
      <path d="M 31.0325 56.304263 
L 477.4325 56.304263 
" clip-path="url(#pb8d0123f37)" style="fill: none; stroke-dasharray: 2.96,1.28; stroke-dashoffset: 0; stroke: #374151; stroke-opacity: 0.1; stroke-width: 0.8"/>
     </g>
     <g id="line2d_28">
      <g>
       <use xlink:href="#m8ffcd896fa" x="31.0325" y="56.304263" style="fill: #9ca3af; stroke: #9ca3af; stroke-width: 0.8"/>
      </g>
     </g>
     <g id="text_7">
      <!-- 102 -->
      <g style="fill: #9ca3af" transform="translate(8.7625 59.343638) scale(0.08 -0.08)">
       <use xlink:href="#DejaVuSans-31"/>
       <use xlink:href="#DejaVuSans-30" transform="translate(63.623047 0)"/>
       <use xlink:href="#DejaVuSans-32" transform="translate(127.246094 0)"/>
      </g>
     </g>
    </g>
    <g id="ytick_8">
     <g id="line2d_29">
      <path d="M 31.0325 36.079767 
L 477.4325 36.079767 
" clip-path="url(#pb8d0123f37)" style="fill: none; stroke-dasharray: 2.96,1.28; stroke-dashoffset: 0; stroke: #374151; stroke-opacity: 0.1; stroke-width: 0.8"/>
     </g>
     <g id="line2d_30">
      <g>
       <use xlink:href="#m8ffcd896fa" x="31.0325" y="36.079767" style="fill: #9ca3af; stroke: #9ca3af; stroke-width: 0.8"/>
      </g>
     </g>
     <g id="text_8">
      <!-- 104 -->
      <g style="fill: #9ca3af" transform="translate(8.7625 39.119142) scale(0.08 -0.08)">
       <use xlink:href="#DejaVuSans-31"/>
       <use xlink:href="#DejaVuSans-30" transform="translate(63.623047 0)"/>
       <use xlink:href="#DejaVuSans-34" transform="translate(127.246094 0)"/>
      </g>
     </g>
    </g>
   </g>
   <g id="line2d_31">
    <path d="M 45.4325 85.353189 
L 45.4325 71.07059 
" clip-path="url(#pb8d0123f37)" style="fill: none; stroke: #22c55e; stroke-width: 1.5; stroke-linecap: square"/>
   </g>
   <g id="line2d_32">
    <path d="M 59.8325 75.50898 
L 59.8325 66.13316 
" clip-path="url(#pb8d0123f37)" style="fill: none; stroke: #ef4444; stroke-width: 1.5; stroke-linecap: square"/>
   </g>
   <g id="line2d_33">
    <path d="M 74.2325 80.412089 
L 74.2325 60.997439 
" clip-path="url(#pb8d0123f37)" style="fill: none; stroke: #22c55e; stroke-width: 1.5; stroke-linecap: square"/>
   </g>
   <g id="line2d_34">
    <path d="M 88.6325 75.148884 
L 88.6325 57.68837 
" clip-path="url(#pb8d0123f37)" style="fill: none; stroke: #22c55e; stroke-width: 1.5; stroke-linecap: square"/>
   </g>
   <g id="line2d_35">
    <path d="M 103.0325 61.090272 
L 103.0325 46.060009 
" clip-path="url(#pb8d0123f37)" style="fill: none; stroke: #22c55e; stroke-width: 1.5; stroke-linecap: square"/>
   </g>
   <g id="line2d_36">
    <path d="M 117.4325 63.289027 
L 117.4325 47.781815 
" clip-path="url(#pb8d0123f37)" style="fill: none; stroke: #ef4444; stroke-width: 1.5; stroke-linecap: square"/>
   </g>
   <g id="line2d_37">
    <path d="M 131.8325 68.133678 
L 131.8325 54.330471 
" clip-path="url(#pb8d0123f37)" style="fill: none; stroke: #ef4444; stroke-width: 1.5; stroke-linecap: square"/>
   </g>
   <g id="line2d_38">
    <path d="M 146.2325 71.010021 
L 146.2325 49.509257 
" clip-path="url(#pb8d0123f37)" style="fill: none; stroke: #ef4444; stroke-width: 1.5; stroke-linecap: square"/>
   </g>
   <g id="line2d_39">
    <path d="M 160.6325 73.662443 
L 160.6325 56.073911 
" clip-path="url(#pb8d0123f37)" style="fill: none; stroke: #ef4444; stroke-width: 1.5; stroke-linecap: square"/>
   </g>
   <g id="line2d_40">
    <path d="M 175.0325 76.126855 
L 175.0325 55.015759 
" clip-path="url(#pb8d0123f37)" style="fill: none; stroke: #ef4444; stroke-width: 1.5; stroke-linecap: square"/>
   </g>
   <g id="line2d_41">
    <path d="M 189.4325 60.130423 
L 189.4325 49.210814 
" clip-path="url(#pb8d0123f37)" style="fill: none; stroke: #ef4444; stroke-width: 1.5; stroke-linecap: square"/>
   </g>
   <g id="line2d_42">
    <path d="M 203.8325 72.321769 
L 203.8325 50.272245 
" clip-path="url(#pb8d0123f37)" style="fill: none; stroke: #22c55e; stroke-width: 1.5; stroke-linecap: square"/>
   </g>
   <g id="line2d_43">
    <path d="M 218.2325 74.357591 
L 218.2325 58.292698 
" clip-path="url(#pb8d0123f37)" style="fill: none; stroke: #22c55e; stroke-width: 1.5; stroke-linecap: square"/>
   </g>
   <g id="line2d_44">
    <path d="M 232.6325 66.646452 
L 232.6325 46.116358 
" clip-path="url(#pb8d0123f37)" style="fill: none; stroke: #ef4444; stroke-width: 1.5; stroke-linecap: square"/>
   </g>
   <g id="line2d_45">
    <path d="M 247.0325 61.523603 
L 247.0325 44.840076 
" clip-path="url(#pb8d0123f37)" style="fill: none; stroke: #ef4444; stroke-width: 1.5; stroke-linecap: square"/>
   </g>
   <g id="line2d_46">
    <path d="M 261.4325 66.888257 
L 261.4325 56.432649 
" clip-path="url(#pb8d0123f37)" style="fill: none; stroke: #22c55e; stroke-width: 1.5; stroke-linecap: square"/>
   </g>
   <g id="line2d_47">
    <path d="M 275.8325 70.755368 
L 275.8325 50.941213 
" clip-path="url(#pb8d0123f37)" style="fill: none; stroke: #22c55e; stroke-width: 1.5; stroke-linecap: square"/>
   </g>
   <g id="line2d_48">
    <path d="M 290.2325 93.46952 
L 290.2325 75.261677 
" clip-path="url(#pb8d0123f37)" style="fill: none; stroke: #22c55e; stroke-width: 1.5; stroke-linecap: square"/>
   </g>
   <g id="line2d_49">
    <path d="M 304.6325 89.203655 
L 304.6325 70.539885 
" clip-path="url(#pb8d0123f37)" style="fill: none; stroke: #22c55e; stroke-width: 1.5; stroke-linecap: square"/>
   </g>
   <g id="line2d_50">
    <path d="M 319.0325 100.041309 
L 319.0325 84.068164 
" clip-path="url(#pb8d0123f37)" style="fill: none; stroke: #ef4444; stroke-width: 1.5; stroke-linecap: square"/>
   </g>
   <g id="line2d_51">
    <path d="M 333.4325 121.933522 
L 333.4325 101.573427 
" clip-path="url(#pb8d0123f37)" style="fill: none; stroke: #ef4444; stroke-width: 1.5; stroke-linecap: square"/>
   </g>
   <g id="line2d_52">
    <path d="M 347.8325 124.557157 
L 347.8325 103.337795 
" clip-path="url(#pb8d0123f37)" style="fill: none; stroke: #22c55e; stroke-width: 1.5; stroke-linecap: square"/>
   </g>
   <g id="line2d_53">
    <path d="M 362.2325 130.537404 
L 362.2325 110.240676 
" clip-path="url(#pb8d0123f37)" style="fill: none; stroke: #22c55e; stroke-width: 1.5; stroke-linecap: square"/>
   </g>
   <g id="line2d_54">
    <path d="M 376.6325 135.074264 
L 376.6325 116.680873 
" clip-path="url(#pb8d0123f37)" style="fill: none; stroke: #22c55e; stroke-width: 1.5; stroke-linecap: square"/>
   </g>
   <g id="line2d_55">
    <path d="M 391.0325 138.754713 
L 391.0325 120.719747 
" clip-path="url(#pb8d0123f37)" style="fill: none; stroke: #22c55e; stroke-width: 1.5; stroke-linecap: square"/>
   </g>
   <g id="line2d_56">
    <path d="M 405.4325 140.511213 
L 405.4325 126.754891 
" clip-path="url(#pb8d0123f37)" style="fill: none; stroke: #22c55e; stroke-width: 1.5; stroke-linecap: square"/>
   </g>
   <g id="line2d_57">
    <path d="M 419.8325 152.482657 
L 419.8325 131.949547 
" clip-path="url(#pb8d0123f37)" style="fill: none; stroke: #22c55e; stroke-width: 1.5; stroke-linecap: square"/>
   </g>
   <g id="line2d_58">
    <path d="M 434.2325 159.407029 
L 434.2325 140.152096 
" clip-path="url(#pb8d0123f37)" style="fill: none; stroke: #22c55e; stroke-width: 1.5; stroke-linecap: square"/>
   </g>
   <g id="line2d_59">
    <path d="M 448.6325 162.163429 
L 448.6325 146.5407 
" clip-path="url(#pb8d0123f37)" style="fill: none; stroke: #22c55e; stroke-width: 1.5; stroke-linecap: square"/>
   </g>
   <g id="line2d_60">
    <path d="M 463.0325 180.059588 
L 463.0325 160.913449 
" clip-path="url(#pb8d0123f37)" style="fill: none; stroke: #ef4444; stroke-width: 1.5; stroke-linecap: square"/>
   </g>
   <g id="patch_33">
    <path d="M 31.0325 193.58154 
L 31.0325 31.318125 
" style="fill: none; stroke: #1f2937; stroke-width: 0.8; stroke-linejoin: miter; stroke-linecap: square"/>
   </g>
   <g id="patch_34">
    <path d="M 31.0325 193.58154 
L 477.4325 193.58154 
" style="fill: none; stroke: #1f2937; stroke-width: 0.8; stroke-linejoin: miter; stroke-linecap: square"/>
   </g>
   <g id="text_9">
    <!-- Matching Low — HD 1H -->
    <g style="fill: #ffffff" transform="translate(175.851875 16.318125) scale(0.12 -0.12)">
     <defs>
      <path id="DejaVuSans-Bold-4d" d="M 588 4666 
L 2119 4666 
L 3181 2169 
L 4250 4666 
L 5778 4666 
L 5778 0 
L 4641 0 
L 4641 3413 
L 3566 897 
L 2803 897 
L 1728 3413 
L 1728 0 
L 588 0 
L 588 4666 
z
" transform="scale(0.015625)"/>
      <path id="DejaVuSans-Bold-61" d="M 2106 1575 
Q 1756 1575 1579 1456 
Q 1403 1338 1403 1106 
Q 1403 894 1545 773 
Q 1688 653 1941 653 
Q 2256 653 2472 879 
Q 2688 1106 2688 1447 
L 2688 1575 
L 2106 1575 
z
M 3816 1997 
L 3816 0 
L 2688 0 
L 2688 519 
Q 2463 200 2181 54 
Q 1900 -91 1497 -91 
Q 953 -91 614 226 
Q 275 544 275 1050 
Q 275 1666 698 1953 
Q 1122 2241 2028 2241 
L 2688 2241 
L 2688 2328 
Q 2688 2594 2478 2717 
Q 2269 2841 1825 2841 
Q 1466 2841 1156 2769 
Q 847 2697 581 2553 
L 581 3406 
Q 941 3494 1303 3539 
Q 1666 3584 2028 3584 
Q 2975 3584 3395 3211 
Q 3816 2838 3816 1997 
z
" transform="scale(0.015625)"/>
      <path id="DejaVuSans-Bold-74" d="M 1759 4494 
L 1759 3500 
L 2913 3500 
L 2913 2700 
L 1759 2700 
L 1759 1216 
Q 1759 972 1856 886 
Q 1953 800 2241 800 
L 2816 800 
L 2816 0 
L 1856 0 
Q 1194 0 917 276 
Q 641 553 641 1216 
L 641 2700 
L 84 2700 
L 84 3500 
L 641 3500 
L 641 4494 
L 1759 4494 
z
" transform="scale(0.015625)"/>
      <path id="DejaVuSans-Bold-63" d="M 3366 3391 
L 3366 2478 
Q 3138 2634 2908 2709 
Q 2678 2784 2431 2784 
Q 1963 2784 1702 2511 
Q 1441 2238 1441 1747 
Q 1441 1256 1702 982 
Q 1963 709 2431 709 
Q 2694 709 2930 787 
Q 3166 866 3366 1019 
L 3366 103 
Q 3103 6 2833 -42 
Q 2563 -91 2291 -91 
Q 1344 -91 809 395 
Q 275 881 275 1747 
Q 275 2613 809 3098 
Q 1344 3584 2291 3584 
Q 2566 3584 2833 3536 
Q 3100 3488 3366 3391 
z
" transform="scale(0.015625)"/>
      <path id="DejaVuSans-Bold-68" d="M 4056 2131 
L 4056 0 
L 2931 0 
L 2931 347 
L 2931 1625 
Q 2931 2084 2911 2256 
Q 2891 2428 2841 2509 
Q 2775 2619 2662 2680 
Q 2550 2741 2406 2741 
Q 2056 2741 1856 2470 
Q 1656 2200 1656 1722 
L 1656 0 
L 538 0 
L 538 4863 
L 1656 4863 
L 1656 2988 
Q 1909 3294 2193 3439 
Q 2478 3584 2822 3584 
Q 3428 3584 3742 3212 
Q 4056 2841 4056 2131 
z
" transform="scale(0.015625)"/>
      <path id="DejaVuSans-Bold-69" d="M 538 3500 
L 1656 3500 
L 1656 0 
L 538 0 
L 538 3500 
z
M 538 4863 
L 1656 4863 
L 1656 3950 
L 538 3950 
L 538 4863 
z
" transform="scale(0.015625)"/>
      <path id="DejaVuSans-Bold-6e" d="M 4056 2131 
L 4056 0 
L 2931 0 
L 2931 347 
L 2931 1631 
Q 2931 2084 2911 2256 
Q 2891 2428 2841 2509 
Q 2775 2619 2662 2680 
Q 2550 2741 2406 2741 
Q 2056 2741 1856 2470 
Q 1656 2200 1656 1722 
L 1656 0 
L 538 0 
L 538 3500 
L 1656 3500 
L 1656 2988 
Q 1909 3294 2193 3439 
Q 2478 3584 2822 3584 
Q 3428 3584 3742 3212 
Q 4056 2841 4056 2131 
z
" transform="scale(0.015625)"/>
      <path id="DejaVuSans-Bold-67" d="M 2919 594 
Q 2688 288 2409 144 
Q 2131 0 1766 0 
Q 1125 0 706 504 
Q 288 1009 288 1791 
Q 288 2575 706 3076 
Q 1125 3578 1766 3578 
Q 2131 3578 2409 3434 
Q 2688 3291 2919 2981 
L 2919 3500 
L 4044 3500 
L 4044 353 
Q 4044 -491 3511 -936 
Q 2978 -1381 1966 -1381 
Q 1638 -1381 1331 -1331 
Q 1025 -1281 716 -1178 
L 716 -306 
Q 1009 -475 1290 -558 
Q 1572 -641 1856 -641 
Q 2406 -641 2662 -400 
Q 2919 -159 2919 353 
L 2919 594 
z
M 2181 2772 
Q 1834 2772 1640 2515 
Q 1447 2259 1447 1791 
Q 1447 1309 1634 1061 
Q 1822 813 2181 813 
Q 2531 813 2725 1069 
Q 2919 1325 2919 1791 
Q 2919 2259 2725 2515 
Q 2531 2772 2181 2772 
z
" transform="scale(0.015625)"/>
      <path id="DejaVuSans-Bold-20" transform="scale(0.015625)"/>
      <path id="DejaVuSans-Bold-4c" d="M 588 4666 
L 1791 4666 
L 1791 909 
L 3903 909 
L 3903 0 
L 588 0 
L 588 4666 
z
" transform="scale(0.015625)"/>
      <path id="DejaVuSans-Bold-6f" d="M 2203 2784 
Q 1831 2784 1636 2517 
Q 1441 2250 1441 1747 
Q 1441 1244 1636 976 
Q 1831 709 2203 709 
Q 2569 709 2762 976 
Q 2956 1244 2956 1747 
Q 2956 2250 2762 2517 
Q 2569 2784 2203 2784 
z
M 2203 3584 
Q 3106 3584 3614 3096 
Q 4122 2609 4122 1747 
Q 4122 884 3614 396 
Q 3106 -91 2203 -91 
Q 1297 -91 786 396 
Q 275 884 275 1747 
Q 275 2609 786 3096 
Q 1297 3584 2203 3584 
z
" transform="scale(0.015625)"/>
      <path id="DejaVuSans-Bold-77" d="M 225 3500 
L 1313 3500 
L 1900 1088 
L 2491 3500 
L 3425 3500 
L 4013 1113 
L 4603 3500 
L 5691 3500 
L 4769 0 
L 3547 0 
L 2956 2406 
L 2369 0 
L 1147 0 
L 225 3500 
z
" transform="scale(0.015625)"/>
      <path id="DejaVuSans-Bold-2014" d="M 344 2156 
L 6056 2156 
L 6056 1350 
L 344 1350 
L 344 2156 
z
" transform="scale(0.015625)"/>
      <path id="DejaVuSans-Bold-48" d="M 588 4666 
L 1791 4666 
L 1791 2888 
L 3566 2888 
L 3566 4666 
L 4769 4666 
L 4769 0 
L 3566 0 
L 3566 1978 
L 1791 1978 
L 1791 0 
L 588 0 
L 588 4666 
z
" transform="scale(0.015625)"/>
      <path id="DejaVuSans-Bold-44" d="M 1791 3756 
L 1791 909 
L 2222 909 
Q 2959 909 3348 1275 
Q 3738 1641 3738 2338 
Q 3738 3031 3350 3393 
Q 2963 3756 2222 3756 
L 1791 3756 
z
M 588 4666 
L 1856 4666 
Q 2919 4666 3439 4514 
Q 3959 4363 4331 4000 
Q 4659 3684 4818 3271 
Q 4978 2859 4978 2338 
Q 4978 1809 4818 1395 
Q 4659 981 4331 666 
Q 3956 303 3431 151 
Q 2906 0 1856 0 
L 588 0 
L 588 4666 
z
" transform="scale(0.015625)"/>
      <path id="DejaVuSans-Bold-31" d="M 750 831 
L 1813 831 
L 1813 3847 
L 722 3622 
L 722 4441 
L 1806 4666 
L 2950 4666 
L 2950 831 
L 4013 831 
L 4013 0 
L 750 0 
L 750 831 
z
" transform="scale(0.015625)"/>
     </defs>
     <use xlink:href="#DejaVuSans-Bold-4d"/>
     <use xlink:href="#DejaVuSans-Bold-61" transform="translate(99.511719 0)"/>
     <use xlink:href="#DejaVuSans-Bold-74" transform="translate(166.992188 0)"/>
     <use xlink:href="#DejaVuSans-Bold-63" transform="translate(214.794922 0)"/>
     <use xlink:href="#DejaVuSans-Bold-68" transform="translate(274.072266 0)"/>
     <use xlink:href="#DejaVuSans-Bold-69" transform="translate(345.263672 0)"/>
     <use xlink:href="#DejaVuSans-Bold-6e" transform="translate(379.541016 0)"/>
     <use xlink:href="#DejaVuSans-Bold-67" transform="translate(450.732422 0)"/>
     <use xlink:href="#DejaVuSans-Bold-20" transform="translate(522.314453 0)"/>
     <use xlink:href="#DejaVuSans-Bold-4c" transform="translate(557.128906 0)"/>
     <use xlink:href="#DejaVuSans-Bold-6f" transform="translate(620.849609 0)"/>
     <use xlink:href="#DejaVuSans-Bold-77" transform="translate(689.550781 0)"/>
     <use xlink:href="#DejaVuSans-Bold-20" transform="translate(781.933594 0)"/>
     <use xlink:href="#DejaVuSans-Bold-2014" transform="translate(816.748047 0)"/>
     <use xlink:href="#DejaVuSans-Bold-20" transform="translate(916.748047 0)"/>
     <use xlink:href="#DejaVuSans-Bold-48" transform="translate(951.5625 0)"/>
     <use xlink:href="#DejaVuSans-Bold-44" transform="translate(1035.253906 0)"/>
     <use xlink:href="#DejaVuSans-Bold-20" transform="translate(1118.261719 0)"/>
     <use xlink:href="#DejaVuSans-Bold-31" transform="translate(1153.076172 0)"/>
     <use xlink:href="#DejaVuSans-Bold-48" transform="translate(1222.65625 0)"/>
    </g>
   </g>
  </g>
  <g id="axes_2">
   <g id="patch_35">
    <path d="M 31.0325 253.078125 
L 477.4325 253.078125 
L 477.4325 198.99032 
L 31.0325 198.99032 
z
" style="fill: #0a0f1a"/>
   </g>
   <g id="patch_36">
    <path d="M 51.323409 253.078125 
L 60.888147 253.078125 
L 60.888147 204.07463 
L 51.323409 204.07463 
z
" clip-path="url(#p0016593fe3)" style="fill: #22c55e; fill-opacity: 0.266667"/>
   </g>
   <g id="patch_37">
    <path d="M 64.987321 253.078125 
L 74.552059 253.078125 
L 74.552059 212.943977 
L 64.987321 212.943977 
z
" clip-path="url(#p0016593fe3)" style="fill: #ef4444; fill-opacity: 0.266667"/>
   </g>
   <g id="patch_38">
    <path d="M 78.651233 253.078125 
L 88.215971 253.078125 
L 88.215971 222.716133 
L 78.651233 222.716133 
z
" clip-path="url(#p0016593fe3)" style="fill: #22c55e; fill-opacity: 0.266667"/>
   </g>
   <g id="patch_39">
    <path d="M 92.315145 253.078125 
L 101.879883 253.078125 
L 101.879883 202.903761 
L 92.315145 202.903761 
z
" clip-path="url(#p0016593fe3)" style="fill: #22c55e; fill-opacity: 0.266667"/>
   </g>
   <g id="patch_40">
    <path d="M 105.979056 253.078125 
L 115.543795 253.078125 
L 115.543795 230.578446 
L 105.979056 230.578446 
z
" clip-path="url(#p0016593fe3)" style="fill: #22c55e; fill-opacity: 0.266667"/>
   </g>
   <g id="patch_41">
    <path d="M 119.642968 253.078125 
L 129.207707 253.078125 
L 129.207707 201.812755 
L 119.642968 201.812755 
z
" clip-path="url(#p0016593fe3)" style="fill: #ef4444; fill-opacity: 0.266667"/>
   </g>
   <g id="patch_42">
    <path d="M 133.30688 253.078125 
L 142.871618 253.078125 
L 142.871618 241.55193 
L 133.30688 241.55193 
z
" clip-path="url(#p0016593fe3)" style="fill: #ef4444; fill-opacity: 0.266667"/>
   </g>
   <g id="patch_43">
    <path d="M 146.970792 253.078125 
L 156.53553 253.078125 
L 156.53553 215.031653 
L 146.970792 215.031653 
z
" clip-path="url(#p0016593fe3)" style="fill: #ef4444; fill-opacity: 0.266667"/>
   </g>
   <g id="patch_44">
    <path d="M 160.634704 253.078125 
L 170.199442 253.078125 
L 170.199442 209.244444 
L 160.634704 209.244444 
z
" clip-path="url(#p0016593fe3)" style="fill: #ef4444; fill-opacity: 0.266667"/>
   </g>
   <g id="patch_45">
    <path d="M 174.298616 253.078125 
L 183.863354 253.078125 
L 183.863354 235.572868 
L 174.298616 235.572868 
z
" clip-path="url(#p0016593fe3)" style="fill: #ef4444; fill-opacity: 0.266667"/>
   </g>
   <g id="patch_46">
    <path d="M 187.962528 253.078125 
L 197.527266 253.078125 
L 197.527266 210.255167 
L 187.962528 210.255167 
z
" clip-path="url(#p0016593fe3)" style="fill: #ef4444; fill-opacity: 0.266667"/>
   </g>
   <g id="patch_47">
    <path d="M 201.626439 253.078125 
L 211.191178 253.078125 
L 211.191178 222.273467 
L 201.626439 222.273467 
z
" clip-path="url(#p0016593fe3)" style="fill: #22c55e; fill-opacity: 0.266667"/>
   </g>
   <g id="patch_48">
    <path d="M 215.290351 253.078125 
L 224.85509 253.078125 
L 224.85509 235.249494 
L 215.290351 235.249494 
z
" clip-path="url(#p0016593fe3)" style="fill: #22c55e; fill-opacity: 0.266667"/>
   </g>
   <g id="patch_49">
    <path d="M 228.954263 253.078125 
L 238.519001 253.078125 
L 238.519001 202.049903 
L 228.954263 202.049903 
z
" clip-path="url(#p0016593fe3)" style="fill: #ef4444; fill-opacity: 0.266667"/>
   </g>
   <g id="patch_50">
    <path d="M 242.618175 253.078125 
L 252.182913 253.078125 
L 252.182913 225.353328 
L 242.618175 225.353328 
z
" clip-path="url(#p0016593fe3)" style="fill: #ef4444; fill-opacity: 0.266667"/>
   </g>
   <g id="patch_51">
    <path d="M 256.282087 253.078125 
L 265.846825 253.078125 
L 265.846825 230.154517 
L 256.282087 230.154517 
z
" clip-path="url(#p0016593fe3)" style="fill: #22c55e; fill-opacity: 0.266667"/>
   </g>
   <g id="patch_52">
    <path d="M 269.945999 253.078125 
L 279.510737 253.078125 
L 279.510737 209.548916 
L 269.945999 209.548916 
z
" clip-path="url(#p0016593fe3)" style="fill: #22c55e; fill-opacity: 0.266667"/>
   </g>
   <g id="patch_53">
    <path d="M 283.60991 253.078125 
L 293.174649 253.078125 
L 293.174649 205.969957 
L 283.60991 205.969957 
z
" clip-path="url(#p0016593fe3)" style="fill: #22c55e; fill-opacity: 0.266667"/>
   </g>
   <g id="patch_54">
    <path d="M 297.273822 253.078125 
L 306.838561 253.078125 
L 306.838561 215.723929 
L 297.273822 215.723929 
z
" clip-path="url(#p0016593fe3)" style="fill: #22c55e; fill-opacity: 0.266667"/>
   </g>
   <g id="patch_55">
    <path d="M 310.937734 253.078125 
L 320.502472 253.078125 
L 320.502472 240.260233 
L 310.937734 240.260233 
z
" clip-path="url(#p0016593fe3)" style="fill: #ef4444; fill-opacity: 0.266667"/>
   </g>
   <g id="patch_56">
    <path d="M 324.601646 253.078125 
L 334.166384 253.078125 
L 334.166384 207.318692 
L 324.601646 207.318692 
z
" clip-path="url(#p0016593fe3)" style="fill: #ef4444; fill-opacity: 0.266667"/>
   </g>
   <g id="patch_57">
    <path d="M 338.265558 253.078125 
L 347.830296 253.078125 
L 347.830296 230.490485 
L 338.265558 230.490485 
z
" clip-path="url(#p0016593fe3)" style="fill: #22c55e; fill-opacity: 0.266667"/>
   </g>
   <g id="patch_58">
    <path d="M 351.92947 253.078125 
L 361.494208 253.078125 
L 361.494208 234.797437 
L 351.92947 234.797437 
z
" clip-path="url(#p0016593fe3)" style="fill: #22c55e; fill-opacity: 0.266667"/>
   </g>
   <g id="patch_59">
    <path d="M 365.593382 253.078125 
L 375.15812 253.078125 
L 375.15812 229.339988 
L 365.593382 229.339988 
z
" clip-path="url(#p0016593fe3)" style="fill: #22c55e; fill-opacity: 0.266667"/>
   </g>
   <g id="patch_60">
    <path d="M 379.257293 253.078125 
L 388.822032 253.078125 
L 388.822032 230.274958 
L 379.257293 230.274958 
z
" clip-path="url(#p0016593fe3)" style="fill: #22c55e; fill-opacity: 0.266667"/>
   </g>
   <g id="patch_61">
    <path d="M 392.921205 253.078125 
L 402.485944 253.078125 
L 402.485944 233.485711 
L 392.921205 233.485711 
z
" clip-path="url(#p0016593fe3)" style="fill: #22c55e; fill-opacity: 0.266667"/>
   </g>
   <g id="patch_62">
    <path d="M 406.585117 253.078125 
L 416.149855 253.078125 
L 416.149855 222.514006 
L 406.585117 222.514006 
z
" clip-path="url(#p0016593fe3)" style="fill: #22c55e; fill-opacity: 0.266667"/>
   </g>
   <g id="patch_63">
    <path d="M 420.249029 253.078125 
L 429.813767 253.078125 
L 429.813767 214.928071 
L 420.249029 214.928071 
z
" clip-path="url(#p0016593fe3)" style="fill: #22c55e; fill-opacity: 0.266667"/>
   </g>
   <g id="patch_64">
    <path d="M 433.912941 253.078125 
L 443.477679 253.078125 
L 443.477679 232.742484 
L 433.912941 232.742484 
z
" clip-path="url(#p0016593fe3)" style="fill: #22c55e; fill-opacity: 0.266667"/>
   </g>
   <g id="patch_65">
    <path d="M 447.576853 253.078125 
L 457.141591 253.078125 
L 457.141591 201.56593 
L 447.576853 201.56593 
z
" clip-path="url(#p0016593fe3)" style="fill: #ef4444; fill-opacity: 0.266667"/>
   </g>
   <g id="matplotlib.axis_3">
    <g id="xtick_8">
     <g id="line2d_61">
      <path d="M 56.105778 253.078125 
L 56.105778 198.99032 
" clip-path="url(#p0016593fe3)" style="fill: none; stroke-dasharray: 2.96,1.28; stroke-dashoffset: 0; stroke: #374151; stroke-opacity: 0.1; stroke-width: 0.8"/>
     </g>
     <g id="line2d_62">
      <g>
       <use xlink:href="#mb57daf4f7a" x="56.105778" y="253.078125" style="fill: #9ca3af; stroke: #9ca3af; stroke-width: 0.8"/>
      </g>
     </g>
     <g id="text_10">
      <!-- 0 -->
      <g style="fill: #9ca3af" transform="translate(53.560778 266.156875) scale(0.08 -0.08)">
       <use xlink:href="#DejaVuSans-30"/>
      </g>
     </g>
    </g>
    <g id="xtick_9">
     <g id="line2d_63">
      <path d="M 124.425337 253.078125 
L 124.425337 198.99032 
" clip-path="url(#p0016593fe3)" style="fill: none; stroke-dasharray: 2.96,1.28; stroke-dashoffset: 0; stroke: #374151; stroke-opacity: 0.1; stroke-width: 0.8"/>
     </g>
     <g id="line2d_64">
      <g>
       <use xlink:href="#mb57daf4f7a" x="124.425337" y="253.078125" style="fill: #9ca3af; stroke: #9ca3af; stroke-width: 0.8"/>
      </g>
     </g>
     <g id="text_11">
      <!-- 5 -->
      <g style="fill: #9ca3af" transform="translate(121.880337 266.156875) scale(0.08 -0.08)">
       <defs>
        <path id="DejaVuSans-35" d="M 691 4666 
L 3169 4666 
L 3169 4134 
L 1269 4134 
L 1269 2991 
Q 1406 3038 1543 3061 
Q 1681 3084 1819 3084 
Q 2600 3084 3056 2656 
Q 3513 2228 3513 1497 
Q 3513 744 3044 326 
Q 2575 -91 1722 -91 
Q 1428 -91 1123 -41 
Q 819 9 494 109 
L 494 744 
Q 775 591 1075 516 
Q 1375 441 1709 441 
Q 2250 441 2565 725 
Q 2881 1009 2881 1497 
Q 2881 1984 2565 2268 
Q 2250 2553 1709 2553 
Q 1456 2553 1204 2497 
Q 953 2441 691 2322 
L 691 4666 
z
" transform="scale(0.015625)"/>
       </defs>
       <use xlink:href="#DejaVuSans-35"/>
      </g>
     </g>
    </g>
    <g id="xtick_10">
     <g id="line2d_65">
      <path d="M 192.744897 253.078125 
L 192.744897 198.99032 
" clip-path="url(#p0016593fe3)" style="fill: none; stroke-dasharray: 2.96,1.28; stroke-dashoffset: 0; stroke: #374151; stroke-opacity: 0.1; stroke-width: 0.8"/>
     </g>
     <g id="line2d_66">
      <g>
       <use xlink:href="#mb57daf4f7a" x="192.744897" y="253.078125" style="fill: #9ca3af; stroke: #9ca3af; stroke-width: 0.8"/>
      </g>
     </g>
     <g id="text_12">
      <!-- 10 -->
      <g style="fill: #9ca3af" transform="translate(187.654897 266.156875) scale(0.08 -0.08)">
       <use xlink:href="#DejaVuSans-31"/>
       <use xlink:href="#DejaVuSans-30" transform="translate(63.623047 0)"/>
      </g>
     </g>
    </g>
    <g id="xtick_11">
     <g id="line2d_67">
      <path d="M 261.064456 253.078125 
L 261.064456 198.99032 
" clip-path="url(#p0016593fe3)" style="fill: none; stroke-dasharray: 2.96,1.28; stroke-dashoffset: 0; stroke: #374151; stroke-opacity: 0.1; stroke-width: 0.8"/>
     </g>
     <g id="line2d_68">
      <g>
       <use xlink:href="#mb57daf4f7a" x="261.064456" y="253.078125" style="fill: #9ca3af; stroke: #9ca3af; stroke-width: 0.8"/>
      </g>
     </g>
     <g id="text_13">
      <!-- 15 -->
      <g style="fill: #9ca3af" transform="translate(255.974456 266.156875) scale(0.08 -0.08)">
       <use xlink:href="#DejaVuSans-31"/>
       <use xlink:href="#DejaVuSans-35" transform="translate(63.623047 0)"/>
      </g>
     </g>
    </g>
    <g id="xtick_12">
     <g id="line2d_69">
      <path d="M 329.384015 253.078125 
L 329.384015 198.99032 
" clip-path="url(#p0016593fe3)" style="fill: none; stroke-dasharray: 2.96,1.28; stroke-dashoffset: 0; stroke: #374151; stroke-opacity: 0.1; stroke-width: 0.8"/>
     </g>
     <g id="line2d_70">
      <g>
       <use xlink:href="#mb57daf4f7a" x="329.384015" y="253.078125" style="fill: #9ca3af; stroke: #9ca3af; stroke-width: 0.8"/>
      </g>
     </g>
     <g id="text_14">
      <!-- 20 -->
      <g style="fill: #9ca3af" transform="translate(324.294015 266.156875) scale(0.08 -0.08)">
       <use xlink:href="#DejaVuSans-32"/>
       <use xlink:href="#DejaVuSans-30" transform="translate(63.623047 0)"/>
      </g>
     </g>
    </g>
    <g id="xtick_13">
     <g id="line2d_71">
      <path d="M 397.703574 253.078125 
L 397.703574 198.99032 
" clip-path="url(#p0016593fe3)" style="fill: none; stroke-dasharray: 2.96,1.28; stroke-dashoffset: 0; stroke: #374151; stroke-opacity: 0.1; stroke-width: 0.8"/>
     </g>
     <g id="line2d_72">
      <g>
       <use xlink:href="#mb57daf4f7a" x="397.703574" y="253.078125" style="fill: #9ca3af; stroke: #9ca3af; stroke-width: 0.8"/>
      </g>
     </g>
     <g id="text_15">
      <!-- 25 -->
      <g style="fill: #9ca3af" transform="translate(392.613574 266.156875) scale(0.08 -0.08)">
       <use xlink:href="#DejaVuSans-32"/>
       <use xlink:href="#DejaVuSans-35" transform="translate(63.623047 0)"/>
      </g>
     </g>
    </g>
    <g id="xtick_14">
     <g id="line2d_73">
      <path d="M 466.023134 253.078125 
L 466.023134 198.99032 
" clip-path="url(#p0016593fe3)" style="fill: none; stroke-dasharray: 2.96,1.28; stroke-dashoffset: 0; stroke: #374151; stroke-opacity: 0.1; stroke-width: 0.8"/>
     </g>
     <g id="line2d_74">
      <g>
       <use xlink:href="#mb57daf4f7a" x="466.023134" y="253.078125" style="fill: #9ca3af; stroke: #9ca3af; stroke-width: 0.8"/>
      </g>
     </g>
     <g id="text_16">
      <!-- 30 -->
      <g style="fill: #9ca3af" transform="translate(460.933134 266.156875) scale(0.08 -0.08)">
       <defs>
        <path id="DejaVuSans-33" d="M 2597 2516 
Q 3050 2419 3304 2112 
Q 3559 1806 3559 1356 
Q 3559 666 3084 287 
Q 2609 -91 1734 -91 
Q 1441 -91 1130 -33 
Q 819 25 488 141 
L 488 750 
Q 750 597 1062 519 
Q 1375 441 1716 441 
Q 2309 441 2620 675 
Q 2931 909 2931 1356 
Q 2931 1769 2642 2001 
Q 2353 2234 1838 2234 
L 1294 2234 
L 1294 2753 
L 1863 2753 
Q 2328 2753 2575 2939 
Q 2822 3125 2822 3475 
Q 2822 3834 2567 4026 
Q 2313 4219 1838 4219 
Q 1578 4219 1281 4162 
Q 984 4106 628 3988 
L 628 4550 
Q 988 4650 1302 4700 
Q 1616 4750 1894 4750 
Q 2613 4750 3031 4423 
Q 3450 4097 3450 3541 
Q 3450 3153 3228 2886 
Q 3006 2619 2597 2516 
z
" transform="scale(0.015625)"/>
       </defs>
       <use xlink:href="#DejaVuSans-33"/>
       <use xlink:href="#DejaVuSans-30" transform="translate(63.623047 0)"/>
      </g>
     </g>
    </g>
   </g>
   <g id="matplotlib.axis_4">
    <g id="ytick_9">
     <g id="line2d_75">
      <path d="M 31.0325 253.078125 
L 477.4325 253.078125 
" clip-path="url(#p0016593fe3)" style="fill: none; stroke-dasharray: 2.96,1.28; stroke-dashoffset: 0; stroke: #374151; stroke-opacity: 0.1; stroke-width: 0.8"/>
     </g>
     <g id="line2d_76">
      <g>
       <use xlink:href="#m8ffcd896fa" x="31.0325" y="253.078125" style="fill: #9ca3af; stroke: #9ca3af; stroke-width: 0.8"/>
      </g>
     </g>
     <g id="text_17">
      <!-- 0 -->
      <g style="fill: #9ca3af" transform="translate(18.9425 256.1175) scale(0.08 -0.08)">
       <use xlink:href="#DejaVuSans-30"/>
      </g>
     </g>
    </g>
    <g id="ytick_10">
     <g id="line2d_77">
      <path d="M 31.0325 230.982921 
L 477.4325 230.982921 
" clip-path="url(#p0016593fe3)" style="fill: none; stroke-dasharray: 2.96,1.28; stroke-dashoffset: 0; stroke: #374151; stroke-opacity: 0.1; stroke-width: 0.8"/>
     </g>
     <g id="line2d_78">
      <g>
       <use xlink:href="#m8ffcd896fa" x="31.0325" y="230.982921" style="fill: #9ca3af; stroke: #9ca3af; stroke-width: 0.8"/>
      </g>
     </g>
     <g id="text_18">
      <!-- 2 -->
      <g style="fill: #9ca3af" transform="translate(18.9425 234.022296) scale(0.08 -0.08)">
       <use xlink:href="#DejaVuSans-32"/>
      </g>
     </g>
    </g>
    <g id="ytick_11">
     <g id="line2d_79">
      <path d="M 31.0325 208.887717 
L 477.4325 208.887717 
" clip-path="url(#p0016593fe3)" style="fill: none; stroke-dasharray: 2.96,1.28; stroke-dashoffset: 0; stroke: #374151; stroke-opacity: 0.1; stroke-width: 0.8"/>
     </g>
     <g id="line2d_80">
      <g>
       <use xlink:href="#m8ffcd896fa" x="31.0325" y="208.887717" style="fill: #9ca3af; stroke: #9ca3af; stroke-width: 0.8"/>
      </g>
     </g>
     <g id="text_19">
      <!-- 4 -->
      <g style="fill: #9ca3af" transform="translate(18.9425 211.927092) scale(0.08 -0.08)">
       <use xlink:href="#DejaVuSans-34"/>
      </g>
     </g>
    </g>
    <g id="text_20">
     <!-- Vol -->
     <g style="fill: #9ca3af" transform="translate(13.27875 232.019223) rotate(-90) scale(0.08 -0.08)">
      <defs>
       <path id="DejaVuSans-56" d="M 1831 0 
L 50 4666 
L 709 4666 
L 2188 738 
L 3669 4666 
L 4325 4666 
L 2547 0 
L 1831 0 
z
" transform="scale(0.015625)"/>
       <path id="DejaVuSans-6f" d="M 1959 3097 
Q 1497 3097 1228 2736 
Q 959 2375 959 1747 
Q 959 1119 1226 758 
Q 1494 397 1959 397 
Q 2419 397 2687 759 
Q 2956 1122 2956 1747 
Q 2956 2369 2687 2733 
Q 2419 3097 1959 3097 
z
M 1959 3584 
Q 2709 3584 3137 3096 
Q 3566 2609 3566 1747 
Q 3566 888 3137 398 
Q 2709 -91 1959 -91 
Q 1206 -91 779 398 
Q 353 888 353 1747 
Q 353 2609 779 3096 
Q 1206 3584 1959 3584 
z
" transform="scale(0.015625)"/>
       <path id="DejaVuSans-6c" d="M 603 4863 
L 1178 4863 
L 1178 0 
L 603 0 
L 603 4863 
z
" transform="scale(0.015625)"/>
      </defs>
      <use xlink:href="#DejaVuSans-56"/>
      <use xlink:href="#DejaVuSans-6f" transform="translate(60.658203 0)"/>
      <use xlink:href="#DejaVuSans-6c" transform="translate(121.839844 0)"/>
     </g>
    </g>
    <g id="text_21">
     <!-- 1e6 -->
     <g style="fill: #9ca3af" transform="translate(31.0325 195.99032) scale(0.1 -0.1)">
      <defs>
       <path id="DejaVuSans-65" d="M 3597 1894 
L 3597 1613 
L 953 1613 
Q 991 1019 1311 708 
Q 1631 397 2203 397 
Q 2534 397 2845 478 
Q 3156 559 3463 722 
L 3463 178 
Q 3153 47 2828 -22 
Q 2503 -91 2169 -91 
Q 1331 -91 842 396 
Q 353 884 353 1716 
Q 353 2575 817 3079 
Q 1281 3584 2069 3584 
Q 2775 3584 3186 3129 
Q 3597 2675 3597 1894 
z
M 3022 2063 
Q 3016 2534 2758 2815 
Q 2500 3097 2075 3097 
Q 1594 3097 1305 2825 
Q 1016 2553 972 2059 
L 3022 2063 
z
" transform="scale(0.015625)"/>
      </defs>
      <use xlink:href="#DejaVuSans-31"/>
      <use xlink:href="#DejaVuSans-65" transform="translate(63.623047 0)"/>
      <use xlink:href="#DejaVuSans-36" transform="translate(125.146484 0)"/>
     </g>
    </g>
   </g>
   <g id="patch_66">
    <path d="M 31.0325 253.078125 
L 31.0325 198.99032 
" style="fill: none; stroke: #1f2937; stroke-width: 0.8; stroke-linejoin: miter; stroke-linecap: square"/>
   </g>
   <g id="patch_67">
    <path d="M 31.0325 253.078125 
L 477.4325 253.078125 
" style="fill: none; stroke: #1f2937; stroke-width: 0.8; stroke-linejoin: miter; stroke-linecap: square"/>
   </g>
  </g>
 </g>
 <defs>
  <clipPath id="pb8d0123f37">
   <rect x="31.0325" y="31.318125" width="446.4" height="162.263415"/>
  </clipPath>
  <clipPath id="p0016593fe3">
   <rect x="31.0325" y="198.99032" width="446.4" height="54.087805"/>
  </clipPath>
 </defs>
</svg>
