<?xml version="1.0" encoding="utf-8" standalone="no"?>
<!DOCTYPE svg PUBLIC "-//W3C//DTD SVG 1.1//EN"
  "http://www.w3.org/Graphics/SVG/1.1/DTD/svg11.dtd">
<svg xmlns:xlink="http://www.w3.org/1999/xlink" width="490.7025pt" height="275.020625pt" viewBox="0 0 490.7025 275.020625" xmlns="http://www.w3.org/2000/svg" version="1.1">
 <metadata>
  <rdf:RDF xmlns:dc="http://purl.org/dc/elements/1.1/" xmlns:cc="http://creativecommons.org/ns#" xmlns:rdf="http://www.w3.org/1999/02/22-rdf-syntax-ns#">
   <cc:Work>
    <dc:type rdf:resource="http://purl.org/dc/dcmitype/StillImage"/>
    <dc:date>2026-02-16T08:57:04.373978</dc:date>
    <dc:format>image/svg+xml</dc:format>
    <dc:creator>
     <cc:Agent>
      <dc:title>Matplotlib v3.10.8, https://matplotlib.org/</dc:title>
     </cc:Agent>
    </dc:creator>
   </cc:Work>
  </rdf:RDF>
 </metadata>
 <defs>
  <style type="text/css">*{stroke-linejoin: round; stroke-linecap: butt}</style>
 </defs>
 <g id="figure_1">
  <g id="patch_1">
   <path d="M 0 275.020625 
L 490.7025 275.020625 
L 490.7025 0 
L 0 0 
z
" style="fill: #0a0f1a"/>
  </g>
  <g id="axes_1">
   <g id="patch_2">
    <path d="M 37.1025 193.58154 
L 483.5025 193.58154 
L 483.5025 31.318125 
L 37.1025 31.318125 
z
" style="fill: #0a0f1a"/>
   </g>
   <g id="patch_3">
    <path d="M 46.4625 84.431176 
L 56.5425 84.431176 
Q 56.8305 84.431176 56.8305 84.277434 
L 56.8305 74.669869 
Q 56.8305 74.516126 56.5425 74.516126 
L 46.4625 74.516126 
Q 46.1745 74.516126 46.1745 74.669869 
L 46.1745 84.277434 
Q 46.1745 84.431176 46.4625 84.431176 
z
" clip-path="url(#pe2b21a12d5)" style="fill: #22c55e; stroke: #22c55e; stroke-linejoin: miter"/>
   </g>
   <g id="patch_4">
    <path d="M 60.8625 81.369586 
L 70.9425 81.369586 
Q 71.2305 81.369586 71.2305 81.215843 
L 71.2305 75.690023 
Q 71.2305 75.53628 70.9425 75.53628 
L 60.8625 75.53628 
Q 60.5745 75.53628 60.5745 75.690023 
L 60.5745 81.215843 
Q 60.5745 81.369586 60.8625 81.369586 
z
" clip-path="url(#pe2b21a12d5)" style="fill: #ef4444; stroke: #ef4444; stroke-linejoin: miter"/>
   </g>
   <g id="patch_5">
    <path d="M 75.2625 69.431451 
L 85.3425 69.431451 
Q 85.6305 69.431451 85.6305 69.277708 
L 85.6305 65.228092 
Q 85.6305 65.074349 85.3425 65.074349 
L 75.2625 65.074349 
Q 74.9745 65.074349 74.9745 65.228092 
L 74.9745 69.277708 
Q 74.9745 69.431451 75.2625 69.431451 
z
" clip-path="url(#pe2b21a12d5)" style="fill: #22c55e; stroke: #22c55e; stroke-linejoin: miter"/>
   </g>
   <g id="patch_6">
    <path d="M 89.6625 61.321696 
L 99.7425 61.321696 
Q 100.0305 61.321696 100.0305 61.167953 
L 100.0305 58.856586 
Q 100.0305 58.702843 99.7425 58.702843 
L 89.6625 58.702843 
Q 89.3745 58.702843 89.3745 58.856586 
L 89.3745 61.167953 
Q 89.3745 61.321696 89.6625 61.321696 
z
" clip-path="url(#pe2b21a12d5)" style="fill: #22c55e; stroke: #22c55e; stroke-linejoin: miter"/>
   </g>
   <g id="patch_7">
    <path d="M 104.0625 53.024878 
L 114.1425 53.024878 
Q 114.4305 53.024878 114.4305 52.871135 
L 114.4305 47.050989 
Q 114.4305 46.897246 114.1425 46.897246 
L 104.0625 46.897246 
Q 103.7745 46.897246 103.7745 47.050989 
L 103.7745 52.871135 
Q 103.7745 53.024878 104.0625 53.024878 
z
" clip-path="url(#pe2b21a12d5)" style="fill: #ef4444; stroke: #ef4444; stroke-linejoin: miter"/>
   </g>
   <g id="patch_8">
    <path d="M 118.4625 74.741708 
L 128.5425 74.741708 
Q 128.8305 74.741708 128.8305 74.587965 
L 128.8305 63.669887 
Q 128.8305 63.516145 128.5425 63.516145 
L 118.4625 63.516145 
Q 118.1745 63.516145 118.1745 63.669887 
L 118.1745 74.587965 
Q 118.1745 74.741708 118.4625 74.741708 
z
" clip-path="url(#pe2b21a12d5)" style="fill: #ef4444; stroke: #ef4444; stroke-linejoin: miter"/>
   </g>
   <g id="patch_9">
    <path d="M 132.8625 70.888514 
L 142.9425 70.888514 
Q 143.2305 70.888514 143.2305 70.734771 
L 143.2305 66.311194 
Q 143.2305 66.157451 142.9425 66.157451 
L 132.8625 66.157451 
Q 132.5745 66.157451 132.5745 66.311194 
L 132.5745 70.734771 
Q 132.5745 70.888514 132.8625 70.888514 
z
" clip-path="url(#pe2b21a12d5)" style="fill: #ef4444; stroke: #ef4444; stroke-linejoin: miter"/>
   </g>
   <g id="patch_10">
    <path d="M 147.2625 81.231511 
L 157.3425 81.231511 
Q 157.6305 81.231511 157.6305 81.077768 
L 157.6305 74.2359 
Q 157.6305 74.082157 157.3425 74.082157 
L 147.2625 74.082157 
Q 146.9745 74.082157 146.9745 74.2359 
L 146.9745 81.077768 
Q 146.9745 81.231511 147.2625 81.231511 
z
" clip-path="url(#pe2b21a12d5)" style="fill: #22c55e; stroke: #22c55e; stroke-linejoin: miter"/>
   </g>
   <g id="patch_11">
    <path d="M 161.6625 87.759745 
L 171.7425 87.759745 
Q 172.0305 87.759745 172.0305 87.606003 
L 172.0305 81.828424 
Q 172.0305 81.674681 171.7425 81.674681 
L 161.6625 81.674681 
Q 161.3745 81.674681 161.3745 81.828424 
L 161.3745 87.606003 
Q 161.3745 87.759745 161.6625 87.759745 
z
" clip-path="url(#pe2b21a12d5)" style="fill: #22c55e; stroke: #22c55e; stroke-linejoin: miter"/>
   </g>
   <g id="patch_12">
    <path d="M 176.0625 88.85954 
L 186.1425 88.85954 
Q 186.4305 88.85954 186.4305 88.705797 
L 186.4305 79.108724 
Q 186.4305 78.954981 186.1425 78.954981 
L 176.0625 78.954981 
Q 175.7745 78.954981 175.7745 79.108724 
L 175.7745 88.705797 
Q 175.7745 88.85954 176.0625 88.85954 
z
" clip-path="url(#pe2b21a12d5)" style="fill: #ef4444; stroke: #ef4444; stroke-linejoin: miter"/>
   </g>
   <g id="patch_13">
    <path d="M 190.4625 84.581926 
L 200.5425 84.581926 
Q 200.8305 84.581926 200.8305 84.428183 
L 200.8305 73.245094 
Q 200.8305 73.091351 200.5425 73.091351 
L 190.4625 73.091351 
Q 190.1745 73.091351 190.1745 73.245094 
L 190.1745 84.428183 
Q 190.1745 84.581926 190.4625 84.581926 
z
" clip-path="url(#pe2b21a12d5)" style="fill: #ef4444; stroke: #ef4444; stroke-linejoin: miter"/>
   </g>
   <g id="patch_14">
    <path d="M 204.8625 79.114769 
L 214.9425 79.114769 
Q 215.2305 79.114769 215.2305 78.961026 
L 215.2305 71.823418 
Q 215.2305 71.669676 214.9425 71.669676 
L 204.8625 71.669676 
Q 204.5745 71.669676 204.5745 71.823418 
L 204.5745 78.961026 
Q 204.5745 79.114769 204.8625 79.114769 
z
" clip-path="url(#pe2b21a12d5)" style="fill: #ef4444; stroke: #ef4444; stroke-linejoin: miter"/>
   </g>
   <g id="patch_15">
    <path d="M 219.2625 78.138539 
L 229.3425 78.138539 
Q 229.6305 78.138539 229.6305 77.984796 
L 229.6305 66.916848 
Q 229.6305 66.763106 229.3425 66.763106 
L 219.2625 66.763106 
Q 218.9745 66.763106 218.9745 66.916848 
L 218.9745 77.984796 
Q 218.9745 78.138539 219.2625 78.138539 
z
" clip-path="url(#pe2b21a12d5)" style="fill: #22c55e; stroke: #22c55e; stroke-linejoin: miter"/>
   </g>
   <g id="patch_16">
    <path d="M 233.6625 84.227579 
L 243.7425 84.227579 
Q 244.0305 84.227579 244.0305 84.073836 
L 244.0305 79.286833 
Q 244.0305 79.13309 243.7425 79.13309 
L 233.6625 79.13309 
Q 233.3745 79.13309 233.3745 79.286833 
L 233.3745 84.073836 
Q 233.3745 84.227579 233.6625 84.227579 
z
" clip-path="url(#pe2b21a12d5)" style="fill: #ef4444; stroke: #ef4444; stroke-linejoin: miter"/>
   </g>
   <g id="patch_17">
    <path d="M 248.0625 89.435282 
L 258.1425 89.435282 
Q 258.4305 89.435282 258.4305 89.281539 
L 258.4305 82.148693 
Q 258.4305 81.99495 258.1425 81.99495 
L 248.0625 81.99495 
Q 247.7745 81.99495 247.7745 82.148693 
L 247.7745 89.281539 
Q 247.7745 89.435282 248.0625 89.435282 
z
" clip-path="url(#pe2b21a12d5)" style="fill: #ef4444; stroke: #ef4444; stroke-linejoin: miter"/>
   </g>
   <g id="patch_18">
    <path d="M 262.4625 95.776065 
L 272.5425 95.776065 
Q 272.8305 95.776065 272.8305 95.622323 
L 272.8305 88.002439 
Q 272.8305 87.848696 272.5425 87.848696 
L 262.4625 87.848696 
Q 262.1745 87.848696 262.1745 88.002439 
L 262.1745 95.622323 
Q 262.1745 95.776065 262.4625 95.776065 
z
" clip-path="url(#pe2b21a12d5)" style="fill: #22c55e; stroke: #22c55e; stroke-linejoin: miter"/>
   </g>
   <g id="patch_19">
    <path d="M 276.8625 88.530973 
L 286.9425 88.530973 
Q 287.2305 88.530973 287.2305 88.377231 
L 287.2305 85.944432 
Q 287.2305 85.79069 286.9425 85.79069 
L 276.8625 85.79069 
Q 276.5745 85.79069 276.5745 85.944432 
L 276.5745 88.377231 
Q 276.5745 88.530973 276.8625 88.530973 
z
" clip-path="url(#pe2b21a12d5)" style="fill: #ef4444; stroke: #ef4444; stroke-linejoin: miter"/>
   </g>
   <g id="patch_20">
    <path d="M 291.2625 100.969116 
L 301.3425 100.969116 
Q 301.6305 100.969116 301.6305 100.815373 
L 301.6305 90.990003 
Q 301.6305 90.836261 301.3425 90.836261 
L 291.2625 90.836261 
Q 290.9745 90.836261 290.9745 90.990003 
L 290.9745 100.815373 
Q 290.9745 100.969116 291.2625 100.969116 
z
" clip-path="url(#pe2b21a12d5)" style="fill: #22c55e; stroke: #22c55e; stroke-linejoin: miter"/>
   </g>
   <g id="patch_21">
    <path d="M 305.6625 97.04374 
L 315.7425 97.04374 
Q 316.0305 97.04374 316.0305 96.889997 
L 316.0305 91.062357 
Q 316.0305 90.908614 315.7425 90.908614 
L 305.6625 90.908614 
Q 305.3745 90.908614 305.3745 91.062357 
L 305.3745 96.889997 
Q 305.3745 97.04374 305.6625 97.04374 
z
" clip-path="url(#pe2b21a12d5)" style="fill: #ef4444; stroke: #ef4444; stroke-linejoin: miter"/>
   </g>
   <g id="patch_22">
    <path d="M 320.0625 111.256766 
L 330.1425 111.256766 
Q 330.4305 111.256766 330.4305 111.103024 
L 330.4305 101.304267 
Q 330.4305 101.150524 330.1425 101.150524 
L 320.0625 101.150524 
Q 319.7745 101.150524 319.7745 101.304267 
L 319.7745 111.103024 
Q 319.7745 111.256766 320.0625 111.256766 
z
" clip-path="url(#pe2b21a12d5)" style="fill: #ef4444; stroke: #ef4444; stroke-linejoin: miter"/>
   </g>
   <g id="patch_23">
    <path d="M 334.4625 112.210825 
L 344.5425 112.210825 
Q 344.8305 112.210825 344.8305 112.057082 
L 344.8305 104.894977 
Q 344.8305 104.741234 344.5425 104.741234 
L 334.4625 104.741234 
Q 334.1745 104.741234 334.1745 104.894977 
L 334.1745 112.057082 
Q 334.1745 112.210825 334.4625 112.210825 
z
" clip-path="url(#pe2b21a12d5)" style="fill: #ef4444; stroke: #ef4444; stroke-linejoin: miter"/>
   </g>
   <g id="patch_24">
    <path d="M 348.8625 106.025519 
L 358.9425 106.025519 
Q 359.2305 106.025519 359.2305 105.871776 
L 359.2305 98.082952 
Q 359.2305 97.929209 358.9425 97.929209 
L 348.8625 97.929209 
Q 348.5745 97.929209 348.5745 98.082952 
L 348.5745 105.871776 
Q 348.5745 106.025519 348.8625 106.025519 
z
" clip-path="url(#pe2b21a12d5)" style="fill: #22c55e; stroke: #22c55e; stroke-linejoin: miter"/>
   </g>
   <g id="patch_25">
    <path d="M 363.2625 116.74002 
L 373.3425 116.74002 
Q 373.6305 116.74002 373.6305 116.586277 
L 373.6305 109.864045 
Q 373.6305 109.710302 373.3425 109.710302 
L 363.2625 109.710302 
Q 362.9745 109.710302 362.9745 109.864045 
L 362.9745 116.586277 
Q 362.9745 116.74002 363.2625 116.74002 
z
" clip-path="url(#pe2b21a12d5)" style="fill: #ef4444; stroke: #ef4444; stroke-linejoin: miter"/>
   </g>
   <g id="patch_26">
    <path d="M 377.6625 114.573653 
L 387.7425 114.573653 
Q 388.0305 114.573653 388.0305 114.419911 
L 388.0305 107.813753 
Q 388.0305 107.66001 387.7425 107.66001 
L 377.6625 107.66001 
Q 377.3745 107.66001 377.3745 107.813753 
L 377.3745 114.419911 
Q 377.3745 114.573653 377.6625 114.573653 
z
" clip-path="url(#pe2b21a12d5)" style="fill: #ef4444; stroke: #ef4444; stroke-linejoin: miter"/>
   </g>
   <g id="patch_27">
    <path d="M 392.0625 134.738286 
L 402.1425 134.738286 
Q 402.4305 134.738286 402.4305 134.584544 
L 402.4305 125.752643 
Q 402.4305 125.5989 402.1425 125.5989 
L 392.0625 125.5989 
Q 391.7745 125.5989 391.7745 125.752643 
L 391.7745 134.584544 
Q 391.7745 134.738286 392.0625 134.738286 
z
" clip-path="url(#pe2b21a12d5)" style="fill: #22c55e; stroke: #22c55e; stroke-linejoin: miter"/>
   </g>
   <g id="patch_28">
    <path d="M 406.4625 136.840744 
L 416.5425 136.840744 
Q 416.8305 136.840744 416.8305 136.687002 
L 416.8305 132.576462 
Q 416.8305 132.422719 416.5425 132.422719 
L 406.4625 132.422719 
Q 406.1745 132.422719 406.1745 132.576462 
L 406.1745 136.687002 
Q 406.1745 136.840744 406.4625 136.840744 
z
" clip-path="url(#pe2b21a12d5)" style="fill: #22c55e; stroke: #22c55e; stroke-linejoin: miter"/>
   </g>
   <g id="patch_29">
    <path d="M 420.8625 145.848446 
L 430.9425 145.848446 
Q 431.2305 145.848446 431.2305 145.694703 
L 431.2305 139.556952 
Q 431.2305 139.40321 430.9425 139.40321 
L 420.8625 139.40321 
Q 420.5745 139.40321 420.5745 139.556952 
L 420.5745 145.694703 
Q 420.5745 145.848446 420.8625 145.848446 
z
" clip-path="url(#pe2b21a12d5)" style="fill: #ef4444; stroke: #ef4444; stroke-linejoin: miter"/>
   </g>
   <g id="patch_30">
    <path d="M 435.2625 158.582884 
L 445.3425 158.582884 
Q 445.6305 158.582884 445.6305 158.429141 
L 445.6305 148.518869 
Q 445.6305 148.365126 445.3425 148.365126 
L 435.2625 148.365126 
Q 434.9745 148.365126 434.9745 148.518869 
L 434.9745 158.429141 
Q 434.9745 158.582884 435.2625 158.582884 
z
" clip-path="url(#pe2b21a12d5)" style="fill: #22c55e; stroke: #22c55e; stroke-linejoin: miter"/>
   </g>
   <g id="patch_31">
    <path d="M 449.6625 173.46692 
L 459.7425 173.46692 
Q 460.0305 173.46692 460.0305 173.313177 
L 460.0305 169.73843 
Q 460.0305 169.584687 459.7425 169.584687 
L 449.6625 169.584687 
Q 449.3745 169.584687 449.3745 169.73843 
L 449.3745 173.313177 
Q 449.3745 173.46692 449.6625 173.46692 
z
" clip-path="url(#pe2b21a12d5)" style="fill: #ef4444; stroke: #ef4444; stroke-linejoin: miter"/>
   </g>
   <g id="patch_32">
    <path d="M 464.0625 174.376686 
L 474.1425 174.376686 
Q 474.4305 174.376686 474.4305 174.222943 
L 474.4305 168.19949 
Q 474.4305 168.045747 474.1425 168.045747 
L 464.0625 168.045747 
Q 463.7745 168.045747 463.7745 168.19949 
L 463.7745 174.222943 
Q 463.7745 174.376686 464.0625 174.376686 
z
" clip-path="url(#pe2b21a12d5)" style="fill: #22c55e; stroke: #22c55e; stroke-linejoin: miter"/>
   </g>
   <g id="matplotlib.axis_1">
    <g id="xtick_1">
     <g id="line2d_1">
      <path d="M 51.5025 193.58154 
L 51.5025 31.318125 
" clip-path="url(#pe2b21a12d5)" style="fill: none; stroke-dasharray: 2.96,1.28; stroke-dashoffset: 0; stroke: #374151; stroke-opacity: 0.1; stroke-width: 0.8"/>
     </g>
     <g id="line2d_2">
      <defs>
       <path id="m5ccc557c9f" d="M 0 0 
L 0 3.5 
" style="stroke: #9ca3af; stroke-width: 0.8"/>
      </defs>
      <g>
       <use xlink:href="#m5ccc557c9f" x="51.5025" y="193.58154" style="fill: #9ca3af; stroke: #9ca3af; stroke-width: 0.8"/>
      </g>
     </g>
    </g>
    <g id="xtick_2">
     <g id="line2d_3">
      <path d="M 123.5025 193.58154 
L 123.5025 31.318125 
" clip-path="url(#pe2b21a12d5)" style="fill: none; stroke-dasharray: 2.96,1.28; stroke-dashoffset: 0; stroke: #374151; stroke-opacity: 0.1; stroke-width: 0.8"/>
     </g>
     <g id="line2d_4">
      <g>
       <use xlink:href="#m5ccc557c9f" x="123.5025" y="193.58154" style="fill: #9ca3af; stroke: #9ca3af; stroke-width: 0.8"/>
      </g>
     </g>
    </g>
    <g id="xtick_3">
     <g id="line2d_5">
      <path d="M 195.5025 193.58154 
L 195.5025 31.318125 
" clip-path="url(#pe2b21a12d5)" style="fill: none; stroke-dasharray: 2.96,1.28; stroke-dashoffset: 0; stroke: #374151; stroke-opacity: 0.1; stroke-width: 0.8"/>
     </g>
     <g id="line2d_6">
      <g>
       <use xlink:href="#m5ccc557c9f" x="195.5025" y="193.58154" style="fill: #9ca3af; stroke: #9ca3af; stroke-width: 0.8"/>
      </g>
     </g>
    </g>
    <g id="xtick_4">
     <g id="line2d_7">
      <path d="M 267.5025 193.58154 
L 267.5025 31.318125 
" clip-path="url(#pe2b21a12d5)" style="fill: none; stroke-dasharray: 2.96,1.28; stroke-dashoffset: 0; stroke: #374151; stroke-opacity: 0.1; stroke-width: 0.8"/>
     </g>
     <g id="line2d_8">
      <g>
       <use xlink:href="#m5ccc557c9f" x="267.5025" y="193.58154" style="fill: #9ca3af; stroke: #9ca3af; stroke-width: 0.8"/>
      </g>
     </g>
    </g>
    <g id="xtick_5">
     <g id="line2d_9">
      <path d="M 339.5025 193.58154 
L 339.5025 31.318125 
" clip-path="url(#pe2b21a12d5)" style="fill: none; stroke-dasharray: 2.96,1.28; stroke-dashoffset: 0; stroke: #374151; stroke-opacity: 0.1; stroke-width: 0.8"/>
     </g>
     <g id="line2d_10">
      <g>
       <use xlink:href="#m5ccc557c9f" x="339.5025" y="193.58154" style="fill: #9ca3af; stroke: #9ca3af; stroke-width: 0.8"/>
      </g>
     </g>
    </g>
    <g id="xtick_6">
     <g id="line2d_11">
      <path d="M 411.5025 193.58154 
L 411.5025 31.318125 
" clip-path="url(#pe2b21a12d5)" style="fill: none; stroke-dasharray: 2.96,1.28; stroke-dashoffset: 0; stroke: #374151; stroke-opacity: 0.1; stroke-width: 0.8"/>
     </g>
     <g id="line2d_12">
      <g>
       <use xlink:href="#m5ccc557c9f" x="411.5025" y="193.58154" style="fill: #9ca3af; stroke: #9ca3af; stroke-width: 0.8"/>
      </g>
     </g>
    </g>
    <g id="xtick_7">
     <g id="line2d_13">
      <path d="M 483.5025 193.58154 
L 483.5025 31.318125 
" clip-path="url(#pe2b21a12d5)" style="fill: none; stroke-dasharray: 2.96,1.28; stroke-dashoffset: 0; stroke: #374151; stroke-opacity: 0.1; stroke-width: 0.8"/>
     </g>
     <g id="line2d_14">
      <g>
       <use xlink:href="#m5ccc557c9f" x="483.5025" y="193.58154" style="fill: #9ca3af; stroke: #9ca3af; stroke-width: 0.8"/>
      </g>
     </g>
    </g>
   </g>
   <g id="matplotlib.axis_2">
    <g id="ytick_1">
     <g id="line2d_15">
      <path d="M 37.1025 175.562877 
L 483.5025 175.562877 
" clip-path="url(#pe2b21a12d5)" style="fill: none; stroke-dasharray: 2.96,1.28; stroke-dashoffset: 0; stroke: #374151; stroke-opacity: 0.1; stroke-width: 0.8"/>
     </g>
     <g id="line2d_16">
      <defs>
       <path id="mc33034803b" d="M 0 0 
L -3.5 0 
" style="stroke: #9ca3af; stroke-width: 0.8"/>
      </defs>
      <g>
       <use xlink:href="#mc33034803b" x="37.1025" y="175.562877" style="fill: #9ca3af; stroke: #9ca3af; stroke-width: 0.8"/>
      </g>
     </g>
     <g id="text_1">
      <!-- 87.5 -->
      <g style="fill: #9ca3af" transform="translate(12.29 178.602252) scale(0.08 -0.08)">
       <defs>
        <path id="DejaVuSans-38" d="M 2034 2216 
Q 1584 2216 1326 1975 
Q 1069 1734 1069 1313 
Q 1069 891 1326 650 
Q 1584 409 2034 409 
Q 2484 409 2743 651 
Q 3003 894 3003 1313 
Q 3003 1734 2745 1975 
Q 2488 2216 2034 2216 
z
M 1403 2484 
Q 997 2584 770 2862 
Q 544 3141 544 3541 
Q 544 4100 942 4425 
Q 1341 4750 2034 4750 
Q 2731 4750 3128 4425 
Q 3525 4100 3525 3541 
Q 3525 3141 3298 2862 
Q 3072 2584 2669 2484 
Q 3125 2378 3379 2068 
Q 3634 1759 3634 1313 
Q 3634 634 3220 271 
Q 2806 -91 2034 -91 
Q 1263 -91 848 271 
Q 434 634 434 1313 
Q 434 1759 690 2068 
Q 947 2378 1403 2484 
z
M 1172 3481 
Q 1172 3119 1398 2916 
Q 1625 2713 2034 2713 
Q 2441 2713 2670 2916 
Q 2900 3119 2900 3481 
Q 2900 3844 2670 4047 
Q 2441 4250 2034 4250 
Q 1625 4250 1398 4047 
Q 1172 3844 1172 3481 
z
" transform="scale(0.015625)"/>
        <path id="DejaVuSans-37" d="M 525 4666 
L 3525 4666 
L 3525 4397 
L 1831 0 
L 1172 0 
L 2766 4134 
L 525 4134 
L 525 4666 
z
" transform="scale(0.015625)"/>
        <path id="DejaVuSans-2e" d="M 684 794 
L 1344 794 
L 1344 0 
L 684 0 
L 684 794 
z
" transform="scale(0.015625)"/>
        <path id="DejaVuSans-35" d="M 691 4666 
L 3169 4666 
L 3169 4134 
L 1269 4134 
L 1269 2991 
Q 1406 3038 1543 3061 
Q 1681 3084 1819 3084 
Q 2600 3084 3056 2656 
Q 3513 2228 3513 1497 
Q 3513 744 3044 326 
Q 2575 -91 1722 -91 
Q 1428 -91 1123 -41 
Q 819 9 494 109 
L 494 744 
Q 775 591 1075 516 
Q 1375 441 1709 441 
Q 2250 441 2565 725 
Q 2881 1009 2881 1497 
Q 2881 1984 2565 2268 
Q 2250 2553 1709 2553 
Q 1456 2553 1204 2497 
Q 953 2441 691 2322 
L 691 4666 
z
" transform="scale(0.015625)"/>
       </defs>
       <use xlink:href="#DejaVuSans-38"/>
       <use xlink:href="#DejaVuSans-37" transform="translate(63.623047 0)"/>
       <use xlink:href="#DejaVuSans-2e" transform="translate(127.246094 0)"/>
       <use xlink:href="#DejaVuSans-35" transform="translate(159.033203 0)"/>
      </g>
     </g>
    </g>
    <g id="ytick_2">
     <g id="line2d_17">
      <path d="M 37.1025 156.345032 
L 483.5025 156.345032 
" clip-path="url(#pe2b21a12d5)" style="fill: none; stroke-dasharray: 2.96,1.28; stroke-dashoffset: 0; stroke: #374151; stroke-opacity: 0.1; stroke-width: 0.8"/>
     </g>
     <g id="line2d_18">
      <g>
       <use xlink:href="#mc33034803b" x="37.1025" y="156.345032" style="fill: #9ca3af; stroke: #9ca3af; stroke-width: 0.8"/>
      </g>
     </g>
     <g id="text_2">
      <!-- 90.0 -->
      <g style="fill: #9ca3af" transform="translate(12.29 159.384407) scale(0.08 -0.08)">
       <defs>
        <path id="DejaVuSans-39" d="M 703 97 
L 703 672 
Q 941 559 1184 500 
Q 1428 441 1663 441 
Q 2288 441 2617 861 
Q 2947 1281 2994 2138 
Q 2813 1869 2534 1725 
Q 2256 1581 1919 1581 
Q 1219 1581 811 2004 
Q 403 2428 403 3163 
Q 403 3881 828 4315 
Q 1253 4750 1959 4750 
Q 2769 4750 3195 4129 
Q 3622 3509 3622 2328 
Q 3622 1225 3098 567 
Q 2575 -91 1691 -91 
Q 1453 -91 1209 -44 
Q 966 3 703 97 
z
M 1959 2075 
Q 2384 2075 2632 2365 
Q 2881 2656 2881 3163 
Q 2881 3666 2632 3958 
Q 2384 4250 1959 4250 
Q 1534 4250 1286 3958 
Q 1038 3666 1038 3163 
Q 1038 2656 1286 2365 
Q 1534 2075 1959 2075 
z
" transform="scale(0.015625)"/>
        <path id="DejaVuSans-30" d="M 2034 4250 
Q 1547 4250 1301 3770 
Q 1056 3291 1056 2328 
Q 1056 1369 1301 889 
Q 1547 409 2034 409 
Q 2525 409 2770 889 
Q 3016 1369 3016 2328 
Q 3016 3291 2770 3770 
Q 2525 4250 2034 4250 
z
M 2034 4750 
Q 2819 4750 3233 4129 
Q 3647 3509 3647 2328 
Q 3647 1150 3233 529 
Q 2819 -91 2034 -91 
Q 1250 -91 836 529 
Q 422 1150 422 2328 
Q 422 3509 836 4129 
Q 1250 4750 2034 4750 
z
" transform="scale(0.015625)"/>
       </defs>
       <use xlink:href="#DejaVuSans-39"/>
       <use xlink:href="#DejaVuSans-30" transform="translate(63.623047 0)"/>
       <use xlink:href="#DejaVuSans-2e" transform="translate(127.246094 0)"/>
       <use xlink:href="#DejaVuSans-30" transform="translate(159.033203 0)"/>
      </g>
     </g>
    </g>
    <g id="ytick_3">
     <g id="line2d_19">
      <path d="M 37.1025 137.127187 
L 483.5025 137.127187 
" clip-path="url(#pe2b21a12d5)" style="fill: none; stroke-dasharray: 2.96,1.28; stroke-dashoffset: 0; stroke: #374151; stroke-opacity: 0.1; stroke-width: 0.8"/>
     </g>
     <g id="line2d_20">
      <g>
       <use xlink:href="#mc33034803b" x="37.1025" y="137.127187" style="fill: #9ca3af; stroke: #9ca3af; stroke-width: 0.8"/>
      </g>
     </g>
     <g id="text_3">
      <!-- 92.5 -->
      <g style="fill: #9ca3af" transform="translate(12.29 140.166562) scale(0.08 -0.08)">
       <defs>
        <path id="DejaVuSans-32" d="M 1228 531 
L 3431 531 
L 3431 0 
L 469 0 
L 469 531 
Q 828 903 1448 1529 
Q 2069 2156 2228 2338 
Q 2531 2678 2651 2914 
Q 2772 3150 2772 3378 
Q 2772 3750 2511 3984 
Q 2250 4219 1831 4219 
Q 1534 4219 1204 4116 
Q 875 4013 500 3803 
L 500 4441 
Q 881 4594 1212 4672 
Q 1544 4750 1819 4750 
Q 2544 4750 2975 4387 
Q 3406 4025 3406 3419 
Q 3406 3131 3298 2873 
Q 3191 2616 2906 2266 
Q 2828 2175 2409 1742 
Q 1991 1309 1228 531 
z
" transform="scale(0.015625)"/>
       </defs>
       <use xlink:href="#DejaVuSans-39"/>
       <use xlink:href="#DejaVuSans-32" transform="translate(63.623047 0)"/>
       <use xlink:href="#DejaVuSans-2e" transform="translate(127.246094 0)"/>
       <use xlink:href="#DejaVuSans-35" transform="translate(159.033203 0)"/>
      </g>
     </g>
    </g>
    <g id="ytick_4">
     <g id="line2d_21">
      <path d="M 37.1025 117.909342 
L 483.5025 117.909342 
" clip-path="url(#pe2b21a12d5)" style="fill: none; stroke-dasharray: 2.96,1.28; stroke-dashoffset: 0; stroke: #374151; stroke-opacity: 0.1; stroke-width: 0.8"/>
     </g>
     <g id="line2d_22">
      <g>
       <use xlink:href="#mc33034803b" x="37.1025" y="117.909342" style="fill: #9ca3af; stroke: #9ca3af; stroke-width: 0.8"/>
      </g>
     </g>
     <g id="text_4">
      <!-- 95.0 -->
      <g style="fill: #9ca3af" transform="translate(12.29 120.948717) scale(0.08 -0.08)">
       <use xlink:href="#DejaVuSans-39"/>
       <use xlink:href="#DejaVuSans-35" transform="translate(63.623047 0)"/>
       <use xlink:href="#DejaVuSans-2e" transform="translate(127.246094 0)"/>
       <use xlink:href="#DejaVuSans-30" transform="translate(159.033203 0)"/>
      </g>
     </g>
    </g>
    <g id="ytick_5">
     <g id="line2d_23">
      <path d="M 37.1025 98.691496 
L 483.5025 98.691496 
" clip-path="url(#pe2b21a12d5)" style="fill: none; stroke-dasharray: 2.96,1.28; stroke-dashoffset: 0; stroke: #374151; stroke-opacity: 0.1; stroke-width: 0.8"/>
     </g>
     <g id="line2d_24">
      <g>
       <use xlink:href="#mc33034803b" x="37.1025" y="98.691496" style="fill: #9ca3af; stroke: #9ca3af; stroke-width: 0.8"/>
      </g>
     </g>
     <g id="text_5">
      <!-- 97.5 -->
      <g style="fill: #9ca3af" transform="translate(12.29 101.730871) scale(0.08 -0.08)">
       <use xlink:href="#DejaVuSans-39"/>
       <use xlink:href="#DejaVuSans-37" transform="translate(63.623047 0)"/>
       <use xlink:href="#DejaVuSans-2e" transform="translate(127.246094 0)"/>
       <use xlink:href="#DejaVuSans-35" transform="translate(159.033203 0)"/>
      </g>
     </g>
    </g>
    <g id="ytick_6">
     <g id="line2d_25">
      <path d="M 37.1025 79.473651 
L 483.5025 79.473651 
" clip-path="url(#pe2b21a12d5)" style="fill: none; stroke-dasharray: 2.96,1.28; stroke-dashoffset: 0; stroke: #374151; stroke-opacity: 0.1; stroke-width: 0.8"/>
     </g>
     <g id="line2d_26">
      <g>
       <use xlink:href="#mc33034803b" x="37.1025" y="79.473651" style="fill: #9ca3af; stroke: #9ca3af; stroke-width: 0.8"/>
      </g>
     </g>
     <g id="text_6">
      <!-- 100.0 -->
      <g style="fill: #9ca3af" transform="translate(7.2 82.513026) scale(0.08 -0.08)">
       <defs>
        <path id="DejaVuSans-31" d="M 794 531 
L 1825 531 
L 1825 4091 
L 703 3866 
L 703 4441 
L 1819 4666 
L 2450 4666 
L 2450 531 
L 3481 531 
L 3481 0 
L 794 0 
L 794 531 
z
" transform="scale(0.015625)"/>
       </defs>
       <use xlink:href="#DejaVuSans-31"/>
       <use xlink:href="#DejaVuSans-30" transform="translate(63.623047 0)"/>
       <use xlink:href="#DejaVuSans-30" transform="translate(127.246094 0)"/>
       <use xlink:href="#DejaVuSans-2e" transform="translate(190.869141 0)"/>
       <use xlink:href="#DejaVuSans-30" transform="translate(222.65625 0)"/>
      </g>
     </g>
    </g>
    <g id="ytick_7">
     <g id="line2d_27">
      <path d="M 37.1025 60.255806 
L 483.5025 60.255806 
" clip-path="url(#pe2b21a12d5)" style="fill: none; stroke-dasharray: 2.96,1.28; stroke-dashoffset: 0; stroke: #374151; stroke-opacity: 0.1; stroke-width: 0.8"/>
     </g>
     <g id="line2d_28">
      <g>
       <use xlink:href="#mc33034803b" x="37.1025" y="60.255806" style="fill: #9ca3af; stroke: #9ca3af; stroke-width: 0.8"/>
      </g>
     </g>
     <g id="text_7">
      <!-- 102.5 -->
      <g style="fill: #9ca3af" transform="translate(7.2 63.295181) scale(0.08 -0.08)">
       <use xlink:href="#DejaVuSans-31"/>
       <use xlink:href="#DejaVuSans-30" transform="translate(63.623047 0)"/>
       <use xlink:href="#DejaVuSans-32" transform="translate(127.246094 0)"/>
       <use xlink:href="#DejaVuSans-2e" transform="translate(190.869141 0)"/>
       <use xlink:href="#DejaVuSans-35" transform="translate(222.65625 0)"/>
      </g>
     </g>
    </g>
    <g id="ytick_8">
     <g id="line2d_29">
      <path d="M 37.1025 41.037961 
L 483.5025 41.037961 
" clip-path="url(#pe2b21a12d5)" style="fill: none; stroke-dasharray: 2.96,1.28; stroke-dashoffset: 0; stroke: #374151; stroke-opacity: 0.1; stroke-width: 0.8"/>
     </g>
     <g id="line2d_30">
      <g>
       <use xlink:href="#mc33034803b" x="37.1025" y="41.037961" style="fill: #9ca3af; stroke: #9ca3af; stroke-width: 0.8"/>
      </g>
     </g>
     <g id="text_8">
      <!-- 105.0 -->
      <g style="fill: #9ca3af" transform="translate(7.2 44.077336) scale(0.08 -0.08)">
       <use xlink:href="#DejaVuSans-31"/>
       <use xlink:href="#DejaVuSans-30" transform="translate(63.623047 0)"/>
       <use xlink:href="#DejaVuSans-35" transform="translate(127.246094 0)"/>
       <use xlink:href="#DejaVuSans-2e" transform="translate(190.869141 0)"/>
       <use xlink:href="#DejaVuSans-30" transform="translate(222.65625 0)"/>
      </g>
     </g>
    </g>
   </g>
   <g id="line2d_31">
    <path d="M 51.5025 89.277069 
L 51.5025 72.540663 
" clip-path="url(#pe2b21a12d5)" style="fill: none; stroke: #22c55e; stroke-width: 1.5; stroke-linecap: square"/>
   </g>
   <g id="line2d_32">
    <path d="M 65.9025 86.586432 
L 65.9025 73.844791 
" clip-path="url(#pe2b21a12d5)" style="fill: none; stroke: #ef4444; stroke-width: 1.5; stroke-linecap: square"/>
   </g>
   <g id="line2d_33">
    <path d="M 80.3025 74.21323 
L 80.3025 63.023446 
" clip-path="url(#pe2b21a12d5)" style="fill: none; stroke: #22c55e; stroke-width: 1.5; stroke-linecap: square"/>
   </g>
   <g id="line2d_34">
    <path d="M 94.7025 64.781725 
L 94.7025 54.307039 
" clip-path="url(#pe2b21a12d5)" style="fill: none; stroke: #22c55e; stroke-width: 1.5; stroke-linecap: square"/>
   </g>
   <g id="line2d_35">
    <path d="M 109.1025 57.180791 
L 109.1025 44.840076 
" clip-path="url(#pe2b21a12d5)" style="fill: none; stroke: #ef4444; stroke-width: 1.5; stroke-linecap: square"/>
   </g>
   <g id="line2d_36">
    <path d="M 123.5025 76.825781 
L 123.5025 60.925131 
" clip-path="url(#pe2b21a12d5)" style="fill: none; stroke: #ef4444; stroke-width: 1.5; stroke-linecap: square"/>
   </g>
   <g id="line2d_37">
    <path d="M 137.9025 74.248497 
L 137.9025 60.977205 
" clip-path="url(#pe2b21a12d5)" style="fill: none; stroke: #ef4444; stroke-width: 1.5; stroke-linecap: square"/>
   </g>
   <g id="line2d_38">
    <path d="M 152.3025 83.050169 
L 152.3025 72.692285 
" clip-path="url(#pe2b21a12d5)" style="fill: none; stroke: #22c55e; stroke-width: 1.5; stroke-linecap: square"/>
   </g>
   <g id="line2d_39">
    <path d="M 166.7025 90.682693 
L 166.7025 77.476808 
" clip-path="url(#pe2b21a12d5)" style="fill: none; stroke: #22c55e; stroke-width: 1.5; stroke-linecap: square"/>
   </g>
   <g id="line2d_40">
    <path d="M 181.1025 94.765217 
L 181.1025 74.702492 
" clip-path="url(#pe2b21a12d5)" style="fill: none; stroke: #ef4444; stroke-width: 1.5; stroke-linecap: square"/>
   </g>
   <g id="line2d_41">
    <path d="M 195.5025 89.843284 
L 195.5025 67.878973 
" clip-path="url(#pe2b21a12d5)" style="fill: none; stroke: #ef4444; stroke-width: 1.5; stroke-linecap: square"/>
   </g>
   <g id="line2d_42">
    <path d="M 209.9025 82.33929 
L 209.9025 65.753613 
" clip-path="url(#pe2b21a12d5)" style="fill: none; stroke: #ef4444; stroke-width: 1.5; stroke-linecap: square"/>
   </g>
   <g id="line2d_43">
    <path d="M 224.3025 82.505234 
L 224.3025 64.875631 
" clip-path="url(#pe2b21a12d5)" style="fill: none; stroke: #22c55e; stroke-width: 1.5; stroke-linecap: square"/>
   </g>
   <g id="line2d_44">
    <path d="M 238.7025 86.797667 
L 238.7025 75.368807 
" clip-path="url(#pe2b21a12d5)" style="fill: none; stroke: #ef4444; stroke-width: 1.5; stroke-linecap: square"/>
   </g>
   <g id="line2d_45">
    <path d="M 253.1025 94.931727 
L 253.1025 79.230729 
" clip-path="url(#pe2b21a12d5)" style="fill: none; stroke: #ef4444; stroke-width: 1.5; stroke-linecap: square"/>
   </g>
   <g id="line2d_46">
    <path d="M 267.5025 96.648464 
L 267.5025 84.746884 
" clip-path="url(#pe2b21a12d5)" style="fill: none; stroke: #22c55e; stroke-width: 1.5; stroke-linecap: square"/>
   </g>
   <g id="line2d_47">
    <path d="M 281.9025 93.667883 
L 281.9025 83.288213 
" clip-path="url(#pe2b21a12d5)" style="fill: none; stroke: #ef4444; stroke-width: 1.5; stroke-linecap: square"/>
   </g>
   <g id="line2d_48">
    <path d="M 296.3025 105.525872 
L 296.3025 86.608383 
" clip-path="url(#pe2b21a12d5)" style="fill: none; stroke: #22c55e; stroke-width: 1.5; stroke-linecap: square"/>
   </g>
   <g id="line2d_49">
    <path d="M 310.7025 99.750233 
L 310.7025 86.970635 
" clip-path="url(#pe2b21a12d5)" style="fill: none; stroke: #ef4444; stroke-width: 1.5; stroke-linecap: square"/>
   </g>
   <g id="line2d_50">
    <path d="M 325.1025 112.296357 
L 325.1025 97.992898 
" clip-path="url(#pe2b21a12d5)" style="fill: none; stroke: #ef4444; stroke-width: 1.5; stroke-linecap: square"/>
   </g>
   <g id="line2d_51">
    <path d="M 339.5025 114.677219 
L 339.5025 102.839038 
" clip-path="url(#pe2b21a12d5)" style="fill: none; stroke: #ef4444; stroke-width: 1.5; stroke-linecap: square"/>
   </g>
   <g id="line2d_52">
    <path d="M 353.9025 108.834227 
L 353.9025 93.428095 
" clip-path="url(#pe2b21a12d5)" style="fill: none; stroke: #22c55e; stroke-width: 1.5; stroke-linecap: square"/>
   </g>
   <g id="line2d_53">
    <path d="M 368.3025 118.607555 
L 368.3025 108.448055 
" clip-path="url(#pe2b21a12d5)" style="fill: none; stroke: #ef4444; stroke-width: 1.5; stroke-linecap: square"/>
   </g>
   <g id="line2d_54">
    <path d="M 382.7025 118.730261 
L 382.7025 102.068414 
" clip-path="url(#pe2b21a12d5)" style="fill: none; stroke: #ef4444; stroke-width: 1.5; stroke-linecap: square"/>
   </g>
   <g id="line2d_55">
    <path d="M 397.1025 139.631193 
L 397.1025 122.14337 
" clip-path="url(#pe2b21a12d5)" style="fill: none; stroke: #22c55e; stroke-width: 1.5; stroke-linecap: square"/>
   </g>
   <g id="line2d_56">
    <path d="M 411.5025 137.933771 
L 411.5025 128.209382 
" clip-path="url(#pe2b21a12d5)" style="fill: none; stroke: #22c55e; stroke-width: 1.5; stroke-linecap: square"/>
   </g>
   <g id="line2d_57">
    <path d="M 425.9025 147.468087 
L 425.9025 136.50148 
" clip-path="url(#pe2b21a12d5)" style="fill: none; stroke: #ef4444; stroke-width: 1.5; stroke-linecap: square"/>
   </g>
   <g id="line2d_58">
    <path d="M 440.3025 164.053409 
L 440.3025 143.157285 
" clip-path="url(#pe2b21a12d5)" style="fill: none; stroke: #22c55e; stroke-width: 1.5; stroke-linecap: square"/>
   </g>
   <g id="line2d_59">
    <path d="M 454.7025 179.291568 
L 454.7025 168.025774 
" clip-path="url(#pe2b21a12d5)" style="fill: none; stroke: #ef4444; stroke-width: 1.5; stroke-linecap: square"/>
   </g>
   <g id="line2d_60">
    <path d="M 469.1025 180.059588 
L 469.1025 162.714124 
" clip-path="url(#pe2b21a12d5)" style="fill: none; stroke: #22c55e; stroke-width: 1.5; stroke-linecap: square"/>
   </g>
   <g id="patch_33">
    <path d="M 37.1025 193.58154 
L 37.1025 31.318125 
" style="fill: none; stroke: #1f2937; stroke-width: 0.8; stroke-linejoin: miter; stroke-linecap: square"/>
   </g>
   <g id="patch_34">
    <path d="M 37.1025 193.58154 
L 483.5025 193.58154 
" style="fill: none; stroke: #1f2937; stroke-width: 0.8; stroke-linejoin: miter; stroke-linecap: square"/>
   </g>
   <g id="text_9">
    <!-- Diamond Bottom — NVDA 4H -->
    <g style="fill: #ffffff" transform="translate(162.63 16.318125) scale(0.12 -0.12)">
     <defs>
      <path id="DejaVuSans-Bold-44" d="M 1791 3756 
L 1791 909 
L 2222 909 
Q 2959 909 3348 1275 
Q 3738 1641 3738 2338 
Q 3738 3031 3350 3393 
Q 2963 3756 2222 3756 
L 1791 3756 
z
M 588 4666 
L 1856 4666 
Q 2919 4666 3439 4514 
Q 3959 4363 4331 4000 
Q 4659 3684 4818 3271 
Q 4978 2859 4978 2338 
Q 4978 1809 4818 1395 
Q 4659 981 4331 666 
Q 3956 303 3431 151 
Q 2906 0 1856 0 
L 588 0 
L 588 4666 
z
" transform="scale(0.015625)"/>
      <path id="DejaVuSans-Bold-69" d="M 538 3500 
L 1656 3500 
L 1656 0 
L 538 0 
L 538 3500 
z
M 538 4863 
L 1656 4863 
L 1656 3950 
L 538 3950 
L 538 4863 
z
" transform="scale(0.015625)"/>
      <path id="DejaVuSans-Bold-61" d="M 2106 1575 
Q 1756 1575 1579 1456 
Q 1403 1338 1403 1106 
Q 1403 894 1545 773 
Q 1688 653 1941 653 
Q 2256 653 2472 879 
Q 2688 1106 2688 1447 
L 2688 1575 
L 2106 1575 
z
M 3816 1997 
L 3816 0 
L 2688 0 
L 2688 519 
Q 2463 200 2181 54 
Q 1900 -91 1497 -91 
Q 953 -91 614 226 
Q 275 544 275 1050 
Q 275 1666 698 1953 
Q 1122 2241 2028 2241 
L 2688 2241 
L 2688 2328 
Q 2688 2594 2478 2717 
Q 2269 2841 1825 2841 
Q 1466 2841 1156 2769 
Q 847 2697 581 2553 
L 581 3406 
Q 941 3494 1303 3539 
Q 1666 3584 2028 3584 
Q 2975 3584 3395 3211 
Q 3816 2838 3816 1997 
z
" transform="scale(0.015625)"/>
      <path id="DejaVuSans-Bold-6d" d="M 3781 2919 
Q 3994 3244 4286 3414 
Q 4578 3584 4928 3584 
Q 5531 3584 5847 3212 
Q 6163 2841 6163 2131 
L 6163 0 
L 5038 0 
L 5038 1825 
Q 5041 1866 5042 1909 
Q 5044 1953 5044 2034 
Q 5044 2406 4934 2573 
Q 4825 2741 4581 2741 
Q 4263 2741 4089 2478 
Q 3916 2216 3909 1719 
L 3909 0 
L 2784 0 
L 2784 1825 
Q 2784 2406 2684 2573 
Q 2584 2741 2328 2741 
Q 2006 2741 1831 2477 
Q 1656 2213 1656 1722 
L 1656 0 
L 531 0 
L 531 3500 
L 1656 3500 
L 1656 2988 
Q 1863 3284 2130 3434 
Q 2397 3584 2719 3584 
Q 3081 3584 3359 3409 
Q 3638 3234 3781 2919 
z
" transform="scale(0.015625)"/>
      <path id="DejaVuSans-Bold-6f" d="M 2203 2784 
Q 1831 2784 1636 2517 
Q 1441 2250 1441 1747 
Q 1441 1244 1636 976 
Q 1831 709 2203 709 
Q 2569 709 2762 976 
Q 2956 1244 2956 1747 
Q 2956 2250 2762 2517 
Q 2569 2784 2203 2784 
z
M 2203 3584 
Q 3106 3584 3614 3096 
Q 4122 2609 4122 1747 
Q 4122 884 3614 396 
Q 3106 -91 2203 -91 
Q 1297 -91 786 396 
Q 275 884 275 1747 
Q 275 2609 786 3096 
Q 1297 3584 2203 3584 
z
" transform="scale(0.015625)"/>
      <path id="DejaVuSans-Bold-6e" d="M 4056 2131 
L 4056 0 
L 2931 0 
L 2931 347 
L 2931 1631 
Q 2931 2084 2911 2256 
Q 2891 2428 2841 2509 
Q 2775 2619 2662 2680 
Q 2550 2741 2406 2741 
Q 2056 2741 1856 2470 
Q 1656 2200 1656 1722 
L 1656 0 
L 538 0 
L 538 3500 
L 1656 3500 
L 1656 2988 
Q 1909 3294 2193 3439 
Q 2478 3584 2822 3584 
Q 3428 3584 3742 3212 
Q 4056 2841 4056 2131 
z
" transform="scale(0.015625)"/>
      <path id="DejaVuSans-Bold-64" d="M 2919 2988 
L 2919 4863 
L 4044 4863 
L 4044 0 
L 2919 0 
L 2919 506 
Q 2688 197 2409 53 
Q 2131 -91 1766 -91 
Q 1119 -91 703 423 
Q 288 938 288 1747 
Q 288 2556 703 3070 
Q 1119 3584 1766 3584 
Q 2128 3584 2408 3439 
Q 2688 3294 2919 2988 
z
M 2181 722 
Q 2541 722 2730 984 
Q 2919 1247 2919 1747 
Q 2919 2247 2730 2509 
Q 2541 2772 2181 2772 
Q 1825 2772 1636 2509 
Q 1447 2247 1447 1747 
Q 1447 1247 1636 984 
Q 1825 722 2181 722 
z
" transform="scale(0.015625)"/>
      <path id="DejaVuSans-Bold-20" transform="scale(0.015625)"/>
      <path id="DejaVuSans-Bold-42" d="M 2456 2859 
Q 2741 2859 2887 2984 
Q 3034 3109 3034 3353 
Q 3034 3594 2887 3720 
Q 2741 3847 2456 3847 
L 1791 3847 
L 1791 2859 
L 2456 2859 
z
M 2497 819 
Q 2859 819 3042 972 
Q 3225 1125 3225 1434 
Q 3225 1738 3044 1889 
Q 2863 2041 2497 2041 
L 1791 2041 
L 1791 819 
L 2497 819 
z
M 3616 2497 
Q 4003 2384 4215 2081 
Q 4428 1778 4428 1338 
Q 4428 663 3972 331 
Q 3516 0 2584 0 
L 588 0 
L 588 4666 
L 2394 4666 
Q 3366 4666 3802 4372 
Q 4238 4078 4238 3431 
Q 4238 3091 4078 2852 
Q 3919 2613 3616 2497 
z
" transform="scale(0.015625)"/>
      <path id="DejaVuSans-Bold-74" d="M 1759 4494 
L 1759 3500 
L 2913 3500 
L 2913 2700 
L 1759 2700 
L 1759 1216 
Q 1759 972 1856 886 
Q 1953 800 2241 800 
L 2816 800 
L 2816 0 
L 1856 0 
Q 1194 0 917 276 
Q 641 553 641 1216 
L 641 2700 
L 84 2700 
L 84 3500 
L 641 3500 
L 641 4494 
L 1759 4494 
z
" transform="scale(0.015625)"/>
      <path id="DejaVuSans-Bold-2014" d="M 344 2156 
L 6056 2156 
L 6056 1350 
L 344 1350 
L 344 2156 
z
" transform="scale(0.015625)"/>
      <path id="DejaVuSans-Bold-4e" d="M 588 4666 
L 1931 4666 
L 3628 1466 
L 3628 4666 
L 4769 4666 
L 4769 0 
L 3425 0 
L 1728 3200 
L 1728 0 
L 588 0 
L 588 4666 
z
" transform="scale(0.015625)"/>
      <path id="DejaVuSans-Bold-56" d="M 31 4666 
L 1241 4666 
L 2478 1222 
L 3713 4666 
L 4922 4666 
L 3194 0 
L 1759 0 
L 31 4666 
z
" transform="scale(0.015625)"/>
      <path id="DejaVuSans-Bold-41" d="M 3419 850 
L 1538 850 
L 1241 0 
L 31 0 
L 1759 4666 
L 3194 4666 
L 4922 0 
L 3713 0 
L 3419 850 
z
M 1838 1716 
L 3116 1716 
L 2478 3572 
L 1838 1716 
z
" transform="scale(0.015625)"/>
      <path id="DejaVuSans-Bold-34" d="M 2356 3675 
L 1038 1722 
L 2356 1722 
L 2356 3675 
z
M 2156 4666 
L 3494 4666 
L 3494 1722 
L 4159 1722 
L 4159 850 
L 3494 850 
L 3494 0 
L 2356 0 
L 2356 850 
L 288 850 
L 288 1881 
L 2156 4666 
z
" transform="scale(0.015625)"/>
      <path id="DejaVuSans-Bold-48" d="M 588 4666 
L 1791 4666 
L 1791 2888 
L 3566 2888 
L 3566 4666 
L 4769 4666 
L 4769 0 
L 3566 0 
L 3566 1978 
L 1791 1978 
L 1791 0 
L 588 0 
L 588 4666 
z
" transform="scale(0.015625)"/>
     </defs>
     <use xlink:href="#DejaVuSans-Bold-44"/>
     <use xlink:href="#DejaVuSans-Bold-69" transform="translate(83.007812 0)"/>
     <use xlink:href="#DejaVuSans-Bold-61" transform="translate(117.285156 0)"/>
     <use xlink:href="#DejaVuSans-Bold-6d" transform="translate(184.765625 0)"/>
     <use xlink:href="#DejaVuSans-Bold-6f" transform="translate(288.964844 0)"/>
     <use xlink:href="#DejaVuSans-Bold-6e" transform="translate(357.666016 0)"/>
     <use xlink:href="#DejaVuSans-Bold-64" transform="translate(428.857422 0)"/>
     <use xlink:href="#DejaVuSans-Bold-20" transform="translate(500.439453 0)"/>
     <use xlink:href="#DejaVuSans-Bold-42" transform="translate(535.253906 0)"/>
     <use xlink:href="#DejaVuSans-Bold-6f" transform="translate(611.474609 0)"/>
     <use xlink:href="#DejaVuSans-Bold-74" transform="translate(680.175781 0)"/>
     <use xlink:href="#DejaVuSans-Bold-74" transform="translate(727.978516 0)"/>
     <use xlink:href="#DejaVuSans-Bold-6f" transform="translate(775.78125 0)"/>
     <use xlink:href="#DejaVuSans-Bold-6d" transform="translate(844.482422 0)"/>
     <use xlink:href="#DejaVuSans-Bold-20" transform="translate(948.681641 0)"/>
     <use xlink:href="#DejaVuSans-Bold-2014" transform="translate(983.496094 0)"/>
     <use xlink:href="#DejaVuSans-Bold-20" transform="translate(1083.496094 0)"/>
     <use xlink:href="#DejaVuSans-Bold-4e" transform="translate(1118.310547 0)"/>
     <use xlink:href="#DejaVuSans-Bold-56" transform="translate(1202.001953 0)"/>
     <use xlink:href="#DejaVuSans-Bold-44" transform="translate(1279.394531 0)"/>
     <use xlink:href="#DejaVuSans-Bold-41" transform="translate(1362.402344 0)"/>
     <use xlink:href="#DejaVuSans-Bold-20" transform="translate(1439.794922 0)"/>
     <use xlink:href="#DejaVuSans-Bold-34" transform="translate(1474.609375 0)"/>
     <use xlink:href="#DejaVuSans-Bold-48" transform="translate(1544.189453 0)"/>
    </g>
   </g>
  </g>
  <g id="axes_2">
   <g id="patch_35">
    <path d="M 37.1025 253.078125 
L 483.5025 253.078125 
L 483.5025 198.99032 
L 37.1025 198.99032 
z
" style="fill: #0a0f1a"/>
   </g>
   <g id="patch_36">
    <path d="M 57.393409 253.078125 
L 66.958147 253.078125 
L 66.958147 204.126219 
L 57.393409 204.126219 
z
" clip-path="url(#p230e64573d)" style="fill: #22c55e; fill-opacity: 0.266667"/>
   </g>
   <g id="patch_37">
    <path d="M 71.057321 253.078125 
L 80.622059 253.078125 
L 80.622059 239.242283 
L 71.057321 239.242283 
z
" clip-path="url(#p230e64573d)" style="fill: #ef4444; fill-opacity: 0.266667"/>
   </g>
   <g id="patch_38">
    <path d="M 84.721233 253.078125 
L 94.285971 253.078125 
L 94.285971 229.162573 
L 84.721233 229.162573 
z
" clip-path="url(#p230e64573d)" style="fill: #22c55e; fill-opacity: 0.266667"/>
   </g>
   <g id="patch_39">
    <path d="M 98.385145 253.078125 
L 107.949883 253.078125 
L 107.949883 235.146874 
L 98.385145 235.146874 
z
" clip-path="url(#p230e64573d)" style="fill: #22c55e; fill-opacity: 0.266667"/>
   </g>
   <g id="patch_40">
    <path d="M 112.049056 253.078125 
L 121.613795 253.078125 
L 121.613795 218.719656 
L 112.049056 218.719656 
z
" clip-path="url(#p230e64573d)" style="fill: #ef4444; fill-opacity: 0.266667"/>
   </g>
   <g id="patch_41">
    <path d="M 125.712968 253.078125 
L 135.277707 253.078125 
L 135.277707 224.292672 
L 125.712968 224.292672 
z
" clip-path="url(#p230e64573d)" style="fill: #ef4444; fill-opacity: 0.266667"/>
   </g>
   <g id="patch_42">
    <path d="M 139.37688 253.078125 
L 148.941618 253.078125 
L 148.941618 223.555973 
L 139.37688 223.555973 
z
" clip-path="url(#p230e64573d)" style="fill: #ef4444; fill-opacity: 0.266667"/>
   </g>
   <g id="patch_43">
    <path d="M 153.040792 253.078125 
L 162.60553 253.078125 
L 162.60553 215.230102 
L 153.040792 215.230102 
z
" clip-path="url(#p230e64573d)" style="fill: #22c55e; fill-opacity: 0.266667"/>
   </g>
   <g id="patch_44">
    <path d="M 166.704704 253.078125 
L 176.269442 253.078125 
L 176.269442 218.408663 
L 166.704704 218.408663 
z
" clip-path="url(#p230e64573d)" style="fill: #22c55e; fill-opacity: 0.266667"/>
   </g>
   <g id="patch_45">
    <path d="M 180.368616 253.078125 
L 189.933354 253.078125 
L 189.933354 202.007441 
L 180.368616 202.007441 
z
" clip-path="url(#p230e64573d)" style="fill: #ef4444; fill-opacity: 0.266667"/>
   </g>
   <g id="patch_46">
    <path d="M 194.032528 253.078125 
L 203.597266 253.078125 
L 203.597266 238.754887 
L 194.032528 238.754887 
z
" clip-path="url(#p230e64573d)" style="fill: #ef4444; fill-opacity: 0.266667"/>
   </g>
   <g id="patch_47">
    <path d="M 207.696439 253.078125 
L 217.261178 253.078125 
L 217.261178 211.635176 
L 207.696439 211.635176 
z
" clip-path="url(#p230e64573d)" style="fill: #ef4444; fill-opacity: 0.266667"/>
   </g>
   <g id="patch_48">
    <path d="M 221.360351 253.078125 
L 230.92509 253.078125 
L 230.92509 216.56341 
L 221.360351 216.56341 
z
" clip-path="url(#p230e64573d)" style="fill: #22c55e; fill-opacity: 0.266667"/>
   </g>
   <g id="patch_49">
    <path d="M 235.024263 253.078125 
L 244.589001 253.078125 
L 244.589001 215.218557 
L 235.024263 215.218557 
z
" clip-path="url(#p230e64573d)" style="fill: #ef4444; fill-opacity: 0.266667"/>
   </g>
   <g id="patch_50">
    <path d="M 248.688175 253.078125 
L 258.252913 253.078125 
L 258.252913 230.74596 
L 248.688175 230.74596 
z
" clip-path="url(#p230e64573d)" style="fill: #ef4444; fill-opacity: 0.266667"/>
   </g>
   <g id="patch_51">
    <path d="M 262.352087 253.078125 
L 271.916825 253.078125 
L 271.916825 213.030312 
L 262.352087 213.030312 
z
" clip-path="url(#p230e64573d)" style="fill: #22c55e; fill-opacity: 0.266667"/>
   </g>
   <g id="patch_52">
    <path d="M 276.015999 253.078125 
L 285.580737 253.078125 
L 285.580737 212.923607 
L 276.015999 212.923607 
z
" clip-path="url(#p230e64573d)" style="fill: #ef4444; fill-opacity: 0.266667"/>
   </g>
   <g id="patch_53">
    <path d="M 289.67991 253.078125 
L 299.244649 253.078125 
L 299.244649 205.315082 
L 289.67991 205.315082 
z
" clip-path="url(#p230e64573d)" style="fill: #22c55e; fill-opacity: 0.266667"/>
   </g>
   <g id="patch_54">
    <path d="M 303.343822 253.078125 
L 312.908561 253.078125 
L 312.908561 239.669553 
L 303.343822 239.669553 
z
" clip-path="url(#p230e64573d)" style="fill: #ef4444; fill-opacity: 0.266667"/>
   </g>
   <g id="patch_55">
    <path d="M 317.007734 253.078125 
L 326.572472 253.078125 
L 326.572472 218.212182 
L 317.007734 218.212182 
z
" clip-path="url(#p230e64573d)" style="fill: #ef4444; fill-opacity: 0.266667"/>
   </g>
   <g id="patch_56">
    <path d="M 330.671646 253.078125 
L 340.236384 253.078125 
L 340.236384 240.879091 
L 330.671646 240.879091 
z
" clip-path="url(#p230e64573d)" style="fill: #ef4444; fill-opacity: 0.266667"/>
   </g>
   <g id="patch_57">
    <path d="M 344.335558 253.078125 
L 353.900296 253.078125 
L 353.900296 229.466807 
L 344.335558 229.466807 
z
" clip-path="url(#p230e64573d)" style="fill: #22c55e; fill-opacity: 0.266667"/>
   </g>
   <g id="patch_58">
    <path d="M 357.99947 253.078125 
L 367.564208 253.078125 
L 367.564208 209.368353 
L 357.99947 209.368353 
z
" clip-path="url(#p230e64573d)" style="fill: #ef4444; fill-opacity: 0.266667"/>
   </g>
   <g id="patch_59">
    <path d="M 371.663382 253.078125 
L 381.22812 253.078125 
L 381.22812 214.694449 
L 371.663382 214.694449 
z
" clip-path="url(#p230e64573d)" style="fill: #ef4444; fill-opacity: 0.266667"/>
   </g>
   <g id="patch_60">
    <path d="M 385.327293 253.078125 
L 394.892032 253.078125 
L 394.892032 203.625305 
L 385.327293 203.625305 
z
" clip-path="url(#p230e64573d)" style="fill: #22c55e; fill-opacity: 0.266667"/>
   </g>
   <g id="patch_61">
    <path d="M 398.991205 253.078125 
L 408.555944 253.078125 
L 408.555944 212.62207 
L 398.991205 212.62207 
z
" clip-path="url(#p230e64573d)" style="fill: #22c55e; fill-opacity: 0.266667"/>
   </g>
   <g id="patch_62">
    <path d="M 412.655117 253.078125 
L 422.219855 253.078125 
L 422.219855 221.628039 
L 412.655117 221.628039 
z
" clip-path="url(#p230e64573d)" style="fill: #ef4444; fill-opacity: 0.266667"/>
   </g>
   <g id="patch_63">
    <path d="M 426.319029 253.078125 
L 435.883767 253.078125 
L 435.883767 203.883634 
L 426.319029 203.883634 
z
" clip-path="url(#p230e64573d)" style="fill: #22c55e; fill-opacity: 0.266667"/>
   </g>
   <g id="patch_64">
    <path d="M 439.982941 253.078125 
L 449.547679 253.078125 
L 449.547679 219.034144 
L 439.982941 219.034144 
z
" clip-path="url(#p230e64573d)" style="fill: #ef4444; fill-opacity: 0.266667"/>
   </g>
   <g id="patch_65">
    <path d="M 453.646853 253.078125 
L 463.211591 253.078125 
L 463.211591 201.56593 
L 453.646853 201.56593 
z
" clip-path="url(#p230e64573d)" style="fill: #22c55e; fill-opacity: 0.266667"/>
   </g>
   <g id="matplotlib.axis_3">
    <g id="xtick_8">
     <g id="line2d_61">
      <path d="M 62.175778 253.078125 
L 62.175778 198.99032 
" clip-path="url(#p230e64573d)" style="fill: none; stroke-dasharray: 2.96,1.28; stroke-dashoffset: 0; stroke: #374151; stroke-opacity: 0.1; stroke-width: 0.8"/>
     </g>
     <g id="line2d_62">
      <g>
       <use xlink:href="#m5ccc557c9f" x="62.175778" y="253.078125" style="fill: #9ca3af; stroke: #9ca3af; stroke-width: 0.8"/>
      </g>
     </g>
     <g id="text_10">
      <!-- 0 -->
      <g style="fill: #9ca3af" transform="translate(59.630778 266.156875) scale(0.08 -0.08)">
       <use xlink:href="#DejaVuSans-30"/>
      </g>
     </g>
    </g>
    <g id="xtick_9">
     <g id="line2d_63">
      <path d="M 130.495337 253.078125 
L 130.495337 198.99032 
" clip-path="url(#p230e64573d)" style="fill: none; stroke-dasharray: 2.96,1.28; stroke-dashoffset: 0; stroke: #374151; stroke-opacity: 0.1; stroke-width: 0.8"/>
     </g>
     <g id="line2d_64">
      <g>
       <use xlink:href="#m5ccc557c9f" x="130.495337" y="253.078125" style="fill: #9ca3af; stroke: #9ca3af; stroke-width: 0.8"/>
      </g>
     </g>
     <g id="text_11">
      <!-- 5 -->
      <g style="fill: #9ca3af" transform="translate(127.950337 266.156875) scale(0.08 -0.08)">
       <use xlink:href="#DejaVuSans-35"/>
      </g>
     </g>
    </g>
    <g id="xtick_10">
     <g id="line2d_65">
      <path d="M 198.814897 253.078125 
L 198.814897 198.99032 
" clip-path="url(#p230e64573d)" style="fill: none; stroke-dasharray: 2.96,1.28; stroke-dashoffset: 0; stroke: #374151; stroke-opacity: 0.1; stroke-width: 0.8"/>
     </g>
     <g id="line2d_66">
      <g>
       <use xlink:href="#m5ccc557c9f" x="198.814897" y="253.078125" style="fill: #9ca3af; stroke: #9ca3af; stroke-width: 0.8"/>
      </g>
     </g>
     <g id="text_12">
      <!-- 10 -->
      <g style="fill: #9ca3af" transform="translate(193.724897 266.156875) scale(0.08 -0.08)">
       <use xlink:href="#DejaVuSans-31"/>
       <use xlink:href="#DejaVuSans-30" transform="translate(63.623047 0)"/>
      </g>
     </g>
    </g>
    <g id="xtick_11">
     <g id="line2d_67">
      <path d="M 267.134456 253.078125 
L 267.134456 198.99032 
" clip-path="url(#p230e64573d)" style="fill: none; stroke-dasharray: 2.96,1.28; stroke-dashoffset: 0; stroke: #374151; stroke-opacity: 0.1; stroke-width: 0.8"/>
     </g>
     <g id="line2d_68">
      <g>
       <use xlink:href="#m5ccc557c9f" x="267.134456" y="253.078125" style="fill: #9ca3af; stroke: #9ca3af; stroke-width: 0.8"/>
      </g>
     </g>
     <g id="text_13">
      <!-- 15 -->
      <g style="fill: #9ca3af" transform="translate(262.044456 266.156875) scale(0.08 -0.08)">
       <use xlink:href="#DejaVuSans-31"/>
       <use xlink:href="#DejaVuSans-35" transform="translate(63.623047 0)"/>
      </g>
     </g>
    </g>
    <g id="xtick_12">
     <g id="line2d_69">
      <path d="M 335.454015 253.078125 
L 335.454015 198.99032 
" clip-path="url(#p230e64573d)" style="fill: none; stroke-dasharray: 2.96,1.28; stroke-dashoffset: 0; stroke: #374151; stroke-opacity: 0.1; stroke-width: 0.8"/>
     </g>
     <g id="line2d_70">
      <g>
       <use xlink:href="#m5ccc557c9f" x="335.454015" y="253.078125" style="fill: #9ca3af; stroke: #9ca3af; stroke-width: 0.8"/>
      </g>
     </g>
     <g id="text_14">
      <!-- 20 -->
      <g style="fill: #9ca3af" transform="translate(330.364015 266.156875) scale(0.08 -0.08)">
       <use xlink:href="#DejaVuSans-32"/>
       <use xlink:href="#DejaVuSans-30" transform="translate(63.623047 0)"/>
      </g>
     </g>
    </g>
    <g id="xtick_13">
     <g id="line2d_71">
      <path d="M 403.773574 253.078125 
L 403.773574 198.99032 
" clip-path="url(#p230e64573d)" style="fill: none; stroke-dasharray: 2.96,1.28; stroke-dashoffset: 0; stroke: #374151; stroke-opacity: 0.1; stroke-width: 0.8"/>
     </g>
     <g id="line2d_72">
      <g>
       <use xlink:href="#m5ccc557c9f" x="403.773574" y="253.078125" style="fill: #9ca3af; stroke: #9ca3af; stroke-width: 0.8"/>
      </g>
     </g>
     <g id="text_15">
      <!-- 25 -->
      <g style="fill: #9ca3af" transform="translate(398.683574 266.156875) scale(0.08 -0.08)">
       <use xlink:href="#DejaVuSans-32"/>
       <use xlink:href="#DejaVuSans-35" transform="translate(63.623047 0)"/>
      </g>
     </g>
    </g>
    <g id="xtick_14">
     <g id="line2d_73">
      <path d="M 472.093134 253.078125 
L 472.093134 198.99032 
" clip-path="url(#p230e64573d)" style="fill: none; stroke-dasharray: 2.96,1.28; stroke-dashoffset: 0; stroke: #374151; stroke-opacity: 0.1; stroke-width: 0.8"/>
     </g>
     <g id="line2d_74">
      <g>
       <use xlink:href="#m5ccc557c9f" x="472.093134" y="253.078125" style="fill: #9ca3af; stroke: #9ca3af; stroke-width: 0.8"/>
      </g>
     </g>
     <g id="text_16">
      <!-- 30 -->
      <g style="fill: #9ca3af" transform="translate(467.003134 266.156875) scale(0.08 -0.08)">
       <defs>
        <path id="DejaVuSans-33" d="M 2597 2516 
Q 3050 2419 3304 2112 
Q 3559 1806 3559 1356 
Q 3559 666 3084 287 
Q 2609 -91 1734 -91 
Q 1441 -91 1130 -33 
Q 819 25 488 141 
L 488 750 
Q 750 597 1062 519 
Q 1375 441 1716 441 
Q 2309 441 2620 675 
Q 2931 909 2931 1356 
Q 2931 1769 2642 2001 
Q 2353 2234 1838 2234 
L 1294 2234 
L 1294 2753 
L 1863 2753 
Q 2328 2753 2575 2939 
Q 2822 3125 2822 3475 
Q 2822 3834 2567 4026 
Q 2313 4219 1838 4219 
Q 1578 4219 1281 4162 
Q 984 4106 628 3988 
L 628 4550 
Q 988 4650 1302 4700 
Q 1616 4750 1894 4750 
Q 2613 4750 3031 4423 
Q 3450 4097 3450 3541 
Q 3450 3153 3228 2886 
Q 3006 2619 2597 2516 
z
" transform="scale(0.015625)"/>
       </defs>
       <use xlink:href="#DejaVuSans-33"/>
       <use xlink:href="#DejaVuSans-30" transform="translate(63.623047 0)"/>
      </g>
     </g>
    </g>
   </g>
   <g id="matplotlib.axis_4">
    <g id="ytick_9">
     <g id="line2d_75">
      <path d="M 37.1025 253.078125 
L 483.5025 253.078125 
" clip-path="url(#p230e64573d)" style="fill: none; stroke-dasharray: 2.96,1.28; stroke-dashoffset: 0; stroke: #374151; stroke-opacity: 0.1; stroke-width: 0.8"/>
     </g>
     <g id="line2d_76">
      <g>
       <use xlink:href="#mc33034803b" x="37.1025" y="253.078125" style="fill: #9ca3af; stroke: #9ca3af; stroke-width: 0.8"/>
      </g>
     </g>
     <g id="text_17">
      <!-- 0 -->
      <g style="fill: #9ca3af" transform="translate(25.0125 256.1175) scale(0.08 -0.08)">
       <use xlink:href="#DejaVuSans-30"/>
      </g>
     </g>
    </g>
    <g id="ytick_10">
     <g id="line2d_77">
      <path d="M 37.1025 232.087759 
L 483.5025 232.087759 
" clip-path="url(#p230e64573d)" style="fill: none; stroke-dasharray: 2.96,1.28; stroke-dashoffset: 0; stroke: #374151; stroke-opacity: 0.1; stroke-width: 0.8"/>
     </g>
     <g id="line2d_78">
      <g>
       <use xlink:href="#mc33034803b" x="37.1025" y="232.087759" style="fill: #9ca3af; stroke: #9ca3af; stroke-width: 0.8"/>
      </g>
     </g>
     <g id="text_18">
      <!-- 2 -->
      <g style="fill: #9ca3af" transform="translate(25.0125 235.127134) scale(0.08 -0.08)">
       <use xlink:href="#DejaVuSans-32"/>
      </g>
     </g>
    </g>
    <g id="ytick_11">
     <g id="line2d_79">
      <path d="M 37.1025 211.097393 
L 483.5025 211.097393 
" clip-path="url(#p230e64573d)" style="fill: none; stroke-dasharray: 2.96,1.28; stroke-dashoffset: 0; stroke: #374151; stroke-opacity: 0.1; stroke-width: 0.8"/>
     </g>
     <g id="line2d_80">
      <g>
       <use xlink:href="#mc33034803b" x="37.1025" y="211.097393" style="fill: #9ca3af; stroke: #9ca3af; stroke-width: 0.8"/>
      </g>
     </g>
     <g id="text_19">
      <!-- 4 -->
      <g style="fill: #9ca3af" transform="translate(25.0125 214.136768) scale(0.08 -0.08)">
       <defs>
        <path id="DejaVuSans-34" d="M 2419 4116 
L 825 1625 
L 2419 1625 
L 2419 4116 
z
M 2253 4666 
L 3047 4666 
L 3047 1625 
L 3713 1625 
L 3713 1100 
L 3047 1100 
L 3047 0 
L 2419 0 
L 2419 1100 
L 313 1100 
L 313 1709 
L 2253 4666 
z
" transform="scale(0.015625)"/>
       </defs>
       <use xlink:href="#DejaVuSans-34"/>
      </g>
     </g>
    </g>
    <g id="text_20">
     <!-- Vol -->
     <g style="fill: #9ca3af" transform="translate(19.34875 232.019223) rotate(-90) scale(0.08 -0.08)">
      <defs>
       <path id="DejaVuSans-56" d="M 1831 0 
L 50 4666 
L 709 4666 
L 2188 738 
L 3669 4666 
L 4325 4666 
L 2547 0 
L 1831 0 
z
" transform="scale(0.015625)"/>
       <path id="DejaVuSans-6f" d="M 1959 3097 
Q 1497 3097 1228 2736 
Q 959 2375 959 1747 
Q 959 1119 1226 758 
Q 1494 397 1959 397 
Q 2419 397 2687 759 
Q 2956 1122 2956 1747 
Q 2956 2369 2687 2733 
Q 2419 3097 1959 3097 
z
M 1959 3584 
Q 2709 3584 3137 3096 
Q 3566 2609 3566 1747 
Q 3566 888 3137 398 
Q 2709 -91 1959 -91 
Q 1206 -91 779 398 
Q 353 888 353 1747 
Q 353 2609 779 3096 
Q 1206 3584 1959 3584 
z
" transform="scale(0.015625)"/>
       <path id="DejaVuSans-6c" d="M 603 4863 
L 1178 4863 
L 1178 0 
L 603 0 
L 603 4863 
z
" transform="scale(0.015625)"/>
      </defs>
      <use xlink:href="#DejaVuSans-56"/>
      <use xlink:href="#DejaVuSans-6f" transform="translate(60.658203 0)"/>
      <use xlink:href="#DejaVuSans-6c" transform="translate(121.839844 0)"/>
     </g>
    </g>
    <g id="text_21">
     <!-- 1e6 -->
     <g style="fill: #9ca3af" transform="translate(37.1025 195.99032) scale(0.1 -0.1)">
      <defs>
       <path id="DejaVuSans-65" d="M 3597 1894 
L 3597 1613 
L 953 1613 
Q 991 1019 1311 708 
Q 1631 397 2203 397 
Q 2534 397 2845 478 
Q 3156 559 3463 722 
L 3463 178 
Q 3153 47 2828 -22 
Q 2503 -91 2169 -91 
Q 1331 -91 842 396 
Q 353 884 353 1716 
Q 353 2575 817 3079 
Q 1281 3584 2069 3584 
Q 2775 3584 3186 3129 
Q 3597 2675 3597 1894 
z
M 3022 2063 
Q 3016 2534 2758 2815 
Q 2500 3097 2075 3097 
Q 1594 3097 1305 2825 
Q 1016 2553 972 2059 
L 3022 2063 
z
" transform="scale(0.015625)"/>
       <path id="DejaVuSans-36" d="M 2113 2584 
Q 1688 2584 1439 2293 
Q 1191 2003 1191 1497 
Q 1191 994 1439 701 
Q 1688 409 2113 409 
Q 2538 409 2786 701 
Q 3034 994 3034 1497 
Q 3034 2003 2786 2293 
Q 2538 2584 2113 2584 
z
M 3366 4563 
L 3366 3988 
Q 3128 4100 2886 4159 
Q 2644 4219 2406 4219 
Q 1781 4219 1451 3797 
Q 1122 3375 1075 2522 
Q 1259 2794 1537 2939 
Q 1816 3084 2150 3084 
Q 2853 3084 3261 2657 
Q 3669 2231 3669 1497 
Q 3669 778 3244 343 
Q 2819 -91 2113 -91 
Q 1303 -91 875 529 
Q 447 1150 447 2328 
Q 447 3434 972 4092 
Q 1497 4750 2381 4750 
Q 2619 4750 2861 4703 
Q 3103 4656 3366 4563 
z
" transform="scale(0.015625)"/>
      </defs>
      <use xlink:href="#DejaVuSans-31"/>
      <use xlink:href="#DejaVuSans-65" transform="translate(63.623047 0)"/>
      <use xlink:href="#DejaVuSans-36" transform="translate(125.146484 0)"/>
     </g>
    </g>
   </g>
   <g id="patch_66">
    <path d="M 37.1025 253.078125 
L 37.1025 198.99032 
" style="fill: none; stroke: #1f2937; stroke-width: 0.8; stroke-linejoin: miter; stroke-linecap: square"/>
   </g>
   <g id="patch_67">
    <path d="M 37.1025 253.078125 
L 483.5025 253.078125 
" style="fill: none; stroke: #1f2937; stroke-width: 0.8; stroke-linejoin: miter; stroke-linecap: square"/>
   </g>
  </g>
 </g>
 <defs>
  <clipPath id="pe2b21a12d5">
   <rect x="37.1025" y="31.318125" width="446.4" height="162.263415"/>
  </clipPath>
  <clipPath id="p230e64573d">
   <rect x="37.1025" y="198.99032" width="446.4" height="54.087805"/>
  </clipPath>
 </defs>
</svg>
