<?xml version="1.0" encoding="utf-8" standalone="no"?>
<!DOCTYPE svg PUBLIC "-//W3C//DTD SVG 1.1//EN"
  "http://www.w3.org/Graphics/SVG/1.1/DTD/svg11.dtd">
<svg xmlns:xlink="http://www.w3.org/1999/xlink" width="483.028437pt" height="267.533125pt" viewBox="0 0 483.028437 267.533125" xmlns="http://www.w3.org/2000/svg" version="1.1">
 <metadata>
  <rdf:RDF xmlns:dc="http://purl.org/dc/elements/1.1/" xmlns:cc="http://creativecommons.org/ns#" xmlns:rdf="http://www.w3.org/1999/02/22-rdf-syntax-ns#">
   <cc:Work>
    <dc:type rdf:resource="http://purl.org/dc/dcmitype/StillImage"/>
    <dc:date>2026-02-16T00:23:03.024175</dc:date>
    <dc:format>image/svg+xml</dc:format>
    <dc:creator>
     <cc:Agent>
      <dc:title>Matplotlib v3.10.8, https://matplotlib.org/</dc:title>
     </cc:Agent>
    </dc:creator>
   </cc:Work>
  </rdf:RDF>
 </metadata>
 <defs>
  <style type="text/css">*{stroke-linejoin: round; stroke-linecap: butt}</style>
 </defs>
 <g id="figure_1">
  <g id="patch_1">
   <path d="M 0 267.533125 
L 483.028437 267.533125 
L 483.028437 0 
L 0 0 
z
" style="fill: #0a0f1a"/>
  </g>
  <g id="axes_1">
   <g id="patch_2">
    <path d="M 29.428438 187.061852 
L 475.828437 187.061852 
L 475.828437 24.798438 
L 29.428438 24.798438 
z
" style="fill: #0a0f1a"/>
   </g>
   <g id="patch_3">
    <path d="M 38.788438 124.203841 
L 48.868437 124.203841 
Q 49.156437 124.203841 49.156437 123.962243 
L 49.156437 102.223254 
Q 49.156437 101.981656 48.868437 101.981656 
L 38.788438 101.981656 
Q 38.500438 101.981656 38.500438 102.223254 
L 38.500438 123.962243 
Q 38.500438 124.203841 38.788438 124.203841 
z
" clip-path="url(#p0cead7d969)" style="fill: #22c55e; stroke: #22c55e; stroke-linejoin: miter"/>
   </g>
   <g id="patch_4">
    <path d="M 53.188437 138.754407 
L 63.268437 138.754407 
Q 63.556438 138.754407 63.556438 138.512809 
L 63.556438 127.451179 
Q 63.556438 127.209581 63.268437 127.209581 
L 53.188437 127.209581 
Q 52.900437 127.209581 52.900437 127.451179 
L 52.900437 138.512809 
Q 52.900437 138.754407 53.188437 138.754407 
z
" clip-path="url(#p0cead7d969)" style="fill: #22c55e; stroke: #22c55e; stroke-linejoin: miter"/>
   </g>
   <g id="patch_5">
    <path d="M 67.588437 144.987015 
L 77.668437 144.987015 
Q 77.956437 144.987015 77.956437 144.745417 
L 77.956437 125.860301 
Q 77.956437 125.618703 77.668437 125.618703 
L 67.588437 125.618703 
Q 67.300438 125.618703 67.300438 125.860301 
L 67.300438 144.745417 
Q 67.300438 144.987015 67.588437 144.987015 
z
" clip-path="url(#p0cead7d969)" style="fill: #ef4444; stroke: #ef4444; stroke-linejoin: miter"/>
   </g>
   <g id="patch_6">
    <path d="M 81.988438 156.25005 
L 92.068437 156.25005 
Q 92.356437 156.25005 92.356437 156.008452 
L 92.356437 147.726565 
Q 92.356437 147.484967 92.068437 147.484967 
L 81.988438 147.484967 
Q 81.700437 147.484967 81.700437 147.726565 
L 81.700437 156.008452 
Q 81.700437 156.25005 81.988438 156.25005 
z
" clip-path="url(#p0cead7d969)" style="fill: #22c55e; stroke: #22c55e; stroke-linejoin: miter"/>
   </g>
   <g id="patch_7">
    <path d="M 96.388437 145.128017 
L 106.468437 145.128017 
Q 106.756438 145.128017 106.756438 144.886419 
L 106.756438 130.107954 
Q 106.756438 129.866356 106.468437 129.866356 
L 96.388437 129.866356 
Q 96.100437 129.866356 96.100437 130.107954 
L 96.100437 144.886419 
Q 96.100437 145.128017 96.388437 145.128017 
z
" clip-path="url(#p0cead7d969)" style="fill: #ef4444; stroke: #ef4444; stroke-linejoin: miter"/>
   </g>
   <g id="patch_8">
    <path d="M 110.788437 110.558285 
L 120.868437 110.558285 
Q 121.156438 110.558285 121.156438 110.316687 
L 121.156438 98.500517 
Q 121.156438 98.258919 120.868437 98.258919 
L 110.788437 98.258919 
Q 110.500438 98.258919 110.500438 98.500517 
L 110.500438 110.316687 
Q 110.500438 110.558285 110.788437 110.558285 
z
" clip-path="url(#p0cead7d969)" style="fill: #ef4444; stroke: #ef4444; stroke-linejoin: miter"/>
   </g>
   <g id="patch_9">
    <path d="M 125.188437 105.529459 
L 135.268438 105.529459 
Q 135.556438 105.529459 135.556438 105.287862 
L 135.556438 88.18229 
Q 135.556438 87.940692 135.268438 87.940692 
L 125.188437 87.940692 
Q 124.900438 87.940692 124.900438 88.18229 
L 124.900438 105.287862 
Q 124.900438 105.529459 125.188437 105.529459 
z
" clip-path="url(#p0cead7d969)" style="fill: #ef4444; stroke: #ef4444; stroke-linejoin: miter"/>
   </g>
   <g id="patch_10">
    <path d="M 139.588437 98.072323 
L 149.668438 98.072323 
Q 149.956437 98.072323 149.956437 97.830725 
L 149.956437 83.201437 
Q 149.956437 82.959839 149.668438 82.959839 
L 139.588437 82.959839 
Q 139.300438 82.959839 139.300438 83.201437 
L 139.300438 97.830725 
Q 139.300438 98.072323 139.588437 98.072323 
z
" clip-path="url(#p0cead7d969)" style="fill: #ef4444; stroke: #ef4444; stroke-linejoin: miter"/>
   </g>
   <g id="patch_11">
    <path d="M 153.988438 109.883478 
L 164.068438 109.883478 
Q 164.356437 109.883478 164.356437 109.64188 
L 164.356437 101.564935 
Q 164.356437 101.323337 164.068438 101.323337 
L 153.988438 101.323337 
Q 153.700437 101.323337 153.700437 101.564935 
L 153.700437 109.64188 
Q 153.700437 109.883478 153.988438 109.883478 
z
" clip-path="url(#p0cead7d969)" style="fill: #22c55e; stroke: #22c55e; stroke-linejoin: miter"/>
   </g>
   <g id="patch_12">
    <path d="M 168.388437 137.054026 
L 178.468438 137.054026 
Q 178.756438 137.054026 178.756438 136.812428 
L 178.756438 127.543151 
Q 178.756438 127.301553 178.468438 127.301553 
L 168.388437 127.301553 
Q 168.100437 127.301553 168.100437 127.543151 
L 168.100437 136.812428 
Q 168.100437 137.054026 168.388437 137.054026 
z
" clip-path="url(#p0cead7d969)" style="fill: #22c55e; stroke: #22c55e; stroke-linejoin: miter"/>
   </g>
   <g id="patch_13">
    <path d="M 182.788437 124.549408 
L 192.868437 124.549408 
Q 193.156438 124.549408 193.156438 124.30781 
L 193.156438 119.157678 
Q 193.156438 118.91608 192.868437 118.91608 
L 182.788437 118.91608 
Q 182.500438 118.91608 182.500438 119.157678 
L 182.500438 124.30781 
Q 182.500438 124.549408 182.788437 124.549408 
z
" clip-path="url(#p0cead7d969)" style="fill: #22c55e; stroke: #22c55e; stroke-linejoin: miter"/>
   </g>
   <g id="patch_14">
    <path d="M 197.188437 102.270148 
L 207.268438 102.270148 
Q 207.556438 102.270148 207.556438 102.02855 
L 207.556438 95.126274 
Q 207.556438 94.884677 207.268438 94.884677 
L 197.188437 94.884677 
Q 196.900438 94.884677 196.900438 95.126274 
L 196.900438 102.02855 
Q 196.900438 102.270148 197.188437 102.270148 
z
" clip-path="url(#p0cead7d969)" style="fill: #22c55e; stroke: #22c55e; stroke-linejoin: miter"/>
   </g>
   <g id="patch_15">
    <path d="M 211.588437 124.211232 
L 221.668438 124.211232 
Q 221.956437 124.211232 221.956437 123.969634 
L 221.956437 107.786367 
Q 221.956437 107.54477 221.668438 107.54477 
L 211.588437 107.54477 
Q 211.300438 107.54477 211.300438 107.786367 
L 211.300438 123.969634 
Q 211.300438 124.211232 211.588437 124.211232 
z
" clip-path="url(#p0cead7d969)" style="fill: #22c55e; stroke: #22c55e; stroke-linejoin: miter"/>
   </g>
   <g id="patch_16">
    <path d="M 225.988438 161.816759 
L 236.068438 161.816759 
Q 236.356437 161.816759 236.356437 161.575162 
L 236.356437 142.206798 
Q 236.356437 141.9652 236.068438 141.9652 
L 225.988438 141.9652 
Q 225.700437 141.9652 225.700437 142.206798 
L 225.700437 161.575162 
Q 225.700437 161.816759 225.988438 161.816759 
z
" clip-path="url(#p0cead7d969)" style="fill: #22c55e; stroke: #22c55e; stroke-linejoin: miter"/>
   </g>
   <g id="patch_17">
    <path d="M 240.388437 141.708333 
L 250.468437 141.708333 
Q 250.756438 141.708333 250.756438 141.466736 
L 250.756438 122.992175 
Q 250.756438 122.750577 250.468437 122.750577 
L 240.388437 122.750577 
Q 240.100437 122.750577 240.100437 122.992175 
L 240.100437 141.466736 
Q 240.100437 141.708333 240.388437 141.708333 
z
" clip-path="url(#p0cead7d969)" style="fill: #22c55e; stroke: #22c55e; stroke-linejoin: miter"/>
   </g>
   <g id="patch_18">
    <path d="M 254.788437 158.239605 
L 264.868437 158.239605 
Q 265.156437 158.239605 265.156437 157.998007 
L 265.156437 137.78555 
Q 265.156437 137.543953 264.868437 137.543953 
L 254.788437 137.543953 
Q 254.500438 137.543953 254.500438 137.78555 
L 254.500438 157.998007 
Q 254.500438 158.239605 254.788437 158.239605 
z
" clip-path="url(#p0cead7d969)" style="fill: #22c55e; stroke: #22c55e; stroke-linejoin: miter"/>
   </g>
   <g id="patch_19">
    <path d="M 269.188437 134.992205 
L 279.268438 134.992205 
Q 279.556437 134.992205 279.556437 134.750607 
L 279.556437 119.269428 
Q 279.556437 119.02783 279.268438 119.02783 
L 269.188437 119.02783 
Q 268.900438 119.02783 268.900438 119.269428 
L 268.900438 134.750607 
Q 268.900438 134.992205 269.188437 134.992205 
z
" clip-path="url(#p0cead7d969)" style="fill: #ef4444; stroke: #ef4444; stroke-linejoin: miter"/>
   </g>
   <g id="patch_20">
    <path d="M 283.588437 128.738116 
L 293.668437 128.738116 
Q 293.956437 128.738116 293.956437 128.496518 
L 293.956437 106.88502 
Q 293.956437 106.643422 293.668437 106.643422 
L 283.588437 106.643422 
Q 283.300437 106.643422 283.300437 106.88502 
L 283.300437 128.496518 
Q 283.300437 128.738116 283.588437 128.738116 
z
" clip-path="url(#p0cead7d969)" style="fill: #22c55e; stroke: #22c55e; stroke-linejoin: miter"/>
   </g>
   <g id="patch_21">
    <path d="M 297.988437 105.52597 
L 308.068437 105.52597 
Q 308.356437 105.52597 308.356437 105.284373 
L 308.356437 81.642122 
Q 308.356437 81.400524 308.068437 81.400524 
L 297.988437 81.400524 
Q 297.700437 81.400524 297.700437 81.642122 
L 297.700437 105.284373 
Q 297.700437 105.52597 297.988437 105.52597 
z
" clip-path="url(#p0cead7d969)" style="fill: #ef4444; stroke: #ef4444; stroke-linejoin: miter"/>
   </g>
   <g id="patch_22">
    <path d="M 312.388437 93.829343 
L 322.468437 93.829343 
Q 322.756437 93.829343 322.756437 93.587746 
L 322.756437 87.340552 
Q 322.756437 87.098955 322.468437 87.098955 
L 312.388437 87.098955 
Q 312.100437 87.098955 312.100437 87.340552 
L 312.100437 93.587746 
Q 312.100437 93.829343 312.388437 93.829343 
z
" clip-path="url(#p0cead7d969)" style="fill: #22c55e; stroke: #22c55e; stroke-linejoin: miter"/>
   </g>
   <g id="patch_23">
    <path d="M 326.788437 87.716186 
L 336.868437 87.716186 
Q 337.156437 87.716186 337.156437 87.474588 
L 337.156437 67.965668 
Q 337.156437 67.72407 336.868437 67.72407 
L 326.788437 67.72407 
Q 326.500437 67.72407 326.500437 67.965668 
L 326.500437 87.474588 
Q 326.500437 87.716186 326.788437 87.716186 
z
" clip-path="url(#p0cead7d969)" style="fill: #22c55e; stroke: #22c55e; stroke-linejoin: miter"/>
   </g>
   <g id="patch_24">
    <path d="M 341.188437 74.110129 
L 351.268437 74.110129 
Q 351.556437 74.110129 351.556437 73.868531 
L 351.556437 64.471533 
Q 351.556437 64.229936 351.268437 64.229936 
L 341.188437 64.229936 
Q 340.900437 64.229936 340.900437 64.471533 
L 340.900437 73.868531 
Q 340.900437 74.110129 341.188437 74.110129 
z
" clip-path="url(#p0cead7d969)" style="fill: #ef4444; stroke: #ef4444; stroke-linejoin: miter"/>
   </g>
   <g id="patch_25">
    <path d="M 355.588437 88.491383 
L 365.668437 88.491383 
Q 365.956437 88.491383 365.956437 88.249786 
L 365.956437 67.199567 
Q 365.956437 66.957969 365.668437 66.957969 
L 355.588437 66.957969 
Q 355.300437 66.957969 355.300437 67.199567 
L 355.300437 88.249786 
Q 355.300437 88.491383 355.588437 88.491383 
z
" clip-path="url(#p0cead7d969)" style="fill: #22c55e; stroke: #22c55e; stroke-linejoin: miter"/>
   </g>
   <g id="patch_26">
    <path d="M 369.988437 72.705661 
L 380.068437 72.705661 
Q 380.356437 72.705661 380.356437 72.464063 
L 380.356437 66.214444 
Q 380.356437 65.972846 380.068437 65.972846 
L 369.988437 65.972846 
Q 369.700437 65.972846 369.700437 66.214444 
L 369.700437 72.464063 
Q 369.700437 72.705661 369.988437 72.705661 
z
" clip-path="url(#p0cead7d969)" style="fill: #22c55e; stroke: #22c55e; stroke-linejoin: miter"/>
   </g>
   <g id="patch_27">
    <path d="M 384.388437 60.930843 
L 394.468437 60.930843 
Q 394.756437 60.930843 394.756437 60.689245 
L 394.756437 44.833134 
Q 394.756437 44.591536 394.468437 44.591536 
L 384.388437 44.591536 
Q 384.100437 44.591536 384.100437 44.833134 
L 384.100437 60.689245 
Q 384.100437 60.930843 384.388437 60.930843 
z
" clip-path="url(#p0cead7d969)" style="fill: #ef4444; stroke: #ef4444; stroke-linejoin: miter"/>
   </g>
   <g id="patch_28">
    <path d="M 398.788437 71.99509 
L 408.868437 71.99509 
Q 409.156437 71.99509 409.156437 71.753492 
L 409.156437 48.799568 
Q 409.156437 48.55797 408.868437 48.55797 
L 398.788437 48.55797 
Q 398.500437 48.55797 398.500437 48.799568 
L 398.500437 71.753492 
Q 398.500437 71.99509 398.788437 71.99509 
z
" clip-path="url(#p0cead7d969)" style="fill: #ef4444; stroke: #ef4444; stroke-linejoin: miter"/>
   </g>
   <g id="patch_29">
    <path d="M 413.188437 83.245279 
L 423.268437 83.245279 
Q 423.556437 83.245279 423.556437 83.003681 
L 423.556437 74.410476 
Q 423.556437 74.168878 423.268437 74.168878 
L 413.188437 74.168878 
Q 412.900437 74.168878 412.900437 74.410476 
L 412.900437 83.003681 
Q 412.900437 83.245279 413.188437 83.245279 
z
" clip-path="url(#p0cead7d969)" style="fill: #ef4444; stroke: #ef4444; stroke-linejoin: miter"/>
   </g>
   <g id="patch_30">
    <path d="M 427.588437 89.010337 
L 437.668437 89.010337 
Q 437.956437 89.010337 437.956437 88.76874 
L 437.956437 82.750633 
Q 437.956437 82.509036 437.668437 82.509036 
L 427.588437 82.509036 
Q 427.300437 82.509036 427.300437 82.750633 
L 427.300437 88.76874 
Q 427.300437 89.010337 427.588437 89.010337 
z
" clip-path="url(#p0cead7d969)" style="fill: #22c55e; stroke: #22c55e; stroke-linejoin: miter"/>
   </g>
   <g id="patch_31">
    <path d="M 441.988437 93.581107 
L 452.068437 93.581107 
Q 452.356437 93.581107 452.356437 93.339509 
L 452.356437 75.269233 
Q 452.356437 75.027635 452.068437 75.027635 
L 441.988437 75.027635 
Q 441.700437 75.027635 441.700437 75.269233 
L 441.700437 93.339509 
Q 441.700437 93.581107 441.988437 93.581107 
z
" clip-path="url(#p0cead7d969)" style="fill: #ef4444; stroke: #ef4444; stroke-linejoin: miter"/>
   </g>
   <g id="patch_32">
    <path d="M 456.388437 64.185429 
L 466.468437 64.185429 
Q 466.756437 64.185429 466.756437 63.943831 
L 466.756437 47.521925 
Q 466.756437 47.280328 466.468437 47.280328 
L 456.388437 47.280328 
Q 456.100437 47.280328 456.100437 47.521925 
L 456.100437 63.943831 
Q 456.100437 64.185429 456.388437 64.185429 
z
" clip-path="url(#p0cead7d969)" style="fill: #ef4444; stroke: #ef4444; stroke-linejoin: miter"/>
   </g>
   <g id="matplotlib.axis_1">
    <g id="xtick_1">
     <g id="line2d_1">
      <path d="M 43.828437 187.061852 
L 43.828437 24.798438 
" clip-path="url(#p0cead7d969)" style="fill: none; stroke: #374151; stroke-opacity: 0.1; stroke-width: 0.8; stroke-linecap: square"/>
     </g>
     <g id="line2d_2">
      <defs>
       <path id="m26ba48c161" d="M 0 0 
L 0 3.5 
" style="stroke: #4b5563; stroke-width: 0.8"/>
      </defs>
      <g>
       <use xlink:href="#m26ba48c161" x="43.828437" y="187.061852" style="fill: #4b5563; stroke: #4b5563; stroke-width: 0.8"/>
      </g>
     </g>
    </g>
    <g id="xtick_2">
     <g id="line2d_3">
      <path d="M 115.828438 187.061852 
L 115.828438 24.798438 
" clip-path="url(#p0cead7d969)" style="fill: none; stroke: #374151; stroke-opacity: 0.1; stroke-width: 0.8; stroke-linecap: square"/>
     </g>
     <g id="line2d_4">
      <g>
       <use xlink:href="#m26ba48c161" x="115.828438" y="187.061852" style="fill: #4b5563; stroke: #4b5563; stroke-width: 0.8"/>
      </g>
     </g>
    </g>
    <g id="xtick_3">
     <g id="line2d_5">
      <path d="M 187.828438 187.061852 
L 187.828438 24.798438 
" clip-path="url(#p0cead7d969)" style="fill: none; stroke: #374151; stroke-opacity: 0.1; stroke-width: 0.8; stroke-linecap: square"/>
     </g>
     <g id="line2d_6">
      <g>
       <use xlink:href="#m26ba48c161" x="187.828438" y="187.061852" style="fill: #4b5563; stroke: #4b5563; stroke-width: 0.8"/>
      </g>
     </g>
    </g>
    <g id="xtick_4">
     <g id="line2d_7">
      <path d="M 259.828437 187.061852 
L 259.828437 24.798438 
" clip-path="url(#p0cead7d969)" style="fill: none; stroke: #374151; stroke-opacity: 0.1; stroke-width: 0.8; stroke-linecap: square"/>
     </g>
     <g id="line2d_8">
      <g>
       <use xlink:href="#m26ba48c161" x="259.828437" y="187.061852" style="fill: #4b5563; stroke: #4b5563; stroke-width: 0.8"/>
      </g>
     </g>
    </g>
    <g id="xtick_5">
     <g id="line2d_9">
      <path d="M 331.828438 187.061852 
L 331.828438 24.798438 
" clip-path="url(#p0cead7d969)" style="fill: none; stroke: #374151; stroke-opacity: 0.1; stroke-width: 0.8; stroke-linecap: square"/>
     </g>
     <g id="line2d_10">
      <g>
       <use xlink:href="#m26ba48c161" x="331.828438" y="187.061852" style="fill: #4b5563; stroke: #4b5563; stroke-width: 0.8"/>
      </g>
     </g>
    </g>
    <g id="xtick_6">
     <g id="line2d_11">
      <path d="M 403.828437 187.061852 
L 403.828437 24.798438 
" clip-path="url(#p0cead7d969)" style="fill: none; stroke: #374151; stroke-opacity: 0.1; stroke-width: 0.8; stroke-linecap: square"/>
     </g>
     <g id="line2d_12">
      <g>
       <use xlink:href="#m26ba48c161" x="403.828437" y="187.061852" style="fill: #4b5563; stroke: #4b5563; stroke-width: 0.8"/>
      </g>
     </g>
    </g>
    <g id="xtick_7">
     <g id="line2d_13">
      <path d="M 475.828437 187.061852 
L 475.828437 24.798438 
" clip-path="url(#p0cead7d969)" style="fill: none; stroke: #374151; stroke-opacity: 0.1; stroke-width: 0.8; stroke-linecap: square"/>
     </g>
     <g id="line2d_14">
      <g>
       <use xlink:href="#m26ba48c161" x="475.828437" y="187.061852" style="fill: #4b5563; stroke: #4b5563; stroke-width: 0.8"/>
      </g>
     </g>
    </g>
   </g>
   <g id="matplotlib.axis_2">
    <g id="ytick_1">
     <g id="line2d_15">
      <path d="M 29.428438 185.572098 
L 475.828437 185.572098 
" clip-path="url(#p0cead7d969)" style="fill: none; stroke: #374151; stroke-opacity: 0.1; stroke-width: 0.8; stroke-linecap: square"/>
     </g>
     <g id="line2d_16">
      <defs>
       <path id="mcbbd721289" d="M 0 0 
L -3.5 0 
" style="stroke: #4b5563; stroke-width: 0.8"/>
      </defs>
      <g>
       <use xlink:href="#mcbbd721289" x="29.428438" y="185.572098" style="fill: #4b5563; stroke: #4b5563; stroke-width: 0.8"/>
      </g>
     </g>
     <g id="text_1">
      <!-- 94 -->
      <g style="fill: #4b5563" transform="translate(13.520938 188.231551) scale(0.07 -0.07)">
       <defs>
        <path id="DejaVuSans-39" d="M 703 97 
L 703 672 
Q 941 559 1184 500 
Q 1428 441 1663 441 
Q 2288 441 2617 861 
Q 2947 1281 2994 2138 
Q 2813 1869 2534 1725 
Q 2256 1581 1919 1581 
Q 1219 1581 811 2004 
Q 403 2428 403 3163 
Q 403 3881 828 4315 
Q 1253 4750 1959 4750 
Q 2769 4750 3195 4129 
Q 3622 3509 3622 2328 
Q 3622 1225 3098 567 
Q 2575 -91 1691 -91 
Q 1453 -91 1209 -44 
Q 966 3 703 97 
z
M 1959 2075 
Q 2384 2075 2632 2365 
Q 2881 2656 2881 3163 
Q 2881 3666 2632 3958 
Q 2384 4250 1959 4250 
Q 1534 4250 1286 3958 
Q 1038 3666 1038 3163 
Q 1038 2656 1286 2365 
Q 1534 2075 1959 2075 
z
" transform="scale(0.015625)"/>
        <path id="DejaVuSans-34" d="M 2419 4116 
L 825 1625 
L 2419 1625 
L 2419 4116 
z
M 2253 4666 
L 3047 4666 
L 3047 1625 
L 3713 1625 
L 3713 1100 
L 3047 1100 
L 3047 0 
L 2419 0 
L 2419 1100 
L 313 1100 
L 313 1709 
L 2253 4666 
z
" transform="scale(0.015625)"/>
       </defs>
       <use xlink:href="#DejaVuSans-39"/>
       <use xlink:href="#DejaVuSans-34" transform="translate(63.623047 0)"/>
      </g>
     </g>
    </g>
    <g id="ytick_2">
     <g id="line2d_17">
      <path d="M 29.428438 161.412314 
L 475.828437 161.412314 
" clip-path="url(#p0cead7d969)" style="fill: none; stroke: #374151; stroke-opacity: 0.1; stroke-width: 0.8; stroke-linecap: square"/>
     </g>
     <g id="line2d_18">
      <g>
       <use xlink:href="#mcbbd721289" x="29.428438" y="161.412314" style="fill: #4b5563; stroke: #4b5563; stroke-width: 0.8"/>
      </g>
     </g>
     <g id="text_2">
      <!-- 96 -->
      <g style="fill: #4b5563" transform="translate(13.520938 164.071768) scale(0.07 -0.07)">
       <defs>
        <path id="DejaVuSans-36" d="M 2113 2584 
Q 1688 2584 1439 2293 
Q 1191 2003 1191 1497 
Q 1191 994 1439 701 
Q 1688 409 2113 409 
Q 2538 409 2786 701 
Q 3034 994 3034 1497 
Q 3034 2003 2786 2293 
Q 2538 2584 2113 2584 
z
M 3366 4563 
L 3366 3988 
Q 3128 4100 2886 4159 
Q 2644 4219 2406 4219 
Q 1781 4219 1451 3797 
Q 1122 3375 1075 2522 
Q 1259 2794 1537 2939 
Q 1816 3084 2150 3084 
Q 2853 3084 3261 2657 
Q 3669 2231 3669 1497 
Q 3669 778 3244 343 
Q 2819 -91 2113 -91 
Q 1303 -91 875 529 
Q 447 1150 447 2328 
Q 447 3434 972 4092 
Q 1497 4750 2381 4750 
Q 2619 4750 2861 4703 
Q 3103 4656 3366 4563 
z
" transform="scale(0.015625)"/>
       </defs>
       <use xlink:href="#DejaVuSans-39"/>
       <use xlink:href="#DejaVuSans-36" transform="translate(63.623047 0)"/>
      </g>
     </g>
    </g>
    <g id="ytick_3">
     <g id="line2d_19">
      <path d="M 29.428438 137.252531 
L 475.828437 137.252531 
" clip-path="url(#p0cead7d969)" style="fill: none; stroke: #374151; stroke-opacity: 0.1; stroke-width: 0.8; stroke-linecap: square"/>
     </g>
     <g id="line2d_20">
      <g>
       <use xlink:href="#mcbbd721289" x="29.428438" y="137.252531" style="fill: #4b5563; stroke: #4b5563; stroke-width: 0.8"/>
      </g>
     </g>
     <g id="text_3">
      <!-- 98 -->
      <g style="fill: #4b5563" transform="translate(13.520938 139.911985) scale(0.07 -0.07)">
       <defs>
        <path id="DejaVuSans-38" d="M 2034 2216 
Q 1584 2216 1326 1975 
Q 1069 1734 1069 1313 
Q 1069 891 1326 650 
Q 1584 409 2034 409 
Q 2484 409 2743 651 
Q 3003 894 3003 1313 
Q 3003 1734 2745 1975 
Q 2488 2216 2034 2216 
z
M 1403 2484 
Q 997 2584 770 2862 
Q 544 3141 544 3541 
Q 544 4100 942 4425 
Q 1341 4750 2034 4750 
Q 2731 4750 3128 4425 
Q 3525 4100 3525 3541 
Q 3525 3141 3298 2862 
Q 3072 2584 2669 2484 
Q 3125 2378 3379 2068 
Q 3634 1759 3634 1313 
Q 3634 634 3220 271 
Q 2806 -91 2034 -91 
Q 1263 -91 848 271 
Q 434 634 434 1313 
Q 434 1759 690 2068 
Q 947 2378 1403 2484 
z
M 1172 3481 
Q 1172 3119 1398 2916 
Q 1625 2713 2034 2713 
Q 2441 2713 2670 2916 
Q 2900 3119 2900 3481 
Q 2900 3844 2670 4047 
Q 2441 4250 2034 4250 
Q 1625 4250 1398 4047 
Q 1172 3844 1172 3481 
z
" transform="scale(0.015625)"/>
       </defs>
       <use xlink:href="#DejaVuSans-39"/>
       <use xlink:href="#DejaVuSans-38" transform="translate(63.623047 0)"/>
      </g>
     </g>
    </g>
    <g id="ytick_4">
     <g id="line2d_21">
      <path d="M 29.428438 113.092748 
L 475.828437 113.092748 
" clip-path="url(#p0cead7d969)" style="fill: none; stroke: #374151; stroke-opacity: 0.1; stroke-width: 0.8; stroke-linecap: square"/>
     </g>
     <g id="line2d_22">
      <g>
       <use xlink:href="#mcbbd721289" x="29.428438" y="113.092748" style="fill: #4b5563; stroke: #4b5563; stroke-width: 0.8"/>
      </g>
     </g>
     <g id="text_4">
      <!-- 100 -->
      <g style="fill: #4b5563" transform="translate(9.067187 115.752201) scale(0.07 -0.07)">
       <defs>
        <path id="DejaVuSans-31" d="M 794 531 
L 1825 531 
L 1825 4091 
L 703 3866 
L 703 4441 
L 1819 4666 
L 2450 4666 
L 2450 531 
L 3481 531 
L 3481 0 
L 794 0 
L 794 531 
z
" transform="scale(0.015625)"/>
        <path id="DejaVuSans-30" d="M 2034 4250 
Q 1547 4250 1301 3770 
Q 1056 3291 1056 2328 
Q 1056 1369 1301 889 
Q 1547 409 2034 409 
Q 2525 409 2770 889 
Q 3016 1369 3016 2328 
Q 3016 3291 2770 3770 
Q 2525 4250 2034 4250 
z
M 2034 4750 
Q 2819 4750 3233 4129 
Q 3647 3509 3647 2328 
Q 3647 1150 3233 529 
Q 2819 -91 2034 -91 
Q 1250 -91 836 529 
Q 422 1150 422 2328 
Q 422 3509 836 4129 
Q 1250 4750 2034 4750 
z
" transform="scale(0.015625)"/>
       </defs>
       <use xlink:href="#DejaVuSans-31"/>
       <use xlink:href="#DejaVuSans-30" transform="translate(63.623047 0)"/>
       <use xlink:href="#DejaVuSans-30" transform="translate(127.246094 0)"/>
      </g>
     </g>
    </g>
    <g id="ytick_5">
     <g id="line2d_23">
      <path d="M 29.428438 88.932965 
L 475.828437 88.932965 
" clip-path="url(#p0cead7d969)" style="fill: none; stroke: #374151; stroke-opacity: 0.1; stroke-width: 0.8; stroke-linecap: square"/>
     </g>
     <g id="line2d_24">
      <g>
       <use xlink:href="#mcbbd721289" x="29.428438" y="88.932965" style="fill: #4b5563; stroke: #4b5563; stroke-width: 0.8"/>
      </g>
     </g>
     <g id="text_5">
      <!-- 102 -->
      <g style="fill: #4b5563" transform="translate(9.067187 91.592418) scale(0.07 -0.07)">
       <defs>
        <path id="DejaVuSans-32" d="M 1228 531 
L 3431 531 
L 3431 0 
L 469 0 
L 469 531 
Q 828 903 1448 1529 
Q 2069 2156 2228 2338 
Q 2531 2678 2651 2914 
Q 2772 3150 2772 3378 
Q 2772 3750 2511 3984 
Q 2250 4219 1831 4219 
Q 1534 4219 1204 4116 
Q 875 4013 500 3803 
L 500 4441 
Q 881 4594 1212 4672 
Q 1544 4750 1819 4750 
Q 2544 4750 2975 4387 
Q 3406 4025 3406 3419 
Q 3406 3131 3298 2873 
Q 3191 2616 2906 2266 
Q 2828 2175 2409 1742 
Q 1991 1309 1228 531 
z
" transform="scale(0.015625)"/>
       </defs>
       <use xlink:href="#DejaVuSans-31"/>
       <use xlink:href="#DejaVuSans-30" transform="translate(63.623047 0)"/>
       <use xlink:href="#DejaVuSans-32" transform="translate(127.246094 0)"/>
      </g>
     </g>
    </g>
    <g id="ytick_6">
     <g id="line2d_25">
      <path d="M 29.428438 64.773182 
L 475.828437 64.773182 
" clip-path="url(#p0cead7d969)" style="fill: none; stroke: #374151; stroke-opacity: 0.1; stroke-width: 0.8; stroke-linecap: square"/>
     </g>
     <g id="line2d_26">
      <g>
       <use xlink:href="#mcbbd721289" x="29.428438" y="64.773182" style="fill: #4b5563; stroke: #4b5563; stroke-width: 0.8"/>
      </g>
     </g>
     <g id="text_6">
      <!-- 104 -->
      <g style="fill: #4b5563" transform="translate(9.067187 67.432635) scale(0.07 -0.07)">
       <use xlink:href="#DejaVuSans-31"/>
       <use xlink:href="#DejaVuSans-30" transform="translate(63.623047 0)"/>
       <use xlink:href="#DejaVuSans-34" transform="translate(127.246094 0)"/>
      </g>
     </g>
    </g>
    <g id="ytick_7">
     <g id="line2d_27">
      <path d="M 29.428438 40.613399 
L 475.828437 40.613399 
" clip-path="url(#p0cead7d969)" style="fill: none; stroke: #374151; stroke-opacity: 0.1; stroke-width: 0.8; stroke-linecap: square"/>
     </g>
     <g id="line2d_28">
      <g>
       <use xlink:href="#mcbbd721289" x="29.428438" y="40.613399" style="fill: #4b5563; stroke: #4b5563; stroke-width: 0.8"/>
      </g>
     </g>
     <g id="text_7">
      <!-- 106 -->
      <g style="fill: #4b5563" transform="translate(9.067187 43.272852) scale(0.07 -0.07)">
       <use xlink:href="#DejaVuSans-31"/>
       <use xlink:href="#DejaVuSans-30" transform="translate(63.623047 0)"/>
       <use xlink:href="#DejaVuSans-36" transform="translate(127.246094 0)"/>
      </g>
     </g>
    </g>
   </g>
   <g id="line2d_29">
    <path d="M 43.828437 128.585294 
L 43.828437 84.531799 
" clip-path="url(#p0cead7d969)" style="fill: none; stroke: #22c55e; stroke-width: 0.8; stroke-linecap: square"/>
   </g>
   <g id="line2d_30">
    <path d="M 58.228437 145.252648 
L 58.228437 117.101243 
" clip-path="url(#p0cead7d969)" style="fill: none; stroke: #22c55e; stroke-width: 0.8; stroke-linecap: square"/>
   </g>
   <g id="line2d_31">
    <path d="M 72.628437 153.806404 
L 72.628437 114.191225 
" clip-path="url(#p0cead7d969)" style="fill: none; stroke: #ef4444; stroke-width: 0.8; stroke-linecap: square"/>
   </g>
   <g id="line2d_32">
    <path d="M 87.028437 169.94962 
L 87.028437 138.0182 
" clip-path="url(#p0cead7d969)" style="fill: none; stroke: #22c55e; stroke-width: 0.8; stroke-linecap: square"/>
   </g>
   <g id="line2d_33">
    <path d="M 101.428438 150.602612 
L 101.428438 113.628805 
" clip-path="url(#p0cead7d969)" style="fill: none; stroke: #ef4444; stroke-width: 0.8; stroke-linecap: square"/>
   </g>
   <g id="line2d_34">
    <path d="M 115.828438 119.057897 
L 115.828438 85.295712 
" clip-path="url(#p0cead7d969)" style="fill: none; stroke: #ef4444; stroke-width: 0.8; stroke-linecap: square"/>
   </g>
   <g id="line2d_35">
    <path d="M 130.228437 119.310739 
L 130.228437 79.453238 
" clip-path="url(#p0cead7d969)" style="fill: none; stroke: #ef4444; stroke-width: 0.8; stroke-linecap: square"/>
   </g>
   <g id="line2d_36">
    <path d="M 144.628437 107.606373 
L 144.628437 65.826938 
" clip-path="url(#p0cead7d969)" style="fill: none; stroke: #ef4444; stroke-width: 0.8; stroke-linecap: square"/>
   </g>
   <g id="line2d_37">
    <path d="M 159.028437 113.328717 
L 159.028437 86.967278 
" clip-path="url(#p0cead7d969)" style="fill: none; stroke: #22c55e; stroke-width: 0.8; stroke-linecap: square"/>
   </g>
   <g id="line2d_38">
    <path d="M 173.428438 150.164468 
L 173.428438 115.961738 
" clip-path="url(#p0cead7d969)" style="fill: none; stroke: #22c55e; stroke-width: 0.8; stroke-linecap: square"/>
   </g>
   <g id="line2d_39">
    <path d="M 187.828438 129.964201 
L 187.828438 113.848327 
" clip-path="url(#p0cead7d969)" style="fill: none; stroke: #22c55e; stroke-width: 0.8; stroke-linecap: square"/>
   </g>
   <g id="line2d_40">
    <path d="M 202.228437 105.617103 
L 202.228437 85.627753 
" clip-path="url(#p0cead7d969)" style="fill: none; stroke: #22c55e; stroke-width: 0.8; stroke-linecap: square"/>
   </g>
   <g id="line2d_41">
    <path d="M 216.628437 128.788821 
L 216.628437 95.526747 
" clip-path="url(#p0cead7d969)" style="fill: none; stroke: #22c55e; stroke-width: 0.8; stroke-linecap: square"/>
   </g>
   <g id="line2d_42">
    <path d="M 231.028437 179.686242 
L 231.028437 131.768583 
" clip-path="url(#p0cead7d969)" style="fill: none; stroke: #22c55e; stroke-width: 0.8; stroke-linecap: square"/>
   </g>
   <g id="line2d_43">
    <path d="M 245.428437 157.639556 
L 245.428437 116.956002 
" clip-path="url(#p0cead7d969)" style="fill: none; stroke: #22c55e; stroke-width: 0.8; stroke-linecap: square"/>
   </g>
   <g id="line2d_44">
    <path d="M 259.828437 165.339237 
L 259.828437 123.426147 
" clip-path="url(#p0cead7d969)" style="fill: none; stroke: #22c55e; stroke-width: 0.8; stroke-linecap: square"/>
   </g>
   <g id="line2d_45">
    <path d="M 274.228437 148.36171 
L 274.228437 101.98189 
" clip-path="url(#p0cead7d969)" style="fill: none; stroke: #ef4444; stroke-width: 0.8; stroke-linecap: square"/>
   </g>
   <g id="line2d_46">
    <path d="M 288.628437 130.295501 
L 288.628437 104.664917 
" clip-path="url(#p0cead7d969)" style="fill: none; stroke: #22c55e; stroke-width: 0.8; stroke-linecap: square"/>
   </g>
   <g id="line2d_47">
    <path d="M 303.028437 114.351639 
L 303.028437 66.346976 
" clip-path="url(#p0cead7d969)" style="fill: none; stroke: #ef4444; stroke-width: 0.8; stroke-linecap: square"/>
   </g>
   <g id="line2d_48">
    <path d="M 317.428437 108.604079 
L 317.428437 78.040595 
" clip-path="url(#p0cead7d969)" style="fill: none; stroke: #22c55e; stroke-width: 0.8; stroke-linecap: square"/>
   </g>
   <g id="line2d_49">
    <path d="M 331.828438 89.411628 
L 331.828438 64.582949 
" clip-path="url(#p0cead7d969)" style="fill: none; stroke: #22c55e; stroke-width: 0.8; stroke-linecap: square"/>
   </g>
   <g id="line2d_50">
    <path d="M 346.228437 90.733581 
L 346.228437 53.318526 
" clip-path="url(#p0cead7d969)" style="fill: none; stroke: #ef4444; stroke-width: 0.8; stroke-linecap: square"/>
   </g>
   <g id="line2d_51">
    <path d="M 360.628437 104.349122 
L 360.628437 65.399991 
" clip-path="url(#p0cead7d969)" style="fill: none; stroke: #22c55e; stroke-width: 0.8; stroke-linecap: square"/>
   </g>
   <g id="line2d_52">
    <path d="M 375.028437 80.129192 
L 375.028437 60.866897 
" clip-path="url(#p0cead7d969)" style="fill: none; stroke: #22c55e; stroke-width: 0.8; stroke-linecap: square"/>
   </g>
   <g id="line2d_53">
    <path d="M 389.428437 73.548373 
L 389.428437 35.895212 
" clip-path="url(#p0cead7d969)" style="fill: none; stroke: #ef4444; stroke-width: 0.8; stroke-linecap: square"/>
   </g>
   <g id="line2d_54">
    <path d="M 403.828437 86.550011 
L 403.828437 42.579586 
" clip-path="url(#p0cead7d969)" style="fill: none; stroke: #ef4444; stroke-width: 0.8; stroke-linecap: square"/>
   </g>
   <g id="line2d_55">
    <path d="M 418.228437 91.87606 
L 418.228437 59.37798 
" clip-path="url(#p0cead7d969)" style="fill: none; stroke: #ef4444; stroke-width: 0.8; stroke-linecap: square"/>
   </g>
   <g id="line2d_56">
    <path d="M 432.628437 102.729168 
L 432.628437 69.760021 
" clip-path="url(#p0cead7d969)" style="fill: none; stroke: #22c55e; stroke-width: 0.8; stroke-linecap: square"/>
   </g>
   <g id="line2d_57">
    <path d="M 447.028437 105.328215 
L 447.028437 66.53042 
" clip-path="url(#p0cead7d969)" style="fill: none; stroke: #ef4444; stroke-width: 0.8; stroke-linecap: square"/>
   </g>
   <g id="line2d_58">
    <path d="M 461.428437 72.470493 
L 461.428437 32.174047 
" clip-path="url(#p0cead7d969)" style="fill: none; stroke: #ef4444; stroke-width: 0.8; stroke-linecap: square"/>
   </g>
   <g id="patch_33">
    <path d="M 29.428438 187.061852 
L 29.428438 24.798438 
" style="fill: none; stroke: #1f2937; stroke-width: 0.8; stroke-linejoin: miter; stroke-linecap: square"/>
   </g>
   <g id="patch_34">
    <path d="M 29.428438 187.061852 
L 475.828437 187.061852 
" style="fill: none; stroke: #1f2937; stroke-width: 0.8; stroke-linejoin: miter; stroke-linecap: square"/>
   </g>
   <g id="text_8">
    <!-- Rickshaw Man — GOOGL 1D -->
    <g style="fill: #ffffff" transform="translate(174.849531 14.798438) scale(0.1 -0.1)">
     <defs>
      <path id="DejaVuSans-Bold-52" d="M 2297 2597 
Q 2675 2597 2839 2737 
Q 3003 2878 3003 3200 
Q 3003 3519 2839 3656 
Q 2675 3794 2297 3794 
L 1791 3794 
L 1791 2597 
L 2297 2597 
z
M 1791 1766 
L 1791 0 
L 588 0 
L 588 4666 
L 2425 4666 
Q 3347 4666 3776 4356 
Q 4206 4047 4206 3378 
Q 4206 2916 3982 2619 
Q 3759 2322 3309 2181 
Q 3556 2125 3751 1926 
Q 3947 1728 4147 1325 
L 4800 0 
L 3519 0 
L 2950 1159 
Q 2778 1509 2601 1637 
Q 2425 1766 2131 1766 
L 1791 1766 
z
" transform="scale(0.015625)"/>
      <path id="DejaVuSans-Bold-69" d="M 538 3500 
L 1656 3500 
L 1656 0 
L 538 0 
L 538 3500 
z
M 538 4863 
L 1656 4863 
L 1656 3950 
L 538 3950 
L 538 4863 
z
" transform="scale(0.015625)"/>
      <path id="DejaVuSans-Bold-63" d="M 3366 3391 
L 3366 2478 
Q 3138 2634 2908 2709 
Q 2678 2784 2431 2784 
Q 1963 2784 1702 2511 
Q 1441 2238 1441 1747 
Q 1441 1256 1702 982 
Q 1963 709 2431 709 
Q 2694 709 2930 787 
Q 3166 866 3366 1019 
L 3366 103 
Q 3103 6 2833 -42 
Q 2563 -91 2291 -91 
Q 1344 -91 809 395 
Q 275 881 275 1747 
Q 275 2613 809 3098 
Q 1344 3584 2291 3584 
Q 2566 3584 2833 3536 
Q 3100 3488 3366 3391 
z
" transform="scale(0.015625)"/>
      <path id="DejaVuSans-Bold-6b" d="M 538 4863 
L 1656 4863 
L 1656 2216 
L 2944 3500 
L 4244 3500 
L 2534 1894 
L 4378 0 
L 3022 0 
L 1656 1459 
L 1656 0 
L 538 0 
L 538 4863 
z
" transform="scale(0.015625)"/>
      <path id="DejaVuSans-Bold-73" d="M 3272 3391 
L 3272 2541 
Q 2913 2691 2578 2766 
Q 2244 2841 1947 2841 
Q 1628 2841 1473 2761 
Q 1319 2681 1319 2516 
Q 1319 2381 1436 2309 
Q 1553 2238 1856 2203 
L 2053 2175 
Q 2913 2066 3209 1816 
Q 3506 1566 3506 1031 
Q 3506 472 3093 190 
Q 2681 -91 1863 -91 
Q 1516 -91 1145 -36 
Q 775 19 384 128 
L 384 978 
Q 719 816 1070 734 
Q 1422 653 1784 653 
Q 2113 653 2278 743 
Q 2444 834 2444 1013 
Q 2444 1163 2330 1236 
Q 2216 1309 1875 1350 
L 1678 1375 
Q 931 1469 631 1722 
Q 331 1975 331 2491 
Q 331 3047 712 3315 
Q 1094 3584 1881 3584 
Q 2191 3584 2531 3537 
Q 2872 3491 3272 3391 
z
" transform="scale(0.015625)"/>
      <path id="DejaVuSans-Bold-68" d="M 4056 2131 
L 4056 0 
L 2931 0 
L 2931 347 
L 2931 1625 
Q 2931 2084 2911 2256 
Q 2891 2428 2841 2509 
Q 2775 2619 2662 2680 
Q 2550 2741 2406 2741 
Q 2056 2741 1856 2470 
Q 1656 2200 1656 1722 
L 1656 0 
L 538 0 
L 538 4863 
L 1656 4863 
L 1656 2988 
Q 1909 3294 2193 3439 
Q 2478 3584 2822 3584 
Q 3428 3584 3742 3212 
Q 4056 2841 4056 2131 
z
" transform="scale(0.015625)"/>
      <path id="DejaVuSans-Bold-61" d="M 2106 1575 
Q 1756 1575 1579 1456 
Q 1403 1338 1403 1106 
Q 1403 894 1545 773 
Q 1688 653 1941 653 
Q 2256 653 2472 879 
Q 2688 1106 2688 1447 
L 2688 1575 
L 2106 1575 
z
M 3816 1997 
L 3816 0 
L 2688 0 
L 2688 519 
Q 2463 200 2181 54 
Q 1900 -91 1497 -91 
Q 953 -91 614 226 
Q 275 544 275 1050 
Q 275 1666 698 1953 
Q 1122 2241 2028 2241 
L 2688 2241 
L 2688 2328 
Q 2688 2594 2478 2717 
Q 2269 2841 1825 2841 
Q 1466 2841 1156 2769 
Q 847 2697 581 2553 
L 581 3406 
Q 941 3494 1303 3539 
Q 1666 3584 2028 3584 
Q 2975 3584 3395 3211 
Q 3816 2838 3816 1997 
z
" transform="scale(0.015625)"/>
      <path id="DejaVuSans-Bold-77" d="M 225 3500 
L 1313 3500 
L 1900 1088 
L 2491 3500 
L 3425 3500 
L 4013 1113 
L 4603 3500 
L 5691 3500 
L 4769 0 
L 3547 0 
L 2956 2406 
L 2369 0 
L 1147 0 
L 225 3500 
z
" transform="scale(0.015625)"/>
      <path id="DejaVuSans-Bold-20" transform="scale(0.015625)"/>
      <path id="DejaVuSans-Bold-4d" d="M 588 4666 
L 2119 4666 
L 3181 2169 
L 4250 4666 
L 5778 4666 
L 5778 0 
L 4641 0 
L 4641 3413 
L 3566 897 
L 2803 897 
L 1728 3413 
L 1728 0 
L 588 0 
L 588 4666 
z
" transform="scale(0.015625)"/>
      <path id="DejaVuSans-Bold-6e" d="M 4056 2131 
L 4056 0 
L 2931 0 
L 2931 347 
L 2931 1631 
Q 2931 2084 2911 2256 
Q 2891 2428 2841 2509 
Q 2775 2619 2662 2680 
Q 2550 2741 2406 2741 
Q 2056 2741 1856 2470 
Q 1656 2200 1656 1722 
L 1656 0 
L 538 0 
L 538 3500 
L 1656 3500 
L 1656 2988 
Q 1909 3294 2193 3439 
Q 2478 3584 2822 3584 
Q 3428 3584 3742 3212 
Q 4056 2841 4056 2131 
z
" transform="scale(0.015625)"/>
      <path id="DejaVuSans-Bold-2014" d="M 344 2156 
L 6056 2156 
L 6056 1350 
L 344 1350 
L 344 2156 
z
" transform="scale(0.015625)"/>
      <path id="DejaVuSans-Bold-47" d="M 4781 347 
Q 4331 128 3847 18 
Q 3363 -91 2847 -91 
Q 1681 -91 1000 561 
Q 319 1213 319 2328 
Q 319 3456 1012 4103 
Q 1706 4750 2913 4750 
Q 3378 4750 3804 4662 
Q 4231 4575 4609 4403 
L 4609 3438 
Q 4219 3659 3833 3768 
Q 3447 3878 3059 3878 
Q 2341 3878 1952 3476 
Q 1563 3075 1563 2328 
Q 1563 1588 1938 1184 
Q 2313 781 3003 781 
Q 3191 781 3352 804 
Q 3513 828 3641 878 
L 3641 1784 
L 2906 1784 
L 2906 2591 
L 4781 2591 
L 4781 347 
z
" transform="scale(0.015625)"/>
      <path id="DejaVuSans-Bold-4f" d="M 2719 3878 
Q 2169 3878 1866 3472 
Q 1563 3066 1563 2328 
Q 1563 1594 1866 1187 
Q 2169 781 2719 781 
Q 3272 781 3575 1187 
Q 3878 1594 3878 2328 
Q 3878 3066 3575 3472 
Q 3272 3878 2719 3878 
z
M 2719 4750 
Q 3844 4750 4481 4106 
Q 5119 3463 5119 2328 
Q 5119 1197 4481 553 
Q 3844 -91 2719 -91 
Q 1597 -91 958 553 
Q 319 1197 319 2328 
Q 319 3463 958 4106 
Q 1597 4750 2719 4750 
z
" transform="scale(0.015625)"/>
      <path id="DejaVuSans-Bold-4c" d="M 588 4666 
L 1791 4666 
L 1791 909 
L 3903 909 
L 3903 0 
L 588 0 
L 588 4666 
z
" transform="scale(0.015625)"/>
      <path id="DejaVuSans-Bold-31" d="M 750 831 
L 1813 831 
L 1813 3847 
L 722 3622 
L 722 4441 
L 1806 4666 
L 2950 4666 
L 2950 831 
L 4013 831 
L 4013 0 
L 750 0 
L 750 831 
z
" transform="scale(0.015625)"/>
      <path id="DejaVuSans-Bold-44" d="M 1791 3756 
L 1791 909 
L 2222 909 
Q 2959 909 3348 1275 
Q 3738 1641 3738 2338 
Q 3738 3031 3350 3393 
Q 2963 3756 2222 3756 
L 1791 3756 
z
M 588 4666 
L 1856 4666 
Q 2919 4666 3439 4514 
Q 3959 4363 4331 4000 
Q 4659 3684 4818 3271 
Q 4978 2859 4978 2338 
Q 4978 1809 4818 1395 
Q 4659 981 4331 666 
Q 3956 303 3431 151 
Q 2906 0 1856 0 
L 588 0 
L 588 4666 
z
" transform="scale(0.015625)"/>
     </defs>
     <use xlink:href="#DejaVuSans-Bold-52"/>
     <use xlink:href="#DejaVuSans-Bold-69" transform="translate(77.001953 0)"/>
     <use xlink:href="#DejaVuSans-Bold-63" transform="translate(111.279297 0)"/>
     <use xlink:href="#DejaVuSans-Bold-6b" transform="translate(170.556641 0)"/>
     <use xlink:href="#DejaVuSans-Bold-73" transform="translate(237.060547 0)"/>
     <use xlink:href="#DejaVuSans-Bold-68" transform="translate(296.582031 0)"/>
     <use xlink:href="#DejaVuSans-Bold-61" transform="translate(367.773438 0)"/>
     <use xlink:href="#DejaVuSans-Bold-77" transform="translate(435.253906 0)"/>
     <use xlink:href="#DejaVuSans-Bold-20" transform="translate(527.636719 0)"/>
     <use xlink:href="#DejaVuSans-Bold-4d" transform="translate(562.451172 0)"/>
     <use xlink:href="#DejaVuSans-Bold-61" transform="translate(661.962891 0)"/>
     <use xlink:href="#DejaVuSans-Bold-6e" transform="translate(729.443359 0)"/>
     <use xlink:href="#DejaVuSans-Bold-20" transform="translate(800.634766 0)"/>
     <use xlink:href="#DejaVuSans-Bold-2014" transform="translate(835.449219 0)"/>
     <use xlink:href="#DejaVuSans-Bold-20" transform="translate(935.449219 0)"/>
     <use xlink:href="#DejaVuSans-Bold-47" transform="translate(970.263672 0)"/>
     <use xlink:href="#DejaVuSans-Bold-4f" transform="translate(1052.34375 0)"/>
     <use xlink:href="#DejaVuSans-Bold-4f" transform="translate(1137.353516 0)"/>
     <use xlink:href="#DejaVuSans-Bold-47" transform="translate(1222.363281 0)"/>
     <use xlink:href="#DejaVuSans-Bold-4c" transform="translate(1304.443359 0)"/>
     <use xlink:href="#DejaVuSans-Bold-20" transform="translate(1368.164062 0)"/>
     <use xlink:href="#DejaVuSans-Bold-31" transform="translate(1402.978516 0)"/>
     <use xlink:href="#DejaVuSans-Bold-44" transform="translate(1472.558594 0)"/>
    </g>
   </g>
  </g>
  <g id="axes_2">
   <g id="patch_35">
    <path d="M 29.428438 246.558438 
L 475.828437 246.558438 
L 475.828437 192.470633 
L 29.428438 192.470633 
z
" style="fill: #0a0f1a"/>
   </g>
   <g id="patch_36">
    <path d="M 49.719347 246.558438 
L 59.284085 246.558438 
L 59.284085 208.545031 
L 49.719347 208.545031 
z
" clip-path="url(#p22a3314653)" style="fill: #22c55e; fill-opacity: 0.533333"/>
   </g>
   <g id="patch_37">
    <path d="M 63.383258 246.558438 
L 72.947997 246.558438 
L 72.947997 195.046242 
L 63.383258 195.046242 
z
" clip-path="url(#p22a3314653)" style="fill: #22c55e; fill-opacity: 0.533333"/>
   </g>
   <g id="patch_38">
    <path d="M 77.04717 246.558438 
L 86.611909 246.558438 
L 86.611909 230.148772 
L 77.04717 230.148772 
z
" clip-path="url(#p22a3314653)" style="fill: #ef4444; fill-opacity: 0.533333"/>
   </g>
   <g id="patch_39">
    <path d="M 90.711082 246.558438 
L 100.27582 246.558438 
L 100.27582 221.281413 
L 90.711082 221.281413 
z
" clip-path="url(#p22a3314653)" style="fill: #22c55e; fill-opacity: 0.533333"/>
   </g>
   <g id="patch_40">
    <path d="M 104.374994 246.558438 
L 113.939732 246.558438 
L 113.939732 207.996297 
L 104.374994 207.996297 
z
" clip-path="url(#p22a3314653)" style="fill: #ef4444; fill-opacity: 0.533333"/>
   </g>
   <g id="patch_41">
    <path d="M 118.038906 246.558438 
L 127.603644 246.558438 
L 127.603644 202.267213 
L 118.038906 202.267213 
z
" clip-path="url(#p22a3314653)" style="fill: #ef4444; fill-opacity: 0.533333"/>
   </g>
   <g id="patch_42">
    <path d="M 131.702818 246.558438 
L 141.267556 246.558438 
L 141.267556 196.364625 
L 131.702818 196.364625 
z
" clip-path="url(#p22a3314653)" style="fill: #ef4444; fill-opacity: 0.533333"/>
   </g>
   <g id="patch_43">
    <path d="M 145.36673 246.558438 
L 154.931468 246.558438 
L 154.931468 236.009104 
L 145.36673 236.009104 
z
" clip-path="url(#p22a3314653)" style="fill: #ef4444; fill-opacity: 0.533333"/>
   </g>
   <g id="patch_44">
    <path d="M 159.030641 246.558438 
L 168.59538 246.558438 
L 168.59538 218.06142 
L 159.030641 218.06142 
z
" clip-path="url(#p22a3314653)" style="fill: #22c55e; fill-opacity: 0.533333"/>
   </g>
   <g id="patch_45">
    <path d="M 172.694553 246.558438 
L 182.259291 246.558438 
L 182.259291 228.955923 
L 172.694553 228.955923 
z
" clip-path="url(#p22a3314653)" style="fill: #22c55e; fill-opacity: 0.533333"/>
   </g>
   <g id="patch_46">
    <path d="M 186.358465 246.558438 
L 195.923203 246.558438 
L 195.923203 232.002786 
L 186.358465 232.002786 
z
" clip-path="url(#p22a3314653)" style="fill: #22c55e; fill-opacity: 0.533333"/>
   </g>
   <g id="patch_47">
    <path d="M 200.022377 246.558438 
L 209.587115 246.558438 
L 209.587115 225.266286 
L 200.022377 225.266286 
z
" clip-path="url(#p22a3314653)" style="fill: #22c55e; fill-opacity: 0.533333"/>
   </g>
   <g id="patch_48">
    <path d="M 213.686289 246.558438 
L 223.251027 246.558438 
L 223.251027 216.780089 
L 213.686289 216.780089 
z
" clip-path="url(#p22a3314653)" style="fill: #22c55e; fill-opacity: 0.533333"/>
   </g>
   <g id="patch_49">
    <path d="M 227.350201 246.558438 
L 236.914939 246.558438 
L 236.914939 207.555372 
L 227.350201 207.555372 
z
" clip-path="url(#p22a3314653)" style="fill: #22c55e; fill-opacity: 0.533333"/>
   </g>
   <g id="patch_50">
    <path d="M 241.014112 246.558438 
L 250.578851 246.558438 
L 250.578851 219.696483 
L 241.014112 219.696483 
z
" clip-path="url(#p22a3314653)" style="fill: #22c55e; fill-opacity: 0.533333"/>
   </g>
   <g id="patch_51">
    <path d="M 254.678024 246.558438 
L 264.242763 246.558438 
L 264.242763 227.962679 
L 254.678024 227.962679 
z
" clip-path="url(#p22a3314653)" style="fill: #22c55e; fill-opacity: 0.533333"/>
   </g>
   <g id="patch_52">
    <path d="M 268.341936 246.558438 
L 277.906674 246.558438 
L 277.906674 214.698614 
L 268.341936 214.698614 
z
" clip-path="url(#p22a3314653)" style="fill: #ef4444; fill-opacity: 0.533333"/>
   </g>
   <g id="patch_53">
    <path d="M 282.005848 246.558438 
L 291.570586 246.558438 
L 291.570586 204.356813 
L 282.005848 204.356813 
z
" clip-path="url(#p22a3314653)" style="fill: #22c55e; fill-opacity: 0.533333"/>
   </g>
   <g id="patch_54">
    <path d="M 295.66976 246.558438 
L 305.234498 246.558438 
L 305.234498 225.158021 
L 295.66976 225.158021 
z
" clip-path="url(#p22a3314653)" style="fill: #ef4444; fill-opacity: 0.533333"/>
   </g>
   <g id="patch_55">
    <path d="M 309.333672 246.558438 
L 318.89841 246.558438 
L 318.89841 215.465509 
L 309.333672 215.465509 
z
" clip-path="url(#p22a3314653)" style="fill: #22c55e; fill-opacity: 0.533333"/>
   </g>
   <g id="patch_56">
    <path d="M 322.997584 246.558438 
L 332.562322 246.558438 
L 332.562322 195.387007 
L 322.997584 195.387007 
z
" clip-path="url(#p22a3314653)" style="fill: #22c55e; fill-opacity: 0.533333"/>
   </g>
   <g id="patch_57">
    <path d="M 336.661495 246.558438 
L 346.226234 246.558438 
L 346.226234 221.227499 
L 336.661495 221.227499 
z
" clip-path="url(#p22a3314653)" style="fill: #ef4444; fill-opacity: 0.533333"/>
   </g>
   <g id="patch_58">
    <path d="M 350.325407 246.558438 
L 359.890145 246.558438 
L 359.890145 229.109458 
L 350.325407 229.109458 
z
" clip-path="url(#p22a3314653)" style="fill: #22c55e; fill-opacity: 0.533333"/>
   </g>
   <g id="patch_59">
    <path d="M 363.989319 246.558438 
L 373.554057 246.558438 
L 373.554057 220.051981 
L 363.989319 220.051981 
z
" clip-path="url(#p22a3314653)" style="fill: #22c55e; fill-opacity: 0.533333"/>
   </g>
   <g id="patch_60">
    <path d="M 377.653231 246.558438 
L 387.217969 246.558438 
L 387.217969 227.182911 
L 377.653231 227.182911 
z
" clip-path="url(#p22a3314653)" style="fill: #ef4444; fill-opacity: 0.533333"/>
   </g>
   <g id="patch_61">
    <path d="M 391.317143 246.558438 
L 400.881881 246.558438 
L 400.881881 230.88085 
L 391.317143 230.88085 
z
" clip-path="url(#p22a3314653)" style="fill: #ef4444; fill-opacity: 0.533333"/>
   </g>
   <g id="patch_62">
    <path d="M 404.981055 246.558438 
L 414.545793 246.558438 
L 414.545793 229.605597 
L 404.981055 229.605597 
z
" clip-path="url(#p22a3314653)" style="fill: #ef4444; fill-opacity: 0.533333"/>
   </g>
   <g id="patch_63">
    <path d="M 418.644966 246.558438 
L 428.209705 246.558438 
L 428.209705 231.078813 
L 418.644966 231.078813 
z
" clip-path="url(#p22a3314653)" style="fill: #22c55e; fill-opacity: 0.533333"/>
   </g>
   <g id="patch_64">
    <path d="M 432.308878 246.558438 
L 441.873617 246.558438 
L 441.873617 196.19032 
L 432.308878 196.19032 
z
" clip-path="url(#p22a3314653)" style="fill: #ef4444; fill-opacity: 0.533333"/>
   </g>
   <g id="patch_65">
    <path d="M 445.97279 246.558438 
L 455.537528 246.558438 
L 455.537528 222.421501 
L 445.97279 222.421501 
z
" clip-path="url(#p22a3314653)" style="fill: #ef4444; fill-opacity: 0.533333"/>
   </g>
   <g id="matplotlib.axis_3">
    <g id="xtick_8">
     <g id="line2d_59">
      <path d="M 54.501716 246.558438 
L 54.501716 192.470633 
" clip-path="url(#p22a3314653)" style="fill: none; stroke: #374151; stroke-opacity: 0.1; stroke-width: 0.8; stroke-linecap: square"/>
     </g>
     <g id="line2d_60">
      <g>
       <use xlink:href="#m26ba48c161" x="54.501716" y="246.558438" style="fill: #4b5563; stroke: #4b5563; stroke-width: 0.8"/>
      </g>
     </g>
     <g id="text_9">
      <!-- 0 -->
      <g style="fill: #4b5563" transform="translate(52.274841 258.877344) scale(0.07 -0.07)">
       <use xlink:href="#DejaVuSans-30"/>
      </g>
     </g>
    </g>
    <g id="xtick_9">
     <g id="line2d_61">
      <path d="M 122.821275 246.558438 
L 122.821275 192.470633 
" clip-path="url(#p22a3314653)" style="fill: none; stroke: #374151; stroke-opacity: 0.1; stroke-width: 0.8; stroke-linecap: square"/>
     </g>
     <g id="line2d_62">
      <g>
       <use xlink:href="#m26ba48c161" x="122.821275" y="246.558438" style="fill: #4b5563; stroke: #4b5563; stroke-width: 0.8"/>
      </g>
     </g>
     <g id="text_10">
      <!-- 5 -->
      <g style="fill: #4b5563" transform="translate(120.5944 258.877344) scale(0.07 -0.07)">
       <defs>
        <path id="DejaVuSans-35" d="M 691 4666 
L 3169 4666 
L 3169 4134 
L 1269 4134 
L 1269 2991 
Q 1406 3038 1543 3061 
Q 1681 3084 1819 3084 
Q 2600 3084 3056 2656 
Q 3513 2228 3513 1497 
Q 3513 744 3044 326 
Q 2575 -91 1722 -91 
Q 1428 -91 1123 -41 
Q 819 9 494 109 
L 494 744 
Q 775 591 1075 516 
Q 1375 441 1709 441 
Q 2250 441 2565 725 
Q 2881 1009 2881 1497 
Q 2881 1984 2565 2268 
Q 2250 2553 1709 2553 
Q 1456 2553 1204 2497 
Q 953 2441 691 2322 
L 691 4666 
z
" transform="scale(0.015625)"/>
       </defs>
       <use xlink:href="#DejaVuSans-35"/>
      </g>
     </g>
    </g>
    <g id="xtick_10">
     <g id="line2d_63">
      <path d="M 191.140834 246.558438 
L 191.140834 192.470633 
" clip-path="url(#p22a3314653)" style="fill: none; stroke: #374151; stroke-opacity: 0.1; stroke-width: 0.8; stroke-linecap: square"/>
     </g>
     <g id="line2d_64">
      <g>
       <use xlink:href="#m26ba48c161" x="191.140834" y="246.558438" style="fill: #4b5563; stroke: #4b5563; stroke-width: 0.8"/>
      </g>
     </g>
     <g id="text_11">
      <!-- 10 -->
      <g style="fill: #4b5563" transform="translate(186.687084 258.877344) scale(0.07 -0.07)">
       <use xlink:href="#DejaVuSans-31"/>
       <use xlink:href="#DejaVuSans-30" transform="translate(63.623047 0)"/>
      </g>
     </g>
    </g>
    <g id="xtick_11">
     <g id="line2d_65">
      <path d="M 259.460393 246.558438 
L 259.460393 192.470633 
" clip-path="url(#p22a3314653)" style="fill: none; stroke: #374151; stroke-opacity: 0.1; stroke-width: 0.8; stroke-linecap: square"/>
     </g>
     <g id="line2d_66">
      <g>
       <use xlink:href="#m26ba48c161" x="259.460393" y="246.558438" style="fill: #4b5563; stroke: #4b5563; stroke-width: 0.8"/>
      </g>
     </g>
     <g id="text_12">
      <!-- 15 -->
      <g style="fill: #4b5563" transform="translate(255.006643 258.877344) scale(0.07 -0.07)">
       <use xlink:href="#DejaVuSans-31"/>
       <use xlink:href="#DejaVuSans-35" transform="translate(63.623047 0)"/>
      </g>
     </g>
    </g>
    <g id="xtick_12">
     <g id="line2d_67">
      <path d="M 327.779953 246.558438 
L 327.779953 192.470633 
" clip-path="url(#p22a3314653)" style="fill: none; stroke: #374151; stroke-opacity: 0.1; stroke-width: 0.8; stroke-linecap: square"/>
     </g>
     <g id="line2d_68">
      <g>
       <use xlink:href="#m26ba48c161" x="327.779953" y="246.558438" style="fill: #4b5563; stroke: #4b5563; stroke-width: 0.8"/>
      </g>
     </g>
     <g id="text_13">
      <!-- 20 -->
      <g style="fill: #4b5563" transform="translate(323.326203 258.877344) scale(0.07 -0.07)">
       <use xlink:href="#DejaVuSans-32"/>
       <use xlink:href="#DejaVuSans-30" transform="translate(63.623047 0)"/>
      </g>
     </g>
    </g>
    <g id="xtick_13">
     <g id="line2d_69">
      <path d="M 396.099512 246.558438 
L 396.099512 192.470633 
" clip-path="url(#p22a3314653)" style="fill: none; stroke: #374151; stroke-opacity: 0.1; stroke-width: 0.8; stroke-linecap: square"/>
     </g>
     <g id="line2d_70">
      <g>
       <use xlink:href="#m26ba48c161" x="396.099512" y="246.558438" style="fill: #4b5563; stroke: #4b5563; stroke-width: 0.8"/>
      </g>
     </g>
     <g id="text_14">
      <!-- 25 -->
      <g style="fill: #4b5563" transform="translate(391.645762 258.877344) scale(0.07 -0.07)">
       <use xlink:href="#DejaVuSans-32"/>
       <use xlink:href="#DejaVuSans-35" transform="translate(63.623047 0)"/>
      </g>
     </g>
    </g>
    <g id="xtick_14">
     <g id="line2d_71">
      <path d="M 464.419071 246.558438 
L 464.419071 192.470633 
" clip-path="url(#p22a3314653)" style="fill: none; stroke: #374151; stroke-opacity: 0.1; stroke-width: 0.8; stroke-linecap: square"/>
     </g>
     <g id="line2d_72">
      <g>
       <use xlink:href="#m26ba48c161" x="464.419071" y="246.558438" style="fill: #4b5563; stroke: #4b5563; stroke-width: 0.8"/>
      </g>
     </g>
     <g id="text_15">
      <!-- 30 -->
      <g style="fill: #4b5563" transform="translate(459.965321 258.877344) scale(0.07 -0.07)">
       <defs>
        <path id="DejaVuSans-33" d="M 2597 2516 
Q 3050 2419 3304 2112 
Q 3559 1806 3559 1356 
Q 3559 666 3084 287 
Q 2609 -91 1734 -91 
Q 1441 -91 1130 -33 
Q 819 25 488 141 
L 488 750 
Q 750 597 1062 519 
Q 1375 441 1716 441 
Q 2309 441 2620 675 
Q 2931 909 2931 1356 
Q 2931 1769 2642 2001 
Q 2353 2234 1838 2234 
L 1294 2234 
L 1294 2753 
L 1863 2753 
Q 2328 2753 2575 2939 
Q 2822 3125 2822 3475 
Q 2822 3834 2567 4026 
Q 2313 4219 1838 4219 
Q 1578 4219 1281 4162 
Q 984 4106 628 3988 
L 628 4550 
Q 988 4650 1302 4700 
Q 1616 4750 1894 4750 
Q 2613 4750 3031 4423 
Q 3450 4097 3450 3541 
Q 3450 3153 3228 2886 
Q 3006 2619 2597 2516 
z
" transform="scale(0.015625)"/>
       </defs>
       <use xlink:href="#DejaVuSans-33"/>
       <use xlink:href="#DejaVuSans-30" transform="translate(63.623047 0)"/>
      </g>
     </g>
    </g>
   </g>
   <g id="matplotlib.axis_4">
    <g id="ytick_8">
     <g id="line2d_73">
      <path d="M 29.428438 246.558438 
L 475.828437 246.558438 
" clip-path="url(#p22a3314653)" style="fill: none; stroke: #374151; stroke-opacity: 0.1; stroke-width: 0.8; stroke-linecap: square"/>
     </g>
     <g id="line2d_74">
      <g>
       <use xlink:href="#mcbbd721289" x="29.428438" y="246.558438" style="fill: #4b5563; stroke: #4b5563; stroke-width: 0.8"/>
      </g>
     </g>
     <g id="text_16">
      <!-- 0 -->
      <g style="fill: #4b5563" transform="translate(17.974688 249.217891) scale(0.07 -0.07)">
       <use xlink:href="#DejaVuSans-30"/>
      </g>
     </g>
    </g>
    <g id="ytick_9">
     <g id="line2d_75">
      <path d="M 29.428438 225.778187 
L 475.828437 225.778187 
" clip-path="url(#p22a3314653)" style="fill: none; stroke: #374151; stroke-opacity: 0.1; stroke-width: 0.8; stroke-linecap: square"/>
     </g>
     <g id="line2d_76">
      <g>
       <use xlink:href="#mcbbd721289" x="29.428438" y="225.778187" style="fill: #4b5563; stroke: #4b5563; stroke-width: 0.8"/>
      </g>
     </g>
     <g id="text_17">
      <!-- 2 -->
      <g style="fill: #4b5563" transform="translate(17.974688 228.43764) scale(0.07 -0.07)">
       <use xlink:href="#DejaVuSans-32"/>
      </g>
     </g>
    </g>
    <g id="ytick_10">
     <g id="line2d_77">
      <path d="M 29.428438 204.997936 
L 475.828437 204.997936 
" clip-path="url(#p22a3314653)" style="fill: none; stroke: #374151; stroke-opacity: 0.1; stroke-width: 0.8; stroke-linecap: square"/>
     </g>
     <g id="line2d_78">
      <g>
       <use xlink:href="#mcbbd721289" x="29.428438" y="204.997936" style="fill: #4b5563; stroke: #4b5563; stroke-width: 0.8"/>
      </g>
     </g>
     <g id="text_18">
      <!-- 4 -->
      <g style="fill: #4b5563" transform="translate(17.974688 207.657389) scale(0.07 -0.07)">
       <use xlink:href="#DejaVuSans-34"/>
      </g>
     </g>
    </g>
    <g id="text_19">
     <!-- Vol -->
     <g style="fill: #4b5563" transform="translate(12.518906 224.75141) rotate(-90) scale(0.07 -0.07)">
      <defs>
       <path id="DejaVuSans-56" d="M 1831 0 
L 50 4666 
L 709 4666 
L 2188 738 
L 3669 4666 
L 4325 4666 
L 2547 0 
L 1831 0 
z
" transform="scale(0.015625)"/>
       <path id="DejaVuSans-6f" d="M 1959 3097 
Q 1497 3097 1228 2736 
Q 959 2375 959 1747 
Q 959 1119 1226 758 
Q 1494 397 1959 397 
Q 2419 397 2687 759 
Q 2956 1122 2956 1747 
Q 2956 2369 2687 2733 
Q 2419 3097 1959 3097 
z
M 1959 3584 
Q 2709 3584 3137 3096 
Q 3566 2609 3566 1747 
Q 3566 888 3137 398 
Q 2709 -91 1959 -91 
Q 1206 -91 779 398 
Q 353 888 353 1747 
Q 353 2609 779 3096 
Q 1206 3584 1959 3584 
z
" transform="scale(0.015625)"/>
       <path id="DejaVuSans-6c" d="M 603 4863 
L 1178 4863 
L 1178 0 
L 603 0 
L 603 4863 
z
" transform="scale(0.015625)"/>
      </defs>
      <use xlink:href="#DejaVuSans-56"/>
      <use xlink:href="#DejaVuSans-6f" transform="translate(60.658203 0)"/>
      <use xlink:href="#DejaVuSans-6c" transform="translate(121.839844 0)"/>
     </g>
    </g>
    <g id="text_20">
     <!-- 1e6 -->
     <g style="fill: #4b5563" transform="translate(29.428438 189.470633) scale(0.1 -0.1)">
      <defs>
       <path id="DejaVuSans-65" d="M 3597 1894 
L 3597 1613 
L 953 1613 
Q 991 1019 1311 708 
Q 1631 397 2203 397 
Q 2534 397 2845 478 
Q 3156 559 3463 722 
L 3463 178 
Q 3153 47 2828 -22 
Q 2503 -91 2169 -91 
Q 1331 -91 842 396 
Q 353 884 353 1716 
Q 353 2575 817 3079 
Q 1281 3584 2069 3584 
Q 2775 3584 3186 3129 
Q 3597 2675 3597 1894 
z
M 3022 2063 
Q 3016 2534 2758 2815 
Q 2500 3097 2075 3097 
Q 1594 3097 1305 2825 
Q 1016 2553 972 2059 
L 3022 2063 
z
" transform="scale(0.015625)"/>
      </defs>
      <use xlink:href="#DejaVuSans-31"/>
      <use xlink:href="#DejaVuSans-65" transform="translate(63.623047 0)"/>
      <use xlink:href="#DejaVuSans-36" transform="translate(125.146484 0)"/>
     </g>
    </g>
   </g>
   <g id="patch_66">
    <path d="M 29.428438 246.558438 
L 29.428438 192.470633 
" style="fill: none; stroke: #1f2937; stroke-width: 0.8; stroke-linejoin: miter; stroke-linecap: square"/>
   </g>
   <g id="patch_67">
    <path d="M 29.428438 246.558438 
L 475.828438 246.558438 
" style="fill: none; stroke: #1f2937; stroke-width: 0.8; stroke-linejoin: miter; stroke-linecap: square"/>
   </g>
  </g>
 </g>
 <defs>
  <clipPath id="p0cead7d969">
   <rect x="29.428438" y="24.798438" width="446.4" height="162.263415"/>
  </clipPath>
  <clipPath id="p22a3314653">
   <rect x="29.428438" y="192.470633" width="446.4" height="54.087805"/>
  </clipPath>
 </defs>
</svg>
