<?xml version="1.0" encoding="utf-8" standalone="no"?>
<!DOCTYPE svg PUBLIC "-//W3C//DTD SVG 1.1//EN"
  "http://www.w3.org/Graphics/SVG/1.1/DTD/svg11.dtd">
<svg xmlns:xlink="http://www.w3.org/1999/xlink" width="487.839687pt" height="267.533125pt" viewBox="0 0 487.839687 267.533125" xmlns="http://www.w3.org/2000/svg" version="1.1">
 <metadata>
  <rdf:RDF xmlns:dc="http://purl.org/dc/elements/1.1/" xmlns:cc="http://creativecommons.org/ns#" xmlns:rdf="http://www.w3.org/1999/02/22-rdf-syntax-ns#">
   <cc:Work>
    <dc:type rdf:resource="http://purl.org/dc/dcmitype/StillImage"/>
    <dc:date>2026-02-16T00:23:18.644296</dc:date>
    <dc:format>image/svg+xml</dc:format>
    <dc:creator>
     <cc:Agent>
      <dc:title>Matplotlib v3.10.8, https://matplotlib.org/</dc:title>
     </cc:Agent>
    </dc:creator>
   </cc:Work>
  </rdf:RDF>
 </metadata>
 <defs>
  <style type="text/css">*{stroke-linejoin: round; stroke-linecap: butt}</style>
 </defs>
 <g id="figure_1">
  <g id="patch_1">
   <path d="M 0 267.533125 
L 487.839687 267.533125 
L 487.839687 0 
L 0 0 
z
" style="fill: #0a0f1a"/>
  </g>
  <g id="axes_1">
   <g id="patch_2">
    <path d="M 34.239688 187.061852 
L 480.639687 187.061852 
L 480.639687 24.798438 
L 34.239688 24.798438 
z
" style="fill: #0a0f1a"/>
   </g>
   <g id="patch_3">
    <path d="M 43.599688 162.277675 
L 53.679688 162.277675 
Q 53.967687 162.277675 53.967687 162.114166 
L 53.967687 146.607095 
Q 53.967687 146.443586 53.679688 146.443586 
L 43.599688 146.443586 
Q 43.311688 146.443586 43.311688 146.607095 
L 43.311688 162.114166 
Q 43.311688 162.277675 43.599688 162.277675 
z
" clip-path="url(#pb3079d9f80)" style="fill: #22c55e; stroke: #22c55e; stroke-linejoin: miter"/>
   </g>
   <g id="patch_4">
    <path d="M 57.999688 161.969257 
L 68.079688 161.969257 
Q 68.367688 161.969257 68.367688 161.805748 
L 68.367688 154.834849 
Q 68.367688 154.67134 68.079688 154.67134 
L 57.999688 154.67134 
Q 57.711687 154.67134 57.711687 154.834849 
L 57.711687 161.805748 
Q 57.711687 161.969257 57.999688 161.969257 
z
" clip-path="url(#pb3079d9f80)" style="fill: #22c55e; stroke: #22c55e; stroke-linejoin: miter"/>
   </g>
   <g id="patch_5">
    <path d="M 72.399687 151.474177 
L 82.479687 151.474177 
Q 82.767687 151.474177 82.767687 151.310669 
L 82.767687 147.828074 
Q 82.767687 147.664565 82.479687 147.664565 
L 72.399687 147.664565 
Q 72.111688 147.664565 72.111688 147.828074 
L 72.111688 151.310669 
Q 72.111688 151.474177 72.399687 151.474177 
z
" clip-path="url(#pb3079d9f80)" style="fill: #ef4444; stroke: #ef4444; stroke-linejoin: miter"/>
   </g>
   <g id="patch_6">
    <path d="M 86.799688 148.156158 
L 96.879687 148.156158 
Q 97.167687 148.156158 97.167687 147.99265 
L 97.167687 139.5681 
Q 97.167687 139.404591 96.879687 139.404591 
L 86.799688 139.404591 
Q 86.511687 139.404591 86.511687 139.5681 
L 86.511687 147.99265 
Q 86.511687 148.156158 86.799688 148.156158 
z
" clip-path="url(#pb3079d9f80)" style="fill: #22c55e; stroke: #22c55e; stroke-linejoin: miter"/>
   </g>
   <g id="patch_7">
    <path d="M 101.199687 166.665984 
L 111.279687 166.665984 
Q 111.567688 166.665984 111.567688 166.502476 
L 111.567688 155.243943 
Q 111.567688 155.080434 111.279687 155.080434 
L 101.199687 155.080434 
Q 100.911687 155.080434 100.911687 155.243943 
L 100.911687 166.502476 
Q 100.911687 166.665984 101.199687 166.665984 
z
" clip-path="url(#pb3079d9f80)" style="fill: #22c55e; stroke: #22c55e; stroke-linejoin: miter"/>
   </g>
   <g id="patch_8">
    <path d="M 115.599687 160.863117 
L 125.679688 160.863117 
Q 125.967688 160.863117 125.967688 160.699608 
L 125.967688 151.689895 
Q 125.967688 151.526386 125.679688 151.526386 
L 115.599687 151.526386 
Q 115.311688 151.526386 115.311688 151.689895 
L 115.311688 160.699608 
Q 115.311688 160.863117 115.599687 160.863117 
z
" clip-path="url(#pb3079d9f80)" style="fill: #22c55e; stroke: #22c55e; stroke-linejoin: miter"/>
   </g>
   <g id="patch_9">
    <path d="M 129.999687 116.264969 
L 140.079688 116.264969 
Q 140.367688 116.264969 140.367688 116.10146 
L 140.367688 113.60608 
Q 140.367688 113.442571 140.079688 113.442571 
L 129.999687 113.442571 
Q 129.711688 113.442571 129.711688 113.60608 
L 129.711688 116.10146 
Q 129.711688 116.264969 129.999687 116.264969 
z
" clip-path="url(#pb3079d9f80)" style="fill: #ef4444; stroke: #ef4444; stroke-linejoin: miter"/>
   </g>
   <g id="patch_10">
    <path d="M 144.399687 132.483622 
L 154.479688 132.483622 
Q 154.767687 132.483622 154.767687 132.320113 
L 154.767687 122.567435 
Q 154.767687 122.403926 154.479688 122.403926 
L 144.399687 122.403926 
Q 144.111688 122.403926 144.111688 122.567435 
L 144.111688 132.320113 
Q 144.111688 132.483622 144.399687 132.483622 
z
" clip-path="url(#pb3079d9f80)" style="fill: #22c55e; stroke: #22c55e; stroke-linejoin: miter"/>
   </g>
   <g id="patch_11">
    <path d="M 158.799688 121.567738 
L 168.879688 121.567738 
Q 169.167687 121.567738 169.167687 121.40423 
L 169.167687 106.57912 
Q 169.167687 106.415611 168.879688 106.415611 
L 158.799688 106.415611 
Q 158.511687 106.415611 158.511687 106.57912 
L 158.511687 121.40423 
Q 158.511687 121.567738 158.799688 121.567738 
z
" clip-path="url(#pb3079d9f80)" style="fill: #22c55e; stroke: #22c55e; stroke-linejoin: miter"/>
   </g>
   <g id="patch_12">
    <path d="M 173.199687 124.205523 
L 183.279688 124.205523 
Q 183.567688 124.205523 183.567688 124.042014 
L 183.567688 115.643392 
Q 183.567688 115.479883 183.279688 115.479883 
L 173.199687 115.479883 
Q 172.911687 115.479883 172.911687 115.643392 
L 172.911687 124.042014 
Q 172.911687 124.205523 173.199687 124.205523 
z
" clip-path="url(#pb3079d9f80)" style="fill: #ef4444; stroke: #ef4444; stroke-linejoin: miter"/>
   </g>
   <g id="patch_13">
    <path d="M 187.599687 129.861466 
L 197.679688 129.861466 
Q 197.967688 129.861466 197.967688 129.697957 
L 197.967688 121.90926 
Q 197.967688 121.745751 197.679688 121.745751 
L 187.599687 121.745751 
Q 187.311688 121.745751 187.311688 121.90926 
L 187.311688 129.697957 
Q 187.311688 129.861466 187.599687 129.861466 
z
" clip-path="url(#pb3079d9f80)" style="fill: #22c55e; stroke: #22c55e; stroke-linejoin: miter"/>
   </g>
   <g id="patch_14">
    <path d="M 201.999687 133.532134 
L 212.079688 133.532134 
Q 212.367688 133.532134 212.367688 133.368625 
L 212.367688 119.507862 
Q 212.367688 119.344353 212.079688 119.344353 
L 201.999687 119.344353 
Q 201.711688 119.344353 201.711688 119.507862 
L 201.711688 133.368625 
Q 201.711688 133.532134 201.999687 133.532134 
z
" clip-path="url(#pb3079d9f80)" style="fill: #22c55e; stroke: #22c55e; stroke-linejoin: miter"/>
   </g>
   <g id="patch_15">
    <path d="M 216.399687 152.090691 
L 226.479688 152.090691 
Q 226.767687 152.090691 226.767687 151.927182 
L 226.767687 143.654002 
Q 226.767687 143.490493 226.479688 143.490493 
L 216.399687 143.490493 
Q 216.111688 143.490493 216.111688 143.654002 
L 216.111688 151.927182 
Q 216.111688 152.090691 216.399687 152.090691 
z
" clip-path="url(#pb3079d9f80)" style="fill: #ef4444; stroke: #ef4444; stroke-linejoin: miter"/>
   </g>
   <g id="patch_16">
    <path d="M 230.799688 152.270658 
L 240.879688 152.270658 
Q 241.167687 152.270658 241.167687 152.107149 
L 241.167687 144.832929 
Q 241.167687 144.66942 240.879688 144.66942 
L 230.799688 144.66942 
Q 230.511687 144.66942 230.511687 144.832929 
L 230.511687 152.107149 
Q 230.511687 152.270658 230.799688 152.270658 
z
" clip-path="url(#pb3079d9f80)" style="fill: #22c55e; stroke: #22c55e; stroke-linejoin: miter"/>
   </g>
   <g id="patch_17">
    <path d="M 245.199687 157.619434 
L 255.279687 157.619434 
Q 255.567688 157.619434 255.567688 157.455925 
L 255.567688 153.760823 
Q 255.567688 153.597314 255.279687 153.597314 
L 245.199687 153.597314 
Q 244.911687 153.597314 244.911687 153.760823 
L 244.911687 157.455925 
Q 244.911687 157.619434 245.199687 157.619434 
z
" clip-path="url(#pb3079d9f80)" style="fill: #ef4444; stroke: #ef4444; stroke-linejoin: miter"/>
   </g>
   <g id="patch_18">
    <path d="M 259.599687 173.300399 
L 269.679688 173.300399 
Q 269.967688 173.300399 269.967688 173.13689 
L 269.967688 157.856011 
Q 269.967688 157.692502 269.679688 157.692502 
L 259.599687 157.692502 
Q 259.311688 157.692502 259.311688 157.856011 
L 259.311688 173.13689 
Q 259.311688 173.300399 259.599687 173.300399 
z
" clip-path="url(#pb3079d9f80)" style="fill: #22c55e; stroke: #22c55e; stroke-linejoin: miter"/>
   </g>
   <g id="patch_19">
    <path d="M 273.999687 152.937472 
L 284.079687 152.937472 
Q 284.367687 152.937472 284.367687 152.773964 
L 284.367687 140.029524 
Q 284.367687 139.866015 284.079687 139.866015 
L 273.999687 139.866015 
Q 273.711687 139.866015 273.711687 140.029524 
L 273.711687 152.773964 
Q 273.711687 152.937472 273.999687 152.937472 
z
" clip-path="url(#pb3079d9f80)" style="fill: #22c55e; stroke: #22c55e; stroke-linejoin: miter"/>
   </g>
   <g id="patch_20">
    <path d="M 288.399687 143.644973 
L 298.479687 143.644973 
Q 298.767687 143.644973 298.767687 143.481464 
L 298.767687 132.693935 
Q 298.767687 132.530427 298.479687 132.530427 
L 288.399687 132.530427 
Q 288.111687 132.530427 288.111687 132.693935 
L 288.111687 143.481464 
Q 288.111687 143.644973 288.399687 143.644973 
z
" clip-path="url(#pb3079d9f80)" style="fill: #22c55e; stroke: #22c55e; stroke-linejoin: miter"/>
   </g>
   <g id="patch_21">
    <path d="M 302.799687 125.824056 
L 312.879687 125.824056 
Q 313.167687 125.824056 313.167687 125.660547 
L 313.167687 119.165872 
Q 313.167687 119.002363 312.879687 119.002363 
L 302.799687 119.002363 
Q 302.511687 119.002363 302.511687 119.165872 
L 302.511687 125.660547 
Q 302.511687 125.824056 302.799687 125.824056 
z
" clip-path="url(#pb3079d9f80)" style="fill: #22c55e; stroke: #22c55e; stroke-linejoin: miter"/>
   </g>
   <g id="patch_22">
    <path d="M 317.199687 118.7587 
L 327.279687 118.7587 
Q 327.567687 118.7587 327.567687 118.595191 
L 327.567687 106.490772 
Q 327.567687 106.327263 327.279687 106.327263 
L 317.199687 106.327263 
Q 316.911687 106.327263 316.911687 106.490772 
L 316.911687 118.595191 
Q 316.911687 118.7587 317.199687 118.7587 
z
" clip-path="url(#pb3079d9f80)" style="fill: #ef4444; stroke: #ef4444; stroke-linejoin: miter"/>
   </g>
   <g id="patch_23">
    <path d="M 331.599687 106.204408 
L 341.679687 106.204408 
Q 341.967687 106.204408 341.967687 106.040899 
L 341.967687 103.083648 
Q 341.967687 102.920139 341.679687 102.920139 
L 331.599687 102.920139 
Q 331.311687 102.920139 331.311687 103.083648 
L 331.311687 106.040899 
Q 331.311687 106.204408 331.599687 106.204408 
z
" clip-path="url(#pb3079d9f80)" style="fill: #22c55e; stroke: #22c55e; stroke-linejoin: miter"/>
   </g>
   <g id="patch_24">
    <path d="M 345.999687 96.043763 
L 356.079687 96.043763 
Q 356.367687 96.043763 356.367687 95.880254 
L 356.367687 85.518021 
Q 356.367687 85.354512 356.079687 85.354512 
L 345.999687 85.354512 
Q 345.711687 85.354512 345.711687 85.518021 
L 345.711687 95.880254 
Q 345.711687 96.043763 345.999687 96.043763 
z
" clip-path="url(#pb3079d9f80)" style="fill: #ef4444; stroke: #ef4444; stroke-linejoin: miter"/>
   </g>
   <g id="patch_25">
    <path d="M 360.399687 102.323665 
L 370.479687 102.323665 
Q 370.767687 102.323665 370.767687 102.160156 
L 370.767687 89.477576 
Q 370.767687 89.314067 370.479687 89.314067 
L 360.399687 89.314067 
Q 360.111687 89.314067 360.111687 89.477576 
L 360.111687 102.160156 
Q 360.111687 102.323665 360.399687 102.323665 
z
" clip-path="url(#pb3079d9f80)" style="fill: #ef4444; stroke: #ef4444; stroke-linejoin: miter"/>
   </g>
   <g id="patch_26">
    <path d="M 374.799687 70.141111 
L 384.879687 70.141111 
Q 385.167687 70.141111 385.167687 69.977602 
L 385.167687 66.348394 
Q 385.167687 66.184886 384.879687 66.184886 
L 374.799687 66.184886 
Q 374.511687 66.184886 374.511687 66.348394 
L 374.511687 69.977602 
Q 374.511687 70.141111 374.799687 70.141111 
z
" clip-path="url(#pb3079d9f80)" style="fill: #ef4444; stroke: #ef4444; stroke-linejoin: miter"/>
   </g>
   <g id="patch_27">
    <path d="M 389.199687 42.14075 
L 399.279687 42.14075 
Q 399.567687 42.14075 399.567687 41.977241 
L 399.567687 37.98473 
Q 399.567687 37.821221 399.279687 37.821221 
L 389.199687 37.821221 
Q 388.911687 37.821221 388.911687 37.98473 
L 388.911687 41.977241 
Q 388.911687 42.14075 389.199687 42.14075 
z
" clip-path="url(#pb3079d9f80)" style="fill: #ef4444; stroke: #ef4444; stroke-linejoin: miter"/>
   </g>
   <g id="patch_28">
    <path d="M 403.599687 75.78386 
L 413.679687 75.78386 
Q 413.967687 75.78386 413.967687 75.620352 
L 413.967687 70.572305 
Q 413.967687 70.408797 413.679687 70.408797 
L 403.599687 70.408797 
Q 403.311687 70.408797 403.311687 70.572305 
L 403.311687 75.620352 
Q 403.311687 75.78386 403.599687 75.78386 
z
" clip-path="url(#pb3079d9f80)" style="fill: #ef4444; stroke: #ef4444; stroke-linejoin: miter"/>
   </g>
   <g id="patch_29">
    <path d="M 417.999687 71.937274 
L 428.079687 71.937274 
Q 428.367687 71.937274 428.367687 71.773765 
L 428.367687 65.241253 
Q 428.367687 65.077744 428.079687 65.077744 
L 417.999687 65.077744 
Q 417.711687 65.077744 417.711687 65.241253 
L 417.711687 71.773765 
Q 417.711687 71.937274 417.999687 71.937274 
z
" clip-path="url(#pb3079d9f80)" style="fill: #22c55e; stroke: #22c55e; stroke-linejoin: miter"/>
   </g>
   <g id="patch_30">
    <path d="M 432.399687 64.716139 
L 442.479687 64.716139 
Q 442.767687 64.716139 442.767687 64.55263 
L 442.767687 60.622718 
Q 442.767687 60.459209 442.479687 60.459209 
L 432.399687 60.459209 
Q 432.111687 60.459209 432.111687 60.622718 
L 432.111687 64.55263 
Q 432.111687 64.716139 432.399687 64.716139 
z
" clip-path="url(#pb3079d9f80)" style="fill: #22c55e; stroke: #22c55e; stroke-linejoin: miter"/>
   </g>
   <g id="patch_31">
    <path d="M 446.799687 80.554849 
L 456.879687 80.554849 
Q 457.167687 80.554849 457.167687 80.39134 
L 457.167687 64.900599 
Q 457.167687 64.73709 456.879687 64.73709 
L 446.799687 64.73709 
Q 446.511687 64.73709 446.511687 64.900599 
L 446.511687 80.39134 
Q 446.511687 80.554849 446.799687 80.554849 
z
" clip-path="url(#pb3079d9f80)" style="fill: #ef4444; stroke: #ef4444; stroke-linejoin: miter"/>
   </g>
   <g id="patch_32">
    <path d="M 461.199687 82.059986 
L 471.279687 82.059986 
Q 471.567687 82.059986 471.567687 81.896477 
L 471.567687 75.796983 
Q 471.567687 75.633475 471.279687 75.633475 
L 461.199687 75.633475 
Q 460.911687 75.633475 460.911687 75.796983 
L 460.911687 81.896477 
Q 460.911687 82.059986 461.199687 82.059986 
z
" clip-path="url(#pb3079d9f80)" style="fill: #ef4444; stroke: #ef4444; stroke-linejoin: miter"/>
   </g>
   <g id="matplotlib.axis_1">
    <g id="xtick_1">
     <g id="line2d_1">
      <path d="M 48.639688 187.061852 
L 48.639688 24.798438 
" clip-path="url(#pb3079d9f80)" style="fill: none; stroke: #374151; stroke-opacity: 0.1; stroke-width: 0.8; stroke-linecap: square"/>
     </g>
     <g id="line2d_2">
      <defs>
       <path id="mbc38eca1c1" d="M 0 0 
L 0 3.5 
" style="stroke: #4b5563; stroke-width: 0.8"/>
      </defs>
      <g>
       <use xlink:href="#mbc38eca1c1" x="48.639688" y="187.061852" style="fill: #4b5563; stroke: #4b5563; stroke-width: 0.8"/>
      </g>
     </g>
    </g>
    <g id="xtick_2">
     <g id="line2d_3">
      <path d="M 120.639688 187.061852 
L 120.639688 24.798438 
" clip-path="url(#pb3079d9f80)" style="fill: none; stroke: #374151; stroke-opacity: 0.1; stroke-width: 0.8; stroke-linecap: square"/>
     </g>
     <g id="line2d_4">
      <g>
       <use xlink:href="#mbc38eca1c1" x="120.639688" y="187.061852" style="fill: #4b5563; stroke: #4b5563; stroke-width: 0.8"/>
      </g>
     </g>
    </g>
    <g id="xtick_3">
     <g id="line2d_5">
      <path d="M 192.639688 187.061852 
L 192.639688 24.798438 
" clip-path="url(#pb3079d9f80)" style="fill: none; stroke: #374151; stroke-opacity: 0.1; stroke-width: 0.8; stroke-linecap: square"/>
     </g>
     <g id="line2d_6">
      <g>
       <use xlink:href="#mbc38eca1c1" x="192.639688" y="187.061852" style="fill: #4b5563; stroke: #4b5563; stroke-width: 0.8"/>
      </g>
     </g>
    </g>
    <g id="xtick_4">
     <g id="line2d_7">
      <path d="M 264.639687 187.061852 
L 264.639687 24.798438 
" clip-path="url(#pb3079d9f80)" style="fill: none; stroke: #374151; stroke-opacity: 0.1; stroke-width: 0.8; stroke-linecap: square"/>
     </g>
     <g id="line2d_8">
      <g>
       <use xlink:href="#mbc38eca1c1" x="264.639687" y="187.061852" style="fill: #4b5563; stroke: #4b5563; stroke-width: 0.8"/>
      </g>
     </g>
    </g>
    <g id="xtick_5">
     <g id="line2d_9">
      <path d="M 336.639687 187.061852 
L 336.639687 24.798438 
" clip-path="url(#pb3079d9f80)" style="fill: none; stroke: #374151; stroke-opacity: 0.1; stroke-width: 0.8; stroke-linecap: square"/>
     </g>
     <g id="line2d_10">
      <g>
       <use xlink:href="#mbc38eca1c1" x="336.639687" y="187.061852" style="fill: #4b5563; stroke: #4b5563; stroke-width: 0.8"/>
      </g>
     </g>
    </g>
    <g id="xtick_6">
     <g id="line2d_11">
      <path d="M 408.639687 187.061852 
L 408.639687 24.798438 
" clip-path="url(#pb3079d9f80)" style="fill: none; stroke: #374151; stroke-opacity: 0.1; stroke-width: 0.8; stroke-linecap: square"/>
     </g>
     <g id="line2d_12">
      <g>
       <use xlink:href="#mbc38eca1c1" x="408.639687" y="187.061852" style="fill: #4b5563; stroke: #4b5563; stroke-width: 0.8"/>
      </g>
     </g>
    </g>
    <g id="xtick_7">
     <g id="line2d_13">
      <path d="M 480.639687 187.061852 
L 480.639687 24.798438 
" clip-path="url(#pb3079d9f80)" style="fill: none; stroke: #374151; stroke-opacity: 0.1; stroke-width: 0.8; stroke-linecap: square"/>
     </g>
     <g id="line2d_14">
      <g>
       <use xlink:href="#mbc38eca1c1" x="480.639687" y="187.061852" style="fill: #4b5563; stroke: #4b5563; stroke-width: 0.8"/>
      </g>
     </g>
    </g>
   </g>
   <g id="matplotlib.axis_2">
    <g id="ytick_1">
     <g id="line2d_15">
      <path d="M 34.239688 174.799223 
L 480.639687 174.799223 
" clip-path="url(#pb3079d9f80)" style="fill: none; stroke: #374151; stroke-opacity: 0.1; stroke-width: 0.8; stroke-linecap: square"/>
     </g>
     <g id="line2d_16">
      <defs>
       <path id="mccff057e08" d="M 0 0 
L -3.5 0 
" style="stroke: #4b5563; stroke-width: 0.8"/>
      </defs>
      <g>
       <use xlink:href="#mccff057e08" x="34.239688" y="174.799223" style="fill: #4b5563; stroke: #4b5563; stroke-width: 0.8"/>
      </g>
     </g>
     <g id="text_1">
      <!-- 97.5 -->
      <g style="fill: #4b5563" transform="translate(11.65375 177.458676) scale(0.07 -0.07)">
       <defs>
        <path id="DejaVuSans-39" d="M 703 97 
L 703 672 
Q 941 559 1184 500 
Q 1428 441 1663 441 
Q 2288 441 2617 861 
Q 2947 1281 2994 2138 
Q 2813 1869 2534 1725 
Q 2256 1581 1919 1581 
Q 1219 1581 811 2004 
Q 403 2428 403 3163 
Q 403 3881 828 4315 
Q 1253 4750 1959 4750 
Q 2769 4750 3195 4129 
Q 3622 3509 3622 2328 
Q 3622 1225 3098 567 
Q 2575 -91 1691 -91 
Q 1453 -91 1209 -44 
Q 966 3 703 97 
z
M 1959 2075 
Q 2384 2075 2632 2365 
Q 2881 2656 2881 3163 
Q 2881 3666 2632 3958 
Q 2384 4250 1959 4250 
Q 1534 4250 1286 3958 
Q 1038 3666 1038 3163 
Q 1038 2656 1286 2365 
Q 1534 2075 1959 2075 
z
" transform="scale(0.015625)"/>
        <path id="DejaVuSans-37" d="M 525 4666 
L 3525 4666 
L 3525 4397 
L 1831 0 
L 1172 0 
L 2766 4134 
L 525 4134 
L 525 4666 
z
" transform="scale(0.015625)"/>
        <path id="DejaVuSans-2e" d="M 684 794 
L 1344 794 
L 1344 0 
L 684 0 
L 684 794 
z
" transform="scale(0.015625)"/>
        <path id="DejaVuSans-35" d="M 691 4666 
L 3169 4666 
L 3169 4134 
L 1269 4134 
L 1269 2991 
Q 1406 3038 1543 3061 
Q 1681 3084 1819 3084 
Q 2600 3084 3056 2656 
Q 3513 2228 3513 1497 
Q 3513 744 3044 326 
Q 2575 -91 1722 -91 
Q 1428 -91 1123 -41 
Q 819 9 494 109 
L 494 744 
Q 775 591 1075 516 
Q 1375 441 1709 441 
Q 2250 441 2565 725 
Q 2881 1009 2881 1497 
Q 2881 1984 2565 2268 
Q 2250 2553 1709 2553 
Q 1456 2553 1204 2497 
Q 953 2441 691 2322 
L 691 4666 
z
" transform="scale(0.015625)"/>
       </defs>
       <use xlink:href="#DejaVuSans-39"/>
       <use xlink:href="#DejaVuSans-37" transform="translate(63.623047 0)"/>
       <use xlink:href="#DejaVuSans-2e" transform="translate(127.246094 0)"/>
       <use xlink:href="#DejaVuSans-35" transform="translate(159.033203 0)"/>
      </g>
     </g>
    </g>
    <g id="ytick_2">
     <g id="line2d_17">
      <path d="M 34.239688 154.36063 
L 480.639687 154.36063 
" clip-path="url(#pb3079d9f80)" style="fill: none; stroke: #374151; stroke-opacity: 0.1; stroke-width: 0.8; stroke-linecap: square"/>
     </g>
     <g id="line2d_18">
      <g>
       <use xlink:href="#mccff057e08" x="34.239688" y="154.36063" style="fill: #4b5563; stroke: #4b5563; stroke-width: 0.8"/>
      </g>
     </g>
     <g id="text_2">
      <!-- 100.0 -->
      <g style="fill: #4b5563" transform="translate(7.2 157.020083) scale(0.07 -0.07)">
       <defs>
        <path id="DejaVuSans-31" d="M 794 531 
L 1825 531 
L 1825 4091 
L 703 3866 
L 703 4441 
L 1819 4666 
L 2450 4666 
L 2450 531 
L 3481 531 
L 3481 0 
L 794 0 
L 794 531 
z
" transform="scale(0.015625)"/>
        <path id="DejaVuSans-30" d="M 2034 4250 
Q 1547 4250 1301 3770 
Q 1056 3291 1056 2328 
Q 1056 1369 1301 889 
Q 1547 409 2034 409 
Q 2525 409 2770 889 
Q 3016 1369 3016 2328 
Q 3016 3291 2770 3770 
Q 2525 4250 2034 4250 
z
M 2034 4750 
Q 2819 4750 3233 4129 
Q 3647 3509 3647 2328 
Q 3647 1150 3233 529 
Q 2819 -91 2034 -91 
Q 1250 -91 836 529 
Q 422 1150 422 2328 
Q 422 3509 836 4129 
Q 1250 4750 2034 4750 
z
" transform="scale(0.015625)"/>
       </defs>
       <use xlink:href="#DejaVuSans-31"/>
       <use xlink:href="#DejaVuSans-30" transform="translate(63.623047 0)"/>
       <use xlink:href="#DejaVuSans-30" transform="translate(127.246094 0)"/>
       <use xlink:href="#DejaVuSans-2e" transform="translate(190.869141 0)"/>
       <use xlink:href="#DejaVuSans-30" transform="translate(222.65625 0)"/>
      </g>
     </g>
    </g>
    <g id="ytick_3">
     <g id="line2d_19">
      <path d="M 34.239688 133.922038 
L 480.639687 133.922038 
" clip-path="url(#pb3079d9f80)" style="fill: none; stroke: #374151; stroke-opacity: 0.1; stroke-width: 0.8; stroke-linecap: square"/>
     </g>
     <g id="line2d_20">
      <g>
       <use xlink:href="#mccff057e08" x="34.239688" y="133.922038" style="fill: #4b5563; stroke: #4b5563; stroke-width: 0.8"/>
      </g>
     </g>
     <g id="text_3">
      <!-- 102.5 -->
      <g style="fill: #4b5563" transform="translate(7.2 136.581491) scale(0.07 -0.07)">
       <defs>
        <path id="DejaVuSans-32" d="M 1228 531 
L 3431 531 
L 3431 0 
L 469 0 
L 469 531 
Q 828 903 1448 1529 
Q 2069 2156 2228 2338 
Q 2531 2678 2651 2914 
Q 2772 3150 2772 3378 
Q 2772 3750 2511 3984 
Q 2250 4219 1831 4219 
Q 1534 4219 1204 4116 
Q 875 4013 500 3803 
L 500 4441 
Q 881 4594 1212 4672 
Q 1544 4750 1819 4750 
Q 2544 4750 2975 4387 
Q 3406 4025 3406 3419 
Q 3406 3131 3298 2873 
Q 3191 2616 2906 2266 
Q 2828 2175 2409 1742 
Q 1991 1309 1228 531 
z
" transform="scale(0.015625)"/>
       </defs>
       <use xlink:href="#DejaVuSans-31"/>
       <use xlink:href="#DejaVuSans-30" transform="translate(63.623047 0)"/>
       <use xlink:href="#DejaVuSans-32" transform="translate(127.246094 0)"/>
       <use xlink:href="#DejaVuSans-2e" transform="translate(190.869141 0)"/>
       <use xlink:href="#DejaVuSans-35" transform="translate(222.65625 0)"/>
      </g>
     </g>
    </g>
    <g id="ytick_4">
     <g id="line2d_21">
      <path d="M 34.239688 113.483445 
L 480.639687 113.483445 
" clip-path="url(#pb3079d9f80)" style="fill: none; stroke: #374151; stroke-opacity: 0.1; stroke-width: 0.8; stroke-linecap: square"/>
     </g>
     <g id="line2d_22">
      <g>
       <use xlink:href="#mccff057e08" x="34.239688" y="113.483445" style="fill: #4b5563; stroke: #4b5563; stroke-width: 0.8"/>
      </g>
     </g>
     <g id="text_4">
      <!-- 105.0 -->
      <g style="fill: #4b5563" transform="translate(7.2 116.142898) scale(0.07 -0.07)">
       <use xlink:href="#DejaVuSans-31"/>
       <use xlink:href="#DejaVuSans-30" transform="translate(63.623047 0)"/>
       <use xlink:href="#DejaVuSans-35" transform="translate(127.246094 0)"/>
       <use xlink:href="#DejaVuSans-2e" transform="translate(190.869141 0)"/>
       <use xlink:href="#DejaVuSans-30" transform="translate(222.65625 0)"/>
      </g>
     </g>
    </g>
    <g id="ytick_5">
     <g id="line2d_23">
      <path d="M 34.239688 93.044853 
L 480.639687 93.044853 
" clip-path="url(#pb3079d9f80)" style="fill: none; stroke: #374151; stroke-opacity: 0.1; stroke-width: 0.8; stroke-linecap: square"/>
     </g>
     <g id="line2d_24">
      <g>
       <use xlink:href="#mccff057e08" x="34.239688" y="93.044853" style="fill: #4b5563; stroke: #4b5563; stroke-width: 0.8"/>
      </g>
     </g>
     <g id="text_5">
      <!-- 107.5 -->
      <g style="fill: #4b5563" transform="translate(7.2 95.704306) scale(0.07 -0.07)">
       <use xlink:href="#DejaVuSans-31"/>
       <use xlink:href="#DejaVuSans-30" transform="translate(63.623047 0)"/>
       <use xlink:href="#DejaVuSans-37" transform="translate(127.246094 0)"/>
       <use xlink:href="#DejaVuSans-2e" transform="translate(190.869141 0)"/>
       <use xlink:href="#DejaVuSans-35" transform="translate(222.65625 0)"/>
      </g>
     </g>
    </g>
    <g id="ytick_6">
     <g id="line2d_25">
      <path d="M 34.239688 72.60626 
L 480.639687 72.60626 
" clip-path="url(#pb3079d9f80)" style="fill: none; stroke: #374151; stroke-opacity: 0.1; stroke-width: 0.8; stroke-linecap: square"/>
     </g>
     <g id="line2d_26">
      <g>
       <use xlink:href="#mccff057e08" x="34.239688" y="72.60626" style="fill: #4b5563; stroke: #4b5563; stroke-width: 0.8"/>
      </g>
     </g>
     <g id="text_6">
      <!-- 110.0 -->
      <g style="fill: #4b5563" transform="translate(7.2 75.265713) scale(0.07 -0.07)">
       <use xlink:href="#DejaVuSans-31"/>
       <use xlink:href="#DejaVuSans-31" transform="translate(63.623047 0)"/>
       <use xlink:href="#DejaVuSans-30" transform="translate(127.246094 0)"/>
       <use xlink:href="#DejaVuSans-2e" transform="translate(190.869141 0)"/>
       <use xlink:href="#DejaVuSans-30" transform="translate(222.65625 0)"/>
      </g>
     </g>
    </g>
    <g id="ytick_7">
     <g id="line2d_27">
      <path d="M 34.239688 52.167668 
L 480.639687 52.167668 
" clip-path="url(#pb3079d9f80)" style="fill: none; stroke: #374151; stroke-opacity: 0.1; stroke-width: 0.8; stroke-linecap: square"/>
     </g>
     <g id="line2d_28">
      <g>
       <use xlink:href="#mccff057e08" x="34.239688" y="52.167668" style="fill: #4b5563; stroke: #4b5563; stroke-width: 0.8"/>
      </g>
     </g>
     <g id="text_7">
      <!-- 112.5 -->
      <g style="fill: #4b5563" transform="translate(7.2 54.827121) scale(0.07 -0.07)">
       <use xlink:href="#DejaVuSans-31"/>
       <use xlink:href="#DejaVuSans-31" transform="translate(63.623047 0)"/>
       <use xlink:href="#DejaVuSans-32" transform="translate(127.246094 0)"/>
       <use xlink:href="#DejaVuSans-2e" transform="translate(190.869141 0)"/>
       <use xlink:href="#DejaVuSans-35" transform="translate(222.65625 0)"/>
      </g>
     </g>
    </g>
    <g id="ytick_8">
     <g id="line2d_29">
      <path d="M 34.239688 31.729075 
L 480.639687 31.729075 
" clip-path="url(#pb3079d9f80)" style="fill: none; stroke: #374151; stroke-opacity: 0.1; stroke-width: 0.8; stroke-linecap: square"/>
     </g>
     <g id="line2d_30">
      <g>
       <use xlink:href="#mccff057e08" x="34.239688" y="31.729075" style="fill: #4b5563; stroke: #4b5563; stroke-width: 0.8"/>
      </g>
     </g>
     <g id="text_8">
      <!-- 115.0 -->
      <g style="fill: #4b5563" transform="translate(7.2 34.388529) scale(0.07 -0.07)">
       <use xlink:href="#DejaVuSans-31"/>
       <use xlink:href="#DejaVuSans-31" transform="translate(63.623047 0)"/>
       <use xlink:href="#DejaVuSans-35" transform="translate(127.246094 0)"/>
       <use xlink:href="#DejaVuSans-2e" transform="translate(190.869141 0)"/>
       <use xlink:href="#DejaVuSans-30" transform="translate(222.65625 0)"/>
      </g>
     </g>
    </g>
   </g>
   <g id="line2d_31">
    <path d="M 48.639688 168.726143 
L 48.639688 135.279978 
" clip-path="url(#pb3079d9f80)" style="fill: none; stroke: #22c55e; stroke-width: 0.8; stroke-linecap: square"/>
   </g>
   <g id="line2d_32">
    <path d="M 63.039687 170.728532 
L 63.039687 151.384667 
" clip-path="url(#pb3079d9f80)" style="fill: none; stroke: #22c55e; stroke-width: 0.8; stroke-linecap: square"/>
   </g>
   <g id="line2d_33">
    <path d="M 77.439687 161.720158 
L 77.439687 136.627807 
" clip-path="url(#pb3079d9f80)" style="fill: none; stroke: #ef4444; stroke-width: 0.8; stroke-linecap: square"/>
   </g>
   <g id="line2d_34">
    <path d="M 91.839687 152.232357 
L 91.839687 128.123552 
" clip-path="url(#pb3079d9f80)" style="fill: none; stroke: #22c55e; stroke-width: 0.8; stroke-linecap: square"/>
   </g>
   <g id="line2d_35">
    <path d="M 106.239688 177.868479 
L 106.239688 152.43876 
" clip-path="url(#pb3079d9f80)" style="fill: none; stroke: #22c55e; stroke-width: 0.8; stroke-linecap: square"/>
   </g>
   <g id="line2d_36">
    <path d="M 120.639688 167.405257 
L 120.639688 146.76294 
" clip-path="url(#pb3079d9f80)" style="fill: none; stroke: #22c55e; stroke-width: 0.8; stroke-linecap: square"/>
   </g>
   <g id="line2d_37">
    <path d="M 135.039687 126.734702 
L 135.039687 111.715395 
" clip-path="url(#pb3079d9f80)" style="fill: none; stroke: #ef4444; stroke-width: 0.8; stroke-linecap: square"/>
   </g>
   <g id="line2d_38">
    <path d="M 149.439687 137.668007 
L 149.439687 111.654674 
" clip-path="url(#pb3079d9f80)" style="fill: none; stroke: #22c55e; stroke-width: 0.8; stroke-linecap: square"/>
   </g>
   <g id="line2d_39">
    <path d="M 163.839687 122.377231 
L 163.839687 103.837126 
" clip-path="url(#pb3079d9f80)" style="fill: none; stroke: #22c55e; stroke-width: 0.8; stroke-linecap: square"/>
   </g>
   <g id="line2d_40">
    <path d="M 178.239688 127.289941 
L 178.239688 104.249517 
" clip-path="url(#pb3079d9f80)" style="fill: none; stroke: #ef4444; stroke-width: 0.8; stroke-linecap: square"/>
   </g>
   <g id="line2d_41">
    <path d="M 192.639688 137.652401 
L 192.639688 118.843354 
" clip-path="url(#pb3079d9f80)" style="fill: none; stroke: #22c55e; stroke-width: 0.8; stroke-linecap: square"/>
   </g>
   <g id="line2d_42">
    <path d="M 207.039687 138.828543 
L 207.039687 111.134565 
" clip-path="url(#pb3079d9f80)" style="fill: none; stroke: #22c55e; stroke-width: 0.8; stroke-linecap: square"/>
   </g>
   <g id="line2d_43">
    <path d="M 221.439687 162.645005 
L 221.439687 139.240049 
" clip-path="url(#pb3079d9f80)" style="fill: none; stroke: #ef4444; stroke-width: 0.8; stroke-linecap: square"/>
   </g>
   <g id="line2d_44">
    <path d="M 235.839687 159.415853 
L 235.839687 142.762629 
" clip-path="url(#pb3079d9f80)" style="fill: none; stroke: #22c55e; stroke-width: 0.8; stroke-linecap: square"/>
   </g>
   <g id="line2d_45">
    <path d="M 250.239687 166.887261 
L 250.239687 151.781181 
" clip-path="url(#pb3079d9f80)" style="fill: none; stroke: #ef4444; stroke-width: 0.8; stroke-linecap: square"/>
   </g>
   <g id="line2d_46">
    <path d="M 264.639687 179.686242 
L 264.639687 151.000423 
" clip-path="url(#pb3079d9f80)" style="fill: none; stroke: #22c55e; stroke-width: 0.8; stroke-linecap: square"/>
   </g>
   <g id="line2d_47">
    <path d="M 279.039687 162.206971 
L 279.039687 131.08538 
" clip-path="url(#pb3079d9f80)" style="fill: none; stroke: #22c55e; stroke-width: 0.8; stroke-linecap: square"/>
   </g>
   <g id="line2d_48">
    <path d="M 293.439687 148.320712 
L 293.439687 125.481954 
" clip-path="url(#pb3079d9f80)" style="fill: none; stroke: #22c55e; stroke-width: 0.8; stroke-linecap: square"/>
   </g>
   <g id="line2d_49">
    <path d="M 307.839687 133.04226 
L 307.839687 112.038441 
" clip-path="url(#pb3079d9f80)" style="fill: none; stroke: #22c55e; stroke-width: 0.8; stroke-linecap: square"/>
   </g>
   <g id="line2d_50">
    <path d="M 322.239687 126.996827 
L 322.239687 104.348939 
" clip-path="url(#pb3079d9f80)" style="fill: none; stroke: #ef4444; stroke-width: 0.8; stroke-linecap: square"/>
   </g>
   <g id="line2d_51">
    <path d="M 336.639687 111.017769 
L 336.639687 91.872906 
" clip-path="url(#pb3079d9f80)" style="fill: none; stroke: #22c55e; stroke-width: 0.8; stroke-linecap: square"/>
   </g>
   <g id="line2d_52">
    <path d="M 351.039687 106.418815 
L 351.039687 84.524289 
" clip-path="url(#pb3079d9f80)" style="fill: none; stroke: #ef4444; stroke-width: 0.8; stroke-linecap: square"/>
   </g>
   <g id="line2d_53">
    <path d="M 365.439687 109.646303 
L 365.439687 86.426969 
" clip-path="url(#pb3079d9f80)" style="fill: none; stroke: #ef4444; stroke-width: 0.8; stroke-linecap: square"/>
   </g>
   <g id="line2d_54">
    <path d="M 379.839687 78.668755 
L 379.839687 60.492029 
" clip-path="url(#pb3079d9f80)" style="fill: none; stroke: #ef4444; stroke-width: 0.8; stroke-linecap: square"/>
   </g>
   <g id="line2d_55">
    <path d="M 394.239687 49.555616 
L 394.239687 32.174047 
" clip-path="url(#pb3079d9f80)" style="fill: none; stroke: #ef4444; stroke-width: 0.8; stroke-linecap: square"/>
   </g>
   <g id="line2d_56">
    <path d="M 408.639687 84.303086 
L 408.639687 62.3061 
" clip-path="url(#pb3079d9f80)" style="fill: none; stroke: #ef4444; stroke-width: 0.8; stroke-linecap: square"/>
   </g>
   <g id="line2d_57">
    <path d="M 423.039687 74.940417 
L 423.039687 59.7245 
" clip-path="url(#pb3079d9f80)" style="fill: none; stroke: #22c55e; stroke-width: 0.8; stroke-linecap: square"/>
   </g>
   <g id="line2d_58">
    <path d="M 437.439687 67.238131 
L 437.439687 49.380133 
" clip-path="url(#pb3079d9f80)" style="fill: none; stroke: #22c55e; stroke-width: 0.8; stroke-linecap: square"/>
   </g>
   <g id="line2d_59">
    <path d="M 451.839687 86.953951 
L 451.839687 56.87749 
" clip-path="url(#pb3079d9f80)" style="fill: none; stroke: #ef4444; stroke-width: 0.8; stroke-linecap: square"/>
   </g>
   <g id="line2d_60">
    <path d="M 466.239687 82.779601 
L 466.239687 73.553842 
" clip-path="url(#pb3079d9f80)" style="fill: none; stroke: #ef4444; stroke-width: 0.8; stroke-linecap: square"/>
   </g>
   <g id="patch_33">
    <path d="M 34.239688 187.061852 
L 34.239688 24.798437 
" style="fill: none; stroke: #1f2937; stroke-width: 0.8; stroke-linejoin: miter; stroke-linecap: square"/>
   </g>
   <g id="patch_34">
    <path d="M 34.239688 187.061852 
L 480.639687 187.061852 
" style="fill: none; stroke: #1f2937; stroke-width: 0.8; stroke-linejoin: miter; stroke-linecap: square"/>
   </g>
   <g id="text_9">
    <!-- Rising Wedge — WMT 1H -->
    <g style="fill: #ffffff" transform="translate(187.245937 14.798438) scale(0.1 -0.1)">
     <defs>
      <path id="DejaVuSans-Bold-52" d="M 2297 2597 
Q 2675 2597 2839 2737 
Q 3003 2878 3003 3200 
Q 3003 3519 2839 3656 
Q 2675 3794 2297 3794 
L 1791 3794 
L 1791 2597 
L 2297 2597 
z
M 1791 1766 
L 1791 0 
L 588 0 
L 588 4666 
L 2425 4666 
Q 3347 4666 3776 4356 
Q 4206 4047 4206 3378 
Q 4206 2916 3982 2619 
Q 3759 2322 3309 2181 
Q 3556 2125 3751 1926 
Q 3947 1728 4147 1325 
L 4800 0 
L 3519 0 
L 2950 1159 
Q 2778 1509 2601 1637 
Q 2425 1766 2131 1766 
L 1791 1766 
z
" transform="scale(0.015625)"/>
      <path id="DejaVuSans-Bold-69" d="M 538 3500 
L 1656 3500 
L 1656 0 
L 538 0 
L 538 3500 
z
M 538 4863 
L 1656 4863 
L 1656 3950 
L 538 3950 
L 538 4863 
z
" transform="scale(0.015625)"/>
      <path id="DejaVuSans-Bold-73" d="M 3272 3391 
L 3272 2541 
Q 2913 2691 2578 2766 
Q 2244 2841 1947 2841 
Q 1628 2841 1473 2761 
Q 1319 2681 1319 2516 
Q 1319 2381 1436 2309 
Q 1553 2238 1856 2203 
L 2053 2175 
Q 2913 2066 3209 1816 
Q 3506 1566 3506 1031 
Q 3506 472 3093 190 
Q 2681 -91 1863 -91 
Q 1516 -91 1145 -36 
Q 775 19 384 128 
L 384 978 
Q 719 816 1070 734 
Q 1422 653 1784 653 
Q 2113 653 2278 743 
Q 2444 834 2444 1013 
Q 2444 1163 2330 1236 
Q 2216 1309 1875 1350 
L 1678 1375 
Q 931 1469 631 1722 
Q 331 1975 331 2491 
Q 331 3047 712 3315 
Q 1094 3584 1881 3584 
Q 2191 3584 2531 3537 
Q 2872 3491 3272 3391 
z
" transform="scale(0.015625)"/>
      <path id="DejaVuSans-Bold-6e" d="M 4056 2131 
L 4056 0 
L 2931 0 
L 2931 347 
L 2931 1631 
Q 2931 2084 2911 2256 
Q 2891 2428 2841 2509 
Q 2775 2619 2662 2680 
Q 2550 2741 2406 2741 
Q 2056 2741 1856 2470 
Q 1656 2200 1656 1722 
L 1656 0 
L 538 0 
L 538 3500 
L 1656 3500 
L 1656 2988 
Q 1909 3294 2193 3439 
Q 2478 3584 2822 3584 
Q 3428 3584 3742 3212 
Q 4056 2841 4056 2131 
z
" transform="scale(0.015625)"/>
      <path id="DejaVuSans-Bold-67" d="M 2919 594 
Q 2688 288 2409 144 
Q 2131 0 1766 0 
Q 1125 0 706 504 
Q 288 1009 288 1791 
Q 288 2575 706 3076 
Q 1125 3578 1766 3578 
Q 2131 3578 2409 3434 
Q 2688 3291 2919 2981 
L 2919 3500 
L 4044 3500 
L 4044 353 
Q 4044 -491 3511 -936 
Q 2978 -1381 1966 -1381 
Q 1638 -1381 1331 -1331 
Q 1025 -1281 716 -1178 
L 716 -306 
Q 1009 -475 1290 -558 
Q 1572 -641 1856 -641 
Q 2406 -641 2662 -400 
Q 2919 -159 2919 353 
L 2919 594 
z
M 2181 2772 
Q 1834 2772 1640 2515 
Q 1447 2259 1447 1791 
Q 1447 1309 1634 1061 
Q 1822 813 2181 813 
Q 2531 813 2725 1069 
Q 2919 1325 2919 1791 
Q 2919 2259 2725 2515 
Q 2531 2772 2181 2772 
z
" transform="scale(0.015625)"/>
      <path id="DejaVuSans-Bold-20" transform="scale(0.015625)"/>
      <path id="DejaVuSans-Bold-57" d="M 191 4666 
L 1344 4666 
L 2150 1275 
L 2950 4666 
L 4109 4666 
L 4909 1275 
L 5716 4666 
L 6859 4666 
L 5759 0 
L 4372 0 
L 3525 3547 
L 2688 0 
L 1300 0 
L 191 4666 
z
" transform="scale(0.015625)"/>
      <path id="DejaVuSans-Bold-65" d="M 4031 1759 
L 4031 1441 
L 1416 1441 
Q 1456 1047 1700 850 
Q 1944 653 2381 653 
Q 2734 653 3104 758 
Q 3475 863 3866 1075 
L 3866 213 
Q 3469 63 3072 -14 
Q 2675 -91 2278 -91 
Q 1328 -91 801 392 
Q 275 875 275 1747 
Q 275 2603 792 3093 
Q 1309 3584 2216 3584 
Q 3041 3584 3536 3087 
Q 4031 2591 4031 1759 
z
M 2881 2131 
Q 2881 2450 2695 2645 
Q 2509 2841 2209 2841 
Q 1884 2841 1681 2658 
Q 1478 2475 1428 2131 
L 2881 2131 
z
" transform="scale(0.015625)"/>
      <path id="DejaVuSans-Bold-64" d="M 2919 2988 
L 2919 4863 
L 4044 4863 
L 4044 0 
L 2919 0 
L 2919 506 
Q 2688 197 2409 53 
Q 2131 -91 1766 -91 
Q 1119 -91 703 423 
Q 288 938 288 1747 
Q 288 2556 703 3070 
Q 1119 3584 1766 3584 
Q 2128 3584 2408 3439 
Q 2688 3294 2919 2988 
z
M 2181 722 
Q 2541 722 2730 984 
Q 2919 1247 2919 1747 
Q 2919 2247 2730 2509 
Q 2541 2772 2181 2772 
Q 1825 2772 1636 2509 
Q 1447 2247 1447 1747 
Q 1447 1247 1636 984 
Q 1825 722 2181 722 
z
" transform="scale(0.015625)"/>
      <path id="DejaVuSans-Bold-2014" d="M 344 2156 
L 6056 2156 
L 6056 1350 
L 344 1350 
L 344 2156 
z
" transform="scale(0.015625)"/>
      <path id="DejaVuSans-Bold-4d" d="M 588 4666 
L 2119 4666 
L 3181 2169 
L 4250 4666 
L 5778 4666 
L 5778 0 
L 4641 0 
L 4641 3413 
L 3566 897 
L 2803 897 
L 1728 3413 
L 1728 0 
L 588 0 
L 588 4666 
z
" transform="scale(0.015625)"/>
      <path id="DejaVuSans-Bold-54" d="M 31 4666 
L 4331 4666 
L 4331 3756 
L 2784 3756 
L 2784 0 
L 1581 0 
L 1581 3756 
L 31 3756 
L 31 4666 
z
" transform="scale(0.015625)"/>
      <path id="DejaVuSans-Bold-31" d="M 750 831 
L 1813 831 
L 1813 3847 
L 722 3622 
L 722 4441 
L 1806 4666 
L 2950 4666 
L 2950 831 
L 4013 831 
L 4013 0 
L 750 0 
L 750 831 
z
" transform="scale(0.015625)"/>
      <path id="DejaVuSans-Bold-48" d="M 588 4666 
L 1791 4666 
L 1791 2888 
L 3566 2888 
L 3566 4666 
L 4769 4666 
L 4769 0 
L 3566 0 
L 3566 1978 
L 1791 1978 
L 1791 0 
L 588 0 
L 588 4666 
z
" transform="scale(0.015625)"/>
     </defs>
     <use xlink:href="#DejaVuSans-Bold-52"/>
     <use xlink:href="#DejaVuSans-Bold-69" transform="translate(77.001953 0)"/>
     <use xlink:href="#DejaVuSans-Bold-73" transform="translate(111.279297 0)"/>
     <use xlink:href="#DejaVuSans-Bold-69" transform="translate(170.800781 0)"/>
     <use xlink:href="#DejaVuSans-Bold-6e" transform="translate(205.078125 0)"/>
     <use xlink:href="#DejaVuSans-Bold-67" transform="translate(276.269531 0)"/>
     <use xlink:href="#DejaVuSans-Bold-20" transform="translate(347.851562 0)"/>
     <use xlink:href="#DejaVuSans-Bold-57" transform="translate(382.666016 0)"/>
     <use xlink:href="#DejaVuSans-Bold-65" transform="translate(489.34375 0)"/>
     <use xlink:href="#DejaVuSans-Bold-64" transform="translate(557.166016 0)"/>
     <use xlink:href="#DejaVuSans-Bold-67" transform="translate(628.748047 0)"/>
     <use xlink:href="#DejaVuSans-Bold-65" transform="translate(700.330078 0)"/>
     <use xlink:href="#DejaVuSans-Bold-20" transform="translate(768.152344 0)"/>
     <use xlink:href="#DejaVuSans-Bold-2014" transform="translate(802.966797 0)"/>
     <use xlink:href="#DejaVuSans-Bold-20" transform="translate(902.966797 0)"/>
     <use xlink:href="#DejaVuSans-Bold-57" transform="translate(937.78125 0)"/>
     <use xlink:href="#DejaVuSans-Bold-4d" transform="translate(1048.083984 0)"/>
     <use xlink:href="#DejaVuSans-Bold-54" transform="translate(1147.595703 0)"/>
     <use xlink:href="#DejaVuSans-Bold-20" transform="translate(1215.808594 0)"/>
     <use xlink:href="#DejaVuSans-Bold-31" transform="translate(1250.623047 0)"/>
     <use xlink:href="#DejaVuSans-Bold-48" transform="translate(1320.203125 0)"/>
    </g>
   </g>
  </g>
  <g id="axes_2">
   <g id="patch_35">
    <path d="M 34.239688 246.558438 
L 480.639687 246.558438 
L 480.639687 192.470633 
L 34.239688 192.470633 
z
" style="fill: #0a0f1a"/>
   </g>
   <g id="patch_36">
    <path d="M 54.530597 246.558438 
L 64.095335 246.558438 
L 64.095335 227.073523 
L 54.530597 227.073523 
z
" clip-path="url(#p38071baba1)" style="fill: #22c55e; fill-opacity: 0.533333"/>
   </g>
   <g id="patch_37">
    <path d="M 68.194508 246.558438 
L 77.759247 246.558438 
L 77.759247 201.582531 
L 68.194508 201.582531 
z
" clip-path="url(#p38071baba1)" style="fill: #22c55e; fill-opacity: 0.533333"/>
   </g>
   <g id="patch_38">
    <path d="M 81.85842 246.558438 
L 91.423159 246.558438 
L 91.423159 208.957496 
L 81.85842 208.957496 
z
" clip-path="url(#p38071baba1)" style="fill: #ef4444; fill-opacity: 0.533333"/>
   </g>
   <g id="patch_39">
    <path d="M 95.522332 246.558438 
L 105.08707 246.558438 
L 105.08707 229.792977 
L 95.522332 229.792977 
z
" clip-path="url(#p38071baba1)" style="fill: #22c55e; fill-opacity: 0.533333"/>
   </g>
   <g id="patch_40">
    <path d="M 109.186244 246.558438 
L 118.750982 246.558438 
L 118.750982 234.370548 
L 109.186244 234.370548 
z
" clip-path="url(#p38071baba1)" style="fill: #22c55e; fill-opacity: 0.533333"/>
   </g>
   <g id="patch_41">
    <path d="M 122.850156 246.558438 
L 132.414894 246.558438 
L 132.414894 199.166662 
L 122.850156 199.166662 
z
" clip-path="url(#p38071baba1)" style="fill: #22c55e; fill-opacity: 0.533333"/>
   </g>
   <g id="patch_42">
    <path d="M 136.514068 246.558438 
L 146.078806 246.558438 
L 146.078806 200.200711 
L 136.514068 200.200711 
z
" clip-path="url(#p38071baba1)" style="fill: #ef4444; fill-opacity: 0.533333"/>
   </g>
   <g id="patch_43">
    <path d="M 150.17798 246.558438 
L 159.742718 246.558438 
L 159.742718 200.480448 
L 150.17798 200.480448 
z
" clip-path="url(#p38071baba1)" style="fill: #22c55e; fill-opacity: 0.533333"/>
   </g>
   <g id="patch_44">
    <path d="M 163.841891 246.558438 
L 173.40663 246.558438 
L 173.40663 223.642219 
L 163.841891 223.642219 
z
" clip-path="url(#p38071baba1)" style="fill: #22c55e; fill-opacity: 0.533333"/>
   </g>
   <g id="patch_45">
    <path d="M 177.505803 246.558438 
L 187.070541 246.558438 
L 187.070541 221.401919 
L 177.505803 221.401919 
z
" clip-path="url(#p38071baba1)" style="fill: #ef4444; fill-opacity: 0.533333"/>
   </g>
   <g id="patch_46">
    <path d="M 191.169715 246.558438 
L 200.734453 246.558438 
L 200.734453 198.675817 
L 191.169715 198.675817 
z
" clip-path="url(#p38071baba1)" style="fill: #22c55e; fill-opacity: 0.533333"/>
   </g>
   <g id="patch_47">
    <path d="M 204.833627 246.558438 
L 214.398365 246.558438 
L 214.398365 222.205297 
L 204.833627 222.205297 
z
" clip-path="url(#p38071baba1)" style="fill: #22c55e; fill-opacity: 0.533333"/>
   </g>
   <g id="patch_48">
    <path d="M 218.497539 246.558438 
L 228.062277 246.558438 
L 228.062277 208.260851 
L 218.497539 208.260851 
z
" clip-path="url(#p38071baba1)" style="fill: #ef4444; fill-opacity: 0.533333"/>
   </g>
   <g id="patch_49">
    <path d="M 232.161451 246.558438 
L 241.726189 246.558438 
L 241.726189 206.858415 
L 232.161451 206.858415 
z
" clip-path="url(#p38071baba1)" style="fill: #22c55e; fill-opacity: 0.533333"/>
   </g>
   <g id="patch_50">
    <path d="M 245.825362 246.558438 
L 255.390101 246.558438 
L 255.390101 232.731944 
L 245.825362 232.731944 
z
" clip-path="url(#p38071baba1)" style="fill: #ef4444; fill-opacity: 0.533333"/>
   </g>
   <g id="patch_51">
    <path d="M 259.489274 246.558438 
L 269.054013 246.558438 
L 269.054013 224.334453 
L 259.489274 224.334453 
z
" clip-path="url(#p38071baba1)" style="fill: #22c55e; fill-opacity: 0.533333"/>
   </g>
   <g id="patch_52">
    <path d="M 273.153186 246.558438 
L 282.717924 246.558438 
L 282.717924 202.000649 
L 273.153186 202.000649 
z
" clip-path="url(#p38071baba1)" style="fill: #22c55e; fill-opacity: 0.533333"/>
   </g>
   <g id="patch_53">
    <path d="M 286.817098 246.558438 
L 296.381836 246.558438 
L 296.381836 195.105704 
L 286.817098 195.105704 
z
" clip-path="url(#p38071baba1)" style="fill: #22c55e; fill-opacity: 0.533333"/>
   </g>
   <g id="patch_54">
    <path d="M 300.48101 246.558438 
L 310.045748 246.558438 
L 310.045748 202.612847 
L 300.48101 202.612847 
z
" clip-path="url(#p38071baba1)" style="fill: #22c55e; fill-opacity: 0.533333"/>
   </g>
   <g id="patch_55">
    <path d="M 314.144922 246.558438 
L 323.70966 246.558438 
L 323.70966 223.571745 
L 314.144922 223.571745 
z
" clip-path="url(#p38071baba1)" style="fill: #ef4444; fill-opacity: 0.533333"/>
   </g>
   <g id="patch_56">
    <path d="M 327.808834 246.558438 
L 337.373572 246.558438 
L 337.373572 227.979868 
L 327.808834 227.979868 
z
" clip-path="url(#p38071baba1)" style="fill: #22c55e; fill-opacity: 0.533333"/>
   </g>
   <g id="patch_57">
    <path d="M 341.472745 246.558438 
L 351.037484 246.558438 
L 351.037484 205.578928 
L 341.472745 205.578928 
z
" clip-path="url(#p38071baba1)" style="fill: #ef4444; fill-opacity: 0.533333"/>
   </g>
   <g id="patch_58">
    <path d="M 355.136657 246.558438 
L 364.701395 246.558438 
L 364.701395 236.075735 
L 355.136657 236.075735 
z
" clip-path="url(#p38071baba1)" style="fill: #ef4444; fill-opacity: 0.533333"/>
   </g>
   <g id="patch_59">
    <path d="M 368.800569 246.558438 
L 378.365307 246.558438 
L 378.365307 224.582456 
L 368.800569 224.582456 
z
" clip-path="url(#p38071baba1)" style="fill: #ef4444; fill-opacity: 0.533333"/>
   </g>
   <g id="patch_60">
    <path d="M 382.464481 246.558438 
L 392.029219 246.558438 
L 392.029219 228.0184 
L 382.464481 228.0184 
z
" clip-path="url(#p38071baba1)" style="fill: #ef4444; fill-opacity: 0.533333"/>
   </g>
   <g id="patch_61">
    <path d="M 396.128393 246.558438 
L 405.693131 246.558438 
L 405.693131 235.391509 
L 396.128393 235.391509 
z
" clip-path="url(#p38071baba1)" style="fill: #ef4444; fill-opacity: 0.533333"/>
   </g>
   <g id="patch_62">
    <path d="M 409.792305 246.558438 
L 419.357043 246.558438 
L 419.357043 199.271288 
L 409.792305 199.271288 
z
" clip-path="url(#p38071baba1)" style="fill: #22c55e; fill-opacity: 0.533333"/>
   </g>
   <g id="patch_63">
    <path d="M 423.456216 246.558438 
L 433.020955 246.558438 
L 433.020955 195.046242 
L 423.456216 195.046242 
z
" clip-path="url(#p38071baba1)" style="fill: #22c55e; fill-opacity: 0.533333"/>
   </g>
   <g id="patch_64">
    <path d="M 437.120128 246.558438 
L 446.684867 246.558438 
L 446.684867 226.234668 
L 437.120128 226.234668 
z
" clip-path="url(#p38071baba1)" style="fill: #ef4444; fill-opacity: 0.533333"/>
   </g>
   <g id="patch_65">
    <path d="M 450.78404 246.558438 
L 460.348778 246.558438 
L 460.348778 223.418962 
L 450.78404 223.418962 
z
" clip-path="url(#p38071baba1)" style="fill: #ef4444; fill-opacity: 0.533333"/>
   </g>
   <g id="matplotlib.axis_3">
    <g id="xtick_8">
     <g id="line2d_61">
      <path d="M 59.312966 246.558438 
L 59.312966 192.470633 
" clip-path="url(#p38071baba1)" style="fill: none; stroke: #374151; stroke-opacity: 0.1; stroke-width: 0.8; stroke-linecap: square"/>
     </g>
     <g id="line2d_62">
      <g>
       <use xlink:href="#mbc38eca1c1" x="59.312966" y="246.558438" style="fill: #4b5563; stroke: #4b5563; stroke-width: 0.8"/>
      </g>
     </g>
     <g id="text_10">
      <!-- 0 -->
      <g style="fill: #4b5563" transform="translate(57.086091 258.877344) scale(0.07 -0.07)">
       <use xlink:href="#DejaVuSans-30"/>
      </g>
     </g>
    </g>
    <g id="xtick_9">
     <g id="line2d_63">
      <path d="M 127.632525 246.558438 
L 127.632525 192.470633 
" clip-path="url(#p38071baba1)" style="fill: none; stroke: #374151; stroke-opacity: 0.1; stroke-width: 0.8; stroke-linecap: square"/>
     </g>
     <g id="line2d_64">
      <g>
       <use xlink:href="#mbc38eca1c1" x="127.632525" y="246.558438" style="fill: #4b5563; stroke: #4b5563; stroke-width: 0.8"/>
      </g>
     </g>
     <g id="text_11">
      <!-- 5 -->
      <g style="fill: #4b5563" transform="translate(125.40565 258.877344) scale(0.07 -0.07)">
       <use xlink:href="#DejaVuSans-35"/>
      </g>
     </g>
    </g>
    <g id="xtick_10">
     <g id="line2d_65">
      <path d="M 195.952084 246.558438 
L 195.952084 192.470633 
" clip-path="url(#p38071baba1)" style="fill: none; stroke: #374151; stroke-opacity: 0.1; stroke-width: 0.8; stroke-linecap: square"/>
     </g>
     <g id="line2d_66">
      <g>
       <use xlink:href="#mbc38eca1c1" x="195.952084" y="246.558438" style="fill: #4b5563; stroke: #4b5563; stroke-width: 0.8"/>
      </g>
     </g>
     <g id="text_12">
      <!-- 10 -->
      <g style="fill: #4b5563" transform="translate(191.498334 258.877344) scale(0.07 -0.07)">
       <use xlink:href="#DejaVuSans-31"/>
       <use xlink:href="#DejaVuSans-30" transform="translate(63.623047 0)"/>
      </g>
     </g>
    </g>
    <g id="xtick_11">
     <g id="line2d_67">
      <path d="M 264.271643 246.558438 
L 264.271643 192.470633 
" clip-path="url(#p38071baba1)" style="fill: none; stroke: #374151; stroke-opacity: 0.1; stroke-width: 0.8; stroke-linecap: square"/>
     </g>
     <g id="line2d_68">
      <g>
       <use xlink:href="#mbc38eca1c1" x="264.271643" y="246.558438" style="fill: #4b5563; stroke: #4b5563; stroke-width: 0.8"/>
      </g>
     </g>
     <g id="text_13">
      <!-- 15 -->
      <g style="fill: #4b5563" transform="translate(259.817893 258.877344) scale(0.07 -0.07)">
       <use xlink:href="#DejaVuSans-31"/>
       <use xlink:href="#DejaVuSans-35" transform="translate(63.623047 0)"/>
      </g>
     </g>
    </g>
    <g id="xtick_12">
     <g id="line2d_69">
      <path d="M 332.591203 246.558438 
L 332.591203 192.470633 
" clip-path="url(#p38071baba1)" style="fill: none; stroke: #374151; stroke-opacity: 0.1; stroke-width: 0.8; stroke-linecap: square"/>
     </g>
     <g id="line2d_70">
      <g>
       <use xlink:href="#mbc38eca1c1" x="332.591203" y="246.558438" style="fill: #4b5563; stroke: #4b5563; stroke-width: 0.8"/>
      </g>
     </g>
     <g id="text_14">
      <!-- 20 -->
      <g style="fill: #4b5563" transform="translate(328.137453 258.877344) scale(0.07 -0.07)">
       <use xlink:href="#DejaVuSans-32"/>
       <use xlink:href="#DejaVuSans-30" transform="translate(63.623047 0)"/>
      </g>
     </g>
    </g>
    <g id="xtick_13">
     <g id="line2d_71">
      <path d="M 400.910762 246.558438 
L 400.910762 192.470633 
" clip-path="url(#p38071baba1)" style="fill: none; stroke: #374151; stroke-opacity: 0.1; stroke-width: 0.8; stroke-linecap: square"/>
     </g>
     <g id="line2d_72">
      <g>
       <use xlink:href="#mbc38eca1c1" x="400.910762" y="246.558438" style="fill: #4b5563; stroke: #4b5563; stroke-width: 0.8"/>
      </g>
     </g>
     <g id="text_15">
      <!-- 25 -->
      <g style="fill: #4b5563" transform="translate(396.457012 258.877344) scale(0.07 -0.07)">
       <use xlink:href="#DejaVuSans-32"/>
       <use xlink:href="#DejaVuSans-35" transform="translate(63.623047 0)"/>
      </g>
     </g>
    </g>
    <g id="xtick_14">
     <g id="line2d_73">
      <path d="M 469.230321 246.558438 
L 469.230321 192.470633 
" clip-path="url(#p38071baba1)" style="fill: none; stroke: #374151; stroke-opacity: 0.1; stroke-width: 0.8; stroke-linecap: square"/>
     </g>
     <g id="line2d_74">
      <g>
       <use xlink:href="#mbc38eca1c1" x="469.230321" y="246.558438" style="fill: #4b5563; stroke: #4b5563; stroke-width: 0.8"/>
      </g>
     </g>
     <g id="text_16">
      <!-- 30 -->
      <g style="fill: #4b5563" transform="translate(464.776571 258.877344) scale(0.07 -0.07)">
       <defs>
        <path id="DejaVuSans-33" d="M 2597 2516 
Q 3050 2419 3304 2112 
Q 3559 1806 3559 1356 
Q 3559 666 3084 287 
Q 2609 -91 1734 -91 
Q 1441 -91 1130 -33 
Q 819 25 488 141 
L 488 750 
Q 750 597 1062 519 
Q 1375 441 1716 441 
Q 2309 441 2620 675 
Q 2931 909 2931 1356 
Q 2931 1769 2642 2001 
Q 2353 2234 1838 2234 
L 1294 2234 
L 1294 2753 
L 1863 2753 
Q 2328 2753 2575 2939 
Q 2822 3125 2822 3475 
Q 2822 3834 2567 4026 
Q 2313 4219 1838 4219 
Q 1578 4219 1281 4162 
Q 984 4106 628 3988 
L 628 4550 
Q 988 4650 1302 4700 
Q 1616 4750 1894 4750 
Q 2613 4750 3031 4423 
Q 3450 4097 3450 3541 
Q 3450 3153 3228 2886 
Q 3006 2619 2597 2516 
z
" transform="scale(0.015625)"/>
       </defs>
       <use xlink:href="#DejaVuSans-33"/>
       <use xlink:href="#DejaVuSans-30" transform="translate(63.623047 0)"/>
      </g>
     </g>
    </g>
   </g>
   <g id="matplotlib.axis_4">
    <g id="ytick_9">
     <g id="line2d_75">
      <path d="M 34.239688 246.558438 
L 480.639687 246.558438 
" clip-path="url(#p38071baba1)" style="fill: none; stroke: #374151; stroke-opacity: 0.1; stroke-width: 0.8; stroke-linecap: square"/>
     </g>
     <g id="line2d_76">
      <g>
       <use xlink:href="#mccff057e08" x="34.239688" y="246.558438" style="fill: #4b5563; stroke: #4b5563; stroke-width: 0.8"/>
      </g>
     </g>
     <g id="text_17">
      <!-- 0 -->
      <g style="fill: #4b5563" transform="translate(22.785938 249.217891) scale(0.07 -0.07)">
       <use xlink:href="#DejaVuSans-30"/>
      </g>
     </g>
    </g>
    <g id="ytick_10">
     <g id="line2d_77">
      <path d="M 34.239688 225.702048 
L 480.639687 225.702048 
" clip-path="url(#p38071baba1)" style="fill: none; stroke: #374151; stroke-opacity: 0.1; stroke-width: 0.8; stroke-linecap: square"/>
     </g>
     <g id="line2d_78">
      <g>
       <use xlink:href="#mccff057e08" x="34.239688" y="225.702048" style="fill: #4b5563; stroke: #4b5563; stroke-width: 0.8"/>
      </g>
     </g>
     <g id="text_18">
      <!-- 2 -->
      <g style="fill: #4b5563" transform="translate(22.785938 228.361501) scale(0.07 -0.07)">
       <use xlink:href="#DejaVuSans-32"/>
      </g>
     </g>
    </g>
    <g id="ytick_11">
     <g id="line2d_79">
      <path d="M 34.239688 204.845659 
L 480.639687 204.845659 
" clip-path="url(#p38071baba1)" style="fill: none; stroke: #374151; stroke-opacity: 0.1; stroke-width: 0.8; stroke-linecap: square"/>
     </g>
     <g id="line2d_80">
      <g>
       <use xlink:href="#mccff057e08" x="34.239688" y="204.845659" style="fill: #4b5563; stroke: #4b5563; stroke-width: 0.8"/>
      </g>
     </g>
     <g id="text_19">
      <!-- 4 -->
      <g style="fill: #4b5563" transform="translate(22.785938 207.505112) scale(0.07 -0.07)">
       <defs>
        <path id="DejaVuSans-34" d="M 2419 4116 
L 825 1625 
L 2419 1625 
L 2419 4116 
z
M 2253 4666 
L 3047 4666 
L 3047 1625 
L 3713 1625 
L 3713 1100 
L 3047 1100 
L 3047 0 
L 2419 0 
L 2419 1100 
L 313 1100 
L 313 1709 
L 2253 4666 
z
" transform="scale(0.015625)"/>
       </defs>
       <use xlink:href="#DejaVuSans-34"/>
      </g>
     </g>
    </g>
    <g id="text_20">
     <!-- Vol -->
     <g style="fill: #4b5563" transform="translate(17.330156 224.75141) rotate(-90) scale(0.07 -0.07)">
      <defs>
       <path id="DejaVuSans-56" d="M 1831 0 
L 50 4666 
L 709 4666 
L 2188 738 
L 3669 4666 
L 4325 4666 
L 2547 0 
L 1831 0 
z
" transform="scale(0.015625)"/>
       <path id="DejaVuSans-6f" d="M 1959 3097 
Q 1497 3097 1228 2736 
Q 959 2375 959 1747 
Q 959 1119 1226 758 
Q 1494 397 1959 397 
Q 2419 397 2687 759 
Q 2956 1122 2956 1747 
Q 2956 2369 2687 2733 
Q 2419 3097 1959 3097 
z
M 1959 3584 
Q 2709 3584 3137 3096 
Q 3566 2609 3566 1747 
Q 3566 888 3137 398 
Q 2709 -91 1959 -91 
Q 1206 -91 779 398 
Q 353 888 353 1747 
Q 353 2609 779 3096 
Q 1206 3584 1959 3584 
z
" transform="scale(0.015625)"/>
       <path id="DejaVuSans-6c" d="M 603 4863 
L 1178 4863 
L 1178 0 
L 603 0 
L 603 4863 
z
" transform="scale(0.015625)"/>
      </defs>
      <use xlink:href="#DejaVuSans-56"/>
      <use xlink:href="#DejaVuSans-6f" transform="translate(60.658203 0)"/>
      <use xlink:href="#DejaVuSans-6c" transform="translate(121.839844 0)"/>
     </g>
    </g>
    <g id="text_21">
     <!-- 1e6 -->
     <g style="fill: #4b5563" transform="translate(34.239688 189.470633) scale(0.1 -0.1)">
      <defs>
       <path id="DejaVuSans-65" d="M 3597 1894 
L 3597 1613 
L 953 1613 
Q 991 1019 1311 708 
Q 1631 397 2203 397 
Q 2534 397 2845 478 
Q 3156 559 3463 722 
L 3463 178 
Q 3153 47 2828 -22 
Q 2503 -91 2169 -91 
Q 1331 -91 842 396 
Q 353 884 353 1716 
Q 353 2575 817 3079 
Q 1281 3584 2069 3584 
Q 2775 3584 3186 3129 
Q 3597 2675 3597 1894 
z
M 3022 2063 
Q 3016 2534 2758 2815 
Q 2500 3097 2075 3097 
Q 1594 3097 1305 2825 
Q 1016 2553 972 2059 
L 3022 2063 
z
" transform="scale(0.015625)"/>
       <path id="DejaVuSans-36" d="M 2113 2584 
Q 1688 2584 1439 2293 
Q 1191 2003 1191 1497 
Q 1191 994 1439 701 
Q 1688 409 2113 409 
Q 2538 409 2786 701 
Q 3034 994 3034 1497 
Q 3034 2003 2786 2293 
Q 2538 2584 2113 2584 
z
M 3366 4563 
L 3366 3988 
Q 3128 4100 2886 4159 
Q 2644 4219 2406 4219 
Q 1781 4219 1451 3797 
Q 1122 3375 1075 2522 
Q 1259 2794 1537 2939 
Q 1816 3084 2150 3084 
Q 2853 3084 3261 2657 
Q 3669 2231 3669 1497 
Q 3669 778 3244 343 
Q 2819 -91 2113 -91 
Q 1303 -91 875 529 
Q 447 1150 447 2328 
Q 447 3434 972 4092 
Q 1497 4750 2381 4750 
Q 2619 4750 2861 4703 
Q 3103 4656 3366 4563 
z
" transform="scale(0.015625)"/>
      </defs>
      <use xlink:href="#DejaVuSans-31"/>
      <use xlink:href="#DejaVuSans-65" transform="translate(63.623047 0)"/>
      <use xlink:href="#DejaVuSans-36" transform="translate(125.146484 0)"/>
     </g>
    </g>
   </g>
   <g id="patch_66">
    <path d="M 34.239688 246.558438 
L 34.239688 192.470633 
" style="fill: none; stroke: #1f2937; stroke-width: 0.8; stroke-linejoin: miter; stroke-linecap: square"/>
   </g>
   <g id="patch_67">
    <path d="M 34.239688 246.558438 
L 480.639688 246.558438 
" style="fill: none; stroke: #1f2937; stroke-width: 0.8; stroke-linejoin: miter; stroke-linecap: square"/>
   </g>
  </g>
 </g>
 <defs>
  <clipPath id="pb3079d9f80">
   <rect x="34.239688" y="24.798438" width="446.4" height="162.263415"/>
  </clipPath>
  <clipPath id="p38071baba1">
   <rect x="34.239688" y="192.470633" width="446.4" height="54.087805"/>
  </clipPath>
 </defs>
</svg>
