<?xml version="1.0" encoding="utf-8" standalone="no"?>
<!DOCTYPE svg PUBLIC "-//W3C//DTD SVG 1.1//EN"
  "http://www.w3.org/Graphics/SVG/1.1/DTD/svg11.dtd">
<svg xmlns:xlink="http://www.w3.org/1999/xlink" width="483.028437pt" height="267.533125pt" viewBox="0 0 483.028437 267.533125" xmlns="http://www.w3.org/2000/svg" version="1.1">
 <metadata>
  <rdf:RDF xmlns:dc="http://purl.org/dc/elements/1.1/" xmlns:cc="http://creativecommons.org/ns#" xmlns:rdf="http://www.w3.org/1999/02/22-rdf-syntax-ns#">
   <cc:Work>
    <dc:type rdf:resource="http://purl.org/dc/dcmitype/StillImage"/>
    <dc:date>2026-02-16T00:23:19.033936</dc:date>
    <dc:format>image/svg+xml</dc:format>
    <dc:creator>
     <cc:Agent>
      <dc:title>Matplotlib v3.10.8, https://matplotlib.org/</dc:title>
     </cc:Agent>
    </dc:creator>
   </cc:Work>
  </rdf:RDF>
 </metadata>
 <defs>
  <style type="text/css">*{stroke-linejoin: round; stroke-linecap: butt}</style>
 </defs>
 <g id="figure_1">
  <g id="patch_1">
   <path d="M 0 267.533125 
L 483.028437 267.533125 
L 483.028437 0 
L 0 0 
z
" style="fill: #0a0f1a"/>
  </g>
  <g id="axes_1">
   <g id="patch_2">
    <path d="M 29.428438 187.061852 
L 475.828437 187.061852 
L 475.828437 24.798438 
L 29.428438 24.798438 
z
" style="fill: #0a0f1a"/>
   </g>
   <g id="patch_3">
    <path d="M 38.788438 176.22425 
L 48.868437 176.22425 
Q 49.156437 176.22425 49.156437 175.981297 
L 49.156437 171.124647 
Q 49.156437 170.881694 48.868437 170.881694 
L 38.788438 170.881694 
Q 38.500438 170.881694 38.500438 171.124647 
L 38.500438 175.981297 
Q 38.500438 176.22425 38.788438 176.22425 
z
" clip-path="url(#p05aa1e16e5)" style="fill: #22c55e; stroke: #22c55e; stroke-linejoin: miter"/>
   </g>
   <g id="patch_4">
    <path d="M 53.188437 135.629466 
L 63.268437 135.629466 
Q 63.556438 135.629466 63.556438 135.386514 
L 63.556438 129.002797 
Q 63.556438 128.759845 63.268437 128.759845 
L 53.188437 128.759845 
Q 52.900437 128.759845 52.900437 129.002797 
L 52.900437 135.386514 
Q 52.900437 135.629466 53.188437 135.629466 
z
" clip-path="url(#p05aa1e16e5)" style="fill: #ef4444; stroke: #ef4444; stroke-linejoin: miter"/>
   </g>
   <g id="patch_5">
    <path d="M 67.588437 120.927535 
L 77.668437 120.927535 
Q 77.956437 120.927535 77.956437 120.684582 
L 77.956437 105.388137 
Q 77.956437 105.145185 77.668437 105.145185 
L 67.588437 105.145185 
Q 67.300438 105.145185 67.300438 105.388137 
L 67.300438 120.684582 
Q 67.300438 120.927535 67.588437 120.927535 
z
" clip-path="url(#p05aa1e16e5)" style="fill: #ef4444; stroke: #ef4444; stroke-linejoin: miter"/>
   </g>
   <g id="patch_6">
    <path d="M 81.988438 120.368672 
L 92.068437 120.368672 
Q 92.356437 120.368672 92.356437 120.12572 
L 92.356437 116.417919 
Q 92.356437 116.174966 92.068437 116.174966 
L 81.988438 116.174966 
Q 81.700437 116.174966 81.700437 116.417919 
L 81.700437 120.12572 
Q 81.700437 120.368672 81.988438 120.368672 
z
" clip-path="url(#p05aa1e16e5)" style="fill: #22c55e; stroke: #22c55e; stroke-linejoin: miter"/>
   </g>
   <g id="patch_7">
    <path d="M 96.388437 127.637358 
L 106.468437 127.637358 
Q 106.756438 127.637358 106.756438 127.394406 
L 106.756438 109.362805 
Q 106.756438 109.119852 106.468437 109.119852 
L 96.388437 109.119852 
Q 96.100437 109.119852 96.100437 109.362805 
L 96.100437 127.394406 
Q 96.100437 127.637358 96.388437 127.637358 
z
" clip-path="url(#p05aa1e16e5)" style="fill: #22c55e; stroke: #22c55e; stroke-linejoin: miter"/>
   </g>
   <g id="patch_8">
    <path d="M 110.788437 131.904706 
L 120.868437 131.904706 
Q 121.156438 131.904706 121.156438 131.661754 
L 121.156438 121.737591 
Q 121.156438 121.494639 120.868437 121.494639 
L 110.788437 121.494639 
Q 110.500438 121.494639 110.500438 121.737591 
L 110.500438 131.661754 
Q 110.500438 131.904706 110.788437 131.904706 
z
" clip-path="url(#p05aa1e16e5)" style="fill: #22c55e; stroke: #22c55e; stroke-linejoin: miter"/>
   </g>
   <g id="patch_9">
    <path d="M 125.188437 120.675409 
L 135.268438 120.675409 
Q 135.556438 120.675409 135.556438 120.432457 
L 135.556438 98.326474 
Q 135.556438 98.083522 135.268438 98.083522 
L 125.188437 98.083522 
Q 124.900438 98.083522 124.900438 98.326474 
L 124.900438 120.432457 
Q 124.900438 120.675409 125.188437 120.675409 
z
" clip-path="url(#p05aa1e16e5)" style="fill: #22c55e; stroke: #22c55e; stroke-linejoin: miter"/>
   </g>
   <g id="patch_10">
    <path d="M 139.588437 122.184153 
L 149.668438 122.184153 
Q 149.956437 122.184153 149.956437 121.9412 
L 149.956437 106.935406 
Q 149.956437 106.692453 149.668438 106.692453 
L 139.588437 106.692453 
Q 139.300438 106.692453 139.300438 106.935406 
L 139.300438 121.9412 
Q 139.300438 122.184153 139.588437 122.184153 
z
" clip-path="url(#p05aa1e16e5)" style="fill: #ef4444; stroke: #ef4444; stroke-linejoin: miter"/>
   </g>
   <g id="patch_11">
    <path d="M 153.988438 134.047954 
L 164.068438 134.047954 
Q 164.356437 134.047954 164.356437 133.805002 
L 164.356437 113.083174 
Q 164.356437 112.840222 164.068438 112.840222 
L 153.988438 112.840222 
Q 153.700437 112.840222 153.700437 113.083174 
L 153.700437 133.805002 
Q 153.700437 134.047954 153.988438 134.047954 
z
" clip-path="url(#p05aa1e16e5)" style="fill: #22c55e; stroke: #22c55e; stroke-linejoin: miter"/>
   </g>
   <g id="patch_12">
    <path d="M 168.388437 104.458161 
L 178.468438 104.458161 
Q 178.756438 104.458161 178.756438 104.215209 
L 178.756438 91.407628 
Q 178.756438 91.164676 178.468438 91.164676 
L 168.388437 91.164676 
Q 168.100437 91.164676 168.100437 91.407628 
L 168.100437 104.215209 
Q 168.100437 104.458161 168.388437 104.458161 
z
" clip-path="url(#p05aa1e16e5)" style="fill: #22c55e; stroke: #22c55e; stroke-linejoin: miter"/>
   </g>
   <g id="patch_13">
    <path d="M 182.788437 111.257444 
L 192.868437 111.257444 
Q 193.156438 111.257444 193.156438 111.014492 
L 193.156438 104.501756 
Q 193.156438 104.258804 192.868437 104.258804 
L 182.788437 104.258804 
Q 182.500438 104.258804 182.500438 104.501756 
L 182.500438 111.014492 
Q 182.500438 111.257444 182.788437 111.257444 
z
" clip-path="url(#p05aa1e16e5)" style="fill: #ef4444; stroke: #ef4444; stroke-linejoin: miter"/>
   </g>
   <g id="patch_14">
    <path d="M 197.188437 105.719949 
L 207.268438 105.719949 
Q 207.556438 105.719949 207.556438 105.476997 
L 207.556438 91.04211 
Q 207.556438 90.799158 207.268438 90.799158 
L 197.188437 90.799158 
Q 196.900438 90.799158 196.900438 91.04211 
L 196.900438 105.476997 
Q 196.900438 105.719949 197.188437 105.719949 
z
" clip-path="url(#p05aa1e16e5)" style="fill: #22c55e; stroke: #22c55e; stroke-linejoin: miter"/>
   </g>
   <g id="patch_15">
    <path d="M 211.588437 128.438114 
L 221.668438 128.438114 
Q 221.956437 128.438114 221.956437 128.195162 
L 221.956437 105.125192 
Q 221.956437 104.882239 221.668438 104.882239 
L 211.588437 104.882239 
Q 211.300438 104.882239 211.300438 105.125192 
L 211.300438 128.195162 
Q 211.300438 128.438114 211.588437 128.438114 
z
" clip-path="url(#p05aa1e16e5)" style="fill: #22c55e; stroke: #22c55e; stroke-linejoin: miter"/>
   </g>
   <g id="patch_16">
    <path d="M 225.988438 123.34429 
L 236.068438 123.34429 
Q 236.356437 123.34429 236.356437 123.101338 
L 236.356437 105.904313 
Q 236.356437 105.661361 236.068438 105.661361 
L 225.988438 105.661361 
Q 225.700437 105.661361 225.700437 105.904313 
L 225.700437 123.101338 
Q 225.700437 123.34429 225.988438 123.34429 
z
" clip-path="url(#p05aa1e16e5)" style="fill: #22c55e; stroke: #22c55e; stroke-linejoin: miter"/>
   </g>
   <g id="patch_17">
    <path d="M 240.388437 98.392711 
L 250.468437 98.392711 
Q 250.756438 98.392711 250.756438 98.149759 
L 250.756438 77.775052 
Q 250.756438 77.5321 250.468437 77.5321 
L 240.388437 77.5321 
Q 240.100437 77.5321 240.100437 77.775052 
L 240.100437 98.149759 
Q 240.100437 98.392711 240.388437 98.392711 
z
" clip-path="url(#p05aa1e16e5)" style="fill: #22c55e; stroke: #22c55e; stroke-linejoin: miter"/>
   </g>
   <g id="patch_18">
    <path d="M 254.788437 107.304984 
L 264.868437 107.304984 
Q 265.156437 107.304984 265.156437 107.062031 
L 265.156437 94.77747 
Q 265.156437 94.534517 264.868437 94.534517 
L 254.788437 94.534517 
Q 254.500438 94.534517 254.500438 94.77747 
L 254.500438 107.062031 
Q 254.500438 107.304984 254.788437 107.304984 
z
" clip-path="url(#p05aa1e16e5)" style="fill: #22c55e; stroke: #22c55e; stroke-linejoin: miter"/>
   </g>
   <g id="patch_19">
    <path d="M 269.188437 80.544344 
L 279.268438 80.544344 
Q 279.556437 80.544344 279.556437 80.301392 
L 279.556437 70.743866 
Q 279.556437 70.500913 279.268438 70.500913 
L 269.188437 70.500913 
Q 268.900438 70.500913 268.900438 70.743866 
L 268.900438 80.301392 
Q 268.900438 80.544344 269.188437 80.544344 
z
" clip-path="url(#p05aa1e16e5)" style="fill: #22c55e; stroke: #22c55e; stroke-linejoin: miter"/>
   </g>
   <g id="patch_20">
    <path d="M 283.588437 89.187289 
L 293.668437 89.187289 
Q 293.956437 89.187289 293.956437 88.944337 
L 293.956437 69.46067 
Q 293.956437 69.217718 293.668437 69.217718 
L 283.588437 69.217718 
Q 283.300437 69.217718 283.300437 69.46067 
L 283.300437 88.944337 
Q 283.300437 89.187289 283.588437 89.187289 
z
" clip-path="url(#p05aa1e16e5)" style="fill: #22c55e; stroke: #22c55e; stroke-linejoin: miter"/>
   </g>
   <g id="patch_21">
    <path d="M 297.988437 56.835873 
L 308.068437 56.835873 
Q 308.356437 56.835873 308.356437 56.592921 
L 308.356437 45.313087 
Q 308.356437 45.070135 308.068437 45.070135 
L 297.988437 45.070135 
Q 297.700437 45.070135 297.700437 45.313087 
L 297.700437 56.592921 
Q 297.700437 56.835873 297.988437 56.835873 
z
" clip-path="url(#p05aa1e16e5)" style="fill: #22c55e; stroke: #22c55e; stroke-linejoin: miter"/>
   </g>
   <g id="patch_22">
    <path d="M 312.388437 88.840967 
L 322.468437 88.840967 
Q 322.756437 88.840967 322.756437 88.598015 
L 322.756437 67.892792 
Q 322.756437 67.64984 322.468437 67.64984 
L 312.388437 67.64984 
Q 312.100437 67.64984 312.100437 67.892792 
L 312.100437 88.598015 
Q 312.100437 88.840967 312.388437 88.840967 
z
" clip-path="url(#p05aa1e16e5)" style="fill: #ef4444; stroke: #ef4444; stroke-linejoin: miter"/>
   </g>
   <g id="patch_23">
    <path d="M 326.788437 86.288683 
L 336.868437 86.288683 
Q 337.156437 86.288683 337.156437 86.045731 
L 337.156437 78.66379 
Q 337.156437 78.420837 336.868437 78.420837 
L 326.788437 78.420837 
Q 326.500437 78.420837 326.500437 78.66379 
L 326.500437 86.045731 
Q 326.500437 86.288683 326.788437 86.288683 
z
" clip-path="url(#p05aa1e16e5)" style="fill: #22c55e; stroke: #22c55e; stroke-linejoin: miter"/>
   </g>
   <g id="patch_24">
    <path d="M 341.188437 108.412916 
L 351.268437 108.412916 
Q 351.556437 108.412916 351.556437 108.169964 
L 351.556437 95.651019 
Q 351.556437 95.408067 351.268437 95.408067 
L 341.188437 95.408067 
Q 340.900437 95.408067 340.900437 95.651019 
L 340.900437 108.169964 
Q 340.900437 108.412916 341.188437 108.412916 
z
" clip-path="url(#p05aa1e16e5)" style="fill: #22c55e; stroke: #22c55e; stroke-linejoin: miter"/>
   </g>
   <g id="patch_25">
    <path d="M 355.588437 112.439772 
L 365.668437 112.439772 
Q 365.956437 112.439772 365.956437 112.196819 
L 365.956437 100.771114 
Q 365.956437 100.528161 365.668437 100.528161 
L 355.588437 100.528161 
Q 355.300437 100.528161 355.300437 100.771114 
L 355.300437 112.196819 
Q 355.300437 112.439772 355.588437 112.439772 
z
" clip-path="url(#p05aa1e16e5)" style="fill: #ef4444; stroke: #ef4444; stroke-linejoin: miter"/>
   </g>
   <g id="patch_26">
    <path d="M 369.988437 134.854232 
L 380.068437 134.854232 
Q 380.356437 134.854232 380.356437 134.61128 
L 380.356437 126.832348 
Q 380.356437 126.589396 380.068437 126.589396 
L 369.988437 126.589396 
Q 369.700437 126.589396 369.700437 126.832348 
L 369.700437 134.61128 
Q 369.700437 134.854232 369.988437 134.854232 
z
" clip-path="url(#p05aa1e16e5)" style="fill: #ef4444; stroke: #ef4444; stroke-linejoin: miter"/>
   </g>
   <g id="patch_27">
    <path d="M 384.388437 136.135246 
L 394.468437 136.135246 
Q 394.756437 136.135246 394.756437 135.892294 
L 394.756437 131.219807 
Q 394.756437 130.976855 394.468437 130.976855 
L 384.388437 130.976855 
Q 384.100437 130.976855 384.100437 131.219807 
L 384.100437 135.892294 
Q 384.100437 136.135246 384.388437 136.135246 
z
" clip-path="url(#p05aa1e16e5)" style="fill: #22c55e; stroke: #22c55e; stroke-linejoin: miter"/>
   </g>
   <g id="patch_28">
    <path d="M 398.788437 136.225748 
L 408.868437 136.225748 
Q 409.156437 136.225748 409.156437 135.982796 
L 409.156437 129.62527 
Q 409.156437 129.382318 408.868437 129.382318 
L 398.788437 129.382318 
Q 398.500437 129.382318 398.500437 129.62527 
L 398.500437 135.982796 
Q 398.500437 136.225748 398.788437 136.225748 
z
" clip-path="url(#p05aa1e16e5)" style="fill: #ef4444; stroke: #ef4444; stroke-linejoin: miter"/>
   </g>
   <g id="patch_29">
    <path d="M 413.188437 136.149812 
L 423.268437 136.149812 
Q 423.556437 136.149812 423.556437 135.906859 
L 423.556437 118.682279 
Q 423.556437 118.439327 423.268437 118.439327 
L 413.188437 118.439327 
Q 412.900437 118.439327 412.900437 118.682279 
L 412.900437 135.906859 
Q 412.900437 136.149812 413.188437 136.149812 
z
" clip-path="url(#p05aa1e16e5)" style="fill: #22c55e; stroke: #22c55e; stroke-linejoin: miter"/>
   </g>
   <g id="patch_30">
    <path d="M 427.588437 154.308933 
L 437.668437 154.308933 
Q 437.956437 154.308933 437.956437 154.065981 
L 437.956437 132.534554 
Q 437.956437 132.291602 437.668437 132.291602 
L 427.588437 132.291602 
Q 427.300437 132.291602 427.300437 132.534554 
L 427.300437 154.065981 
Q 427.300437 154.308933 427.588437 154.308933 
z
" clip-path="url(#p05aa1e16e5)" style="fill: #ef4444; stroke: #ef4444; stroke-linejoin: miter"/>
   </g>
   <g id="patch_31">
    <path d="M 441.988437 141.882928 
L 452.068437 141.882928 
Q 452.356437 141.882928 452.356437 141.639976 
L 452.356437 128.224695 
Q 452.356437 127.981743 452.068437 127.981743 
L 441.988437 127.981743 
Q 441.700437 127.981743 441.700437 128.224695 
L 441.700437 141.639976 
Q 441.700437 141.882928 441.988437 141.882928 
z
" clip-path="url(#p05aa1e16e5)" style="fill: #22c55e; stroke: #22c55e; stroke-linejoin: miter"/>
   </g>
   <g id="patch_32">
    <path d="M 456.388437 134.613541 
L 466.468437 134.613541 
Q 466.756437 134.613541 466.756437 134.370589 
L 466.756437 122.305507 
Q 466.756437 122.062554 466.468437 122.062554 
L 456.388437 122.062554 
Q 456.100437 122.062554 456.100437 122.305507 
L 456.100437 134.370589 
Q 456.100437 134.613541 456.388437 134.613541 
z
" clip-path="url(#p05aa1e16e5)" style="fill: #22c55e; stroke: #22c55e; stroke-linejoin: miter"/>
   </g>
   <g id="matplotlib.axis_1">
    <g id="xtick_1">
     <g id="line2d_1">
      <path d="M 43.828437 187.061852 
L 43.828437 24.798438 
" clip-path="url(#p05aa1e16e5)" style="fill: none; stroke: #374151; stroke-opacity: 0.1; stroke-width: 0.8; stroke-linecap: square"/>
     </g>
     <g id="line2d_2">
      <defs>
       <path id="m8771aadcf9" d="M 0 0 
L 0 3.5 
" style="stroke: #4b5563; stroke-width: 0.8"/>
      </defs>
      <g>
       <use xlink:href="#m8771aadcf9" x="43.828437" y="187.061852" style="fill: #4b5563; stroke: #4b5563; stroke-width: 0.8"/>
      </g>
     </g>
    </g>
    <g id="xtick_2">
     <g id="line2d_3">
      <path d="M 115.828438 187.061852 
L 115.828438 24.798438 
" clip-path="url(#p05aa1e16e5)" style="fill: none; stroke: #374151; stroke-opacity: 0.1; stroke-width: 0.8; stroke-linecap: square"/>
     </g>
     <g id="line2d_4">
      <g>
       <use xlink:href="#m8771aadcf9" x="115.828438" y="187.061852" style="fill: #4b5563; stroke: #4b5563; stroke-width: 0.8"/>
      </g>
     </g>
    </g>
    <g id="xtick_3">
     <g id="line2d_5">
      <path d="M 187.828438 187.061852 
L 187.828438 24.798438 
" clip-path="url(#p05aa1e16e5)" style="fill: none; stroke: #374151; stroke-opacity: 0.1; stroke-width: 0.8; stroke-linecap: square"/>
     </g>
     <g id="line2d_6">
      <g>
       <use xlink:href="#m8771aadcf9" x="187.828438" y="187.061852" style="fill: #4b5563; stroke: #4b5563; stroke-width: 0.8"/>
      </g>
     </g>
    </g>
    <g id="xtick_4">
     <g id="line2d_7">
      <path d="M 259.828437 187.061852 
L 259.828437 24.798438 
" clip-path="url(#p05aa1e16e5)" style="fill: none; stroke: #374151; stroke-opacity: 0.1; stroke-width: 0.8; stroke-linecap: square"/>
     </g>
     <g id="line2d_8">
      <g>
       <use xlink:href="#m8771aadcf9" x="259.828437" y="187.061852" style="fill: #4b5563; stroke: #4b5563; stroke-width: 0.8"/>
      </g>
     </g>
    </g>
    <g id="xtick_5">
     <g id="line2d_9">
      <path d="M 331.828438 187.061852 
L 331.828438 24.798438 
" clip-path="url(#p05aa1e16e5)" style="fill: none; stroke: #374151; stroke-opacity: 0.1; stroke-width: 0.8; stroke-linecap: square"/>
     </g>
     <g id="line2d_10">
      <g>
       <use xlink:href="#m8771aadcf9" x="331.828438" y="187.061852" style="fill: #4b5563; stroke: #4b5563; stroke-width: 0.8"/>
      </g>
     </g>
    </g>
    <g id="xtick_6">
     <g id="line2d_11">
      <path d="M 403.828437 187.061852 
L 403.828437 24.798438 
" clip-path="url(#p05aa1e16e5)" style="fill: none; stroke: #374151; stroke-opacity: 0.1; stroke-width: 0.8; stroke-linecap: square"/>
     </g>
     <g id="line2d_12">
      <g>
       <use xlink:href="#m8771aadcf9" x="403.828437" y="187.061852" style="fill: #4b5563; stroke: #4b5563; stroke-width: 0.8"/>
      </g>
     </g>
    </g>
    <g id="xtick_7">
     <g id="line2d_13">
      <path d="M 475.828437 187.061852 
L 475.828437 24.798438 
" clip-path="url(#p05aa1e16e5)" style="fill: none; stroke: #374151; stroke-opacity: 0.1; stroke-width: 0.8; stroke-linecap: square"/>
     </g>
     <g id="line2d_14">
      <g>
       <use xlink:href="#m8771aadcf9" x="475.828437" y="187.061852" style="fill: #4b5563; stroke: #4b5563; stroke-width: 0.8"/>
      </g>
     </g>
    </g>
   </g>
   <g id="matplotlib.axis_2">
    <g id="ytick_1">
     <g id="line2d_15">
      <path d="M 29.428438 173.552972 
L 475.828437 173.552972 
" clip-path="url(#p05aa1e16e5)" style="fill: none; stroke: #374151; stroke-opacity: 0.1; stroke-width: 0.8; stroke-linecap: square"/>
     </g>
     <g id="line2d_16">
      <defs>
       <path id="mb8e8c872e1" d="M 0 0 
L -3.5 0 
" style="stroke: #4b5563; stroke-width: 0.8"/>
      </defs>
      <g>
       <use xlink:href="#mb8e8c872e1" x="29.428438" y="173.552972" style="fill: #4b5563; stroke: #4b5563; stroke-width: 0.8"/>
      </g>
     </g>
     <g id="text_1">
      <!-- 100 -->
      <g style="fill: #4b5563" transform="translate(9.067187 176.212425) scale(0.07 -0.07)">
       <defs>
        <path id="DejaVuSans-31" d="M 794 531 
L 1825 531 
L 1825 4091 
L 703 3866 
L 703 4441 
L 1819 4666 
L 2450 4666 
L 2450 531 
L 3481 531 
L 3481 0 
L 794 0 
L 794 531 
z
" transform="scale(0.015625)"/>
        <path id="DejaVuSans-30" d="M 2034 4250 
Q 1547 4250 1301 3770 
Q 1056 3291 1056 2328 
Q 1056 1369 1301 889 
Q 1547 409 2034 409 
Q 2525 409 2770 889 
Q 3016 1369 3016 2328 
Q 3016 3291 2770 3770 
Q 2525 4250 2034 4250 
z
M 2034 4750 
Q 2819 4750 3233 4129 
Q 3647 3509 3647 2328 
Q 3647 1150 3233 529 
Q 2819 -91 2034 -91 
Q 1250 -91 836 529 
Q 422 1150 422 2328 
Q 422 3509 836 4129 
Q 1250 4750 2034 4750 
z
" transform="scale(0.015625)"/>
       </defs>
       <use xlink:href="#DejaVuSans-31"/>
       <use xlink:href="#DejaVuSans-30" transform="translate(63.623047 0)"/>
       <use xlink:href="#DejaVuSans-30" transform="translate(127.246094 0)"/>
      </g>
     </g>
    </g>
    <g id="ytick_2">
     <g id="line2d_17">
      <path d="M 29.428438 149.25774 
L 475.828437 149.25774 
" clip-path="url(#p05aa1e16e5)" style="fill: none; stroke: #374151; stroke-opacity: 0.1; stroke-width: 0.8; stroke-linecap: square"/>
     </g>
     <g id="line2d_18">
      <g>
       <use xlink:href="#mb8e8c872e1" x="29.428438" y="149.25774" style="fill: #4b5563; stroke: #4b5563; stroke-width: 0.8"/>
      </g>
     </g>
     <g id="text_2">
      <!-- 102 -->
      <g style="fill: #4b5563" transform="translate(9.067187 151.917193) scale(0.07 -0.07)">
       <defs>
        <path id="DejaVuSans-32" d="M 1228 531 
L 3431 531 
L 3431 0 
L 469 0 
L 469 531 
Q 828 903 1448 1529 
Q 2069 2156 2228 2338 
Q 2531 2678 2651 2914 
Q 2772 3150 2772 3378 
Q 2772 3750 2511 3984 
Q 2250 4219 1831 4219 
Q 1534 4219 1204 4116 
Q 875 4013 500 3803 
L 500 4441 
Q 881 4594 1212 4672 
Q 1544 4750 1819 4750 
Q 2544 4750 2975 4387 
Q 3406 4025 3406 3419 
Q 3406 3131 3298 2873 
Q 3191 2616 2906 2266 
Q 2828 2175 2409 1742 
Q 1991 1309 1228 531 
z
" transform="scale(0.015625)"/>
       </defs>
       <use xlink:href="#DejaVuSans-31"/>
       <use xlink:href="#DejaVuSans-30" transform="translate(63.623047 0)"/>
       <use xlink:href="#DejaVuSans-32" transform="translate(127.246094 0)"/>
      </g>
     </g>
    </g>
    <g id="ytick_3">
     <g id="line2d_19">
      <path d="M 29.428438 124.962508 
L 475.828437 124.962508 
" clip-path="url(#p05aa1e16e5)" style="fill: none; stroke: #374151; stroke-opacity: 0.1; stroke-width: 0.8; stroke-linecap: square"/>
     </g>
     <g id="line2d_20">
      <g>
       <use xlink:href="#mb8e8c872e1" x="29.428438" y="124.962508" style="fill: #4b5563; stroke: #4b5563; stroke-width: 0.8"/>
      </g>
     </g>
     <g id="text_3">
      <!-- 104 -->
      <g style="fill: #4b5563" transform="translate(9.067187 127.621961) scale(0.07 -0.07)">
       <defs>
        <path id="DejaVuSans-34" d="M 2419 4116 
L 825 1625 
L 2419 1625 
L 2419 4116 
z
M 2253 4666 
L 3047 4666 
L 3047 1625 
L 3713 1625 
L 3713 1100 
L 3047 1100 
L 3047 0 
L 2419 0 
L 2419 1100 
L 313 1100 
L 313 1709 
L 2253 4666 
z
" transform="scale(0.015625)"/>
       </defs>
       <use xlink:href="#DejaVuSans-31"/>
       <use xlink:href="#DejaVuSans-30" transform="translate(63.623047 0)"/>
       <use xlink:href="#DejaVuSans-34" transform="translate(127.246094 0)"/>
      </g>
     </g>
    </g>
    <g id="ytick_4">
     <g id="line2d_21">
      <path d="M 29.428438 100.667276 
L 475.828437 100.667276 
" clip-path="url(#p05aa1e16e5)" style="fill: none; stroke: #374151; stroke-opacity: 0.1; stroke-width: 0.8; stroke-linecap: square"/>
     </g>
     <g id="line2d_22">
      <g>
       <use xlink:href="#mb8e8c872e1" x="29.428438" y="100.667276" style="fill: #4b5563; stroke: #4b5563; stroke-width: 0.8"/>
      </g>
     </g>
     <g id="text_4">
      <!-- 106 -->
      <g style="fill: #4b5563" transform="translate(9.067187 103.326729) scale(0.07 -0.07)">
       <defs>
        <path id="DejaVuSans-36" d="M 2113 2584 
Q 1688 2584 1439 2293 
Q 1191 2003 1191 1497 
Q 1191 994 1439 701 
Q 1688 409 2113 409 
Q 2538 409 2786 701 
Q 3034 994 3034 1497 
Q 3034 2003 2786 2293 
Q 2538 2584 2113 2584 
z
M 3366 4563 
L 3366 3988 
Q 3128 4100 2886 4159 
Q 2644 4219 2406 4219 
Q 1781 4219 1451 3797 
Q 1122 3375 1075 2522 
Q 1259 2794 1537 2939 
Q 1816 3084 2150 3084 
Q 2853 3084 3261 2657 
Q 3669 2231 3669 1497 
Q 3669 778 3244 343 
Q 2819 -91 2113 -91 
Q 1303 -91 875 529 
Q 447 1150 447 2328 
Q 447 3434 972 4092 
Q 1497 4750 2381 4750 
Q 2619 4750 2861 4703 
Q 3103 4656 3366 4563 
z
" transform="scale(0.015625)"/>
       </defs>
       <use xlink:href="#DejaVuSans-31"/>
       <use xlink:href="#DejaVuSans-30" transform="translate(63.623047 0)"/>
       <use xlink:href="#DejaVuSans-36" transform="translate(127.246094 0)"/>
      </g>
     </g>
    </g>
    <g id="ytick_5">
     <g id="line2d_23">
      <path d="M 29.428438 76.372043 
L 475.828437 76.372043 
" clip-path="url(#p05aa1e16e5)" style="fill: none; stroke: #374151; stroke-opacity: 0.1; stroke-width: 0.8; stroke-linecap: square"/>
     </g>
     <g id="line2d_24">
      <g>
       <use xlink:href="#mb8e8c872e1" x="29.428438" y="76.372043" style="fill: #4b5563; stroke: #4b5563; stroke-width: 0.8"/>
      </g>
     </g>
     <g id="text_5">
      <!-- 108 -->
      <g style="fill: #4b5563" transform="translate(9.067187 79.031497) scale(0.07 -0.07)">
       <defs>
        <path id="DejaVuSans-38" d="M 2034 2216 
Q 1584 2216 1326 1975 
Q 1069 1734 1069 1313 
Q 1069 891 1326 650 
Q 1584 409 2034 409 
Q 2484 409 2743 651 
Q 3003 894 3003 1313 
Q 3003 1734 2745 1975 
Q 2488 2216 2034 2216 
z
M 1403 2484 
Q 997 2584 770 2862 
Q 544 3141 544 3541 
Q 544 4100 942 4425 
Q 1341 4750 2034 4750 
Q 2731 4750 3128 4425 
Q 3525 4100 3525 3541 
Q 3525 3141 3298 2862 
Q 3072 2584 2669 2484 
Q 3125 2378 3379 2068 
Q 3634 1759 3634 1313 
Q 3634 634 3220 271 
Q 2806 -91 2034 -91 
Q 1263 -91 848 271 
Q 434 634 434 1313 
Q 434 1759 690 2068 
Q 947 2378 1403 2484 
z
M 1172 3481 
Q 1172 3119 1398 2916 
Q 1625 2713 2034 2713 
Q 2441 2713 2670 2916 
Q 2900 3119 2900 3481 
Q 2900 3844 2670 4047 
Q 2441 4250 2034 4250 
Q 1625 4250 1398 4047 
Q 1172 3844 1172 3481 
z
" transform="scale(0.015625)"/>
       </defs>
       <use xlink:href="#DejaVuSans-31"/>
       <use xlink:href="#DejaVuSans-30" transform="translate(63.623047 0)"/>
       <use xlink:href="#DejaVuSans-38" transform="translate(127.246094 0)"/>
      </g>
     </g>
    </g>
    <g id="ytick_6">
     <g id="line2d_25">
      <path d="M 29.428438 52.076811 
L 475.828437 52.076811 
" clip-path="url(#p05aa1e16e5)" style="fill: none; stroke: #374151; stroke-opacity: 0.1; stroke-width: 0.8; stroke-linecap: square"/>
     </g>
     <g id="line2d_26">
      <g>
       <use xlink:href="#mb8e8c872e1" x="29.428438" y="52.076811" style="fill: #4b5563; stroke: #4b5563; stroke-width: 0.8"/>
      </g>
     </g>
     <g id="text_6">
      <!-- 110 -->
      <g style="fill: #4b5563" transform="translate(9.067187 54.736264) scale(0.07 -0.07)">
       <use xlink:href="#DejaVuSans-31"/>
       <use xlink:href="#DejaVuSans-31" transform="translate(63.623047 0)"/>
       <use xlink:href="#DejaVuSans-30" transform="translate(127.246094 0)"/>
      </g>
     </g>
    </g>
    <g id="ytick_7">
     <g id="line2d_27">
      <path d="M 29.428438 27.781579 
L 475.828437 27.781579 
" clip-path="url(#p05aa1e16e5)" style="fill: none; stroke: #374151; stroke-opacity: 0.1; stroke-width: 0.8; stroke-linecap: square"/>
     </g>
     <g id="line2d_28">
      <g>
       <use xlink:href="#mb8e8c872e1" x="29.428438" y="27.781579" style="fill: #4b5563; stroke: #4b5563; stroke-width: 0.8"/>
      </g>
     </g>
     <g id="text_7">
      <!-- 112 -->
      <g style="fill: #4b5563" transform="translate(9.067187 30.441032) scale(0.07 -0.07)">
       <use xlink:href="#DejaVuSans-31"/>
       <use xlink:href="#DejaVuSans-31" transform="translate(63.623047 0)"/>
       <use xlink:href="#DejaVuSans-32" transform="translate(127.246094 0)"/>
      </g>
     </g>
    </g>
   </g>
   <g id="line2d_29">
    <path d="M 43.828437 179.686242 
L 43.828437 160.880921 
" clip-path="url(#p05aa1e16e5)" style="fill: none; stroke: #22c55e; stroke-width: 0.8; stroke-linecap: square"/>
   </g>
   <g id="line2d_30">
    <path d="M 58.228437 148.970266 
L 58.228437 127.30942 
" clip-path="url(#p05aa1e16e5)" style="fill: none; stroke: #ef4444; stroke-width: 0.8; stroke-linecap: square"/>
   </g>
   <g id="line2d_31">
    <path d="M 72.628437 122.682229 
L 72.628437 97.607813 
" clip-path="url(#p05aa1e16e5)" style="fill: none; stroke: #ef4444; stroke-width: 0.8; stroke-linecap: square"/>
   </g>
   <g id="line2d_32">
    <path d="M 87.028437 121.586848 
L 87.028437 102.636734 
" clip-path="url(#p05aa1e16e5)" style="fill: none; stroke: #22c55e; stroke-width: 0.8; stroke-linecap: square"/>
   </g>
   <g id="line2d_33">
    <path d="M 101.428438 142.61964 
L 101.428438 105.98528 
" clip-path="url(#p05aa1e16e5)" style="fill: none; stroke: #22c55e; stroke-width: 0.8; stroke-linecap: square"/>
   </g>
   <g id="line2d_34">
    <path d="M 115.828438 145.853904 
L 115.828438 114.513902 
" clip-path="url(#p05aa1e16e5)" style="fill: none; stroke: #22c55e; stroke-width: 0.8; stroke-linecap: square"/>
   </g>
   <g id="line2d_35">
    <path d="M 130.228437 125.147286 
L 130.228437 88.498493 
" clip-path="url(#p05aa1e16e5)" style="fill: none; stroke: #22c55e; stroke-width: 0.8; stroke-linecap: square"/>
   </g>
   <g id="line2d_36">
    <path d="M 144.628437 132.542641 
L 144.628437 96.943432 
" clip-path="url(#p05aa1e16e5)" style="fill: none; stroke: #ef4444; stroke-width: 0.8; stroke-linecap: square"/>
   </g>
   <g id="line2d_37">
    <path d="M 159.028437 150.212228 
L 159.028437 98.364852 
" clip-path="url(#p05aa1e16e5)" style="fill: none; stroke: #22c55e; stroke-width: 0.8; stroke-linecap: square"/>
   </g>
   <g id="line2d_38">
    <path d="M 173.428438 113.278209 
L 173.428438 87.918657 
" clip-path="url(#p05aa1e16e5)" style="fill: none; stroke: #22c55e; stroke-width: 0.8; stroke-linecap: square"/>
   </g>
   <g id="line2d_39">
    <path d="M 187.828438 121.494272 
L 187.828438 97.300779 
" clip-path="url(#p05aa1e16e5)" style="fill: none; stroke: #ef4444; stroke-width: 0.8; stroke-linecap: square"/>
   </g>
   <g id="line2d_40">
    <path d="M 202.228437 112.005049 
L 202.228437 82.853746 
" clip-path="url(#p05aa1e16e5)" style="fill: none; stroke: #22c55e; stroke-width: 0.8; stroke-linecap: square"/>
   </g>
   <g id="line2d_41">
    <path d="M 216.628437 144.983319 
L 216.628437 95.658764 
" clip-path="url(#p05aa1e16e5)" style="fill: none; stroke: #22c55e; stroke-width: 0.8; stroke-linecap: square"/>
   </g>
   <g id="line2d_42">
    <path d="M 231.028437 128.154185 
L 231.028437 103.220388 
" clip-path="url(#p05aa1e16e5)" style="fill: none; stroke: #22c55e; stroke-width: 0.8; stroke-linecap: square"/>
   </g>
   <g id="line2d_43">
    <path d="M 245.428437 114.250163 
L 245.428437 67.249449 
" clip-path="url(#p05aa1e16e5)" style="fill: none; stroke: #22c55e; stroke-width: 0.8; stroke-linecap: square"/>
   </g>
   <g id="line2d_44">
    <path d="M 259.828437 119.656845 
L 259.828437 84.928181 
" clip-path="url(#p05aa1e16e5)" style="fill: none; stroke: #22c55e; stroke-width: 0.8; stroke-linecap: square"/>
   </g>
   <g id="line2d_45">
    <path d="M 274.228437 97.673324 
L 274.228437 61.446792 
" clip-path="url(#p05aa1e16e5)" style="fill: none; stroke: #22c55e; stroke-width: 0.8; stroke-linecap: square"/>
   </g>
   <g id="line2d_46">
    <path d="M 288.628437 97.207764 
L 288.628437 65.53029 
" clip-path="url(#p05aa1e16e5)" style="fill: none; stroke: #22c55e; stroke-width: 0.8; stroke-linecap: square"/>
   </g>
   <g id="line2d_47">
    <path d="M 303.028437 67.206119 
L 303.028437 32.174047 
" clip-path="url(#p05aa1e16e5)" style="fill: none; stroke: #22c55e; stroke-width: 0.8; stroke-linecap: square"/>
   </g>
   <g id="line2d_48">
    <path d="M 317.428437 103.47028 
L 317.428437 56.663347 
" clip-path="url(#p05aa1e16e5)" style="fill: none; stroke: #ef4444; stroke-width: 0.8; stroke-linecap: square"/>
   </g>
   <g id="line2d_49">
    <path d="M 331.828438 95.454625 
L 331.828438 65.833329 
" clip-path="url(#p05aa1e16e5)" style="fill: none; stroke: #22c55e; stroke-width: 0.8; stroke-linecap: square"/>
   </g>
   <g id="line2d_50">
    <path d="M 346.228437 119.639821 
L 346.228437 92.488288 
" clip-path="url(#p05aa1e16e5)" style="fill: none; stroke: #22c55e; stroke-width: 0.8; stroke-linecap: square"/>
   </g>
   <g id="line2d_51">
    <path d="M 360.628437 122.992696 
L 360.628437 83.771689 
" clip-path="url(#p05aa1e16e5)" style="fill: none; stroke: #ef4444; stroke-width: 0.8; stroke-linecap: square"/>
   </g>
   <g id="line2d_52">
    <path d="M 375.028437 149.114829 
L 375.028437 118.42316 
" clip-path="url(#p05aa1e16e5)" style="fill: none; stroke: #ef4444; stroke-width: 0.8; stroke-linecap: square"/>
   </g>
   <g id="line2d_53">
    <path d="M 389.428437 139.848287 
L 389.428437 117.094844 
" clip-path="url(#p05aa1e16e5)" style="fill: none; stroke: #22c55e; stroke-width: 0.8; stroke-linecap: square"/>
   </g>
   <g id="line2d_54">
    <path d="M 403.828437 140.265249 
L 403.828437 125.03874 
" clip-path="url(#p05aa1e16e5)" style="fill: none; stroke: #ef4444; stroke-width: 0.8; stroke-linecap: square"/>
   </g>
   <g id="line2d_55">
    <path d="M 418.228437 142.222115 
L 418.228437 105.374973 
" clip-path="url(#p05aa1e16e5)" style="fill: none; stroke: #22c55e; stroke-width: 0.8; stroke-linecap: square"/>
   </g>
   <g id="line2d_56">
    <path d="M 432.628437 162.995466 
L 432.628437 121.68849 
" clip-path="url(#p05aa1e16e5)" style="fill: none; stroke: #ef4444; stroke-width: 0.8; stroke-linecap: square"/>
   </g>
   <g id="line2d_57">
    <path d="M 447.028437 152.076016 
L 447.028437 114.179571 
" clip-path="url(#p05aa1e16e5)" style="fill: none; stroke: #22c55e; stroke-width: 0.8; stroke-linecap: square"/>
   </g>
   <g id="line2d_58">
    <path d="M 461.428437 148.661645 
L 461.428437 115.763531 
" clip-path="url(#p05aa1e16e5)" style="fill: none; stroke: #22c55e; stroke-width: 0.8; stroke-linecap: square"/>
   </g>
   <g id="patch_33">
    <path d="M 29.428438 187.061852 
L 29.428438 24.798438 
" style="fill: none; stroke: #1f2937; stroke-width: 0.8; stroke-linejoin: miter; stroke-linecap: square"/>
   </g>
   <g id="patch_34">
    <path d="M 29.428438 187.061852 
L 475.828437 187.061852 
" style="fill: none; stroke: #1f2937; stroke-width: 0.8; stroke-linejoin: miter; stroke-linecap: square"/>
   </g>
   <g id="text_8">
    <!-- Bull Flag — GOOGL 1D -->
    <g style="fill: #ffffff" transform="translate(190.259687 14.798438) scale(0.1 -0.1)">
     <defs>
      <path id="DejaVuSans-Bold-42" d="M 2456 2859 
Q 2741 2859 2887 2984 
Q 3034 3109 3034 3353 
Q 3034 3594 2887 3720 
Q 2741 3847 2456 3847 
L 1791 3847 
L 1791 2859 
L 2456 2859 
z
M 2497 819 
Q 2859 819 3042 972 
Q 3225 1125 3225 1434 
Q 3225 1738 3044 1889 
Q 2863 2041 2497 2041 
L 1791 2041 
L 1791 819 
L 2497 819 
z
M 3616 2497 
Q 4003 2384 4215 2081 
Q 4428 1778 4428 1338 
Q 4428 663 3972 331 
Q 3516 0 2584 0 
L 588 0 
L 588 4666 
L 2394 4666 
Q 3366 4666 3802 4372 
Q 4238 4078 4238 3431 
Q 4238 3091 4078 2852 
Q 3919 2613 3616 2497 
z
" transform="scale(0.015625)"/>
      <path id="DejaVuSans-Bold-75" d="M 500 1363 
L 500 3500 
L 1625 3500 
L 1625 3150 
Q 1625 2866 1622 2436 
Q 1619 2006 1619 1863 
Q 1619 1441 1641 1255 
Q 1663 1069 1716 984 
Q 1784 875 1895 815 
Q 2006 756 2150 756 
Q 2500 756 2700 1025 
Q 2900 1294 2900 1772 
L 2900 3500 
L 4019 3500 
L 4019 0 
L 2900 0 
L 2900 506 
Q 2647 200 2364 54 
Q 2081 -91 1741 -91 
Q 1134 -91 817 281 
Q 500 653 500 1363 
z
" transform="scale(0.015625)"/>
      <path id="DejaVuSans-Bold-6c" d="M 538 4863 
L 1656 4863 
L 1656 0 
L 538 0 
L 538 4863 
z
" transform="scale(0.015625)"/>
      <path id="DejaVuSans-Bold-20" transform="scale(0.015625)"/>
      <path id="DejaVuSans-Bold-46" d="M 588 4666 
L 3834 4666 
L 3834 3756 
L 1791 3756 
L 1791 2888 
L 3713 2888 
L 3713 1978 
L 1791 1978 
L 1791 0 
L 588 0 
L 588 4666 
z
" transform="scale(0.015625)"/>
      <path id="DejaVuSans-Bold-61" d="M 2106 1575 
Q 1756 1575 1579 1456 
Q 1403 1338 1403 1106 
Q 1403 894 1545 773 
Q 1688 653 1941 653 
Q 2256 653 2472 879 
Q 2688 1106 2688 1447 
L 2688 1575 
L 2106 1575 
z
M 3816 1997 
L 3816 0 
L 2688 0 
L 2688 519 
Q 2463 200 2181 54 
Q 1900 -91 1497 -91 
Q 953 -91 614 226 
Q 275 544 275 1050 
Q 275 1666 698 1953 
Q 1122 2241 2028 2241 
L 2688 2241 
L 2688 2328 
Q 2688 2594 2478 2717 
Q 2269 2841 1825 2841 
Q 1466 2841 1156 2769 
Q 847 2697 581 2553 
L 581 3406 
Q 941 3494 1303 3539 
Q 1666 3584 2028 3584 
Q 2975 3584 3395 3211 
Q 3816 2838 3816 1997 
z
" transform="scale(0.015625)"/>
      <path id="DejaVuSans-Bold-67" d="M 2919 594 
Q 2688 288 2409 144 
Q 2131 0 1766 0 
Q 1125 0 706 504 
Q 288 1009 288 1791 
Q 288 2575 706 3076 
Q 1125 3578 1766 3578 
Q 2131 3578 2409 3434 
Q 2688 3291 2919 2981 
L 2919 3500 
L 4044 3500 
L 4044 353 
Q 4044 -491 3511 -936 
Q 2978 -1381 1966 -1381 
Q 1638 -1381 1331 -1331 
Q 1025 -1281 716 -1178 
L 716 -306 
Q 1009 -475 1290 -558 
Q 1572 -641 1856 -641 
Q 2406 -641 2662 -400 
Q 2919 -159 2919 353 
L 2919 594 
z
M 2181 2772 
Q 1834 2772 1640 2515 
Q 1447 2259 1447 1791 
Q 1447 1309 1634 1061 
Q 1822 813 2181 813 
Q 2531 813 2725 1069 
Q 2919 1325 2919 1791 
Q 2919 2259 2725 2515 
Q 2531 2772 2181 2772 
z
" transform="scale(0.015625)"/>
      <path id="DejaVuSans-Bold-2014" d="M 344 2156 
L 6056 2156 
L 6056 1350 
L 344 1350 
L 344 2156 
z
" transform="scale(0.015625)"/>
      <path id="DejaVuSans-Bold-47" d="M 4781 347 
Q 4331 128 3847 18 
Q 3363 -91 2847 -91 
Q 1681 -91 1000 561 
Q 319 1213 319 2328 
Q 319 3456 1012 4103 
Q 1706 4750 2913 4750 
Q 3378 4750 3804 4662 
Q 4231 4575 4609 4403 
L 4609 3438 
Q 4219 3659 3833 3768 
Q 3447 3878 3059 3878 
Q 2341 3878 1952 3476 
Q 1563 3075 1563 2328 
Q 1563 1588 1938 1184 
Q 2313 781 3003 781 
Q 3191 781 3352 804 
Q 3513 828 3641 878 
L 3641 1784 
L 2906 1784 
L 2906 2591 
L 4781 2591 
L 4781 347 
z
" transform="scale(0.015625)"/>
      <path id="DejaVuSans-Bold-4f" d="M 2719 3878 
Q 2169 3878 1866 3472 
Q 1563 3066 1563 2328 
Q 1563 1594 1866 1187 
Q 2169 781 2719 781 
Q 3272 781 3575 1187 
Q 3878 1594 3878 2328 
Q 3878 3066 3575 3472 
Q 3272 3878 2719 3878 
z
M 2719 4750 
Q 3844 4750 4481 4106 
Q 5119 3463 5119 2328 
Q 5119 1197 4481 553 
Q 3844 -91 2719 -91 
Q 1597 -91 958 553 
Q 319 1197 319 2328 
Q 319 3463 958 4106 
Q 1597 4750 2719 4750 
z
" transform="scale(0.015625)"/>
      <path id="DejaVuSans-Bold-4c" d="M 588 4666 
L 1791 4666 
L 1791 909 
L 3903 909 
L 3903 0 
L 588 0 
L 588 4666 
z
" transform="scale(0.015625)"/>
      <path id="DejaVuSans-Bold-31" d="M 750 831 
L 1813 831 
L 1813 3847 
L 722 3622 
L 722 4441 
L 1806 4666 
L 2950 4666 
L 2950 831 
L 4013 831 
L 4013 0 
L 750 0 
L 750 831 
z
" transform="scale(0.015625)"/>
      <path id="DejaVuSans-Bold-44" d="M 1791 3756 
L 1791 909 
L 2222 909 
Q 2959 909 3348 1275 
Q 3738 1641 3738 2338 
Q 3738 3031 3350 3393 
Q 2963 3756 2222 3756 
L 1791 3756 
z
M 588 4666 
L 1856 4666 
Q 2919 4666 3439 4514 
Q 3959 4363 4331 4000 
Q 4659 3684 4818 3271 
Q 4978 2859 4978 2338 
Q 4978 1809 4818 1395 
Q 4659 981 4331 666 
Q 3956 303 3431 151 
Q 2906 0 1856 0 
L 588 0 
L 588 4666 
z
" transform="scale(0.015625)"/>
     </defs>
     <use xlink:href="#DejaVuSans-Bold-42"/>
     <use xlink:href="#DejaVuSans-Bold-75" transform="translate(76.220703 0)"/>
     <use xlink:href="#DejaVuSans-Bold-6c" transform="translate(147.412109 0)"/>
     <use xlink:href="#DejaVuSans-Bold-6c" transform="translate(181.689453 0)"/>
     <use xlink:href="#DejaVuSans-Bold-20" transform="translate(215.966797 0)"/>
     <use xlink:href="#DejaVuSans-Bold-46" transform="translate(250.78125 0)"/>
     <use xlink:href="#DejaVuSans-Bold-6c" transform="translate(319.091797 0)"/>
     <use xlink:href="#DejaVuSans-Bold-61" transform="translate(353.369141 0)"/>
     <use xlink:href="#DejaVuSans-Bold-67" transform="translate(420.849609 0)"/>
     <use xlink:href="#DejaVuSans-Bold-20" transform="translate(492.431641 0)"/>
     <use xlink:href="#DejaVuSans-Bold-2014" transform="translate(527.246094 0)"/>
     <use xlink:href="#DejaVuSans-Bold-20" transform="translate(627.246094 0)"/>
     <use xlink:href="#DejaVuSans-Bold-47" transform="translate(662.060547 0)"/>
     <use xlink:href="#DejaVuSans-Bold-4f" transform="translate(744.140625 0)"/>
     <use xlink:href="#DejaVuSans-Bold-4f" transform="translate(829.150391 0)"/>
     <use xlink:href="#DejaVuSans-Bold-47" transform="translate(914.160156 0)"/>
     <use xlink:href="#DejaVuSans-Bold-4c" transform="translate(996.240234 0)"/>
     <use xlink:href="#DejaVuSans-Bold-20" transform="translate(1059.960938 0)"/>
     <use xlink:href="#DejaVuSans-Bold-31" transform="translate(1094.775391 0)"/>
     <use xlink:href="#DejaVuSans-Bold-44" transform="translate(1164.355469 0)"/>
    </g>
   </g>
  </g>
  <g id="axes_2">
   <g id="patch_35">
    <path d="M 29.428438 246.558438 
L 475.828437 246.558438 
L 475.828437 192.470633 
L 29.428438 192.470633 
z
" style="fill: #0a0f1a"/>
   </g>
   <g id="patch_36">
    <path d="M 49.719347 246.558438 
L 59.284085 246.558438 
L 59.284085 195.046242 
L 49.719347 195.046242 
z
" clip-path="url(#p6eadb8b20d)" style="fill: #22c55e; fill-opacity: 0.533333"/>
   </g>
   <g id="patch_37">
    <path d="M 63.383258 246.558438 
L 72.947997 246.558438 
L 72.947997 226.286767 
L 63.383258 226.286767 
z
" clip-path="url(#p6eadb8b20d)" style="fill: #ef4444; fill-opacity: 0.533333"/>
   </g>
   <g id="patch_38">
    <path d="M 77.04717 246.558438 
L 86.611909 246.558438 
L 86.611909 226.003756 
L 77.04717 226.003756 
z
" clip-path="url(#p6eadb8b20d)" style="fill: #ef4444; fill-opacity: 0.533333"/>
   </g>
   <g id="patch_39">
    <path d="M 90.711082 246.558438 
L 100.27582 246.558438 
L 100.27582 195.453067 
L 90.711082 195.453067 
z
" clip-path="url(#p6eadb8b20d)" style="fill: #22c55e; fill-opacity: 0.533333"/>
   </g>
   <g id="patch_40">
    <path d="M 104.374994 246.558438 
L 113.939732 246.558438 
L 113.939732 200.830762 
L 104.374994 200.830762 
z
" clip-path="url(#p6eadb8b20d)" style="fill: #22c55e; fill-opacity: 0.533333"/>
   </g>
   <g id="patch_41">
    <path d="M 118.038906 246.558438 
L 127.603644 246.558438 
L 127.603644 226.691018 
L 118.038906 226.691018 
z
" clip-path="url(#p6eadb8b20d)" style="fill: #22c55e; fill-opacity: 0.533333"/>
   </g>
   <g id="patch_42">
    <path d="M 131.702818 246.558438 
L 141.267556 246.558438 
L 141.267556 228.535564 
L 131.702818 228.535564 
z
" clip-path="url(#p6eadb8b20d)" style="fill: #22c55e; fill-opacity: 0.533333"/>
   </g>
   <g id="patch_43">
    <path d="M 145.36673 246.558438 
L 154.931468 246.558438 
L 154.931468 208.072347 
L 145.36673 208.072347 
z
" clip-path="url(#p6eadb8b20d)" style="fill: #ef4444; fill-opacity: 0.533333"/>
   </g>
   <g id="patch_44">
    <path d="M 159.030641 246.558438 
L 168.59538 246.558438 
L 168.59538 201.259817 
L 159.030641 201.259817 
z
" clip-path="url(#p6eadb8b20d)" style="fill: #22c55e; fill-opacity: 0.533333"/>
   </g>
   <g id="patch_45">
    <path d="M 172.694553 246.558438 
L 182.259291 246.558438 
L 182.259291 216.453312 
L 172.694553 216.453312 
z
" clip-path="url(#p6eadb8b20d)" style="fill: #22c55e; fill-opacity: 0.533333"/>
   </g>
   <g id="patch_46">
    <path d="M 186.358465 246.558438 
L 195.923203 246.558438 
L 195.923203 228.884046 
L 186.358465 228.884046 
z
" clip-path="url(#p6eadb8b20d)" style="fill: #ef4444; fill-opacity: 0.533333"/>
   </g>
   <g id="patch_47">
    <path d="M 200.022377 246.558438 
L 209.587115 246.558438 
L 209.587115 200.618142 
L 200.022377 200.618142 
z
" clip-path="url(#p6eadb8b20d)" style="fill: #22c55e; fill-opacity: 0.533333"/>
   </g>
   <g id="patch_48">
    <path d="M 213.686289 246.558438 
L 223.251027 246.558438 
L 223.251027 203.156213 
L 213.686289 203.156213 
z
" clip-path="url(#p6eadb8b20d)" style="fill: #22c55e; fill-opacity: 0.533333"/>
   </g>
   <g id="patch_49">
    <path d="M 227.350201 246.558438 
L 236.914939 246.558438 
L 236.914939 231.36809 
L 227.350201 231.36809 
z
" clip-path="url(#p6eadb8b20d)" style="fill: #22c55e; fill-opacity: 0.533333"/>
   </g>
   <g id="patch_50">
    <path d="M 241.014112 246.558438 
L 250.578851 246.558438 
L 250.578851 220.015267 
L 241.014112 220.015267 
z
" clip-path="url(#p6eadb8b20d)" style="fill: #22c55e; fill-opacity: 0.533333"/>
   </g>
   <g id="patch_51">
    <path d="M 254.678024 246.558438 
L 264.242763 246.558438 
L 264.242763 226.78516 
L 254.678024 226.78516 
z
" clip-path="url(#p6eadb8b20d)" style="fill: #22c55e; fill-opacity: 0.533333"/>
   </g>
   <g id="patch_52">
    <path d="M 268.341936 246.558438 
L 277.906674 246.558438 
L 277.906674 227.470983 
L 268.341936 227.470983 
z
" clip-path="url(#p6eadb8b20d)" style="fill: #22c55e; fill-opacity: 0.533333"/>
   </g>
   <g id="patch_53">
    <path d="M 282.005848 246.558438 
L 291.570586 246.558438 
L 291.570586 235.418849 
L 282.005848 235.418849 
z
" clip-path="url(#p6eadb8b20d)" style="fill: #22c55e; fill-opacity: 0.533333"/>
   </g>
   <g id="patch_54">
    <path d="M 295.66976 246.558438 
L 305.234498 246.558438 
L 305.234498 210.029848 
L 295.66976 210.029848 
z
" clip-path="url(#p6eadb8b20d)" style="fill: #22c55e; fill-opacity: 0.533333"/>
   </g>
   <g id="patch_55">
    <path d="M 309.333672 246.558438 
L 318.89841 246.558438 
L 318.89841 213.973896 
L 309.333672 213.973896 
z
" clip-path="url(#p6eadb8b20d)" style="fill: #ef4444; fill-opacity: 0.533333"/>
   </g>
   <g id="patch_56">
    <path d="M 322.997584 246.558438 
L 332.562322 246.558438 
L 332.562322 214.774778 
L 322.997584 214.774778 
z
" clip-path="url(#p6eadb8b20d)" style="fill: #22c55e; fill-opacity: 0.533333"/>
   </g>
   <g id="patch_57">
    <path d="M 336.661495 246.558438 
L 346.226234 246.558438 
L 346.226234 221.886869 
L 336.661495 221.886869 
z
" clip-path="url(#p6eadb8b20d)" style="fill: #22c55e; fill-opacity: 0.533333"/>
   </g>
   <g id="patch_58">
    <path d="M 350.325407 246.558438 
L 359.890145 246.558438 
L 359.890145 232.684572 
L 350.325407 232.684572 
z
" clip-path="url(#p6eadb8b20d)" style="fill: #ef4444; fill-opacity: 0.533333"/>
   </g>
   <g id="patch_59">
    <path d="M 363.989319 246.558438 
L 373.554057 246.558438 
L 373.554057 233.1458 
L 363.989319 233.1458 
z
" clip-path="url(#p6eadb8b20d)" style="fill: #ef4444; fill-opacity: 0.533333"/>
   </g>
   <g id="patch_60">
    <path d="M 377.653231 246.558438 
L 387.217969 246.558438 
L 387.217969 224.040169 
L 377.653231 224.040169 
z
" clip-path="url(#p6eadb8b20d)" style="fill: #22c55e; fill-opacity: 0.533333"/>
   </g>
   <g id="patch_61">
    <path d="M 391.317143 246.558438 
L 400.881881 246.558438 
L 400.881881 211.020495 
L 391.317143 211.020495 
z
" clip-path="url(#p6eadb8b20d)" style="fill: #ef4444; fill-opacity: 0.533333"/>
   </g>
   <g id="patch_62">
    <path d="M 404.981055 246.558438 
L 414.545793 246.558438 
L 414.545793 198.350439 
L 404.981055 198.350439 
z
" clip-path="url(#p6eadb8b20d)" style="fill: #22c55e; fill-opacity: 0.533333"/>
   </g>
   <g id="patch_63">
    <path d="M 418.644966 246.558438 
L 428.209705 246.558438 
L 428.209705 234.945574 
L 418.644966 234.945574 
z
" clip-path="url(#p6eadb8b20d)" style="fill: #ef4444; fill-opacity: 0.533333"/>
   </g>
   <g id="patch_64">
    <path d="M 432.308878 246.558438 
L 441.873617 246.558438 
L 441.873617 206.851747 
L 432.308878 206.851747 
z
" clip-path="url(#p6eadb8b20d)" style="fill: #22c55e; fill-opacity: 0.533333"/>
   </g>
   <g id="patch_65">
    <path d="M 445.97279 246.558438 
L 455.537528 246.558438 
L 455.537528 195.183157 
L 445.97279 195.183157 
z
" clip-path="url(#p6eadb8b20d)" style="fill: #22c55e; fill-opacity: 0.533333"/>
   </g>
   <g id="matplotlib.axis_3">
    <g id="xtick_8">
     <g id="line2d_59">
      <path d="M 54.501716 246.558438 
L 54.501716 192.470633 
" clip-path="url(#p6eadb8b20d)" style="fill: none; stroke: #374151; stroke-opacity: 0.1; stroke-width: 0.8; stroke-linecap: square"/>
     </g>
     <g id="line2d_60">
      <g>
       <use xlink:href="#m8771aadcf9" x="54.501716" y="246.558438" style="fill: #4b5563; stroke: #4b5563; stroke-width: 0.8"/>
      </g>
     </g>
     <g id="text_9">
      <!-- 0 -->
      <g style="fill: #4b5563" transform="translate(52.274841 258.877344) scale(0.07 -0.07)">
       <use xlink:href="#DejaVuSans-30"/>
      </g>
     </g>
    </g>
    <g id="xtick_9">
     <g id="line2d_61">
      <path d="M 122.821275 246.558438 
L 122.821275 192.470633 
" clip-path="url(#p6eadb8b20d)" style="fill: none; stroke: #374151; stroke-opacity: 0.1; stroke-width: 0.8; stroke-linecap: square"/>
     </g>
     <g id="line2d_62">
      <g>
       <use xlink:href="#m8771aadcf9" x="122.821275" y="246.558438" style="fill: #4b5563; stroke: #4b5563; stroke-width: 0.8"/>
      </g>
     </g>
     <g id="text_10">
      <!-- 5 -->
      <g style="fill: #4b5563" transform="translate(120.5944 258.877344) scale(0.07 -0.07)">
       <defs>
        <path id="DejaVuSans-35" d="M 691 4666 
L 3169 4666 
L 3169 4134 
L 1269 4134 
L 1269 2991 
Q 1406 3038 1543 3061 
Q 1681 3084 1819 3084 
Q 2600 3084 3056 2656 
Q 3513 2228 3513 1497 
Q 3513 744 3044 326 
Q 2575 -91 1722 -91 
Q 1428 -91 1123 -41 
Q 819 9 494 109 
L 494 744 
Q 775 591 1075 516 
Q 1375 441 1709 441 
Q 2250 441 2565 725 
Q 2881 1009 2881 1497 
Q 2881 1984 2565 2268 
Q 2250 2553 1709 2553 
Q 1456 2553 1204 2497 
Q 953 2441 691 2322 
L 691 4666 
z
" transform="scale(0.015625)"/>
       </defs>
       <use xlink:href="#DejaVuSans-35"/>
      </g>
     </g>
    </g>
    <g id="xtick_10">
     <g id="line2d_63">
      <path d="M 191.140834 246.558438 
L 191.140834 192.470633 
" clip-path="url(#p6eadb8b20d)" style="fill: none; stroke: #374151; stroke-opacity: 0.1; stroke-width: 0.8; stroke-linecap: square"/>
     </g>
     <g id="line2d_64">
      <g>
       <use xlink:href="#m8771aadcf9" x="191.140834" y="246.558438" style="fill: #4b5563; stroke: #4b5563; stroke-width: 0.8"/>
      </g>
     </g>
     <g id="text_11">
      <!-- 10 -->
      <g style="fill: #4b5563" transform="translate(186.687084 258.877344) scale(0.07 -0.07)">
       <use xlink:href="#DejaVuSans-31"/>
       <use xlink:href="#DejaVuSans-30" transform="translate(63.623047 0)"/>
      </g>
     </g>
    </g>
    <g id="xtick_11">
     <g id="line2d_65">
      <path d="M 259.460393 246.558438 
L 259.460393 192.470633 
" clip-path="url(#p6eadb8b20d)" style="fill: none; stroke: #374151; stroke-opacity: 0.1; stroke-width: 0.8; stroke-linecap: square"/>
     </g>
     <g id="line2d_66">
      <g>
       <use xlink:href="#m8771aadcf9" x="259.460393" y="246.558438" style="fill: #4b5563; stroke: #4b5563; stroke-width: 0.8"/>
      </g>
     </g>
     <g id="text_12">
      <!-- 15 -->
      <g style="fill: #4b5563" transform="translate(255.006643 258.877344) scale(0.07 -0.07)">
       <use xlink:href="#DejaVuSans-31"/>
       <use xlink:href="#DejaVuSans-35" transform="translate(63.623047 0)"/>
      </g>
     </g>
    </g>
    <g id="xtick_12">
     <g id="line2d_67">
      <path d="M 327.779953 246.558438 
L 327.779953 192.470633 
" clip-path="url(#p6eadb8b20d)" style="fill: none; stroke: #374151; stroke-opacity: 0.1; stroke-width: 0.8; stroke-linecap: square"/>
     </g>
     <g id="line2d_68">
      <g>
       <use xlink:href="#m8771aadcf9" x="327.779953" y="246.558438" style="fill: #4b5563; stroke: #4b5563; stroke-width: 0.8"/>
      </g>
     </g>
     <g id="text_13">
      <!-- 20 -->
      <g style="fill: #4b5563" transform="translate(323.326203 258.877344) scale(0.07 -0.07)">
       <use xlink:href="#DejaVuSans-32"/>
       <use xlink:href="#DejaVuSans-30" transform="translate(63.623047 0)"/>
      </g>
     </g>
    </g>
    <g id="xtick_13">
     <g id="line2d_69">
      <path d="M 396.099512 246.558438 
L 396.099512 192.470633 
" clip-path="url(#p6eadb8b20d)" style="fill: none; stroke: #374151; stroke-opacity: 0.1; stroke-width: 0.8; stroke-linecap: square"/>
     </g>
     <g id="line2d_70">
      <g>
       <use xlink:href="#m8771aadcf9" x="396.099512" y="246.558438" style="fill: #4b5563; stroke: #4b5563; stroke-width: 0.8"/>
      </g>
     </g>
     <g id="text_14">
      <!-- 25 -->
      <g style="fill: #4b5563" transform="translate(391.645762 258.877344) scale(0.07 -0.07)">
       <use xlink:href="#DejaVuSans-32"/>
       <use xlink:href="#DejaVuSans-35" transform="translate(63.623047 0)"/>
      </g>
     </g>
    </g>
    <g id="xtick_14">
     <g id="line2d_71">
      <path d="M 464.419071 246.558438 
L 464.419071 192.470633 
" clip-path="url(#p6eadb8b20d)" style="fill: none; stroke: #374151; stroke-opacity: 0.1; stroke-width: 0.8; stroke-linecap: square"/>
     </g>
     <g id="line2d_72">
      <g>
       <use xlink:href="#m8771aadcf9" x="464.419071" y="246.558438" style="fill: #4b5563; stroke: #4b5563; stroke-width: 0.8"/>
      </g>
     </g>
     <g id="text_15">
      <!-- 30 -->
      <g style="fill: #4b5563" transform="translate(459.965321 258.877344) scale(0.07 -0.07)">
       <defs>
        <path id="DejaVuSans-33" d="M 2597 2516 
Q 3050 2419 3304 2112 
Q 3559 1806 3559 1356 
Q 3559 666 3084 287 
Q 2609 -91 1734 -91 
Q 1441 -91 1130 -33 
Q 819 25 488 141 
L 488 750 
Q 750 597 1062 519 
Q 1375 441 1716 441 
Q 2309 441 2620 675 
Q 2931 909 2931 1356 
Q 2931 1769 2642 2001 
Q 2353 2234 1838 2234 
L 1294 2234 
L 1294 2753 
L 1863 2753 
Q 2328 2753 2575 2939 
Q 2822 3125 2822 3475 
Q 2822 3834 2567 4026 
Q 2313 4219 1838 4219 
Q 1578 4219 1281 4162 
Q 984 4106 628 3988 
L 628 4550 
Q 988 4650 1302 4700 
Q 1616 4750 1894 4750 
Q 2613 4750 3031 4423 
Q 3450 4097 3450 3541 
Q 3450 3153 3228 2886 
Q 3006 2619 2597 2516 
z
" transform="scale(0.015625)"/>
       </defs>
       <use xlink:href="#DejaVuSans-33"/>
       <use xlink:href="#DejaVuSans-30" transform="translate(63.623047 0)"/>
      </g>
     </g>
    </g>
   </g>
   <g id="matplotlib.axis_4">
    <g id="ytick_8">
     <g id="line2d_73">
      <path d="M 29.428438 246.558438 
L 475.828437 246.558438 
" clip-path="url(#p6eadb8b20d)" style="fill: none; stroke: #374151; stroke-opacity: 0.1; stroke-width: 0.8; stroke-linecap: square"/>
     </g>
     <g id="line2d_74">
      <g>
       <use xlink:href="#mb8e8c872e1" x="29.428438" y="246.558438" style="fill: #4b5563; stroke: #4b5563; stroke-width: 0.8"/>
      </g>
     </g>
     <g id="text_16">
      <!-- 0 -->
      <g style="fill: #4b5563" transform="translate(17.974688 249.217891) scale(0.07 -0.07)">
       <use xlink:href="#DejaVuSans-30"/>
      </g>
     </g>
    </g>
    <g id="ytick_9">
     <g id="line2d_75">
      <path d="M 29.428438 225.714336 
L 475.828437 225.714336 
" clip-path="url(#p6eadb8b20d)" style="fill: none; stroke: #374151; stroke-opacity: 0.1; stroke-width: 0.8; stroke-linecap: square"/>
     </g>
     <g id="line2d_76">
      <g>
       <use xlink:href="#mb8e8c872e1" x="29.428438" y="225.714336" style="fill: #4b5563; stroke: #4b5563; stroke-width: 0.8"/>
      </g>
     </g>
     <g id="text_17">
      <!-- 2 -->
      <g style="fill: #4b5563" transform="translate(17.974688 228.373789) scale(0.07 -0.07)">
       <use xlink:href="#DejaVuSans-32"/>
      </g>
     </g>
    </g>
    <g id="ytick_10">
     <g id="line2d_77">
      <path d="M 29.428438 204.870234 
L 475.828437 204.870234 
" clip-path="url(#p6eadb8b20d)" style="fill: none; stroke: #374151; stroke-opacity: 0.1; stroke-width: 0.8; stroke-linecap: square"/>
     </g>
     <g id="line2d_78">
      <g>
       <use xlink:href="#mb8e8c872e1" x="29.428438" y="204.870234" style="fill: #4b5563; stroke: #4b5563; stroke-width: 0.8"/>
      </g>
     </g>
     <g id="text_18">
      <!-- 4 -->
      <g style="fill: #4b5563" transform="translate(17.974688 207.529687) scale(0.07 -0.07)">
       <use xlink:href="#DejaVuSans-34"/>
      </g>
     </g>
    </g>
    <g id="text_19">
     <!-- Vol -->
     <g style="fill: #4b5563" transform="translate(12.518906 224.75141) rotate(-90) scale(0.07 -0.07)">
      <defs>
       <path id="DejaVuSans-56" d="M 1831 0 
L 50 4666 
L 709 4666 
L 2188 738 
L 3669 4666 
L 4325 4666 
L 2547 0 
L 1831 0 
z
" transform="scale(0.015625)"/>
       <path id="DejaVuSans-6f" d="M 1959 3097 
Q 1497 3097 1228 2736 
Q 959 2375 959 1747 
Q 959 1119 1226 758 
Q 1494 397 1959 397 
Q 2419 397 2687 759 
Q 2956 1122 2956 1747 
Q 2956 2369 2687 2733 
Q 2419 3097 1959 3097 
z
M 1959 3584 
Q 2709 3584 3137 3096 
Q 3566 2609 3566 1747 
Q 3566 888 3137 398 
Q 2709 -91 1959 -91 
Q 1206 -91 779 398 
Q 353 888 353 1747 
Q 353 2609 779 3096 
Q 1206 3584 1959 3584 
z
" transform="scale(0.015625)"/>
       <path id="DejaVuSans-6c" d="M 603 4863 
L 1178 4863 
L 1178 0 
L 603 0 
L 603 4863 
z
" transform="scale(0.015625)"/>
      </defs>
      <use xlink:href="#DejaVuSans-56"/>
      <use xlink:href="#DejaVuSans-6f" transform="translate(60.658203 0)"/>
      <use xlink:href="#DejaVuSans-6c" transform="translate(121.839844 0)"/>
     </g>
    </g>
    <g id="text_20">
     <!-- 1e6 -->
     <g style="fill: #4b5563" transform="translate(29.428438 189.470633) scale(0.1 -0.1)">
      <defs>
       <path id="DejaVuSans-65" d="M 3597 1894 
L 3597 1613 
L 953 1613 
Q 991 1019 1311 708 
Q 1631 397 2203 397 
Q 2534 397 2845 478 
Q 3156 559 3463 722 
L 3463 178 
Q 3153 47 2828 -22 
Q 2503 -91 2169 -91 
Q 1331 -91 842 396 
Q 353 884 353 1716 
Q 353 2575 817 3079 
Q 1281 3584 2069 3584 
Q 2775 3584 3186 3129 
Q 3597 2675 3597 1894 
z
M 3022 2063 
Q 3016 2534 2758 2815 
Q 2500 3097 2075 3097 
Q 1594 3097 1305 2825 
Q 1016 2553 972 2059 
L 3022 2063 
z
" transform="scale(0.015625)"/>
      </defs>
      <use xlink:href="#DejaVuSans-31"/>
      <use xlink:href="#DejaVuSans-65" transform="translate(63.623047 0)"/>
      <use xlink:href="#DejaVuSans-36" transform="translate(125.146484 0)"/>
     </g>
    </g>
   </g>
   <g id="patch_66">
    <path d="M 29.428438 246.558438 
L 29.428438 192.470633 
" style="fill: none; stroke: #1f2937; stroke-width: 0.8; stroke-linejoin: miter; stroke-linecap: square"/>
   </g>
   <g id="patch_67">
    <path d="M 29.428438 246.558438 
L 475.828438 246.558438 
" style="fill: none; stroke: #1f2937; stroke-width: 0.8; stroke-linejoin: miter; stroke-linecap: square"/>
   </g>
  </g>
 </g>
 <defs>
  <clipPath id="p05aa1e16e5">
   <rect x="29.428438" y="24.798438" width="446.4" height="162.263415"/>
  </clipPath>
  <clipPath id="p6eadb8b20d">
   <rect x="29.428438" y="192.470633" width="446.4" height="54.087805"/>
  </clipPath>
 </defs>
</svg>
