<?xml version="1.0" encoding="utf-8" standalone="no"?>
<!DOCTYPE svg PUBLIC "-//W3C//DTD SVG 1.1//EN"
  "http://www.w3.org/Graphics/SVG/1.1/DTD/svg11.dtd">
<svg xmlns:xlink="http://www.w3.org/1999/xlink" width="484.6325pt" height="275.020625pt" viewBox="0 0 484.6325 275.020625" xmlns="http://www.w3.org/2000/svg" version="1.1">
 <metadata>
  <rdf:RDF xmlns:dc="http://purl.org/dc/elements/1.1/" xmlns:cc="http://creativecommons.org/ns#" xmlns:rdf="http://www.w3.org/1999/02/22-rdf-syntax-ns#">
   <cc:Work>
    <dc:type rdf:resource="http://purl.org/dc/dcmitype/StillImage"/>
    <dc:date>2026-02-16T08:57:00.647268</dc:date>
    <dc:format>image/svg+xml</dc:format>
    <dc:creator>
     <cc:Agent>
      <dc:title>Matplotlib v3.10.8, https://matplotlib.org/</dc:title>
     </cc:Agent>
    </dc:creator>
   </cc:Work>
  </rdf:RDF>
 </metadata>
 <defs>
  <style type="text/css">*{stroke-linejoin: round; stroke-linecap: butt}</style>
 </defs>
 <g id="figure_1">
  <g id="patch_1">
   <path d="M 0 275.020625 
L 484.6325 275.020625 
L 484.6325 0 
L 0 0 
z
" style="fill: #0a0f1a"/>
  </g>
  <g id="axes_1">
   <g id="patch_2">
    <path d="M 31.0325 193.58154 
L 477.4325 193.58154 
L 477.4325 31.318125 
L 31.0325 31.318125 
z
" style="fill: #0a0f1a"/>
   </g>
   <g id="patch_3">
    <path d="M 40.3925 66.384767 
L 50.4725 66.384767 
Q 50.7605 66.384767 50.7605 66.143927 
L 50.7605 52.498131 
Q 50.7605 52.257291 50.4725 52.257291 
L 40.3925 52.257291 
Q 40.1045 52.257291 40.1045 52.498131 
L 40.1045 66.143927 
Q 40.1045 66.384767 40.3925 66.384767 
z
" clip-path="url(#p399b51fd46)" style="fill: #22c55e; stroke: #22c55e; stroke-linejoin: miter"/>
   </g>
   <g id="patch_4">
    <path d="M 54.7925 64.04358 
L 64.8725 64.04358 
Q 65.1605 64.04358 65.1605 63.80274 
L 65.1605 52.182052 
Q 65.1605 51.941212 64.8725 51.941212 
L 54.7925 51.941212 
Q 54.5045 51.941212 54.5045 52.182052 
L 54.5045 63.80274 
Q 54.5045 64.04358 54.7925 64.04358 
z
" clip-path="url(#p399b51fd46)" style="fill: #ef4444; stroke: #ef4444; stroke-linejoin: miter"/>
   </g>
   <g id="patch_5">
    <path d="M 69.1925 89.879719 
L 79.2725 89.879719 
Q 79.5605 89.879719 79.5605 89.638879 
L 79.5605 74.574619 
Q 79.5605 74.333779 79.2725 74.333779 
L 69.1925 74.333779 
Q 68.9045 74.333779 68.9045 74.574619 
L 68.9045 89.638879 
Q 68.9045 89.879719 69.1925 89.879719 
z
" clip-path="url(#p399b51fd46)" style="fill: #ef4444; stroke: #ef4444; stroke-linejoin: miter"/>
   </g>
   <g id="patch_6">
    <path d="M 83.5925 83.020053 
L 93.6725 83.020053 
Q 93.9605 83.020053 93.9605 82.779213 
L 93.9605 75.582769 
Q 93.9605 75.341929 93.6725 75.341929 
L 83.5925 75.341929 
Q 83.3045 75.341929 83.3045 75.582769 
L 83.3045 82.779213 
Q 83.3045 83.020053 83.5925 83.020053 
z
" clip-path="url(#p399b51fd46)" style="fill: #22c55e; stroke: #22c55e; stroke-linejoin: miter"/>
   </g>
   <g id="patch_7">
    <path d="M 97.9925 87.456275 
L 108.0725 87.456275 
Q 108.3605 87.456275 108.3605 87.215435 
L 108.3605 81.6048 
Q 108.3605 81.36396 108.0725 81.36396 
L 97.9925 81.36396 
Q 97.7045 81.36396 97.7045 81.6048 
L 97.7045 87.215435 
Q 97.7045 87.456275 97.9925 87.456275 
z
" clip-path="url(#p399b51fd46)" style="fill: #22c55e; stroke: #22c55e; stroke-linejoin: miter"/>
   </g>
   <g id="patch_8">
    <path d="M 112.3925 101.683923 
L 122.4725 101.683923 
Q 122.7605 101.683923 122.7605 101.443083 
L 122.7605 87.526237 
Q 122.7605 87.285397 122.4725 87.285397 
L 112.3925 87.285397 
Q 112.1045 87.285397 112.1045 87.526237 
L 112.1045 101.443083 
Q 112.1045 101.683923 112.3925 101.683923 
z
" clip-path="url(#p399b51fd46)" style="fill: #22c55e; stroke: #22c55e; stroke-linejoin: miter"/>
   </g>
   <g id="patch_9">
    <path d="M 126.7925 110.43823 
L 136.8725 110.43823 
Q 137.1605 110.43823 137.1605 110.19739 
L 137.1605 92.238817 
Q 137.1605 91.997977 136.8725 91.997977 
L 126.7925 91.997977 
Q 126.5045 91.997977 126.5045 92.238817 
L 126.5045 110.19739 
Q 126.5045 110.43823 126.7925 110.43823 
z
" clip-path="url(#p399b51fd46)" style="fill: #ef4444; stroke: #ef4444; stroke-linejoin: miter"/>
   </g>
   <g id="patch_10">
    <path d="M 141.1925 107.855689 
L 151.2725 107.855689 
Q 151.5605 107.855689 151.5605 107.614849 
L 151.5605 97.993915 
Q 151.5605 97.753075 151.2725 97.753075 
L 141.1925 97.753075 
Q 140.9045 97.753075 140.9045 97.993915 
L 140.9045 107.614849 
Q 140.9045 107.855689 141.1925 107.855689 
z
" clip-path="url(#p399b51fd46)" style="fill: #ef4444; stroke: #ef4444; stroke-linejoin: miter"/>
   </g>
   <g id="patch_11">
    <path d="M 155.5925 121.679008 
L 165.6725 121.679008 
Q 165.9605 121.679008 165.9605 121.438168 
L 165.9605 106.136123 
Q 165.9605 105.895282 165.6725 105.895282 
L 155.5925 105.895282 
Q 155.3045 105.895282 155.3045 106.136123 
L 155.3045 121.438168 
Q 155.3045 121.679008 155.5925 121.679008 
z
" clip-path="url(#p399b51fd46)" style="fill: #22c55e; stroke: #22c55e; stroke-linejoin: miter"/>
   </g>
   <g id="patch_12">
    <path d="M 169.9925 145.382299 
L 180.0725 145.382299 
Q 180.3605 145.382299 180.3605 145.141459 
L 180.3605 127.260876 
Q 180.3605 127.020035 180.0725 127.020035 
L 169.9925 127.020035 
Q 169.7045 127.020035 169.7045 127.260876 
L 169.7045 145.141459 
Q 169.7045 145.382299 169.9925 145.382299 
z
" clip-path="url(#p399b51fd46)" style="fill: #ef4444; stroke: #ef4444; stroke-linejoin: miter"/>
   </g>
   <g id="patch_13">
    <path d="M 184.3925 133.417749 
L 194.4725 133.417749 
Q 194.7605 133.417749 194.7605 133.176909 
L 194.7605 123.294868 
Q 194.7605 123.054028 194.4725 123.054028 
L 184.3925 123.054028 
Q 184.1045 123.054028 184.1045 123.294868 
L 184.1045 133.176909 
Q 184.1045 133.417749 184.3925 133.417749 
z
" clip-path="url(#p399b51fd46)" style="fill: #ef4444; stroke: #ef4444; stroke-linejoin: miter"/>
   </g>
   <g id="patch_14">
    <path d="M 198.7925 136.118077 
L 208.8725 136.118077 
Q 209.1605 136.118077 209.1605 135.877237 
L 209.1605 129.205327 
Q 209.1605 128.964487 208.8725 128.964487 
L 198.7925 128.964487 
Q 198.5045 128.964487 198.5045 129.205327 
L 198.5045 135.877237 
Q 198.5045 136.118077 198.7925 136.118077 
z
" clip-path="url(#p399b51fd46)" style="fill: #ef4444; stroke: #ef4444; stroke-linejoin: miter"/>
   </g>
   <g id="patch_15">
    <path d="M 213.1925 133.285938 
L 223.2725 133.285938 
Q 223.5605 133.285938 223.5605 133.045098 
L 223.5605 127.291315 
Q 223.5605 127.050474 223.2725 127.050474 
L 213.1925 127.050474 
Q 212.9045 127.050474 212.9045 127.291315 
L 212.9045 133.045098 
Q 212.9045 133.285938 213.1925 133.285938 
z
" clip-path="url(#p399b51fd46)" style="fill: #ef4444; stroke: #ef4444; stroke-linejoin: miter"/>
   </g>
   <g id="patch_16">
    <path d="M 227.5925 132.255536 
L 237.6725 132.255536 
Q 237.9605 132.255536 237.9605 132.014695 
L 237.9605 124.440707 
Q 237.9605 124.199866 237.6725 124.199866 
L 227.5925 124.199866 
Q 227.3045 124.199866 227.3045 124.440707 
L 227.3045 132.014695 
Q 227.3045 132.255536 227.5925 132.255536 
z
" clip-path="url(#p399b51fd46)" style="fill: #22c55e; stroke: #22c55e; stroke-linejoin: miter"/>
   </g>
   <g id="patch_17">
    <path d="M 241.9925 151.676075 
L 252.0725 151.676075 
Q 252.3605 151.676075 252.3605 151.435235 
L 252.3605 140.181228 
Q 252.3605 139.940388 252.0725 139.940388 
L 241.9925 139.940388 
Q 241.7045 139.940388 241.7045 140.181228 
L 241.7045 151.435235 
Q 241.7045 151.676075 241.9925 151.676075 
z
" clip-path="url(#p399b51fd46)" style="fill: #22c55e; stroke: #22c55e; stroke-linejoin: miter"/>
   </g>
   <g id="patch_18">
    <path d="M 256.3925 151.085384 
L 266.4725 151.085384 
Q 266.7605 151.085384 266.7605 150.844544 
L 266.7605 138.007321 
Q 266.7605 137.766481 266.4725 137.766481 
L 256.3925 137.766481 
Q 256.1045 137.766481 256.1045 138.007321 
L 256.1045 150.844544 
Q 256.1045 151.085384 256.3925 151.085384 
z
" clip-path="url(#p399b51fd46)" style="fill: #ef4444; stroke: #ef4444; stroke-linejoin: miter"/>
   </g>
   <g id="patch_19">
    <path d="M 270.7925 166.753406 
L 280.8725 166.753406 
Q 281.1605 166.753406 281.1605 166.512566 
L 281.1605 152.390364 
Q 281.1605 152.149524 280.8725 152.149524 
L 270.7925 152.149524 
Q 270.5045 152.149524 270.5045 152.390364 
L 270.5045 166.512566 
Q 270.5045 166.753406 270.7925 166.753406 
z
" clip-path="url(#p399b51fd46)" style="fill: #22c55e; stroke: #22c55e; stroke-linejoin: miter"/>
   </g>
   <g id="patch_20">
    <path d="M 285.1925 172.798064 
L 295.2725 172.798064 
Q 295.5605 172.798064 295.5605 172.557224 
L 295.5605 154.513682 
Q 295.5605 154.272842 295.2725 154.272842 
L 285.1925 154.272842 
Q 284.9045 154.272842 284.9045 154.513682 
L 284.9045 172.557224 
Q 284.9045 172.798064 285.1925 172.798064 
z
" clip-path="url(#p399b51fd46)" style="fill: #ef4444; stroke: #ef4444; stroke-linejoin: miter"/>
   </g>
   <g id="patch_21">
    <path d="M 299.5925 153.766046 
L 309.6725 153.766046 
Q 309.9605 153.766046 309.9605 153.525206 
L 309.9605 141.612818 
Q 309.9605 141.371978 309.6725 141.371978 
L 299.5925 141.371978 
Q 299.3045 141.371978 299.3045 141.612818 
L 299.3045 153.525206 
Q 299.3045 153.766046 299.5925 153.766046 
z
" clip-path="url(#p399b51fd46)" style="fill: #ef4444; stroke: #ef4444; stroke-linejoin: miter"/>
   </g>
   <g id="patch_22">
    <path d="M 313.9925 156.073312 
L 324.0725 156.073312 
Q 324.3605 156.073312 324.3605 155.832472 
L 324.3605 139.450501 
Q 324.3605 139.209661 324.0725 139.209661 
L 313.9925 139.209661 
Q 313.7045 139.209661 313.7045 139.450501 
L 313.7045 155.832472 
Q 313.7045 156.073312 313.9925 156.073312 
z
" clip-path="url(#p399b51fd46)" style="fill: #22c55e; stroke: #22c55e; stroke-linejoin: miter"/>
   </g>
   <g id="patch_23">
    <path d="M 328.3925 147.013379 
L 338.4725 147.013379 
Q 338.7605 147.013379 338.7605 146.772539 
L 338.7605 135.37144 
Q 338.7605 135.1306 338.4725 135.1306 
L 328.3925 135.1306 
Q 328.1045 135.1306 328.1045 135.37144 
L 328.1045 146.772539 
Q 328.1045 147.013379 328.3925 147.013379 
z
" clip-path="url(#p399b51fd46)" style="fill: #22c55e; stroke: #22c55e; stroke-linejoin: miter"/>
   </g>
   <g id="patch_24">
    <path d="M 342.7925 142.260564 
L 352.8725 142.260564 
Q 353.1605 142.260564 353.1605 142.019724 
L 353.1605 128.257524 
Q 353.1605 128.016684 352.8725 128.016684 
L 342.7925 128.016684 
Q 342.5045 128.016684 342.5045 128.257524 
L 342.5045 142.019724 
Q 342.5045 142.260564 342.7925 142.260564 
z
" clip-path="url(#p399b51fd46)" style="fill: #22c55e; stroke: #22c55e; stroke-linejoin: miter"/>
   </g>
   <g id="patch_25">
    <path d="M 357.1925 126.152809 
L 367.2725 126.152809 
Q 367.5605 126.152809 367.5605 125.911969 
L 367.5605 118.697306 
Q 367.5605 118.456466 367.2725 118.456466 
L 357.1925 118.456466 
Q 356.9045 118.456466 356.9045 118.697306 
L 356.9045 125.911969 
Q 356.9045 126.152809 357.1925 126.152809 
z
" clip-path="url(#p399b51fd46)" style="fill: #22c55e; stroke: #22c55e; stroke-linejoin: miter"/>
   </g>
   <g id="patch_26">
    <path d="M 371.5925 139.944876 
L 381.6725 139.944876 
Q 381.9605 139.944876 381.9605 139.704036 
L 381.9605 124.527793 
Q 381.9605 124.286953 381.6725 124.286953 
L 371.5925 124.286953 
Q 371.3045 124.286953 371.3045 124.527793 
L 371.3045 139.704036 
Q 371.3045 139.944876 371.5925 139.944876 
z
" clip-path="url(#p399b51fd46)" style="fill: #22c55e; stroke: #22c55e; stroke-linejoin: miter"/>
   </g>
   <g id="patch_27">
    <path d="M 385.9925 149.323476 
L 396.0725 149.323476 
Q 396.3605 149.323476 396.3605 149.082635 
L 396.3605 132.037707 
Q 396.3605 131.796867 396.0725 131.796867 
L 385.9925 131.796867 
Q 385.7045 131.796867 385.7045 132.037707 
L 385.7045 149.082635 
Q 385.7045 149.323476 385.9925 149.323476 
z
" clip-path="url(#p399b51fd46)" style="fill: #ef4444; stroke: #ef4444; stroke-linejoin: miter"/>
   </g>
   <g id="patch_28">
    <path d="M 400.3925 151.434061 
L 410.4725 151.434061 
Q 410.7605 151.434061 410.7605 151.193221 
L 410.7605 146.472724 
Q 410.7605 146.231884 410.4725 146.231884 
L 400.3925 146.231884 
Q 400.1045 146.231884 400.1045 146.472724 
L 400.1045 151.193221 
Q 400.1045 151.434061 400.3925 151.434061 
z
" clip-path="url(#p399b51fd46)" style="fill: #22c55e; stroke: #22c55e; stroke-linejoin: miter"/>
   </g>
   <g id="patch_29">
    <path d="M 414.7925 148.50125 
L 424.8725 148.50125 
Q 425.1605 148.50125 425.1605 148.260409 
L 425.1605 134.598793 
Q 425.1605 134.357953 424.8725 134.357953 
L 414.7925 134.357953 
Q 414.5045 134.357953 414.5045 134.598793 
L 414.5045 148.260409 
Q 414.5045 148.50125 414.7925 148.50125 
z
" clip-path="url(#p399b51fd46)" style="fill: #ef4444; stroke: #ef4444; stroke-linejoin: miter"/>
   </g>
   <g id="patch_30">
    <path d="M 429.1925 153.337343 
L 439.2725 153.337343 
Q 439.5605 153.337343 439.5605 153.096503 
L 439.5605 137.254834 
Q 439.5605 137.013994 439.2725 137.013994 
L 429.1925 137.013994 
Q 428.9045 137.013994 428.9045 137.254834 
L 428.9045 153.096503 
Q 428.9045 153.337343 429.1925 153.337343 
z
" clip-path="url(#p399b51fd46)" style="fill: #22c55e; stroke: #22c55e; stroke-linejoin: miter"/>
   </g>
   <g id="patch_31">
    <path d="M 443.5925 164.195229 
L 453.6725 164.195229 
Q 453.9605 164.195229 453.9605 163.954389 
L 453.9605 157.271468 
Q 453.9605 157.030628 453.6725 157.030628 
L 443.5925 157.030628 
Q 443.3045 157.030628 443.3045 157.271468 
L 443.3045 163.954389 
Q 443.3045 164.195229 443.5925 164.195229 
z
" clip-path="url(#p399b51fd46)" style="fill: #22c55e; stroke: #22c55e; stroke-linejoin: miter"/>
   </g>
   <g id="patch_32">
    <path d="M 457.9925 179.027331 
L 468.0725 179.027331 
Q 468.3605 179.027331 468.3605 178.786491 
L 468.3605 168.307188 
Q 468.3605 168.066348 468.0725 168.066348 
L 457.9925 168.066348 
Q 457.7045 168.066348 457.7045 168.307188 
L 457.7045 178.786491 
Q 457.7045 179.027331 457.9925 179.027331 
z
" clip-path="url(#p399b51fd46)" style="fill: #ef4444; stroke: #ef4444; stroke-linejoin: miter"/>
   </g>
   <g id="matplotlib.axis_1">
    <g id="xtick_1">
     <g id="line2d_1">
      <path d="M 45.4325 193.58154 
L 45.4325 31.318125 
" clip-path="url(#p399b51fd46)" style="fill: none; stroke-dasharray: 2.96,1.28; stroke-dashoffset: 0; stroke: #374151; stroke-opacity: 0.1; stroke-width: 0.8"/>
     </g>
     <g id="line2d_2">
      <defs>
       <path id="m0f63dc2543" d="M 0 0 
L 0 3.5 
" style="stroke: #9ca3af; stroke-width: 0.8"/>
      </defs>
      <g>
       <use xlink:href="#m0f63dc2543" x="45.4325" y="193.58154" style="fill: #9ca3af; stroke: #9ca3af; stroke-width: 0.8"/>
      </g>
     </g>
    </g>
    <g id="xtick_2">
     <g id="line2d_3">
      <path d="M 117.4325 193.58154 
L 117.4325 31.318125 
" clip-path="url(#p399b51fd46)" style="fill: none; stroke-dasharray: 2.96,1.28; stroke-dashoffset: 0; stroke: #374151; stroke-opacity: 0.1; stroke-width: 0.8"/>
     </g>
     <g id="line2d_4">
      <g>
       <use xlink:href="#m0f63dc2543" x="117.4325" y="193.58154" style="fill: #9ca3af; stroke: #9ca3af; stroke-width: 0.8"/>
      </g>
     </g>
    </g>
    <g id="xtick_3">
     <g id="line2d_5">
      <path d="M 189.4325 193.58154 
L 189.4325 31.318125 
" clip-path="url(#p399b51fd46)" style="fill: none; stroke-dasharray: 2.96,1.28; stroke-dashoffset: 0; stroke: #374151; stroke-opacity: 0.1; stroke-width: 0.8"/>
     </g>
     <g id="line2d_6">
      <g>
       <use xlink:href="#m0f63dc2543" x="189.4325" y="193.58154" style="fill: #9ca3af; stroke: #9ca3af; stroke-width: 0.8"/>
      </g>
     </g>
    </g>
    <g id="xtick_4">
     <g id="line2d_7">
      <path d="M 261.4325 193.58154 
L 261.4325 31.318125 
" clip-path="url(#p399b51fd46)" style="fill: none; stroke-dasharray: 2.96,1.28; stroke-dashoffset: 0; stroke: #374151; stroke-opacity: 0.1; stroke-width: 0.8"/>
     </g>
     <g id="line2d_8">
      <g>
       <use xlink:href="#m0f63dc2543" x="261.4325" y="193.58154" style="fill: #9ca3af; stroke: #9ca3af; stroke-width: 0.8"/>
      </g>
     </g>
    </g>
    <g id="xtick_5">
     <g id="line2d_9">
      <path d="M 333.4325 193.58154 
L 333.4325 31.318125 
" clip-path="url(#p399b51fd46)" style="fill: none; stroke-dasharray: 2.96,1.28; stroke-dashoffset: 0; stroke: #374151; stroke-opacity: 0.1; stroke-width: 0.8"/>
     </g>
     <g id="line2d_10">
      <g>
       <use xlink:href="#m0f63dc2543" x="333.4325" y="193.58154" style="fill: #9ca3af; stroke: #9ca3af; stroke-width: 0.8"/>
      </g>
     </g>
    </g>
    <g id="xtick_6">
     <g id="line2d_11">
      <path d="M 405.4325 193.58154 
L 405.4325 31.318125 
" clip-path="url(#p399b51fd46)" style="fill: none; stroke-dasharray: 2.96,1.28; stroke-dashoffset: 0; stroke: #374151; stroke-opacity: 0.1; stroke-width: 0.8"/>
     </g>
     <g id="line2d_12">
      <g>
       <use xlink:href="#m0f63dc2543" x="405.4325" y="193.58154" style="fill: #9ca3af; stroke: #9ca3af; stroke-width: 0.8"/>
      </g>
     </g>
    </g>
    <g id="xtick_7">
     <g id="line2d_13">
      <path d="M 477.4325 193.58154 
L 477.4325 31.318125 
" clip-path="url(#p399b51fd46)" style="fill: none; stroke-dasharray: 2.96,1.28; stroke-dashoffset: 0; stroke: #374151; stroke-opacity: 0.1; stroke-width: 0.8"/>
     </g>
     <g id="line2d_14">
      <g>
       <use xlink:href="#m0f63dc2543" x="477.4325" y="193.58154" style="fill: #9ca3af; stroke: #9ca3af; stroke-width: 0.8"/>
      </g>
     </g>
    </g>
   </g>
   <g id="matplotlib.axis_2">
    <g id="ytick_1">
     <g id="line2d_15">
      <path d="M 31.0325 179.741082 
L 477.4325 179.741082 
" clip-path="url(#p399b51fd46)" style="fill: none; stroke-dasharray: 2.96,1.28; stroke-dashoffset: 0; stroke: #374151; stroke-opacity: 0.1; stroke-width: 0.8"/>
     </g>
     <g id="line2d_16">
      <defs>
       <path id="mc143a58a05" d="M 0 0 
L -3.5 0 
" style="stroke: #9ca3af; stroke-width: 0.8"/>
      </defs>
      <g>
       <use xlink:href="#mc143a58a05" x="31.0325" y="179.741082" style="fill: #9ca3af; stroke: #9ca3af; stroke-width: 0.8"/>
      </g>
     </g>
     <g id="text_1">
      <!-- 90 -->
      <g style="fill: #9ca3af" transform="translate(13.8525 182.780457) scale(0.08 -0.08)">
       <defs>
        <path id="DejaVuSans-39" d="M 703 97 
L 703 672 
Q 941 559 1184 500 
Q 1428 441 1663 441 
Q 2288 441 2617 861 
Q 2947 1281 2994 2138 
Q 2813 1869 2534 1725 
Q 2256 1581 1919 1581 
Q 1219 1581 811 2004 
Q 403 2428 403 3163 
Q 403 3881 828 4315 
Q 1253 4750 1959 4750 
Q 2769 4750 3195 4129 
Q 3622 3509 3622 2328 
Q 3622 1225 3098 567 
Q 2575 -91 1691 -91 
Q 1453 -91 1209 -44 
Q 966 3 703 97 
z
M 1959 2075 
Q 2384 2075 2632 2365 
Q 2881 2656 2881 3163 
Q 2881 3666 2632 3958 
Q 2384 4250 1959 4250 
Q 1534 4250 1286 3958 
Q 1038 3666 1038 3163 
Q 1038 2656 1286 2365 
Q 1534 2075 1959 2075 
z
" transform="scale(0.015625)"/>
        <path id="DejaVuSans-30" d="M 2034 4250 
Q 1547 4250 1301 3770 
Q 1056 3291 1056 2328 
Q 1056 1369 1301 889 
Q 1547 409 2034 409 
Q 2525 409 2770 889 
Q 3016 1369 3016 2328 
Q 3016 3291 2770 3770 
Q 2525 4250 2034 4250 
z
M 2034 4750 
Q 2819 4750 3233 4129 
Q 3647 3509 3647 2328 
Q 3647 1150 3233 529 
Q 2819 -91 2034 -91 
Q 1250 -91 836 529 
Q 422 1150 422 2328 
Q 422 3509 836 4129 
Q 1250 4750 2034 4750 
z
" transform="scale(0.015625)"/>
       </defs>
       <use xlink:href="#DejaVuSans-39"/>
       <use xlink:href="#DejaVuSans-30" transform="translate(63.623047 0)"/>
      </g>
     </g>
    </g>
    <g id="ytick_2">
     <g id="line2d_17">
      <path d="M 31.0325 155.657071 
L 477.4325 155.657071 
" clip-path="url(#p399b51fd46)" style="fill: none; stroke-dasharray: 2.96,1.28; stroke-dashoffset: 0; stroke: #374151; stroke-opacity: 0.1; stroke-width: 0.8"/>
     </g>
     <g id="line2d_18">
      <g>
       <use xlink:href="#mc143a58a05" x="31.0325" y="155.657071" style="fill: #9ca3af; stroke: #9ca3af; stroke-width: 0.8"/>
      </g>
     </g>
     <g id="text_2">
      <!-- 92 -->
      <g style="fill: #9ca3af" transform="translate(13.8525 158.696446) scale(0.08 -0.08)">
       <defs>
        <path id="DejaVuSans-32" d="M 1228 531 
L 3431 531 
L 3431 0 
L 469 0 
L 469 531 
Q 828 903 1448 1529 
Q 2069 2156 2228 2338 
Q 2531 2678 2651 2914 
Q 2772 3150 2772 3378 
Q 2772 3750 2511 3984 
Q 2250 4219 1831 4219 
Q 1534 4219 1204 4116 
Q 875 4013 500 3803 
L 500 4441 
Q 881 4594 1212 4672 
Q 1544 4750 1819 4750 
Q 2544 4750 2975 4387 
Q 3406 4025 3406 3419 
Q 3406 3131 3298 2873 
Q 3191 2616 2906 2266 
Q 2828 2175 2409 1742 
Q 1991 1309 1228 531 
z
" transform="scale(0.015625)"/>
       </defs>
       <use xlink:href="#DejaVuSans-39"/>
       <use xlink:href="#DejaVuSans-32" transform="translate(63.623047 0)"/>
      </g>
     </g>
    </g>
    <g id="ytick_3">
     <g id="line2d_19">
      <path d="M 31.0325 131.573061 
L 477.4325 131.573061 
" clip-path="url(#p399b51fd46)" style="fill: none; stroke-dasharray: 2.96,1.28; stroke-dashoffset: 0; stroke: #374151; stroke-opacity: 0.1; stroke-width: 0.8"/>
     </g>
     <g id="line2d_20">
      <g>
       <use xlink:href="#mc143a58a05" x="31.0325" y="131.573061" style="fill: #9ca3af; stroke: #9ca3af; stroke-width: 0.8"/>
      </g>
     </g>
     <g id="text_3">
      <!-- 94 -->
      <g style="fill: #9ca3af" transform="translate(13.8525 134.612436) scale(0.08 -0.08)">
       <defs>
        <path id="DejaVuSans-34" d="M 2419 4116 
L 825 1625 
L 2419 1625 
L 2419 4116 
z
M 2253 4666 
L 3047 4666 
L 3047 1625 
L 3713 1625 
L 3713 1100 
L 3047 1100 
L 3047 0 
L 2419 0 
L 2419 1100 
L 313 1100 
L 313 1709 
L 2253 4666 
z
" transform="scale(0.015625)"/>
       </defs>
       <use xlink:href="#DejaVuSans-39"/>
       <use xlink:href="#DejaVuSans-34" transform="translate(63.623047 0)"/>
      </g>
     </g>
    </g>
    <g id="ytick_4">
     <g id="line2d_21">
      <path d="M 31.0325 107.48905 
L 477.4325 107.48905 
" clip-path="url(#p399b51fd46)" style="fill: none; stroke-dasharray: 2.96,1.28; stroke-dashoffset: 0; stroke: #374151; stroke-opacity: 0.1; stroke-width: 0.8"/>
     </g>
     <g id="line2d_22">
      <g>
       <use xlink:href="#mc143a58a05" x="31.0325" y="107.48905" style="fill: #9ca3af; stroke: #9ca3af; stroke-width: 0.8"/>
      </g>
     </g>
     <g id="text_4">
      <!-- 96 -->
      <g style="fill: #9ca3af" transform="translate(13.8525 110.528425) scale(0.08 -0.08)">
       <defs>
        <path id="DejaVuSans-36" d="M 2113 2584 
Q 1688 2584 1439 2293 
Q 1191 2003 1191 1497 
Q 1191 994 1439 701 
Q 1688 409 2113 409 
Q 2538 409 2786 701 
Q 3034 994 3034 1497 
Q 3034 2003 2786 2293 
Q 2538 2584 2113 2584 
z
M 3366 4563 
L 3366 3988 
Q 3128 4100 2886 4159 
Q 2644 4219 2406 4219 
Q 1781 4219 1451 3797 
Q 1122 3375 1075 2522 
Q 1259 2794 1537 2939 
Q 1816 3084 2150 3084 
Q 2853 3084 3261 2657 
Q 3669 2231 3669 1497 
Q 3669 778 3244 343 
Q 2819 -91 2113 -91 
Q 1303 -91 875 529 
Q 447 1150 447 2328 
Q 447 3434 972 4092 
Q 1497 4750 2381 4750 
Q 2619 4750 2861 4703 
Q 3103 4656 3366 4563 
z
" transform="scale(0.015625)"/>
       </defs>
       <use xlink:href="#DejaVuSans-39"/>
       <use xlink:href="#DejaVuSans-36" transform="translate(63.623047 0)"/>
      </g>
     </g>
    </g>
    <g id="ytick_5">
     <g id="line2d_23">
      <path d="M 31.0325 83.40504 
L 477.4325 83.40504 
" clip-path="url(#p399b51fd46)" style="fill: none; stroke-dasharray: 2.96,1.28; stroke-dashoffset: 0; stroke: #374151; stroke-opacity: 0.1; stroke-width: 0.8"/>
     </g>
     <g id="line2d_24">
      <g>
       <use xlink:href="#mc143a58a05" x="31.0325" y="83.40504" style="fill: #9ca3af; stroke: #9ca3af; stroke-width: 0.8"/>
      </g>
     </g>
     <g id="text_5">
      <!-- 98 -->
      <g style="fill: #9ca3af" transform="translate(13.8525 86.444415) scale(0.08 -0.08)">
       <defs>
        <path id="DejaVuSans-38" d="M 2034 2216 
Q 1584 2216 1326 1975 
Q 1069 1734 1069 1313 
Q 1069 891 1326 650 
Q 1584 409 2034 409 
Q 2484 409 2743 651 
Q 3003 894 3003 1313 
Q 3003 1734 2745 1975 
Q 2488 2216 2034 2216 
z
M 1403 2484 
Q 997 2584 770 2862 
Q 544 3141 544 3541 
Q 544 4100 942 4425 
Q 1341 4750 2034 4750 
Q 2731 4750 3128 4425 
Q 3525 4100 3525 3541 
Q 3525 3141 3298 2862 
Q 3072 2584 2669 2484 
Q 3125 2378 3379 2068 
Q 3634 1759 3634 1313 
Q 3634 634 3220 271 
Q 2806 -91 2034 -91 
Q 1263 -91 848 271 
Q 434 634 434 1313 
Q 434 1759 690 2068 
Q 947 2378 1403 2484 
z
M 1172 3481 
Q 1172 3119 1398 2916 
Q 1625 2713 2034 2713 
Q 2441 2713 2670 2916 
Q 2900 3119 2900 3481 
Q 2900 3844 2670 4047 
Q 2441 4250 2034 4250 
Q 1625 4250 1398 4047 
Q 1172 3844 1172 3481 
z
" transform="scale(0.015625)"/>
       </defs>
       <use xlink:href="#DejaVuSans-39"/>
       <use xlink:href="#DejaVuSans-38" transform="translate(63.623047 0)"/>
      </g>
     </g>
    </g>
    <g id="ytick_6">
     <g id="line2d_25">
      <path d="M 31.0325 59.321029 
L 477.4325 59.321029 
" clip-path="url(#p399b51fd46)" style="fill: none; stroke-dasharray: 2.96,1.28; stroke-dashoffset: 0; stroke: #374151; stroke-opacity: 0.1; stroke-width: 0.8"/>
     </g>
     <g id="line2d_26">
      <g>
       <use xlink:href="#mc143a58a05" x="31.0325" y="59.321029" style="fill: #9ca3af; stroke: #9ca3af; stroke-width: 0.8"/>
      </g>
     </g>
     <g id="text_6">
      <!-- 100 -->
      <g style="fill: #9ca3af" transform="translate(8.7625 62.360404) scale(0.08 -0.08)">
       <defs>
        <path id="DejaVuSans-31" d="M 794 531 
L 1825 531 
L 1825 4091 
L 703 3866 
L 703 4441 
L 1819 4666 
L 2450 4666 
L 2450 531 
L 3481 531 
L 3481 0 
L 794 0 
L 794 531 
z
" transform="scale(0.015625)"/>
       </defs>
       <use xlink:href="#DejaVuSans-31"/>
       <use xlink:href="#DejaVuSans-30" transform="translate(63.623047 0)"/>
       <use xlink:href="#DejaVuSans-30" transform="translate(127.246094 0)"/>
      </g>
     </g>
    </g>
    <g id="ytick_7">
     <g id="line2d_27">
      <path d="M 31.0325 35.237018 
L 477.4325 35.237018 
" clip-path="url(#p399b51fd46)" style="fill: none; stroke-dasharray: 2.96,1.28; stroke-dashoffset: 0; stroke: #374151; stroke-opacity: 0.1; stroke-width: 0.8"/>
     </g>
     <g id="line2d_28">
      <g>
       <use xlink:href="#mc143a58a05" x="31.0325" y="35.237018" style="fill: #9ca3af; stroke: #9ca3af; stroke-width: 0.8"/>
      </g>
     </g>
     <g id="text_7">
      <!-- 102 -->
      <g style="fill: #9ca3af" transform="translate(8.7625 38.276393) scale(0.08 -0.08)">
       <use xlink:href="#DejaVuSans-31"/>
       <use xlink:href="#DejaVuSans-30" transform="translate(63.623047 0)"/>
       <use xlink:href="#DejaVuSans-32" transform="translate(127.246094 0)"/>
      </g>
     </g>
    </g>
   </g>
   <g id="line2d_29">
    <path d="M 45.4325 74.487026 
L 45.4325 46.893268 
" clip-path="url(#p399b51fd46)" style="fill: none; stroke: #22c55e; stroke-width: 1.5; stroke-linecap: square"/>
   </g>
   <g id="line2d_30">
    <path d="M 59.8325 68.480177 
L 59.8325 44.840076 
" clip-path="url(#p399b51fd46)" style="fill: none; stroke: #ef4444; stroke-width: 1.5; stroke-linecap: square"/>
   </g>
   <g id="line2d_31">
    <path d="M 74.2325 96.401898 
L 74.2325 72.012536 
" clip-path="url(#p399b51fd46)" style="fill: none; stroke: #ef4444; stroke-width: 1.5; stroke-linecap: square"/>
   </g>
   <g id="line2d_32">
    <path d="M 88.6325 89.454886 
L 88.6325 71.610114 
" clip-path="url(#p399b51fd46)" style="fill: none; stroke: #22c55e; stroke-width: 1.5; stroke-linecap: square"/>
   </g>
   <g id="line2d_33">
    <path d="M 103.0325 92.448902 
L 103.0325 72.158174 
" clip-path="url(#p399b51fd46)" style="fill: none; stroke: #22c55e; stroke-width: 1.5; stroke-linecap: square"/>
   </g>
   <g id="line2d_34">
    <path d="M 117.4325 105.857432 
L 117.4325 80.456922 
" clip-path="url(#p399b51fd46)" style="fill: none; stroke: #22c55e; stroke-width: 1.5; stroke-linecap: square"/>
   </g>
   <g id="line2d_35">
    <path d="M 131.8325 112.712266 
L 131.8325 86.453841 
" clip-path="url(#p399b51fd46)" style="fill: none; stroke: #ef4444; stroke-width: 1.5; stroke-linecap: square"/>
   </g>
   <g id="line2d_36">
    <path d="M 146.2325 109.13574 
L 146.2325 88.825217 
" clip-path="url(#p399b51fd46)" style="fill: none; stroke: #ef4444; stroke-width: 1.5; stroke-linecap: square"/>
   </g>
   <g id="line2d_37">
    <path d="M 160.6325 126.190442 
L 160.6325 97.62874 
" clip-path="url(#p399b51fd46)" style="fill: none; stroke: #22c55e; stroke-width: 1.5; stroke-linecap: square"/>
   </g>
   <g id="line2d_38">
    <path d="M 175.0325 150.15191 
L 175.0325 124.754495 
" clip-path="url(#p399b51fd46)" style="fill: none; stroke: #ef4444; stroke-width: 1.5; stroke-linecap: square"/>
   </g>
   <g id="line2d_39">
    <path d="M 189.4325 134.54038 
L 189.4325 118.094624 
" clip-path="url(#p399b51fd46)" style="fill: none; stroke: #ef4444; stroke-width: 1.5; stroke-linecap: square"/>
   </g>
   <g id="line2d_40">
    <path d="M 203.8325 140.443246 
L 203.8325 122.441264 
" clip-path="url(#p399b51fd46)" style="fill: none; stroke: #ef4444; stroke-width: 1.5; stroke-linecap: square"/>
   </g>
   <g id="line2d_41">
    <path d="M 218.2325 141.400941 
L 218.2325 122.515639 
" clip-path="url(#p399b51fd46)" style="fill: none; stroke: #ef4444; stroke-width: 1.5; stroke-linecap: square"/>
   </g>
   <g id="line2d_42">
    <path d="M 232.6325 135.161191 
L 232.6325 118.474057 
" clip-path="url(#p399b51fd46)" style="fill: none; stroke: #22c55e; stroke-width: 1.5; stroke-linecap: square"/>
   </g>
   <g id="line2d_43">
    <path d="M 247.0325 153.858824 
L 247.0325 131.651284 
" clip-path="url(#p399b51fd46)" style="fill: none; stroke: #22c55e; stroke-width: 1.5; stroke-linecap: square"/>
   </g>
   <g id="line2d_44">
    <path d="M 261.4325 154.120447 
L 261.4325 131.27563 
" clip-path="url(#p399b51fd46)" style="fill: none; stroke: #ef4444; stroke-width: 1.5; stroke-linecap: square"/>
   </g>
   <g id="line2d_45">
    <path d="M 275.8325 168.408712 
L 275.8325 143.599665 
" clip-path="url(#p399b51fd46)" style="fill: none; stroke: #22c55e; stroke-width: 1.5; stroke-linecap: square"/>
   </g>
   <g id="line2d_46">
    <path d="M 290.2325 174.892505 
L 290.2325 153.239264 
" clip-path="url(#p399b51fd46)" style="fill: none; stroke: #ef4444; stroke-width: 1.5; stroke-linecap: square"/>
   </g>
   <g id="line2d_47">
    <path d="M 304.6325 155.741499 
L 304.6325 134.451358 
" clip-path="url(#p399b51fd46)" style="fill: none; stroke: #ef4444; stroke-width: 1.5; stroke-linecap: square"/>
   </g>
   <g id="line2d_48">
    <path d="M 319.0325 164.347192 
L 319.0325 138.169841 
" clip-path="url(#p399b51fd46)" style="fill: none; stroke: #22c55e; stroke-width: 1.5; stroke-linecap: square"/>
   </g>
   <g id="line2d_49">
    <path d="M 333.4325 147.977106 
L 333.4325 132.43988 
" clip-path="url(#p399b51fd46)" style="fill: none; stroke: #22c55e; stroke-width: 1.5; stroke-linecap: square"/>
   </g>
   <g id="line2d_50">
    <path d="M 347.8325 143.98281 
L 347.8325 123.434707 
" clip-path="url(#p399b51fd46)" style="fill: none; stroke: #22c55e; stroke-width: 1.5; stroke-linecap: square"/>
   </g>
   <g id="line2d_51">
    <path d="M 362.2325 130.619754 
L 362.2325 112.577153 
" clip-path="url(#p399b51fd46)" style="fill: none; stroke: #22c55e; stroke-width: 1.5; stroke-linecap: square"/>
   </g>
   <g id="line2d_52">
    <path d="M 376.6325 141.596885 
L 376.6325 118.764432 
" clip-path="url(#p399b51fd46)" style="fill: none; stroke: #22c55e; stroke-width: 1.5; stroke-linecap: square"/>
   </g>
   <g id="line2d_53">
    <path d="M 391.0325 153.653979 
L 391.0325 130.38888 
" clip-path="url(#p399b51fd46)" style="fill: none; stroke: #ef4444; stroke-width: 1.5; stroke-linecap: square"/>
   </g>
   <g id="line2d_54">
    <path d="M 405.4325 157.482065 
L 405.4325 137.428251 
" clip-path="url(#p399b51fd46)" style="fill: none; stroke: #22c55e; stroke-width: 1.5; stroke-linecap: square"/>
   </g>
   <g id="line2d_55">
    <path d="M 419.8325 151.263752 
L 419.8325 127.150615 
" clip-path="url(#p399b51fd46)" style="fill: none; stroke: #ef4444; stroke-width: 1.5; stroke-linecap: square"/>
   </g>
   <g id="line2d_56">
    <path d="M 434.2325 156.528396 
L 434.2325 128.225482 
" clip-path="url(#p399b51fd46)" style="fill: none; stroke: #22c55e; stroke-width: 1.5; stroke-linecap: square"/>
   </g>
   <g id="line2d_57">
    <path d="M 448.6325 165.767874 
L 448.6325 148.825585 
" clip-path="url(#p399b51fd46)" style="fill: none; stroke: #22c55e; stroke-width: 1.5; stroke-linecap: square"/>
   </g>
   <g id="line2d_58">
    <path d="M 463.0325 180.059588 
L 463.0325 162.458222 
" clip-path="url(#p399b51fd46)" style="fill: none; stroke: #ef4444; stroke-width: 1.5; stroke-linecap: square"/>
   </g>
   <g id="patch_33">
    <path d="M 31.0325 193.58154 
L 31.0325 31.318125 
" style="fill: none; stroke: #1f2937; stroke-width: 0.8; stroke-linejoin: miter; stroke-linecap: square"/>
   </g>
   <g id="patch_34">
    <path d="M 31.0325 193.58154 
L 477.4325 193.58154 
" style="fill: none; stroke: #1f2937; stroke-width: 0.8; stroke-linejoin: miter; stroke-linecap: square"/>
   </g>
   <g id="text_8">
    <!-- Bull Flag — TSLA 1H -->
    <g style="fill: #ffffff" transform="translate(186.343437 16.318125) scale(0.12 -0.12)">
     <defs>
      <path id="DejaVuSans-Bold-42" d="M 2456 2859 
Q 2741 2859 2887 2984 
Q 3034 3109 3034 3353 
Q 3034 3594 2887 3720 
Q 2741 3847 2456 3847 
L 1791 3847 
L 1791 2859 
L 2456 2859 
z
M 2497 819 
Q 2859 819 3042 972 
Q 3225 1125 3225 1434 
Q 3225 1738 3044 1889 
Q 2863 2041 2497 2041 
L 1791 2041 
L 1791 819 
L 2497 819 
z
M 3616 2497 
Q 4003 2384 4215 2081 
Q 4428 1778 4428 1338 
Q 4428 663 3972 331 
Q 3516 0 2584 0 
L 588 0 
L 588 4666 
L 2394 4666 
Q 3366 4666 3802 4372 
Q 4238 4078 4238 3431 
Q 4238 3091 4078 2852 
Q 3919 2613 3616 2497 
z
" transform="scale(0.015625)"/>
      <path id="DejaVuSans-Bold-75" d="M 500 1363 
L 500 3500 
L 1625 3500 
L 1625 3150 
Q 1625 2866 1622 2436 
Q 1619 2006 1619 1863 
Q 1619 1441 1641 1255 
Q 1663 1069 1716 984 
Q 1784 875 1895 815 
Q 2006 756 2150 756 
Q 2500 756 2700 1025 
Q 2900 1294 2900 1772 
L 2900 3500 
L 4019 3500 
L 4019 0 
L 2900 0 
L 2900 506 
Q 2647 200 2364 54 
Q 2081 -91 1741 -91 
Q 1134 -91 817 281 
Q 500 653 500 1363 
z
" transform="scale(0.015625)"/>
      <path id="DejaVuSans-Bold-6c" d="M 538 4863 
L 1656 4863 
L 1656 0 
L 538 0 
L 538 4863 
z
" transform="scale(0.015625)"/>
      <path id="DejaVuSans-Bold-20" transform="scale(0.015625)"/>
      <path id="DejaVuSans-Bold-46" d="M 588 4666 
L 3834 4666 
L 3834 3756 
L 1791 3756 
L 1791 2888 
L 3713 2888 
L 3713 1978 
L 1791 1978 
L 1791 0 
L 588 0 
L 588 4666 
z
" transform="scale(0.015625)"/>
      <path id="DejaVuSans-Bold-61" d="M 2106 1575 
Q 1756 1575 1579 1456 
Q 1403 1338 1403 1106 
Q 1403 894 1545 773 
Q 1688 653 1941 653 
Q 2256 653 2472 879 
Q 2688 1106 2688 1447 
L 2688 1575 
L 2106 1575 
z
M 3816 1997 
L 3816 0 
L 2688 0 
L 2688 519 
Q 2463 200 2181 54 
Q 1900 -91 1497 -91 
Q 953 -91 614 226 
Q 275 544 275 1050 
Q 275 1666 698 1953 
Q 1122 2241 2028 2241 
L 2688 2241 
L 2688 2328 
Q 2688 2594 2478 2717 
Q 2269 2841 1825 2841 
Q 1466 2841 1156 2769 
Q 847 2697 581 2553 
L 581 3406 
Q 941 3494 1303 3539 
Q 1666 3584 2028 3584 
Q 2975 3584 3395 3211 
Q 3816 2838 3816 1997 
z
" transform="scale(0.015625)"/>
      <path id="DejaVuSans-Bold-67" d="M 2919 594 
Q 2688 288 2409 144 
Q 2131 0 1766 0 
Q 1125 0 706 504 
Q 288 1009 288 1791 
Q 288 2575 706 3076 
Q 1125 3578 1766 3578 
Q 2131 3578 2409 3434 
Q 2688 3291 2919 2981 
L 2919 3500 
L 4044 3500 
L 4044 353 
Q 4044 -491 3511 -936 
Q 2978 -1381 1966 -1381 
Q 1638 -1381 1331 -1331 
Q 1025 -1281 716 -1178 
L 716 -306 
Q 1009 -475 1290 -558 
Q 1572 -641 1856 -641 
Q 2406 -641 2662 -400 
Q 2919 -159 2919 353 
L 2919 594 
z
M 2181 2772 
Q 1834 2772 1640 2515 
Q 1447 2259 1447 1791 
Q 1447 1309 1634 1061 
Q 1822 813 2181 813 
Q 2531 813 2725 1069 
Q 2919 1325 2919 1791 
Q 2919 2259 2725 2515 
Q 2531 2772 2181 2772 
z
" transform="scale(0.015625)"/>
      <path id="DejaVuSans-Bold-2014" d="M 344 2156 
L 6056 2156 
L 6056 1350 
L 344 1350 
L 344 2156 
z
" transform="scale(0.015625)"/>
      <path id="DejaVuSans-Bold-54" d="M 31 4666 
L 4331 4666 
L 4331 3756 
L 2784 3756 
L 2784 0 
L 1581 0 
L 1581 3756 
L 31 3756 
L 31 4666 
z
" transform="scale(0.015625)"/>
      <path id="DejaVuSans-Bold-53" d="M 3834 4519 
L 3834 3531 
Q 3450 3703 3084 3790 
Q 2719 3878 2394 3878 
Q 1963 3878 1756 3759 
Q 1550 3641 1550 3391 
Q 1550 3203 1689 3098 
Q 1828 2994 2194 2919 
L 2706 2816 
Q 3484 2659 3812 2340 
Q 4141 2022 4141 1434 
Q 4141 663 3683 286 
Q 3225 -91 2284 -91 
Q 1841 -91 1394 -6 
Q 947 78 500 244 
L 500 1259 
Q 947 1022 1364 901 
Q 1781 781 2169 781 
Q 2563 781 2772 912 
Q 2981 1044 2981 1288 
Q 2981 1506 2839 1625 
Q 2697 1744 2272 1838 
L 1806 1941 
Q 1106 2091 782 2419 
Q 459 2747 459 3303 
Q 459 4000 909 4375 
Q 1359 4750 2203 4750 
Q 2588 4750 2994 4692 
Q 3400 4634 3834 4519 
z
" transform="scale(0.015625)"/>
      <path id="DejaVuSans-Bold-4c" d="M 588 4666 
L 1791 4666 
L 1791 909 
L 3903 909 
L 3903 0 
L 588 0 
L 588 4666 
z
" transform="scale(0.015625)"/>
      <path id="DejaVuSans-Bold-41" d="M 3419 850 
L 1538 850 
L 1241 0 
L 31 0 
L 1759 4666 
L 3194 4666 
L 4922 0 
L 3713 0 
L 3419 850 
z
M 1838 1716 
L 3116 1716 
L 2478 3572 
L 1838 1716 
z
" transform="scale(0.015625)"/>
      <path id="DejaVuSans-Bold-31" d="M 750 831 
L 1813 831 
L 1813 3847 
L 722 3622 
L 722 4441 
L 1806 4666 
L 2950 4666 
L 2950 831 
L 4013 831 
L 4013 0 
L 750 0 
L 750 831 
z
" transform="scale(0.015625)"/>
      <path id="DejaVuSans-Bold-48" d="M 588 4666 
L 1791 4666 
L 1791 2888 
L 3566 2888 
L 3566 4666 
L 4769 4666 
L 4769 0 
L 3566 0 
L 3566 1978 
L 1791 1978 
L 1791 0 
L 588 0 
L 588 4666 
z
" transform="scale(0.015625)"/>
     </defs>
     <use xlink:href="#DejaVuSans-Bold-42"/>
     <use xlink:href="#DejaVuSans-Bold-75" transform="translate(76.220703 0)"/>
     <use xlink:href="#DejaVuSans-Bold-6c" transform="translate(147.412109 0)"/>
     <use xlink:href="#DejaVuSans-Bold-6c" transform="translate(181.689453 0)"/>
     <use xlink:href="#DejaVuSans-Bold-20" transform="translate(215.966797 0)"/>
     <use xlink:href="#DejaVuSans-Bold-46" transform="translate(250.78125 0)"/>
     <use xlink:href="#DejaVuSans-Bold-6c" transform="translate(319.091797 0)"/>
     <use xlink:href="#DejaVuSans-Bold-61" transform="translate(353.369141 0)"/>
     <use xlink:href="#DejaVuSans-Bold-67" transform="translate(420.849609 0)"/>
     <use xlink:href="#DejaVuSans-Bold-20" transform="translate(492.431641 0)"/>
     <use xlink:href="#DejaVuSans-Bold-2014" transform="translate(527.246094 0)"/>
     <use xlink:href="#DejaVuSans-Bold-20" transform="translate(627.246094 0)"/>
     <use xlink:href="#DejaVuSans-Bold-54" transform="translate(662.060547 0)"/>
     <use xlink:href="#DejaVuSans-Bold-53" transform="translate(730.273438 0)"/>
     <use xlink:href="#DejaVuSans-Bold-4c" transform="translate(802.294922 0)"/>
     <use xlink:href="#DejaVuSans-Bold-41" transform="translate(866.015625 0)"/>
     <use xlink:href="#DejaVuSans-Bold-20" transform="translate(943.408203 0)"/>
     <use xlink:href="#DejaVuSans-Bold-31" transform="translate(978.222656 0)"/>
     <use xlink:href="#DejaVuSans-Bold-48" transform="translate(1047.802734 0)"/>
    </g>
   </g>
  </g>
  <g id="axes_2">
   <g id="patch_35">
    <path d="M 31.0325 253.078125 
L 477.4325 253.078125 
L 477.4325 198.99032 
L 31.0325 198.99032 
z
" style="fill: #0a0f1a"/>
   </g>
   <g id="patch_36">
    <path d="M 51.323409 253.078125 
L 60.888147 253.078125 
L 60.888147 206.346531 
L 51.323409 206.346531 
z
" clip-path="url(#p2839c6083f)" style="fill: #22c55e; fill-opacity: 0.266667"/>
   </g>
   <g id="patch_37">
    <path d="M 64.987321 253.078125 
L 74.552059 253.078125 
L 74.552059 208.696457 
L 64.987321 208.696457 
z
" clip-path="url(#p2839c6083f)" style="fill: #ef4444; fill-opacity: 0.266667"/>
   </g>
   <g id="patch_38">
    <path d="M 78.651233 253.078125 
L 88.215971 253.078125 
L 88.215971 205.276584 
L 78.651233 205.276584 
z
" clip-path="url(#p2839c6083f)" style="fill: #ef4444; fill-opacity: 0.266667"/>
   </g>
   <g id="patch_39">
    <path d="M 92.315145 253.078125 
L 101.879883 253.078125 
L 101.879883 224.187522 
L 92.315145 224.187522 
z
" clip-path="url(#p2839c6083f)" style="fill: #22c55e; fill-opacity: 0.266667"/>
   </g>
   <g id="patch_40">
    <path d="M 105.979056 253.078125 
L 115.543795 253.078125 
L 115.543795 220.29743 
L 105.979056 220.29743 
z
" clip-path="url(#p2839c6083f)" style="fill: #22c55e; fill-opacity: 0.266667"/>
   </g>
   <g id="patch_41">
    <path d="M 119.642968 253.078125 
L 129.207707 253.078125 
L 129.207707 221.333754 
L 119.642968 221.333754 
z
" clip-path="url(#p2839c6083f)" style="fill: #22c55e; fill-opacity: 0.266667"/>
   </g>
   <g id="patch_42">
    <path d="M 133.30688 253.078125 
L 142.871618 253.078125 
L 142.871618 204.858534 
L 133.30688 204.858534 
z
" clip-path="url(#p2839c6083f)" style="fill: #ef4444; fill-opacity: 0.266667"/>
   </g>
   <g id="patch_43">
    <path d="M 146.970792 253.078125 
L 156.53553 253.078125 
L 156.53553 228.71074 
L 146.970792 228.71074 
z
" clip-path="url(#p2839c6083f)" style="fill: #ef4444; fill-opacity: 0.266667"/>
   </g>
   <g id="patch_44">
    <path d="M 160.634704 253.078125 
L 170.199442 253.078125 
L 170.199442 201.754094 
L 160.634704 201.754094 
z
" clip-path="url(#p2839c6083f)" style="fill: #22c55e; fill-opacity: 0.266667"/>
   </g>
   <g id="patch_45">
    <path d="M 174.298616 253.078125 
L 183.863354 253.078125 
L 183.863354 214.874806 
L 174.298616 214.874806 
z
" clip-path="url(#p2839c6083f)" style="fill: #ef4444; fill-opacity: 0.266667"/>
   </g>
   <g id="patch_46">
    <path d="M 187.962528 253.078125 
L 197.527266 253.078125 
L 197.527266 225.476494 
L 187.962528 225.476494 
z
" clip-path="url(#p2839c6083f)" style="fill: #ef4444; fill-opacity: 0.266667"/>
   </g>
   <g id="patch_47">
    <path d="M 201.626439 253.078125 
L 211.191178 253.078125 
L 211.191178 211.885606 
L 201.626439 211.885606 
z
" clip-path="url(#p2839c6083f)" style="fill: #ef4444; fill-opacity: 0.266667"/>
   </g>
   <g id="patch_48">
    <path d="M 215.290351 253.078125 
L 224.85509 253.078125 
L 224.85509 235.128741 
L 215.290351 235.128741 
z
" clip-path="url(#p2839c6083f)" style="fill: #ef4444; fill-opacity: 0.266667"/>
   </g>
   <g id="patch_49">
    <path d="M 228.954263 253.078125 
L 238.519001 253.078125 
L 238.519001 235.319751 
L 228.954263 235.319751 
z
" clip-path="url(#p2839c6083f)" style="fill: #22c55e; fill-opacity: 0.266667"/>
   </g>
   <g id="patch_50">
    <path d="M 242.618175 253.078125 
L 252.182913 253.078125 
L 252.182913 230.250353 
L 242.618175 230.250353 
z
" clip-path="url(#p2839c6083f)" style="fill: #22c55e; fill-opacity: 0.266667"/>
   </g>
   <g id="patch_51">
    <path d="M 256.282087 253.078125 
L 265.846825 253.078125 
L 265.846825 225.953252 
L 256.282087 225.953252 
z
" clip-path="url(#p2839c6083f)" style="fill: #ef4444; fill-opacity: 0.266667"/>
   </g>
   <g id="patch_52">
    <path d="M 269.945999 253.078125 
L 279.510737 253.078125 
L 279.510737 218.822703 
L 269.945999 218.822703 
z
" clip-path="url(#p2839c6083f)" style="fill: #22c55e; fill-opacity: 0.266667"/>
   </g>
   <g id="patch_53">
    <path d="M 283.60991 253.078125 
L 293.174649 253.078125 
L 293.174649 203.942291 
L 283.60991 203.942291 
z
" clip-path="url(#p2839c6083f)" style="fill: #ef4444; fill-opacity: 0.266667"/>
   </g>
   <g id="patch_54">
    <path d="M 297.273822 253.078125 
L 306.838561 253.078125 
L 306.838561 230.852406 
L 297.273822 230.852406 
z
" clip-path="url(#p2839c6083f)" style="fill: #ef4444; fill-opacity: 0.266667"/>
   </g>
   <g id="patch_55">
    <path d="M 310.937734 253.078125 
L 320.502472 253.078125 
L 320.502472 223.385829 
L 310.937734 223.385829 
z
" clip-path="url(#p2839c6083f)" style="fill: #22c55e; fill-opacity: 0.266667"/>
   </g>
   <g id="patch_56">
    <path d="M 324.601646 253.078125 
L 334.166384 253.078125 
L 334.166384 201.56593 
L 324.601646 201.56593 
z
" clip-path="url(#p2839c6083f)" style="fill: #22c55e; fill-opacity: 0.266667"/>
   </g>
   <g id="patch_57">
    <path d="M 338.265558 253.078125 
L 347.830296 253.078125 
L 347.830296 209.9658 
L 338.265558 209.9658 
z
" clip-path="url(#p2839c6083f)" style="fill: #22c55e; fill-opacity: 0.266667"/>
   </g>
   <g id="patch_58">
    <path d="M 351.92947 253.078125 
L 361.494208 253.078125 
L 361.494208 225.225566 
L 351.92947 225.225566 
z
" clip-path="url(#p2839c6083f)" style="fill: #22c55e; fill-opacity: 0.266667"/>
   </g>
   <g id="patch_59">
    <path d="M 365.593382 253.078125 
L 375.15812 253.078125 
L 375.15812 211.124818 
L 365.593382 211.124818 
z
" clip-path="url(#p2839c6083f)" style="fill: #22c55e; fill-opacity: 0.266667"/>
   </g>
   <g id="patch_60">
    <path d="M 379.257293 253.078125 
L 388.822032 253.078125 
L 388.822032 235.706047 
L 379.257293 235.706047 
z
" clip-path="url(#p2839c6083f)" style="fill: #ef4444; fill-opacity: 0.266667"/>
   </g>
   <g id="patch_61">
    <path d="M 392.921205 253.078125 
L 402.485944 253.078125 
L 402.485944 211.666166 
L 392.921205 211.666166 
z
" clip-path="url(#p2839c6083f)" style="fill: #22c55e; fill-opacity: 0.266667"/>
   </g>
   <g id="patch_62">
    <path d="M 406.585117 253.078125 
L 416.149855 253.078125 
L 416.149855 207.846959 
L 406.585117 207.846959 
z
" clip-path="url(#p2839c6083f)" style="fill: #ef4444; fill-opacity: 0.266667"/>
   </g>
   <g id="patch_63">
    <path d="M 420.249029 253.078125 
L 429.813767 253.078125 
L 429.813767 203.291074 
L 420.249029 203.291074 
z
" clip-path="url(#p2839c6083f)" style="fill: #22c55e; fill-opacity: 0.266667"/>
   </g>
   <g id="patch_64">
    <path d="M 433.912941 253.078125 
L 443.477679 253.078125 
L 443.477679 225.483511 
L 433.912941 225.483511 
z
" clip-path="url(#p2839c6083f)" style="fill: #22c55e; fill-opacity: 0.266667"/>
   </g>
   <g id="patch_65">
    <path d="M 447.576853 253.078125 
L 457.141591 253.078125 
L 457.141591 209.140178 
L 447.576853 209.140178 
z
" clip-path="url(#p2839c6083f)" style="fill: #ef4444; fill-opacity: 0.266667"/>
   </g>
   <g id="matplotlib.axis_3">
    <g id="xtick_8">
     <g id="line2d_59">
      <path d="M 56.105778 253.078125 
L 56.105778 198.99032 
" clip-path="url(#p2839c6083f)" style="fill: none; stroke-dasharray: 2.96,1.28; stroke-dashoffset: 0; stroke: #374151; stroke-opacity: 0.1; stroke-width: 0.8"/>
     </g>
     <g id="line2d_60">
      <g>
       <use xlink:href="#m0f63dc2543" x="56.105778" y="253.078125" style="fill: #9ca3af; stroke: #9ca3af; stroke-width: 0.8"/>
      </g>
     </g>
     <g id="text_9">
      <!-- 0 -->
      <g style="fill: #9ca3af" transform="translate(53.560778 266.156875) scale(0.08 -0.08)">
       <use xlink:href="#DejaVuSans-30"/>
      </g>
     </g>
    </g>
    <g id="xtick_9">
     <g id="line2d_61">
      <path d="M 124.425337 253.078125 
L 124.425337 198.99032 
" clip-path="url(#p2839c6083f)" style="fill: none; stroke-dasharray: 2.96,1.28; stroke-dashoffset: 0; stroke: #374151; stroke-opacity: 0.1; stroke-width: 0.8"/>
     </g>
     <g id="line2d_62">
      <g>
       <use xlink:href="#m0f63dc2543" x="124.425337" y="253.078125" style="fill: #9ca3af; stroke: #9ca3af; stroke-width: 0.8"/>
      </g>
     </g>
     <g id="text_10">
      <!-- 5 -->
      <g style="fill: #9ca3af" transform="translate(121.880337 266.156875) scale(0.08 -0.08)">
       <defs>
        <path id="DejaVuSans-35" d="M 691 4666 
L 3169 4666 
L 3169 4134 
L 1269 4134 
L 1269 2991 
Q 1406 3038 1543 3061 
Q 1681 3084 1819 3084 
Q 2600 3084 3056 2656 
Q 3513 2228 3513 1497 
Q 3513 744 3044 326 
Q 2575 -91 1722 -91 
Q 1428 -91 1123 -41 
Q 819 9 494 109 
L 494 744 
Q 775 591 1075 516 
Q 1375 441 1709 441 
Q 2250 441 2565 725 
Q 2881 1009 2881 1497 
Q 2881 1984 2565 2268 
Q 2250 2553 1709 2553 
Q 1456 2553 1204 2497 
Q 953 2441 691 2322 
L 691 4666 
z
" transform="scale(0.015625)"/>
       </defs>
       <use xlink:href="#DejaVuSans-35"/>
      </g>
     </g>
    </g>
    <g id="xtick_10">
     <g id="line2d_63">
      <path d="M 192.744897 253.078125 
L 192.744897 198.99032 
" clip-path="url(#p2839c6083f)" style="fill: none; stroke-dasharray: 2.96,1.28; stroke-dashoffset: 0; stroke: #374151; stroke-opacity: 0.1; stroke-width: 0.8"/>
     </g>
     <g id="line2d_64">
      <g>
       <use xlink:href="#m0f63dc2543" x="192.744897" y="253.078125" style="fill: #9ca3af; stroke: #9ca3af; stroke-width: 0.8"/>
      </g>
     </g>
     <g id="text_11">
      <!-- 10 -->
      <g style="fill: #9ca3af" transform="translate(187.654897 266.156875) scale(0.08 -0.08)">
       <use xlink:href="#DejaVuSans-31"/>
       <use xlink:href="#DejaVuSans-30" transform="translate(63.623047 0)"/>
      </g>
     </g>
    </g>
    <g id="xtick_11">
     <g id="line2d_65">
      <path d="M 261.064456 253.078125 
L 261.064456 198.99032 
" clip-path="url(#p2839c6083f)" style="fill: none; stroke-dasharray: 2.96,1.28; stroke-dashoffset: 0; stroke: #374151; stroke-opacity: 0.1; stroke-width: 0.8"/>
     </g>
     <g id="line2d_66">
      <g>
       <use xlink:href="#m0f63dc2543" x="261.064456" y="253.078125" style="fill: #9ca3af; stroke: #9ca3af; stroke-width: 0.8"/>
      </g>
     </g>
     <g id="text_12">
      <!-- 15 -->
      <g style="fill: #9ca3af" transform="translate(255.974456 266.156875) scale(0.08 -0.08)">
       <use xlink:href="#DejaVuSans-31"/>
       <use xlink:href="#DejaVuSans-35" transform="translate(63.623047 0)"/>
      </g>
     </g>
    </g>
    <g id="xtick_12">
     <g id="line2d_67">
      <path d="M 329.384015 253.078125 
L 329.384015 198.99032 
" clip-path="url(#p2839c6083f)" style="fill: none; stroke-dasharray: 2.96,1.28; stroke-dashoffset: 0; stroke: #374151; stroke-opacity: 0.1; stroke-width: 0.8"/>
     </g>
     <g id="line2d_68">
      <g>
       <use xlink:href="#m0f63dc2543" x="329.384015" y="253.078125" style="fill: #9ca3af; stroke: #9ca3af; stroke-width: 0.8"/>
      </g>
     </g>
     <g id="text_13">
      <!-- 20 -->
      <g style="fill: #9ca3af" transform="translate(324.294015 266.156875) scale(0.08 -0.08)">
       <use xlink:href="#DejaVuSans-32"/>
       <use xlink:href="#DejaVuSans-30" transform="translate(63.623047 0)"/>
      </g>
     </g>
    </g>
    <g id="xtick_13">
     <g id="line2d_69">
      <path d="M 397.703574 253.078125 
L 397.703574 198.99032 
" clip-path="url(#p2839c6083f)" style="fill: none; stroke-dasharray: 2.96,1.28; stroke-dashoffset: 0; stroke: #374151; stroke-opacity: 0.1; stroke-width: 0.8"/>
     </g>
     <g id="line2d_70">
      <g>
       <use xlink:href="#m0f63dc2543" x="397.703574" y="253.078125" style="fill: #9ca3af; stroke: #9ca3af; stroke-width: 0.8"/>
      </g>
     </g>
     <g id="text_14">
      <!-- 25 -->
      <g style="fill: #9ca3af" transform="translate(392.613574 266.156875) scale(0.08 -0.08)">
       <use xlink:href="#DejaVuSans-32"/>
       <use xlink:href="#DejaVuSans-35" transform="translate(63.623047 0)"/>
      </g>
     </g>
    </g>
    <g id="xtick_14">
     <g id="line2d_71">
      <path d="M 466.023134 253.078125 
L 466.023134 198.99032 
" clip-path="url(#p2839c6083f)" style="fill: none; stroke-dasharray: 2.96,1.28; stroke-dashoffset: 0; stroke: #374151; stroke-opacity: 0.1; stroke-width: 0.8"/>
     </g>
     <g id="line2d_72">
      <g>
       <use xlink:href="#m0f63dc2543" x="466.023134" y="253.078125" style="fill: #9ca3af; stroke: #9ca3af; stroke-width: 0.8"/>
      </g>
     </g>
     <g id="text_15">
      <!-- 30 -->
      <g style="fill: #9ca3af" transform="translate(460.933134 266.156875) scale(0.08 -0.08)">
       <defs>
        <path id="DejaVuSans-33" d="M 2597 2516 
Q 3050 2419 3304 2112 
Q 3559 1806 3559 1356 
Q 3559 666 3084 287 
Q 2609 -91 1734 -91 
Q 1441 -91 1130 -33 
Q 819 25 488 141 
L 488 750 
Q 750 597 1062 519 
Q 1375 441 1716 441 
Q 2309 441 2620 675 
Q 2931 909 2931 1356 
Q 2931 1769 2642 2001 
Q 2353 2234 1838 2234 
L 1294 2234 
L 1294 2753 
L 1863 2753 
Q 2328 2753 2575 2939 
Q 2822 3125 2822 3475 
Q 2822 3834 2567 4026 
Q 2313 4219 1838 4219 
Q 1578 4219 1281 4162 
Q 984 4106 628 3988 
L 628 4550 
Q 988 4650 1302 4700 
Q 1616 4750 1894 4750 
Q 2613 4750 3031 4423 
Q 3450 4097 3450 3541 
Q 3450 3153 3228 2886 
Q 3006 2619 2597 2516 
z
" transform="scale(0.015625)"/>
       </defs>
       <use xlink:href="#DejaVuSans-33"/>
       <use xlink:href="#DejaVuSans-30" transform="translate(63.623047 0)"/>
      </g>
     </g>
    </g>
   </g>
   <g id="matplotlib.axis_4">
    <g id="ytick_8">
     <g id="line2d_73">
      <path d="M 31.0325 253.078125 
L 477.4325 253.078125 
" clip-path="url(#p2839c6083f)" style="fill: none; stroke-dasharray: 2.96,1.28; stroke-dashoffset: 0; stroke: #374151; stroke-opacity: 0.1; stroke-width: 0.8"/>
     </g>
     <g id="line2d_74">
      <g>
       <use xlink:href="#mc143a58a05" x="31.0325" y="253.078125" style="fill: #9ca3af; stroke: #9ca3af; stroke-width: 0.8"/>
      </g>
     </g>
     <g id="text_16">
      <!-- 0 -->
      <g style="fill: #9ca3af" transform="translate(18.9425 256.1175) scale(0.08 -0.08)">
       <use xlink:href="#DejaVuSans-30"/>
      </g>
     </g>
    </g>
    <g id="ytick_9">
     <g id="line2d_75">
      <path d="M 31.0325 231.845448 
L 477.4325 231.845448 
" clip-path="url(#p2839c6083f)" style="fill: none; stroke-dasharray: 2.96,1.28; stroke-dashoffset: 0; stroke: #374151; stroke-opacity: 0.1; stroke-width: 0.8"/>
     </g>
     <g id="line2d_76">
      <g>
       <use xlink:href="#mc143a58a05" x="31.0325" y="231.845448" style="fill: #9ca3af; stroke: #9ca3af; stroke-width: 0.8"/>
      </g>
     </g>
     <g id="text_17">
      <!-- 2 -->
      <g style="fill: #9ca3af" transform="translate(18.9425 234.884823) scale(0.08 -0.08)">
       <use xlink:href="#DejaVuSans-32"/>
      </g>
     </g>
    </g>
    <g id="ytick_10">
     <g id="line2d_77">
      <path d="M 31.0325 210.61277 
L 477.4325 210.61277 
" clip-path="url(#p2839c6083f)" style="fill: none; stroke-dasharray: 2.96,1.28; stroke-dashoffset: 0; stroke: #374151; stroke-opacity: 0.1; stroke-width: 0.8"/>
     </g>
     <g id="line2d_78">
      <g>
       <use xlink:href="#mc143a58a05" x="31.0325" y="210.61277" style="fill: #9ca3af; stroke: #9ca3af; stroke-width: 0.8"/>
      </g>
     </g>
     <g id="text_18">
      <!-- 4 -->
      <g style="fill: #9ca3af" transform="translate(18.9425 213.652145) scale(0.08 -0.08)">
       <use xlink:href="#DejaVuSans-34"/>
      </g>
     </g>
    </g>
    <g id="text_19">
     <!-- Vol -->
     <g style="fill: #9ca3af" transform="translate(13.27875 232.019223) rotate(-90) scale(0.08 -0.08)">
      <defs>
       <path id="DejaVuSans-56" d="M 1831 0 
L 50 4666 
L 709 4666 
L 2188 738 
L 3669 4666 
L 4325 4666 
L 2547 0 
L 1831 0 
z
" transform="scale(0.015625)"/>
       <path id="DejaVuSans-6f" d="M 1959 3097 
Q 1497 3097 1228 2736 
Q 959 2375 959 1747 
Q 959 1119 1226 758 
Q 1494 397 1959 397 
Q 2419 397 2687 759 
Q 2956 1122 2956 1747 
Q 2956 2369 2687 2733 
Q 2419 3097 1959 3097 
z
M 1959 3584 
Q 2709 3584 3137 3096 
Q 3566 2609 3566 1747 
Q 3566 888 3137 398 
Q 2709 -91 1959 -91 
Q 1206 -91 779 398 
Q 353 888 353 1747 
Q 353 2609 779 3096 
Q 1206 3584 1959 3584 
z
" transform="scale(0.015625)"/>
       <path id="DejaVuSans-6c" d="M 603 4863 
L 1178 4863 
L 1178 0 
L 603 0 
L 603 4863 
z
" transform="scale(0.015625)"/>
      </defs>
      <use xlink:href="#DejaVuSans-56"/>
      <use xlink:href="#DejaVuSans-6f" transform="translate(60.658203 0)"/>
      <use xlink:href="#DejaVuSans-6c" transform="translate(121.839844 0)"/>
     </g>
    </g>
    <g id="text_20">
     <!-- 1e6 -->
     <g style="fill: #9ca3af" transform="translate(31.0325 195.99032) scale(0.1 -0.1)">
      <defs>
       <path id="DejaVuSans-65" d="M 3597 1894 
L 3597 1613 
L 953 1613 
Q 991 1019 1311 708 
Q 1631 397 2203 397 
Q 2534 397 2845 478 
Q 3156 559 3463 722 
L 3463 178 
Q 3153 47 2828 -22 
Q 2503 -91 2169 -91 
Q 1331 -91 842 396 
Q 353 884 353 1716 
Q 353 2575 817 3079 
Q 1281 3584 2069 3584 
Q 2775 3584 3186 3129 
Q 3597 2675 3597 1894 
z
M 3022 2063 
Q 3016 2534 2758 2815 
Q 2500 3097 2075 3097 
Q 1594 3097 1305 2825 
Q 1016 2553 972 2059 
L 3022 2063 
z
" transform="scale(0.015625)"/>
      </defs>
      <use xlink:href="#DejaVuSans-31"/>
      <use xlink:href="#DejaVuSans-65" transform="translate(63.623047 0)"/>
      <use xlink:href="#DejaVuSans-36" transform="translate(125.146484 0)"/>
     </g>
    </g>
   </g>
   <g id="patch_66">
    <path d="M 31.0325 253.078125 
L 31.0325 198.99032 
" style="fill: none; stroke: #1f2937; stroke-width: 0.8; stroke-linejoin: miter; stroke-linecap: square"/>
   </g>
   <g id="patch_67">
    <path d="M 31.0325 253.078125 
L 477.4325 253.078125 
" style="fill: none; stroke: #1f2937; stroke-width: 0.8; stroke-linejoin: miter; stroke-linecap: square"/>
   </g>
  </g>
 </g>
 <defs>
  <clipPath id="p399b51fd46">
   <rect x="31.0325" y="31.318125" width="446.4" height="162.263415"/>
  </clipPath>
  <clipPath id="p2839c6083f">
   <rect x="31.0325" y="198.99032" width="446.4" height="54.087805"/>
  </clipPath>
 </defs>
</svg>
