<?xml version="1.0" encoding="utf-8" standalone="no"?>
<!DOCTYPE svg PUBLIC "-//W3C//DTD SVG 1.1//EN"
  "http://www.w3.org/Graphics/SVG/1.1/DTD/svg11.dtd">
<svg xmlns:xlink="http://www.w3.org/1999/xlink" width="487.839687pt" height="267.533125pt" viewBox="0 0 487.839687 267.533125" xmlns="http://www.w3.org/2000/svg" version="1.1">
 <metadata>
  <rdf:RDF xmlns:dc="http://purl.org/dc/elements/1.1/" xmlns:cc="http://creativecommons.org/ns#" xmlns:rdf="http://www.w3.org/1999/02/22-rdf-syntax-ns#">
   <cc:Work>
    <dc:type rdf:resource="http://purl.org/dc/dcmitype/StillImage"/>
    <dc:date>2026-02-16T00:23:04.216328</dc:date>
    <dc:format>image/svg+xml</dc:format>
    <dc:creator>
     <cc:Agent>
      <dc:title>Matplotlib v3.10.8, https://matplotlib.org/</dc:title>
     </cc:Agent>
    </dc:creator>
   </cc:Work>
  </rdf:RDF>
 </metadata>
 <defs>
  <style type="text/css">*{stroke-linejoin: round; stroke-linecap: butt}</style>
 </defs>
 <g id="figure_1">
  <g id="patch_1">
   <path d="M 0 267.533125 
L 487.839687 267.533125 
L 487.839687 0 
L 0 0 
z
" style="fill: #0a0f1a"/>
  </g>
  <g id="axes_1">
   <g id="patch_2">
    <path d="M 34.239688 187.061852 
L 480.639687 187.061852 
L 480.639687 24.798438 
L 34.239688 24.798438 
z
" style="fill: #0a0f1a"/>
   </g>
   <g id="patch_3">
    <path d="M 43.599688 135.818103 
L 53.679688 135.818103 
Q 53.967687 135.818103 53.967687 135.673237 
L 53.967687 129.60622 
Q 53.967687 129.461354 53.679688 129.461354 
L 43.599688 129.461354 
Q 43.311688 129.461354 43.311688 129.60622 
L 43.311688 135.673237 
Q 43.311688 135.818103 43.599688 135.818103 
z
" clip-path="url(#p6e0085fc17)" style="fill: #ef4444; stroke: #ef4444; stroke-linejoin: miter"/>
   </g>
   <g id="patch_4">
    <path d="M 57.999688 145.409457 
L 68.079688 145.409457 
Q 68.367688 145.409457 68.367688 145.264591 
L 68.367688 138.83643 
Q 68.367688 138.691564 68.079688 138.691564 
L 57.999688 138.691564 
Q 57.711687 138.691564 57.711687 138.83643 
L 57.711687 145.264591 
Q 57.711687 145.409457 57.999688 145.409457 
z
" clip-path="url(#p6e0085fc17)" style="fill: #ef4444; stroke: #ef4444; stroke-linejoin: miter"/>
   </g>
   <g id="patch_5">
    <path d="M 72.399687 149.395851 
L 82.479687 149.395851 
Q 82.767687 149.395851 82.767687 149.250985 
L 82.767687 139.387269 
Q 82.767687 139.242404 82.479687 139.242404 
L 72.399687 139.242404 
Q 72.111688 139.242404 72.111688 139.387269 
L 72.111688 149.250985 
Q 72.111688 149.395851 72.399687 149.395851 
z
" clip-path="url(#p6e0085fc17)" style="fill: #ef4444; stroke: #ef4444; stroke-linejoin: miter"/>
   </g>
   <g id="patch_6">
    <path d="M 86.799688 173.298725 
L 96.879687 173.298725 
Q 97.167687 173.298725 97.167687 173.153859 
L 97.167687 159.675258 
Q 97.167687 159.530392 96.879687 159.530392 
L 86.799688 159.530392 
Q 86.511687 159.530392 86.511687 159.675258 
L 86.511687 173.153859 
Q 86.511687 173.298725 86.799688 173.298725 
z
" clip-path="url(#p6e0085fc17)" style="fill: #22c55e; stroke: #22c55e; stroke-linejoin: miter"/>
   </g>
   <g id="patch_7">
    <path d="M 101.199687 169.192784 
L 111.279687 169.192784 
Q 111.567688 169.192784 111.567688 169.047919 
L 111.567688 157.756244 
Q 111.567688 157.611379 111.279687 157.611379 
L 101.199687 157.611379 
Q 100.911687 157.611379 100.911687 157.756244 
L 100.911687 169.047919 
Q 100.911687 169.192784 101.199687 169.192784 
z
" clip-path="url(#p6e0085fc17)" style="fill: #ef4444; stroke: #ef4444; stroke-linejoin: miter"/>
   </g>
   <g id="patch_8">
    <path d="M 115.599687 167.993049 
L 125.679688 167.993049 
Q 125.967688 167.993049 125.967688 167.848183 
L 125.967688 159.172266 
Q 125.967688 159.027401 125.679688 159.027401 
L 115.599687 159.027401 
Q 115.311688 159.027401 115.311688 159.172266 
L 115.311688 167.848183 
Q 115.311688 167.993049 115.599687 167.993049 
z
" clip-path="url(#p6e0085fc17)" style="fill: #22c55e; stroke: #22c55e; stroke-linejoin: miter"/>
   </g>
   <g id="patch_9">
    <path d="M 129.999687 160.58316 
L 140.079688 160.58316 
Q 140.367688 160.58316 140.367688 160.438294 
L 140.367688 150.970753 
Q 140.367688 150.825888 140.079688 150.825888 
L 129.999687 150.825888 
Q 129.711688 150.825888 129.711688 150.970753 
L 129.711688 160.438294 
Q 129.711688 160.58316 129.999687 160.58316 
z
" clip-path="url(#p6e0085fc17)" style="fill: #ef4444; stroke: #ef4444; stroke-linejoin: miter"/>
   </g>
   <g id="patch_10">
    <path d="M 144.399687 153.115096 
L 154.479688 153.115096 
Q 154.767687 153.115096 154.767687 152.97023 
L 154.767687 145.326942 
Q 154.767687 145.182076 154.479688 145.182076 
L 144.399687 145.182076 
Q 144.111688 145.182076 144.111688 145.326942 
L 144.111688 152.97023 
Q 144.111688 153.115096 144.399687 153.115096 
z
" clip-path="url(#p6e0085fc17)" style="fill: #ef4444; stroke: #ef4444; stroke-linejoin: miter"/>
   </g>
   <g id="patch_11">
    <path d="M 158.799688 152.735401 
L 168.879688 152.735401 
Q 169.167687 152.735401 169.167687 152.590535 
L 169.167687 138.571175 
Q 169.167687 138.42631 168.879688 138.42631 
L 158.799688 138.42631 
Q 158.511687 138.42631 158.511687 138.571175 
L 158.511687 152.590535 
Q 158.511687 152.735401 158.799688 152.735401 
z
" clip-path="url(#p6e0085fc17)" style="fill: #22c55e; stroke: #22c55e; stroke-linejoin: miter"/>
   </g>
   <g id="patch_12">
    <path d="M 173.199687 164.588312 
L 183.279688 164.588312 
Q 183.567688 164.588312 183.567688 164.443447 
L 183.567688 153.024315 
Q 183.567688 152.87945 183.279688 152.87945 
L 173.199687 152.87945 
Q 172.911687 152.87945 172.911687 153.024315 
L 172.911687 164.443447 
Q 172.911687 164.588312 173.199687 164.588312 
z
" clip-path="url(#p6e0085fc17)" style="fill: #22c55e; stroke: #22c55e; stroke-linejoin: miter"/>
   </g>
   <g id="patch_13">
    <path d="M 187.599687 173.170309 
L 197.679688 173.170309 
Q 197.967688 173.170309 197.967688 173.025443 
L 197.967688 169.117707 
Q 197.967688 168.972841 197.679688 168.972841 
L 187.599687 168.972841 
Q 187.311688 168.972841 187.311688 169.117707 
L 187.311688 173.025443 
Q 187.311688 173.170309 187.599687 173.170309 
z
" clip-path="url(#p6e0085fc17)" style="fill: #22c55e; stroke: #22c55e; stroke-linejoin: miter"/>
   </g>
   <g id="patch_14">
    <path d="M 201.999687 172.628264 
L 212.079688 172.628264 
Q 212.367688 172.628264 212.367688 172.483398 
L 212.367688 164.003229 
Q 212.367688 163.858364 212.079688 163.858364 
L 201.999687 163.858364 
Q 201.711688 163.858364 201.711688 164.003229 
L 201.711688 172.483398 
Q 201.711688 172.628264 201.999687 172.628264 
z
" clip-path="url(#p6e0085fc17)" style="fill: #ef4444; stroke: #ef4444; stroke-linejoin: miter"/>
   </g>
   <g id="patch_15">
    <path d="M 216.399687 142.873225 
L 226.479688 142.873225 
Q 226.767687 142.873225 226.767687 142.728359 
L 226.767687 133.030333 
Q 226.767687 132.885468 226.479688 132.885468 
L 216.399687 132.885468 
Q 216.111688 132.885468 216.111688 133.030333 
L 216.111688 142.728359 
Q 216.111688 142.873225 216.399687 142.873225 
z
" clip-path="url(#p6e0085fc17)" style="fill: #ef4444; stroke: #ef4444; stroke-linejoin: miter"/>
   </g>
   <g id="patch_16">
    <path d="M 230.799688 130.890913 
L 240.879688 130.890913 
Q 241.167687 130.890913 241.167687 130.746048 
L 241.167687 117.778742 
Q 241.167687 117.633876 240.879688 117.633876 
L 230.799688 117.633876 
Q 230.511687 117.633876 230.511687 117.778742 
L 230.511687 130.746048 
Q 230.511687 130.890913 230.799688 130.890913 
z
" clip-path="url(#p6e0085fc17)" style="fill: #22c55e; stroke: #22c55e; stroke-linejoin: miter"/>
   </g>
   <g id="patch_17">
    <path d="M 245.199687 121.449682 
L 255.279687 121.449682 
Q 255.567688 121.449682 255.567688 121.304817 
L 255.567688 118.299965 
Q 255.567688 118.155099 255.279687 118.155099 
L 245.199687 118.155099 
Q 244.911687 118.155099 244.911687 118.299965 
L 244.911687 121.304817 
Q 244.911687 121.449682 245.199687 121.449682 
z
" clip-path="url(#p6e0085fc17)" style="fill: #ef4444; stroke: #ef4444; stroke-linejoin: miter"/>
   </g>
   <g id="patch_18">
    <path d="M 259.599687 132.467134 
L 269.679688 132.467134 
Q 269.967688 132.467134 269.967688 132.322269 
L 269.967688 118.440773 
Q 269.967688 118.295908 269.679688 118.295908 
L 259.599687 118.295908 
Q 259.311688 118.295908 259.311688 118.440773 
L 259.311688 132.322269 
Q 259.311688 132.467134 259.599687 132.467134 
z
" clip-path="url(#p6e0085fc17)" style="fill: #ef4444; stroke: #ef4444; stroke-linejoin: miter"/>
   </g>
   <g id="patch_19">
    <path d="M 273.999687 129.950847 
L 284.079687 129.950847 
Q 284.367687 129.950847 284.367687 129.805981 
L 284.367687 117.037992 
Q 284.367687 116.893126 284.079687 116.893126 
L 273.999687 116.893126 
Q 273.711687 116.893126 273.711687 117.037992 
L 273.711687 129.805981 
Q 273.711687 129.950847 273.999687 129.950847 
z
" clip-path="url(#p6e0085fc17)" style="fill: #22c55e; stroke: #22c55e; stroke-linejoin: miter"/>
   </g>
   <g id="patch_20">
    <path d="M 288.399687 132.667927 
L 298.479687 132.667927 
Q 298.767687 132.667927 298.767687 132.523062 
L 298.767687 128.558531 
Q 298.767687 128.413665 298.479687 128.413665 
L 288.399687 128.413665 
Q 288.111687 128.413665 288.111687 128.558531 
L 288.111687 132.523062 
Q 288.111687 132.667927 288.399687 132.667927 
z
" clip-path="url(#p6e0085fc17)" style="fill: #ef4444; stroke: #ef4444; stroke-linejoin: miter"/>
   </g>
   <g id="patch_21">
    <path d="M 302.799687 139.427838 
L 312.879687 139.427838 
Q 313.167687 139.427838 313.167687 139.282972 
L 313.167687 129.109657 
Q 313.167687 128.964792 312.879687 128.964792 
L 302.799687 128.964792 
Q 302.511687 128.964792 302.511687 129.109657 
L 302.511687 139.282972 
Q 302.511687 139.427838 302.799687 139.427838 
z
" clip-path="url(#p6e0085fc17)" style="fill: #22c55e; stroke: #22c55e; stroke-linejoin: miter"/>
   </g>
   <g id="patch_22">
    <path d="M 317.199687 123.954528 
L 327.279687 123.954528 
Q 327.567687 123.954528 327.567687 123.809662 
L 327.567687 115.097372 
Q 327.567687 114.952507 327.279687 114.952507 
L 317.199687 114.952507 
Q 316.911687 114.952507 316.911687 115.097372 
L 316.911687 123.809662 
Q 316.911687 123.954528 317.199687 123.954528 
z
" clip-path="url(#p6e0085fc17)" style="fill: #22c55e; stroke: #22c55e; stroke-linejoin: miter"/>
   </g>
   <g id="patch_23">
    <path d="M 331.599687 110.57137 
L 341.679687 110.57137 
Q 341.967687 110.57137 341.967687 110.426505 
L 341.967687 102.298383 
Q 341.967687 102.153518 341.679687 102.153518 
L 331.599687 102.153518 
Q 331.311687 102.153518 331.311687 102.298383 
L 331.311687 110.426505 
Q 331.311687 110.57137 331.599687 110.57137 
z
" clip-path="url(#p6e0085fc17)" style="fill: #ef4444; stroke: #ef4444; stroke-linejoin: miter"/>
   </g>
   <g id="patch_24">
    <path d="M 345.999687 100.999399 
L 356.079687 100.999399 
Q 356.367687 100.999399 356.367687 100.854534 
L 356.367687 87.845744 
Q 356.367687 87.700878 356.079687 87.700878 
L 345.999687 87.700878 
Q 345.711687 87.700878 345.711687 87.845744 
L 345.711687 100.854534 
Q 345.711687 100.999399 345.999687 100.999399 
z
" clip-path="url(#p6e0085fc17)" style="fill: #ef4444; stroke: #ef4444; stroke-linejoin: miter"/>
   </g>
   <g id="patch_25">
    <path d="M 360.399687 103.60236 
L 370.479687 103.60236 
Q 370.767687 103.60236 370.767687 103.457495 
L 370.767687 97.244048 
Q 370.767687 97.099182 370.479687 97.099182 
L 360.399687 97.099182 
Q 360.111687 97.099182 360.111687 97.244048 
L 360.111687 103.457495 
Q 360.111687 103.60236 360.399687 103.60236 
z
" clip-path="url(#p6e0085fc17)" style="fill: #22c55e; stroke: #22c55e; stroke-linejoin: miter"/>
   </g>
   <g id="patch_26">
    <path d="M 374.799687 100.549773 
L 384.879687 100.549773 
Q 385.167687 100.549773 385.167687 100.404907 
L 385.167687 90.219276 
Q 385.167687 90.07441 384.879687 90.07441 
L 374.799687 90.07441 
Q 374.511687 90.07441 374.511687 90.219276 
L 374.511687 100.404907 
Q 374.511687 100.549773 374.799687 100.549773 
z
" clip-path="url(#p6e0085fc17)" style="fill: #22c55e; stroke: #22c55e; stroke-linejoin: miter"/>
   </g>
   <g id="patch_27">
    <path d="M 389.199687 90.356117 
L 399.279687 90.356117 
Q 399.567687 90.356117 399.567687 90.211252 
L 399.567687 83.162379 
Q 399.567687 83.017514 399.279687 83.017514 
L 389.199687 83.017514 
Q 388.911687 83.017514 388.911687 83.162379 
L 388.911687 90.211252 
Q 388.911687 90.356117 389.199687 90.356117 
z
" clip-path="url(#p6e0085fc17)" style="fill: #ef4444; stroke: #ef4444; stroke-linejoin: miter"/>
   </g>
   <g id="patch_28">
    <path d="M 403.599687 83.867103 
L 413.679687 83.867103 
Q 413.967687 83.867103 413.967687 83.722238 
L 413.967687 74.428185 
Q 413.967687 74.283319 413.679687 74.283319 
L 403.599687 74.283319 
Q 403.311687 74.283319 403.311687 74.428185 
L 403.311687 83.722238 
Q 403.311687 83.867103 403.599687 83.867103 
z
" clip-path="url(#p6e0085fc17)" style="fill: #ef4444; stroke: #ef4444; stroke-linejoin: miter"/>
   </g>
   <g id="patch_29">
    <path d="M 417.999687 62.619875 
L 428.079687 62.619875 
Q 428.367687 62.619875 428.367687 62.47501 
L 428.367687 52.388008 
Q 428.367687 52.243143 428.079687 52.243143 
L 417.999687 52.243143 
Q 417.711687 52.243143 417.711687 52.388008 
L 417.711687 62.47501 
Q 417.711687 62.619875 417.999687 62.619875 
z
" clip-path="url(#p6e0085fc17)" style="fill: #ef4444; stroke: #ef4444; stroke-linejoin: miter"/>
   </g>
   <g id="patch_30">
    <path d="M 432.399687 48.341044 
L 442.479687 48.341044 
Q 442.767687 48.341044 442.767687 48.196178 
L 442.767687 34.578391 
Q 442.767687 34.433526 442.479687 34.433526 
L 432.399687 34.433526 
Q 432.111687 34.433526 432.111687 34.578391 
L 432.111687 48.196178 
Q 432.111687 48.341044 432.399687 48.341044 
z
" clip-path="url(#p6e0085fc17)" style="fill: #22c55e; stroke: #22c55e; stroke-linejoin: miter"/>
   </g>
   <g id="patch_31">
    <path d="M 446.799687 44.885798 
L 456.879687 44.885798 
Q 457.167687 44.885798 457.167687 44.740932 
L 457.167687 40.247789 
Q 457.167687 40.102923 456.879687 40.102923 
L 446.799687 40.102923 
Q 446.511687 40.102923 446.511687 40.247789 
L 446.511687 44.740932 
Q 446.511687 44.885798 446.799687 44.885798 
z
" clip-path="url(#p6e0085fc17)" style="fill: #ef4444; stroke: #ef4444; stroke-linejoin: miter"/>
   </g>
   <g id="patch_32">
    <path d="M 461.199687 35.381584 
L 471.279687 35.381584 
Q 471.567687 35.381584 471.567687 35.236719 
L 471.567687 32.945386 
Q 471.567687 32.80052 471.279687 32.80052 
L 461.199687 32.80052 
Q 460.911687 32.80052 460.911687 32.945386 
L 460.911687 35.236719 
Q 460.911687 35.381584 461.199687 35.381584 
z
" clip-path="url(#p6e0085fc17)" style="fill: #ef4444; stroke: #ef4444; stroke-linejoin: miter"/>
   </g>
   <g id="matplotlib.axis_1">
    <g id="xtick_1">
     <g id="line2d_1">
      <path d="M 48.639688 187.061852 
L 48.639688 24.798438 
" clip-path="url(#p6e0085fc17)" style="fill: none; stroke: #374151; stroke-opacity: 0.1; stroke-width: 0.8; stroke-linecap: square"/>
     </g>
     <g id="line2d_2">
      <defs>
       <path id="mb1fbaf0866" d="M 0 0 
L 0 3.5 
" style="stroke: #4b5563; stroke-width: 0.8"/>
      </defs>
      <g>
       <use xlink:href="#mb1fbaf0866" x="48.639688" y="187.061852" style="fill: #4b5563; stroke: #4b5563; stroke-width: 0.8"/>
      </g>
     </g>
    </g>
    <g id="xtick_2">
     <g id="line2d_3">
      <path d="M 120.639688 187.061852 
L 120.639688 24.798438 
" clip-path="url(#p6e0085fc17)" style="fill: none; stroke: #374151; stroke-opacity: 0.1; stroke-width: 0.8; stroke-linecap: square"/>
     </g>
     <g id="line2d_4">
      <g>
       <use xlink:href="#mb1fbaf0866" x="120.639688" y="187.061852" style="fill: #4b5563; stroke: #4b5563; stroke-width: 0.8"/>
      </g>
     </g>
    </g>
    <g id="xtick_3">
     <g id="line2d_5">
      <path d="M 192.639688 187.061852 
L 192.639688 24.798438 
" clip-path="url(#p6e0085fc17)" style="fill: none; stroke: #374151; stroke-opacity: 0.1; stroke-width: 0.8; stroke-linecap: square"/>
     </g>
     <g id="line2d_6">
      <g>
       <use xlink:href="#mb1fbaf0866" x="192.639688" y="187.061852" style="fill: #4b5563; stroke: #4b5563; stroke-width: 0.8"/>
      </g>
     </g>
    </g>
    <g id="xtick_4">
     <g id="line2d_7">
      <path d="M 264.639687 187.061852 
L 264.639687 24.798438 
" clip-path="url(#p6e0085fc17)" style="fill: none; stroke: #374151; stroke-opacity: 0.1; stroke-width: 0.8; stroke-linecap: square"/>
     </g>
     <g id="line2d_8">
      <g>
       <use xlink:href="#mb1fbaf0866" x="264.639687" y="187.061852" style="fill: #4b5563; stroke: #4b5563; stroke-width: 0.8"/>
      </g>
     </g>
    </g>
    <g id="xtick_5">
     <g id="line2d_9">
      <path d="M 336.639687 187.061852 
L 336.639687 24.798438 
" clip-path="url(#p6e0085fc17)" style="fill: none; stroke: #374151; stroke-opacity: 0.1; stroke-width: 0.8; stroke-linecap: square"/>
     </g>
     <g id="line2d_10">
      <g>
       <use xlink:href="#mb1fbaf0866" x="336.639687" y="187.061852" style="fill: #4b5563; stroke: #4b5563; stroke-width: 0.8"/>
      </g>
     </g>
    </g>
    <g id="xtick_6">
     <g id="line2d_11">
      <path d="M 408.639687 187.061852 
L 408.639687 24.798438 
" clip-path="url(#p6e0085fc17)" style="fill: none; stroke: #374151; stroke-opacity: 0.1; stroke-width: 0.8; stroke-linecap: square"/>
     </g>
     <g id="line2d_12">
      <g>
       <use xlink:href="#mb1fbaf0866" x="408.639687" y="187.061852" style="fill: #4b5563; stroke: #4b5563; stroke-width: 0.8"/>
      </g>
     </g>
    </g>
    <g id="xtick_7">
     <g id="line2d_13">
      <path d="M 480.639687 187.061852 
L 480.639687 24.798438 
" clip-path="url(#p6e0085fc17)" style="fill: none; stroke: #374151; stroke-opacity: 0.1; stroke-width: 0.8; stroke-linecap: square"/>
     </g>
     <g id="line2d_14">
      <g>
       <use xlink:href="#mb1fbaf0866" x="480.639687" y="187.061852" style="fill: #4b5563; stroke: #4b5563; stroke-width: 0.8"/>
      </g>
     </g>
    </g>
   </g>
   <g id="matplotlib.axis_2">
    <g id="ytick_1">
     <g id="line2d_15">
      <path d="M 34.239688 186.964308 
L 480.639687 186.964308 
" clip-path="url(#p6e0085fc17)" style="fill: none; stroke: #374151; stroke-opacity: 0.1; stroke-width: 0.8; stroke-linecap: square"/>
     </g>
     <g id="line2d_16">
      <defs>
       <path id="mb9833f1159" d="M 0 0 
L -3.5 0 
" style="stroke: #4b5563; stroke-width: 0.8"/>
      </defs>
      <g>
       <use xlink:href="#mb9833f1159" x="34.239688" y="186.964308" style="fill: #4b5563; stroke: #4b5563; stroke-width: 0.8"/>
      </g>
     </g>
     <g id="text_1">
      <!-- 92.5 -->
      <g style="fill: #4b5563" transform="translate(11.65375 189.623761) scale(0.07 -0.07)">
       <defs>
        <path id="DejaVuSans-39" d="M 703 97 
L 703 672 
Q 941 559 1184 500 
Q 1428 441 1663 441 
Q 2288 441 2617 861 
Q 2947 1281 2994 2138 
Q 2813 1869 2534 1725 
Q 2256 1581 1919 1581 
Q 1219 1581 811 2004 
Q 403 2428 403 3163 
Q 403 3881 828 4315 
Q 1253 4750 1959 4750 
Q 2769 4750 3195 4129 
Q 3622 3509 3622 2328 
Q 3622 1225 3098 567 
Q 2575 -91 1691 -91 
Q 1453 -91 1209 -44 
Q 966 3 703 97 
z
M 1959 2075 
Q 2384 2075 2632 2365 
Q 2881 2656 2881 3163 
Q 2881 3666 2632 3958 
Q 2384 4250 1959 4250 
Q 1534 4250 1286 3958 
Q 1038 3666 1038 3163 
Q 1038 2656 1286 2365 
Q 1534 2075 1959 2075 
z
" transform="scale(0.015625)"/>
        <path id="DejaVuSans-32" d="M 1228 531 
L 3431 531 
L 3431 0 
L 469 0 
L 469 531 
Q 828 903 1448 1529 
Q 2069 2156 2228 2338 
Q 2531 2678 2651 2914 
Q 2772 3150 2772 3378 
Q 2772 3750 2511 3984 
Q 2250 4219 1831 4219 
Q 1534 4219 1204 4116 
Q 875 4013 500 3803 
L 500 4441 
Q 881 4594 1212 4672 
Q 1544 4750 1819 4750 
Q 2544 4750 2975 4387 
Q 3406 4025 3406 3419 
Q 3406 3131 3298 2873 
Q 3191 2616 2906 2266 
Q 2828 2175 2409 1742 
Q 1991 1309 1228 531 
z
" transform="scale(0.015625)"/>
        <path id="DejaVuSans-2e" d="M 684 794 
L 1344 794 
L 1344 0 
L 684 0 
L 684 794 
z
" transform="scale(0.015625)"/>
        <path id="DejaVuSans-35" d="M 691 4666 
L 3169 4666 
L 3169 4134 
L 1269 4134 
L 1269 2991 
Q 1406 3038 1543 3061 
Q 1681 3084 1819 3084 
Q 2600 3084 3056 2656 
Q 3513 2228 3513 1497 
Q 3513 744 3044 326 
Q 2575 -91 1722 -91 
Q 1428 -91 1123 -41 
Q 819 9 494 109 
L 494 744 
Q 775 591 1075 516 
Q 1375 441 1709 441 
Q 2250 441 2565 725 
Q 2881 1009 2881 1497 
Q 2881 1984 2565 2268 
Q 2250 2553 1709 2553 
Q 1456 2553 1204 2497 
Q 953 2441 691 2322 
L 691 4666 
z
" transform="scale(0.015625)"/>
       </defs>
       <use xlink:href="#DejaVuSans-39"/>
       <use xlink:href="#DejaVuSans-32" transform="translate(63.623047 0)"/>
       <use xlink:href="#DejaVuSans-2e" transform="translate(127.246094 0)"/>
       <use xlink:href="#DejaVuSans-35" transform="translate(159.033203 0)"/>
      </g>
     </g>
    </g>
    <g id="ytick_2">
     <g id="line2d_17">
      <path d="M 34.239688 168.856115 
L 480.639687 168.856115 
" clip-path="url(#p6e0085fc17)" style="fill: none; stroke: #374151; stroke-opacity: 0.1; stroke-width: 0.8; stroke-linecap: square"/>
     </g>
     <g id="line2d_18">
      <g>
       <use xlink:href="#mb9833f1159" x="34.239688" y="168.856115" style="fill: #4b5563; stroke: #4b5563; stroke-width: 0.8"/>
      </g>
     </g>
     <g id="text_2">
      <!-- 95.0 -->
      <g style="fill: #4b5563" transform="translate(11.65375 171.515568) scale(0.07 -0.07)">
       <defs>
        <path id="DejaVuSans-30" d="M 2034 4250 
Q 1547 4250 1301 3770 
Q 1056 3291 1056 2328 
Q 1056 1369 1301 889 
Q 1547 409 2034 409 
Q 2525 409 2770 889 
Q 3016 1369 3016 2328 
Q 3016 3291 2770 3770 
Q 2525 4250 2034 4250 
z
M 2034 4750 
Q 2819 4750 3233 4129 
Q 3647 3509 3647 2328 
Q 3647 1150 3233 529 
Q 2819 -91 2034 -91 
Q 1250 -91 836 529 
Q 422 1150 422 2328 
Q 422 3509 836 4129 
Q 1250 4750 2034 4750 
z
" transform="scale(0.015625)"/>
       </defs>
       <use xlink:href="#DejaVuSans-39"/>
       <use xlink:href="#DejaVuSans-35" transform="translate(63.623047 0)"/>
       <use xlink:href="#DejaVuSans-2e" transform="translate(127.246094 0)"/>
       <use xlink:href="#DejaVuSans-30" transform="translate(159.033203 0)"/>
      </g>
     </g>
    </g>
    <g id="ytick_3">
     <g id="line2d_19">
      <path d="M 34.239688 150.747922 
L 480.639687 150.747922 
" clip-path="url(#p6e0085fc17)" style="fill: none; stroke: #374151; stroke-opacity: 0.1; stroke-width: 0.8; stroke-linecap: square"/>
     </g>
     <g id="line2d_20">
      <g>
       <use xlink:href="#mb9833f1159" x="34.239688" y="150.747922" style="fill: #4b5563; stroke: #4b5563; stroke-width: 0.8"/>
      </g>
     </g>
     <g id="text_3">
      <!-- 97.5 -->
      <g style="fill: #4b5563" transform="translate(11.65375 153.407375) scale(0.07 -0.07)">
       <defs>
        <path id="DejaVuSans-37" d="M 525 4666 
L 3525 4666 
L 3525 4397 
L 1831 0 
L 1172 0 
L 2766 4134 
L 525 4134 
L 525 4666 
z
" transform="scale(0.015625)"/>
       </defs>
       <use xlink:href="#DejaVuSans-39"/>
       <use xlink:href="#DejaVuSans-37" transform="translate(63.623047 0)"/>
       <use xlink:href="#DejaVuSans-2e" transform="translate(127.246094 0)"/>
       <use xlink:href="#DejaVuSans-35" transform="translate(159.033203 0)"/>
      </g>
     </g>
    </g>
    <g id="ytick_4">
     <g id="line2d_21">
      <path d="M 34.239688 132.639728 
L 480.639687 132.639728 
" clip-path="url(#p6e0085fc17)" style="fill: none; stroke: #374151; stroke-opacity: 0.1; stroke-width: 0.8; stroke-linecap: square"/>
     </g>
     <g id="line2d_22">
      <g>
       <use xlink:href="#mb9833f1159" x="34.239688" y="132.639728" style="fill: #4b5563; stroke: #4b5563; stroke-width: 0.8"/>
      </g>
     </g>
     <g id="text_4">
      <!-- 100.0 -->
      <g style="fill: #4b5563" transform="translate(7.2 135.299182) scale(0.07 -0.07)">
       <defs>
        <path id="DejaVuSans-31" d="M 794 531 
L 1825 531 
L 1825 4091 
L 703 3866 
L 703 4441 
L 1819 4666 
L 2450 4666 
L 2450 531 
L 3481 531 
L 3481 0 
L 794 0 
L 794 531 
z
" transform="scale(0.015625)"/>
       </defs>
       <use xlink:href="#DejaVuSans-31"/>
       <use xlink:href="#DejaVuSans-30" transform="translate(63.623047 0)"/>
       <use xlink:href="#DejaVuSans-30" transform="translate(127.246094 0)"/>
       <use xlink:href="#DejaVuSans-2e" transform="translate(190.869141 0)"/>
       <use xlink:href="#DejaVuSans-30" transform="translate(222.65625 0)"/>
      </g>
     </g>
    </g>
    <g id="ytick_5">
     <g id="line2d_23">
      <path d="M 34.239688 114.531535 
L 480.639687 114.531535 
" clip-path="url(#p6e0085fc17)" style="fill: none; stroke: #374151; stroke-opacity: 0.1; stroke-width: 0.8; stroke-linecap: square"/>
     </g>
     <g id="line2d_24">
      <g>
       <use xlink:href="#mb9833f1159" x="34.239688" y="114.531535" style="fill: #4b5563; stroke: #4b5563; stroke-width: 0.8"/>
      </g>
     </g>
     <g id="text_5">
      <!-- 102.5 -->
      <g style="fill: #4b5563" transform="translate(7.2 117.190988) scale(0.07 -0.07)">
       <use xlink:href="#DejaVuSans-31"/>
       <use xlink:href="#DejaVuSans-30" transform="translate(63.623047 0)"/>
       <use xlink:href="#DejaVuSans-32" transform="translate(127.246094 0)"/>
       <use xlink:href="#DejaVuSans-2e" transform="translate(190.869141 0)"/>
       <use xlink:href="#DejaVuSans-35" transform="translate(222.65625 0)"/>
      </g>
     </g>
    </g>
    <g id="ytick_6">
     <g id="line2d_25">
      <path d="M 34.239688 96.423342 
L 480.639687 96.423342 
" clip-path="url(#p6e0085fc17)" style="fill: none; stroke: #374151; stroke-opacity: 0.1; stroke-width: 0.8; stroke-linecap: square"/>
     </g>
     <g id="line2d_26">
      <g>
       <use xlink:href="#mb9833f1159" x="34.239688" y="96.423342" style="fill: #4b5563; stroke: #4b5563; stroke-width: 0.8"/>
      </g>
     </g>
     <g id="text_6">
      <!-- 105.0 -->
      <g style="fill: #4b5563" transform="translate(7.2 99.082795) scale(0.07 -0.07)">
       <use xlink:href="#DejaVuSans-31"/>
       <use xlink:href="#DejaVuSans-30" transform="translate(63.623047 0)"/>
       <use xlink:href="#DejaVuSans-35" transform="translate(127.246094 0)"/>
       <use xlink:href="#DejaVuSans-2e" transform="translate(190.869141 0)"/>
       <use xlink:href="#DejaVuSans-30" transform="translate(222.65625 0)"/>
      </g>
     </g>
    </g>
    <g id="ytick_7">
     <g id="line2d_27">
      <path d="M 34.239688 78.315149 
L 480.639687 78.315149 
" clip-path="url(#p6e0085fc17)" style="fill: none; stroke: #374151; stroke-opacity: 0.1; stroke-width: 0.8; stroke-linecap: square"/>
     </g>
     <g id="line2d_28">
      <g>
       <use xlink:href="#mb9833f1159" x="34.239688" y="78.315149" style="fill: #4b5563; stroke: #4b5563; stroke-width: 0.8"/>
      </g>
     </g>
     <g id="text_7">
      <!-- 107.5 -->
      <g style="fill: #4b5563" transform="translate(7.2 80.974602) scale(0.07 -0.07)">
       <use xlink:href="#DejaVuSans-31"/>
       <use xlink:href="#DejaVuSans-30" transform="translate(63.623047 0)"/>
       <use xlink:href="#DejaVuSans-37" transform="translate(127.246094 0)"/>
       <use xlink:href="#DejaVuSans-2e" transform="translate(190.869141 0)"/>
       <use xlink:href="#DejaVuSans-35" transform="translate(222.65625 0)"/>
      </g>
     </g>
    </g>
    <g id="ytick_8">
     <g id="line2d_29">
      <path d="M 34.239688 60.206956 
L 480.639687 60.206956 
" clip-path="url(#p6e0085fc17)" style="fill: none; stroke: #374151; stroke-opacity: 0.1; stroke-width: 0.8; stroke-linecap: square"/>
     </g>
     <g id="line2d_30">
      <g>
       <use xlink:href="#mb9833f1159" x="34.239688" y="60.206956" style="fill: #4b5563; stroke: #4b5563; stroke-width: 0.8"/>
      </g>
     </g>
     <g id="text_8">
      <!-- 110.0 -->
      <g style="fill: #4b5563" transform="translate(7.2 62.866409) scale(0.07 -0.07)">
       <use xlink:href="#DejaVuSans-31"/>
       <use xlink:href="#DejaVuSans-31" transform="translate(63.623047 0)"/>
       <use xlink:href="#DejaVuSans-30" transform="translate(127.246094 0)"/>
       <use xlink:href="#DejaVuSans-2e" transform="translate(190.869141 0)"/>
       <use xlink:href="#DejaVuSans-30" transform="translate(222.65625 0)"/>
      </g>
     </g>
    </g>
    <g id="ytick_9">
     <g id="line2d_31">
      <path d="M 34.239688 42.098763 
L 480.639687 42.098763 
" clip-path="url(#p6e0085fc17)" style="fill: none; stroke: #374151; stroke-opacity: 0.1; stroke-width: 0.8; stroke-linecap: square"/>
     </g>
     <g id="line2d_32">
      <g>
       <use xlink:href="#mb9833f1159" x="34.239688" y="42.098763" style="fill: #4b5563; stroke: #4b5563; stroke-width: 0.8"/>
      </g>
     </g>
     <g id="text_9">
      <!-- 112.5 -->
      <g style="fill: #4b5563" transform="translate(7.2 44.758216) scale(0.07 -0.07)">
       <use xlink:href="#DejaVuSans-31"/>
       <use xlink:href="#DejaVuSans-31" transform="translate(63.623047 0)"/>
       <use xlink:href="#DejaVuSans-32" transform="translate(127.246094 0)"/>
       <use xlink:href="#DejaVuSans-2e" transform="translate(190.869141 0)"/>
       <use xlink:href="#DejaVuSans-35" transform="translate(222.65625 0)"/>
      </g>
     </g>
    </g>
   </g>
   <g id="line2d_33">
    <path d="M 48.639688 144.548377 
L 48.639688 125.505744 
" clip-path="url(#p6e0085fc17)" style="fill: none; stroke: #ef4444; stroke-width: 0.8; stroke-linecap: square"/>
   </g>
   <g id="line2d_34">
    <path d="M 63.039687 152.333005 
L 63.039687 129.485242 
" clip-path="url(#p6e0085fc17)" style="fill: none; stroke: #ef4444; stroke-width: 0.8; stroke-linecap: square"/>
   </g>
   <g id="line2d_35">
    <path d="M 77.439687 152.47987 
L 77.439687 136.36781 
" clip-path="url(#p6e0085fc17)" style="fill: none; stroke: #ef4444; stroke-width: 0.8; stroke-linecap: square"/>
   </g>
   <g id="line2d_36">
    <path d="M 91.839687 179.686242 
L 91.839687 154.977019 
" clip-path="url(#p6e0085fc17)" style="fill: none; stroke: #22c55e; stroke-width: 0.8; stroke-linecap: square"/>
   </g>
   <g id="line2d_37">
    <path d="M 106.239688 177.413861 
L 106.239688 147.670587 
" clip-path="url(#p6e0085fc17)" style="fill: none; stroke: #ef4444; stroke-width: 0.8; stroke-linecap: square"/>
   </g>
   <g id="line2d_38">
    <path d="M 120.639688 169.984606 
L 120.639688 152.872904 
" clip-path="url(#p6e0085fc17)" style="fill: none; stroke: #22c55e; stroke-width: 0.8; stroke-linecap: square"/>
   </g>
   <g id="line2d_39">
    <path d="M 135.039687 170.343969 
L 135.039687 145.305412 
" clip-path="url(#p6e0085fc17)" style="fill: none; stroke: #ef4444; stroke-width: 0.8; stroke-linecap: square"/>
   </g>
   <g id="line2d_40">
    <path d="M 149.439687 154.968021 
L 149.439687 141.852972 
" clip-path="url(#p6e0085fc17)" style="fill: none; stroke: #ef4444; stroke-width: 0.8; stroke-linecap: square"/>
   </g>
   <g id="line2d_41">
    <path d="M 163.839687 160.931002 
L 163.839687 132.832735 
" clip-path="url(#p6e0085fc17)" style="fill: none; stroke: #22c55e; stroke-width: 0.8; stroke-linecap: square"/>
   </g>
   <g id="line2d_42">
    <path d="M 178.239688 170.071654 
L 178.239688 144.073883 
" clip-path="url(#p6e0085fc17)" style="fill: none; stroke: #22c55e; stroke-width: 0.8; stroke-linecap: square"/>
   </g>
   <g id="line2d_43">
    <path d="M 192.639688 176.63423 
L 192.639688 165.030949 
" clip-path="url(#p6e0085fc17)" style="fill: none; stroke: #22c55e; stroke-width: 0.8; stroke-linecap: square"/>
   </g>
   <g id="line2d_44">
    <path d="M 207.039687 176.371931 
L 207.039687 162.300339 
" clip-path="url(#p6e0085fc17)" style="fill: none; stroke: #ef4444; stroke-width: 0.8; stroke-linecap: square"/>
   </g>
   <g id="line2d_45">
    <path d="M 221.439687 152.924691 
L 221.439687 128.386958 
" clip-path="url(#p6e0085fc17)" style="fill: none; stroke: #ef4444; stroke-width: 0.8; stroke-linecap: square"/>
   </g>
   <g id="line2d_46">
    <path d="M 235.839687 141.194894 
L 235.839687 111.825067 
" clip-path="url(#p6e0085fc17)" style="fill: none; stroke: #22c55e; stroke-width: 0.8; stroke-linecap: square"/>
   </g>
   <g id="line2d_47">
    <path d="M 250.239687 123.218817 
L 250.239687 116.468622 
" clip-path="url(#p6e0085fc17)" style="fill: none; stroke: #ef4444; stroke-width: 0.8; stroke-linecap: square"/>
   </g>
   <g id="line2d_48">
    <path d="M 264.639687 133.997147 
L 264.639687 111.83667 
" clip-path="url(#p6e0085fc17)" style="fill: none; stroke: #ef4444; stroke-width: 0.8; stroke-linecap: square"/>
   </g>
   <g id="line2d_49">
    <path d="M 279.039687 136.273953 
L 279.039687 115.671445 
" clip-path="url(#p6e0085fc17)" style="fill: none; stroke: #22c55e; stroke-width: 0.8; stroke-linecap: square"/>
   </g>
   <g id="line2d_50">
    <path d="M 293.439687 134.828762 
L 293.439687 126.316269 
" clip-path="url(#p6e0085fc17)" style="fill: none; stroke: #ef4444; stroke-width: 0.8; stroke-linecap: square"/>
   </g>
   <g id="line2d_51">
    <path d="M 307.839687 145.831705 
L 307.839687 118.400305 
" clip-path="url(#p6e0085fc17)" style="fill: none; stroke: #22c55e; stroke-width: 0.8; stroke-linecap: square"/>
   </g>
   <g id="line2d_52">
    <path d="M 322.239687 133.537077 
L 322.239687 113.668824 
" clip-path="url(#p6e0085fc17)" style="fill: none; stroke: #22c55e; stroke-width: 0.8; stroke-linecap: square"/>
   </g>
   <g id="line2d_53">
    <path d="M 336.639687 112.163014 
L 336.639687 92.188958 
" clip-path="url(#p6e0085fc17)" style="fill: none; stroke: #ef4444; stroke-width: 0.8; stroke-linecap: square"/>
   </g>
   <g id="line2d_54">
    <path d="M 351.039687 110.305538 
L 351.039687 79.855076 
" clip-path="url(#p6e0085fc17)" style="fill: none; stroke: #ef4444; stroke-width: 0.8; stroke-linecap: square"/>
   </g>
   <g id="line2d_55">
    <path d="M 365.439687 106.992383 
L 365.439687 95.257605 
" clip-path="url(#p6e0085fc17)" style="fill: none; stroke: #22c55e; stroke-width: 0.8; stroke-linecap: square"/>
   </g>
   <g id="line2d_56">
    <path d="M 379.839687 108.465118 
L 379.839687 84.624138 
" clip-path="url(#p6e0085fc17)" style="fill: none; stroke: #22c55e; stroke-width: 0.8; stroke-linecap: square"/>
   </g>
   <g id="line2d_57">
    <path d="M 394.239687 99.281278 
L 394.239687 75.910917 
" clip-path="url(#p6e0085fc17)" style="fill: none; stroke: #ef4444; stroke-width: 0.8; stroke-linecap: square"/>
   </g>
   <g id="line2d_58">
    <path d="M 408.639687 94.220889 
L 408.639687 68.960491 
" clip-path="url(#p6e0085fc17)" style="fill: none; stroke: #ef4444; stroke-width: 0.8; stroke-linecap: square"/>
   </g>
   <g id="line2d_59">
    <path d="M 423.039687 68.171357 
L 423.039687 48.532893 
" clip-path="url(#p6e0085fc17)" style="fill: none; stroke: #ef4444; stroke-width: 0.8; stroke-linecap: square"/>
   </g>
   <g id="line2d_60">
    <path d="M 437.439687 49.490712 
L 437.439687 33.63898 
" clip-path="url(#p6e0085fc17)" style="fill: none; stroke: #22c55e; stroke-width: 0.8; stroke-linecap: square"/>
   </g>
   <g id="line2d_61">
    <path d="M 451.839687 51.973326 
L 451.839687 34.087406 
" clip-path="url(#p6e0085fc17)" style="fill: none; stroke: #ef4444; stroke-width: 0.8; stroke-linecap: square"/>
   </g>
   <g id="line2d_62">
    <path d="M 466.239687 40.813601 
L 466.239687 32.174047 
" clip-path="url(#p6e0085fc17)" style="fill: none; stroke: #ef4444; stroke-width: 0.8; stroke-linecap: square"/>
   </g>
   <g id="patch_33">
    <path d="M 34.239688 187.061852 
L 34.239688 24.798437 
" style="fill: none; stroke: #1f2937; stroke-width: 0.8; stroke-linejoin: miter; stroke-linecap: square"/>
   </g>
   <g id="patch_34">
    <path d="M 34.239688 187.061852 
L 480.639687 187.061852 
" style="fill: none; stroke: #1f2937; stroke-width: 0.8; stroke-linejoin: miter; stroke-linecap: square"/>
   </g>
   <g id="text_10">
    <!-- Bearish Harami — PYPL 1H -->
    <g style="fill: #ffffff" transform="translate(182.063906 14.798438) scale(0.1 -0.1)">
     <defs>
      <path id="DejaVuSans-Bold-42" d="M 2456 2859 
Q 2741 2859 2887 2984 
Q 3034 3109 3034 3353 
Q 3034 3594 2887 3720 
Q 2741 3847 2456 3847 
L 1791 3847 
L 1791 2859 
L 2456 2859 
z
M 2497 819 
Q 2859 819 3042 972 
Q 3225 1125 3225 1434 
Q 3225 1738 3044 1889 
Q 2863 2041 2497 2041 
L 1791 2041 
L 1791 819 
L 2497 819 
z
M 3616 2497 
Q 4003 2384 4215 2081 
Q 4428 1778 4428 1338 
Q 4428 663 3972 331 
Q 3516 0 2584 0 
L 588 0 
L 588 4666 
L 2394 4666 
Q 3366 4666 3802 4372 
Q 4238 4078 4238 3431 
Q 4238 3091 4078 2852 
Q 3919 2613 3616 2497 
z
" transform="scale(0.015625)"/>
      <path id="DejaVuSans-Bold-65" d="M 4031 1759 
L 4031 1441 
L 1416 1441 
Q 1456 1047 1700 850 
Q 1944 653 2381 653 
Q 2734 653 3104 758 
Q 3475 863 3866 1075 
L 3866 213 
Q 3469 63 3072 -14 
Q 2675 -91 2278 -91 
Q 1328 -91 801 392 
Q 275 875 275 1747 
Q 275 2603 792 3093 
Q 1309 3584 2216 3584 
Q 3041 3584 3536 3087 
Q 4031 2591 4031 1759 
z
M 2881 2131 
Q 2881 2450 2695 2645 
Q 2509 2841 2209 2841 
Q 1884 2841 1681 2658 
Q 1478 2475 1428 2131 
L 2881 2131 
z
" transform="scale(0.015625)"/>
      <path id="DejaVuSans-Bold-61" d="M 2106 1575 
Q 1756 1575 1579 1456 
Q 1403 1338 1403 1106 
Q 1403 894 1545 773 
Q 1688 653 1941 653 
Q 2256 653 2472 879 
Q 2688 1106 2688 1447 
L 2688 1575 
L 2106 1575 
z
M 3816 1997 
L 3816 0 
L 2688 0 
L 2688 519 
Q 2463 200 2181 54 
Q 1900 -91 1497 -91 
Q 953 -91 614 226 
Q 275 544 275 1050 
Q 275 1666 698 1953 
Q 1122 2241 2028 2241 
L 2688 2241 
L 2688 2328 
Q 2688 2594 2478 2717 
Q 2269 2841 1825 2841 
Q 1466 2841 1156 2769 
Q 847 2697 581 2553 
L 581 3406 
Q 941 3494 1303 3539 
Q 1666 3584 2028 3584 
Q 2975 3584 3395 3211 
Q 3816 2838 3816 1997 
z
" transform="scale(0.015625)"/>
      <path id="DejaVuSans-Bold-72" d="M 3138 2547 
Q 2991 2616 2845 2648 
Q 2700 2681 2553 2681 
Q 2122 2681 1889 2404 
Q 1656 2128 1656 1613 
L 1656 0 
L 538 0 
L 538 3500 
L 1656 3500 
L 1656 2925 
Q 1872 3269 2151 3426 
Q 2431 3584 2822 3584 
Q 2878 3584 2943 3579 
Q 3009 3575 3134 3559 
L 3138 2547 
z
" transform="scale(0.015625)"/>
      <path id="DejaVuSans-Bold-69" d="M 538 3500 
L 1656 3500 
L 1656 0 
L 538 0 
L 538 3500 
z
M 538 4863 
L 1656 4863 
L 1656 3950 
L 538 3950 
L 538 4863 
z
" transform="scale(0.015625)"/>
      <path id="DejaVuSans-Bold-73" d="M 3272 3391 
L 3272 2541 
Q 2913 2691 2578 2766 
Q 2244 2841 1947 2841 
Q 1628 2841 1473 2761 
Q 1319 2681 1319 2516 
Q 1319 2381 1436 2309 
Q 1553 2238 1856 2203 
L 2053 2175 
Q 2913 2066 3209 1816 
Q 3506 1566 3506 1031 
Q 3506 472 3093 190 
Q 2681 -91 1863 -91 
Q 1516 -91 1145 -36 
Q 775 19 384 128 
L 384 978 
Q 719 816 1070 734 
Q 1422 653 1784 653 
Q 2113 653 2278 743 
Q 2444 834 2444 1013 
Q 2444 1163 2330 1236 
Q 2216 1309 1875 1350 
L 1678 1375 
Q 931 1469 631 1722 
Q 331 1975 331 2491 
Q 331 3047 712 3315 
Q 1094 3584 1881 3584 
Q 2191 3584 2531 3537 
Q 2872 3491 3272 3391 
z
" transform="scale(0.015625)"/>
      <path id="DejaVuSans-Bold-68" d="M 4056 2131 
L 4056 0 
L 2931 0 
L 2931 347 
L 2931 1625 
Q 2931 2084 2911 2256 
Q 2891 2428 2841 2509 
Q 2775 2619 2662 2680 
Q 2550 2741 2406 2741 
Q 2056 2741 1856 2470 
Q 1656 2200 1656 1722 
L 1656 0 
L 538 0 
L 538 4863 
L 1656 4863 
L 1656 2988 
Q 1909 3294 2193 3439 
Q 2478 3584 2822 3584 
Q 3428 3584 3742 3212 
Q 4056 2841 4056 2131 
z
" transform="scale(0.015625)"/>
      <path id="DejaVuSans-Bold-20" transform="scale(0.015625)"/>
      <path id="DejaVuSans-Bold-48" d="M 588 4666 
L 1791 4666 
L 1791 2888 
L 3566 2888 
L 3566 4666 
L 4769 4666 
L 4769 0 
L 3566 0 
L 3566 1978 
L 1791 1978 
L 1791 0 
L 588 0 
L 588 4666 
z
" transform="scale(0.015625)"/>
      <path id="DejaVuSans-Bold-6d" d="M 3781 2919 
Q 3994 3244 4286 3414 
Q 4578 3584 4928 3584 
Q 5531 3584 5847 3212 
Q 6163 2841 6163 2131 
L 6163 0 
L 5038 0 
L 5038 1825 
Q 5041 1866 5042 1909 
Q 5044 1953 5044 2034 
Q 5044 2406 4934 2573 
Q 4825 2741 4581 2741 
Q 4263 2741 4089 2478 
Q 3916 2216 3909 1719 
L 3909 0 
L 2784 0 
L 2784 1825 
Q 2784 2406 2684 2573 
Q 2584 2741 2328 2741 
Q 2006 2741 1831 2477 
Q 1656 2213 1656 1722 
L 1656 0 
L 531 0 
L 531 3500 
L 1656 3500 
L 1656 2988 
Q 1863 3284 2130 3434 
Q 2397 3584 2719 3584 
Q 3081 3584 3359 3409 
Q 3638 3234 3781 2919 
z
" transform="scale(0.015625)"/>
      <path id="DejaVuSans-Bold-2014" d="M 344 2156 
L 6056 2156 
L 6056 1350 
L 344 1350 
L 344 2156 
z
" transform="scale(0.015625)"/>
      <path id="DejaVuSans-Bold-50" d="M 588 4666 
L 2584 4666 
Q 3475 4666 3951 4270 
Q 4428 3875 4428 3144 
Q 4428 2409 3951 2014 
Q 3475 1619 2584 1619 
L 1791 1619 
L 1791 0 
L 588 0 
L 588 4666 
z
M 1791 3794 
L 1791 2491 
L 2456 2491 
Q 2806 2491 2997 2661 
Q 3188 2831 3188 3144 
Q 3188 3456 2997 3625 
Q 2806 3794 2456 3794 
L 1791 3794 
z
" transform="scale(0.015625)"/>
      <path id="DejaVuSans-Bold-59" d="M -63 4666 
L 1253 4666 
L 2316 3003 
L 3378 4666 
L 4697 4666 
L 2919 1966 
L 2919 0 
L 1716 0 
L 1716 1966 
L -63 4666 
z
" transform="scale(0.015625)"/>
      <path id="DejaVuSans-Bold-4c" d="M 588 4666 
L 1791 4666 
L 1791 909 
L 3903 909 
L 3903 0 
L 588 0 
L 588 4666 
z
" transform="scale(0.015625)"/>
      <path id="DejaVuSans-Bold-31" d="M 750 831 
L 1813 831 
L 1813 3847 
L 722 3622 
L 722 4441 
L 1806 4666 
L 2950 4666 
L 2950 831 
L 4013 831 
L 4013 0 
L 750 0 
L 750 831 
z
" transform="scale(0.015625)"/>
     </defs>
     <use xlink:href="#DejaVuSans-Bold-42"/>
     <use xlink:href="#DejaVuSans-Bold-65" transform="translate(76.220703 0)"/>
     <use xlink:href="#DejaVuSans-Bold-61" transform="translate(144.042969 0)"/>
     <use xlink:href="#DejaVuSans-Bold-72" transform="translate(211.523438 0)"/>
     <use xlink:href="#DejaVuSans-Bold-69" transform="translate(260.839844 0)"/>
     <use xlink:href="#DejaVuSans-Bold-73" transform="translate(295.117188 0)"/>
     <use xlink:href="#DejaVuSans-Bold-68" transform="translate(354.638672 0)"/>
     <use xlink:href="#DejaVuSans-Bold-20" transform="translate(425.830078 0)"/>
     <use xlink:href="#DejaVuSans-Bold-48" transform="translate(460.644531 0)"/>
     <use xlink:href="#DejaVuSans-Bold-61" transform="translate(544.335938 0)"/>
     <use xlink:href="#DejaVuSans-Bold-72" transform="translate(611.816406 0)"/>
     <use xlink:href="#DejaVuSans-Bold-61" transform="translate(661.132812 0)"/>
     <use xlink:href="#DejaVuSans-Bold-6d" transform="translate(728.613281 0)"/>
     <use xlink:href="#DejaVuSans-Bold-69" transform="translate(832.8125 0)"/>
     <use xlink:href="#DejaVuSans-Bold-20" transform="translate(867.089844 0)"/>
     <use xlink:href="#DejaVuSans-Bold-2014" transform="translate(901.904297 0)"/>
     <use xlink:href="#DejaVuSans-Bold-20" transform="translate(1001.904297 0)"/>
     <use xlink:href="#DejaVuSans-Bold-50" transform="translate(1036.71875 0)"/>
     <use xlink:href="#DejaVuSans-Bold-59" transform="translate(1110.009766 0)"/>
     <use xlink:href="#DejaVuSans-Bold-50" transform="translate(1182.421875 0)"/>
     <use xlink:href="#DejaVuSans-Bold-4c" transform="translate(1255.712891 0)"/>
     <use xlink:href="#DejaVuSans-Bold-20" transform="translate(1319.433594 0)"/>
     <use xlink:href="#DejaVuSans-Bold-31" transform="translate(1354.248047 0)"/>
     <use xlink:href="#DejaVuSans-Bold-48" transform="translate(1423.828125 0)"/>
    </g>
   </g>
  </g>
  <g id="axes_2">
   <g id="patch_35">
    <path d="M 34.239688 246.558438 
L 480.639687 246.558438 
L 480.639687 192.470633 
L 34.239688 192.470633 
z
" style="fill: #0a0f1a"/>
   </g>
   <g id="patch_36">
    <path d="M 54.530597 246.558438 
L 64.095335 246.558438 
L 64.095335 212.340892 
L 54.530597 212.340892 
z
" clip-path="url(#p718343040e)" style="fill: #ef4444; fill-opacity: 0.533333"/>
   </g>
   <g id="patch_37">
    <path d="M 68.194508 246.558438 
L 77.759247 246.558438 
L 77.759247 223.080555 
L 68.194508 223.080555 
z
" clip-path="url(#p718343040e)" style="fill: #ef4444; fill-opacity: 0.533333"/>
   </g>
   <g id="patch_38">
    <path d="M 81.85842 246.558438 
L 91.423159 246.558438 
L 91.423159 228.661098 
L 81.85842 228.661098 
z
" clip-path="url(#p718343040e)" style="fill: #ef4444; fill-opacity: 0.533333"/>
   </g>
   <g id="patch_39">
    <path d="M 95.522332 246.558438 
L 105.08707 246.558438 
L 105.08707 204.634652 
L 95.522332 204.634652 
z
" clip-path="url(#p718343040e)" style="fill: #22c55e; fill-opacity: 0.533333"/>
   </g>
   <g id="patch_40">
    <path d="M 109.186244 246.558438 
L 118.750982 246.558438 
L 118.750982 231.209011 
L 109.186244 231.209011 
z
" clip-path="url(#p718343040e)" style="fill: #ef4444; fill-opacity: 0.533333"/>
   </g>
   <g id="patch_41">
    <path d="M 122.850156 246.558438 
L 132.414894 246.558438 
L 132.414894 221.553288 
L 122.850156 221.553288 
z
" clip-path="url(#p718343040e)" style="fill: #22c55e; fill-opacity: 0.533333"/>
   </g>
   <g id="patch_42">
    <path d="M 136.514068 246.558438 
L 146.078806 246.558438 
L 146.078806 231.018409 
L 136.514068 231.018409 
z
" clip-path="url(#p718343040e)" style="fill: #ef4444; fill-opacity: 0.533333"/>
   </g>
   <g id="patch_43">
    <path d="M 150.17798 246.558438 
L 159.742718 246.558438 
L 159.742718 216.060377 
L 150.17798 216.060377 
z
" clip-path="url(#p718343040e)" style="fill: #ef4444; fill-opacity: 0.533333"/>
   </g>
   <g id="patch_44">
    <path d="M 163.841891 246.558438 
L 173.40663 246.558438 
L 173.40663 218.856057 
L 163.841891 218.856057 
z
" clip-path="url(#p718343040e)" style="fill: #22c55e; fill-opacity: 0.533333"/>
   </g>
   <g id="patch_45">
    <path d="M 177.505803 246.558438 
L 187.070541 246.558438 
L 187.070541 232.693188 
L 177.505803 232.693188 
z
" clip-path="url(#p718343040e)" style="fill: #22c55e; fill-opacity: 0.533333"/>
   </g>
   <g id="patch_46">
    <path d="M 191.169715 246.558438 
L 200.734453 246.558438 
L 200.734453 234.698135 
L 191.169715 234.698135 
z
" clip-path="url(#p718343040e)" style="fill: #22c55e; fill-opacity: 0.533333"/>
   </g>
   <g id="patch_47">
    <path d="M 204.833627 246.558438 
L 214.398365 246.558438 
L 214.398365 205.444127 
L 204.833627 205.444127 
z
" clip-path="url(#p718343040e)" style="fill: #ef4444; fill-opacity: 0.533333"/>
   </g>
   <g id="patch_48">
    <path d="M 218.497539 246.558438 
L 228.062277 246.558438 
L 228.062277 210.730691 
L 218.497539 210.730691 
z
" clip-path="url(#p718343040e)" style="fill: #ef4444; fill-opacity: 0.533333"/>
   </g>
   <g id="patch_49">
    <path d="M 232.161451 246.558438 
L 241.726189 246.558438 
L 241.726189 206.736272 
L 232.161451 206.736272 
z
" clip-path="url(#p718343040e)" style="fill: #22c55e; fill-opacity: 0.533333"/>
   </g>
   <g id="patch_50">
    <path d="M 245.825362 246.558438 
L 255.390101 246.558438 
L 255.390101 200.649004 
L 245.825362 200.649004 
z
" clip-path="url(#p718343040e)" style="fill: #ef4444; fill-opacity: 0.533333"/>
   </g>
   <g id="patch_51">
    <path d="M 259.489274 246.558438 
L 269.054013 246.558438 
L 269.054013 209.652536 
L 259.489274 209.652536 
z
" clip-path="url(#p718343040e)" style="fill: #ef4444; fill-opacity: 0.533333"/>
   </g>
   <g id="patch_52">
    <path d="M 273.153186 246.558438 
L 282.717924 246.558438 
L 282.717924 195.430317 
L 273.153186 195.430317 
z
" clip-path="url(#p718343040e)" style="fill: #22c55e; fill-opacity: 0.533333"/>
   </g>
   <g id="patch_53">
    <path d="M 286.817098 246.558438 
L 296.381836 246.558438 
L 296.381836 198.121555 
L 286.817098 198.121555 
z
" clip-path="url(#p718343040e)" style="fill: #ef4444; fill-opacity: 0.533333"/>
   </g>
   <g id="patch_54">
    <path d="M 300.48101 246.558438 
L 310.045748 246.558438 
L 310.045748 227.526091 
L 300.48101 227.526091 
z
" clip-path="url(#p718343040e)" style="fill: #22c55e; fill-opacity: 0.533333"/>
   </g>
   <g id="patch_55">
    <path d="M 314.144922 246.558438 
L 323.70966 246.558438 
L 323.70966 197.456156 
L 314.144922 197.456156 
z
" clip-path="url(#p718343040e)" style="fill: #22c55e; fill-opacity: 0.533333"/>
   </g>
   <g id="patch_56">
    <path d="M 327.808834 246.558438 
L 337.373572 246.558438 
L 337.373572 231.347742 
L 327.808834 231.347742 
z
" clip-path="url(#p718343040e)" style="fill: #ef4444; fill-opacity: 0.533333"/>
   </g>
   <g id="patch_57">
    <path d="M 341.472745 246.558438 
L 351.037484 246.558438 
L 351.037484 217.417215 
L 341.472745 217.417215 
z
" clip-path="url(#p718343040e)" style="fill: #ef4444; fill-opacity: 0.533333"/>
   </g>
   <g id="patch_58">
    <path d="M 355.136657 246.558438 
L 364.701395 246.558438 
L 364.701395 230.626452 
L 355.136657 230.626452 
z
" clip-path="url(#p718343040e)" style="fill: #22c55e; fill-opacity: 0.533333"/>
   </g>
   <g id="patch_59">
    <path d="M 368.800569 246.558438 
L 378.365307 246.558438 
L 378.365307 215.429298 
L 368.800569 215.429298 
z
" clip-path="url(#p718343040e)" style="fill: #22c55e; fill-opacity: 0.533333"/>
   </g>
   <g id="patch_60">
    <path d="M 382.464481 246.558438 
L 392.029219 246.558438 
L 392.029219 217.21233 
L 382.464481 217.21233 
z
" clip-path="url(#p718343040e)" style="fill: #ef4444; fill-opacity: 0.533333"/>
   </g>
   <g id="patch_61">
    <path d="M 396.128393 246.558438 
L 405.693131 246.558438 
L 405.693131 227.158357 
L 396.128393 227.158357 
z
" clip-path="url(#p718343040e)" style="fill: #ef4444; fill-opacity: 0.533333"/>
   </g>
   <g id="patch_62">
    <path d="M 409.792305 246.558438 
L 419.357043 246.558438 
L 419.357043 201.586758 
L 409.792305 201.586758 
z
" clip-path="url(#p718343040e)" style="fill: #ef4444; fill-opacity: 0.533333"/>
   </g>
   <g id="patch_63">
    <path d="M 423.456216 246.558438 
L 433.020955 246.558438 
L 433.020955 195.687408 
L 423.456216 195.687408 
z
" clip-path="url(#p718343040e)" style="fill: #22c55e; fill-opacity: 0.533333"/>
   </g>
   <g id="patch_64">
    <path d="M 437.120128 246.558438 
L 446.684867 246.558438 
L 446.684867 195.046242 
L 437.120128 195.046242 
z
" clip-path="url(#p718343040e)" style="fill: #ef4444; fill-opacity: 0.533333"/>
   </g>
   <g id="patch_65">
    <path d="M 450.78404 246.558438 
L 460.348778 246.558438 
L 460.348778 205.425146 
L 450.78404 205.425146 
z
" clip-path="url(#p718343040e)" style="fill: #ef4444; fill-opacity: 0.533333"/>
   </g>
   <g id="matplotlib.axis_3">
    <g id="xtick_8">
     <g id="line2d_63">
      <path d="M 59.312966 246.558438 
L 59.312966 192.470633 
" clip-path="url(#p718343040e)" style="fill: none; stroke: #374151; stroke-opacity: 0.1; stroke-width: 0.8; stroke-linecap: square"/>
     </g>
     <g id="line2d_64">
      <g>
       <use xlink:href="#mb1fbaf0866" x="59.312966" y="246.558438" style="fill: #4b5563; stroke: #4b5563; stroke-width: 0.8"/>
      </g>
     </g>
     <g id="text_11">
      <!-- 0 -->
      <g style="fill: #4b5563" transform="translate(57.086091 258.877344) scale(0.07 -0.07)">
       <use xlink:href="#DejaVuSans-30"/>
      </g>
     </g>
    </g>
    <g id="xtick_9">
     <g id="line2d_65">
      <path d="M 127.632525 246.558438 
L 127.632525 192.470633 
" clip-path="url(#p718343040e)" style="fill: none; stroke: #374151; stroke-opacity: 0.1; stroke-width: 0.8; stroke-linecap: square"/>
     </g>
     <g id="line2d_66">
      <g>
       <use xlink:href="#mb1fbaf0866" x="127.632525" y="246.558438" style="fill: #4b5563; stroke: #4b5563; stroke-width: 0.8"/>
      </g>
     </g>
     <g id="text_12">
      <!-- 5 -->
      <g style="fill: #4b5563" transform="translate(125.40565 258.877344) scale(0.07 -0.07)">
       <use xlink:href="#DejaVuSans-35"/>
      </g>
     </g>
    </g>
    <g id="xtick_10">
     <g id="line2d_67">
      <path d="M 195.952084 246.558438 
L 195.952084 192.470633 
" clip-path="url(#p718343040e)" style="fill: none; stroke: #374151; stroke-opacity: 0.1; stroke-width: 0.8; stroke-linecap: square"/>
     </g>
     <g id="line2d_68">
      <g>
       <use xlink:href="#mb1fbaf0866" x="195.952084" y="246.558438" style="fill: #4b5563; stroke: #4b5563; stroke-width: 0.8"/>
      </g>
     </g>
     <g id="text_13">
      <!-- 10 -->
      <g style="fill: #4b5563" transform="translate(191.498334 258.877344) scale(0.07 -0.07)">
       <use xlink:href="#DejaVuSans-31"/>
       <use xlink:href="#DejaVuSans-30" transform="translate(63.623047 0)"/>
      </g>
     </g>
    </g>
    <g id="xtick_11">
     <g id="line2d_69">
      <path d="M 264.271643 246.558438 
L 264.271643 192.470633 
" clip-path="url(#p718343040e)" style="fill: none; stroke: #374151; stroke-opacity: 0.1; stroke-width: 0.8; stroke-linecap: square"/>
     </g>
     <g id="line2d_70">
      <g>
       <use xlink:href="#mb1fbaf0866" x="264.271643" y="246.558438" style="fill: #4b5563; stroke: #4b5563; stroke-width: 0.8"/>
      </g>
     </g>
     <g id="text_14">
      <!-- 15 -->
      <g style="fill: #4b5563" transform="translate(259.817893 258.877344) scale(0.07 -0.07)">
       <use xlink:href="#DejaVuSans-31"/>
       <use xlink:href="#DejaVuSans-35" transform="translate(63.623047 0)"/>
      </g>
     </g>
    </g>
    <g id="xtick_12">
     <g id="line2d_71">
      <path d="M 332.591203 246.558438 
L 332.591203 192.470633 
" clip-path="url(#p718343040e)" style="fill: none; stroke: #374151; stroke-opacity: 0.1; stroke-width: 0.8; stroke-linecap: square"/>
     </g>
     <g id="line2d_72">
      <g>
       <use xlink:href="#mb1fbaf0866" x="332.591203" y="246.558438" style="fill: #4b5563; stroke: #4b5563; stroke-width: 0.8"/>
      </g>
     </g>
     <g id="text_15">
      <!-- 20 -->
      <g style="fill: #4b5563" transform="translate(328.137453 258.877344) scale(0.07 -0.07)">
       <use xlink:href="#DejaVuSans-32"/>
       <use xlink:href="#DejaVuSans-30" transform="translate(63.623047 0)"/>
      </g>
     </g>
    </g>
    <g id="xtick_13">
     <g id="line2d_73">
      <path d="M 400.910762 246.558438 
L 400.910762 192.470633 
" clip-path="url(#p718343040e)" style="fill: none; stroke: #374151; stroke-opacity: 0.1; stroke-width: 0.8; stroke-linecap: square"/>
     </g>
     <g id="line2d_74">
      <g>
       <use xlink:href="#mb1fbaf0866" x="400.910762" y="246.558438" style="fill: #4b5563; stroke: #4b5563; stroke-width: 0.8"/>
      </g>
     </g>
     <g id="text_16">
      <!-- 25 -->
      <g style="fill: #4b5563" transform="translate(396.457012 258.877344) scale(0.07 -0.07)">
       <use xlink:href="#DejaVuSans-32"/>
       <use xlink:href="#DejaVuSans-35" transform="translate(63.623047 0)"/>
      </g>
     </g>
    </g>
    <g id="xtick_14">
     <g id="line2d_75">
      <path d="M 469.230321 246.558438 
L 469.230321 192.470633 
" clip-path="url(#p718343040e)" style="fill: none; stroke: #374151; stroke-opacity: 0.1; stroke-width: 0.8; stroke-linecap: square"/>
     </g>
     <g id="line2d_76">
      <g>
       <use xlink:href="#mb1fbaf0866" x="469.230321" y="246.558438" style="fill: #4b5563; stroke: #4b5563; stroke-width: 0.8"/>
      </g>
     </g>
     <g id="text_17">
      <!-- 30 -->
      <g style="fill: #4b5563" transform="translate(464.776571 258.877344) scale(0.07 -0.07)">
       <defs>
        <path id="DejaVuSans-33" d="M 2597 2516 
Q 3050 2419 3304 2112 
Q 3559 1806 3559 1356 
Q 3559 666 3084 287 
Q 2609 -91 1734 -91 
Q 1441 -91 1130 -33 
Q 819 25 488 141 
L 488 750 
Q 750 597 1062 519 
Q 1375 441 1716 441 
Q 2309 441 2620 675 
Q 2931 909 2931 1356 
Q 2931 1769 2642 2001 
Q 2353 2234 1838 2234 
L 1294 2234 
L 1294 2753 
L 1863 2753 
Q 2328 2753 2575 2939 
Q 2822 3125 2822 3475 
Q 2822 3834 2567 4026 
Q 2313 4219 1838 4219 
Q 1578 4219 1281 4162 
Q 984 4106 628 3988 
L 628 4550 
Q 988 4650 1302 4700 
Q 1616 4750 1894 4750 
Q 2613 4750 3031 4423 
Q 3450 4097 3450 3541 
Q 3450 3153 3228 2886 
Q 3006 2619 2597 2516 
z
" transform="scale(0.015625)"/>
       </defs>
       <use xlink:href="#DejaVuSans-33"/>
       <use xlink:href="#DejaVuSans-30" transform="translate(63.623047 0)"/>
      </g>
     </g>
    </g>
   </g>
   <g id="matplotlib.axis_4">
    <g id="ytick_10">
     <g id="line2d_77">
      <path d="M 34.239688 246.558438 
L 480.639687 246.558438 
" clip-path="url(#p718343040e)" style="fill: none; stroke: #374151; stroke-opacity: 0.1; stroke-width: 0.8; stroke-linecap: square"/>
     </g>
     <g id="line2d_78">
      <g>
       <use xlink:href="#mb9833f1159" x="34.239688" y="246.558438" style="fill: #4b5563; stroke: #4b5563; stroke-width: 0.8"/>
      </g>
     </g>
     <g id="text_18">
      <!-- 0 -->
      <g style="fill: #4b5563" transform="translate(22.785938 249.217891) scale(0.07 -0.07)">
       <use xlink:href="#DejaVuSans-30"/>
      </g>
     </g>
    </g>
    <g id="ytick_11">
     <g id="line2d_79">
      <path d="M 34.239688 225.676299 
L 480.639687 225.676299 
" clip-path="url(#p718343040e)" style="fill: none; stroke: #374151; stroke-opacity: 0.1; stroke-width: 0.8; stroke-linecap: square"/>
     </g>
     <g id="line2d_80">
      <g>
       <use xlink:href="#mb9833f1159" x="34.239688" y="225.676299" style="fill: #4b5563; stroke: #4b5563; stroke-width: 0.8"/>
      </g>
     </g>
     <g id="text_19">
      <!-- 2 -->
      <g style="fill: #4b5563" transform="translate(22.785938 228.335752) scale(0.07 -0.07)">
       <use xlink:href="#DejaVuSans-32"/>
      </g>
     </g>
    </g>
    <g id="ytick_12">
     <g id="line2d_81">
      <path d="M 34.239688 204.79416 
L 480.639687 204.79416 
" clip-path="url(#p718343040e)" style="fill: none; stroke: #374151; stroke-opacity: 0.1; stroke-width: 0.8; stroke-linecap: square"/>
     </g>
     <g id="line2d_82">
      <g>
       <use xlink:href="#mb9833f1159" x="34.239688" y="204.79416" style="fill: #4b5563; stroke: #4b5563; stroke-width: 0.8"/>
      </g>
     </g>
     <g id="text_20">
      <!-- 4 -->
      <g style="fill: #4b5563" transform="translate(22.785938 207.453614) scale(0.07 -0.07)">
       <defs>
        <path id="DejaVuSans-34" d="M 2419 4116 
L 825 1625 
L 2419 1625 
L 2419 4116 
z
M 2253 4666 
L 3047 4666 
L 3047 1625 
L 3713 1625 
L 3713 1100 
L 3047 1100 
L 3047 0 
L 2419 0 
L 2419 1100 
L 313 1100 
L 313 1709 
L 2253 4666 
z
" transform="scale(0.015625)"/>
       </defs>
       <use xlink:href="#DejaVuSans-34"/>
      </g>
     </g>
    </g>
    <g id="text_21">
     <!-- Vol -->
     <g style="fill: #4b5563" transform="translate(17.330156 224.75141) rotate(-90) scale(0.07 -0.07)">
      <defs>
       <path id="DejaVuSans-56" d="M 1831 0 
L 50 4666 
L 709 4666 
L 2188 738 
L 3669 4666 
L 4325 4666 
L 2547 0 
L 1831 0 
z
" transform="scale(0.015625)"/>
       <path id="DejaVuSans-6f" d="M 1959 3097 
Q 1497 3097 1228 2736 
Q 959 2375 959 1747 
Q 959 1119 1226 758 
Q 1494 397 1959 397 
Q 2419 397 2687 759 
Q 2956 1122 2956 1747 
Q 2956 2369 2687 2733 
Q 2419 3097 1959 3097 
z
M 1959 3584 
Q 2709 3584 3137 3096 
Q 3566 2609 3566 1747 
Q 3566 888 3137 398 
Q 2709 -91 1959 -91 
Q 1206 -91 779 398 
Q 353 888 353 1747 
Q 353 2609 779 3096 
Q 1206 3584 1959 3584 
z
" transform="scale(0.015625)"/>
       <path id="DejaVuSans-6c" d="M 603 4863 
L 1178 4863 
L 1178 0 
L 603 0 
L 603 4863 
z
" transform="scale(0.015625)"/>
      </defs>
      <use xlink:href="#DejaVuSans-56"/>
      <use xlink:href="#DejaVuSans-6f" transform="translate(60.658203 0)"/>
      <use xlink:href="#DejaVuSans-6c" transform="translate(121.839844 0)"/>
     </g>
    </g>
    <g id="text_22">
     <!-- 1e6 -->
     <g style="fill: #4b5563" transform="translate(34.239688 189.470633) scale(0.1 -0.1)">
      <defs>
       <path id="DejaVuSans-65" d="M 3597 1894 
L 3597 1613 
L 953 1613 
Q 991 1019 1311 708 
Q 1631 397 2203 397 
Q 2534 397 2845 478 
Q 3156 559 3463 722 
L 3463 178 
Q 3153 47 2828 -22 
Q 2503 -91 2169 -91 
Q 1331 -91 842 396 
Q 353 884 353 1716 
Q 353 2575 817 3079 
Q 1281 3584 2069 3584 
Q 2775 3584 3186 3129 
Q 3597 2675 3597 1894 
z
M 3022 2063 
Q 3016 2534 2758 2815 
Q 2500 3097 2075 3097 
Q 1594 3097 1305 2825 
Q 1016 2553 972 2059 
L 3022 2063 
z
" transform="scale(0.015625)"/>
       <path id="DejaVuSans-36" d="M 2113 2584 
Q 1688 2584 1439 2293 
Q 1191 2003 1191 1497 
Q 1191 994 1439 701 
Q 1688 409 2113 409 
Q 2538 409 2786 701 
Q 3034 994 3034 1497 
Q 3034 2003 2786 2293 
Q 2538 2584 2113 2584 
z
M 3366 4563 
L 3366 3988 
Q 3128 4100 2886 4159 
Q 2644 4219 2406 4219 
Q 1781 4219 1451 3797 
Q 1122 3375 1075 2522 
Q 1259 2794 1537 2939 
Q 1816 3084 2150 3084 
Q 2853 3084 3261 2657 
Q 3669 2231 3669 1497 
Q 3669 778 3244 343 
Q 2819 -91 2113 -91 
Q 1303 -91 875 529 
Q 447 1150 447 2328 
Q 447 3434 972 4092 
Q 1497 4750 2381 4750 
Q 2619 4750 2861 4703 
Q 3103 4656 3366 4563 
z
" transform="scale(0.015625)"/>
      </defs>
      <use xlink:href="#DejaVuSans-31"/>
      <use xlink:href="#DejaVuSans-65" transform="translate(63.623047 0)"/>
      <use xlink:href="#DejaVuSans-36" transform="translate(125.146484 0)"/>
     </g>
    </g>
   </g>
   <g id="patch_66">
    <path d="M 34.239688 246.558438 
L 34.239688 192.470633 
" style="fill: none; stroke: #1f2937; stroke-width: 0.8; stroke-linejoin: miter; stroke-linecap: square"/>
   </g>
   <g id="patch_67">
    <path d="M 34.239688 246.558438 
L 480.639688 246.558438 
" style="fill: none; stroke: #1f2937; stroke-width: 0.8; stroke-linejoin: miter; stroke-linecap: square"/>
   </g>
  </g>
 </g>
 <defs>
  <clipPath id="p6e0085fc17">
   <rect x="34.239688" y="24.798438" width="446.4" height="162.263415"/>
  </clipPath>
  <clipPath id="p718343040e">
   <rect x="34.239688" y="192.470633" width="446.4" height="54.087805"/>
  </clipPath>
 </defs>
</svg>
