<?xml version="1.0" encoding="utf-8" standalone="no"?>
<!DOCTYPE svg PUBLIC "-//W3C//DTD SVG 1.1//EN"
  "http://www.w3.org/Graphics/SVG/1.1/DTD/svg11.dtd">
<svg xmlns:xlink="http://www.w3.org/1999/xlink" width="483.028437pt" height="267.533125pt" viewBox="0 0 483.028437 267.533125" xmlns="http://www.w3.org/2000/svg" version="1.1">
 <metadata>
  <rdf:RDF xmlns:dc="http://purl.org/dc/elements/1.1/" xmlns:cc="http://creativecommons.org/ns#" xmlns:rdf="http://www.w3.org/1999/02/22-rdf-syntax-ns#">
   <cc:Work>
    <dc:type rdf:resource="http://purl.org/dc/dcmitype/StillImage"/>
    <dc:date>2026-02-16T00:23:00.737457</dc:date>
    <dc:format>image/svg+xml</dc:format>
    <dc:creator>
     <cc:Agent>
      <dc:title>Matplotlib v3.10.8, https://matplotlib.org/</dc:title>
     </cc:Agent>
    </dc:creator>
   </cc:Work>
  </rdf:RDF>
 </metadata>
 <defs>
  <style type="text/css">*{stroke-linejoin: round; stroke-linecap: butt}</style>
 </defs>
 <g id="figure_1">
  <g id="patch_1">
   <path d="M 0 267.533125 
L 483.028437 267.533125 
L 483.028437 0 
L 0 0 
z
" style="fill: #0a0f1a"/>
  </g>
  <g id="axes_1">
   <g id="patch_2">
    <path d="M 29.428438 187.061852 
L 475.828437 187.061852 
L 475.828437 24.798438 
L 29.428438 24.798438 
z
" style="fill: #0a0f1a"/>
   </g>
   <g id="patch_3">
    <path d="M 38.788438 55.193573 
L 48.868437 55.193573 
Q 49.156437 55.193573 49.156437 55.007166 
L 49.156437 40.67347 
Q 49.156437 40.487063 48.868437 40.487063 
L 38.788438 40.487063 
Q 38.500438 40.487063 38.500438 40.67347 
L 38.500438 55.007166 
Q 38.500438 55.193573 38.788438 55.193573 
z
" clip-path="url(#p5e0ab1a3ff)" style="fill: #22c55e; stroke: #22c55e; stroke-linejoin: miter"/>
   </g>
   <g id="patch_4">
    <path d="M 53.188437 76.475869 
L 63.268437 76.475869 
Q 63.556438 76.475869 63.556438 76.289462 
L 63.556438 62.998737 
Q 63.556438 62.812329 63.268437 62.812329 
L 53.188437 62.812329 
Q 52.900437 62.812329 52.900437 62.998737 
L 52.900437 76.289462 
Q 52.900437 76.475869 53.188437 76.475869 
z
" clip-path="url(#p5e0ab1a3ff)" style="fill: #ef4444; stroke: #ef4444; stroke-linejoin: miter"/>
   </g>
   <g id="patch_5">
    <path d="M 67.588437 99.995055 
L 77.668437 99.995055 
Q 77.956437 99.995055 77.956437 99.808648 
L 77.956437 83.418432 
Q 77.956437 83.232025 77.668437 83.232025 
L 67.588437 83.232025 
Q 67.300438 83.232025 67.300438 83.418432 
L 67.300438 99.808648 
Q 67.300438 99.995055 67.588437 99.995055 
z
" clip-path="url(#p5e0ab1a3ff)" style="fill: #ef4444; stroke: #ef4444; stroke-linejoin: miter"/>
   </g>
   <g id="patch_6">
    <path d="M 81.988438 83.826938 
L 92.068437 83.826938 
Q 92.356437 83.826938 92.356437 83.640531 
L 92.356437 80.461598 
Q 92.356437 80.275191 92.068437 80.275191 
L 81.988438 80.275191 
Q 81.700437 80.275191 81.700437 80.461598 
L 81.700437 83.640531 
Q 81.700437 83.826938 81.988438 83.826938 
z
" clip-path="url(#p5e0ab1a3ff)" style="fill: #ef4444; stroke: #ef4444; stroke-linejoin: miter"/>
   </g>
   <g id="patch_7">
    <path d="M 96.388437 90.754965 
L 106.468437 90.754965 
Q 106.756438 90.754965 106.756438 90.568558 
L 106.756438 85.621093 
Q 106.756438 85.434685 106.468437 85.434685 
L 96.388437 85.434685 
Q 96.100437 85.434685 96.100437 85.621093 
L 96.100437 90.568558 
Q 96.100437 90.754965 96.388437 90.754965 
z
" clip-path="url(#p5e0ab1a3ff)" style="fill: #ef4444; stroke: #ef4444; stroke-linejoin: miter"/>
   </g>
   <g id="patch_8">
    <path d="M 110.788437 88.484196 
L 120.868437 88.484196 
Q 121.156438 88.484196 121.156438 88.297788 
L 121.156438 82.636629 
Q 121.156438 82.450222 120.868437 82.450222 
L 110.788437 82.450222 
Q 110.500438 82.450222 110.500438 82.636629 
L 110.500438 88.297788 
Q 110.500438 88.484196 110.788437 88.484196 
z
" clip-path="url(#p5e0ab1a3ff)" style="fill: #22c55e; stroke: #22c55e; stroke-linejoin: miter"/>
   </g>
   <g id="patch_9">
    <path d="M 125.188437 107.196195 
L 135.268438 107.196195 
Q 135.556438 107.196195 135.556438 107.009787 
L 135.556438 99.335767 
Q 135.556438 99.149359 135.268438 99.149359 
L 125.188437 99.149359 
Q 124.900438 99.149359 124.900438 99.335767 
L 124.900438 107.009787 
Q 124.900438 107.196195 125.188437 107.196195 
z
" clip-path="url(#p5e0ab1a3ff)" style="fill: #ef4444; stroke: #ef4444; stroke-linejoin: miter"/>
   </g>
   <g id="patch_10">
    <path d="M 139.588437 105.113486 
L 149.668438 105.113486 
Q 149.956437 105.113486 149.956437 104.927078 
L 149.956437 94.149121 
Q 149.956437 93.962714 149.668438 93.962714 
L 139.588437 93.962714 
Q 139.300438 93.962714 139.300438 94.149121 
L 139.300438 104.927078 
Q 139.300438 105.113486 139.588437 105.113486 
z
" clip-path="url(#p5e0ab1a3ff)" style="fill: #22c55e; stroke: #22c55e; stroke-linejoin: miter"/>
   </g>
   <g id="patch_11">
    <path d="M 153.988438 125.906348 
L 164.068438 125.906348 
Q 164.356437 125.906348 164.356437 125.71994 
L 164.356437 115.107263 
Q 164.356437 114.920856 164.068438 114.920856 
L 153.988438 114.920856 
Q 153.700437 114.920856 153.700437 115.107263 
L 153.700437 125.71994 
Q 153.700437 125.906348 153.988438 125.906348 
z
" clip-path="url(#p5e0ab1a3ff)" style="fill: #ef4444; stroke: #ef4444; stroke-linejoin: miter"/>
   </g>
   <g id="patch_12">
    <path d="M 168.388437 120.558256 
L 178.468438 120.558256 
Q 178.756438 120.558256 178.756438 120.371848 
L 178.756438 111.840545 
Q 178.756438 111.654137 178.468438 111.654137 
L 168.388437 111.654137 
Q 168.100437 111.654137 168.100437 111.840545 
L 168.100437 120.371848 
Q 168.100437 120.558256 168.388437 120.558256 
z
" clip-path="url(#p5e0ab1a3ff)" style="fill: #ef4444; stroke: #ef4444; stroke-linejoin: miter"/>
   </g>
   <g id="patch_13">
    <path d="M 182.788437 95.031523 
L 192.868437 95.031523 
Q 193.156438 95.031523 193.156438 94.845116 
L 193.156438 89.979433 
Q 193.156438 89.793026 192.868437 89.793026 
L 182.788437 89.793026 
Q 182.500438 89.793026 182.500438 89.979433 
L 182.500438 94.845116 
Q 182.500438 95.031523 182.788437 95.031523 
z
" clip-path="url(#p5e0ab1a3ff)" style="fill: #ef4444; stroke: #ef4444; stroke-linejoin: miter"/>
   </g>
   <g id="patch_14">
    <path d="M 197.188437 83.140366 
L 207.268438 83.140366 
Q 207.556438 83.140366 207.556438 82.953959 
L 207.556438 79.225281 
Q 207.556438 79.038873 207.268438 79.038873 
L 197.188437 79.038873 
Q 196.900438 79.038873 196.900438 79.225281 
L 196.900438 82.953959 
Q 196.900438 83.140366 197.188437 83.140366 
z
" clip-path="url(#p5e0ab1a3ff)" style="fill: #22c55e; stroke: #22c55e; stroke-linejoin: miter"/>
   </g>
   <g id="patch_15">
    <path d="M 211.588437 104.656217 
L 221.668438 104.656217 
Q 221.956437 104.656217 221.956437 104.46981 
L 221.956437 96.500402 
Q 221.956437 96.313995 221.668438 96.313995 
L 211.588437 96.313995 
Q 211.300438 96.313995 211.300438 96.500402 
L 211.300438 104.46981 
Q 211.300438 104.656217 211.588437 104.656217 
z
" clip-path="url(#p5e0ab1a3ff)" style="fill: #ef4444; stroke: #ef4444; stroke-linejoin: miter"/>
   </g>
   <g id="patch_16">
    <path d="M 225.988438 103.485503 
L 236.068438 103.485503 
Q 236.356437 103.485503 236.356437 103.299096 
L 236.356437 88.071993 
Q 236.356437 87.885586 236.068438 87.885586 
L 225.988438 87.885586 
Q 225.700437 87.885586 225.700437 88.071993 
L 225.700437 103.299096 
Q 225.700437 103.485503 225.988438 103.485503 
z
" clip-path="url(#p5e0ab1a3ff)" style="fill: #ef4444; stroke: #ef4444; stroke-linejoin: miter"/>
   </g>
   <g id="patch_17">
    <path d="M 240.388437 115.050933 
L 250.468437 115.050933 
Q 250.756438 115.050933 250.756438 114.864526 
L 250.756438 111.873317 
Q 250.756438 111.686909 250.468437 111.686909 
L 240.388437 111.686909 
Q 240.100437 111.686909 240.100437 111.873317 
L 240.100437 114.864526 
Q 240.100437 115.050933 240.388437 115.050933 
z
" clip-path="url(#p5e0ab1a3ff)" style="fill: #22c55e; stroke: #22c55e; stroke-linejoin: miter"/>
   </g>
   <g id="patch_18">
    <path d="M 254.788437 120.80675 
L 264.868437 120.80675 
Q 265.156437 120.80675 265.156437 120.620342 
L 265.156437 113.985522 
Q 265.156437 113.799114 264.868437 113.799114 
L 254.788437 113.799114 
Q 254.500438 113.799114 254.500438 113.985522 
L 254.500438 120.620342 
Q 254.500438 120.80675 254.788437 120.80675 
z
" clip-path="url(#p5e0ab1a3ff)" style="fill: #22c55e; stroke: #22c55e; stroke-linejoin: miter"/>
   </g>
   <g id="patch_19">
    <path d="M 269.188437 127.125448 
L 279.268438 127.125448 
Q 279.556437 127.125448 279.556437 126.939041 
L 279.556437 118.894223 
Q 279.556437 118.707816 279.268438 118.707816 
L 269.188437 118.707816 
Q 268.900438 118.707816 268.900438 118.894223 
L 268.900438 126.939041 
Q 268.900438 127.125448 269.188437 127.125448 
z
" clip-path="url(#p5e0ab1a3ff)" style="fill: #22c55e; stroke: #22c55e; stroke-linejoin: miter"/>
   </g>
   <g id="patch_20">
    <path d="M 283.588437 99.366717 
L 293.668437 99.366717 
Q 293.956437 99.366717 293.956437 99.18031 
L 293.956437 85.68109 
Q 293.956437 85.494683 293.668437 85.494683 
L 283.588437 85.494683 
Q 283.300437 85.494683 283.300437 85.68109 
L 283.300437 99.18031 
Q 283.300437 99.366717 283.588437 99.366717 
z
" clip-path="url(#p5e0ab1a3ff)" style="fill: #22c55e; stroke: #22c55e; stroke-linejoin: miter"/>
   </g>
   <g id="patch_21">
    <path d="M 297.988437 113.597606 
L 308.068437 113.597606 
Q 308.356437 113.597606 308.356437 113.411199 
L 308.356437 100.960695 
Q 308.356437 100.774288 308.068437 100.774288 
L 297.988437 100.774288 
Q 297.700437 100.774288 297.700437 100.960695 
L 297.700437 113.411199 
Q 297.700437 113.597606 297.988437 113.597606 
z
" clip-path="url(#p5e0ab1a3ff)" style="fill: #ef4444; stroke: #ef4444; stroke-linejoin: miter"/>
   </g>
   <g id="patch_22">
    <path d="M 312.388437 125.796817 
L 322.468437 125.796817 
Q 322.756437 125.796817 322.756437 125.61041 
L 322.756437 107.353063 
Q 322.756437 107.166656 322.468437 107.166656 
L 312.388437 107.166656 
Q 312.100437 107.166656 312.100437 107.353063 
L 312.100437 125.61041 
Q 312.100437 125.796817 312.388437 125.796817 
z
" clip-path="url(#p5e0ab1a3ff)" style="fill: #ef4444; stroke: #ef4444; stroke-linejoin: miter"/>
   </g>
   <g id="patch_23">
    <path d="M 326.788437 152.820502 
L 336.868437 152.820502 
Q 337.156437 152.820502 337.156437 152.634094 
L 337.156437 134.207688 
Q 337.156437 134.021281 336.868437 134.021281 
L 326.788437 134.021281 
Q 326.500437 134.021281 326.500437 134.207688 
L 326.500437 152.634094 
Q 326.500437 152.820502 326.788437 152.820502 
z
" clip-path="url(#p5e0ab1a3ff)" style="fill: #22c55e; stroke: #22c55e; stroke-linejoin: miter"/>
   </g>
   <g id="patch_24">
    <path d="M 341.188437 139.949642 
L 351.268437 139.949642 
Q 351.556437 139.949642 351.556437 139.763235 
L 351.556437 123.286211 
Q 351.556437 123.099803 351.268437 123.099803 
L 341.188437 123.099803 
Q 340.900437 123.099803 340.900437 123.286211 
L 340.900437 139.763235 
Q 340.900437 139.949642 341.188437 139.949642 
z
" clip-path="url(#p5e0ab1a3ff)" style="fill: #22c55e; stroke: #22c55e; stroke-linejoin: miter"/>
   </g>
   <g id="patch_25">
    <path d="M 355.588437 133.928793 
L 365.668437 133.928793 
Q 365.956437 133.928793 365.956437 133.742386 
L 365.956437 122.194124 
Q 365.956437 122.007717 365.668437 122.007717 
L 355.588437 122.007717 
Q 355.300437 122.007717 355.300437 122.194124 
L 355.300437 133.742386 
Q 355.300437 133.928793 355.588437 133.928793 
z
" clip-path="url(#p5e0ab1a3ff)" style="fill: #22c55e; stroke: #22c55e; stroke-linejoin: miter"/>
   </g>
   <g id="patch_26">
    <path d="M 369.988437 117.738561 
L 380.068437 117.738561 
Q 380.356437 117.738561 380.356437 117.552154 
L 380.356437 110.245228 
Q 380.356437 110.058821 380.068437 110.058821 
L 369.988437 110.058821 
Q 369.700437 110.058821 369.700437 110.245228 
L 369.700437 117.552154 
Q 369.700437 117.738561 369.988437 117.738561 
z
" clip-path="url(#p5e0ab1a3ff)" style="fill: #ef4444; stroke: #ef4444; stroke-linejoin: miter"/>
   </g>
   <g id="patch_27">
    <path d="M 384.388437 128.276772 
L 394.468437 128.276772 
Q 394.756437 128.276772 394.756437 128.090364 
L 394.756437 112.538812 
Q 394.756437 112.352405 394.468437 112.352405 
L 384.388437 112.352405 
Q 384.100437 112.352405 384.100437 112.538812 
L 384.100437 128.090364 
Q 384.100437 128.276772 384.388437 128.276772 
z
" clip-path="url(#p5e0ab1a3ff)" style="fill: #22c55e; stroke: #22c55e; stroke-linejoin: miter"/>
   </g>
   <g id="patch_28">
    <path d="M 398.788437 130.665723 
L 408.868437 130.665723 
Q 409.156437 130.665723 409.156437 130.479316 
L 409.156437 121.35588 
Q 409.156437 121.169472 408.868437 121.169472 
L 398.788437 121.169472 
Q 398.500437 121.169472 398.500437 121.35588 
L 398.500437 130.479316 
Q 398.500437 130.665723 398.788437 130.665723 
z
" clip-path="url(#p5e0ab1a3ff)" style="fill: #22c55e; stroke: #22c55e; stroke-linejoin: miter"/>
   </g>
   <g id="patch_29">
    <path d="M 413.188437 150.619227 
L 423.268437 150.619227 
Q 423.556437 150.619227 423.556437 150.43282 
L 423.556437 133.294707 
Q 423.556437 133.1083 423.268437 133.1083 
L 413.188437 133.1083 
Q 412.900437 133.1083 412.900437 133.294707 
L 412.900437 150.43282 
Q 412.900437 150.619227 413.188437 150.619227 
z
" clip-path="url(#p5e0ab1a3ff)" style="fill: #ef4444; stroke: #ef4444; stroke-linejoin: miter"/>
   </g>
   <g id="patch_30">
    <path d="M 427.588437 153.74564 
L 437.668437 153.74564 
Q 437.956437 153.74564 437.956437 153.559233 
L 437.956437 147.189254 
Q 437.956437 147.002847 437.668437 147.002847 
L 427.588437 147.002847 
Q 427.300437 147.002847 427.300437 147.189254 
L 427.300437 153.559233 
Q 427.300437 153.74564 427.588437 153.74564 
z
" clip-path="url(#p5e0ab1a3ff)" style="fill: #ef4444; stroke: #ef4444; stroke-linejoin: miter"/>
   </g>
   <g id="patch_31">
    <path d="M 441.988437 166.197882 
L 452.068437 166.197882 
Q 452.356437 166.197882 452.356437 166.011474 
L 452.356437 151.796306 
Q 452.356437 151.609898 452.068437 151.609898 
L 441.988437 151.609898 
Q 441.700437 151.609898 441.700437 151.796306 
L 441.700437 166.011474 
Q 441.700437 166.197882 441.988437 166.197882 
z
" clip-path="url(#p5e0ab1a3ff)" style="fill: #22c55e; stroke: #22c55e; stroke-linejoin: miter"/>
   </g>
   <g id="patch_32">
    <path d="M 456.388437 143.104968 
L 466.468437 143.104968 
Q 466.756437 143.104968 466.756437 142.918561 
L 466.756437 127.672434 
Q 466.756437 127.486026 466.468437 127.486026 
L 456.388437 127.486026 
Q 456.100437 127.486026 456.100437 127.672434 
L 456.100437 142.918561 
Q 456.100437 143.104968 456.388437 143.104968 
z
" clip-path="url(#p5e0ab1a3ff)" style="fill: #22c55e; stroke: #22c55e; stroke-linejoin: miter"/>
   </g>
   <g id="matplotlib.axis_1">
    <g id="xtick_1">
     <g id="line2d_1">
      <path d="M 43.828437 187.061852 
L 43.828437 24.798438 
" clip-path="url(#p5e0ab1a3ff)" style="fill: none; stroke: #374151; stroke-opacity: 0.1; stroke-width: 0.8; stroke-linecap: square"/>
     </g>
     <g id="line2d_2">
      <defs>
       <path id="m8e629ac671" d="M 0 0 
L 0 3.5 
" style="stroke: #4b5563; stroke-width: 0.8"/>
      </defs>
      <g>
       <use xlink:href="#m8e629ac671" x="43.828437" y="187.061852" style="fill: #4b5563; stroke: #4b5563; stroke-width: 0.8"/>
      </g>
     </g>
    </g>
    <g id="xtick_2">
     <g id="line2d_3">
      <path d="M 115.828438 187.061852 
L 115.828438 24.798438 
" clip-path="url(#p5e0ab1a3ff)" style="fill: none; stroke: #374151; stroke-opacity: 0.1; stroke-width: 0.8; stroke-linecap: square"/>
     </g>
     <g id="line2d_4">
      <g>
       <use xlink:href="#m8e629ac671" x="115.828438" y="187.061852" style="fill: #4b5563; stroke: #4b5563; stroke-width: 0.8"/>
      </g>
     </g>
    </g>
    <g id="xtick_3">
     <g id="line2d_5">
      <path d="M 187.828438 187.061852 
L 187.828438 24.798438 
" clip-path="url(#p5e0ab1a3ff)" style="fill: none; stroke: #374151; stroke-opacity: 0.1; stroke-width: 0.8; stroke-linecap: square"/>
     </g>
     <g id="line2d_6">
      <g>
       <use xlink:href="#m8e629ac671" x="187.828438" y="187.061852" style="fill: #4b5563; stroke: #4b5563; stroke-width: 0.8"/>
      </g>
     </g>
    </g>
    <g id="xtick_4">
     <g id="line2d_7">
      <path d="M 259.828437 187.061852 
L 259.828437 24.798438 
" clip-path="url(#p5e0ab1a3ff)" style="fill: none; stroke: #374151; stroke-opacity: 0.1; stroke-width: 0.8; stroke-linecap: square"/>
     </g>
     <g id="line2d_8">
      <g>
       <use xlink:href="#m8e629ac671" x="259.828437" y="187.061852" style="fill: #4b5563; stroke: #4b5563; stroke-width: 0.8"/>
      </g>
     </g>
    </g>
    <g id="xtick_5">
     <g id="line2d_9">
      <path d="M 331.828438 187.061852 
L 331.828438 24.798438 
" clip-path="url(#p5e0ab1a3ff)" style="fill: none; stroke: #374151; stroke-opacity: 0.1; stroke-width: 0.8; stroke-linecap: square"/>
     </g>
     <g id="line2d_10">
      <g>
       <use xlink:href="#m8e629ac671" x="331.828438" y="187.061852" style="fill: #4b5563; stroke: #4b5563; stroke-width: 0.8"/>
      </g>
     </g>
    </g>
    <g id="xtick_6">
     <g id="line2d_11">
      <path d="M 403.828437 187.061852 
L 403.828437 24.798438 
" clip-path="url(#p5e0ab1a3ff)" style="fill: none; stroke: #374151; stroke-opacity: 0.1; stroke-width: 0.8; stroke-linecap: square"/>
     </g>
     <g id="line2d_12">
      <g>
       <use xlink:href="#m8e629ac671" x="403.828437" y="187.061852" style="fill: #4b5563; stroke: #4b5563; stroke-width: 0.8"/>
      </g>
     </g>
    </g>
    <g id="xtick_7">
     <g id="line2d_13">
      <path d="M 475.828437 187.061852 
L 475.828437 24.798438 
" clip-path="url(#p5e0ab1a3ff)" style="fill: none; stroke: #374151; stroke-opacity: 0.1; stroke-width: 0.8; stroke-linecap: square"/>
     </g>
     <g id="line2d_14">
      <g>
       <use xlink:href="#m8e629ac671" x="475.828437" y="187.061852" style="fill: #4b5563; stroke: #4b5563; stroke-width: 0.8"/>
      </g>
     </g>
    </g>
   </g>
   <g id="matplotlib.axis_2">
    <g id="ytick_1">
     <g id="line2d_15">
      <path d="M 29.428438 178.325418 
L 475.828437 178.325418 
" clip-path="url(#p5e0ab1a3ff)" style="fill: none; stroke: #374151; stroke-opacity: 0.1; stroke-width: 0.8; stroke-linecap: square"/>
     </g>
     <g id="line2d_16">
      <defs>
       <path id="m68466cee6c" d="M 0 0 
L -3.5 0 
" style="stroke: #4b5563; stroke-width: 0.8"/>
      </defs>
      <g>
       <use xlink:href="#m68466cee6c" x="29.428438" y="178.325418" style="fill: #4b5563; stroke: #4b5563; stroke-width: 0.8"/>
      </g>
     </g>
     <g id="text_1">
      <!-- 86 -->
      <g style="fill: #4b5563" transform="translate(13.520938 180.984871) scale(0.07 -0.07)">
       <defs>
        <path id="DejaVuSans-38" d="M 2034 2216 
Q 1584 2216 1326 1975 
Q 1069 1734 1069 1313 
Q 1069 891 1326 650 
Q 1584 409 2034 409 
Q 2484 409 2743 651 
Q 3003 894 3003 1313 
Q 3003 1734 2745 1975 
Q 2488 2216 2034 2216 
z
M 1403 2484 
Q 997 2584 770 2862 
Q 544 3141 544 3541 
Q 544 4100 942 4425 
Q 1341 4750 2034 4750 
Q 2731 4750 3128 4425 
Q 3525 4100 3525 3541 
Q 3525 3141 3298 2862 
Q 3072 2584 2669 2484 
Q 3125 2378 3379 2068 
Q 3634 1759 3634 1313 
Q 3634 634 3220 271 
Q 2806 -91 2034 -91 
Q 1263 -91 848 271 
Q 434 634 434 1313 
Q 434 1759 690 2068 
Q 947 2378 1403 2484 
z
M 1172 3481 
Q 1172 3119 1398 2916 
Q 1625 2713 2034 2713 
Q 2441 2713 2670 2916 
Q 2900 3119 2900 3481 
Q 2900 3844 2670 4047 
Q 2441 4250 2034 4250 
Q 1625 4250 1398 4047 
Q 1172 3844 1172 3481 
z
" transform="scale(0.015625)"/>
        <path id="DejaVuSans-36" d="M 2113 2584 
Q 1688 2584 1439 2293 
Q 1191 2003 1191 1497 
Q 1191 994 1439 701 
Q 1688 409 2113 409 
Q 2538 409 2786 701 
Q 3034 994 3034 1497 
Q 3034 2003 2786 2293 
Q 2538 2584 2113 2584 
z
M 3366 4563 
L 3366 3988 
Q 3128 4100 2886 4159 
Q 2644 4219 2406 4219 
Q 1781 4219 1451 3797 
Q 1122 3375 1075 2522 
Q 1259 2794 1537 2939 
Q 1816 3084 2150 3084 
Q 2853 3084 3261 2657 
Q 3669 2231 3669 1497 
Q 3669 778 3244 343 
Q 2819 -91 2113 -91 
Q 1303 -91 875 529 
Q 447 1150 447 2328 
Q 447 3434 972 4092 
Q 1497 4750 2381 4750 
Q 2619 4750 2861 4703 
Q 3103 4656 3366 4563 
z
" transform="scale(0.015625)"/>
       </defs>
       <use xlink:href="#DejaVuSans-38"/>
       <use xlink:href="#DejaVuSans-36" transform="translate(63.623047 0)"/>
      </g>
     </g>
    </g>
    <g id="ytick_2">
     <g id="line2d_17">
      <path d="M 29.428438 159.684689 
L 475.828437 159.684689 
" clip-path="url(#p5e0ab1a3ff)" style="fill: none; stroke: #374151; stroke-opacity: 0.1; stroke-width: 0.8; stroke-linecap: square"/>
     </g>
     <g id="line2d_18">
      <g>
       <use xlink:href="#m68466cee6c" x="29.428438" y="159.684689" style="fill: #4b5563; stroke: #4b5563; stroke-width: 0.8"/>
      </g>
     </g>
     <g id="text_2">
      <!-- 88 -->
      <g style="fill: #4b5563" transform="translate(13.520938 162.344142) scale(0.07 -0.07)">
       <use xlink:href="#DejaVuSans-38"/>
       <use xlink:href="#DejaVuSans-38" transform="translate(63.623047 0)"/>
      </g>
     </g>
    </g>
    <g id="ytick_3">
     <g id="line2d_19">
      <path d="M 29.428438 141.043961 
L 475.828437 141.043961 
" clip-path="url(#p5e0ab1a3ff)" style="fill: none; stroke: #374151; stroke-opacity: 0.1; stroke-width: 0.8; stroke-linecap: square"/>
     </g>
     <g id="line2d_20">
      <g>
       <use xlink:href="#m68466cee6c" x="29.428438" y="141.043961" style="fill: #4b5563; stroke: #4b5563; stroke-width: 0.8"/>
      </g>
     </g>
     <g id="text_3">
      <!-- 90 -->
      <g style="fill: #4b5563" transform="translate(13.520938 143.703414) scale(0.07 -0.07)">
       <defs>
        <path id="DejaVuSans-39" d="M 703 97 
L 703 672 
Q 941 559 1184 500 
Q 1428 441 1663 441 
Q 2288 441 2617 861 
Q 2947 1281 2994 2138 
Q 2813 1869 2534 1725 
Q 2256 1581 1919 1581 
Q 1219 1581 811 2004 
Q 403 2428 403 3163 
Q 403 3881 828 4315 
Q 1253 4750 1959 4750 
Q 2769 4750 3195 4129 
Q 3622 3509 3622 2328 
Q 3622 1225 3098 567 
Q 2575 -91 1691 -91 
Q 1453 -91 1209 -44 
Q 966 3 703 97 
z
M 1959 2075 
Q 2384 2075 2632 2365 
Q 2881 2656 2881 3163 
Q 2881 3666 2632 3958 
Q 2384 4250 1959 4250 
Q 1534 4250 1286 3958 
Q 1038 3666 1038 3163 
Q 1038 2656 1286 2365 
Q 1534 2075 1959 2075 
z
" transform="scale(0.015625)"/>
        <path id="DejaVuSans-30" d="M 2034 4250 
Q 1547 4250 1301 3770 
Q 1056 3291 1056 2328 
Q 1056 1369 1301 889 
Q 1547 409 2034 409 
Q 2525 409 2770 889 
Q 3016 1369 3016 2328 
Q 3016 3291 2770 3770 
Q 2525 4250 2034 4250 
z
M 2034 4750 
Q 2819 4750 3233 4129 
Q 3647 3509 3647 2328 
Q 3647 1150 3233 529 
Q 2819 -91 2034 -91 
Q 1250 -91 836 529 
Q 422 1150 422 2328 
Q 422 3509 836 4129 
Q 1250 4750 2034 4750 
z
" transform="scale(0.015625)"/>
       </defs>
       <use xlink:href="#DejaVuSans-39"/>
       <use xlink:href="#DejaVuSans-30" transform="translate(63.623047 0)"/>
      </g>
     </g>
    </g>
    <g id="ytick_4">
     <g id="line2d_21">
      <path d="M 29.428438 122.403232 
L 475.828437 122.403232 
" clip-path="url(#p5e0ab1a3ff)" style="fill: none; stroke: #374151; stroke-opacity: 0.1; stroke-width: 0.8; stroke-linecap: square"/>
     </g>
     <g id="line2d_22">
      <g>
       <use xlink:href="#m68466cee6c" x="29.428438" y="122.403232" style="fill: #4b5563; stroke: #4b5563; stroke-width: 0.8"/>
      </g>
     </g>
     <g id="text_4">
      <!-- 92 -->
      <g style="fill: #4b5563" transform="translate(13.520938 125.062685) scale(0.07 -0.07)">
       <defs>
        <path id="DejaVuSans-32" d="M 1228 531 
L 3431 531 
L 3431 0 
L 469 0 
L 469 531 
Q 828 903 1448 1529 
Q 2069 2156 2228 2338 
Q 2531 2678 2651 2914 
Q 2772 3150 2772 3378 
Q 2772 3750 2511 3984 
Q 2250 4219 1831 4219 
Q 1534 4219 1204 4116 
Q 875 4013 500 3803 
L 500 4441 
Q 881 4594 1212 4672 
Q 1544 4750 1819 4750 
Q 2544 4750 2975 4387 
Q 3406 4025 3406 3419 
Q 3406 3131 3298 2873 
Q 3191 2616 2906 2266 
Q 2828 2175 2409 1742 
Q 1991 1309 1228 531 
z
" transform="scale(0.015625)"/>
       </defs>
       <use xlink:href="#DejaVuSans-39"/>
       <use xlink:href="#DejaVuSans-32" transform="translate(63.623047 0)"/>
      </g>
     </g>
    </g>
    <g id="ytick_5">
     <g id="line2d_23">
      <path d="M 29.428438 103.762503 
L 475.828437 103.762503 
" clip-path="url(#p5e0ab1a3ff)" style="fill: none; stroke: #374151; stroke-opacity: 0.1; stroke-width: 0.8; stroke-linecap: square"/>
     </g>
     <g id="line2d_24">
      <g>
       <use xlink:href="#m68466cee6c" x="29.428438" y="103.762503" style="fill: #4b5563; stroke: #4b5563; stroke-width: 0.8"/>
      </g>
     </g>
     <g id="text_5">
      <!-- 94 -->
      <g style="fill: #4b5563" transform="translate(13.520938 106.421957) scale(0.07 -0.07)">
       <defs>
        <path id="DejaVuSans-34" d="M 2419 4116 
L 825 1625 
L 2419 1625 
L 2419 4116 
z
M 2253 4666 
L 3047 4666 
L 3047 1625 
L 3713 1625 
L 3713 1100 
L 3047 1100 
L 3047 0 
L 2419 0 
L 2419 1100 
L 313 1100 
L 313 1709 
L 2253 4666 
z
" transform="scale(0.015625)"/>
       </defs>
       <use xlink:href="#DejaVuSans-39"/>
       <use xlink:href="#DejaVuSans-34" transform="translate(63.623047 0)"/>
      </g>
     </g>
    </g>
    <g id="ytick_6">
     <g id="line2d_25">
      <path d="M 29.428438 85.121775 
L 475.828437 85.121775 
" clip-path="url(#p5e0ab1a3ff)" style="fill: none; stroke: #374151; stroke-opacity: 0.1; stroke-width: 0.8; stroke-linecap: square"/>
     </g>
     <g id="line2d_26">
      <g>
       <use xlink:href="#m68466cee6c" x="29.428438" y="85.121775" style="fill: #4b5563; stroke: #4b5563; stroke-width: 0.8"/>
      </g>
     </g>
     <g id="text_6">
      <!-- 96 -->
      <g style="fill: #4b5563" transform="translate(13.520938 87.781228) scale(0.07 -0.07)">
       <use xlink:href="#DejaVuSans-39"/>
       <use xlink:href="#DejaVuSans-36" transform="translate(63.623047 0)"/>
      </g>
     </g>
    </g>
    <g id="ytick_7">
     <g id="line2d_27">
      <path d="M 29.428438 66.481046 
L 475.828437 66.481046 
" clip-path="url(#p5e0ab1a3ff)" style="fill: none; stroke: #374151; stroke-opacity: 0.1; stroke-width: 0.8; stroke-linecap: square"/>
     </g>
     <g id="line2d_28">
      <g>
       <use xlink:href="#m68466cee6c" x="29.428438" y="66.481046" style="fill: #4b5563; stroke: #4b5563; stroke-width: 0.8"/>
      </g>
     </g>
     <g id="text_7">
      <!-- 98 -->
      <g style="fill: #4b5563" transform="translate(13.520938 69.1405) scale(0.07 -0.07)">
       <use xlink:href="#DejaVuSans-39"/>
       <use xlink:href="#DejaVuSans-38" transform="translate(63.623047 0)"/>
      </g>
     </g>
    </g>
    <g id="ytick_8">
     <g id="line2d_29">
      <path d="M 29.428438 47.840318 
L 475.828437 47.840318 
" clip-path="url(#p5e0ab1a3ff)" style="fill: none; stroke: #374151; stroke-opacity: 0.1; stroke-width: 0.8; stroke-linecap: square"/>
     </g>
     <g id="line2d_30">
      <g>
       <use xlink:href="#m68466cee6c" x="29.428438" y="47.840318" style="fill: #4b5563; stroke: #4b5563; stroke-width: 0.8"/>
      </g>
     </g>
     <g id="text_8">
      <!-- 100 -->
      <g style="fill: #4b5563" transform="translate(9.067187 50.499771) scale(0.07 -0.07)">
       <defs>
        <path id="DejaVuSans-31" d="M 794 531 
L 1825 531 
L 1825 4091 
L 703 3866 
L 703 4441 
L 1819 4666 
L 2450 4666 
L 2450 531 
L 3481 531 
L 3481 0 
L 794 0 
L 794 531 
z
" transform="scale(0.015625)"/>
       </defs>
       <use xlink:href="#DejaVuSans-31"/>
       <use xlink:href="#DejaVuSans-30" transform="translate(63.623047 0)"/>
       <use xlink:href="#DejaVuSans-30" transform="translate(127.246094 0)"/>
      </g>
     </g>
    </g>
    <g id="ytick_9">
     <g id="line2d_31">
      <path d="M 29.428438 29.199589 
L 475.828437 29.199589 
" clip-path="url(#p5e0ab1a3ff)" style="fill: none; stroke: #374151; stroke-opacity: 0.1; stroke-width: 0.8; stroke-linecap: square"/>
     </g>
     <g id="line2d_32">
      <g>
       <use xlink:href="#m68466cee6c" x="29.428438" y="29.199589" style="fill: #4b5563; stroke: #4b5563; stroke-width: 0.8"/>
      </g>
     </g>
     <g id="text_9">
      <!-- 102 -->
      <g style="fill: #4b5563" transform="translate(9.067187 31.859043) scale(0.07 -0.07)">
       <use xlink:href="#DejaVuSans-31"/>
       <use xlink:href="#DejaVuSans-30" transform="translate(63.623047 0)"/>
       <use xlink:href="#DejaVuSans-32" transform="translate(127.246094 0)"/>
      </g>
     </g>
    </g>
   </g>
   <g id="line2d_33">
    <path d="M 43.828437 61.767657 
L 43.828437 32.174047 
" clip-path="url(#p5e0ab1a3ff)" style="fill: none; stroke: #22c55e; stroke-width: 0.8; stroke-linecap: square"/>
   </g>
   <g id="line2d_34">
    <path d="M 58.228437 78.779762 
L 58.228437 54.09102 
" clip-path="url(#p5e0ab1a3ff)" style="fill: none; stroke: #ef4444; stroke-width: 0.8; stroke-linecap: square"/>
   </g>
   <g id="line2d_35">
    <path d="M 72.628437 111.853135 
L 72.628437 74.794544 
" clip-path="url(#p5e0ab1a3ff)" style="fill: none; stroke: #ef4444; stroke-width: 0.8; stroke-linecap: square"/>
   </g>
   <g id="line2d_36">
    <path d="M 87.028437 88.655408 
L 87.028437 75.74991 
" clip-path="url(#p5e0ab1a3ff)" style="fill: none; stroke: #ef4444; stroke-width: 0.8; stroke-linecap: square"/>
   </g>
   <g id="line2d_37">
    <path d="M 101.428438 92.543593 
L 101.428438 75.797265 
" clip-path="url(#p5e0ab1a3ff)" style="fill: none; stroke: #ef4444; stroke-width: 0.8; stroke-linecap: square"/>
   </g>
   <g id="line2d_38">
    <path d="M 115.828438 89.700967 
L 115.828438 75.931577 
" clip-path="url(#p5e0ab1a3ff)" style="fill: none; stroke: #22c55e; stroke-width: 0.8; stroke-linecap: square"/>
   </g>
   <g id="line2d_39">
    <path d="M 130.228437 109.763352 
L 130.228437 95.110204 
" clip-path="url(#p5e0ab1a3ff)" style="fill: none; stroke: #ef4444; stroke-width: 0.8; stroke-linecap: square"/>
   </g>
   <g id="line2d_40">
    <path d="M 144.628437 107.438652 
L 144.628437 83.777037 
" clip-path="url(#p5e0ab1a3ff)" style="fill: none; stroke: #22c55e; stroke-width: 0.8; stroke-linecap: square"/>
   </g>
   <g id="line2d_41">
    <path d="M 159.028437 132.098285 
L 159.028437 105.914346 
" clip-path="url(#p5e0ab1a3ff)" style="fill: none; stroke: #ef4444; stroke-width: 0.8; stroke-linecap: square"/>
   </g>
   <g id="line2d_42">
    <path d="M 173.428438 126.865586 
L 173.428438 109.785145 
" clip-path="url(#p5e0ab1a3ff)" style="fill: none; stroke: #ef4444; stroke-width: 0.8; stroke-linecap: square"/>
   </g>
   <g id="line2d_43">
    <path d="M 187.828438 106.171034 
L 187.828438 84.370796 
" clip-path="url(#p5e0ab1a3ff)" style="fill: none; stroke: #ef4444; stroke-width: 0.8; stroke-linecap: square"/>
   </g>
   <g id="line2d_44">
    <path d="M 202.228437 91.654757 
L 202.228437 66.293101 
" clip-path="url(#p5e0ab1a3ff)" style="fill: none; stroke: #22c55e; stroke-width: 0.8; stroke-linecap: square"/>
   </g>
   <g id="line2d_45">
    <path d="M 216.628437 111.921731 
L 216.628437 94.255041 
" clip-path="url(#p5e0ab1a3ff)" style="fill: none; stroke: #ef4444; stroke-width: 0.8; stroke-linecap: square"/>
   </g>
   <g id="line2d_46">
    <path d="M 231.028437 108.357127 
L 231.028437 82.318056 
" clip-path="url(#p5e0ab1a3ff)" style="fill: none; stroke: #ef4444; stroke-width: 0.8; stroke-linecap: square"/>
   </g>
   <g id="line2d_47">
    <path d="M 245.428437 123.12929 
L 245.428437 107.489557 
" clip-path="url(#p5e0ab1a3ff)" style="fill: none; stroke: #22c55e; stroke-width: 0.8; stroke-linecap: square"/>
   </g>
   <g id="line2d_48">
    <path d="M 259.828437 131.926655 
L 259.828437 104.453046 
" clip-path="url(#p5e0ab1a3ff)" style="fill: none; stroke: #22c55e; stroke-width: 0.8; stroke-linecap: square"/>
   </g>
   <g id="line2d_49">
    <path d="M 274.228437 137.78405 
L 274.228437 110.899126 
" clip-path="url(#p5e0ab1a3ff)" style="fill: none; stroke: #22c55e; stroke-width: 0.8; stroke-linecap: square"/>
   </g>
   <g id="line2d_50">
    <path d="M 288.628437 103.198652 
L 288.628437 73.69501 
" clip-path="url(#p5e0ab1a3ff)" style="fill: none; stroke: #22c55e; stroke-width: 0.8; stroke-linecap: square"/>
   </g>
   <g id="line2d_51">
    <path d="M 303.028437 115.898179 
L 303.028437 91.746445 
" clip-path="url(#p5e0ab1a3ff)" style="fill: none; stroke: #ef4444; stroke-width: 0.8; stroke-linecap: square"/>
   </g>
   <g id="line2d_52">
    <path d="M 317.428437 128.855188 
L 317.428437 93.537302 
" clip-path="url(#p5e0ab1a3ff)" style="fill: none; stroke: #ef4444; stroke-width: 0.8; stroke-linecap: square"/>
   </g>
   <g id="line2d_53">
    <path d="M 331.828438 165.216233 
L 331.828438 124.400913 
" clip-path="url(#p5e0ab1a3ff)" style="fill: none; stroke: #22c55e; stroke-width: 0.8; stroke-linecap: square"/>
   </g>
   <g id="line2d_54">
    <path d="M 346.228437 151.727 
L 346.228437 119.441028 
" clip-path="url(#p5e0ab1a3ff)" style="fill: none; stroke: #22c55e; stroke-width: 0.8; stroke-linecap: square"/>
   </g>
   <g id="line2d_55">
    <path d="M 360.628437 136.062288 
L 360.628437 113.292507 
" clip-path="url(#p5e0ab1a3ff)" style="fill: none; stroke: #22c55e; stroke-width: 0.8; stroke-linecap: square"/>
   </g>
   <g id="line2d_56">
    <path d="M 375.028437 119.316578 
L 375.028437 97.016412 
" clip-path="url(#p5e0ab1a3ff)" style="fill: none; stroke: #ef4444; stroke-width: 0.8; stroke-linecap: square"/>
   </g>
   <g id="line2d_57">
    <path d="M 389.428437 130.434576 
L 389.428437 111.166966 
" clip-path="url(#p5e0ab1a3ff)" style="fill: none; stroke: #22c55e; stroke-width: 0.8; stroke-linecap: square"/>
   </g>
   <g id="line2d_58">
    <path d="M 403.828437 133.942979 
L 403.828437 108.283357 
" clip-path="url(#p5e0ab1a3ff)" style="fill: none; stroke: #22c55e; stroke-width: 0.8; stroke-linecap: square"/>
   </g>
   <g id="line2d_59">
    <path d="M 418.228437 157.599709 
L 418.228437 128.399805 
" clip-path="url(#p5e0ab1a3ff)" style="fill: none; stroke: #ef4444; stroke-width: 0.8; stroke-linecap: square"/>
   </g>
   <g id="line2d_60">
    <path d="M 432.628437 158.771924 
L 432.628437 140.073567 
" clip-path="url(#p5e0ab1a3ff)" style="fill: none; stroke: #ef4444; stroke-width: 0.8; stroke-linecap: square"/>
   </g>
   <g id="line2d_61">
    <path d="M 447.028437 179.686242 
L 447.028437 138.731157 
" clip-path="url(#p5e0ab1a3ff)" style="fill: none; stroke: #22c55e; stroke-width: 0.8; stroke-linecap: square"/>
   </g>
   <g id="line2d_62">
    <path d="M 461.428437 155.599272 
L 461.428437 123.750239 
" clip-path="url(#p5e0ab1a3ff)" style="fill: none; stroke: #22c55e; stroke-width: 0.8; stroke-linecap: square"/>
   </g>
   <g id="patch_33">
    <path d="M 29.428438 187.061852 
L 29.428438 24.798437 
" style="fill: none; stroke: #1f2937; stroke-width: 0.8; stroke-linejoin: miter; stroke-linecap: square"/>
   </g>
   <g id="patch_34">
    <path d="M 29.428438 187.061852 
L 475.828437 187.061852 
" style="fill: none; stroke: #1f2937; stroke-width: 0.8; stroke-linejoin: miter; stroke-linecap: square"/>
   </g>
   <g id="text_10">
    <!-- Dragonfly Doji — PYPL 4H -->
    <g style="fill: #ffffff" transform="translate(180.140156 14.798438) scale(0.1 -0.1)">
     <defs>
      <path id="DejaVuSans-Bold-44" d="M 1791 3756 
L 1791 909 
L 2222 909 
Q 2959 909 3348 1275 
Q 3738 1641 3738 2338 
Q 3738 3031 3350 3393 
Q 2963 3756 2222 3756 
L 1791 3756 
z
M 588 4666 
L 1856 4666 
Q 2919 4666 3439 4514 
Q 3959 4363 4331 4000 
Q 4659 3684 4818 3271 
Q 4978 2859 4978 2338 
Q 4978 1809 4818 1395 
Q 4659 981 4331 666 
Q 3956 303 3431 151 
Q 2906 0 1856 0 
L 588 0 
L 588 4666 
z
" transform="scale(0.015625)"/>
      <path id="DejaVuSans-Bold-72" d="M 3138 2547 
Q 2991 2616 2845 2648 
Q 2700 2681 2553 2681 
Q 2122 2681 1889 2404 
Q 1656 2128 1656 1613 
L 1656 0 
L 538 0 
L 538 3500 
L 1656 3500 
L 1656 2925 
Q 1872 3269 2151 3426 
Q 2431 3584 2822 3584 
Q 2878 3584 2943 3579 
Q 3009 3575 3134 3559 
L 3138 2547 
z
" transform="scale(0.015625)"/>
      <path id="DejaVuSans-Bold-61" d="M 2106 1575 
Q 1756 1575 1579 1456 
Q 1403 1338 1403 1106 
Q 1403 894 1545 773 
Q 1688 653 1941 653 
Q 2256 653 2472 879 
Q 2688 1106 2688 1447 
L 2688 1575 
L 2106 1575 
z
M 3816 1997 
L 3816 0 
L 2688 0 
L 2688 519 
Q 2463 200 2181 54 
Q 1900 -91 1497 -91 
Q 953 -91 614 226 
Q 275 544 275 1050 
Q 275 1666 698 1953 
Q 1122 2241 2028 2241 
L 2688 2241 
L 2688 2328 
Q 2688 2594 2478 2717 
Q 2269 2841 1825 2841 
Q 1466 2841 1156 2769 
Q 847 2697 581 2553 
L 581 3406 
Q 941 3494 1303 3539 
Q 1666 3584 2028 3584 
Q 2975 3584 3395 3211 
Q 3816 2838 3816 1997 
z
" transform="scale(0.015625)"/>
      <path id="DejaVuSans-Bold-67" d="M 2919 594 
Q 2688 288 2409 144 
Q 2131 0 1766 0 
Q 1125 0 706 504 
Q 288 1009 288 1791 
Q 288 2575 706 3076 
Q 1125 3578 1766 3578 
Q 2131 3578 2409 3434 
Q 2688 3291 2919 2981 
L 2919 3500 
L 4044 3500 
L 4044 353 
Q 4044 -491 3511 -936 
Q 2978 -1381 1966 -1381 
Q 1638 -1381 1331 -1331 
Q 1025 -1281 716 -1178 
L 716 -306 
Q 1009 -475 1290 -558 
Q 1572 -641 1856 -641 
Q 2406 -641 2662 -400 
Q 2919 -159 2919 353 
L 2919 594 
z
M 2181 2772 
Q 1834 2772 1640 2515 
Q 1447 2259 1447 1791 
Q 1447 1309 1634 1061 
Q 1822 813 2181 813 
Q 2531 813 2725 1069 
Q 2919 1325 2919 1791 
Q 2919 2259 2725 2515 
Q 2531 2772 2181 2772 
z
" transform="scale(0.015625)"/>
      <path id="DejaVuSans-Bold-6f" d="M 2203 2784 
Q 1831 2784 1636 2517 
Q 1441 2250 1441 1747 
Q 1441 1244 1636 976 
Q 1831 709 2203 709 
Q 2569 709 2762 976 
Q 2956 1244 2956 1747 
Q 2956 2250 2762 2517 
Q 2569 2784 2203 2784 
z
M 2203 3584 
Q 3106 3584 3614 3096 
Q 4122 2609 4122 1747 
Q 4122 884 3614 396 
Q 3106 -91 2203 -91 
Q 1297 -91 786 396 
Q 275 884 275 1747 
Q 275 2609 786 3096 
Q 1297 3584 2203 3584 
z
" transform="scale(0.015625)"/>
      <path id="DejaVuSans-Bold-6e" d="M 4056 2131 
L 4056 0 
L 2931 0 
L 2931 347 
L 2931 1631 
Q 2931 2084 2911 2256 
Q 2891 2428 2841 2509 
Q 2775 2619 2662 2680 
Q 2550 2741 2406 2741 
Q 2056 2741 1856 2470 
Q 1656 2200 1656 1722 
L 1656 0 
L 538 0 
L 538 3500 
L 1656 3500 
L 1656 2988 
Q 1909 3294 2193 3439 
Q 2478 3584 2822 3584 
Q 3428 3584 3742 3212 
Q 4056 2841 4056 2131 
z
" transform="scale(0.015625)"/>
      <path id="DejaVuSans-Bold-66" d="M 2841 4863 
L 2841 4128 
L 2222 4128 
Q 1984 4128 1890 4042 
Q 1797 3956 1797 3744 
L 1797 3500 
L 2753 3500 
L 2753 2700 
L 1797 2700 
L 1797 0 
L 678 0 
L 678 2700 
L 122 2700 
L 122 3500 
L 678 3500 
L 678 3744 
Q 678 4316 997 4589 
Q 1316 4863 1984 4863 
L 2841 4863 
z
" transform="scale(0.015625)"/>
      <path id="DejaVuSans-Bold-6c" d="M 538 4863 
L 1656 4863 
L 1656 0 
L 538 0 
L 538 4863 
z
" transform="scale(0.015625)"/>
      <path id="DejaVuSans-Bold-79" d="M 78 3500 
L 1197 3500 
L 2138 1125 
L 2938 3500 
L 4056 3500 
L 2584 -331 
Q 2363 -916 2067 -1148 
Q 1772 -1381 1288 -1381 
L 641 -1381 
L 641 -647 
L 991 -647 
Q 1275 -647 1404 -556 
Q 1534 -466 1606 -231 
L 1638 -134 
L 78 3500 
z
" transform="scale(0.015625)"/>
      <path id="DejaVuSans-Bold-20" transform="scale(0.015625)"/>
      <path id="DejaVuSans-Bold-6a" d="M 538 3500 
L 1656 3500 
L 1656 63 
Q 1656 -641 1318 -1011 
Q 981 -1381 341 -1381 
L -213 -1381 
L -213 -647 
L -19 -647 
Q 300 -647 419 -503 
Q 538 -359 538 63 
L 538 3500 
z
M 538 4863 
L 1656 4863 
L 1656 3950 
L 538 3950 
L 538 4863 
z
" transform="scale(0.015625)"/>
      <path id="DejaVuSans-Bold-69" d="M 538 3500 
L 1656 3500 
L 1656 0 
L 538 0 
L 538 3500 
z
M 538 4863 
L 1656 4863 
L 1656 3950 
L 538 3950 
L 538 4863 
z
" transform="scale(0.015625)"/>
      <path id="DejaVuSans-Bold-2014" d="M 344 2156 
L 6056 2156 
L 6056 1350 
L 344 1350 
L 344 2156 
z
" transform="scale(0.015625)"/>
      <path id="DejaVuSans-Bold-50" d="M 588 4666 
L 2584 4666 
Q 3475 4666 3951 4270 
Q 4428 3875 4428 3144 
Q 4428 2409 3951 2014 
Q 3475 1619 2584 1619 
L 1791 1619 
L 1791 0 
L 588 0 
L 588 4666 
z
M 1791 3794 
L 1791 2491 
L 2456 2491 
Q 2806 2491 2997 2661 
Q 3188 2831 3188 3144 
Q 3188 3456 2997 3625 
Q 2806 3794 2456 3794 
L 1791 3794 
z
" transform="scale(0.015625)"/>
      <path id="DejaVuSans-Bold-59" d="M -63 4666 
L 1253 4666 
L 2316 3003 
L 3378 4666 
L 4697 4666 
L 2919 1966 
L 2919 0 
L 1716 0 
L 1716 1966 
L -63 4666 
z
" transform="scale(0.015625)"/>
      <path id="DejaVuSans-Bold-4c" d="M 588 4666 
L 1791 4666 
L 1791 909 
L 3903 909 
L 3903 0 
L 588 0 
L 588 4666 
z
" transform="scale(0.015625)"/>
      <path id="DejaVuSans-Bold-34" d="M 2356 3675 
L 1038 1722 
L 2356 1722 
L 2356 3675 
z
M 2156 4666 
L 3494 4666 
L 3494 1722 
L 4159 1722 
L 4159 850 
L 3494 850 
L 3494 0 
L 2356 0 
L 2356 850 
L 288 850 
L 288 1881 
L 2156 4666 
z
" transform="scale(0.015625)"/>
      <path id="DejaVuSans-Bold-48" d="M 588 4666 
L 1791 4666 
L 1791 2888 
L 3566 2888 
L 3566 4666 
L 4769 4666 
L 4769 0 
L 3566 0 
L 3566 1978 
L 1791 1978 
L 1791 0 
L 588 0 
L 588 4666 
z
" transform="scale(0.015625)"/>
     </defs>
     <use xlink:href="#DejaVuSans-Bold-44"/>
     <use xlink:href="#DejaVuSans-Bold-72" transform="translate(83.007812 0)"/>
     <use xlink:href="#DejaVuSans-Bold-61" transform="translate(132.324219 0)"/>
     <use xlink:href="#DejaVuSans-Bold-67" transform="translate(199.804688 0)"/>
     <use xlink:href="#DejaVuSans-Bold-6f" transform="translate(271.386719 0)"/>
     <use xlink:href="#DejaVuSans-Bold-6e" transform="translate(340.087891 0)"/>
     <use xlink:href="#DejaVuSans-Bold-66" transform="translate(411.279297 0)"/>
     <use xlink:href="#DejaVuSans-Bold-6c" transform="translate(454.785156 0)"/>
     <use xlink:href="#DejaVuSans-Bold-79" transform="translate(489.0625 0)"/>
     <use xlink:href="#DejaVuSans-Bold-20" transform="translate(554.248047 0)"/>
     <use xlink:href="#DejaVuSans-Bold-44" transform="translate(589.0625 0)"/>
     <use xlink:href="#DejaVuSans-Bold-6f" transform="translate(672.070312 0)"/>
     <use xlink:href="#DejaVuSans-Bold-6a" transform="translate(740.771484 0)"/>
     <use xlink:href="#DejaVuSans-Bold-69" transform="translate(775.048828 0)"/>
     <use xlink:href="#DejaVuSans-Bold-20" transform="translate(809.326172 0)"/>
     <use xlink:href="#DejaVuSans-Bold-2014" transform="translate(844.140625 0)"/>
     <use xlink:href="#DejaVuSans-Bold-20" transform="translate(944.140625 0)"/>
     <use xlink:href="#DejaVuSans-Bold-50" transform="translate(978.955078 0)"/>
     <use xlink:href="#DejaVuSans-Bold-59" transform="translate(1052.246094 0)"/>
     <use xlink:href="#DejaVuSans-Bold-50" transform="translate(1124.658203 0)"/>
     <use xlink:href="#DejaVuSans-Bold-4c" transform="translate(1197.949219 0)"/>
     <use xlink:href="#DejaVuSans-Bold-20" transform="translate(1261.669922 0)"/>
     <use xlink:href="#DejaVuSans-Bold-34" transform="translate(1296.484375 0)"/>
     <use xlink:href="#DejaVuSans-Bold-48" transform="translate(1366.064453 0)"/>
    </g>
   </g>
  </g>
  <g id="axes_2">
   <g id="patch_35">
    <path d="M 29.428438 246.558438 
L 475.828437 246.558438 
L 475.828437 192.470633 
L 29.428438 192.470633 
z
" style="fill: #0a0f1a"/>
   </g>
   <g id="patch_36">
    <path d="M 49.719347 246.558438 
L 59.284085 246.558438 
L 59.284085 206.928727 
L 49.719347 206.928727 
z
" clip-path="url(#pda0b3c3f51)" style="fill: #22c55e; fill-opacity: 0.533333"/>
   </g>
   <g id="patch_37">
    <path d="M 63.383258 246.558438 
L 72.947997 246.558438 
L 72.947997 230.572879 
L 63.383258 230.572879 
z
" clip-path="url(#pda0b3c3f51)" style="fill: #ef4444; fill-opacity: 0.533333"/>
   </g>
   <g id="patch_38">
    <path d="M 77.04717 246.558438 
L 86.611909 246.558438 
L 86.611909 203.036076 
L 77.04717 203.036076 
z
" clip-path="url(#pda0b3c3f51)" style="fill: #ef4444; fill-opacity: 0.533333"/>
   </g>
   <g id="patch_39">
    <path d="M 90.711082 246.558438 
L 100.27582 246.558438 
L 100.27582 229.183539 
L 90.711082 229.183539 
z
" clip-path="url(#pda0b3c3f51)" style="fill: #ef4444; fill-opacity: 0.533333"/>
   </g>
   <g id="patch_40">
    <path d="M 104.374994 246.558438 
L 113.939732 246.558438 
L 113.939732 228.764605 
L 104.374994 228.764605 
z
" clip-path="url(#pda0b3c3f51)" style="fill: #ef4444; fill-opacity: 0.533333"/>
   </g>
   <g id="patch_41">
    <path d="M 118.038906 246.558438 
L 127.603644 246.558438 
L 127.603644 225.602347 
L 118.038906 225.602347 
z
" clip-path="url(#pda0b3c3f51)" style="fill: #22c55e; fill-opacity: 0.533333"/>
   </g>
   <g id="patch_42">
    <path d="M 131.702818 246.558438 
L 141.267556 246.558438 
L 141.267556 206.214395 
L 131.702818 206.214395 
z
" clip-path="url(#pda0b3c3f51)" style="fill: #ef4444; fill-opacity: 0.533333"/>
   </g>
   <g id="patch_43">
    <path d="M 145.36673 246.558438 
L 154.931468 246.558438 
L 154.931468 220.544515 
L 145.36673 220.544515 
z
" clip-path="url(#pda0b3c3f51)" style="fill: #22c55e; fill-opacity: 0.533333"/>
   </g>
   <g id="patch_44">
    <path d="M 159.030641 246.558438 
L 168.59538 246.558438 
L 168.59538 209.779205 
L 159.030641 209.779205 
z
" clip-path="url(#pda0b3c3f51)" style="fill: #ef4444; fill-opacity: 0.533333"/>
   </g>
   <g id="patch_45">
    <path d="M 172.694553 246.558438 
L 182.259291 246.558438 
L 182.259291 206.035969 
L 172.694553 206.035969 
z
" clip-path="url(#pda0b3c3f51)" style="fill: #ef4444; fill-opacity: 0.533333"/>
   </g>
   <g id="patch_46">
    <path d="M 186.358465 246.558438 
L 195.923203 246.558438 
L 195.923203 200.159543 
L 186.358465 200.159543 
z
" clip-path="url(#pda0b3c3f51)" style="fill: #ef4444; fill-opacity: 0.533333"/>
   </g>
   <g id="patch_47">
    <path d="M 200.022377 246.558438 
L 209.587115 246.558438 
L 209.587115 209.681011 
L 200.022377 209.681011 
z
" clip-path="url(#pda0b3c3f51)" style="fill: #22c55e; fill-opacity: 0.533333"/>
   </g>
   <g id="patch_48">
    <path d="M 213.686289 246.558438 
L 223.251027 246.558438 
L 223.251027 195.046242 
L 213.686289 195.046242 
z
" clip-path="url(#pda0b3c3f51)" style="fill: #ef4444; fill-opacity: 0.533333"/>
   </g>
   <g id="patch_49">
    <path d="M 227.350201 246.558438 
L 236.914939 246.558438 
L 236.914939 225.963405 
L 227.350201 225.963405 
z
" clip-path="url(#pda0b3c3f51)" style="fill: #ef4444; fill-opacity: 0.533333"/>
   </g>
   <g id="patch_50">
    <path d="M 241.014112 246.558438 
L 250.578851 246.558438 
L 250.578851 210.511076 
L 241.014112 210.511076 
z
" clip-path="url(#pda0b3c3f51)" style="fill: #22c55e; fill-opacity: 0.533333"/>
   </g>
   <g id="patch_51">
    <path d="M 254.678024 246.558438 
L 264.242763 246.558438 
L 264.242763 216.368651 
L 254.678024 216.368651 
z
" clip-path="url(#pda0b3c3f51)" style="fill: #22c55e; fill-opacity: 0.533333"/>
   </g>
   <g id="patch_52">
    <path d="M 268.341936 246.558438 
L 277.906674 246.558438 
L 277.906674 214.135004 
L 268.341936 214.135004 
z
" clip-path="url(#pda0b3c3f51)" style="fill: #22c55e; fill-opacity: 0.533333"/>
   </g>
   <g id="patch_53">
    <path d="M 282.005848 246.558438 
L 291.570586 246.558438 
L 291.570586 195.12296 
L 282.005848 195.12296 
z
" clip-path="url(#pda0b3c3f51)" style="fill: #22c55e; fill-opacity: 0.533333"/>
   </g>
   <g id="patch_54">
    <path d="M 295.66976 246.558438 
L 305.234498 246.558438 
L 305.234498 219.900275 
L 295.66976 219.900275 
z
" clip-path="url(#pda0b3c3f51)" style="fill: #ef4444; fill-opacity: 0.533333"/>
   </g>
   <g id="patch_55">
    <path d="M 309.333672 246.558438 
L 318.89841 246.558438 
L 318.89841 224.735303 
L 309.333672 224.735303 
z
" clip-path="url(#pda0b3c3f51)" style="fill: #ef4444; fill-opacity: 0.533333"/>
   </g>
   <g id="patch_56">
    <path d="M 322.997584 246.558438 
L 332.562322 246.558438 
L 332.562322 209.778058 
L 322.997584 209.778058 
z
" clip-path="url(#pda0b3c3f51)" style="fill: #22c55e; fill-opacity: 0.533333"/>
   </g>
   <g id="patch_57">
    <path d="M 336.661495 246.558438 
L 346.226234 246.558438 
L 346.226234 225.855299 
L 336.661495 225.855299 
z
" clip-path="url(#pda0b3c3f51)" style="fill: #22c55e; fill-opacity: 0.533333"/>
   </g>
   <g id="patch_58">
    <path d="M 350.325407 246.558438 
L 359.890145 246.558438 
L 359.890145 223.881126 
L 350.325407 223.881126 
z
" clip-path="url(#pda0b3c3f51)" style="fill: #22c55e; fill-opacity: 0.533333"/>
   </g>
   <g id="patch_59">
    <path d="M 363.989319 246.558438 
L 373.554057 246.558438 
L 373.554057 229.194463 
L 363.989319 229.194463 
z
" clip-path="url(#pda0b3c3f51)" style="fill: #ef4444; fill-opacity: 0.533333"/>
   </g>
   <g id="patch_60">
    <path d="M 377.653231 246.558438 
L 387.217969 246.558438 
L 387.217969 202.285529 
L 377.653231 202.285529 
z
" clip-path="url(#pda0b3c3f51)" style="fill: #22c55e; fill-opacity: 0.533333"/>
   </g>
   <g id="patch_61">
    <path d="M 391.317143 246.558438 
L 400.881881 246.558438 
L 400.881881 204.1307 
L 391.317143 204.1307 
z
" clip-path="url(#pda0b3c3f51)" style="fill: #22c55e; fill-opacity: 0.533333"/>
   </g>
   <g id="patch_62">
    <path d="M 404.981055 246.558438 
L 414.545793 246.558438 
L 414.545793 234.375728 
L 404.981055 234.375728 
z
" clip-path="url(#pda0b3c3f51)" style="fill: #ef4444; fill-opacity: 0.533333"/>
   </g>
   <g id="patch_63">
    <path d="M 418.644966 246.558438 
L 428.209705 246.558438 
L 428.209705 221.454977 
L 418.644966 221.454977 
z
" clip-path="url(#pda0b3c3f51)" style="fill: #ef4444; fill-opacity: 0.533333"/>
   </g>
   <g id="patch_64">
    <path d="M 432.308878 246.558438 
L 441.873617 246.558438 
L 441.873617 197.975495 
L 432.308878 197.975495 
z
" clip-path="url(#pda0b3c3f51)" style="fill: #22c55e; fill-opacity: 0.533333"/>
   </g>
   <g id="patch_65">
    <path d="M 445.97279 246.558438 
L 455.537528 246.558438 
L 455.537528 204.011815 
L 445.97279 204.011815 
z
" clip-path="url(#pda0b3c3f51)" style="fill: #22c55e; fill-opacity: 0.533333"/>
   </g>
   <g id="matplotlib.axis_3">
    <g id="xtick_8">
     <g id="line2d_63">
      <path d="M 54.501716 246.558438 
L 54.501716 192.470633 
" clip-path="url(#pda0b3c3f51)" style="fill: none; stroke: #374151; stroke-opacity: 0.1; stroke-width: 0.8; stroke-linecap: square"/>
     </g>
     <g id="line2d_64">
      <g>
       <use xlink:href="#m8e629ac671" x="54.501716" y="246.558438" style="fill: #4b5563; stroke: #4b5563; stroke-width: 0.8"/>
      </g>
     </g>
     <g id="text_11">
      <!-- 0 -->
      <g style="fill: #4b5563" transform="translate(52.274841 258.877344) scale(0.07 -0.07)">
       <use xlink:href="#DejaVuSans-30"/>
      </g>
     </g>
    </g>
    <g id="xtick_9">
     <g id="line2d_65">
      <path d="M 122.821275 246.558438 
L 122.821275 192.470633 
" clip-path="url(#pda0b3c3f51)" style="fill: none; stroke: #374151; stroke-opacity: 0.1; stroke-width: 0.8; stroke-linecap: square"/>
     </g>
     <g id="line2d_66">
      <g>
       <use xlink:href="#m8e629ac671" x="122.821275" y="246.558438" style="fill: #4b5563; stroke: #4b5563; stroke-width: 0.8"/>
      </g>
     </g>
     <g id="text_12">
      <!-- 5 -->
      <g style="fill: #4b5563" transform="translate(120.5944 258.877344) scale(0.07 -0.07)">
       <defs>
        <path id="DejaVuSans-35" d="M 691 4666 
L 3169 4666 
L 3169 4134 
L 1269 4134 
L 1269 2991 
Q 1406 3038 1543 3061 
Q 1681 3084 1819 3084 
Q 2600 3084 3056 2656 
Q 3513 2228 3513 1497 
Q 3513 744 3044 326 
Q 2575 -91 1722 -91 
Q 1428 -91 1123 -41 
Q 819 9 494 109 
L 494 744 
Q 775 591 1075 516 
Q 1375 441 1709 441 
Q 2250 441 2565 725 
Q 2881 1009 2881 1497 
Q 2881 1984 2565 2268 
Q 2250 2553 1709 2553 
Q 1456 2553 1204 2497 
Q 953 2441 691 2322 
L 691 4666 
z
" transform="scale(0.015625)"/>
       </defs>
       <use xlink:href="#DejaVuSans-35"/>
      </g>
     </g>
    </g>
    <g id="xtick_10">
     <g id="line2d_67">
      <path d="M 191.140834 246.558438 
L 191.140834 192.470633 
" clip-path="url(#pda0b3c3f51)" style="fill: none; stroke: #374151; stroke-opacity: 0.1; stroke-width: 0.8; stroke-linecap: square"/>
     </g>
     <g id="line2d_68">
      <g>
       <use xlink:href="#m8e629ac671" x="191.140834" y="246.558438" style="fill: #4b5563; stroke: #4b5563; stroke-width: 0.8"/>
      </g>
     </g>
     <g id="text_13">
      <!-- 10 -->
      <g style="fill: #4b5563" transform="translate(186.687084 258.877344) scale(0.07 -0.07)">
       <use xlink:href="#DejaVuSans-31"/>
       <use xlink:href="#DejaVuSans-30" transform="translate(63.623047 0)"/>
      </g>
     </g>
    </g>
    <g id="xtick_11">
     <g id="line2d_69">
      <path d="M 259.460393 246.558438 
L 259.460393 192.470633 
" clip-path="url(#pda0b3c3f51)" style="fill: none; stroke: #374151; stroke-opacity: 0.1; stroke-width: 0.8; stroke-linecap: square"/>
     </g>
     <g id="line2d_70">
      <g>
       <use xlink:href="#m8e629ac671" x="259.460393" y="246.558438" style="fill: #4b5563; stroke: #4b5563; stroke-width: 0.8"/>
      </g>
     </g>
     <g id="text_14">
      <!-- 15 -->
      <g style="fill: #4b5563" transform="translate(255.006643 258.877344) scale(0.07 -0.07)">
       <use xlink:href="#DejaVuSans-31"/>
       <use xlink:href="#DejaVuSans-35" transform="translate(63.623047 0)"/>
      </g>
     </g>
    </g>
    <g id="xtick_12">
     <g id="line2d_71">
      <path d="M 327.779953 246.558438 
L 327.779953 192.470633 
" clip-path="url(#pda0b3c3f51)" style="fill: none; stroke: #374151; stroke-opacity: 0.1; stroke-width: 0.8; stroke-linecap: square"/>
     </g>
     <g id="line2d_72">
      <g>
       <use xlink:href="#m8e629ac671" x="327.779953" y="246.558438" style="fill: #4b5563; stroke: #4b5563; stroke-width: 0.8"/>
      </g>
     </g>
     <g id="text_15">
      <!-- 20 -->
      <g style="fill: #4b5563" transform="translate(323.326203 258.877344) scale(0.07 -0.07)">
       <use xlink:href="#DejaVuSans-32"/>
       <use xlink:href="#DejaVuSans-30" transform="translate(63.623047 0)"/>
      </g>
     </g>
    </g>
    <g id="xtick_13">
     <g id="line2d_73">
      <path d="M 396.099512 246.558438 
L 396.099512 192.470633 
" clip-path="url(#pda0b3c3f51)" style="fill: none; stroke: #374151; stroke-opacity: 0.1; stroke-width: 0.8; stroke-linecap: square"/>
     </g>
     <g id="line2d_74">
      <g>
       <use xlink:href="#m8e629ac671" x="396.099512" y="246.558438" style="fill: #4b5563; stroke: #4b5563; stroke-width: 0.8"/>
      </g>
     </g>
     <g id="text_16">
      <!-- 25 -->
      <g style="fill: #4b5563" transform="translate(391.645762 258.877344) scale(0.07 -0.07)">
       <use xlink:href="#DejaVuSans-32"/>
       <use xlink:href="#DejaVuSans-35" transform="translate(63.623047 0)"/>
      </g>
     </g>
    </g>
    <g id="xtick_14">
     <g id="line2d_75">
      <path d="M 464.419071 246.558438 
L 464.419071 192.470633 
" clip-path="url(#pda0b3c3f51)" style="fill: none; stroke: #374151; stroke-opacity: 0.1; stroke-width: 0.8; stroke-linecap: square"/>
     </g>
     <g id="line2d_76">
      <g>
       <use xlink:href="#m8e629ac671" x="464.419071" y="246.558438" style="fill: #4b5563; stroke: #4b5563; stroke-width: 0.8"/>
      </g>
     </g>
     <g id="text_17">
      <!-- 30 -->
      <g style="fill: #4b5563" transform="translate(459.965321 258.877344) scale(0.07 -0.07)">
       <defs>
        <path id="DejaVuSans-33" d="M 2597 2516 
Q 3050 2419 3304 2112 
Q 3559 1806 3559 1356 
Q 3559 666 3084 287 
Q 2609 -91 1734 -91 
Q 1441 -91 1130 -33 
Q 819 25 488 141 
L 488 750 
Q 750 597 1062 519 
Q 1375 441 1716 441 
Q 2309 441 2620 675 
Q 2931 909 2931 1356 
Q 2931 1769 2642 2001 
Q 2353 2234 1838 2234 
L 1294 2234 
L 1294 2753 
L 1863 2753 
Q 2328 2753 2575 2939 
Q 2822 3125 2822 3475 
Q 2822 3834 2567 4026 
Q 2313 4219 1838 4219 
Q 1578 4219 1281 4162 
Q 984 4106 628 3988 
L 628 4550 
Q 988 4650 1302 4700 
Q 1616 4750 1894 4750 
Q 2613 4750 3031 4423 
Q 3450 4097 3450 3541 
Q 3450 3153 3228 2886 
Q 3006 2619 2597 2516 
z
" transform="scale(0.015625)"/>
       </defs>
       <use xlink:href="#DejaVuSans-33"/>
       <use xlink:href="#DejaVuSans-30" transform="translate(63.623047 0)"/>
      </g>
     </g>
    </g>
   </g>
   <g id="matplotlib.axis_4">
    <g id="ytick_10">
     <g id="line2d_77">
      <path d="M 29.428438 246.558438 
L 475.828437 246.558438 
" clip-path="url(#pda0b3c3f51)" style="fill: none; stroke: #374151; stroke-opacity: 0.1; stroke-width: 0.8; stroke-linecap: square"/>
     </g>
     <g id="line2d_78">
      <g>
       <use xlink:href="#m68466cee6c" x="29.428438" y="246.558438" style="fill: #4b5563; stroke: #4b5563; stroke-width: 0.8"/>
      </g>
     </g>
     <g id="text_18">
      <!-- 0 -->
      <g style="fill: #4b5563" transform="translate(17.974688 249.217891) scale(0.07 -0.07)">
       <use xlink:href="#DejaVuSans-30"/>
      </g>
     </g>
    </g>
    <g id="ytick_11">
     <g id="line2d_79">
      <path d="M 29.428438 225.888196 
L 475.828437 225.888196 
" clip-path="url(#pda0b3c3f51)" style="fill: none; stroke: #374151; stroke-opacity: 0.1; stroke-width: 0.8; stroke-linecap: square"/>
     </g>
     <g id="line2d_80">
      <g>
       <use xlink:href="#m68466cee6c" x="29.428438" y="225.888196" style="fill: #4b5563; stroke: #4b5563; stroke-width: 0.8"/>
      </g>
     </g>
     <g id="text_19">
      <!-- 2 -->
      <g style="fill: #4b5563" transform="translate(17.974688 228.547649) scale(0.07 -0.07)">
       <use xlink:href="#DejaVuSans-32"/>
      </g>
     </g>
    </g>
    <g id="ytick_12">
     <g id="line2d_81">
      <path d="M 29.428438 205.217955 
L 475.828437 205.217955 
" clip-path="url(#pda0b3c3f51)" style="fill: none; stroke: #374151; stroke-opacity: 0.1; stroke-width: 0.8; stroke-linecap: square"/>
     </g>
     <g id="line2d_82">
      <g>
       <use xlink:href="#m68466cee6c" x="29.428438" y="205.217955" style="fill: #4b5563; stroke: #4b5563; stroke-width: 0.8"/>
      </g>
     </g>
     <g id="text_20">
      <!-- 4 -->
      <g style="fill: #4b5563" transform="translate(17.974688 207.877408) scale(0.07 -0.07)">
       <use xlink:href="#DejaVuSans-34"/>
      </g>
     </g>
    </g>
    <g id="text_21">
     <!-- Vol -->
     <g style="fill: #4b5563" transform="translate(12.518906 224.75141) rotate(-90) scale(0.07 -0.07)">
      <defs>
       <path id="DejaVuSans-56" d="M 1831 0 
L 50 4666 
L 709 4666 
L 2188 738 
L 3669 4666 
L 4325 4666 
L 2547 0 
L 1831 0 
z
" transform="scale(0.015625)"/>
       <path id="DejaVuSans-6f" d="M 1959 3097 
Q 1497 3097 1228 2736 
Q 959 2375 959 1747 
Q 959 1119 1226 758 
Q 1494 397 1959 397 
Q 2419 397 2687 759 
Q 2956 1122 2956 1747 
Q 2956 2369 2687 2733 
Q 2419 3097 1959 3097 
z
M 1959 3584 
Q 2709 3584 3137 3096 
Q 3566 2609 3566 1747 
Q 3566 888 3137 398 
Q 2709 -91 1959 -91 
Q 1206 -91 779 398 
Q 353 888 353 1747 
Q 353 2609 779 3096 
Q 1206 3584 1959 3584 
z
" transform="scale(0.015625)"/>
       <path id="DejaVuSans-6c" d="M 603 4863 
L 1178 4863 
L 1178 0 
L 603 0 
L 603 4863 
z
" transform="scale(0.015625)"/>
      </defs>
      <use xlink:href="#DejaVuSans-56"/>
      <use xlink:href="#DejaVuSans-6f" transform="translate(60.658203 0)"/>
      <use xlink:href="#DejaVuSans-6c" transform="translate(121.839844 0)"/>
     </g>
    </g>
    <g id="text_22">
     <!-- 1e6 -->
     <g style="fill: #4b5563" transform="translate(29.428438 189.470633) scale(0.1 -0.1)">
      <defs>
       <path id="DejaVuSans-65" d="M 3597 1894 
L 3597 1613 
L 953 1613 
Q 991 1019 1311 708 
Q 1631 397 2203 397 
Q 2534 397 2845 478 
Q 3156 559 3463 722 
L 3463 178 
Q 3153 47 2828 -22 
Q 2503 -91 2169 -91 
Q 1331 -91 842 396 
Q 353 884 353 1716 
Q 353 2575 817 3079 
Q 1281 3584 2069 3584 
Q 2775 3584 3186 3129 
Q 3597 2675 3597 1894 
z
M 3022 2063 
Q 3016 2534 2758 2815 
Q 2500 3097 2075 3097 
Q 1594 3097 1305 2825 
Q 1016 2553 972 2059 
L 3022 2063 
z
" transform="scale(0.015625)"/>
      </defs>
      <use xlink:href="#DejaVuSans-31"/>
      <use xlink:href="#DejaVuSans-65" transform="translate(63.623047 0)"/>
      <use xlink:href="#DejaVuSans-36" transform="translate(125.146484 0)"/>
     </g>
    </g>
   </g>
   <g id="patch_66">
    <path d="M 29.428438 246.558438 
L 29.428438 192.470633 
" style="fill: none; stroke: #1f2937; stroke-width: 0.8; stroke-linejoin: miter; stroke-linecap: square"/>
   </g>
   <g id="patch_67">
    <path d="M 29.428438 246.558438 
L 475.828438 246.558438 
" style="fill: none; stroke: #1f2937; stroke-width: 0.8; stroke-linejoin: miter; stroke-linecap: square"/>
   </g>
  </g>
 </g>
 <defs>
  <clipPath id="p5e0ab1a3ff">
   <rect x="29.428438" y="24.798438" width="446.4" height="162.263415"/>
  </clipPath>
  <clipPath id="pda0b3c3f51">
   <rect x="29.428438" y="192.470633" width="446.4" height="54.087805"/>
  </clipPath>
 </defs>
</svg>
