<?xml version="1.0" encoding="utf-8" standalone="no"?>
<!DOCTYPE svg PUBLIC "-//W3C//DTD SVG 1.1//EN"
  "http://www.w3.org/Graphics/SVG/1.1/DTD/svg11.dtd">
<svg xmlns:xlink="http://www.w3.org/1999/xlink" width="487.839687pt" height="267.533125pt" viewBox="0 0 487.839687 267.533125" xmlns="http://www.w3.org/2000/svg" version="1.1">
 <metadata>
  <rdf:RDF xmlns:dc="http://purl.org/dc/elements/1.1/" xmlns:cc="http://creativecommons.org/ns#" xmlns:rdf="http://www.w3.org/1999/02/22-rdf-syntax-ns#">
   <cc:Work>
    <dc:type rdf:resource="http://purl.org/dc/dcmitype/StillImage"/>
    <dc:date>2026-02-16T00:23:17.199288</dc:date>
    <dc:format>image/svg+xml</dc:format>
    <dc:creator>
     <cc:Agent>
      <dc:title>Matplotlib v3.10.8, https://matplotlib.org/</dc:title>
     </cc:Agent>
    </dc:creator>
   </cc:Work>
  </rdf:RDF>
 </metadata>
 <defs>
  <style type="text/css">*{stroke-linejoin: round; stroke-linecap: butt}</style>
 </defs>
 <g id="figure_1">
  <g id="patch_1">
   <path d="M 0 267.533125 
L 487.839687 267.533125 
L 487.839687 0 
L 0 0 
z
" style="fill: #0a0f1a"/>
  </g>
  <g id="axes_1">
   <g id="patch_2">
    <path d="M 34.239688 187.061852 
L 480.639687 187.061852 
L 480.639687 24.798438 
L 34.239688 24.798438 
z
" style="fill: #0a0f1a"/>
   </g>
   <g id="patch_3">
    <path d="M 43.599688 155.889012 
L 53.679688 155.889012 
Q 53.967687 155.889012 53.967687 155.720078 
L 53.967687 139.075577 
Q 53.967687 138.906642 53.679688 138.906642 
L 43.599688 138.906642 
Q 43.311688 138.906642 43.311688 139.075577 
L 43.311688 155.720078 
Q 43.311688 155.889012 43.599688 155.889012 
z
" clip-path="url(#p71f4c8cd4b)" style="fill: #22c55e; stroke: #22c55e; stroke-linejoin: miter"/>
   </g>
   <g id="patch_4">
    <path d="M 57.999688 146.779441 
L 68.079688 146.779441 
Q 68.367688 146.779441 68.367688 146.610507 
L 68.367688 135.706801 
Q 68.367688 135.537866 68.079688 135.537866 
L 57.999688 135.537866 
Q 57.711687 135.537866 57.711687 135.706801 
L 57.711687 146.610507 
Q 57.711687 146.779441 57.999688 146.779441 
z
" clip-path="url(#p71f4c8cd4b)" style="fill: #22c55e; stroke: #22c55e; stroke-linejoin: miter"/>
   </g>
   <g id="patch_5">
    <path d="M 72.399687 138.137886 
L 82.479687 138.137886 
Q 82.767687 138.137886 82.767687 137.968952 
L 82.767687 124.471023 
Q 82.767687 124.302088 82.479687 124.302088 
L 72.399687 124.302088 
Q 72.111688 124.302088 72.111688 124.471023 
L 72.111688 137.968952 
Q 72.111688 138.137886 72.399687 138.137886 
z
" clip-path="url(#p71f4c8cd4b)" style="fill: #22c55e; stroke: #22c55e; stroke-linejoin: miter"/>
   </g>
   <g id="patch_6">
    <path d="M 86.799688 109.801945 
L 96.879687 109.801945 
Q 97.167687 109.801945 97.167687 109.63301 
L 97.167687 103.185855 
Q 97.167687 103.016921 96.879687 103.016921 
L 86.799688 103.016921 
Q 86.511687 103.016921 86.511687 103.185855 
L 86.511687 109.63301 
Q 86.511687 109.801945 86.799688 109.801945 
z
" clip-path="url(#p71f4c8cd4b)" style="fill: #22c55e; stroke: #22c55e; stroke-linejoin: miter"/>
   </g>
   <g id="patch_7">
    <path d="M 101.199687 97.575083 
L 111.279687 97.575083 
Q 111.567688 97.575083 111.567688 97.406148 
L 111.567688 89.639683 
Q 111.567688 89.470748 111.279687 89.470748 
L 101.199687 89.470748 
Q 100.911687 89.470748 100.911687 89.639683 
L 100.911687 97.406148 
Q 100.911687 97.575083 101.199687 97.575083 
z
" clip-path="url(#p71f4c8cd4b)" style="fill: #ef4444; stroke: #ef4444; stroke-linejoin: miter"/>
   </g>
   <g id="patch_8">
    <path d="M 115.599687 111.648748 
L 125.679688 111.648748 
Q 125.967688 111.648748 125.967688 111.479813 
L 125.967688 104.384548 
Q 125.967688 104.215613 125.679688 104.215613 
L 115.599687 104.215613 
Q 115.311688 104.215613 115.311688 104.384548 
L 115.311688 111.479813 
Q 115.311688 111.648748 115.599687 111.648748 
z
" clip-path="url(#p71f4c8cd4b)" style="fill: #ef4444; stroke: #ef4444; stroke-linejoin: miter"/>
   </g>
   <g id="patch_9">
    <path d="M 129.999687 103.222703 
L 140.079688 103.222703 
Q 140.367688 103.222703 140.367688 103.053769 
L 140.367688 88.450086 
Q 140.367688 88.281152 140.079688 88.281152 
L 129.999687 88.281152 
Q 129.711688 88.281152 129.711688 88.450086 
L 129.711688 103.053769 
Q 129.711688 103.222703 129.999687 103.222703 
z
" clip-path="url(#p71f4c8cd4b)" style="fill: #22c55e; stroke: #22c55e; stroke-linejoin: miter"/>
   </g>
   <g id="patch_10">
    <path d="M 144.399687 111.665144 
L 154.479688 111.665144 
Q 154.767687 111.665144 154.767687 111.496209 
L 154.767687 103.253015 
Q 154.767687 103.08408 154.479688 103.08408 
L 144.399687 103.08408 
Q 144.111688 103.08408 144.111688 103.253015 
L 144.111688 111.496209 
Q 144.111688 111.665144 144.399687 111.665144 
z
" clip-path="url(#p71f4c8cd4b)" style="fill: #22c55e; stroke: #22c55e; stroke-linejoin: miter"/>
   </g>
   <g id="patch_11">
    <path d="M 158.799688 76.852463 
L 168.879688 76.852463 
Q 169.167687 76.852463 169.167687 76.683528 
L 169.167687 63.617659 
Q 169.167687 63.448725 168.879688 63.448725 
L 158.799688 63.448725 
Q 158.511687 63.448725 158.511687 63.617659 
L 158.511687 76.683528 
Q 158.511687 76.852463 158.799688 76.852463 
z
" clip-path="url(#p71f4c8cd4b)" style="fill: #22c55e; stroke: #22c55e; stroke-linejoin: miter"/>
   </g>
   <g id="patch_12">
    <path d="M 173.199687 76.568123 
L 183.279688 76.568123 
Q 183.567688 76.568123 183.567688 76.399188 
L 183.567688 67.261982 
Q 183.567688 67.093047 183.279688 67.093047 
L 173.199687 67.093047 
Q 172.911687 67.093047 172.911687 67.261982 
L 172.911687 76.399188 
Q 172.911687 76.568123 173.199687 76.568123 
z
" clip-path="url(#p71f4c8cd4b)" style="fill: #22c55e; stroke: #22c55e; stroke-linejoin: miter"/>
   </g>
   <g id="patch_13">
    <path d="M 187.599687 78.535843 
L 197.679688 78.535843 
Q 197.967688 78.535843 197.967688 78.366908 
L 197.967688 75.720686 
Q 197.967688 75.551751 197.679688 75.551751 
L 187.599687 75.551751 
Q 187.311688 75.551751 187.311688 75.720686 
L 187.311688 78.366908 
Q 187.311688 78.535843 187.599687 78.535843 
z
" clip-path="url(#p71f4c8cd4b)" style="fill: #22c55e; stroke: #22c55e; stroke-linejoin: miter"/>
   </g>
   <g id="patch_14">
    <path d="M 201.999687 73.155585 
L 212.079688 73.155585 
Q 212.367688 73.155585 212.367688 72.98665 
L 212.367688 60.431924 
Q 212.367688 60.26299 212.079688 60.26299 
L 201.999687 60.26299 
Q 201.711688 60.26299 201.711688 60.431924 
L 201.711688 72.98665 
Q 201.711688 73.155585 201.999687 73.155585 
z
" clip-path="url(#p71f4c8cd4b)" style="fill: #ef4444; stroke: #ef4444; stroke-linejoin: miter"/>
   </g>
   <g id="patch_15">
    <path d="M 216.399687 78.138502 
L 226.479688 78.138502 
Q 226.767687 78.138502 226.767687 77.969567 
L 226.767687 62.321242 
Q 226.767687 62.152307 226.479688 62.152307 
L 216.399687 62.152307 
Q 216.111688 62.152307 216.111688 62.321242 
L 216.111688 77.969567 
Q 216.111688 78.138502 216.399687 78.138502 
z
" clip-path="url(#p71f4c8cd4b)" style="fill: #ef4444; stroke: #ef4444; stroke-linejoin: miter"/>
   </g>
   <g id="patch_16">
    <path d="M 230.799688 64.682557 
L 240.879688 64.682557 
Q 241.167687 64.682557 241.167687 64.513622 
L 241.167687 60.807237 
Q 241.167687 60.638302 240.879688 60.638302 
L 230.799688 60.638302 
Q 230.511687 60.638302 230.511687 60.807237 
L 230.511687 64.513622 
Q 230.511687 64.682557 230.799688 64.682557 
z
" clip-path="url(#p71f4c8cd4b)" style="fill: #ef4444; stroke: #ef4444; stroke-linejoin: miter"/>
   </g>
   <g id="patch_17">
    <path d="M 245.199687 64.545672 
L 255.279687 64.545672 
Q 255.567688 64.545672 255.567688 64.376737 
L 255.567688 53.589821 
Q 255.567688 53.420886 255.279687 53.420886 
L 245.199687 53.420886 
Q 244.911687 53.420886 244.911687 53.589821 
L 244.911687 64.376737 
Q 244.911687 64.545672 245.199687 64.545672 
z
" clip-path="url(#p71f4c8cd4b)" style="fill: #22c55e; stroke: #22c55e; stroke-linejoin: miter"/>
   </g>
   <g id="patch_18">
    <path d="M 259.599687 58.989469 
L 269.679688 58.989469 
Q 269.967688 58.989469 269.967688 58.820534 
L 269.967688 47.1863 
Q 269.967688 47.017365 269.679688 47.017365 
L 259.599687 47.017365 
Q 259.311688 47.017365 259.311688 47.1863 
L 259.311688 58.820534 
Q 259.311688 58.989469 259.599687 58.989469 
z
" clip-path="url(#p71f4c8cd4b)" style="fill: #ef4444; stroke: #ef4444; stroke-linejoin: miter"/>
   </g>
   <g id="patch_19">
    <path d="M 273.999687 55.026265 
L 284.079687 55.026265 
Q 284.367687 55.026265 284.367687 54.85733 
L 284.367687 47.681974 
Q 284.367687 47.513039 284.079687 47.513039 
L 273.999687 47.513039 
Q 273.711687 47.513039 273.711687 47.681974 
L 273.711687 54.85733 
Q 273.711687 55.026265 273.999687 55.026265 
z
" clip-path="url(#p71f4c8cd4b)" style="fill: #ef4444; stroke: #ef4444; stroke-linejoin: miter"/>
   </g>
   <g id="patch_20">
    <path d="M 288.399687 43.155702 
L 298.479687 43.155702 
Q 298.767687 43.155702 298.767687 42.986767 
L 298.767687 34.409584 
Q 298.767687 34.24065 298.479687 34.24065 
L 288.399687 34.24065 
Q 288.111687 34.24065 288.111687 34.409584 
L 288.111687 42.986767 
Q 288.111687 43.155702 288.399687 43.155702 
z
" clip-path="url(#p71f4c8cd4b)" style="fill: #22c55e; stroke: #22c55e; stroke-linejoin: miter"/>
   </g>
   <g id="patch_21">
    <path d="M 302.799687 75.230819 
L 312.879687 75.230819 
Q 313.167687 75.230819 313.167687 75.061884 
L 313.167687 67.765626 
Q 313.167687 67.596691 312.879687 67.596691 
L 302.799687 67.596691 
Q 302.511687 67.596691 302.511687 67.765626 
L 302.511687 75.061884 
Q 302.511687 75.230819 302.799687 75.230819 
z
" clip-path="url(#p71f4c8cd4b)" style="fill: #ef4444; stroke: #ef4444; stroke-linejoin: miter"/>
   </g>
   <g id="patch_22">
    <path d="M 317.199687 87.742811 
L 327.279687 87.742811 
Q 327.567687 87.742811 327.567687 87.573876 
L 327.567687 71.228114 
Q 327.567687 71.059179 327.279687 71.059179 
L 317.199687 71.059179 
Q 316.911687 71.059179 316.911687 71.228114 
L 316.911687 87.573876 
Q 316.911687 87.742811 317.199687 87.742811 
z
" clip-path="url(#p71f4c8cd4b)" style="fill: #22c55e; stroke: #22c55e; stroke-linejoin: miter"/>
   </g>
   <g id="patch_23">
    <path d="M 331.599687 114.222605 
L 341.679687 114.222605 
Q 341.967687 114.222605 341.967687 114.053671 
L 341.967687 104.296499 
Q 341.967687 104.127565 341.679687 104.127565 
L 331.599687 104.127565 
Q 331.311687 104.127565 331.311687 104.296499 
L 331.311687 114.053671 
Q 331.311687 114.222605 331.599687 114.222605 
z
" clip-path="url(#p71f4c8cd4b)" style="fill: #22c55e; stroke: #22c55e; stroke-linejoin: miter"/>
   </g>
   <g id="patch_24">
    <path d="M 345.999687 118.95362 
L 356.079687 118.95362 
Q 356.367687 118.95362 356.367687 118.784685 
L 356.367687 112.900738 
Q 356.367687 112.731803 356.079687 112.731803 
L 345.999687 112.731803 
Q 345.711687 112.731803 345.711687 112.900738 
L 345.711687 118.784685 
Q 345.711687 118.95362 345.999687 118.95362 
z
" clip-path="url(#p71f4c8cd4b)" style="fill: #ef4444; stroke: #ef4444; stroke-linejoin: miter"/>
   </g>
   <g id="patch_25">
    <path d="M 360.399687 121.666417 
L 370.479687 121.666417 
Q 370.767687 121.666417 370.767687 121.497482 
L 370.767687 117.808387 
Q 370.767687 117.639452 370.479687 117.639452 
L 360.399687 117.639452 
Q 360.111687 117.639452 360.111687 117.808387 
L 360.111687 121.497482 
Q 360.111687 121.666417 360.399687 121.666417 
z
" clip-path="url(#p71f4c8cd4b)" style="fill: #22c55e; stroke: #22c55e; stroke-linejoin: miter"/>
   </g>
   <g id="patch_26">
    <path d="M 374.799687 125.308668 
L 384.879687 125.308668 
Q 385.167687 125.308668 385.167687 125.139733 
L 385.167687 118.923401 
Q 385.167687 118.754467 384.879687 118.754467 
L 374.799687 118.754467 
Q 374.511687 118.754467 374.511687 118.923401 
L 374.511687 125.139733 
Q 374.511687 125.308668 374.799687 125.308668 
z
" clip-path="url(#p71f4c8cd4b)" style="fill: #22c55e; stroke: #22c55e; stroke-linejoin: miter"/>
   </g>
   <g id="patch_27">
    <path d="M 389.199687 132.830924 
L 399.279687 132.830924 
Q 399.567687 132.830924 399.567687 132.661989 
L 399.567687 129.583378 
Q 399.567687 129.414443 399.279687 129.414443 
L 389.199687 129.414443 
Q 388.911687 129.414443 388.911687 129.583378 
L 388.911687 132.661989 
Q 388.911687 132.830924 389.199687 132.830924 
z
" clip-path="url(#p71f4c8cd4b)" style="fill: #22c55e; stroke: #22c55e; stroke-linejoin: miter"/>
   </g>
   <g id="patch_28">
    <path d="M 403.599687 138.868039 
L 413.679687 138.868039 
Q 413.967687 138.868039 413.967687 138.699104 
L 413.967687 126.660882 
Q 413.967687 126.491947 413.679687 126.491947 
L 403.599687 126.491947 
Q 403.311687 126.491947 403.311687 126.660882 
L 403.311687 138.699104 
Q 403.311687 138.868039 403.599687 138.868039 
z
" clip-path="url(#p71f4c8cd4b)" style="fill: #22c55e; stroke: #22c55e; stroke-linejoin: miter"/>
   </g>
   <g id="patch_29">
    <path d="M 417.999687 107.813431 
L 428.079687 107.813431 
Q 428.367687 107.813431 428.367687 107.644496 
L 428.367687 102.196206 
Q 428.367687 102.027271 428.079687 102.027271 
L 417.999687 102.027271 
Q 417.711687 102.027271 417.711687 102.196206 
L 417.711687 107.644496 
Q 417.711687 107.813431 417.999687 107.813431 
z
" clip-path="url(#p71f4c8cd4b)" style="fill: #ef4444; stroke: #ef4444; stroke-linejoin: miter"/>
   </g>
   <g id="patch_30">
    <path d="M 432.399687 143.562161 
L 442.479687 143.562161 
Q 442.767687 143.562161 442.767687 143.393226 
L 442.767687 128.786356 
Q 442.767687 128.617422 442.479687 128.617422 
L 432.399687 128.617422 
Q 432.111687 128.617422 432.111687 128.786356 
L 432.111687 143.393226 
Q 432.111687 143.562161 432.399687 143.562161 
z
" clip-path="url(#p71f4c8cd4b)" style="fill: #22c55e; stroke: #22c55e; stroke-linejoin: miter"/>
   </g>
   <g id="patch_31">
    <path d="M 446.799687 170.328728 
L 456.879687 170.328728 
Q 457.167687 170.328728 457.167687 170.159793 
L 457.167687 159.970841 
Q 457.167687 159.801906 456.879687 159.801906 
L 446.799687 159.801906 
Q 446.511687 159.801906 446.511687 159.970841 
L 446.511687 170.159793 
Q 446.511687 170.328728 446.799687 170.328728 
z
" clip-path="url(#p71f4c8cd4b)" style="fill: #ef4444; stroke: #ef4444; stroke-linejoin: miter"/>
   </g>
   <g id="patch_32">
    <path d="M 461.199687 149.191925 
L 471.279687 149.191925 
Q 471.567687 149.191925 471.567687 149.02299 
L 471.567687 138.849718 
Q 471.567687 138.680783 471.279687 138.680783 
L 461.199687 138.680783 
Q 460.911687 138.680783 460.911687 138.849718 
L 460.911687 149.02299 
Q 460.911687 149.191925 461.199687 149.191925 
z
" clip-path="url(#p71f4c8cd4b)" style="fill: #22c55e; stroke: #22c55e; stroke-linejoin: miter"/>
   </g>
   <g id="matplotlib.axis_1">
    <g id="xtick_1">
     <g id="line2d_1">
      <path d="M 48.639688 187.061852 
L 48.639688 24.798438 
" clip-path="url(#p71f4c8cd4b)" style="fill: none; stroke: #374151; stroke-opacity: 0.1; stroke-width: 0.8; stroke-linecap: square"/>
     </g>
     <g id="line2d_2">
      <defs>
       <path id="mb5defe85a4" d="M 0 0 
L 0 3.5 
" style="stroke: #4b5563; stroke-width: 0.8"/>
      </defs>
      <g>
       <use xlink:href="#mb5defe85a4" x="48.639688" y="187.061852" style="fill: #4b5563; stroke: #4b5563; stroke-width: 0.8"/>
      </g>
     </g>
    </g>
    <g id="xtick_2">
     <g id="line2d_3">
      <path d="M 120.639688 187.061852 
L 120.639688 24.798438 
" clip-path="url(#p71f4c8cd4b)" style="fill: none; stroke: #374151; stroke-opacity: 0.1; stroke-width: 0.8; stroke-linecap: square"/>
     </g>
     <g id="line2d_4">
      <g>
       <use xlink:href="#mb5defe85a4" x="120.639688" y="187.061852" style="fill: #4b5563; stroke: #4b5563; stroke-width: 0.8"/>
      </g>
     </g>
    </g>
    <g id="xtick_3">
     <g id="line2d_5">
      <path d="M 192.639688 187.061852 
L 192.639688 24.798438 
" clip-path="url(#p71f4c8cd4b)" style="fill: none; stroke: #374151; stroke-opacity: 0.1; stroke-width: 0.8; stroke-linecap: square"/>
     </g>
     <g id="line2d_6">
      <g>
       <use xlink:href="#mb5defe85a4" x="192.639688" y="187.061852" style="fill: #4b5563; stroke: #4b5563; stroke-width: 0.8"/>
      </g>
     </g>
    </g>
    <g id="xtick_4">
     <g id="line2d_7">
      <path d="M 264.639687 187.061852 
L 264.639687 24.798438 
" clip-path="url(#p71f4c8cd4b)" style="fill: none; stroke: #374151; stroke-opacity: 0.1; stroke-width: 0.8; stroke-linecap: square"/>
     </g>
     <g id="line2d_8">
      <g>
       <use xlink:href="#mb5defe85a4" x="264.639687" y="187.061852" style="fill: #4b5563; stroke: #4b5563; stroke-width: 0.8"/>
      </g>
     </g>
    </g>
    <g id="xtick_5">
     <g id="line2d_9">
      <path d="M 336.639687 187.061852 
L 336.639687 24.798438 
" clip-path="url(#p71f4c8cd4b)" style="fill: none; stroke: #374151; stroke-opacity: 0.1; stroke-width: 0.8; stroke-linecap: square"/>
     </g>
     <g id="line2d_10">
      <g>
       <use xlink:href="#mb5defe85a4" x="336.639687" y="187.061852" style="fill: #4b5563; stroke: #4b5563; stroke-width: 0.8"/>
      </g>
     </g>
    </g>
    <g id="xtick_6">
     <g id="line2d_11">
      <path d="M 408.639687 187.061852 
L 408.639687 24.798438 
" clip-path="url(#p71f4c8cd4b)" style="fill: none; stroke: #374151; stroke-opacity: 0.1; stroke-width: 0.8; stroke-linecap: square"/>
     </g>
     <g id="line2d_12">
      <g>
       <use xlink:href="#mb5defe85a4" x="408.639687" y="187.061852" style="fill: #4b5563; stroke: #4b5563; stroke-width: 0.8"/>
      </g>
     </g>
    </g>
    <g id="xtick_7">
     <g id="line2d_13">
      <path d="M 480.639687 187.061852 
L 480.639687 24.798438 
" clip-path="url(#p71f4c8cd4b)" style="fill: none; stroke: #374151; stroke-opacity: 0.1; stroke-width: 0.8; stroke-linecap: square"/>
     </g>
     <g id="line2d_14">
      <g>
       <use xlink:href="#mb5defe85a4" x="480.639687" y="187.061852" style="fill: #4b5563; stroke: #4b5563; stroke-width: 0.8"/>
      </g>
     </g>
    </g>
   </g>
   <g id="matplotlib.axis_2">
    <g id="ytick_1">
     <g id="line2d_15">
      <path d="M 34.239688 168.514684 
L 480.639687 168.514684 
" clip-path="url(#p71f4c8cd4b)" style="fill: none; stroke: #374151; stroke-opacity: 0.1; stroke-width: 0.8; stroke-linecap: square"/>
     </g>
     <g id="line2d_16">
      <defs>
       <path id="ma5565c8210" d="M 0 0 
L -3.5 0 
" style="stroke: #4b5563; stroke-width: 0.8"/>
      </defs>
      <g>
       <use xlink:href="#ma5565c8210" x="34.239688" y="168.514684" style="fill: #4b5563; stroke: #4b5563; stroke-width: 0.8"/>
      </g>
     </g>
     <g id="text_1">
      <!-- 97.5 -->
      <g style="fill: #4b5563" transform="translate(11.65375 171.174137) scale(0.07 -0.07)">
       <defs>
        <path id="DejaVuSans-39" d="M 703 97 
L 703 672 
Q 941 559 1184 500 
Q 1428 441 1663 441 
Q 2288 441 2617 861 
Q 2947 1281 2994 2138 
Q 2813 1869 2534 1725 
Q 2256 1581 1919 1581 
Q 1219 1581 811 2004 
Q 403 2428 403 3163 
Q 403 3881 828 4315 
Q 1253 4750 1959 4750 
Q 2769 4750 3195 4129 
Q 3622 3509 3622 2328 
Q 3622 1225 3098 567 
Q 2575 -91 1691 -91 
Q 1453 -91 1209 -44 
Q 966 3 703 97 
z
M 1959 2075 
Q 2384 2075 2632 2365 
Q 2881 2656 2881 3163 
Q 2881 3666 2632 3958 
Q 2384 4250 1959 4250 
Q 1534 4250 1286 3958 
Q 1038 3666 1038 3163 
Q 1038 2656 1286 2365 
Q 1534 2075 1959 2075 
z
" transform="scale(0.015625)"/>
        <path id="DejaVuSans-37" d="M 525 4666 
L 3525 4666 
L 3525 4397 
L 1831 0 
L 1172 0 
L 2766 4134 
L 525 4134 
L 525 4666 
z
" transform="scale(0.015625)"/>
        <path id="DejaVuSans-2e" d="M 684 794 
L 1344 794 
L 1344 0 
L 684 0 
L 684 794 
z
" transform="scale(0.015625)"/>
        <path id="DejaVuSans-35" d="M 691 4666 
L 3169 4666 
L 3169 4134 
L 1269 4134 
L 1269 2991 
Q 1406 3038 1543 3061 
Q 1681 3084 1819 3084 
Q 2600 3084 3056 2656 
Q 3513 2228 3513 1497 
Q 3513 744 3044 326 
Q 2575 -91 1722 -91 
Q 1428 -91 1123 -41 
Q 819 9 494 109 
L 494 744 
Q 775 591 1075 516 
Q 1375 441 1709 441 
Q 2250 441 2565 725 
Q 2881 1009 2881 1497 
Q 2881 1984 2565 2268 
Q 2250 2553 1709 2553 
Q 1456 2553 1204 2497 
Q 953 2441 691 2322 
L 691 4666 
z
" transform="scale(0.015625)"/>
       </defs>
       <use xlink:href="#DejaVuSans-39"/>
       <use xlink:href="#DejaVuSans-37" transform="translate(63.623047 0)"/>
       <use xlink:href="#DejaVuSans-2e" transform="translate(127.246094 0)"/>
       <use xlink:href="#DejaVuSans-35" transform="translate(159.033203 0)"/>
      </g>
     </g>
    </g>
    <g id="ytick_2">
     <g id="line2d_17">
      <path d="M 34.239688 147.397827 
L 480.639687 147.397827 
" clip-path="url(#p71f4c8cd4b)" style="fill: none; stroke: #374151; stroke-opacity: 0.1; stroke-width: 0.8; stroke-linecap: square"/>
     </g>
     <g id="line2d_18">
      <g>
       <use xlink:href="#ma5565c8210" x="34.239688" y="147.397827" style="fill: #4b5563; stroke: #4b5563; stroke-width: 0.8"/>
      </g>
     </g>
     <g id="text_2">
      <!-- 100.0 -->
      <g style="fill: #4b5563" transform="translate(7.2 150.05728) scale(0.07 -0.07)">
       <defs>
        <path id="DejaVuSans-31" d="M 794 531 
L 1825 531 
L 1825 4091 
L 703 3866 
L 703 4441 
L 1819 4666 
L 2450 4666 
L 2450 531 
L 3481 531 
L 3481 0 
L 794 0 
L 794 531 
z
" transform="scale(0.015625)"/>
        <path id="DejaVuSans-30" d="M 2034 4250 
Q 1547 4250 1301 3770 
Q 1056 3291 1056 2328 
Q 1056 1369 1301 889 
Q 1547 409 2034 409 
Q 2525 409 2770 889 
Q 3016 1369 3016 2328 
Q 3016 3291 2770 3770 
Q 2525 4250 2034 4250 
z
M 2034 4750 
Q 2819 4750 3233 4129 
Q 3647 3509 3647 2328 
Q 3647 1150 3233 529 
Q 2819 -91 2034 -91 
Q 1250 -91 836 529 
Q 422 1150 422 2328 
Q 422 3509 836 4129 
Q 1250 4750 2034 4750 
z
" transform="scale(0.015625)"/>
       </defs>
       <use xlink:href="#DejaVuSans-31"/>
       <use xlink:href="#DejaVuSans-30" transform="translate(63.623047 0)"/>
       <use xlink:href="#DejaVuSans-30" transform="translate(127.246094 0)"/>
       <use xlink:href="#DejaVuSans-2e" transform="translate(190.869141 0)"/>
       <use xlink:href="#DejaVuSans-30" transform="translate(222.65625 0)"/>
      </g>
     </g>
    </g>
    <g id="ytick_3">
     <g id="line2d_19">
      <path d="M 34.239688 126.280971 
L 480.639687 126.280971 
" clip-path="url(#p71f4c8cd4b)" style="fill: none; stroke: #374151; stroke-opacity: 0.1; stroke-width: 0.8; stroke-linecap: square"/>
     </g>
     <g id="line2d_20">
      <g>
       <use xlink:href="#ma5565c8210" x="34.239688" y="126.280971" style="fill: #4b5563; stroke: #4b5563; stroke-width: 0.8"/>
      </g>
     </g>
     <g id="text_3">
      <!-- 102.5 -->
      <g style="fill: #4b5563" transform="translate(7.2 128.940424) scale(0.07 -0.07)">
       <defs>
        <path id="DejaVuSans-32" d="M 1228 531 
L 3431 531 
L 3431 0 
L 469 0 
L 469 531 
Q 828 903 1448 1529 
Q 2069 2156 2228 2338 
Q 2531 2678 2651 2914 
Q 2772 3150 2772 3378 
Q 2772 3750 2511 3984 
Q 2250 4219 1831 4219 
Q 1534 4219 1204 4116 
Q 875 4013 500 3803 
L 500 4441 
Q 881 4594 1212 4672 
Q 1544 4750 1819 4750 
Q 2544 4750 2975 4387 
Q 3406 4025 3406 3419 
Q 3406 3131 3298 2873 
Q 3191 2616 2906 2266 
Q 2828 2175 2409 1742 
Q 1991 1309 1228 531 
z
" transform="scale(0.015625)"/>
       </defs>
       <use xlink:href="#DejaVuSans-31"/>
       <use xlink:href="#DejaVuSans-30" transform="translate(63.623047 0)"/>
       <use xlink:href="#DejaVuSans-32" transform="translate(127.246094 0)"/>
       <use xlink:href="#DejaVuSans-2e" transform="translate(190.869141 0)"/>
       <use xlink:href="#DejaVuSans-35" transform="translate(222.65625 0)"/>
      </g>
     </g>
    </g>
    <g id="ytick_4">
     <g id="line2d_21">
      <path d="M 34.239688 105.164114 
L 480.639687 105.164114 
" clip-path="url(#p71f4c8cd4b)" style="fill: none; stroke: #374151; stroke-opacity: 0.1; stroke-width: 0.8; stroke-linecap: square"/>
     </g>
     <g id="line2d_22">
      <g>
       <use xlink:href="#ma5565c8210" x="34.239688" y="105.164114" style="fill: #4b5563; stroke: #4b5563; stroke-width: 0.8"/>
      </g>
     </g>
     <g id="text_4">
      <!-- 105.0 -->
      <g style="fill: #4b5563" transform="translate(7.2 107.823567) scale(0.07 -0.07)">
       <use xlink:href="#DejaVuSans-31"/>
       <use xlink:href="#DejaVuSans-30" transform="translate(63.623047 0)"/>
       <use xlink:href="#DejaVuSans-35" transform="translate(127.246094 0)"/>
       <use xlink:href="#DejaVuSans-2e" transform="translate(190.869141 0)"/>
       <use xlink:href="#DejaVuSans-30" transform="translate(222.65625 0)"/>
      </g>
     </g>
    </g>
    <g id="ytick_5">
     <g id="line2d_23">
      <path d="M 34.239688 84.047257 
L 480.639687 84.047257 
" clip-path="url(#p71f4c8cd4b)" style="fill: none; stroke: #374151; stroke-opacity: 0.1; stroke-width: 0.8; stroke-linecap: square"/>
     </g>
     <g id="line2d_24">
      <g>
       <use xlink:href="#ma5565c8210" x="34.239688" y="84.047257" style="fill: #4b5563; stroke: #4b5563; stroke-width: 0.8"/>
      </g>
     </g>
     <g id="text_5">
      <!-- 107.5 -->
      <g style="fill: #4b5563" transform="translate(7.2 86.70671) scale(0.07 -0.07)">
       <use xlink:href="#DejaVuSans-31"/>
       <use xlink:href="#DejaVuSans-30" transform="translate(63.623047 0)"/>
       <use xlink:href="#DejaVuSans-37" transform="translate(127.246094 0)"/>
       <use xlink:href="#DejaVuSans-2e" transform="translate(190.869141 0)"/>
       <use xlink:href="#DejaVuSans-35" transform="translate(222.65625 0)"/>
      </g>
     </g>
    </g>
    <g id="ytick_6">
     <g id="line2d_25">
      <path d="M 34.239688 62.9304 
L 480.639687 62.9304 
" clip-path="url(#p71f4c8cd4b)" style="fill: none; stroke: #374151; stroke-opacity: 0.1; stroke-width: 0.8; stroke-linecap: square"/>
     </g>
     <g id="line2d_26">
      <g>
       <use xlink:href="#ma5565c8210" x="34.239688" y="62.9304" style="fill: #4b5563; stroke: #4b5563; stroke-width: 0.8"/>
      </g>
     </g>
     <g id="text_6">
      <!-- 110.0 -->
      <g style="fill: #4b5563" transform="translate(7.2 65.589853) scale(0.07 -0.07)">
       <use xlink:href="#DejaVuSans-31"/>
       <use xlink:href="#DejaVuSans-31" transform="translate(63.623047 0)"/>
       <use xlink:href="#DejaVuSans-30" transform="translate(127.246094 0)"/>
       <use xlink:href="#DejaVuSans-2e" transform="translate(190.869141 0)"/>
       <use xlink:href="#DejaVuSans-30" transform="translate(222.65625 0)"/>
      </g>
     </g>
    </g>
    <g id="ytick_7">
     <g id="line2d_27">
      <path d="M 34.239688 41.813544 
L 480.639687 41.813544 
" clip-path="url(#p71f4c8cd4b)" style="fill: none; stroke: #374151; stroke-opacity: 0.1; stroke-width: 0.8; stroke-linecap: square"/>
     </g>
     <g id="line2d_28">
      <g>
       <use xlink:href="#ma5565c8210" x="34.239688" y="41.813544" style="fill: #4b5563; stroke: #4b5563; stroke-width: 0.8"/>
      </g>
     </g>
     <g id="text_7">
      <!-- 112.5 -->
      <g style="fill: #4b5563" transform="translate(7.2 44.472997) scale(0.07 -0.07)">
       <use xlink:href="#DejaVuSans-31"/>
       <use xlink:href="#DejaVuSans-31" transform="translate(63.623047 0)"/>
       <use xlink:href="#DejaVuSans-32" transform="translate(127.246094 0)"/>
       <use xlink:href="#DejaVuSans-2e" transform="translate(190.869141 0)"/>
       <use xlink:href="#DejaVuSans-35" transform="translate(222.65625 0)"/>
      </g>
     </g>
    </g>
   </g>
   <g id="line2d_29">
    <path d="M 48.639688 160.953812 
L 48.639688 134.31029 
" clip-path="url(#p71f4c8cd4b)" style="fill: none; stroke: #22c55e; stroke-width: 0.8; stroke-linecap: square"/>
   </g>
   <g id="line2d_30">
    <path d="M 63.039687 158.230643 
L 63.039687 124.850324 
" clip-path="url(#p71f4c8cd4b)" style="fill: none; stroke: #22c55e; stroke-width: 0.8; stroke-linecap: square"/>
   </g>
   <g id="line2d_31">
    <path d="M 77.439687 142.895838 
L 77.439687 116.536175 
" clip-path="url(#p71f4c8cd4b)" style="fill: none; stroke: #22c55e; stroke-width: 0.8; stroke-linecap: square"/>
   </g>
   <g id="line2d_32">
    <path d="M 91.839687 110.637635 
L 91.839687 93.412942 
" clip-path="url(#p71f4c8cd4b)" style="fill: none; stroke: #22c55e; stroke-width: 0.8; stroke-linecap: square"/>
   </g>
   <g id="line2d_33">
    <path d="M 106.239688 108.240112 
L 106.239688 84.363862 
" clip-path="url(#p71f4c8cd4b)" style="fill: none; stroke: #ef4444; stroke-width: 0.8; stroke-linecap: square"/>
   </g>
   <g id="line2d_34">
    <path d="M 120.639688 113.240607 
L 120.639688 98.817813 
" clip-path="url(#p71f4c8cd4b)" style="fill: none; stroke: #ef4444; stroke-width: 0.8; stroke-linecap: square"/>
   </g>
   <g id="line2d_35">
    <path d="M 135.039687 114.297031 
L 135.039687 85.907172 
" clip-path="url(#p71f4c8cd4b)" style="fill: none; stroke: #22c55e; stroke-width: 0.8; stroke-linecap: square"/>
   </g>
   <g id="line2d_36">
    <path d="M 149.439687 114.31779 
L 149.439687 95.136986 
" clip-path="url(#p71f4c8cd4b)" style="fill: none; stroke: #22c55e; stroke-width: 0.8; stroke-linecap: square"/>
   </g>
   <g id="line2d_37">
    <path d="M 163.839687 80.024501 
L 163.839687 58.016325 
" clip-path="url(#p71f4c8cd4b)" style="fill: none; stroke: #22c55e; stroke-width: 0.8; stroke-linecap: square"/>
   </g>
   <g id="line2d_38">
    <path d="M 178.239688 83.351225 
L 178.239688 58.261176 
" clip-path="url(#p71f4c8cd4b)" style="fill: none; stroke: #22c55e; stroke-width: 0.8; stroke-linecap: square"/>
   </g>
   <g id="line2d_39">
    <path d="M 192.639688 82.964545 
L 192.639688 63.544732 
" clip-path="url(#p71f4c8cd4b)" style="fill: none; stroke: #22c55e; stroke-width: 0.8; stroke-linecap: square"/>
   </g>
   <g id="line2d_40">
    <path d="M 207.039687 82.309314 
L 207.039687 54.323163 
" clip-path="url(#p71f4c8cd4b)" style="fill: none; stroke: #ef4444; stroke-width: 0.8; stroke-linecap: square"/>
   </g>
   <g id="line2d_41">
    <path d="M 221.439687 87.006243 
L 221.439687 55.376779 
" clip-path="url(#p71f4c8cd4b)" style="fill: none; stroke: #ef4444; stroke-width: 0.8; stroke-linecap: square"/>
   </g>
   <g id="line2d_42">
    <path d="M 235.839687 73.353951 
L 235.839687 54.111866 
" clip-path="url(#p71f4c8cd4b)" style="fill: none; stroke: #ef4444; stroke-width: 0.8; stroke-linecap: square"/>
   </g>
   <g id="line2d_43">
    <path d="M 250.239687 66.496653 
L 250.239687 45.260105 
" clip-path="url(#p71f4c8cd4b)" style="fill: none; stroke: #22c55e; stroke-width: 0.8; stroke-linecap: square"/>
   </g>
   <g id="line2d_44">
    <path d="M 264.639687 70.327408 
L 264.639687 35.935505 
" clip-path="url(#p71f4c8cd4b)" style="fill: none; stroke: #ef4444; stroke-width: 0.8; stroke-linecap: square"/>
   </g>
   <g id="line2d_45">
    <path d="M 279.039687 62.963311 
L 279.039687 35.08242 
" clip-path="url(#p71f4c8cd4b)" style="fill: none; stroke: #ef4444; stroke-width: 0.8; stroke-linecap: square"/>
   </g>
   <g id="line2d_46">
    <path d="M 293.439687 47.363094 
L 293.439687 32.174047 
" clip-path="url(#p71f4c8cd4b)" style="fill: none; stroke: #22c55e; stroke-width: 0.8; stroke-linecap: square"/>
   </g>
   <g id="line2d_47">
    <path d="M 307.839687 81.771981 
L 307.839687 66.672203 
" clip-path="url(#p71f4c8cd4b)" style="fill: none; stroke: #ef4444; stroke-width: 0.8; stroke-linecap: square"/>
   </g>
   <g id="line2d_48">
    <path d="M 322.239687 88.625028 
L 322.239687 66.833733 
" clip-path="url(#p71f4c8cd4b)" style="fill: none; stroke: #22c55e; stroke-width: 0.8; stroke-linecap: square"/>
   </g>
   <g id="line2d_49">
    <path d="M 336.639687 114.933483 
L 336.639687 103.217358 
" clip-path="url(#p71f4c8cd4b)" style="fill: none; stroke: #22c55e; stroke-width: 0.8; stroke-linecap: square"/>
   </g>
   <g id="line2d_50">
    <path d="M 351.039687 127.680354 
L 351.039687 104.811276 
" clip-path="url(#p71f4c8cd4b)" style="fill: none; stroke: #ef4444; stroke-width: 0.8; stroke-linecap: square"/>
   </g>
   <g id="line2d_51">
    <path d="M 365.439687 125.128462 
L 365.439687 112.831225 
" clip-path="url(#p71f4c8cd4b)" style="fill: none; stroke: #22c55e; stroke-width: 0.8; stroke-linecap: square"/>
   </g>
   <g id="line2d_52">
    <path d="M 379.839687 130.534512 
L 379.839687 112.165659 
" clip-path="url(#p71f4c8cd4b)" style="fill: none; stroke: #22c55e; stroke-width: 0.8; stroke-linecap: square"/>
   </g>
   <g id="line2d_53">
    <path d="M 394.239687 134.17781 
L 394.239687 121.087887 
" clip-path="url(#p71f4c8cd4b)" style="fill: none; stroke: #22c55e; stroke-width: 0.8; stroke-linecap: square"/>
   </g>
   <g id="line2d_54">
    <path d="M 408.639687 144.852838 
L 408.639687 114.019746 
" clip-path="url(#p71f4c8cd4b)" style="fill: none; stroke: #22c55e; stroke-width: 0.8; stroke-linecap: square"/>
   </g>
   <g id="line2d_55">
    <path d="M 423.039687 113.830937 
L 423.039687 96.847724 
" clip-path="url(#p71f4c8cd4b)" style="fill: none; stroke: #ef4444; stroke-width: 0.8; stroke-linecap: square"/>
   </g>
   <g id="line2d_56">
    <path d="M 437.439687 145.227794 
L 437.439687 124.260535 
" clip-path="url(#p71f4c8cd4b)" style="fill: none; stroke: #22c55e; stroke-width: 0.8; stroke-linecap: square"/>
   </g>
   <g id="line2d_57">
    <path d="M 451.839687 179.686242 
L 451.839687 148.299658 
" clip-path="url(#p71f4c8cd4b)" style="fill: none; stroke: #ef4444; stroke-width: 0.8; stroke-linecap: square"/>
   </g>
   <g id="line2d_58">
    <path d="M 466.239687 155.364958 
L 466.239687 134.442965 
" clip-path="url(#p71f4c8cd4b)" style="fill: none; stroke: #22c55e; stroke-width: 0.8; stroke-linecap: square"/>
   </g>
   <g id="patch_33">
    <path d="M 34.239688 187.061852 
L 34.239688 24.798437 
" style="fill: none; stroke: #1f2937; stroke-width: 0.8; stroke-linejoin: miter; stroke-linecap: square"/>
   </g>
   <g id="patch_34">
    <path d="M 34.239688 187.061852 
L 480.639687 187.061852 
" style="fill: none; stroke: #1f2937; stroke-width: 0.8; stroke-linejoin: miter; stroke-linecap: square"/>
   </g>
   <g id="text_8">
    <!-- Triple Top — GOOGL 4H -->
    <g style="fill: #ffffff" transform="translate(192.431094 14.798438) scale(0.1 -0.1)">
     <defs>
      <path id="DejaVuSans-Bold-54" d="M 31 4666 
L 4331 4666 
L 4331 3756 
L 2784 3756 
L 2784 0 
L 1581 0 
L 1581 3756 
L 31 3756 
L 31 4666 
z
" transform="scale(0.015625)"/>
      <path id="DejaVuSans-Bold-72" d="M 3138 2547 
Q 2991 2616 2845 2648 
Q 2700 2681 2553 2681 
Q 2122 2681 1889 2404 
Q 1656 2128 1656 1613 
L 1656 0 
L 538 0 
L 538 3500 
L 1656 3500 
L 1656 2925 
Q 1872 3269 2151 3426 
Q 2431 3584 2822 3584 
Q 2878 3584 2943 3579 
Q 3009 3575 3134 3559 
L 3138 2547 
z
" transform="scale(0.015625)"/>
      <path id="DejaVuSans-Bold-69" d="M 538 3500 
L 1656 3500 
L 1656 0 
L 538 0 
L 538 3500 
z
M 538 4863 
L 1656 4863 
L 1656 3950 
L 538 3950 
L 538 4863 
z
" transform="scale(0.015625)"/>
      <path id="DejaVuSans-Bold-70" d="M 1656 506 
L 1656 -1331 
L 538 -1331 
L 538 3500 
L 1656 3500 
L 1656 2988 
Q 1888 3294 2169 3439 
Q 2450 3584 2816 3584 
Q 3463 3584 3878 3070 
Q 4294 2556 4294 1747 
Q 4294 938 3878 423 
Q 3463 -91 2816 -91 
Q 2450 -91 2169 54 
Q 1888 200 1656 506 
z
M 2400 2772 
Q 2041 2772 1848 2508 
Q 1656 2244 1656 1747 
Q 1656 1250 1848 986 
Q 2041 722 2400 722 
Q 2759 722 2948 984 
Q 3138 1247 3138 1747 
Q 3138 2247 2948 2509 
Q 2759 2772 2400 2772 
z
" transform="scale(0.015625)"/>
      <path id="DejaVuSans-Bold-6c" d="M 538 4863 
L 1656 4863 
L 1656 0 
L 538 0 
L 538 4863 
z
" transform="scale(0.015625)"/>
      <path id="DejaVuSans-Bold-65" d="M 4031 1759 
L 4031 1441 
L 1416 1441 
Q 1456 1047 1700 850 
Q 1944 653 2381 653 
Q 2734 653 3104 758 
Q 3475 863 3866 1075 
L 3866 213 
Q 3469 63 3072 -14 
Q 2675 -91 2278 -91 
Q 1328 -91 801 392 
Q 275 875 275 1747 
Q 275 2603 792 3093 
Q 1309 3584 2216 3584 
Q 3041 3584 3536 3087 
Q 4031 2591 4031 1759 
z
M 2881 2131 
Q 2881 2450 2695 2645 
Q 2509 2841 2209 2841 
Q 1884 2841 1681 2658 
Q 1478 2475 1428 2131 
L 2881 2131 
z
" transform="scale(0.015625)"/>
      <path id="DejaVuSans-Bold-20" transform="scale(0.015625)"/>
      <path id="DejaVuSans-Bold-6f" d="M 2203 2784 
Q 1831 2784 1636 2517 
Q 1441 2250 1441 1747 
Q 1441 1244 1636 976 
Q 1831 709 2203 709 
Q 2569 709 2762 976 
Q 2956 1244 2956 1747 
Q 2956 2250 2762 2517 
Q 2569 2784 2203 2784 
z
M 2203 3584 
Q 3106 3584 3614 3096 
Q 4122 2609 4122 1747 
Q 4122 884 3614 396 
Q 3106 -91 2203 -91 
Q 1297 -91 786 396 
Q 275 884 275 1747 
Q 275 2609 786 3096 
Q 1297 3584 2203 3584 
z
" transform="scale(0.015625)"/>
      <path id="DejaVuSans-Bold-2014" d="M 344 2156 
L 6056 2156 
L 6056 1350 
L 344 1350 
L 344 2156 
z
" transform="scale(0.015625)"/>
      <path id="DejaVuSans-Bold-47" d="M 4781 347 
Q 4331 128 3847 18 
Q 3363 -91 2847 -91 
Q 1681 -91 1000 561 
Q 319 1213 319 2328 
Q 319 3456 1012 4103 
Q 1706 4750 2913 4750 
Q 3378 4750 3804 4662 
Q 4231 4575 4609 4403 
L 4609 3438 
Q 4219 3659 3833 3768 
Q 3447 3878 3059 3878 
Q 2341 3878 1952 3476 
Q 1563 3075 1563 2328 
Q 1563 1588 1938 1184 
Q 2313 781 3003 781 
Q 3191 781 3352 804 
Q 3513 828 3641 878 
L 3641 1784 
L 2906 1784 
L 2906 2591 
L 4781 2591 
L 4781 347 
z
" transform="scale(0.015625)"/>
      <path id="DejaVuSans-Bold-4f" d="M 2719 3878 
Q 2169 3878 1866 3472 
Q 1563 3066 1563 2328 
Q 1563 1594 1866 1187 
Q 2169 781 2719 781 
Q 3272 781 3575 1187 
Q 3878 1594 3878 2328 
Q 3878 3066 3575 3472 
Q 3272 3878 2719 3878 
z
M 2719 4750 
Q 3844 4750 4481 4106 
Q 5119 3463 5119 2328 
Q 5119 1197 4481 553 
Q 3844 -91 2719 -91 
Q 1597 -91 958 553 
Q 319 1197 319 2328 
Q 319 3463 958 4106 
Q 1597 4750 2719 4750 
z
" transform="scale(0.015625)"/>
      <path id="DejaVuSans-Bold-4c" d="M 588 4666 
L 1791 4666 
L 1791 909 
L 3903 909 
L 3903 0 
L 588 0 
L 588 4666 
z
" transform="scale(0.015625)"/>
      <path id="DejaVuSans-Bold-34" d="M 2356 3675 
L 1038 1722 
L 2356 1722 
L 2356 3675 
z
M 2156 4666 
L 3494 4666 
L 3494 1722 
L 4159 1722 
L 4159 850 
L 3494 850 
L 3494 0 
L 2356 0 
L 2356 850 
L 288 850 
L 288 1881 
L 2156 4666 
z
" transform="scale(0.015625)"/>
      <path id="DejaVuSans-Bold-48" d="M 588 4666 
L 1791 4666 
L 1791 2888 
L 3566 2888 
L 3566 4666 
L 4769 4666 
L 4769 0 
L 3566 0 
L 3566 1978 
L 1791 1978 
L 1791 0 
L 588 0 
L 588 4666 
z
" transform="scale(0.015625)"/>
     </defs>
     <use xlink:href="#DejaVuSans-Bold-54"/>
     <use xlink:href="#DejaVuSans-Bold-72" transform="translate(57.212891 0)"/>
     <use xlink:href="#DejaVuSans-Bold-69" transform="translate(106.529297 0)"/>
     <use xlink:href="#DejaVuSans-Bold-70" transform="translate(140.806641 0)"/>
     <use xlink:href="#DejaVuSans-Bold-6c" transform="translate(212.388672 0)"/>
     <use xlink:href="#DejaVuSans-Bold-65" transform="translate(246.666016 0)"/>
     <use xlink:href="#DejaVuSans-Bold-20" transform="translate(314.488281 0)"/>
     <use xlink:href="#DejaVuSans-Bold-54" transform="translate(349.302734 0)"/>
     <use xlink:href="#DejaVuSans-Bold-6f" transform="translate(404.265625 0)"/>
     <use xlink:href="#DejaVuSans-Bold-70" transform="translate(472.966797 0)"/>
     <use xlink:href="#DejaVuSans-Bold-20" transform="translate(544.548828 0)"/>
     <use xlink:href="#DejaVuSans-Bold-2014" transform="translate(579.363281 0)"/>
     <use xlink:href="#DejaVuSans-Bold-20" transform="translate(679.363281 0)"/>
     <use xlink:href="#DejaVuSans-Bold-47" transform="translate(714.177734 0)"/>
     <use xlink:href="#DejaVuSans-Bold-4f" transform="translate(796.257812 0)"/>
     <use xlink:href="#DejaVuSans-Bold-4f" transform="translate(881.267578 0)"/>
     <use xlink:href="#DejaVuSans-Bold-47" transform="translate(966.277344 0)"/>
     <use xlink:href="#DejaVuSans-Bold-4c" transform="translate(1048.357422 0)"/>
     <use xlink:href="#DejaVuSans-Bold-20" transform="translate(1112.078125 0)"/>
     <use xlink:href="#DejaVuSans-Bold-34" transform="translate(1146.892578 0)"/>
     <use xlink:href="#DejaVuSans-Bold-48" transform="translate(1216.472656 0)"/>
    </g>
   </g>
  </g>
  <g id="axes_2">
   <g id="patch_35">
    <path d="M 34.239688 246.558438 
L 480.639687 246.558438 
L 480.639687 192.470633 
L 34.239688 192.470633 
z
" style="fill: #0a0f1a"/>
   </g>
   <g id="patch_36">
    <path d="M 54.530597 246.558438 
L 64.095335 246.558438 
L 64.095335 215.200822 
L 54.530597 215.200822 
z
" clip-path="url(#p31d1b37957)" style="fill: #22c55e; fill-opacity: 0.533333"/>
   </g>
   <g id="patch_37">
    <path d="M 68.194508 246.558438 
L 77.759247 246.558438 
L 77.759247 195.046242 
L 68.194508 195.046242 
z
" clip-path="url(#p31d1b37957)" style="fill: #22c55e; fill-opacity: 0.533333"/>
   </g>
   <g id="patch_38">
    <path d="M 81.85842 246.558438 
L 91.423159 246.558438 
L 91.423159 216.952288 
L 81.85842 216.952288 
z
" clip-path="url(#p31d1b37957)" style="fill: #22c55e; fill-opacity: 0.533333"/>
   </g>
   <g id="patch_39">
    <path d="M 95.522332 246.558438 
L 105.08707 246.558438 
L 105.08707 204.513418 
L 95.522332 204.513418 
z
" clip-path="url(#p31d1b37957)" style="fill: #22c55e; fill-opacity: 0.533333"/>
   </g>
   <g id="patch_40">
    <path d="M 109.186244 246.558438 
L 118.750982 246.558438 
L 118.750982 203.986551 
L 109.186244 203.986551 
z
" clip-path="url(#p31d1b37957)" style="fill: #ef4444; fill-opacity: 0.533333"/>
   </g>
   <g id="patch_41">
    <path d="M 122.850156 246.558438 
L 132.414894 246.558438 
L 132.414894 232.266428 
L 122.850156 232.266428 
z
" clip-path="url(#p31d1b37957)" style="fill: #ef4444; fill-opacity: 0.533333"/>
   </g>
   <g id="patch_42">
    <path d="M 136.514068 246.558438 
L 146.078806 246.558438 
L 146.078806 212.725174 
L 136.514068 212.725174 
z
" clip-path="url(#p31d1b37957)" style="fill: #22c55e; fill-opacity: 0.533333"/>
   </g>
   <g id="patch_43">
    <path d="M 150.17798 246.558438 
L 159.742718 246.558438 
L 159.742718 196.927222 
L 150.17798 196.927222 
z
" clip-path="url(#p31d1b37957)" style="fill: #22c55e; fill-opacity: 0.533333"/>
   </g>
   <g id="patch_44">
    <path d="M 163.841891 246.558438 
L 173.40663 246.558438 
L 173.40663 209.788565 
L 163.841891 209.788565 
z
" clip-path="url(#p31d1b37957)" style="fill: #22c55e; fill-opacity: 0.533333"/>
   </g>
   <g id="patch_45">
    <path d="M 177.505803 246.558438 
L 187.070541 246.558438 
L 187.070541 218.262935 
L 177.505803 218.262935 
z
" clip-path="url(#p31d1b37957)" style="fill: #22c55e; fill-opacity: 0.533333"/>
   </g>
   <g id="patch_46">
    <path d="M 191.169715 246.558438 
L 200.734453 246.558438 
L 200.734453 221.539566 
L 191.169715 221.539566 
z
" clip-path="url(#p31d1b37957)" style="fill: #22c55e; fill-opacity: 0.533333"/>
   </g>
   <g id="patch_47">
    <path d="M 204.833627 246.558438 
L 214.398365 246.558438 
L 214.398365 232.590917 
L 204.833627 232.590917 
z
" clip-path="url(#p31d1b37957)" style="fill: #ef4444; fill-opacity: 0.533333"/>
   </g>
   <g id="patch_48">
    <path d="M 218.497539 246.558438 
L 228.062277 246.558438 
L 228.062277 225.680603 
L 218.497539 225.680603 
z
" clip-path="url(#p31d1b37957)" style="fill: #ef4444; fill-opacity: 0.533333"/>
   </g>
   <g id="patch_49">
    <path d="M 232.161451 246.558438 
L 241.726189 246.558438 
L 241.726189 219.746169 
L 232.161451 219.746169 
z
" clip-path="url(#p31d1b37957)" style="fill: #ef4444; fill-opacity: 0.533333"/>
   </g>
   <g id="patch_50">
    <path d="M 245.825362 246.558438 
L 255.390101 246.558438 
L 255.390101 206.95167 
L 245.825362 206.95167 
z
" clip-path="url(#p31d1b37957)" style="fill: #22c55e; fill-opacity: 0.533333"/>
   </g>
   <g id="patch_51">
    <path d="M 259.489274 246.558438 
L 269.054013 246.558438 
L 269.054013 219.044241 
L 259.489274 219.044241 
z
" clip-path="url(#p31d1b37957)" style="fill: #ef4444; fill-opacity: 0.533333"/>
   </g>
   <g id="patch_52">
    <path d="M 273.153186 246.558438 
L 282.717924 246.558438 
L 282.717924 216.069855 
L 273.153186 216.069855 
z
" clip-path="url(#p31d1b37957)" style="fill: #ef4444; fill-opacity: 0.533333"/>
   </g>
   <g id="patch_53">
    <path d="M 286.817098 246.558438 
L 296.381836 246.558438 
L 296.381836 203.993035 
L 286.817098 203.993035 
z
" clip-path="url(#p31d1b37957)" style="fill: #22c55e; fill-opacity: 0.533333"/>
   </g>
   <g id="patch_54">
    <path d="M 300.48101 246.558438 
L 310.045748 246.558438 
L 310.045748 223.139626 
L 300.48101 223.139626 
z
" clip-path="url(#p31d1b37957)" style="fill: #ef4444; fill-opacity: 0.533333"/>
   </g>
   <g id="patch_55">
    <path d="M 314.144922 246.558438 
L 323.70966 246.558438 
L 323.70966 226.915232 
L 314.144922 226.915232 
z
" clip-path="url(#p31d1b37957)" style="fill: #22c55e; fill-opacity: 0.533333"/>
   </g>
   <g id="patch_56">
    <path d="M 327.808834 246.558438 
L 337.373572 246.558438 
L 337.373572 208.270687 
L 327.808834 208.270687 
z
" clip-path="url(#p31d1b37957)" style="fill: #22c55e; fill-opacity: 0.533333"/>
   </g>
   <g id="patch_57">
    <path d="M 341.472745 246.558438 
L 351.037484 246.558438 
L 351.037484 211.521189 
L 341.472745 211.521189 
z
" clip-path="url(#p31d1b37957)" style="fill: #ef4444; fill-opacity: 0.533333"/>
   </g>
   <g id="patch_58">
    <path d="M 355.136657 246.558438 
L 364.701395 246.558438 
L 364.701395 224.11226 
L 355.136657 224.11226 
z
" clip-path="url(#p31d1b37957)" style="fill: #22c55e; fill-opacity: 0.533333"/>
   </g>
   <g id="patch_59">
    <path d="M 368.800569 246.558438 
L 378.365307 246.558438 
L 378.365307 197.927366 
L 368.800569 197.927366 
z
" clip-path="url(#p31d1b37957)" style="fill: #22c55e; fill-opacity: 0.533333"/>
   </g>
   <g id="patch_60">
    <path d="M 382.464481 246.558438 
L 392.029219 246.558438 
L 392.029219 201.075659 
L 382.464481 201.075659 
z
" clip-path="url(#p31d1b37957)" style="fill: #22c55e; fill-opacity: 0.533333"/>
   </g>
   <g id="patch_61">
    <path d="M 396.128393 246.558438 
L 405.693131 246.558438 
L 405.693131 221.5635 
L 396.128393 221.5635 
z
" clip-path="url(#p31d1b37957)" style="fill: #22c55e; fill-opacity: 0.533333"/>
   </g>
   <g id="patch_62">
    <path d="M 409.792305 246.558438 
L 419.357043 246.558438 
L 419.357043 222.290837 
L 409.792305 222.290837 
z
" clip-path="url(#p31d1b37957)" style="fill: #ef4444; fill-opacity: 0.533333"/>
   </g>
   <g id="patch_63">
    <path d="M 423.456216 246.558438 
L 433.020955 246.558438 
L 433.020955 220.368998 
L 423.456216 220.368998 
z
" clip-path="url(#p31d1b37957)" style="fill: #22c55e; fill-opacity: 0.533333"/>
   </g>
   <g id="patch_64">
    <path d="M 437.120128 246.558438 
L 446.684867 246.558438 
L 446.684867 218.246917 
L 437.120128 218.246917 
z
" clip-path="url(#p31d1b37957)" style="fill: #ef4444; fill-opacity: 0.533333"/>
   </g>
   <g id="patch_65">
    <path d="M 450.78404 246.558438 
L 460.348778 246.558438 
L 460.348778 206.746603 
L 450.78404 206.746603 
z
" clip-path="url(#p31d1b37957)" style="fill: #22c55e; fill-opacity: 0.533333"/>
   </g>
   <g id="matplotlib.axis_3">
    <g id="xtick_8">
     <g id="line2d_59">
      <path d="M 59.312966 246.558438 
L 59.312966 192.470633 
" clip-path="url(#p31d1b37957)" style="fill: none; stroke: #374151; stroke-opacity: 0.1; stroke-width: 0.8; stroke-linecap: square"/>
     </g>
     <g id="line2d_60">
      <g>
       <use xlink:href="#mb5defe85a4" x="59.312966" y="246.558438" style="fill: #4b5563; stroke: #4b5563; stroke-width: 0.8"/>
      </g>
     </g>
     <g id="text_9">
      <!-- 0 -->
      <g style="fill: #4b5563" transform="translate(57.086091 258.877344) scale(0.07 -0.07)">
       <use xlink:href="#DejaVuSans-30"/>
      </g>
     </g>
    </g>
    <g id="xtick_9">
     <g id="line2d_61">
      <path d="M 127.632525 246.558438 
L 127.632525 192.470633 
" clip-path="url(#p31d1b37957)" style="fill: none; stroke: #374151; stroke-opacity: 0.1; stroke-width: 0.8; stroke-linecap: square"/>
     </g>
     <g id="line2d_62">
      <g>
       <use xlink:href="#mb5defe85a4" x="127.632525" y="246.558438" style="fill: #4b5563; stroke: #4b5563; stroke-width: 0.8"/>
      </g>
     </g>
     <g id="text_10">
      <!-- 5 -->
      <g style="fill: #4b5563" transform="translate(125.40565 258.877344) scale(0.07 -0.07)">
       <use xlink:href="#DejaVuSans-35"/>
      </g>
     </g>
    </g>
    <g id="xtick_10">
     <g id="line2d_63">
      <path d="M 195.952084 246.558438 
L 195.952084 192.470633 
" clip-path="url(#p31d1b37957)" style="fill: none; stroke: #374151; stroke-opacity: 0.1; stroke-width: 0.8; stroke-linecap: square"/>
     </g>
     <g id="line2d_64">
      <g>
       <use xlink:href="#mb5defe85a4" x="195.952084" y="246.558438" style="fill: #4b5563; stroke: #4b5563; stroke-width: 0.8"/>
      </g>
     </g>
     <g id="text_11">
      <!-- 10 -->
      <g style="fill: #4b5563" transform="translate(191.498334 258.877344) scale(0.07 -0.07)">
       <use xlink:href="#DejaVuSans-31"/>
       <use xlink:href="#DejaVuSans-30" transform="translate(63.623047 0)"/>
      </g>
     </g>
    </g>
    <g id="xtick_11">
     <g id="line2d_65">
      <path d="M 264.271643 246.558438 
L 264.271643 192.470633 
" clip-path="url(#p31d1b37957)" style="fill: none; stroke: #374151; stroke-opacity: 0.1; stroke-width: 0.8; stroke-linecap: square"/>
     </g>
     <g id="line2d_66">
      <g>
       <use xlink:href="#mb5defe85a4" x="264.271643" y="246.558438" style="fill: #4b5563; stroke: #4b5563; stroke-width: 0.8"/>
      </g>
     </g>
     <g id="text_12">
      <!-- 15 -->
      <g style="fill: #4b5563" transform="translate(259.817893 258.877344) scale(0.07 -0.07)">
       <use xlink:href="#DejaVuSans-31"/>
       <use xlink:href="#DejaVuSans-35" transform="translate(63.623047 0)"/>
      </g>
     </g>
    </g>
    <g id="xtick_12">
     <g id="line2d_67">
      <path d="M 332.591203 246.558438 
L 332.591203 192.470633 
" clip-path="url(#p31d1b37957)" style="fill: none; stroke: #374151; stroke-opacity: 0.1; stroke-width: 0.8; stroke-linecap: square"/>
     </g>
     <g id="line2d_68">
      <g>
       <use xlink:href="#mb5defe85a4" x="332.591203" y="246.558438" style="fill: #4b5563; stroke: #4b5563; stroke-width: 0.8"/>
      </g>
     </g>
     <g id="text_13">
      <!-- 20 -->
      <g style="fill: #4b5563" transform="translate(328.137453 258.877344) scale(0.07 -0.07)">
       <use xlink:href="#DejaVuSans-32"/>
       <use xlink:href="#DejaVuSans-30" transform="translate(63.623047 0)"/>
      </g>
     </g>
    </g>
    <g id="xtick_13">
     <g id="line2d_69">
      <path d="M 400.910762 246.558438 
L 400.910762 192.470633 
" clip-path="url(#p31d1b37957)" style="fill: none; stroke: #374151; stroke-opacity: 0.1; stroke-width: 0.8; stroke-linecap: square"/>
     </g>
     <g id="line2d_70">
      <g>
       <use xlink:href="#mb5defe85a4" x="400.910762" y="246.558438" style="fill: #4b5563; stroke: #4b5563; stroke-width: 0.8"/>
      </g>
     </g>
     <g id="text_14">
      <!-- 25 -->
      <g style="fill: #4b5563" transform="translate(396.457012 258.877344) scale(0.07 -0.07)">
       <use xlink:href="#DejaVuSans-32"/>
       <use xlink:href="#DejaVuSans-35" transform="translate(63.623047 0)"/>
      </g>
     </g>
    </g>
    <g id="xtick_14">
     <g id="line2d_71">
      <path d="M 469.230321 246.558438 
L 469.230321 192.470633 
" clip-path="url(#p31d1b37957)" style="fill: none; stroke: #374151; stroke-opacity: 0.1; stroke-width: 0.8; stroke-linecap: square"/>
     </g>
     <g id="line2d_72">
      <g>
       <use xlink:href="#mb5defe85a4" x="469.230321" y="246.558438" style="fill: #4b5563; stroke: #4b5563; stroke-width: 0.8"/>
      </g>
     </g>
     <g id="text_15">
      <!-- 30 -->
      <g style="fill: #4b5563" transform="translate(464.776571 258.877344) scale(0.07 -0.07)">
       <defs>
        <path id="DejaVuSans-33" d="M 2597 2516 
Q 3050 2419 3304 2112 
Q 3559 1806 3559 1356 
Q 3559 666 3084 287 
Q 2609 -91 1734 -91 
Q 1441 -91 1130 -33 
Q 819 25 488 141 
L 488 750 
Q 750 597 1062 519 
Q 1375 441 1716 441 
Q 2309 441 2620 675 
Q 2931 909 2931 1356 
Q 2931 1769 2642 2001 
Q 2353 2234 1838 2234 
L 1294 2234 
L 1294 2753 
L 1863 2753 
Q 2328 2753 2575 2939 
Q 2822 3125 2822 3475 
Q 2822 3834 2567 4026 
Q 2313 4219 1838 4219 
Q 1578 4219 1281 4162 
Q 984 4106 628 3988 
L 628 4550 
Q 988 4650 1302 4700 
Q 1616 4750 1894 4750 
Q 2613 4750 3031 4423 
Q 3450 4097 3450 3541 
Q 3450 3153 3228 2886 
Q 3006 2619 2597 2516 
z
" transform="scale(0.015625)"/>
       </defs>
       <use xlink:href="#DejaVuSans-33"/>
       <use xlink:href="#DejaVuSans-30" transform="translate(63.623047 0)"/>
      </g>
     </g>
    </g>
   </g>
   <g id="matplotlib.axis_4">
    <g id="ytick_8">
     <g id="line2d_73">
      <path d="M 34.239688 246.558438 
L 480.639687 246.558438 
" clip-path="url(#p31d1b37957)" style="fill: none; stroke: #374151; stroke-opacity: 0.1; stroke-width: 0.8; stroke-linecap: square"/>
     </g>
     <g id="line2d_74">
      <g>
       <use xlink:href="#ma5565c8210" x="34.239688" y="246.558438" style="fill: #4b5563; stroke: #4b5563; stroke-width: 0.8"/>
      </g>
     </g>
     <g id="text_16">
      <!-- 0 -->
      <g style="fill: #4b5563" transform="translate(22.785938 249.217891) scale(0.07 -0.07)">
       <use xlink:href="#DejaVuSans-30"/>
      </g>
     </g>
    </g>
    <g id="ytick_9">
     <g id="line2d_75">
      <path d="M 34.239688 225.943495 
L 480.639687 225.943495 
" clip-path="url(#p31d1b37957)" style="fill: none; stroke: #374151; stroke-opacity: 0.1; stroke-width: 0.8; stroke-linecap: square"/>
     </g>
     <g id="line2d_76">
      <g>
       <use xlink:href="#ma5565c8210" x="34.239688" y="225.943495" style="fill: #4b5563; stroke: #4b5563; stroke-width: 0.8"/>
      </g>
     </g>
     <g id="text_17">
      <!-- 2 -->
      <g style="fill: #4b5563" transform="translate(22.785938 228.602948) scale(0.07 -0.07)">
       <use xlink:href="#DejaVuSans-32"/>
      </g>
     </g>
    </g>
    <g id="ytick_10">
     <g id="line2d_77">
      <path d="M 34.239688 205.328553 
L 480.639687 205.328553 
" clip-path="url(#p31d1b37957)" style="fill: none; stroke: #374151; stroke-opacity: 0.1; stroke-width: 0.8; stroke-linecap: square"/>
     </g>
     <g id="line2d_78">
      <g>
       <use xlink:href="#ma5565c8210" x="34.239688" y="205.328553" style="fill: #4b5563; stroke: #4b5563; stroke-width: 0.8"/>
      </g>
     </g>
     <g id="text_18">
      <!-- 4 -->
      <g style="fill: #4b5563" transform="translate(22.785938 207.988006) scale(0.07 -0.07)">
       <defs>
        <path id="DejaVuSans-34" d="M 2419 4116 
L 825 1625 
L 2419 1625 
L 2419 4116 
z
M 2253 4666 
L 3047 4666 
L 3047 1625 
L 3713 1625 
L 3713 1100 
L 3047 1100 
L 3047 0 
L 2419 0 
L 2419 1100 
L 313 1100 
L 313 1709 
L 2253 4666 
z
" transform="scale(0.015625)"/>
       </defs>
       <use xlink:href="#DejaVuSans-34"/>
      </g>
     </g>
    </g>
    <g id="text_19">
     <!-- Vol -->
     <g style="fill: #4b5563" transform="translate(17.330156 224.75141) rotate(-90) scale(0.07 -0.07)">
      <defs>
       <path id="DejaVuSans-56" d="M 1831 0 
L 50 4666 
L 709 4666 
L 2188 738 
L 3669 4666 
L 4325 4666 
L 2547 0 
L 1831 0 
z
" transform="scale(0.015625)"/>
       <path id="DejaVuSans-6f" d="M 1959 3097 
Q 1497 3097 1228 2736 
Q 959 2375 959 1747 
Q 959 1119 1226 758 
Q 1494 397 1959 397 
Q 2419 397 2687 759 
Q 2956 1122 2956 1747 
Q 2956 2369 2687 2733 
Q 2419 3097 1959 3097 
z
M 1959 3584 
Q 2709 3584 3137 3096 
Q 3566 2609 3566 1747 
Q 3566 888 3137 398 
Q 2709 -91 1959 -91 
Q 1206 -91 779 398 
Q 353 888 353 1747 
Q 353 2609 779 3096 
Q 1206 3584 1959 3584 
z
" transform="scale(0.015625)"/>
       <path id="DejaVuSans-6c" d="M 603 4863 
L 1178 4863 
L 1178 0 
L 603 0 
L 603 4863 
z
" transform="scale(0.015625)"/>
      </defs>
      <use xlink:href="#DejaVuSans-56"/>
      <use xlink:href="#DejaVuSans-6f" transform="translate(60.658203 0)"/>
      <use xlink:href="#DejaVuSans-6c" transform="translate(121.839844 0)"/>
     </g>
    </g>
    <g id="text_20">
     <!-- 1e6 -->
     <g style="fill: #4b5563" transform="translate(34.239688 189.470633) scale(0.1 -0.1)">
      <defs>
       <path id="DejaVuSans-65" d="M 3597 1894 
L 3597 1613 
L 953 1613 
Q 991 1019 1311 708 
Q 1631 397 2203 397 
Q 2534 397 2845 478 
Q 3156 559 3463 722 
L 3463 178 
Q 3153 47 2828 -22 
Q 2503 -91 2169 -91 
Q 1331 -91 842 396 
Q 353 884 353 1716 
Q 353 2575 817 3079 
Q 1281 3584 2069 3584 
Q 2775 3584 3186 3129 
Q 3597 2675 3597 1894 
z
M 3022 2063 
Q 3016 2534 2758 2815 
Q 2500 3097 2075 3097 
Q 1594 3097 1305 2825 
Q 1016 2553 972 2059 
L 3022 2063 
z
" transform="scale(0.015625)"/>
       <path id="DejaVuSans-36" d="M 2113 2584 
Q 1688 2584 1439 2293 
Q 1191 2003 1191 1497 
Q 1191 994 1439 701 
Q 1688 409 2113 409 
Q 2538 409 2786 701 
Q 3034 994 3034 1497 
Q 3034 2003 2786 2293 
Q 2538 2584 2113 2584 
z
M 3366 4563 
L 3366 3988 
Q 3128 4100 2886 4159 
Q 2644 4219 2406 4219 
Q 1781 4219 1451 3797 
Q 1122 3375 1075 2522 
Q 1259 2794 1537 2939 
Q 1816 3084 2150 3084 
Q 2853 3084 3261 2657 
Q 3669 2231 3669 1497 
Q 3669 778 3244 343 
Q 2819 -91 2113 -91 
Q 1303 -91 875 529 
Q 447 1150 447 2328 
Q 447 3434 972 4092 
Q 1497 4750 2381 4750 
Q 2619 4750 2861 4703 
Q 3103 4656 3366 4563 
z
" transform="scale(0.015625)"/>
      </defs>
      <use xlink:href="#DejaVuSans-31"/>
      <use xlink:href="#DejaVuSans-65" transform="translate(63.623047 0)"/>
      <use xlink:href="#DejaVuSans-36" transform="translate(125.146484 0)"/>
     </g>
    </g>
   </g>
   <g id="patch_66">
    <path d="M 34.239688 246.558438 
L 34.239688 192.470633 
" style="fill: none; stroke: #1f2937; stroke-width: 0.8; stroke-linejoin: miter; stroke-linecap: square"/>
   </g>
   <g id="patch_67">
    <path d="M 34.239688 246.558438 
L 480.639688 246.558438 
" style="fill: none; stroke: #1f2937; stroke-width: 0.8; stroke-linejoin: miter; stroke-linecap: square"/>
   </g>
  </g>
 </g>
 <defs>
  <clipPath id="p71f4c8cd4b">
   <rect x="34.239688" y="24.798438" width="446.4" height="162.263415"/>
  </clipPath>
  <clipPath id="p31d1b37957">
   <rect x="34.239688" y="192.470633" width="446.4" height="54.087805"/>
  </clipPath>
 </defs>
</svg>
