<?xml version="1.0" encoding="utf-8" standalone="no"?>
<!DOCTYPE svg PUBLIC "-//W3C//DTD SVG 1.1//EN"
  "http://www.w3.org/Graphics/SVG/1.1/DTD/svg11.dtd">
<svg xmlns:xlink="http://www.w3.org/1999/xlink" width="483.028437pt" height="267.533125pt" viewBox="0 0 483.028437 267.533125" xmlns="http://www.w3.org/2000/svg" version="1.1">
 <metadata>
  <rdf:RDF xmlns:dc="http://purl.org/dc/elements/1.1/" xmlns:cc="http://creativecommons.org/ns#" xmlns:rdf="http://www.w3.org/1999/02/22-rdf-syntax-ns#">
   <cc:Work>
    <dc:type rdf:resource="http://purl.org/dc/dcmitype/StillImage"/>
    <dc:date>2026-02-16T00:23:05.577277</dc:date>
    <dc:format>image/svg+xml</dc:format>
    <dc:creator>
     <cc:Agent>
      <dc:title>Matplotlib v3.10.8, https://matplotlib.org/</dc:title>
     </cc:Agent>
    </dc:creator>
   </cc:Work>
  </rdf:RDF>
 </metadata>
 <defs>
  <style type="text/css">*{stroke-linejoin: round; stroke-linecap: butt}</style>
 </defs>
 <g id="figure_1">
  <g id="patch_1">
   <path d="M 0 267.533125 
L 483.028437 267.533125 
L 483.028437 0 
L 0 0 
z
" style="fill: #0a0f1a"/>
  </g>
  <g id="axes_1">
   <g id="patch_2">
    <path d="M 29.428438 187.061852 
L 475.828437 187.061852 
L 475.828437 24.798438 
L 29.428438 24.798438 
z
" style="fill: #0a0f1a"/>
   </g>
   <g id="patch_3">
    <path d="M 38.788438 52.347061 
L 48.868437 52.347061 
Q 49.156437 52.347061 49.156437 52.224212 
L 49.156437 40.652268 
Q 49.156437 40.529419 48.868437 40.529419 
L 38.788438 40.529419 
Q 38.500438 40.529419 38.500438 40.652268 
L 38.500438 52.224212 
Q 38.500438 52.347061 38.788438 52.347061 
z
" clip-path="url(#p39f22eccc3)" style="fill: #22c55e; stroke: #22c55e; stroke-linejoin: miter"/>
   </g>
   <g id="patch_4">
    <path d="M 53.188437 60.595738 
L 63.268437 60.595738 
Q 63.556438 60.595738 63.556438 60.472889 
L 63.556438 53.122528 
Q 63.556438 52.99968 63.268437 52.99968 
L 53.188437 52.99968 
Q 52.900437 52.99968 52.900437 53.122528 
L 52.900437 60.472889 
Q 52.900437 60.595738 53.188437 60.595738 
z
" clip-path="url(#p39f22eccc3)" style="fill: #ef4444; stroke: #ef4444; stroke-linejoin: miter"/>
   </g>
   <g id="patch_5">
    <path d="M 67.588437 70.345188 
L 77.668437 70.345188 
Q 77.956437 70.345188 77.956437 70.222339 
L 77.956437 63.637867 
Q 77.956437 63.515018 77.668437 63.515018 
L 67.588437 63.515018 
Q 67.300438 63.515018 67.300438 63.637867 
L 67.300438 70.222339 
Q 67.300438 70.345188 67.588437 70.345188 
z
" clip-path="url(#p39f22eccc3)" style="fill: #22c55e; stroke: #22c55e; stroke-linejoin: miter"/>
   </g>
   <g id="patch_6">
    <path d="M 81.988438 88.844261 
L 92.068437 88.844261 
Q 92.356437 88.844261 92.356437 88.721412 
L 92.356437 84.545511 
Q 92.356437 84.422662 92.068437 84.422662 
L 81.988438 84.422662 
Q 81.700437 84.422662 81.700437 84.545511 
L 81.700437 88.721412 
Q 81.700437 88.844261 81.988438 88.844261 
z
" clip-path="url(#p39f22eccc3)" style="fill: #22c55e; stroke: #22c55e; stroke-linejoin: miter"/>
   </g>
   <g id="patch_7">
    <path d="M 96.388437 106.912784 
L 106.468437 106.912784 
Q 106.756438 106.912784 106.756438 106.789936 
L 106.756438 103.760479 
Q 106.756438 103.63763 106.468437 103.63763 
L 96.388437 103.63763 
Q 96.100437 103.63763 96.100437 103.760479 
L 96.100437 106.789936 
Q 96.100437 106.912784 96.388437 106.912784 
z
" clip-path="url(#p39f22eccc3)" style="fill: #ef4444; stroke: #ef4444; stroke-linejoin: miter"/>
   </g>
   <g id="patch_8">
    <path d="M 110.788437 126.852574 
L 120.868437 126.852574 
Q 121.156438 126.852574 121.156438 126.729725 
L 121.156438 120.632507 
Q 121.156438 120.509658 120.868437 120.509658 
L 110.788437 120.509658 
Q 110.500438 120.509658 110.500438 120.632507 
L 110.500438 126.729725 
Q 110.500438 126.852574 110.788437 126.852574 
z
" clip-path="url(#p39f22eccc3)" style="fill: #ef4444; stroke: #ef4444; stroke-linejoin: miter"/>
   </g>
   <g id="patch_9">
    <path d="M 125.188437 118.884162 
L 135.268438 118.884162 
Q 135.556438 118.884162 135.556438 118.761313 
L 135.556438 108.293254 
Q 135.556438 108.170405 135.268438 108.170405 
L 125.188437 108.170405 
Q 124.900438 108.170405 124.900438 108.293254 
L 124.900438 118.761313 
Q 124.900438 118.884162 125.188437 118.884162 
z
" clip-path="url(#p39f22eccc3)" style="fill: #ef4444; stroke: #ef4444; stroke-linejoin: miter"/>
   </g>
   <g id="patch_10">
    <path d="M 139.588437 119.323924 
L 149.668438 119.323924 
Q 149.956437 119.323924 149.956437 119.201076 
L 149.956437 110.085077 
Q 149.956437 109.962228 149.668438 109.962228 
L 139.588437 109.962228 
Q 139.300438 109.962228 139.300438 110.085077 
L 139.300438 119.201076 
Q 139.300438 119.323924 139.588437 119.323924 
z
" clip-path="url(#p39f22eccc3)" style="fill: #22c55e; stroke: #22c55e; stroke-linejoin: miter"/>
   </g>
   <g id="patch_11">
    <path d="M 153.988438 124.818493 
L 164.068438 124.818493 
Q 164.356437 124.818493 164.356437 124.695645 
L 164.356437 112.658823 
Q 164.356437 112.535974 164.068438 112.535974 
L 153.988438 112.535974 
Q 153.700437 112.535974 153.700437 112.658823 
L 153.700437 124.695645 
Q 153.700437 124.818493 153.988438 124.818493 
z
" clip-path="url(#p39f22eccc3)" style="fill: #22c55e; stroke: #22c55e; stroke-linejoin: miter"/>
   </g>
   <g id="patch_12">
    <path d="M 168.388437 128.946075 
L 178.468438 128.946075 
Q 178.756438 128.946075 178.756438 128.823226 
L 178.756438 119.063216 
Q 178.756438 118.940367 178.468438 118.940367 
L 168.388437 118.940367 
Q 168.100437 118.940367 168.100437 119.063216 
L 168.100437 128.823226 
Q 168.100437 128.946075 168.388437 128.946075 
z
" clip-path="url(#p39f22eccc3)" style="fill: #22c55e; stroke: #22c55e; stroke-linejoin: miter"/>
   </g>
   <g id="patch_13">
    <path d="M 182.788437 142.842879 
L 192.868437 142.842879 
Q 193.156438 142.842879 193.156438 142.720031 
L 193.156438 133.756473 
Q 193.156438 133.633624 192.868437 133.633624 
L 182.788437 133.633624 
Q 182.500438 133.633624 182.500438 133.756473 
L 182.500438 142.720031 
Q 182.500438 142.842879 182.788437 142.842879 
z
" clip-path="url(#p39f22eccc3)" style="fill: #22c55e; stroke: #22c55e; stroke-linejoin: miter"/>
   </g>
   <g id="patch_14">
    <path d="M 197.188437 151.194455 
L 207.268438 151.194455 
Q 207.556438 151.194455 207.556438 151.071606 
L 207.556438 140.566048 
Q 207.556438 140.443199 207.268438 140.443199 
L 197.188437 140.443199 
Q 196.900438 140.443199 196.900438 140.566048 
L 196.900438 151.071606 
Q 196.900438 151.194455 197.188437 151.194455 
z
" clip-path="url(#p39f22eccc3)" style="fill: #22c55e; stroke: #22c55e; stroke-linejoin: miter"/>
   </g>
   <g id="patch_15">
    <path d="M 211.588437 135.268532 
L 221.668438 135.268532 
Q 221.956437 135.268532 221.956437 135.145683 
L 221.956437 131.387742 
Q 221.956437 131.264893 221.668438 131.264893 
L 211.588437 131.264893 
Q 211.300438 131.264893 211.300438 131.387742 
L 211.300438 135.145683 
Q 211.300438 135.268532 211.588437 135.268532 
z
" clip-path="url(#p39f22eccc3)" style="fill: #ef4444; stroke: #ef4444; stroke-linejoin: miter"/>
   </g>
   <g id="patch_16">
    <path d="M 225.988438 140.182643 
L 236.068438 140.182643 
Q 236.356437 140.182643 236.356437 140.059795 
L 236.356437 132.290192 
Q 236.356437 132.167343 236.068438 132.167343 
L 225.988438 132.167343 
Q 225.700437 132.167343 225.700437 132.290192 
L 225.700437 140.059795 
Q 225.700437 140.182643 225.988438 140.182643 
z
" clip-path="url(#p39f22eccc3)" style="fill: #ef4444; stroke: #ef4444; stroke-linejoin: miter"/>
   </g>
   <g id="patch_17">
    <path d="M 240.388437 169.018051 
L 250.468437 169.018051 
Q 250.756438 169.018051 250.756438 168.895202 
L 250.756438 161.435286 
Q 250.756438 161.312437 250.468437 161.312437 
L 240.388437 161.312437 
Q 240.100437 161.312437 240.100437 161.435286 
L 240.100437 168.895202 
Q 240.100437 169.018051 240.388437 169.018051 
z
" clip-path="url(#p39f22eccc3)" style="fill: #22c55e; stroke: #22c55e; stroke-linejoin: miter"/>
   </g>
   <g id="patch_18">
    <path d="M 254.788437 160.886305 
L 264.868437 160.886305 
Q 265.156437 160.886305 265.156437 160.763456 
L 265.156437 150.514214 
Q 265.156437 150.391365 264.868437 150.391365 
L 254.788437 150.391365 
Q 254.500438 150.391365 254.500438 150.514214 
L 254.500438 160.763456 
Q 254.500438 160.886305 254.788437 160.886305 
z
" clip-path="url(#p39f22eccc3)" style="fill: #22c55e; stroke: #22c55e; stroke-linejoin: miter"/>
   </g>
   <g id="patch_19">
    <path d="M 269.188437 173.127944 
L 279.268438 173.127944 
Q 279.556437 173.127944 279.556437 173.005095 
L 279.556437 169.136983 
Q 279.556437 169.014134 279.268438 169.014134 
L 269.188437 169.014134 
Q 268.900438 169.014134 268.900438 169.136983 
L 268.900438 173.005095 
Q 268.900438 173.127944 269.188437 173.127944 
z
" clip-path="url(#p39f22eccc3)" style="fill: #22c55e; stroke: #22c55e; stroke-linejoin: miter"/>
   </g>
   <g id="patch_20">
    <path d="M 283.588437 165.920444 
L 293.668437 165.920444 
Q 293.956437 165.920444 293.956437 165.797595 
L 293.956437 162.010281 
Q 293.956437 161.887432 293.668437 161.887432 
L 283.588437 161.887432 
Q 283.300437 161.887432 283.300437 162.010281 
L 283.300437 165.797595 
Q 283.300437 165.920444 283.588437 165.920444 
z
" clip-path="url(#p39f22eccc3)" style="fill: #22c55e; stroke: #22c55e; stroke-linejoin: miter"/>
   </g>
   <g id="patch_21">
    <path d="M 297.988437 168.690377 
L 308.068437 168.690377 
Q 308.356437 168.690377 308.356437 168.567528 
L 308.356437 160.442895 
Q 308.356437 160.320047 308.068437 160.320047 
L 297.988437 160.320047 
Q 297.700437 160.320047 297.700437 160.442895 
L 297.700437 168.567528 
Q 297.700437 168.690377 297.988437 168.690377 
z
" clip-path="url(#p39f22eccc3)" style="fill: #ef4444; stroke: #ef4444; stroke-linejoin: miter"/>
   </g>
   <g id="patch_22">
    <path d="M 312.388437 150.074108 
L 322.468437 150.074108 
Q 322.756437 150.074108 322.756437 149.951259 
L 322.756437 141.085382 
Q 322.756437 140.962533 322.468437 140.962533 
L 312.388437 140.962533 
Q 312.100437 140.962533 312.100437 141.085382 
L 312.100437 149.951259 
Q 312.100437 150.074108 312.388437 150.074108 
z
" clip-path="url(#p39f22eccc3)" style="fill: #22c55e; stroke: #22c55e; stroke-linejoin: miter"/>
   </g>
   <g id="patch_23">
    <path d="M 326.788437 166.394077 
L 336.868437 166.394077 
Q 337.156437 166.394077 337.156437 166.271228 
L 337.156437 158.449317 
Q 337.156437 158.326468 336.868437 158.326468 
L 326.788437 158.326468 
Q 326.500437 158.326468 326.500437 158.449317 
L 326.500437 166.271228 
Q 326.500437 166.394077 326.788437 166.394077 
z
" clip-path="url(#p39f22eccc3)" style="fill: #22c55e; stroke: #22c55e; stroke-linejoin: miter"/>
   </g>
   <g id="patch_24">
    <path d="M 341.188437 157.85658 
L 351.268437 157.85658 
Q 351.556437 157.85658 351.556437 157.733731 
L 351.556437 149.160993 
Q 351.556437 149.038144 351.268437 149.038144 
L 341.188437 149.038144 
Q 340.900437 149.038144 340.900437 149.160993 
L 340.900437 157.733731 
Q 340.900437 157.85658 341.188437 157.85658 
z
" clip-path="url(#p39f22eccc3)" style="fill: #ef4444; stroke: #ef4444; stroke-linejoin: miter"/>
   </g>
   <g id="patch_25">
    <path d="M 355.588437 162.788927 
L 365.668437 162.788927 
Q 365.956437 162.788927 365.956437 162.666078 
L 365.956437 157.82217 
Q 365.956437 157.699321 365.668437 157.699321 
L 355.588437 157.699321 
Q 355.300437 157.699321 355.300437 157.82217 
L 355.300437 162.666078 
Q 355.300437 162.788927 355.588437 162.788927 
z
" clip-path="url(#p39f22eccc3)" style="fill: #22c55e; stroke: #22c55e; stroke-linejoin: miter"/>
   </g>
   <g id="patch_26">
    <path d="M 369.988437 143.616225 
L 380.068437 143.616225 
Q 380.356437 143.616225 380.356437 143.493377 
L 380.356437 135.24617 
Q 380.356437 135.123322 380.068437 135.123322 
L 369.988437 135.123322 
Q 369.700437 135.123322 369.700437 135.24617 
L 369.700437 143.493377 
Q 369.700437 143.616225 369.988437 143.616225 
z
" clip-path="url(#p39f22eccc3)" style="fill: #22c55e; stroke: #22c55e; stroke-linejoin: miter"/>
   </g>
   <g id="patch_27">
    <path d="M 384.388437 149.497765 
L 394.468437 149.497765 
Q 394.756437 149.497765 394.756437 149.374917 
L 394.756437 141.652987 
Q 394.756437 141.530138 394.468437 141.530138 
L 384.388437 141.530138 
Q 384.100437 141.530138 384.100437 141.652987 
L 384.100437 149.374917 
Q 384.100437 149.497765 384.388437 149.497765 
z
" clip-path="url(#p39f22eccc3)" style="fill: #22c55e; stroke: #22c55e; stroke-linejoin: miter"/>
   </g>
   <g id="patch_28">
    <path d="M 398.788437 154.786928 
L 408.868437 154.786928 
Q 409.156437 154.786928 409.156437 154.664079 
L 409.156437 150.219276 
Q 409.156437 150.096427 408.868437 150.096427 
L 398.788437 150.096427 
Q 398.500437 150.096427 398.500437 150.219276 
L 398.500437 154.664079 
Q 398.500437 154.786928 398.788437 154.786928 
z
" clip-path="url(#p39f22eccc3)" style="fill: #ef4444; stroke: #ef4444; stroke-linejoin: miter"/>
   </g>
   <g id="patch_29">
    <path d="M 413.188437 159.386873 
L 423.268437 159.386873 
Q 423.556437 159.386873 423.556437 159.264024 
L 423.556437 148.93574 
Q 423.556437 148.812891 423.268437 148.812891 
L 413.188437 148.812891 
Q 412.900437 148.812891 412.900437 148.93574 
L 412.900437 159.264024 
Q 412.900437 159.386873 413.188437 159.386873 
z
" clip-path="url(#p39f22eccc3)" style="fill: #22c55e; stroke: #22c55e; stroke-linejoin: miter"/>
   </g>
   <g id="patch_30">
    <path d="M 427.588437 151.377205 
L 437.668437 151.377205 
Q 437.956437 151.377205 437.956437 151.254356 
L 437.956437 145.605499 
Q 437.956437 145.48265 437.668437 145.48265 
L 427.588437 145.48265 
Q 427.300437 145.48265 427.300437 145.605499 
L 427.300437 151.254356 
Q 427.300437 151.377205 427.588437 151.377205 
z
" clip-path="url(#p39f22eccc3)" style="fill: #22c55e; stroke: #22c55e; stroke-linejoin: miter"/>
   </g>
   <g id="patch_31">
    <path d="M 441.988437 151.725417 
L 452.068437 151.725417 
Q 452.356437 151.725417 452.356437 151.602568 
L 452.356437 140.55503 
Q 452.356437 140.432182 452.068437 140.432182 
L 441.988437 140.432182 
Q 441.700437 140.432182 441.700437 140.55503 
L 441.700437 151.602568 
Q 441.700437 151.725417 441.988437 151.725417 
z
" clip-path="url(#p39f22eccc3)" style="fill: #ef4444; stroke: #ef4444; stroke-linejoin: miter"/>
   </g>
   <g id="patch_32">
    <path d="M 456.388437 140.45681 
L 466.468437 140.45681 
Q 466.756437 140.45681 466.756437 140.333961 
L 466.756437 134.487666 
Q 466.756437 134.364818 466.468437 134.364818 
L 456.388437 134.364818 
Q 456.100437 134.364818 456.100437 134.487666 
L 456.100437 140.333961 
Q 456.100437 140.45681 456.388437 140.45681 
z
" clip-path="url(#p39f22eccc3)" style="fill: #ef4444; stroke: #ef4444; stroke-linejoin: miter"/>
   </g>
   <g id="matplotlib.axis_1">
    <g id="xtick_1">
     <g id="line2d_1">
      <path d="M 43.828437 187.061852 
L 43.828437 24.798438 
" clip-path="url(#p39f22eccc3)" style="fill: none; stroke: #374151; stroke-opacity: 0.1; stroke-width: 0.8; stroke-linecap: square"/>
     </g>
     <g id="line2d_2">
      <defs>
       <path id="me33f0c0adf" d="M 0 0 
L 0 3.5 
" style="stroke: #4b5563; stroke-width: 0.8"/>
      </defs>
      <g>
       <use xlink:href="#me33f0c0adf" x="43.828437" y="187.061852" style="fill: #4b5563; stroke: #4b5563; stroke-width: 0.8"/>
      </g>
     </g>
    </g>
    <g id="xtick_2">
     <g id="line2d_3">
      <path d="M 115.828438 187.061852 
L 115.828438 24.798438 
" clip-path="url(#p39f22eccc3)" style="fill: none; stroke: #374151; stroke-opacity: 0.1; stroke-width: 0.8; stroke-linecap: square"/>
     </g>
     <g id="line2d_4">
      <g>
       <use xlink:href="#me33f0c0adf" x="115.828438" y="187.061852" style="fill: #4b5563; stroke: #4b5563; stroke-width: 0.8"/>
      </g>
     </g>
    </g>
    <g id="xtick_3">
     <g id="line2d_5">
      <path d="M 187.828438 187.061852 
L 187.828438 24.798438 
" clip-path="url(#p39f22eccc3)" style="fill: none; stroke: #374151; stroke-opacity: 0.1; stroke-width: 0.8; stroke-linecap: square"/>
     </g>
     <g id="line2d_6">
      <g>
       <use xlink:href="#me33f0c0adf" x="187.828438" y="187.061852" style="fill: #4b5563; stroke: #4b5563; stroke-width: 0.8"/>
      </g>
     </g>
    </g>
    <g id="xtick_4">
     <g id="line2d_7">
      <path d="M 259.828437 187.061852 
L 259.828437 24.798438 
" clip-path="url(#p39f22eccc3)" style="fill: none; stroke: #374151; stroke-opacity: 0.1; stroke-width: 0.8; stroke-linecap: square"/>
     </g>
     <g id="line2d_8">
      <g>
       <use xlink:href="#me33f0c0adf" x="259.828437" y="187.061852" style="fill: #4b5563; stroke: #4b5563; stroke-width: 0.8"/>
      </g>
     </g>
    </g>
    <g id="xtick_5">
     <g id="line2d_9">
      <path d="M 331.828438 187.061852 
L 331.828438 24.798438 
" clip-path="url(#p39f22eccc3)" style="fill: none; stroke: #374151; stroke-opacity: 0.1; stroke-width: 0.8; stroke-linecap: square"/>
     </g>
     <g id="line2d_10">
      <g>
       <use xlink:href="#me33f0c0adf" x="331.828438" y="187.061852" style="fill: #4b5563; stroke: #4b5563; stroke-width: 0.8"/>
      </g>
     </g>
    </g>
    <g id="xtick_6">
     <g id="line2d_11">
      <path d="M 403.828437 187.061852 
L 403.828437 24.798438 
" clip-path="url(#p39f22eccc3)" style="fill: none; stroke: #374151; stroke-opacity: 0.1; stroke-width: 0.8; stroke-linecap: square"/>
     </g>
     <g id="line2d_12">
      <g>
       <use xlink:href="#me33f0c0adf" x="403.828437" y="187.061852" style="fill: #4b5563; stroke: #4b5563; stroke-width: 0.8"/>
      </g>
     </g>
    </g>
    <g id="xtick_7">
     <g id="line2d_13">
      <path d="M 475.828437 187.061852 
L 475.828437 24.798438 
" clip-path="url(#p39f22eccc3)" style="fill: none; stroke: #374151; stroke-opacity: 0.1; stroke-width: 0.8; stroke-linecap: square"/>
     </g>
     <g id="line2d_14">
      <g>
       <use xlink:href="#me33f0c0adf" x="475.828437" y="187.061852" style="fill: #4b5563; stroke: #4b5563; stroke-width: 0.8"/>
      </g>
     </g>
    </g>
   </g>
   <g id="matplotlib.axis_2">
    <g id="ytick_1">
     <g id="line2d_15">
      <path d="M 29.428438 169.287034 
L 475.828437 169.287034 
" clip-path="url(#p39f22eccc3)" style="fill: none; stroke: #374151; stroke-opacity: 0.1; stroke-width: 0.8; stroke-linecap: square"/>
     </g>
     <g id="line2d_16">
      <defs>
       <path id="m7fe9bff02c" d="M 0 0 
L -3.5 0 
" style="stroke: #4b5563; stroke-width: 0.8"/>
      </defs>
      <g>
       <use xlink:href="#m7fe9bff02c" x="29.428438" y="169.287034" style="fill: #4b5563; stroke: #4b5563; stroke-width: 0.8"/>
      </g>
     </g>
     <g id="text_1">
      <!-- 80 -->
      <g style="fill: #4b5563" transform="translate(13.520938 171.946487) scale(0.07 -0.07)">
       <defs>
        <path id="DejaVuSans-38" d="M 2034 2216 
Q 1584 2216 1326 1975 
Q 1069 1734 1069 1313 
Q 1069 891 1326 650 
Q 1584 409 2034 409 
Q 2484 409 2743 651 
Q 3003 894 3003 1313 
Q 3003 1734 2745 1975 
Q 2488 2216 2034 2216 
z
M 1403 2484 
Q 997 2584 770 2862 
Q 544 3141 544 3541 
Q 544 4100 942 4425 
Q 1341 4750 2034 4750 
Q 2731 4750 3128 4425 
Q 3525 4100 3525 3541 
Q 3525 3141 3298 2862 
Q 3072 2584 2669 2484 
Q 3125 2378 3379 2068 
Q 3634 1759 3634 1313 
Q 3634 634 3220 271 
Q 2806 -91 2034 -91 
Q 1263 -91 848 271 
Q 434 634 434 1313 
Q 434 1759 690 2068 
Q 947 2378 1403 2484 
z
M 1172 3481 
Q 1172 3119 1398 2916 
Q 1625 2713 2034 2713 
Q 2441 2713 2670 2916 
Q 2900 3119 2900 3481 
Q 2900 3844 2670 4047 
Q 2441 4250 2034 4250 
Q 1625 4250 1398 4047 
Q 1172 3844 1172 3481 
z
" transform="scale(0.015625)"/>
        <path id="DejaVuSans-30" d="M 2034 4250 
Q 1547 4250 1301 3770 
Q 1056 3291 1056 2328 
Q 1056 1369 1301 889 
Q 1547 409 2034 409 
Q 2525 409 2770 889 
Q 3016 1369 3016 2328 
Q 3016 3291 2770 3770 
Q 2525 4250 2034 4250 
z
M 2034 4750 
Q 2819 4750 3233 4129 
Q 3647 3509 3647 2328 
Q 3647 1150 3233 529 
Q 2819 -91 2034 -91 
Q 1250 -91 836 529 
Q 422 1150 422 2328 
Q 422 3509 836 4129 
Q 1250 4750 2034 4750 
z
" transform="scale(0.015625)"/>
       </defs>
       <use xlink:href="#DejaVuSans-38"/>
       <use xlink:href="#DejaVuSans-30" transform="translate(63.623047 0)"/>
      </g>
     </g>
    </g>
    <g id="ytick_2">
     <g id="line2d_17">
      <path d="M 29.428438 138.574836 
L 475.828437 138.574836 
" clip-path="url(#p39f22eccc3)" style="fill: none; stroke: #374151; stroke-opacity: 0.1; stroke-width: 0.8; stroke-linecap: square"/>
     </g>
     <g id="line2d_18">
      <g>
       <use xlink:href="#m7fe9bff02c" x="29.428438" y="138.574836" style="fill: #4b5563; stroke: #4b5563; stroke-width: 0.8"/>
      </g>
     </g>
     <g id="text_2">
      <!-- 85 -->
      <g style="fill: #4b5563" transform="translate(13.520938 141.234289) scale(0.07 -0.07)">
       <defs>
        <path id="DejaVuSans-35" d="M 691 4666 
L 3169 4666 
L 3169 4134 
L 1269 4134 
L 1269 2991 
Q 1406 3038 1543 3061 
Q 1681 3084 1819 3084 
Q 2600 3084 3056 2656 
Q 3513 2228 3513 1497 
Q 3513 744 3044 326 
Q 2575 -91 1722 -91 
Q 1428 -91 1123 -41 
Q 819 9 494 109 
L 494 744 
Q 775 591 1075 516 
Q 1375 441 1709 441 
Q 2250 441 2565 725 
Q 2881 1009 2881 1497 
Q 2881 1984 2565 2268 
Q 2250 2553 1709 2553 
Q 1456 2553 1204 2497 
Q 953 2441 691 2322 
L 691 4666 
z
" transform="scale(0.015625)"/>
       </defs>
       <use xlink:href="#DejaVuSans-38"/>
       <use xlink:href="#DejaVuSans-35" transform="translate(63.623047 0)"/>
      </g>
     </g>
    </g>
    <g id="ytick_3">
     <g id="line2d_19">
      <path d="M 29.428438 107.862637 
L 475.828437 107.862637 
" clip-path="url(#p39f22eccc3)" style="fill: none; stroke: #374151; stroke-opacity: 0.1; stroke-width: 0.8; stroke-linecap: square"/>
     </g>
     <g id="line2d_20">
      <g>
       <use xlink:href="#m7fe9bff02c" x="29.428438" y="107.862637" style="fill: #4b5563; stroke: #4b5563; stroke-width: 0.8"/>
      </g>
     </g>
     <g id="text_3">
      <!-- 90 -->
      <g style="fill: #4b5563" transform="translate(13.520938 110.52209) scale(0.07 -0.07)">
       <defs>
        <path id="DejaVuSans-39" d="M 703 97 
L 703 672 
Q 941 559 1184 500 
Q 1428 441 1663 441 
Q 2288 441 2617 861 
Q 2947 1281 2994 2138 
Q 2813 1869 2534 1725 
Q 2256 1581 1919 1581 
Q 1219 1581 811 2004 
Q 403 2428 403 3163 
Q 403 3881 828 4315 
Q 1253 4750 1959 4750 
Q 2769 4750 3195 4129 
Q 3622 3509 3622 2328 
Q 3622 1225 3098 567 
Q 2575 -91 1691 -91 
Q 1453 -91 1209 -44 
Q 966 3 703 97 
z
M 1959 2075 
Q 2384 2075 2632 2365 
Q 2881 2656 2881 3163 
Q 2881 3666 2632 3958 
Q 2384 4250 1959 4250 
Q 1534 4250 1286 3958 
Q 1038 3666 1038 3163 
Q 1038 2656 1286 2365 
Q 1534 2075 1959 2075 
z
" transform="scale(0.015625)"/>
       </defs>
       <use xlink:href="#DejaVuSans-39"/>
       <use xlink:href="#DejaVuSans-30" transform="translate(63.623047 0)"/>
      </g>
     </g>
    </g>
    <g id="ytick_4">
     <g id="line2d_21">
      <path d="M 29.428438 77.150439 
L 475.828437 77.150439 
" clip-path="url(#p39f22eccc3)" style="fill: none; stroke: #374151; stroke-opacity: 0.1; stroke-width: 0.8; stroke-linecap: square"/>
     </g>
     <g id="line2d_22">
      <g>
       <use xlink:href="#m7fe9bff02c" x="29.428438" y="77.150439" style="fill: #4b5563; stroke: #4b5563; stroke-width: 0.8"/>
      </g>
     </g>
     <g id="text_4">
      <!-- 95 -->
      <g style="fill: #4b5563" transform="translate(13.520938 79.809892) scale(0.07 -0.07)">
       <use xlink:href="#DejaVuSans-39"/>
       <use xlink:href="#DejaVuSans-35" transform="translate(63.623047 0)"/>
      </g>
     </g>
    </g>
    <g id="ytick_5">
     <g id="line2d_23">
      <path d="M 29.428438 46.43824 
L 475.828437 46.43824 
" clip-path="url(#p39f22eccc3)" style="fill: none; stroke: #374151; stroke-opacity: 0.1; stroke-width: 0.8; stroke-linecap: square"/>
     </g>
     <g id="line2d_24">
      <g>
       <use xlink:href="#m7fe9bff02c" x="29.428438" y="46.43824" style="fill: #4b5563; stroke: #4b5563; stroke-width: 0.8"/>
      </g>
     </g>
     <g id="text_5">
      <!-- 100 -->
      <g style="fill: #4b5563" transform="translate(9.067187 49.097693) scale(0.07 -0.07)">
       <defs>
        <path id="DejaVuSans-31" d="M 794 531 
L 1825 531 
L 1825 4091 
L 703 3866 
L 703 4441 
L 1819 4666 
L 2450 4666 
L 2450 531 
L 3481 531 
L 3481 0 
L 794 0 
L 794 531 
z
" transform="scale(0.015625)"/>
       </defs>
       <use xlink:href="#DejaVuSans-31"/>
       <use xlink:href="#DejaVuSans-30" transform="translate(63.623047 0)"/>
       <use xlink:href="#DejaVuSans-30" transform="translate(127.246094 0)"/>
      </g>
     </g>
    </g>
   </g>
   <g id="line2d_25">
    <path d="M 43.828437 58.867454 
L 43.828437 32.174047 
" clip-path="url(#p39f22eccc3)" style="fill: none; stroke: #22c55e; stroke-width: 0.8; stroke-linecap: square"/>
   </g>
   <g id="line2d_26">
    <path d="M 58.228437 62.20221 
L 58.228437 47.845428 
" clip-path="url(#p39f22eccc3)" style="fill: none; stroke: #ef4444; stroke-width: 0.8; stroke-linecap: square"/>
   </g>
   <g id="line2d_27">
    <path d="M 72.628437 74.234619 
L 72.628437 58.917173 
" clip-path="url(#p39f22eccc3)" style="fill: none; stroke: #22c55e; stroke-width: 0.8; stroke-linecap: square"/>
   </g>
   <g id="line2d_28">
    <path d="M 87.028437 96.722249 
L 87.028437 76.543749 
" clip-path="url(#p39f22eccc3)" style="fill: none; stroke: #22c55e; stroke-width: 0.8; stroke-linecap: square"/>
   </g>
   <g id="line2d_29">
    <path d="M 101.428438 111.378064 
L 101.428438 101.692158 
" clip-path="url(#p39f22eccc3)" style="fill: none; stroke: #ef4444; stroke-width: 0.8; stroke-linecap: square"/>
   </g>
   <g id="line2d_30">
    <path d="M 115.828438 131.185207 
L 115.828438 113.377389 
" clip-path="url(#p39f22eccc3)" style="fill: none; stroke: #ef4444; stroke-width: 0.8; stroke-linecap: square"/>
   </g>
   <g id="line2d_31">
    <path d="M 130.228437 124.381809 
L 130.228437 105.826102 
" clip-path="url(#p39f22eccc3)" style="fill: none; stroke: #ef4444; stroke-width: 0.8; stroke-linecap: square"/>
   </g>
   <g id="line2d_32">
    <path d="M 144.628437 122.927217 
L 144.628437 102.819006 
" clip-path="url(#p39f22eccc3)" style="fill: none; stroke: #22c55e; stroke-width: 0.8; stroke-linecap: square"/>
   </g>
   <g id="line2d_33">
    <path d="M 159.028437 133.695559 
L 159.028437 107.903239 
" clip-path="url(#p39f22eccc3)" style="fill: none; stroke: #22c55e; stroke-width: 0.8; stroke-linecap: square"/>
   </g>
   <g id="line2d_34">
    <path d="M 173.428438 132.694976 
L 173.428438 116.132991 
" clip-path="url(#p39f22eccc3)" style="fill: none; stroke: #22c55e; stroke-width: 0.8; stroke-linecap: square"/>
   </g>
   <g id="line2d_35">
    <path d="M 187.828438 143.722583 
L 187.828438 130.074406 
" clip-path="url(#p39f22eccc3)" style="fill: none; stroke: #22c55e; stroke-width: 0.8; stroke-linecap: square"/>
   </g>
   <g id="line2d_36">
    <path d="M 202.228437 153.056903 
L 202.228437 139.661168 
" clip-path="url(#p39f22eccc3)" style="fill: none; stroke: #22c55e; stroke-width: 0.8; stroke-linecap: square"/>
   </g>
   <g id="line2d_37">
    <path d="M 216.628437 136.527622 
L 216.628437 130.702798 
" clip-path="url(#p39f22eccc3)" style="fill: none; stroke: #ef4444; stroke-width: 0.8; stroke-linecap: square"/>
   </g>
   <g id="line2d_38">
    <path d="M 231.028437 141.275081 
L 231.028437 124.258323 
" clip-path="url(#p39f22eccc3)" style="fill: none; stroke: #ef4444; stroke-width: 0.8; stroke-linecap: square"/>
   </g>
   <g id="line2d_39">
    <path d="M 245.428437 171.747729 
L 245.428437 157.315971 
" clip-path="url(#p39f22eccc3)" style="fill: none; stroke: #22c55e; stroke-width: 0.8; stroke-linecap: square"/>
   </g>
   <g id="line2d_40">
    <path d="M 259.828437 168.402072 
L 259.828437 146.545263 
" clip-path="url(#p39f22eccc3)" style="fill: none; stroke: #22c55e; stroke-width: 0.8; stroke-linecap: square"/>
   </g>
   <g id="line2d_41">
    <path d="M 274.228437 179.686242 
L 274.228437 164.39325 
" clip-path="url(#p39f22eccc3)" style="fill: none; stroke: #22c55e; stroke-width: 0.8; stroke-linecap: square"/>
   </g>
   <g id="line2d_42">
    <path d="M 288.628437 166.981197 
L 288.628437 159.862517 
" clip-path="url(#p39f22eccc3)" style="fill: none; stroke: #22c55e; stroke-width: 0.8; stroke-linecap: square"/>
   </g>
   <g id="line2d_43">
    <path d="M 303.028437 175.142025 
L 303.028437 157.257708 
" clip-path="url(#p39f22eccc3)" style="fill: none; stroke: #ef4444; stroke-width: 0.8; stroke-linecap: square"/>
   </g>
   <g id="line2d_44">
    <path d="M 317.428437 153.001571 
L 317.428437 138.175765 
" clip-path="url(#p39f22eccc3)" style="fill: none; stroke: #22c55e; stroke-width: 0.8; stroke-linecap: square"/>
   </g>
   <g id="line2d_45">
    <path d="M 331.828438 172.719776 
L 331.828438 154.317429 
" clip-path="url(#p39f22eccc3)" style="fill: none; stroke: #22c55e; stroke-width: 0.8; stroke-linecap: square"/>
   </g>
   <g id="line2d_46">
    <path d="M 346.228437 158.998207 
L 346.228437 142.126988 
" clip-path="url(#p39f22eccc3)" style="fill: none; stroke: #ef4444; stroke-width: 0.8; stroke-linecap: square"/>
   </g>
   <g id="line2d_47">
    <path d="M 360.628437 166.781165 
L 360.628437 155.141181 
" clip-path="url(#p39f22eccc3)" style="fill: none; stroke: #22c55e; stroke-width: 0.8; stroke-linecap: square"/>
   </g>
   <g id="line2d_48">
    <path d="M 375.028437 144.121921 
L 375.028437 134.379491 
" clip-path="url(#p39f22eccc3)" style="fill: none; stroke: #22c55e; stroke-width: 0.8; stroke-linecap: square"/>
   </g>
   <g id="line2d_49">
    <path d="M 389.428437 158.282773 
L 389.428437 139.210099 
" clip-path="url(#p39f22eccc3)" style="fill: none; stroke: #22c55e; stroke-width: 0.8; stroke-linecap: square"/>
   </g>
   <g id="line2d_50">
    <path d="M 403.828437 159.578337 
L 403.828437 147.491819 
" clip-path="url(#p39f22eccc3)" style="fill: none; stroke: #ef4444; stroke-width: 0.8; stroke-linecap: square"/>
   </g>
   <g id="line2d_51">
    <path d="M 418.228437 162.766738 
L 418.228437 141.009228 
" clip-path="url(#p39f22eccc3)" style="fill: none; stroke: #22c55e; stroke-width: 0.8; stroke-linecap: square"/>
   </g>
   <g id="line2d_52">
    <path d="M 432.628437 152.258609 
L 432.628437 141.442676 
" clip-path="url(#p39f22eccc3)" style="fill: none; stroke: #22c55e; stroke-width: 0.8; stroke-linecap: square"/>
   </g>
   <g id="line2d_53">
    <path d="M 447.028437 157.048782 
L 447.028437 134.598562 
" clip-path="url(#p39f22eccc3)" style="fill: none; stroke: #ef4444; stroke-width: 0.8; stroke-linecap: square"/>
   </g>
   <g id="line2d_54">
    <path d="M 461.428437 141.184495 
L 461.428437 125.908529 
" clip-path="url(#p39f22eccc3)" style="fill: none; stroke: #ef4444; stroke-width: 0.8; stroke-linecap: square"/>
   </g>
   <g id="patch_33">
    <path d="M 29.428438 187.061852 
L 29.428438 24.798437 
" style="fill: none; stroke: #1f2937; stroke-width: 0.8; stroke-linejoin: miter; stroke-linecap: square"/>
   </g>
   <g id="patch_34">
    <path d="M 29.428438 187.061852 
L 475.828437 187.061852 
" style="fill: none; stroke: #1f2937; stroke-width: 0.8; stroke-linejoin: miter; stroke-linecap: square"/>
   </g>
   <g id="text_6">
    <!-- Piercing Line — AMD 15m -->
    <g style="fill: #ffffff" transform="translate(180.59875 14.798438) scale(0.1 -0.1)">
     <defs>
      <path id="DejaVuSans-Bold-50" d="M 588 4666 
L 2584 4666 
Q 3475 4666 3951 4270 
Q 4428 3875 4428 3144 
Q 4428 2409 3951 2014 
Q 3475 1619 2584 1619 
L 1791 1619 
L 1791 0 
L 588 0 
L 588 4666 
z
M 1791 3794 
L 1791 2491 
L 2456 2491 
Q 2806 2491 2997 2661 
Q 3188 2831 3188 3144 
Q 3188 3456 2997 3625 
Q 2806 3794 2456 3794 
L 1791 3794 
z
" transform="scale(0.015625)"/>
      <path id="DejaVuSans-Bold-69" d="M 538 3500 
L 1656 3500 
L 1656 0 
L 538 0 
L 538 3500 
z
M 538 4863 
L 1656 4863 
L 1656 3950 
L 538 3950 
L 538 4863 
z
" transform="scale(0.015625)"/>
      <path id="DejaVuSans-Bold-65" d="M 4031 1759 
L 4031 1441 
L 1416 1441 
Q 1456 1047 1700 850 
Q 1944 653 2381 653 
Q 2734 653 3104 758 
Q 3475 863 3866 1075 
L 3866 213 
Q 3469 63 3072 -14 
Q 2675 -91 2278 -91 
Q 1328 -91 801 392 
Q 275 875 275 1747 
Q 275 2603 792 3093 
Q 1309 3584 2216 3584 
Q 3041 3584 3536 3087 
Q 4031 2591 4031 1759 
z
M 2881 2131 
Q 2881 2450 2695 2645 
Q 2509 2841 2209 2841 
Q 1884 2841 1681 2658 
Q 1478 2475 1428 2131 
L 2881 2131 
z
" transform="scale(0.015625)"/>
      <path id="DejaVuSans-Bold-72" d="M 3138 2547 
Q 2991 2616 2845 2648 
Q 2700 2681 2553 2681 
Q 2122 2681 1889 2404 
Q 1656 2128 1656 1613 
L 1656 0 
L 538 0 
L 538 3500 
L 1656 3500 
L 1656 2925 
Q 1872 3269 2151 3426 
Q 2431 3584 2822 3584 
Q 2878 3584 2943 3579 
Q 3009 3575 3134 3559 
L 3138 2547 
z
" transform="scale(0.015625)"/>
      <path id="DejaVuSans-Bold-63" d="M 3366 3391 
L 3366 2478 
Q 3138 2634 2908 2709 
Q 2678 2784 2431 2784 
Q 1963 2784 1702 2511 
Q 1441 2238 1441 1747 
Q 1441 1256 1702 982 
Q 1963 709 2431 709 
Q 2694 709 2930 787 
Q 3166 866 3366 1019 
L 3366 103 
Q 3103 6 2833 -42 
Q 2563 -91 2291 -91 
Q 1344 -91 809 395 
Q 275 881 275 1747 
Q 275 2613 809 3098 
Q 1344 3584 2291 3584 
Q 2566 3584 2833 3536 
Q 3100 3488 3366 3391 
z
" transform="scale(0.015625)"/>
      <path id="DejaVuSans-Bold-6e" d="M 4056 2131 
L 4056 0 
L 2931 0 
L 2931 347 
L 2931 1631 
Q 2931 2084 2911 2256 
Q 2891 2428 2841 2509 
Q 2775 2619 2662 2680 
Q 2550 2741 2406 2741 
Q 2056 2741 1856 2470 
Q 1656 2200 1656 1722 
L 1656 0 
L 538 0 
L 538 3500 
L 1656 3500 
L 1656 2988 
Q 1909 3294 2193 3439 
Q 2478 3584 2822 3584 
Q 3428 3584 3742 3212 
Q 4056 2841 4056 2131 
z
" transform="scale(0.015625)"/>
      <path id="DejaVuSans-Bold-67" d="M 2919 594 
Q 2688 288 2409 144 
Q 2131 0 1766 0 
Q 1125 0 706 504 
Q 288 1009 288 1791 
Q 288 2575 706 3076 
Q 1125 3578 1766 3578 
Q 2131 3578 2409 3434 
Q 2688 3291 2919 2981 
L 2919 3500 
L 4044 3500 
L 4044 353 
Q 4044 -491 3511 -936 
Q 2978 -1381 1966 -1381 
Q 1638 -1381 1331 -1331 
Q 1025 -1281 716 -1178 
L 716 -306 
Q 1009 -475 1290 -558 
Q 1572 -641 1856 -641 
Q 2406 -641 2662 -400 
Q 2919 -159 2919 353 
L 2919 594 
z
M 2181 2772 
Q 1834 2772 1640 2515 
Q 1447 2259 1447 1791 
Q 1447 1309 1634 1061 
Q 1822 813 2181 813 
Q 2531 813 2725 1069 
Q 2919 1325 2919 1791 
Q 2919 2259 2725 2515 
Q 2531 2772 2181 2772 
z
" transform="scale(0.015625)"/>
      <path id="DejaVuSans-Bold-20" transform="scale(0.015625)"/>
      <path id="DejaVuSans-Bold-4c" d="M 588 4666 
L 1791 4666 
L 1791 909 
L 3903 909 
L 3903 0 
L 588 0 
L 588 4666 
z
" transform="scale(0.015625)"/>
      <path id="DejaVuSans-Bold-2014" d="M 344 2156 
L 6056 2156 
L 6056 1350 
L 344 1350 
L 344 2156 
z
" transform="scale(0.015625)"/>
      <path id="DejaVuSans-Bold-41" d="M 3419 850 
L 1538 850 
L 1241 0 
L 31 0 
L 1759 4666 
L 3194 4666 
L 4922 0 
L 3713 0 
L 3419 850 
z
M 1838 1716 
L 3116 1716 
L 2478 3572 
L 1838 1716 
z
" transform="scale(0.015625)"/>
      <path id="DejaVuSans-Bold-4d" d="M 588 4666 
L 2119 4666 
L 3181 2169 
L 4250 4666 
L 5778 4666 
L 5778 0 
L 4641 0 
L 4641 3413 
L 3566 897 
L 2803 897 
L 1728 3413 
L 1728 0 
L 588 0 
L 588 4666 
z
" transform="scale(0.015625)"/>
      <path id="DejaVuSans-Bold-44" d="M 1791 3756 
L 1791 909 
L 2222 909 
Q 2959 909 3348 1275 
Q 3738 1641 3738 2338 
Q 3738 3031 3350 3393 
Q 2963 3756 2222 3756 
L 1791 3756 
z
M 588 4666 
L 1856 4666 
Q 2919 4666 3439 4514 
Q 3959 4363 4331 4000 
Q 4659 3684 4818 3271 
Q 4978 2859 4978 2338 
Q 4978 1809 4818 1395 
Q 4659 981 4331 666 
Q 3956 303 3431 151 
Q 2906 0 1856 0 
L 588 0 
L 588 4666 
z
" transform="scale(0.015625)"/>
      <path id="DejaVuSans-Bold-31" d="M 750 831 
L 1813 831 
L 1813 3847 
L 722 3622 
L 722 4441 
L 1806 4666 
L 2950 4666 
L 2950 831 
L 4013 831 
L 4013 0 
L 750 0 
L 750 831 
z
" transform="scale(0.015625)"/>
      <path id="DejaVuSans-Bold-35" d="M 678 4666 
L 3669 4666 
L 3669 3781 
L 1638 3781 
L 1638 3059 
Q 1775 3097 1914 3117 
Q 2053 3138 2203 3138 
Q 3056 3138 3531 2711 
Q 4006 2284 4006 1522 
Q 4006 766 3489 337 
Q 2972 -91 2053 -91 
Q 1656 -91 1267 -14 
Q 878 63 494 219 
L 494 1166 
Q 875 947 1217 837 
Q 1559 728 1863 728 
Q 2300 728 2551 942 
Q 2803 1156 2803 1522 
Q 2803 1891 2551 2103 
Q 2300 2316 1863 2316 
Q 1603 2316 1309 2248 
Q 1016 2181 678 2041 
L 678 4666 
z
" transform="scale(0.015625)"/>
      <path id="DejaVuSans-Bold-6d" d="M 3781 2919 
Q 3994 3244 4286 3414 
Q 4578 3584 4928 3584 
Q 5531 3584 5847 3212 
Q 6163 2841 6163 2131 
L 6163 0 
L 5038 0 
L 5038 1825 
Q 5041 1866 5042 1909 
Q 5044 1953 5044 2034 
Q 5044 2406 4934 2573 
Q 4825 2741 4581 2741 
Q 4263 2741 4089 2478 
Q 3916 2216 3909 1719 
L 3909 0 
L 2784 0 
L 2784 1825 
Q 2784 2406 2684 2573 
Q 2584 2741 2328 2741 
Q 2006 2741 1831 2477 
Q 1656 2213 1656 1722 
L 1656 0 
L 531 0 
L 531 3500 
L 1656 3500 
L 1656 2988 
Q 1863 3284 2130 3434 
Q 2397 3584 2719 3584 
Q 3081 3584 3359 3409 
Q 3638 3234 3781 2919 
z
" transform="scale(0.015625)"/>
     </defs>
     <use xlink:href="#DejaVuSans-Bold-50"/>
     <use xlink:href="#DejaVuSans-Bold-69" transform="translate(73.291016 0)"/>
     <use xlink:href="#DejaVuSans-Bold-65" transform="translate(107.568359 0)"/>
     <use xlink:href="#DejaVuSans-Bold-72" transform="translate(175.390625 0)"/>
     <use xlink:href="#DejaVuSans-Bold-63" transform="translate(224.707031 0)"/>
     <use xlink:href="#DejaVuSans-Bold-69" transform="translate(283.984375 0)"/>
     <use xlink:href="#DejaVuSans-Bold-6e" transform="translate(318.261719 0)"/>
     <use xlink:href="#DejaVuSans-Bold-67" transform="translate(389.453125 0)"/>
     <use xlink:href="#DejaVuSans-Bold-20" transform="translate(461.035156 0)"/>
     <use xlink:href="#DejaVuSans-Bold-4c" transform="translate(495.849609 0)"/>
     <use xlink:href="#DejaVuSans-Bold-69" transform="translate(559.570312 0)"/>
     <use xlink:href="#DejaVuSans-Bold-6e" transform="translate(593.847656 0)"/>
     <use xlink:href="#DejaVuSans-Bold-65" transform="translate(665.039062 0)"/>
     <use xlink:href="#DejaVuSans-Bold-20" transform="translate(732.861328 0)"/>
     <use xlink:href="#DejaVuSans-Bold-2014" transform="translate(767.675781 0)"/>
     <use xlink:href="#DejaVuSans-Bold-20" transform="translate(867.675781 0)"/>
     <use xlink:href="#DejaVuSans-Bold-41" transform="translate(902.490234 0)"/>
     <use xlink:href="#DejaVuSans-Bold-4d" transform="translate(979.882812 0)"/>
     <use xlink:href="#DejaVuSans-Bold-44" transform="translate(1079.394531 0)"/>
     <use xlink:href="#DejaVuSans-Bold-20" transform="translate(1162.402344 0)"/>
     <use xlink:href="#DejaVuSans-Bold-31" transform="translate(1197.216797 0)"/>
     <use xlink:href="#DejaVuSans-Bold-35" transform="translate(1266.796875 0)"/>
     <use xlink:href="#DejaVuSans-Bold-6d" transform="translate(1336.376953 0)"/>
    </g>
   </g>
  </g>
  <g id="axes_2">
   <g id="patch_35">
    <path d="M 29.428438 246.558438 
L 475.828437 246.558438 
L 475.828437 192.470633 
L 29.428438 192.470633 
z
" style="fill: #0a0f1a"/>
   </g>
   <g id="patch_36">
    <path d="M 49.719347 246.558438 
L 59.284085 246.558438 
L 59.284085 233.294962 
L 49.719347 233.294962 
z
" clip-path="url(#p52a9270aa9)" style="fill: #22c55e; fill-opacity: 0.533333"/>
   </g>
   <g id="patch_37">
    <path d="M 63.383258 246.558438 
L 72.947997 246.558438 
L 72.947997 207.236393 
L 63.383258 207.236393 
z
" clip-path="url(#p52a9270aa9)" style="fill: #ef4444; fill-opacity: 0.533333"/>
   </g>
   <g id="patch_38">
    <path d="M 77.04717 246.558438 
L 86.611909 246.558438 
L 86.611909 201.609424 
L 77.04717 201.609424 
z
" clip-path="url(#p52a9270aa9)" style="fill: #22c55e; fill-opacity: 0.533333"/>
   </g>
   <g id="patch_39">
    <path d="M 90.711082 246.558438 
L 100.27582 246.558438 
L 100.27582 210.184774 
L 90.711082 210.184774 
z
" clip-path="url(#p52a9270aa9)" style="fill: #22c55e; fill-opacity: 0.533333"/>
   </g>
   <g id="patch_40">
    <path d="M 104.374994 246.558438 
L 113.939732 246.558438 
L 113.939732 234.833857 
L 104.374994 234.833857 
z
" clip-path="url(#p52a9270aa9)" style="fill: #ef4444; fill-opacity: 0.533333"/>
   </g>
   <g id="patch_41">
    <path d="M 118.038906 246.558438 
L 127.603644 246.558438 
L 127.603644 209.256128 
L 118.038906 209.256128 
z
" clip-path="url(#p52a9270aa9)" style="fill: #ef4444; fill-opacity: 0.533333"/>
   </g>
   <g id="patch_42">
    <path d="M 131.702818 246.558438 
L 141.267556 246.558438 
L 141.267556 226.972216 
L 131.702818 226.972216 
z
" clip-path="url(#p52a9270aa9)" style="fill: #ef4444; fill-opacity: 0.533333"/>
   </g>
   <g id="patch_43">
    <path d="M 145.36673 246.558438 
L 154.931468 246.558438 
L 154.931468 215.068665 
L 145.36673 215.068665 
z
" clip-path="url(#p52a9270aa9)" style="fill: #22c55e; fill-opacity: 0.533333"/>
   </g>
   <g id="patch_44">
    <path d="M 159.030641 246.558438 
L 168.59538 246.558438 
L 168.59538 216.37616 
L 159.030641 216.37616 
z
" clip-path="url(#p52a9270aa9)" style="fill: #22c55e; fill-opacity: 0.533333"/>
   </g>
   <g id="patch_45">
    <path d="M 172.694553 246.558438 
L 182.259291 246.558438 
L 182.259291 229.864461 
L 172.694553 229.864461 
z
" clip-path="url(#p52a9270aa9)" style="fill: #22c55e; fill-opacity: 0.533333"/>
   </g>
   <g id="patch_46">
    <path d="M 186.358465 246.558438 
L 195.923203 246.558438 
L 195.923203 204.197146 
L 186.358465 204.197146 
z
" clip-path="url(#p52a9270aa9)" style="fill: #22c55e; fill-opacity: 0.533333"/>
   </g>
   <g id="patch_47">
    <path d="M 200.022377 246.558438 
L 209.587115 246.558438 
L 209.587115 220.508586 
L 200.022377 220.508586 
z
" clip-path="url(#p52a9270aa9)" style="fill: #22c55e; fill-opacity: 0.533333"/>
   </g>
   <g id="patch_48">
    <path d="M 213.686289 246.558438 
L 223.251027 246.558438 
L 223.251027 203.545732 
L 213.686289 203.545732 
z
" clip-path="url(#p52a9270aa9)" style="fill: #ef4444; fill-opacity: 0.533333"/>
   </g>
   <g id="patch_49">
    <path d="M 227.350201 246.558438 
L 236.914939 246.558438 
L 236.914939 200.099268 
L 227.350201 200.099268 
z
" clip-path="url(#p52a9270aa9)" style="fill: #ef4444; fill-opacity: 0.533333"/>
   </g>
   <g id="patch_50">
    <path d="M 241.014112 246.558438 
L 250.578851 246.558438 
L 250.578851 213.203135 
L 241.014112 213.203135 
z
" clip-path="url(#p52a9270aa9)" style="fill: #22c55e; fill-opacity: 0.533333"/>
   </g>
   <g id="patch_51">
    <path d="M 254.678024 246.558438 
L 264.242763 246.558438 
L 264.242763 208.036791 
L 254.678024 208.036791 
z
" clip-path="url(#p52a9270aa9)" style="fill: #22c55e; fill-opacity: 0.533333"/>
   </g>
   <g id="patch_52">
    <path d="M 268.341936 246.558438 
L 277.906674 246.558438 
L 277.906674 208.164325 
L 268.341936 208.164325 
z
" clip-path="url(#p52a9270aa9)" style="fill: #22c55e; fill-opacity: 0.533333"/>
   </g>
   <g id="patch_53">
    <path d="M 282.005848 246.558438 
L 291.570586 246.558438 
L 291.570586 197.585298 
L 282.005848 197.585298 
z
" clip-path="url(#p52a9270aa9)" style="fill: #22c55e; fill-opacity: 0.533333"/>
   </g>
   <g id="patch_54">
    <path d="M 295.66976 246.558438 
L 305.234498 246.558438 
L 305.234498 195.046242 
L 295.66976 195.046242 
z
" clip-path="url(#p52a9270aa9)" style="fill: #ef4444; fill-opacity: 0.533333"/>
   </g>
   <g id="patch_55">
    <path d="M 309.333672 246.558438 
L 318.89841 246.558438 
L 318.89841 214.600228 
L 309.333672 214.600228 
z
" clip-path="url(#p52a9270aa9)" style="fill: #22c55e; fill-opacity: 0.533333"/>
   </g>
   <g id="patch_56">
    <path d="M 322.997584 246.558438 
L 332.562322 246.558438 
L 332.562322 195.224393 
L 322.997584 195.224393 
z
" clip-path="url(#p52a9270aa9)" style="fill: #22c55e; fill-opacity: 0.533333"/>
   </g>
   <g id="patch_57">
    <path d="M 336.661495 246.558438 
L 346.226234 246.558438 
L 346.226234 233.336734 
L 336.661495 233.336734 
z
" clip-path="url(#p52a9270aa9)" style="fill: #ef4444; fill-opacity: 0.533333"/>
   </g>
   <g id="patch_58">
    <path d="M 350.325407 246.558438 
L 359.890145 246.558438 
L 359.890145 224.871718 
L 350.325407 224.871718 
z
" clip-path="url(#p52a9270aa9)" style="fill: #22c55e; fill-opacity: 0.533333"/>
   </g>
   <g id="patch_59">
    <path d="M 363.989319 246.558438 
L 373.554057 246.558438 
L 373.554057 235.604088 
L 363.989319 235.604088 
z
" clip-path="url(#p52a9270aa9)" style="fill: #22c55e; fill-opacity: 0.533333"/>
   </g>
   <g id="patch_60">
    <path d="M 377.653231 246.558438 
L 387.217969 246.558438 
L 387.217969 234.1647 
L 377.653231 234.1647 
z
" clip-path="url(#p52a9270aa9)" style="fill: #22c55e; fill-opacity: 0.533333"/>
   </g>
   <g id="patch_61">
    <path d="M 391.317143 246.558438 
L 400.881881 246.558438 
L 400.881881 220.435921 
L 391.317143 220.435921 
z
" clip-path="url(#p52a9270aa9)" style="fill: #ef4444; fill-opacity: 0.533333"/>
   </g>
   <g id="patch_62">
    <path d="M 404.981055 246.558438 
L 414.545793 246.558438 
L 414.545793 214.136076 
L 404.981055 214.136076 
z
" clip-path="url(#p52a9270aa9)" style="fill: #22c55e; fill-opacity: 0.533333"/>
   </g>
   <g id="patch_63">
    <path d="M 418.644966 246.558438 
L 428.209705 246.558438 
L 428.209705 206.470819 
L 418.644966 206.470819 
z
" clip-path="url(#p52a9270aa9)" style="fill: #22c55e; fill-opacity: 0.533333"/>
   </g>
   <g id="patch_64">
    <path d="M 432.308878 246.558438 
L 441.873617 246.558438 
L 441.873617 211.157015 
L 432.308878 211.157015 
z
" clip-path="url(#p52a9270aa9)" style="fill: #ef4444; fill-opacity: 0.533333"/>
   </g>
   <g id="patch_65">
    <path d="M 445.97279 246.558438 
L 455.537528 246.558438 
L 455.537528 213.750172 
L 445.97279 213.750172 
z
" clip-path="url(#p52a9270aa9)" style="fill: #ef4444; fill-opacity: 0.533333"/>
   </g>
   <g id="matplotlib.axis_3">
    <g id="xtick_8">
     <g id="line2d_55">
      <path d="M 54.501716 246.558438 
L 54.501716 192.470633 
" clip-path="url(#p52a9270aa9)" style="fill: none; stroke: #374151; stroke-opacity: 0.1; stroke-width: 0.8; stroke-linecap: square"/>
     </g>
     <g id="line2d_56">
      <g>
       <use xlink:href="#me33f0c0adf" x="54.501716" y="246.558438" style="fill: #4b5563; stroke: #4b5563; stroke-width: 0.8"/>
      </g>
     </g>
     <g id="text_7">
      <!-- 0 -->
      <g style="fill: #4b5563" transform="translate(52.274841 258.877344) scale(0.07 -0.07)">
       <use xlink:href="#DejaVuSans-30"/>
      </g>
     </g>
    </g>
    <g id="xtick_9">
     <g id="line2d_57">
      <path d="M 122.821275 246.558438 
L 122.821275 192.470633 
" clip-path="url(#p52a9270aa9)" style="fill: none; stroke: #374151; stroke-opacity: 0.1; stroke-width: 0.8; stroke-linecap: square"/>
     </g>
     <g id="line2d_58">
      <g>
       <use xlink:href="#me33f0c0adf" x="122.821275" y="246.558438" style="fill: #4b5563; stroke: #4b5563; stroke-width: 0.8"/>
      </g>
     </g>
     <g id="text_8">
      <!-- 5 -->
      <g style="fill: #4b5563" transform="translate(120.5944 258.877344) scale(0.07 -0.07)">
       <use xlink:href="#DejaVuSans-35"/>
      </g>
     </g>
    </g>
    <g id="xtick_10">
     <g id="line2d_59">
      <path d="M 191.140834 246.558438 
L 191.140834 192.470633 
" clip-path="url(#p52a9270aa9)" style="fill: none; stroke: #374151; stroke-opacity: 0.1; stroke-width: 0.8; stroke-linecap: square"/>
     </g>
     <g id="line2d_60">
      <g>
       <use xlink:href="#me33f0c0adf" x="191.140834" y="246.558438" style="fill: #4b5563; stroke: #4b5563; stroke-width: 0.8"/>
      </g>
     </g>
     <g id="text_9">
      <!-- 10 -->
      <g style="fill: #4b5563" transform="translate(186.687084 258.877344) scale(0.07 -0.07)">
       <use xlink:href="#DejaVuSans-31"/>
       <use xlink:href="#DejaVuSans-30" transform="translate(63.623047 0)"/>
      </g>
     </g>
    </g>
    <g id="xtick_11">
     <g id="line2d_61">
      <path d="M 259.460393 246.558438 
L 259.460393 192.470633 
" clip-path="url(#p52a9270aa9)" style="fill: none; stroke: #374151; stroke-opacity: 0.1; stroke-width: 0.8; stroke-linecap: square"/>
     </g>
     <g id="line2d_62">
      <g>
       <use xlink:href="#me33f0c0adf" x="259.460393" y="246.558438" style="fill: #4b5563; stroke: #4b5563; stroke-width: 0.8"/>
      </g>
     </g>
     <g id="text_10">
      <!-- 15 -->
      <g style="fill: #4b5563" transform="translate(255.006643 258.877344) scale(0.07 -0.07)">
       <use xlink:href="#DejaVuSans-31"/>
       <use xlink:href="#DejaVuSans-35" transform="translate(63.623047 0)"/>
      </g>
     </g>
    </g>
    <g id="xtick_12">
     <g id="line2d_63">
      <path d="M 327.779953 246.558438 
L 327.779953 192.470633 
" clip-path="url(#p52a9270aa9)" style="fill: none; stroke: #374151; stroke-opacity: 0.1; stroke-width: 0.8; stroke-linecap: square"/>
     </g>
     <g id="line2d_64">
      <g>
       <use xlink:href="#me33f0c0adf" x="327.779953" y="246.558438" style="fill: #4b5563; stroke: #4b5563; stroke-width: 0.8"/>
      </g>
     </g>
     <g id="text_11">
      <!-- 20 -->
      <g style="fill: #4b5563" transform="translate(323.326203 258.877344) scale(0.07 -0.07)">
       <defs>
        <path id="DejaVuSans-32" d="M 1228 531 
L 3431 531 
L 3431 0 
L 469 0 
L 469 531 
Q 828 903 1448 1529 
Q 2069 2156 2228 2338 
Q 2531 2678 2651 2914 
Q 2772 3150 2772 3378 
Q 2772 3750 2511 3984 
Q 2250 4219 1831 4219 
Q 1534 4219 1204 4116 
Q 875 4013 500 3803 
L 500 4441 
Q 881 4594 1212 4672 
Q 1544 4750 1819 4750 
Q 2544 4750 2975 4387 
Q 3406 4025 3406 3419 
Q 3406 3131 3298 2873 
Q 3191 2616 2906 2266 
Q 2828 2175 2409 1742 
Q 1991 1309 1228 531 
z
" transform="scale(0.015625)"/>
       </defs>
       <use xlink:href="#DejaVuSans-32"/>
       <use xlink:href="#DejaVuSans-30" transform="translate(63.623047 0)"/>
      </g>
     </g>
    </g>
    <g id="xtick_13">
     <g id="line2d_65">
      <path d="M 396.099512 246.558438 
L 396.099512 192.470633 
" clip-path="url(#p52a9270aa9)" style="fill: none; stroke: #374151; stroke-opacity: 0.1; stroke-width: 0.8; stroke-linecap: square"/>
     </g>
     <g id="line2d_66">
      <g>
       <use xlink:href="#me33f0c0adf" x="396.099512" y="246.558438" style="fill: #4b5563; stroke: #4b5563; stroke-width: 0.8"/>
      </g>
     </g>
     <g id="text_12">
      <!-- 25 -->
      <g style="fill: #4b5563" transform="translate(391.645762 258.877344) scale(0.07 -0.07)">
       <use xlink:href="#DejaVuSans-32"/>
       <use xlink:href="#DejaVuSans-35" transform="translate(63.623047 0)"/>
      </g>
     </g>
    </g>
    <g id="xtick_14">
     <g id="line2d_67">
      <path d="M 464.419071 246.558438 
L 464.419071 192.470633 
" clip-path="url(#p52a9270aa9)" style="fill: none; stroke: #374151; stroke-opacity: 0.1; stroke-width: 0.8; stroke-linecap: square"/>
     </g>
     <g id="line2d_68">
      <g>
       <use xlink:href="#me33f0c0adf" x="464.419071" y="246.558438" style="fill: #4b5563; stroke: #4b5563; stroke-width: 0.8"/>
      </g>
     </g>
     <g id="text_13">
      <!-- 30 -->
      <g style="fill: #4b5563" transform="translate(459.965321 258.877344) scale(0.07 -0.07)">
       <defs>
        <path id="DejaVuSans-33" d="M 2597 2516 
Q 3050 2419 3304 2112 
Q 3559 1806 3559 1356 
Q 3559 666 3084 287 
Q 2609 -91 1734 -91 
Q 1441 -91 1130 -33 
Q 819 25 488 141 
L 488 750 
Q 750 597 1062 519 
Q 1375 441 1716 441 
Q 2309 441 2620 675 
Q 2931 909 2931 1356 
Q 2931 1769 2642 2001 
Q 2353 2234 1838 2234 
L 1294 2234 
L 1294 2753 
L 1863 2753 
Q 2328 2753 2575 2939 
Q 2822 3125 2822 3475 
Q 2822 3834 2567 4026 
Q 2313 4219 1838 4219 
Q 1578 4219 1281 4162 
Q 984 4106 628 3988 
L 628 4550 
Q 988 4650 1302 4700 
Q 1616 4750 1894 4750 
Q 2613 4750 3031 4423 
Q 3450 4097 3450 3541 
Q 3450 3153 3228 2886 
Q 3006 2619 2597 2516 
z
" transform="scale(0.015625)"/>
       </defs>
       <use xlink:href="#DejaVuSans-33"/>
       <use xlink:href="#DejaVuSans-30" transform="translate(63.623047 0)"/>
      </g>
     </g>
    </g>
   </g>
   <g id="matplotlib.axis_4">
    <g id="ytick_6">
     <g id="line2d_69">
      <path d="M 29.428438 246.558438 
L 475.828437 246.558438 
" clip-path="url(#p52a9270aa9)" style="fill: none; stroke: #374151; stroke-opacity: 0.1; stroke-width: 0.8; stroke-linecap: square"/>
     </g>
     <g id="line2d_70">
      <g>
       <use xlink:href="#m7fe9bff02c" x="29.428438" y="246.558438" style="fill: #4b5563; stroke: #4b5563; stroke-width: 0.8"/>
      </g>
     </g>
     <g id="text_14">
      <!-- 0 -->
      <g style="fill: #4b5563" transform="translate(17.974688 249.217891) scale(0.07 -0.07)">
       <use xlink:href="#DejaVuSans-30"/>
      </g>
     </g>
    </g>
    <g id="ytick_7">
     <g id="line2d_71">
      <path d="M 29.428438 225.246017 
L 475.828437 225.246017 
" clip-path="url(#p52a9270aa9)" style="fill: none; stroke: #374151; stroke-opacity: 0.1; stroke-width: 0.8; stroke-linecap: square"/>
     </g>
     <g id="line2d_72">
      <g>
       <use xlink:href="#m7fe9bff02c" x="29.428438" y="225.246017" style="fill: #4b5563; stroke: #4b5563; stroke-width: 0.8"/>
      </g>
     </g>
     <g id="text_15">
      <!-- 2 -->
      <g style="fill: #4b5563" transform="translate(17.974688 227.90547) scale(0.07 -0.07)">
       <use xlink:href="#DejaVuSans-32"/>
      </g>
     </g>
    </g>
    <g id="ytick_8">
     <g id="line2d_73">
      <path d="M 29.428438 203.933596 
L 475.828437 203.933596 
" clip-path="url(#p52a9270aa9)" style="fill: none; stroke: #374151; stroke-opacity: 0.1; stroke-width: 0.8; stroke-linecap: square"/>
     </g>
     <g id="line2d_74">
      <g>
       <use xlink:href="#m7fe9bff02c" x="29.428438" y="203.933596" style="fill: #4b5563; stroke: #4b5563; stroke-width: 0.8"/>
      </g>
     </g>
     <g id="text_16">
      <!-- 4 -->
      <g style="fill: #4b5563" transform="translate(17.974688 206.593049) scale(0.07 -0.07)">
       <defs>
        <path id="DejaVuSans-34" d="M 2419 4116 
L 825 1625 
L 2419 1625 
L 2419 4116 
z
M 2253 4666 
L 3047 4666 
L 3047 1625 
L 3713 1625 
L 3713 1100 
L 3047 1100 
L 3047 0 
L 2419 0 
L 2419 1100 
L 313 1100 
L 313 1709 
L 2253 4666 
z
" transform="scale(0.015625)"/>
       </defs>
       <use xlink:href="#DejaVuSans-34"/>
      </g>
     </g>
    </g>
    <g id="text_17">
     <!-- Vol -->
     <g style="fill: #4b5563" transform="translate(12.518906 224.75141) rotate(-90) scale(0.07 -0.07)">
      <defs>
       <path id="DejaVuSans-56" d="M 1831 0 
L 50 4666 
L 709 4666 
L 2188 738 
L 3669 4666 
L 4325 4666 
L 2547 0 
L 1831 0 
z
" transform="scale(0.015625)"/>
       <path id="DejaVuSans-6f" d="M 1959 3097 
Q 1497 3097 1228 2736 
Q 959 2375 959 1747 
Q 959 1119 1226 758 
Q 1494 397 1959 397 
Q 2419 397 2687 759 
Q 2956 1122 2956 1747 
Q 2956 2369 2687 2733 
Q 2419 3097 1959 3097 
z
M 1959 3584 
Q 2709 3584 3137 3096 
Q 3566 2609 3566 1747 
Q 3566 888 3137 398 
Q 2709 -91 1959 -91 
Q 1206 -91 779 398 
Q 353 888 353 1747 
Q 353 2609 779 3096 
Q 1206 3584 1959 3584 
z
" transform="scale(0.015625)"/>
       <path id="DejaVuSans-6c" d="M 603 4863 
L 1178 4863 
L 1178 0 
L 603 0 
L 603 4863 
z
" transform="scale(0.015625)"/>
      </defs>
      <use xlink:href="#DejaVuSans-56"/>
      <use xlink:href="#DejaVuSans-6f" transform="translate(60.658203 0)"/>
      <use xlink:href="#DejaVuSans-6c" transform="translate(121.839844 0)"/>
     </g>
    </g>
    <g id="text_18">
     <!-- 1e6 -->
     <g style="fill: #4b5563" transform="translate(29.428438 189.470633) scale(0.1 -0.1)">
      <defs>
       <path id="DejaVuSans-65" d="M 3597 1894 
L 3597 1613 
L 953 1613 
Q 991 1019 1311 708 
Q 1631 397 2203 397 
Q 2534 397 2845 478 
Q 3156 559 3463 722 
L 3463 178 
Q 3153 47 2828 -22 
Q 2503 -91 2169 -91 
Q 1331 -91 842 396 
Q 353 884 353 1716 
Q 353 2575 817 3079 
Q 1281 3584 2069 3584 
Q 2775 3584 3186 3129 
Q 3597 2675 3597 1894 
z
M 3022 2063 
Q 3016 2534 2758 2815 
Q 2500 3097 2075 3097 
Q 1594 3097 1305 2825 
Q 1016 2553 972 2059 
L 3022 2063 
z
" transform="scale(0.015625)"/>
       <path id="DejaVuSans-36" d="M 2113 2584 
Q 1688 2584 1439 2293 
Q 1191 2003 1191 1497 
Q 1191 994 1439 701 
Q 1688 409 2113 409 
Q 2538 409 2786 701 
Q 3034 994 3034 1497 
Q 3034 2003 2786 2293 
Q 2538 2584 2113 2584 
z
M 3366 4563 
L 3366 3988 
Q 3128 4100 2886 4159 
Q 2644 4219 2406 4219 
Q 1781 4219 1451 3797 
Q 1122 3375 1075 2522 
Q 1259 2794 1537 2939 
Q 1816 3084 2150 3084 
Q 2853 3084 3261 2657 
Q 3669 2231 3669 1497 
Q 3669 778 3244 343 
Q 2819 -91 2113 -91 
Q 1303 -91 875 529 
Q 447 1150 447 2328 
Q 447 3434 972 4092 
Q 1497 4750 2381 4750 
Q 2619 4750 2861 4703 
Q 3103 4656 3366 4563 
z
" transform="scale(0.015625)"/>
      </defs>
      <use xlink:href="#DejaVuSans-31"/>
      <use xlink:href="#DejaVuSans-65" transform="translate(63.623047 0)"/>
      <use xlink:href="#DejaVuSans-36" transform="translate(125.146484 0)"/>
     </g>
    </g>
   </g>
   <g id="patch_66">
    <path d="M 29.428438 246.558438 
L 29.428438 192.470633 
" style="fill: none; stroke: #1f2937; stroke-width: 0.8; stroke-linejoin: miter; stroke-linecap: square"/>
   </g>
   <g id="patch_67">
    <path d="M 29.428438 246.558438 
L 475.828438 246.558438 
" style="fill: none; stroke: #1f2937; stroke-width: 0.8; stroke-linejoin: miter; stroke-linecap: square"/>
   </g>
  </g>
 </g>
 <defs>
  <clipPath id="p39f22eccc3">
   <rect x="29.428438" y="24.798438" width="446.4" height="162.263415"/>
  </clipPath>
  <clipPath id="p52a9270aa9">
   <rect x="29.428438" y="192.470633" width="446.4" height="54.087805"/>
  </clipPath>
 </defs>
</svg>
