<?xml version="1.0" encoding="utf-8" standalone="no"?>
<!DOCTYPE svg PUBLIC "-//W3C//DTD SVG 1.1//EN"
  "http://www.w3.org/Graphics/SVG/1.1/DTD/svg11.dtd">
<svg xmlns:xlink="http://www.w3.org/1999/xlink" width="490.7025pt" height="275.020625pt" viewBox="0 0 490.7025 275.020625" xmlns="http://www.w3.org/2000/svg" version="1.1">
 <metadata>
  <rdf:RDF xmlns:dc="http://purl.org/dc/elements/1.1/" xmlns:cc="http://creativecommons.org/ns#" xmlns:rdf="http://www.w3.org/1999/02/22-rdf-syntax-ns#">
   <cc:Work>
    <dc:type rdf:resource="http://purl.org/dc/dcmitype/StillImage"/>
    <dc:date>2026-02-16T09:12:24.303987</dc:date>
    <dc:format>image/svg+xml</dc:format>
    <dc:creator>
     <cc:Agent>
      <dc:title>Matplotlib v3.10.8, https://matplotlib.org/</dc:title>
     </cc:Agent>
    </dc:creator>
   </cc:Work>
  </rdf:RDF>
 </metadata>
 <defs>
  <style type="text/css">*{stroke-linejoin: round; stroke-linecap: butt}</style>
 </defs>
 <g id="figure_1">
  <g id="patch_1">
   <path d="M 0 275.020625 
L 490.7025 275.020625 
L 490.7025 0 
L 0 0 
z
" style="fill: #0a0f1a"/>
  </g>
  <g id="axes_1">
   <g id="patch_2">
    <path d="M 37.1025 193.58154 
L 483.5025 193.58154 
L 483.5025 31.318125 
L 37.1025 31.318125 
z
" style="fill: #0a0f1a"/>
   </g>
   <g id="patch_3">
    <path d="M 46.4625 50.893806 
L 56.5425 50.893806 
Q 56.8305 50.893806 56.8305 50.721199 
L 56.8305 47.554853 
Q 56.8305 47.382246 56.5425 47.382246 
L 46.4625 47.382246 
Q 46.1745 47.382246 46.1745 47.554853 
L 46.1745 50.721199 
Q 46.1745 50.893806 46.4625 50.893806 
z
" clip-path="url(#pcfa438b4ec)" style="fill: #22c55e; stroke: #22c55e; stroke-linejoin: miter"/>
   </g>
   <g id="patch_4">
    <path d="M 60.8625 56.508616 
L 70.9425 56.508616 
Q 71.2305 56.508616 71.2305 56.336009 
L 71.2305 52.975773 
Q 71.2305 52.803166 70.9425 52.803166 
L 60.8625 52.803166 
Q 60.5745 52.803166 60.5745 52.975773 
L 60.5745 56.336009 
Q 60.5745 56.508616 60.8625 56.508616 
z
" clip-path="url(#pcfa438b4ec)" style="fill: #22c55e; stroke: #22c55e; stroke-linejoin: miter"/>
   </g>
   <g id="patch_5">
    <path d="M 75.2625 62.68465 
L 85.3425 62.68465 
Q 85.6305 62.68465 85.6305 62.512043 
L 85.6305 55.943014 
Q 85.6305 55.770407 85.3425 55.770407 
L 75.2625 55.770407 
Q 74.9745 55.770407 74.9745 55.943014 
L 74.9745 62.512043 
Q 74.9745 62.68465 75.2625 62.68465 
z
" clip-path="url(#pcfa438b4ec)" style="fill: #ef4444; stroke: #ef4444; stroke-linejoin: miter"/>
   </g>
   <g id="patch_6">
    <path d="M 89.6625 63.561805 
L 99.7425 63.561805 
Q 100.0305 63.561805 100.0305 63.389198 
L 100.0305 59.208284 
Q 100.0305 59.035677 99.7425 59.035677 
L 89.6625 59.035677 
Q 89.3745 59.035677 89.3745 59.208284 
L 89.3745 63.389198 
Q 89.3745 63.561805 89.6625 63.561805 
z
" clip-path="url(#pcfa438b4ec)" style="fill: #ef4444; stroke: #ef4444; stroke-linejoin: miter"/>
   </g>
   <g id="patch_7">
    <path d="M 104.0625 58.618383 
L 114.1425 58.618383 
Q 114.4305 58.618383 114.4305 58.445776 
L 114.4305 50.726761 
Q 114.4305 50.554154 114.1425 50.554154 
L 104.0625 50.554154 
Q 103.7745 50.554154 103.7745 50.726761 
L 103.7745 58.445776 
Q 103.7745 58.618383 104.0625 58.618383 
z
" clip-path="url(#pcfa438b4ec)" style="fill: #ef4444; stroke: #ef4444; stroke-linejoin: miter"/>
   </g>
   <g id="patch_8">
    <path d="M 118.4625 61.868939 
L 128.5425 61.868939 
Q 128.8305 61.868939 128.8305 61.696332 
L 128.8305 57.779552 
Q 128.8305 57.606945 128.5425 57.606945 
L 118.4625 57.606945 
Q 118.1745 57.606945 118.1745 57.779552 
L 118.1745 61.696332 
Q 118.1745 61.868939 118.4625 61.868939 
z
" clip-path="url(#pcfa438b4ec)" style="fill: #22c55e; stroke: #22c55e; stroke-linejoin: miter"/>
   </g>
   <g id="patch_9">
    <path d="M 132.8625 58.608427 
L 142.9425 58.608427 
Q 143.2305 58.608427 143.2305 58.435821 
L 143.2305 49.463687 
Q 143.2305 49.29108 142.9425 49.29108 
L 132.8625 49.29108 
Q 132.5745 49.29108 132.5745 49.463687 
L 132.5745 58.435821 
Q 132.5745 58.608427 132.8625 58.608427 
z
" clip-path="url(#pcfa438b4ec)" style="fill: #ef4444; stroke: #ef4444; stroke-linejoin: miter"/>
   </g>
   <g id="patch_10">
    <path d="M 147.2625 55.208417 
L 157.3425 55.208417 
Q 157.6305 55.208417 157.6305 55.03581 
L 157.6305 50.852552 
Q 157.6305 50.679945 157.3425 50.679945 
L 147.2625 50.679945 
Q 146.9745 50.679945 146.9745 50.852552 
L 146.9745 55.03581 
Q 146.9745 55.208417 147.2625 55.208417 
z
" clip-path="url(#pcfa438b4ec)" style="fill: #22c55e; stroke: #22c55e; stroke-linejoin: miter"/>
   </g>
   <g id="patch_11">
    <path d="M 161.6625 67.547531 
L 171.7425 67.547531 
Q 172.0305 67.547531 172.0305 67.374924 
L 172.0305 61.046592 
Q 172.0305 60.873985 171.7425 60.873985 
L 161.6625 60.873985 
Q 161.3745 60.873985 161.3745 61.046592 
L 161.3745 67.374924 
Q 161.3745 67.547531 161.6625 67.547531 
z
" clip-path="url(#pcfa438b4ec)" style="fill: #22c55e; stroke: #22c55e; stroke-linejoin: miter"/>
   </g>
   <g id="patch_12">
    <path d="M 176.0625 69.205629 
L 186.1425 69.205629 
Q 186.4305 69.205629 186.4305 69.033022 
L 186.4305 58.080191 
Q 186.4305 57.907584 186.1425 57.907584 
L 176.0625 57.907584 
Q 175.7745 57.907584 175.7745 58.080191 
L 175.7745 69.033022 
Q 175.7745 69.205629 176.0625 69.205629 
z
" clip-path="url(#pcfa438b4ec)" style="fill: #ef4444; stroke: #ef4444; stroke-linejoin: miter"/>
   </g>
   <g id="patch_13">
    <path d="M 190.4625 90.960193 
L 200.5425 90.960193 
Q 200.8305 90.960193 200.8305 90.787586 
L 200.8305 86.93402 
Q 200.8305 86.761413 200.5425 86.761413 
L 190.4625 86.761413 
Q 190.1745 86.761413 190.1745 86.93402 
L 190.1745 90.787586 
Q 190.1745 90.960193 190.4625 90.960193 
z
" clip-path="url(#pcfa438b4ec)" style="fill: #ef4444; stroke: #ef4444; stroke-linejoin: miter"/>
   </g>
   <g id="patch_14">
    <path d="M 204.8625 102.192447 
L 214.9425 102.192447 
Q 215.2305 102.192447 215.2305 102.01984 
L 215.2305 93.672639 
Q 215.2305 93.500032 214.9425 93.500032 
L 204.8625 93.500032 
Q 204.5745 93.500032 204.5745 93.672639 
L 204.5745 102.01984 
Q 204.5745 102.192447 204.8625 102.192447 
z
" clip-path="url(#pcfa438b4ec)" style="fill: #22c55e; stroke: #22c55e; stroke-linejoin: miter"/>
   </g>
   <g id="patch_15">
    <path d="M 219.2625 108.14015 
L 229.3425 108.14015 
Q 229.6305 108.14015 229.6305 107.967543 
L 229.6305 103.658011 
Q 229.6305 103.485404 229.3425 103.485404 
L 219.2625 103.485404 
Q 218.9745 103.485404 218.9745 103.658011 
L 218.9745 107.967543 
Q 218.9745 108.14015 219.2625 108.14015 
z
" clip-path="url(#pcfa438b4ec)" style="fill: #22c55e; stroke: #22c55e; stroke-linejoin: miter"/>
   </g>
   <g id="patch_16">
    <path d="M 233.6625 120.832772 
L 243.7425 120.832772 
Q 244.0305 120.832772 244.0305 120.660165 
L 244.0305 113.474353 
Q 244.0305 113.301746 243.7425 113.301746 
L 233.6625 113.301746 
Q 233.3745 113.301746 233.3745 113.474353 
L 233.3745 120.660165 
Q 233.3745 120.832772 233.6625 120.832772 
z
" clip-path="url(#pcfa438b4ec)" style="fill: #ef4444; stroke: #ef4444; stroke-linejoin: miter"/>
   </g>
   <g id="patch_17">
    <path d="M 248.0625 135.739262 
L 258.1425 135.739262 
Q 258.4305 135.739262 258.4305 135.566656 
L 258.4305 125.565356 
Q 258.4305 125.392749 258.1425 125.392749 
L 248.0625 125.392749 
Q 247.7745 125.392749 247.7745 125.565356 
L 247.7745 135.566656 
Q 247.7745 135.739262 248.0625 135.739262 
z
" clip-path="url(#pcfa438b4ec)" style="fill: #ef4444; stroke: #ef4444; stroke-linejoin: miter"/>
   </g>
   <g id="patch_18">
    <path d="M 262.4625 139.057458 
L 272.5425 139.057458 
Q 272.8305 139.057458 272.8305 138.884851 
L 272.8305 127.37082 
Q 272.8305 127.198213 272.5425 127.198213 
L 262.4625 127.198213 
Q 262.1745 127.198213 262.1745 127.37082 
L 262.1745 138.884851 
Q 262.1745 139.057458 262.4625 139.057458 
z
" clip-path="url(#pcfa438b4ec)" style="fill: #22c55e; stroke: #22c55e; stroke-linejoin: miter"/>
   </g>
   <g id="patch_19">
    <path d="M 276.8625 139.838682 
L 286.9425 139.838682 
Q 287.2305 139.838682 287.2305 139.666075 
L 287.2305 134.250625 
Q 287.2305 134.078018 286.9425 134.078018 
L 276.8625 134.078018 
Q 276.5745 134.078018 276.5745 134.250625 
L 276.5745 139.666075 
Q 276.5745 139.838682 276.8625 139.838682 
z
" clip-path="url(#pcfa438b4ec)" style="fill: #ef4444; stroke: #ef4444; stroke-linejoin: miter"/>
   </g>
   <g id="patch_20">
    <path d="M 291.2625 147.328775 
L 301.3425 147.328775 
Q 301.6305 147.328775 301.6305 147.156169 
L 301.6305 144.227397 
Q 301.6305 144.05479 301.3425 144.05479 
L 291.2625 144.05479 
Q 290.9745 144.05479 290.9745 144.227397 
L 290.9745 147.156169 
Q 290.9745 147.328775 291.2625 147.328775 
z
" clip-path="url(#pcfa438b4ec)" style="fill: #22c55e; stroke: #22c55e; stroke-linejoin: miter"/>
   </g>
   <g id="patch_21">
    <path d="M 305.6625 148.387118 
L 315.7425 148.387118 
Q 316.0305 148.387118 316.0305 148.214511 
L 316.0305 138.34406 
Q 316.0305 138.171453 315.7425 138.171453 
L 305.6625 138.171453 
Q 305.3745 138.171453 305.3745 138.34406 
L 305.3745 148.214511 
Q 305.3745 148.387118 305.6625 148.387118 
z
" clip-path="url(#pcfa438b4ec)" style="fill: #ef4444; stroke: #ef4444; stroke-linejoin: miter"/>
   </g>
   <g id="patch_22">
    <path d="M 320.0625 146.304941 
L 330.1425 146.304941 
Q 330.4305 146.304941 330.4305 146.132334 
L 330.4305 138.686568 
Q 330.4305 138.513961 330.1425 138.513961 
L 320.0625 138.513961 
Q 319.7745 138.513961 319.7745 138.686568 
L 319.7745 146.132334 
Q 319.7745 146.304941 320.0625 146.304941 
z
" clip-path="url(#pcfa438b4ec)" style="fill: #22c55e; stroke: #22c55e; stroke-linejoin: miter"/>
   </g>
   <g id="patch_23">
    <path d="M 334.4625 151.149617 
L 344.5425 151.149617 
Q 344.8305 151.149617 344.8305 150.97701 
L 344.8305 146.13946 
Q 344.8305 145.966853 344.5425 145.966853 
L 334.4625 145.966853 
Q 334.1745 145.966853 334.1745 146.13946 
L 334.1745 150.97701 
Q 334.1745 151.149617 334.4625 151.149617 
z
" clip-path="url(#pcfa438b4ec)" style="fill: #22c55e; stroke: #22c55e; stroke-linejoin: miter"/>
   </g>
   <g id="patch_24">
    <path d="M 348.8625 147.646233 
L 358.9425 147.646233 
Q 359.2305 147.646233 359.2305 147.473626 
L 359.2305 141.414197 
Q 359.2305 141.24159 358.9425 141.24159 
L 348.8625 141.24159 
Q 348.5745 141.24159 348.5745 141.414197 
L 348.5745 147.473626 
Q 348.5745 147.646233 348.8625 147.646233 
z
" clip-path="url(#pcfa438b4ec)" style="fill: #22c55e; stroke: #22c55e; stroke-linejoin: miter"/>
   </g>
   <g id="patch_25">
    <path d="M 363.2625 157.292517 
L 373.3425 157.292517 
Q 373.6305 157.292517 373.6305 157.11991 
L 373.6305 149.456251 
Q 373.6305 149.283644 373.3425 149.283644 
L 363.2625 149.283644 
Q 362.9745 149.283644 362.9745 149.456251 
L 362.9745 157.11991 
Q 362.9745 157.292517 363.2625 157.292517 
z
" clip-path="url(#pcfa438b4ec)" style="fill: #22c55e; stroke: #22c55e; stroke-linejoin: miter"/>
   </g>
   <g id="patch_26">
    <path d="M 377.6625 165.632123 
L 387.7425 165.632123 
Q 388.0305 165.632123 388.0305 165.459516 
L 388.0305 152.538519 
Q 388.0305 152.365912 387.7425 152.365912 
L 377.6625 152.365912 
Q 377.3745 152.365912 377.3745 152.538519 
L 377.3745 165.459516 
Q 377.3745 165.632123 377.6625 165.632123 
z
" clip-path="url(#pcfa438b4ec)" style="fill: #ef4444; stroke: #ef4444; stroke-linejoin: miter"/>
   </g>
   <g id="patch_27">
    <path d="M 392.0625 172.040093 
L 402.1425 172.040093 
Q 402.4305 172.040093 402.4305 171.867486 
L 402.4305 163.427833 
Q 402.4305 163.255226 402.1425 163.255226 
L 392.0625 163.255226 
Q 391.7745 163.255226 391.7745 163.427833 
L 391.7745 171.867486 
Q 391.7745 172.040093 392.0625 172.040093 
z
" clip-path="url(#pcfa438b4ec)" style="fill: #22c55e; stroke: #22c55e; stroke-linejoin: miter"/>
   </g>
   <g id="patch_28">
    <path d="M 406.4625 173.002633 
L 416.5425 173.002633 
Q 416.8305 173.002633 416.8305 172.830026 
L 416.8305 162.445924 
Q 416.8305 162.273317 416.5425 162.273317 
L 406.4625 162.273317 
Q 406.1745 162.273317 406.1745 162.445924 
L 406.1745 172.830026 
Q 406.1745 173.002633 406.4625 173.002633 
z
" clip-path="url(#pcfa438b4ec)" style="fill: #22c55e; stroke: #22c55e; stroke-linejoin: miter"/>
   </g>
   <g id="patch_29">
    <path d="M 420.8625 175.30069 
L 430.9425 175.30069 
Q 431.2305 175.30069 431.2305 175.128083 
L 431.2305 163.890306 
Q 431.2305 163.717699 430.9425 163.717699 
L 420.8625 163.717699 
Q 420.5745 163.717699 420.5745 163.890306 
L 420.5745 175.128083 
Q 420.5745 175.30069 420.8625 175.30069 
z
" clip-path="url(#pcfa438b4ec)" style="fill: #ef4444; stroke: #ef4444; stroke-linejoin: miter"/>
   </g>
   <g id="patch_30">
    <path d="M 435.2625 163.394155 
L 445.3425 163.394155 
Q 445.6305 163.394155 445.6305 163.221548 
L 445.6305 157.190534 
Q 445.6305 157.017927 445.3425 157.017927 
L 435.2625 157.017927 
Q 434.9745 157.017927 434.9745 157.190534 
L 434.9745 163.221548 
Q 434.9745 163.394155 435.2625 163.394155 
z
" clip-path="url(#pcfa438b4ec)" style="fill: #22c55e; stroke: #22c55e; stroke-linejoin: miter"/>
   </g>
   <g id="patch_31">
    <path d="M 449.6625 150.211401 
L 459.7425 150.211401 
Q 460.0305 150.211401 460.0305 150.038794 
L 460.0305 142.631385 
Q 460.0305 142.458778 459.7425 142.458778 
L 449.6625 142.458778 
Q 449.3745 142.458778 449.3745 142.631385 
L 449.3745 150.038794 
Q 449.3745 150.211401 449.6625 150.211401 
z
" clip-path="url(#pcfa438b4ec)" style="fill: #ef4444; stroke: #ef4444; stroke-linejoin: miter"/>
   </g>
   <g id="patch_32">
    <path d="M 464.0625 136.623976 
L 474.1425 136.623976 
Q 474.4305 136.623976 474.4305 136.451369 
L 474.4305 127.051132 
Q 474.4305 126.878525 474.1425 126.878525 
L 464.0625 126.878525 
Q 463.7745 126.878525 463.7745 127.051132 
L 463.7745 136.451369 
Q 463.7745 136.623976 464.0625 136.623976 
z
" clip-path="url(#pcfa438b4ec)" style="fill: #ef4444; stroke: #ef4444; stroke-linejoin: miter"/>
   </g>
   <g id="matplotlib.axis_1">
    <g id="xtick_1">
     <g id="line2d_1">
      <path d="M 51.5025 193.58154 
L 51.5025 31.318125 
" clip-path="url(#pcfa438b4ec)" style="fill: none; stroke-dasharray: 2.96,1.28; stroke-dashoffset: 0; stroke: #374151; stroke-opacity: 0.1; stroke-width: 0.8"/>
     </g>
     <g id="line2d_2">
      <defs>
       <path id="m51228e9c3c" d="M 0 0 
L 0 3.5 
" style="stroke: #9ca3af; stroke-width: 0.8"/>
      </defs>
      <g>
       <use xlink:href="#m51228e9c3c" x="51.5025" y="193.58154" style="fill: #9ca3af; stroke: #9ca3af; stroke-width: 0.8"/>
      </g>
     </g>
    </g>
    <g id="xtick_2">
     <g id="line2d_3">
      <path d="M 123.5025 193.58154 
L 123.5025 31.318125 
" clip-path="url(#pcfa438b4ec)" style="fill: none; stroke-dasharray: 2.96,1.28; stroke-dashoffset: 0; stroke: #374151; stroke-opacity: 0.1; stroke-width: 0.8"/>
     </g>
     <g id="line2d_4">
      <g>
       <use xlink:href="#m51228e9c3c" x="123.5025" y="193.58154" style="fill: #9ca3af; stroke: #9ca3af; stroke-width: 0.8"/>
      </g>
     </g>
    </g>
    <g id="xtick_3">
     <g id="line2d_5">
      <path d="M 195.5025 193.58154 
L 195.5025 31.318125 
" clip-path="url(#pcfa438b4ec)" style="fill: none; stroke-dasharray: 2.96,1.28; stroke-dashoffset: 0; stroke: #374151; stroke-opacity: 0.1; stroke-width: 0.8"/>
     </g>
     <g id="line2d_6">
      <g>
       <use xlink:href="#m51228e9c3c" x="195.5025" y="193.58154" style="fill: #9ca3af; stroke: #9ca3af; stroke-width: 0.8"/>
      </g>
     </g>
    </g>
    <g id="xtick_4">
     <g id="line2d_7">
      <path d="M 267.5025 193.58154 
L 267.5025 31.318125 
" clip-path="url(#pcfa438b4ec)" style="fill: none; stroke-dasharray: 2.96,1.28; stroke-dashoffset: 0; stroke: #374151; stroke-opacity: 0.1; stroke-width: 0.8"/>
     </g>
     <g id="line2d_8">
      <g>
       <use xlink:href="#m51228e9c3c" x="267.5025" y="193.58154" style="fill: #9ca3af; stroke: #9ca3af; stroke-width: 0.8"/>
      </g>
     </g>
    </g>
    <g id="xtick_5">
     <g id="line2d_9">
      <path d="M 339.5025 193.58154 
L 339.5025 31.318125 
" clip-path="url(#pcfa438b4ec)" style="fill: none; stroke-dasharray: 2.96,1.28; stroke-dashoffset: 0; stroke: #374151; stroke-opacity: 0.1; stroke-width: 0.8"/>
     </g>
     <g id="line2d_10">
      <g>
       <use xlink:href="#m51228e9c3c" x="339.5025" y="193.58154" style="fill: #9ca3af; stroke: #9ca3af; stroke-width: 0.8"/>
      </g>
     </g>
    </g>
    <g id="xtick_6">
     <g id="line2d_11">
      <path d="M 411.5025 193.58154 
L 411.5025 31.318125 
" clip-path="url(#pcfa438b4ec)" style="fill: none; stroke-dasharray: 2.96,1.28; stroke-dashoffset: 0; stroke: #374151; stroke-opacity: 0.1; stroke-width: 0.8"/>
     </g>
     <g id="line2d_12">
      <g>
       <use xlink:href="#m51228e9c3c" x="411.5025" y="193.58154" style="fill: #9ca3af; stroke: #9ca3af; stroke-width: 0.8"/>
      </g>
     </g>
    </g>
    <g id="xtick_7">
     <g id="line2d_13">
      <path d="M 483.5025 193.58154 
L 483.5025 31.318125 
" clip-path="url(#pcfa438b4ec)" style="fill: none; stroke-dasharray: 2.96,1.28; stroke-dashoffset: 0; stroke: #374151; stroke-opacity: 0.1; stroke-width: 0.8"/>
     </g>
     <g id="line2d_14">
      <g>
       <use xlink:href="#m51228e9c3c" x="483.5025" y="193.58154" style="fill: #9ca3af; stroke: #9ca3af; stroke-width: 0.8"/>
      </g>
     </g>
    </g>
   </g>
   <g id="matplotlib.axis_2">
    <g id="ytick_1">
     <g id="line2d_15">
      <path d="M 37.1025 178.593235 
L 483.5025 178.593235 
" clip-path="url(#pcfa438b4ec)" style="fill: none; stroke-dasharray: 2.96,1.28; stroke-dashoffset: 0; stroke: #374151; stroke-opacity: 0.1; stroke-width: 0.8"/>
     </g>
     <g id="line2d_16">
      <defs>
       <path id="m10ffe92628" d="M 0 0 
L -3.5 0 
" style="stroke: #9ca3af; stroke-width: 0.8"/>
      </defs>
      <g>
       <use xlink:href="#m10ffe92628" x="37.1025" y="178.593235" style="fill: #9ca3af; stroke: #9ca3af; stroke-width: 0.8"/>
      </g>
     </g>
     <g id="text_1">
      <!-- 85.0 -->
      <g style="fill: #9ca3af" transform="translate(12.29 181.63261) scale(0.08 -0.08)">
       <defs>
        <path id="DejaVuSans-38" d="M 2034 2216 
Q 1584 2216 1326 1975 
Q 1069 1734 1069 1313 
Q 1069 891 1326 650 
Q 1584 409 2034 409 
Q 2484 409 2743 651 
Q 3003 894 3003 1313 
Q 3003 1734 2745 1975 
Q 2488 2216 2034 2216 
z
M 1403 2484 
Q 997 2584 770 2862 
Q 544 3141 544 3541 
Q 544 4100 942 4425 
Q 1341 4750 2034 4750 
Q 2731 4750 3128 4425 
Q 3525 4100 3525 3541 
Q 3525 3141 3298 2862 
Q 3072 2584 2669 2484 
Q 3125 2378 3379 2068 
Q 3634 1759 3634 1313 
Q 3634 634 3220 271 
Q 2806 -91 2034 -91 
Q 1263 -91 848 271 
Q 434 634 434 1313 
Q 434 1759 690 2068 
Q 947 2378 1403 2484 
z
M 1172 3481 
Q 1172 3119 1398 2916 
Q 1625 2713 2034 2713 
Q 2441 2713 2670 2916 
Q 2900 3119 2900 3481 
Q 2900 3844 2670 4047 
Q 2441 4250 2034 4250 
Q 1625 4250 1398 4047 
Q 1172 3844 1172 3481 
z
" transform="scale(0.015625)"/>
        <path id="DejaVuSans-35" d="M 691 4666 
L 3169 4666 
L 3169 4134 
L 1269 4134 
L 1269 2991 
Q 1406 3038 1543 3061 
Q 1681 3084 1819 3084 
Q 2600 3084 3056 2656 
Q 3513 2228 3513 1497 
Q 3513 744 3044 326 
Q 2575 -91 1722 -91 
Q 1428 -91 1123 -41 
Q 819 9 494 109 
L 494 744 
Q 775 591 1075 516 
Q 1375 441 1709 441 
Q 2250 441 2565 725 
Q 2881 1009 2881 1497 
Q 2881 1984 2565 2268 
Q 2250 2553 1709 2553 
Q 1456 2553 1204 2497 
Q 953 2441 691 2322 
L 691 4666 
z
" transform="scale(0.015625)"/>
        <path id="DejaVuSans-2e" d="M 684 794 
L 1344 794 
L 1344 0 
L 684 0 
L 684 794 
z
" transform="scale(0.015625)"/>
        <path id="DejaVuSans-30" d="M 2034 4250 
Q 1547 4250 1301 3770 
Q 1056 3291 1056 2328 
Q 1056 1369 1301 889 
Q 1547 409 2034 409 
Q 2525 409 2770 889 
Q 3016 1369 3016 2328 
Q 3016 3291 2770 3770 
Q 2525 4250 2034 4250 
z
M 2034 4750 
Q 2819 4750 3233 4129 
Q 3647 3509 3647 2328 
Q 3647 1150 3233 529 
Q 2819 -91 2034 -91 
Q 1250 -91 836 529 
Q 422 1150 422 2328 
Q 422 3509 836 4129 
Q 1250 4750 2034 4750 
z
" transform="scale(0.015625)"/>
       </defs>
       <use xlink:href="#DejaVuSans-38"/>
       <use xlink:href="#DejaVuSans-35" transform="translate(63.623047 0)"/>
       <use xlink:href="#DejaVuSans-2e" transform="translate(127.246094 0)"/>
       <use xlink:href="#DejaVuSans-30" transform="translate(159.033203 0)"/>
      </g>
     </g>
    </g>
    <g id="ytick_2">
     <g id="line2d_17">
      <path d="M 37.1025 157.017367 
L 483.5025 157.017367 
" clip-path="url(#pcfa438b4ec)" style="fill: none; stroke-dasharray: 2.96,1.28; stroke-dashoffset: 0; stroke: #374151; stroke-opacity: 0.1; stroke-width: 0.8"/>
     </g>
     <g id="line2d_18">
      <g>
       <use xlink:href="#m10ffe92628" x="37.1025" y="157.017367" style="fill: #9ca3af; stroke: #9ca3af; stroke-width: 0.8"/>
      </g>
     </g>
     <g id="text_2">
      <!-- 87.5 -->
      <g style="fill: #9ca3af" transform="translate(12.29 160.056742) scale(0.08 -0.08)">
       <defs>
        <path id="DejaVuSans-37" d="M 525 4666 
L 3525 4666 
L 3525 4397 
L 1831 0 
L 1172 0 
L 2766 4134 
L 525 4134 
L 525 4666 
z
" transform="scale(0.015625)"/>
       </defs>
       <use xlink:href="#DejaVuSans-38"/>
       <use xlink:href="#DejaVuSans-37" transform="translate(63.623047 0)"/>
       <use xlink:href="#DejaVuSans-2e" transform="translate(127.246094 0)"/>
       <use xlink:href="#DejaVuSans-35" transform="translate(159.033203 0)"/>
      </g>
     </g>
    </g>
    <g id="ytick_3">
     <g id="line2d_19">
      <path d="M 37.1025 135.441498 
L 483.5025 135.441498 
" clip-path="url(#pcfa438b4ec)" style="fill: none; stroke-dasharray: 2.96,1.28; stroke-dashoffset: 0; stroke: #374151; stroke-opacity: 0.1; stroke-width: 0.8"/>
     </g>
     <g id="line2d_20">
      <g>
       <use xlink:href="#m10ffe92628" x="37.1025" y="135.441498" style="fill: #9ca3af; stroke: #9ca3af; stroke-width: 0.8"/>
      </g>
     </g>
     <g id="text_3">
      <!-- 90.0 -->
      <g style="fill: #9ca3af" transform="translate(12.29 138.480873) scale(0.08 -0.08)">
       <defs>
        <path id="DejaVuSans-39" d="M 703 97 
L 703 672 
Q 941 559 1184 500 
Q 1428 441 1663 441 
Q 2288 441 2617 861 
Q 2947 1281 2994 2138 
Q 2813 1869 2534 1725 
Q 2256 1581 1919 1581 
Q 1219 1581 811 2004 
Q 403 2428 403 3163 
Q 403 3881 828 4315 
Q 1253 4750 1959 4750 
Q 2769 4750 3195 4129 
Q 3622 3509 3622 2328 
Q 3622 1225 3098 567 
Q 2575 -91 1691 -91 
Q 1453 -91 1209 -44 
Q 966 3 703 97 
z
M 1959 2075 
Q 2384 2075 2632 2365 
Q 2881 2656 2881 3163 
Q 2881 3666 2632 3958 
Q 2384 4250 1959 4250 
Q 1534 4250 1286 3958 
Q 1038 3666 1038 3163 
Q 1038 2656 1286 2365 
Q 1534 2075 1959 2075 
z
" transform="scale(0.015625)"/>
       </defs>
       <use xlink:href="#DejaVuSans-39"/>
       <use xlink:href="#DejaVuSans-30" transform="translate(63.623047 0)"/>
       <use xlink:href="#DejaVuSans-2e" transform="translate(127.246094 0)"/>
       <use xlink:href="#DejaVuSans-30" transform="translate(159.033203 0)"/>
      </g>
     </g>
    </g>
    <g id="ytick_4">
     <g id="line2d_21">
      <path d="M 37.1025 113.86563 
L 483.5025 113.86563 
" clip-path="url(#pcfa438b4ec)" style="fill: none; stroke-dasharray: 2.96,1.28; stroke-dashoffset: 0; stroke: #374151; stroke-opacity: 0.1; stroke-width: 0.8"/>
     </g>
     <g id="line2d_22">
      <g>
       <use xlink:href="#m10ffe92628" x="37.1025" y="113.86563" style="fill: #9ca3af; stroke: #9ca3af; stroke-width: 0.8"/>
      </g>
     </g>
     <g id="text_4">
      <!-- 92.5 -->
      <g style="fill: #9ca3af" transform="translate(12.29 116.905005) scale(0.08 -0.08)">
       <defs>
        <path id="DejaVuSans-32" d="M 1228 531 
L 3431 531 
L 3431 0 
L 469 0 
L 469 531 
Q 828 903 1448 1529 
Q 2069 2156 2228 2338 
Q 2531 2678 2651 2914 
Q 2772 3150 2772 3378 
Q 2772 3750 2511 3984 
Q 2250 4219 1831 4219 
Q 1534 4219 1204 4116 
Q 875 4013 500 3803 
L 500 4441 
Q 881 4594 1212 4672 
Q 1544 4750 1819 4750 
Q 2544 4750 2975 4387 
Q 3406 4025 3406 3419 
Q 3406 3131 3298 2873 
Q 3191 2616 2906 2266 
Q 2828 2175 2409 1742 
Q 1991 1309 1228 531 
z
" transform="scale(0.015625)"/>
       </defs>
       <use xlink:href="#DejaVuSans-39"/>
       <use xlink:href="#DejaVuSans-32" transform="translate(63.623047 0)"/>
       <use xlink:href="#DejaVuSans-2e" transform="translate(127.246094 0)"/>
       <use xlink:href="#DejaVuSans-35" transform="translate(159.033203 0)"/>
      </g>
     </g>
    </g>
    <g id="ytick_5">
     <g id="line2d_23">
      <path d="M 37.1025 92.289762 
L 483.5025 92.289762 
" clip-path="url(#pcfa438b4ec)" style="fill: none; stroke-dasharray: 2.96,1.28; stroke-dashoffset: 0; stroke: #374151; stroke-opacity: 0.1; stroke-width: 0.8"/>
     </g>
     <g id="line2d_24">
      <g>
       <use xlink:href="#m10ffe92628" x="37.1025" y="92.289762" style="fill: #9ca3af; stroke: #9ca3af; stroke-width: 0.8"/>
      </g>
     </g>
     <g id="text_5">
      <!-- 95.0 -->
      <g style="fill: #9ca3af" transform="translate(12.29 95.329137) scale(0.08 -0.08)">
       <use xlink:href="#DejaVuSans-39"/>
       <use xlink:href="#DejaVuSans-35" transform="translate(63.623047 0)"/>
       <use xlink:href="#DejaVuSans-2e" transform="translate(127.246094 0)"/>
       <use xlink:href="#DejaVuSans-30" transform="translate(159.033203 0)"/>
      </g>
     </g>
    </g>
    <g id="ytick_6">
     <g id="line2d_25">
      <path d="M 37.1025 70.713894 
L 483.5025 70.713894 
" clip-path="url(#pcfa438b4ec)" style="fill: none; stroke-dasharray: 2.96,1.28; stroke-dashoffset: 0; stroke: #374151; stroke-opacity: 0.1; stroke-width: 0.8"/>
     </g>
     <g id="line2d_26">
      <g>
       <use xlink:href="#m10ffe92628" x="37.1025" y="70.713894" style="fill: #9ca3af; stroke: #9ca3af; stroke-width: 0.8"/>
      </g>
     </g>
     <g id="text_6">
      <!-- 97.5 -->
      <g style="fill: #9ca3af" transform="translate(12.29 73.753269) scale(0.08 -0.08)">
       <use xlink:href="#DejaVuSans-39"/>
       <use xlink:href="#DejaVuSans-37" transform="translate(63.623047 0)"/>
       <use xlink:href="#DejaVuSans-2e" transform="translate(127.246094 0)"/>
       <use xlink:href="#DejaVuSans-35" transform="translate(159.033203 0)"/>
      </g>
     </g>
    </g>
    <g id="ytick_7">
     <g id="line2d_27">
      <path d="M 37.1025 49.138026 
L 483.5025 49.138026 
" clip-path="url(#pcfa438b4ec)" style="fill: none; stroke-dasharray: 2.96,1.28; stroke-dashoffset: 0; stroke: #374151; stroke-opacity: 0.1; stroke-width: 0.8"/>
     </g>
     <g id="line2d_28">
      <g>
       <use xlink:href="#m10ffe92628" x="37.1025" y="49.138026" style="fill: #9ca3af; stroke: #9ca3af; stroke-width: 0.8"/>
      </g>
     </g>
     <g id="text_7">
      <!-- 100.0 -->
      <g style="fill: #9ca3af" transform="translate(7.2 52.177401) scale(0.08 -0.08)">
       <defs>
        <path id="DejaVuSans-31" d="M 794 531 
L 1825 531 
L 1825 4091 
L 703 3866 
L 703 4441 
L 1819 4666 
L 2450 4666 
L 2450 531 
L 3481 531 
L 3481 0 
L 794 0 
L 794 531 
z
" transform="scale(0.015625)"/>
       </defs>
       <use xlink:href="#DejaVuSans-31"/>
       <use xlink:href="#DejaVuSans-30" transform="translate(63.623047 0)"/>
       <use xlink:href="#DejaVuSans-30" transform="translate(127.246094 0)"/>
       <use xlink:href="#DejaVuSans-2e" transform="translate(190.869141 0)"/>
       <use xlink:href="#DejaVuSans-30" transform="translate(222.65625 0)"/>
      </g>
     </g>
    </g>
   </g>
   <g id="line2d_29">
    <path d="M 51.5025 56.058309 
L 51.5025 44.888613 
" clip-path="url(#pcfa438b4ec)" style="fill: none; stroke: #22c55e; stroke-width: 1.5; stroke-linecap: square"/>
   </g>
   <g id="line2d_30">
    <path d="M 65.9025 61.913267 
L 65.9025 47.747624 
" clip-path="url(#pcfa438b4ec)" style="fill: none; stroke: #22c55e; stroke-width: 1.5; stroke-linecap: square"/>
   </g>
   <g id="line2d_31">
    <path d="M 80.3025 63.420283 
L 80.3025 54.835609 
" clip-path="url(#pcfa438b4ec)" style="fill: none; stroke: #ef4444; stroke-width: 1.5; stroke-linecap: square"/>
   </g>
   <g id="line2d_32">
    <path d="M 94.7025 69.233527 
L 94.7025 54.741677 
" clip-path="url(#pcfa438b4ec)" style="fill: none; stroke: #ef4444; stroke-width: 1.5; stroke-linecap: square"/>
   </g>
   <g id="line2d_33">
    <path d="M 109.1025 62.808462 
L 109.1025 45.324158 
" clip-path="url(#pcfa438b4ec)" style="fill: none; stroke: #ef4444; stroke-width: 1.5; stroke-linecap: square"/>
   </g>
   <g id="line2d_34">
    <path d="M 123.5025 64.086708 
L 123.5025 56.10913 
" clip-path="url(#pcfa438b4ec)" style="fill: none; stroke: #22c55e; stroke-width: 1.5; stroke-linecap: square"/>
   </g>
   <g id="line2d_35">
    <path d="M 137.9025 60.100984 
L 137.9025 44.840076 
" clip-path="url(#pcfa438b4ec)" style="fill: none; stroke: #ef4444; stroke-width: 1.5; stroke-linecap: square"/>
   </g>
   <g id="line2d_36">
    <path d="M 152.3025 56.012037 
L 152.3025 49.934922 
" clip-path="url(#pcfa438b4ec)" style="fill: none; stroke: #22c55e; stroke-width: 1.5; stroke-linecap: square"/>
   </g>
   <g id="line2d_37">
    <path d="M 166.7025 71.024945 
L 166.7025 59.315348 
" clip-path="url(#pcfa438b4ec)" style="fill: none; stroke: #22c55e; stroke-width: 1.5; stroke-linecap: square"/>
   </g>
   <g id="line2d_38">
    <path d="M 181.1025 74.881896 
L 181.1025 52.702659 
" clip-path="url(#pcfa438b4ec)" style="fill: none; stroke: #ef4444; stroke-width: 1.5; stroke-linecap: square"/>
   </g>
   <g id="line2d_39">
    <path d="M 195.5025 94.270423 
L 195.5025 84.916895 
" clip-path="url(#pcfa438b4ec)" style="fill: none; stroke: #ef4444; stroke-width: 1.5; stroke-linecap: square"/>
   </g>
   <g id="line2d_40">
    <path d="M 209.9025 105.352106 
L 209.9025 91.773713 
" clip-path="url(#pcfa438b4ec)" style="fill: none; stroke: #22c55e; stroke-width: 1.5; stroke-linecap: square"/>
   </g>
   <g id="line2d_41">
    <path d="M 224.3025 112.056131 
L 224.3025 101.261156 
" clip-path="url(#pcfa438b4ec)" style="fill: none; stroke: #22c55e; stroke-width: 1.5; stroke-linecap: square"/>
   </g>
   <g id="line2d_42">
    <path d="M 238.7025 126.611464 
L 238.7025 106.586925 
" clip-path="url(#pcfa438b4ec)" style="fill: none; stroke: #ef4444; stroke-width: 1.5; stroke-linecap: square"/>
   </g>
   <g id="line2d_43">
    <path d="M 253.1025 142.0113 
L 253.1025 119.796996 
" clip-path="url(#pcfa438b4ec)" style="fill: none; stroke: #ef4444; stroke-width: 1.5; stroke-linecap: square"/>
   </g>
   <g id="line2d_44">
    <path d="M 267.5025 140.838142 
L 267.5025 120.926704 
" clip-path="url(#pcfa438b4ec)" style="fill: none; stroke: #22c55e; stroke-width: 1.5; stroke-linecap: square"/>
   </g>
   <g id="line2d_45">
    <path d="M 281.9025 142.098764 
L 281.9025 132.606088 
" clip-path="url(#pcfa438b4ec)" style="fill: none; stroke: #ef4444; stroke-width: 1.5; stroke-linecap: square"/>
   </g>
   <g id="line2d_46">
    <path d="M 296.3025 151.811357 
L 296.3025 139.816484 
" clip-path="url(#pcfa438b4ec)" style="fill: none; stroke: #22c55e; stroke-width: 1.5; stroke-linecap: square"/>
   </g>
   <g id="line2d_47">
    <path d="M 310.7025 152.184301 
L 310.7025 137.216936 
" clip-path="url(#pcfa438b4ec)" style="fill: none; stroke: #ef4444; stroke-width: 1.5; stroke-linecap: square"/>
   </g>
   <g id="line2d_48">
    <path d="M 325.1025 147.869914 
L 325.1025 132.541126 
" clip-path="url(#pcfa438b4ec)" style="fill: none; stroke: #22c55e; stroke-width: 1.5; stroke-linecap: square"/>
   </g>
   <g id="line2d_49">
    <path d="M 339.5025 153.124816 
L 339.5025 143.01388 
" clip-path="url(#pcfa438b4ec)" style="fill: none; stroke: #22c55e; stroke-width: 1.5; stroke-linecap: square"/>
   </g>
   <g id="line2d_50">
    <path d="M 353.9025 154.114559 
L 353.9025 139.057353 
" clip-path="url(#pcfa438b4ec)" style="fill: none; stroke: #22c55e; stroke-width: 1.5; stroke-linecap: square"/>
   </g>
   <g id="line2d_51">
    <path d="M 368.3025 158.592371 
L 368.3025 144.128105 
" clip-path="url(#pcfa438b4ec)" style="fill: none; stroke: #22c55e; stroke-width: 1.5; stroke-linecap: square"/>
   </g>
   <g id="line2d_52">
    <path d="M 382.7025 169.818053 
L 382.7025 146.150699 
" clip-path="url(#pcfa438b4ec)" style="fill: none; stroke: #ef4444; stroke-width: 1.5; stroke-linecap: square"/>
   </g>
   <g id="line2d_53">
    <path d="M 397.1025 172.767634 
L 397.1025 157.531475 
" clip-path="url(#pcfa438b4ec)" style="fill: none; stroke: #22c55e; stroke-width: 1.5; stroke-linecap: square"/>
   </g>
   <g id="line2d_54">
    <path d="M 411.5025 177.562438 
L 411.5025 157.402443 
" clip-path="url(#pcfa438b4ec)" style="fill: none; stroke: #22c55e; stroke-width: 1.5; stroke-linecap: square"/>
   </g>
   <g id="line2d_55">
    <path d="M 425.9025 180.059588 
L 425.9025 161.218188 
" clip-path="url(#pcfa438b4ec)" style="fill: none; stroke: #ef4444; stroke-width: 1.5; stroke-linecap: square"/>
   </g>
   <g id="line2d_56">
    <path d="M 440.3025 165.915617 
L 440.3025 151.542297 
" clip-path="url(#pcfa438b4ec)" style="fill: none; stroke: #22c55e; stroke-width: 1.5; stroke-linecap: square"/>
   </g>
   <g id="line2d_57">
    <path d="M 454.7025 156.828914 
L 454.7025 140.017891 
" clip-path="url(#pcfa438b4ec)" style="fill: none; stroke: #ef4444; stroke-width: 1.5; stroke-linecap: square"/>
   </g>
   <g id="line2d_58">
    <path d="M 469.1025 140.799634 
L 469.1025 120.523505 
" clip-path="url(#pcfa438b4ec)" style="fill: none; stroke: #ef4444; stroke-width: 1.5; stroke-linecap: square"/>
   </g>
   <g id="patch_33">
    <path d="M 37.1025 193.58154 
L 37.1025 31.318125 
" style="fill: none; stroke: #1f2937; stroke-width: 0.8; stroke-linejoin: miter; stroke-linecap: square"/>
   </g>
   <g id="patch_34">
    <path d="M 37.1025 193.58154 
L 483.5025 193.58154 
" style="fill: none; stroke: #1f2937; stroke-width: 0.8; stroke-linejoin: miter; stroke-linecap: square"/>
   </g>
   <g id="text_8">
    <!-- Piercing Line — DIS 1D -->
    <g style="fill: #ffffff" transform="translate(183.374063 16.318125) scale(0.12 -0.12)">
     <defs>
      <path id="DejaVuSans-Bold-50" d="M 588 4666 
L 2584 4666 
Q 3475 4666 3951 4270 
Q 4428 3875 4428 3144 
Q 4428 2409 3951 2014 
Q 3475 1619 2584 1619 
L 1791 1619 
L 1791 0 
L 588 0 
L 588 4666 
z
M 1791 3794 
L 1791 2491 
L 2456 2491 
Q 2806 2491 2997 2661 
Q 3188 2831 3188 3144 
Q 3188 3456 2997 3625 
Q 2806 3794 2456 3794 
L 1791 3794 
z
" transform="scale(0.015625)"/>
      <path id="DejaVuSans-Bold-69" d="M 538 3500 
L 1656 3500 
L 1656 0 
L 538 0 
L 538 3500 
z
M 538 4863 
L 1656 4863 
L 1656 3950 
L 538 3950 
L 538 4863 
z
" transform="scale(0.015625)"/>
      <path id="DejaVuSans-Bold-65" d="M 4031 1759 
L 4031 1441 
L 1416 1441 
Q 1456 1047 1700 850 
Q 1944 653 2381 653 
Q 2734 653 3104 758 
Q 3475 863 3866 1075 
L 3866 213 
Q 3469 63 3072 -14 
Q 2675 -91 2278 -91 
Q 1328 -91 801 392 
Q 275 875 275 1747 
Q 275 2603 792 3093 
Q 1309 3584 2216 3584 
Q 3041 3584 3536 3087 
Q 4031 2591 4031 1759 
z
M 2881 2131 
Q 2881 2450 2695 2645 
Q 2509 2841 2209 2841 
Q 1884 2841 1681 2658 
Q 1478 2475 1428 2131 
L 2881 2131 
z
" transform="scale(0.015625)"/>
      <path id="DejaVuSans-Bold-72" d="M 3138 2547 
Q 2991 2616 2845 2648 
Q 2700 2681 2553 2681 
Q 2122 2681 1889 2404 
Q 1656 2128 1656 1613 
L 1656 0 
L 538 0 
L 538 3500 
L 1656 3500 
L 1656 2925 
Q 1872 3269 2151 3426 
Q 2431 3584 2822 3584 
Q 2878 3584 2943 3579 
Q 3009 3575 3134 3559 
L 3138 2547 
z
" transform="scale(0.015625)"/>
      <path id="DejaVuSans-Bold-63" d="M 3366 3391 
L 3366 2478 
Q 3138 2634 2908 2709 
Q 2678 2784 2431 2784 
Q 1963 2784 1702 2511 
Q 1441 2238 1441 1747 
Q 1441 1256 1702 982 
Q 1963 709 2431 709 
Q 2694 709 2930 787 
Q 3166 866 3366 1019 
L 3366 103 
Q 3103 6 2833 -42 
Q 2563 -91 2291 -91 
Q 1344 -91 809 395 
Q 275 881 275 1747 
Q 275 2613 809 3098 
Q 1344 3584 2291 3584 
Q 2566 3584 2833 3536 
Q 3100 3488 3366 3391 
z
" transform="scale(0.015625)"/>
      <path id="DejaVuSans-Bold-6e" d="M 4056 2131 
L 4056 0 
L 2931 0 
L 2931 347 
L 2931 1631 
Q 2931 2084 2911 2256 
Q 2891 2428 2841 2509 
Q 2775 2619 2662 2680 
Q 2550 2741 2406 2741 
Q 2056 2741 1856 2470 
Q 1656 2200 1656 1722 
L 1656 0 
L 538 0 
L 538 3500 
L 1656 3500 
L 1656 2988 
Q 1909 3294 2193 3439 
Q 2478 3584 2822 3584 
Q 3428 3584 3742 3212 
Q 4056 2841 4056 2131 
z
" transform="scale(0.015625)"/>
      <path id="DejaVuSans-Bold-67" d="M 2919 594 
Q 2688 288 2409 144 
Q 2131 0 1766 0 
Q 1125 0 706 504 
Q 288 1009 288 1791 
Q 288 2575 706 3076 
Q 1125 3578 1766 3578 
Q 2131 3578 2409 3434 
Q 2688 3291 2919 2981 
L 2919 3500 
L 4044 3500 
L 4044 353 
Q 4044 -491 3511 -936 
Q 2978 -1381 1966 -1381 
Q 1638 -1381 1331 -1331 
Q 1025 -1281 716 -1178 
L 716 -306 
Q 1009 -475 1290 -558 
Q 1572 -641 1856 -641 
Q 2406 -641 2662 -400 
Q 2919 -159 2919 353 
L 2919 594 
z
M 2181 2772 
Q 1834 2772 1640 2515 
Q 1447 2259 1447 1791 
Q 1447 1309 1634 1061 
Q 1822 813 2181 813 
Q 2531 813 2725 1069 
Q 2919 1325 2919 1791 
Q 2919 2259 2725 2515 
Q 2531 2772 2181 2772 
z
" transform="scale(0.015625)"/>
      <path id="DejaVuSans-Bold-20" transform="scale(0.015625)"/>
      <path id="DejaVuSans-Bold-4c" d="M 588 4666 
L 1791 4666 
L 1791 909 
L 3903 909 
L 3903 0 
L 588 0 
L 588 4666 
z
" transform="scale(0.015625)"/>
      <path id="DejaVuSans-Bold-2014" d="M 344 2156 
L 6056 2156 
L 6056 1350 
L 344 1350 
L 344 2156 
z
" transform="scale(0.015625)"/>
      <path id="DejaVuSans-Bold-44" d="M 1791 3756 
L 1791 909 
L 2222 909 
Q 2959 909 3348 1275 
Q 3738 1641 3738 2338 
Q 3738 3031 3350 3393 
Q 2963 3756 2222 3756 
L 1791 3756 
z
M 588 4666 
L 1856 4666 
Q 2919 4666 3439 4514 
Q 3959 4363 4331 4000 
Q 4659 3684 4818 3271 
Q 4978 2859 4978 2338 
Q 4978 1809 4818 1395 
Q 4659 981 4331 666 
Q 3956 303 3431 151 
Q 2906 0 1856 0 
L 588 0 
L 588 4666 
z
" transform="scale(0.015625)"/>
      <path id="DejaVuSans-Bold-49" d="M 588 4666 
L 1791 4666 
L 1791 0 
L 588 0 
L 588 4666 
z
" transform="scale(0.015625)"/>
      <path id="DejaVuSans-Bold-53" d="M 3834 4519 
L 3834 3531 
Q 3450 3703 3084 3790 
Q 2719 3878 2394 3878 
Q 1963 3878 1756 3759 
Q 1550 3641 1550 3391 
Q 1550 3203 1689 3098 
Q 1828 2994 2194 2919 
L 2706 2816 
Q 3484 2659 3812 2340 
Q 4141 2022 4141 1434 
Q 4141 663 3683 286 
Q 3225 -91 2284 -91 
Q 1841 -91 1394 -6 
Q 947 78 500 244 
L 500 1259 
Q 947 1022 1364 901 
Q 1781 781 2169 781 
Q 2563 781 2772 912 
Q 2981 1044 2981 1288 
Q 2981 1506 2839 1625 
Q 2697 1744 2272 1838 
L 1806 1941 
Q 1106 2091 782 2419 
Q 459 2747 459 3303 
Q 459 4000 909 4375 
Q 1359 4750 2203 4750 
Q 2588 4750 2994 4692 
Q 3400 4634 3834 4519 
z
" transform="scale(0.015625)"/>
      <path id="DejaVuSans-Bold-31" d="M 750 831 
L 1813 831 
L 1813 3847 
L 722 3622 
L 722 4441 
L 1806 4666 
L 2950 4666 
L 2950 831 
L 4013 831 
L 4013 0 
L 750 0 
L 750 831 
z
" transform="scale(0.015625)"/>
     </defs>
     <use xlink:href="#DejaVuSans-Bold-50"/>
     <use xlink:href="#DejaVuSans-Bold-69" transform="translate(73.291016 0)"/>
     <use xlink:href="#DejaVuSans-Bold-65" transform="translate(107.568359 0)"/>
     <use xlink:href="#DejaVuSans-Bold-72" transform="translate(175.390625 0)"/>
     <use xlink:href="#DejaVuSans-Bold-63" transform="translate(224.707031 0)"/>
     <use xlink:href="#DejaVuSans-Bold-69" transform="translate(283.984375 0)"/>
     <use xlink:href="#DejaVuSans-Bold-6e" transform="translate(318.261719 0)"/>
     <use xlink:href="#DejaVuSans-Bold-67" transform="translate(389.453125 0)"/>
     <use xlink:href="#DejaVuSans-Bold-20" transform="translate(461.035156 0)"/>
     <use xlink:href="#DejaVuSans-Bold-4c" transform="translate(495.849609 0)"/>
     <use xlink:href="#DejaVuSans-Bold-69" transform="translate(559.570312 0)"/>
     <use xlink:href="#DejaVuSans-Bold-6e" transform="translate(593.847656 0)"/>
     <use xlink:href="#DejaVuSans-Bold-65" transform="translate(665.039062 0)"/>
     <use xlink:href="#DejaVuSans-Bold-20" transform="translate(732.861328 0)"/>
     <use xlink:href="#DejaVuSans-Bold-2014" transform="translate(767.675781 0)"/>
     <use xlink:href="#DejaVuSans-Bold-20" transform="translate(867.675781 0)"/>
     <use xlink:href="#DejaVuSans-Bold-44" transform="translate(902.490234 0)"/>
     <use xlink:href="#DejaVuSans-Bold-49" transform="translate(985.498047 0)"/>
     <use xlink:href="#DejaVuSans-Bold-53" transform="translate(1022.705078 0)"/>
     <use xlink:href="#DejaVuSans-Bold-20" transform="translate(1094.726562 0)"/>
     <use xlink:href="#DejaVuSans-Bold-31" transform="translate(1129.541016 0)"/>
     <use xlink:href="#DejaVuSans-Bold-44" transform="translate(1199.121094 0)"/>
    </g>
   </g>
  </g>
  <g id="axes_2">
   <g id="patch_35">
    <path d="M 37.1025 253.078125 
L 483.5025 253.078125 
L 483.5025 198.99032 
L 37.1025 198.99032 
z
" style="fill: #0a0f1a"/>
   </g>
   <g id="patch_36">
    <path d="M 57.393409 253.078125 
L 66.958147 253.078125 
L 66.958147 219.936131 
L 57.393409 219.936131 
z
" clip-path="url(#p5be533c6bc)" style="fill: #22c55e; fill-opacity: 0.266667"/>
   </g>
   <g id="patch_37">
    <path d="M 71.057321 253.078125 
L 80.622059 253.078125 
L 80.622059 221.1121 
L 71.057321 221.1121 
z
" clip-path="url(#p5be533c6bc)" style="fill: #22c55e; fill-opacity: 0.266667"/>
   </g>
   <g id="patch_38">
    <path d="M 84.721233 253.078125 
L 94.285971 253.078125 
L 94.285971 201.56593 
L 84.721233 201.56593 
z
" clip-path="url(#p5be533c6bc)" style="fill: #ef4444; fill-opacity: 0.266667"/>
   </g>
   <g id="patch_39">
    <path d="M 98.385145 253.078125 
L 107.949883 253.078125 
L 107.949883 242.212387 
L 98.385145 242.212387 
z
" clip-path="url(#p5be533c6bc)" style="fill: #ef4444; fill-opacity: 0.266667"/>
   </g>
   <g id="patch_40">
    <path d="M 112.049056 253.078125 
L 121.613795 253.078125 
L 121.613795 212.748276 
L 112.049056 212.748276 
z
" clip-path="url(#p5be533c6bc)" style="fill: #ef4444; fill-opacity: 0.266667"/>
   </g>
   <g id="patch_41">
    <path d="M 125.712968 253.078125 
L 135.277707 253.078125 
L 135.277707 235.544794 
L 125.712968 235.544794 
z
" clip-path="url(#p5be533c6bc)" style="fill: #22c55e; fill-opacity: 0.266667"/>
   </g>
   <g id="patch_42">
    <path d="M 139.37688 253.078125 
L 148.941618 253.078125 
L 148.941618 202.184499 
L 139.37688 202.184499 
z
" clip-path="url(#p5be533c6bc)" style="fill: #ef4444; fill-opacity: 0.266667"/>
   </g>
   <g id="patch_43">
    <path d="M 153.040792 253.078125 
L 162.60553 253.078125 
L 162.60553 226.796037 
L 153.040792 226.796037 
z
" clip-path="url(#p5be533c6bc)" style="fill: #22c55e; fill-opacity: 0.266667"/>
   </g>
   <g id="patch_44">
    <path d="M 166.704704 253.078125 
L 176.269442 253.078125 
L 176.269442 217.40917 
L 166.704704 217.40917 
z
" clip-path="url(#p5be533c6bc)" style="fill: #22c55e; fill-opacity: 0.266667"/>
   </g>
   <g id="patch_45">
    <path d="M 180.368616 253.078125 
L 189.933354 253.078125 
L 189.933354 234.824715 
L 180.368616 234.824715 
z
" clip-path="url(#p5be533c6bc)" style="fill: #ef4444; fill-opacity: 0.266667"/>
   </g>
   <g id="patch_46">
    <path d="M 194.032528 253.078125 
L 203.597266 253.078125 
L 203.597266 240.551539 
L 194.032528 240.551539 
z
" clip-path="url(#p5be533c6bc)" style="fill: #ef4444; fill-opacity: 0.266667"/>
   </g>
   <g id="patch_47">
    <path d="M 207.696439 253.078125 
L 217.261178 253.078125 
L 217.261178 202.637356 
L 207.696439 202.637356 
z
" clip-path="url(#p5be533c6bc)" style="fill: #22c55e; fill-opacity: 0.266667"/>
   </g>
   <g id="patch_48">
    <path d="M 221.360351 253.078125 
L 230.92509 253.078125 
L 230.92509 212.688628 
L 221.360351 212.688628 
z
" clip-path="url(#p5be533c6bc)" style="fill: #22c55e; fill-opacity: 0.266667"/>
   </g>
   <g id="patch_49">
    <path d="M 235.024263 253.078125 
L 244.589001 253.078125 
L 244.589001 223.124686 
L 235.024263 223.124686 
z
" clip-path="url(#p5be533c6bc)" style="fill: #ef4444; fill-opacity: 0.266667"/>
   </g>
   <g id="patch_50">
    <path d="M 248.688175 253.078125 
L 258.252913 253.078125 
L 258.252913 215.467223 
L 248.688175 215.467223 
z
" clip-path="url(#p5be533c6bc)" style="fill: #ef4444; fill-opacity: 0.266667"/>
   </g>
   <g id="patch_51">
    <path d="M 262.352087 253.078125 
L 271.916825 253.078125 
L 271.916825 222.0159 
L 262.352087 222.0159 
z
" clip-path="url(#p5be533c6bc)" style="fill: #22c55e; fill-opacity: 0.266667"/>
   </g>
   <g id="patch_52">
    <path d="M 276.015999 253.078125 
L 285.580737 253.078125 
L 285.580737 206.683823 
L 276.015999 206.683823 
z
" clip-path="url(#p5be533c6bc)" style="fill: #ef4444; fill-opacity: 0.266667"/>
   </g>
   <g id="patch_53">
    <path d="M 289.67991 253.078125 
L 299.244649 253.078125 
L 299.244649 223.282948 
L 289.67991 223.282948 
z
" clip-path="url(#p5be533c6bc)" style="fill: #22c55e; fill-opacity: 0.266667"/>
   </g>
   <g id="patch_54">
    <path d="M 303.343822 253.078125 
L 312.908561 253.078125 
L 312.908561 242.322193 
L 303.343822 242.322193 
z
" clip-path="url(#p5be533c6bc)" style="fill: #ef4444; fill-opacity: 0.266667"/>
   </g>
   <g id="patch_55">
    <path d="M 317.007734 253.078125 
L 326.572472 253.078125 
L 326.572472 240.26652 
L 317.007734 240.26652 
z
" clip-path="url(#p5be533c6bc)" style="fill: #22c55e; fill-opacity: 0.266667"/>
   </g>
   <g id="patch_56">
    <path d="M 330.671646 253.078125 
L 340.236384 253.078125 
L 340.236384 204.232014 
L 330.671646 204.232014 
z
" clip-path="url(#p5be533c6bc)" style="fill: #22c55e; fill-opacity: 0.266667"/>
   </g>
   <g id="patch_57">
    <path d="M 344.335558 253.078125 
L 353.900296 253.078125 
L 353.900296 224.700743 
L 344.335558 224.700743 
z
" clip-path="url(#p5be533c6bc)" style="fill: #22c55e; fill-opacity: 0.266667"/>
   </g>
   <g id="patch_58">
    <path d="M 357.99947 253.078125 
L 367.564208 253.078125 
L 367.564208 229.08968 
L 357.99947 229.08968 
z
" clip-path="url(#p5be533c6bc)" style="fill: #22c55e; fill-opacity: 0.266667"/>
   </g>
   <g id="patch_59">
    <path d="M 371.663382 253.078125 
L 381.22812 253.078125 
L 381.22812 211.918835 
L 371.663382 211.918835 
z
" clip-path="url(#p5be533c6bc)" style="fill: #ef4444; fill-opacity: 0.266667"/>
   </g>
   <g id="patch_60">
    <path d="M 385.327293 253.078125 
L 394.892032 253.078125 
L 394.892032 233.721341 
L 385.327293 233.721341 
z
" clip-path="url(#p5be533c6bc)" style="fill: #22c55e; fill-opacity: 0.266667"/>
   </g>
   <g id="patch_61">
    <path d="M 398.991205 253.078125 
L 408.555944 253.078125 
L 408.555944 241.578758 
L 398.991205 241.578758 
z
" clip-path="url(#p5be533c6bc)" style="fill: #22c55e; fill-opacity: 0.266667"/>
   </g>
   <g id="patch_62">
    <path d="M 412.655117 253.078125 
L 422.219855 253.078125 
L 422.219855 204.825684 
L 412.655117 204.825684 
z
" clip-path="url(#p5be533c6bc)" style="fill: #ef4444; fill-opacity: 0.266667"/>
   </g>
   <g id="patch_63">
    <path d="M 426.319029 253.078125 
L 435.883767 253.078125 
L 435.883767 204.374455 
L 426.319029 204.374455 
z
" clip-path="url(#p5be533c6bc)" style="fill: #22c55e; fill-opacity: 0.266667"/>
   </g>
   <g id="patch_64">
    <path d="M 439.982941 253.078125 
L 449.547679 253.078125 
L 449.547679 213.994906 
L 439.982941 213.994906 
z
" clip-path="url(#p5be533c6bc)" style="fill: #ef4444; fill-opacity: 0.266667"/>
   </g>
   <g id="patch_65">
    <path d="M 453.646853 253.078125 
L 463.211591 253.078125 
L 463.211591 238.577359 
L 453.646853 238.577359 
z
" clip-path="url(#p5be533c6bc)" style="fill: #ef4444; fill-opacity: 0.266667"/>
   </g>
   <g id="matplotlib.axis_3">
    <g id="xtick_8">
     <g id="line2d_59">
      <path d="M 62.175778 253.078125 
L 62.175778 198.99032 
" clip-path="url(#p5be533c6bc)" style="fill: none; stroke-dasharray: 2.96,1.28; stroke-dashoffset: 0; stroke: #374151; stroke-opacity: 0.1; stroke-width: 0.8"/>
     </g>
     <g id="line2d_60">
      <g>
       <use xlink:href="#m51228e9c3c" x="62.175778" y="253.078125" style="fill: #9ca3af; stroke: #9ca3af; stroke-width: 0.8"/>
      </g>
     </g>
     <g id="text_9">
      <!-- 0 -->
      <g style="fill: #9ca3af" transform="translate(59.630778 266.156875) scale(0.08 -0.08)">
       <use xlink:href="#DejaVuSans-30"/>
      </g>
     </g>
    </g>
    <g id="xtick_9">
     <g id="line2d_61">
      <path d="M 130.495337 253.078125 
L 130.495337 198.99032 
" clip-path="url(#p5be533c6bc)" style="fill: none; stroke-dasharray: 2.96,1.28; stroke-dashoffset: 0; stroke: #374151; stroke-opacity: 0.1; stroke-width: 0.8"/>
     </g>
     <g id="line2d_62">
      <g>
       <use xlink:href="#m51228e9c3c" x="130.495337" y="253.078125" style="fill: #9ca3af; stroke: #9ca3af; stroke-width: 0.8"/>
      </g>
     </g>
     <g id="text_10">
      <!-- 5 -->
      <g style="fill: #9ca3af" transform="translate(127.950337 266.156875) scale(0.08 -0.08)">
       <use xlink:href="#DejaVuSans-35"/>
      </g>
     </g>
    </g>
    <g id="xtick_10">
     <g id="line2d_63">
      <path d="M 198.814897 253.078125 
L 198.814897 198.99032 
" clip-path="url(#p5be533c6bc)" style="fill: none; stroke-dasharray: 2.96,1.28; stroke-dashoffset: 0; stroke: #374151; stroke-opacity: 0.1; stroke-width: 0.8"/>
     </g>
     <g id="line2d_64">
      <g>
       <use xlink:href="#m51228e9c3c" x="198.814897" y="253.078125" style="fill: #9ca3af; stroke: #9ca3af; stroke-width: 0.8"/>
      </g>
     </g>
     <g id="text_11">
      <!-- 10 -->
      <g style="fill: #9ca3af" transform="translate(193.724897 266.156875) scale(0.08 -0.08)">
       <use xlink:href="#DejaVuSans-31"/>
       <use xlink:href="#DejaVuSans-30" transform="translate(63.623047 0)"/>
      </g>
     </g>
    </g>
    <g id="xtick_11">
     <g id="line2d_65">
      <path d="M 267.134456 253.078125 
L 267.134456 198.99032 
" clip-path="url(#p5be533c6bc)" style="fill: none; stroke-dasharray: 2.96,1.28; stroke-dashoffset: 0; stroke: #374151; stroke-opacity: 0.1; stroke-width: 0.8"/>
     </g>
     <g id="line2d_66">
      <g>
       <use xlink:href="#m51228e9c3c" x="267.134456" y="253.078125" style="fill: #9ca3af; stroke: #9ca3af; stroke-width: 0.8"/>
      </g>
     </g>
     <g id="text_12">
      <!-- 15 -->
      <g style="fill: #9ca3af" transform="translate(262.044456 266.156875) scale(0.08 -0.08)">
       <use xlink:href="#DejaVuSans-31"/>
       <use xlink:href="#DejaVuSans-35" transform="translate(63.623047 0)"/>
      </g>
     </g>
    </g>
    <g id="xtick_12">
     <g id="line2d_67">
      <path d="M 335.454015 253.078125 
L 335.454015 198.99032 
" clip-path="url(#p5be533c6bc)" style="fill: none; stroke-dasharray: 2.96,1.28; stroke-dashoffset: 0; stroke: #374151; stroke-opacity: 0.1; stroke-width: 0.8"/>
     </g>
     <g id="line2d_68">
      <g>
       <use xlink:href="#m51228e9c3c" x="335.454015" y="253.078125" style="fill: #9ca3af; stroke: #9ca3af; stroke-width: 0.8"/>
      </g>
     </g>
     <g id="text_13">
      <!-- 20 -->
      <g style="fill: #9ca3af" transform="translate(330.364015 266.156875) scale(0.08 -0.08)">
       <use xlink:href="#DejaVuSans-32"/>
       <use xlink:href="#DejaVuSans-30" transform="translate(63.623047 0)"/>
      </g>
     </g>
    </g>
    <g id="xtick_13">
     <g id="line2d_69">
      <path d="M 403.773574 253.078125 
L 403.773574 198.99032 
" clip-path="url(#p5be533c6bc)" style="fill: none; stroke-dasharray: 2.96,1.28; stroke-dashoffset: 0; stroke: #374151; stroke-opacity: 0.1; stroke-width: 0.8"/>
     </g>
     <g id="line2d_70">
      <g>
       <use xlink:href="#m51228e9c3c" x="403.773574" y="253.078125" style="fill: #9ca3af; stroke: #9ca3af; stroke-width: 0.8"/>
      </g>
     </g>
     <g id="text_14">
      <!-- 25 -->
      <g style="fill: #9ca3af" transform="translate(398.683574 266.156875) scale(0.08 -0.08)">
       <use xlink:href="#DejaVuSans-32"/>
       <use xlink:href="#DejaVuSans-35" transform="translate(63.623047 0)"/>
      </g>
     </g>
    </g>
    <g id="xtick_14">
     <g id="line2d_71">
      <path d="M 472.093134 253.078125 
L 472.093134 198.99032 
" clip-path="url(#p5be533c6bc)" style="fill: none; stroke-dasharray: 2.96,1.28; stroke-dashoffset: 0; stroke: #374151; stroke-opacity: 0.1; stroke-width: 0.8"/>
     </g>
     <g id="line2d_72">
      <g>
       <use xlink:href="#m51228e9c3c" x="472.093134" y="253.078125" style="fill: #9ca3af; stroke: #9ca3af; stroke-width: 0.8"/>
      </g>
     </g>
     <g id="text_15">
      <!-- 30 -->
      <g style="fill: #9ca3af" transform="translate(467.003134 266.156875) scale(0.08 -0.08)">
       <defs>
        <path id="DejaVuSans-33" d="M 2597 2516 
Q 3050 2419 3304 2112 
Q 3559 1806 3559 1356 
Q 3559 666 3084 287 
Q 2609 -91 1734 -91 
Q 1441 -91 1130 -33 
Q 819 25 488 141 
L 488 750 
Q 750 597 1062 519 
Q 1375 441 1716 441 
Q 2309 441 2620 675 
Q 2931 909 2931 1356 
Q 2931 1769 2642 2001 
Q 2353 2234 1838 2234 
L 1294 2234 
L 1294 2753 
L 1863 2753 
Q 2328 2753 2575 2939 
Q 2822 3125 2822 3475 
Q 2822 3834 2567 4026 
Q 2313 4219 1838 4219 
Q 1578 4219 1281 4162 
Q 984 4106 628 3988 
L 628 4550 
Q 988 4650 1302 4700 
Q 1616 4750 1894 4750 
Q 2613 4750 3031 4423 
Q 3450 4097 3450 3541 
Q 3450 3153 3228 2886 
Q 3006 2619 2597 2516 
z
" transform="scale(0.015625)"/>
       </defs>
       <use xlink:href="#DejaVuSans-33"/>
       <use xlink:href="#DejaVuSans-30" transform="translate(63.623047 0)"/>
      </g>
     </g>
    </g>
   </g>
   <g id="matplotlib.axis_4">
    <g id="ytick_8">
     <g id="line2d_73">
      <path d="M 37.1025 253.078125 
L 483.5025 253.078125 
" clip-path="url(#p5be533c6bc)" style="fill: none; stroke-dasharray: 2.96,1.28; stroke-dashoffset: 0; stroke: #374151; stroke-opacity: 0.1; stroke-width: 0.8"/>
     </g>
     <g id="line2d_74">
      <g>
       <use xlink:href="#m10ffe92628" x="37.1025" y="253.078125" style="fill: #9ca3af; stroke: #9ca3af; stroke-width: 0.8"/>
      </g>
     </g>
     <g id="text_16">
      <!-- 0 -->
      <g style="fill: #9ca3af" transform="translate(25.0125 256.1175) scale(0.08 -0.08)">
       <use xlink:href="#DejaVuSans-30"/>
      </g>
     </g>
    </g>
    <g id="ytick_9">
     <g id="line2d_75">
      <path d="M 37.1025 231.941292 
L 483.5025 231.941292 
" clip-path="url(#p5be533c6bc)" style="fill: none; stroke-dasharray: 2.96,1.28; stroke-dashoffset: 0; stroke: #374151; stroke-opacity: 0.1; stroke-width: 0.8"/>
     </g>
     <g id="line2d_76">
      <g>
       <use xlink:href="#m10ffe92628" x="37.1025" y="231.941292" style="fill: #9ca3af; stroke: #9ca3af; stroke-width: 0.8"/>
      </g>
     </g>
     <g id="text_17">
      <!-- 2 -->
      <g style="fill: #9ca3af" transform="translate(25.0125 234.980667) scale(0.08 -0.08)">
       <use xlink:href="#DejaVuSans-32"/>
      </g>
     </g>
    </g>
    <g id="ytick_10">
     <g id="line2d_77">
      <path d="M 37.1025 210.804459 
L 483.5025 210.804459 
" clip-path="url(#p5be533c6bc)" style="fill: none; stroke-dasharray: 2.96,1.28; stroke-dashoffset: 0; stroke: #374151; stroke-opacity: 0.1; stroke-width: 0.8"/>
     </g>
     <g id="line2d_78">
      <g>
       <use xlink:href="#m10ffe92628" x="37.1025" y="210.804459" style="fill: #9ca3af; stroke: #9ca3af; stroke-width: 0.8"/>
      </g>
     </g>
     <g id="text_18">
      <!-- 4 -->
      <g style="fill: #9ca3af" transform="translate(25.0125 213.843834) scale(0.08 -0.08)">
       <defs>
        <path id="DejaVuSans-34" d="M 2419 4116 
L 825 1625 
L 2419 1625 
L 2419 4116 
z
M 2253 4666 
L 3047 4666 
L 3047 1625 
L 3713 1625 
L 3713 1100 
L 3047 1100 
L 3047 0 
L 2419 0 
L 2419 1100 
L 313 1100 
L 313 1709 
L 2253 4666 
z
" transform="scale(0.015625)"/>
       </defs>
       <use xlink:href="#DejaVuSans-34"/>
      </g>
     </g>
    </g>
    <g id="text_19">
     <!-- Vol -->
     <g style="fill: #9ca3af" transform="translate(19.34875 232.019223) rotate(-90) scale(0.08 -0.08)">
      <defs>
       <path id="DejaVuSans-56" d="M 1831 0 
L 50 4666 
L 709 4666 
L 2188 738 
L 3669 4666 
L 4325 4666 
L 2547 0 
L 1831 0 
z
" transform="scale(0.015625)"/>
       <path id="DejaVuSans-6f" d="M 1959 3097 
Q 1497 3097 1228 2736 
Q 959 2375 959 1747 
Q 959 1119 1226 758 
Q 1494 397 1959 397 
Q 2419 397 2687 759 
Q 2956 1122 2956 1747 
Q 2956 2369 2687 2733 
Q 2419 3097 1959 3097 
z
M 1959 3584 
Q 2709 3584 3137 3096 
Q 3566 2609 3566 1747 
Q 3566 888 3137 398 
Q 2709 -91 1959 -91 
Q 1206 -91 779 398 
Q 353 888 353 1747 
Q 353 2609 779 3096 
Q 1206 3584 1959 3584 
z
" transform="scale(0.015625)"/>
       <path id="DejaVuSans-6c" d="M 603 4863 
L 1178 4863 
L 1178 0 
L 603 0 
L 603 4863 
z
" transform="scale(0.015625)"/>
      </defs>
      <use xlink:href="#DejaVuSans-56"/>
      <use xlink:href="#DejaVuSans-6f" transform="translate(60.658203 0)"/>
      <use xlink:href="#DejaVuSans-6c" transform="translate(121.839844 0)"/>
     </g>
    </g>
    <g id="text_20">
     <!-- 1e6 -->
     <g style="fill: #9ca3af" transform="translate(37.1025 195.99032) scale(0.1 -0.1)">
      <defs>
       <path id="DejaVuSans-65" d="M 3597 1894 
L 3597 1613 
L 953 1613 
Q 991 1019 1311 708 
Q 1631 397 2203 397 
Q 2534 397 2845 478 
Q 3156 559 3463 722 
L 3463 178 
Q 3153 47 2828 -22 
Q 2503 -91 2169 -91 
Q 1331 -91 842 396 
Q 353 884 353 1716 
Q 353 2575 817 3079 
Q 1281 3584 2069 3584 
Q 2775 3584 3186 3129 
Q 3597 2675 3597 1894 
z
M 3022 2063 
Q 3016 2534 2758 2815 
Q 2500 3097 2075 3097 
Q 1594 3097 1305 2825 
Q 1016 2553 972 2059 
L 3022 2063 
z
" transform="scale(0.015625)"/>
       <path id="DejaVuSans-36" d="M 2113 2584 
Q 1688 2584 1439 2293 
Q 1191 2003 1191 1497 
Q 1191 994 1439 701 
Q 1688 409 2113 409 
Q 2538 409 2786 701 
Q 3034 994 3034 1497 
Q 3034 2003 2786 2293 
Q 2538 2584 2113 2584 
z
M 3366 4563 
L 3366 3988 
Q 3128 4100 2886 4159 
Q 2644 4219 2406 4219 
Q 1781 4219 1451 3797 
Q 1122 3375 1075 2522 
Q 1259 2794 1537 2939 
Q 1816 3084 2150 3084 
Q 2853 3084 3261 2657 
Q 3669 2231 3669 1497 
Q 3669 778 3244 343 
Q 2819 -91 2113 -91 
Q 1303 -91 875 529 
Q 447 1150 447 2328 
Q 447 3434 972 4092 
Q 1497 4750 2381 4750 
Q 2619 4750 2861 4703 
Q 3103 4656 3366 4563 
z
" transform="scale(0.015625)"/>
      </defs>
      <use xlink:href="#DejaVuSans-31"/>
      <use xlink:href="#DejaVuSans-65" transform="translate(63.623047 0)"/>
      <use xlink:href="#DejaVuSans-36" transform="translate(125.146484 0)"/>
     </g>
    </g>
   </g>
   <g id="patch_66">
    <path d="M 37.1025 253.078125 
L 37.1025 198.99032 
" style="fill: none; stroke: #1f2937; stroke-width: 0.8; stroke-linejoin: miter; stroke-linecap: square"/>
   </g>
   <g id="patch_67">
    <path d="M 37.1025 253.078125 
L 483.5025 253.078125 
" style="fill: none; stroke: #1f2937; stroke-width: 0.8; stroke-linejoin: miter; stroke-linecap: square"/>
   </g>
  </g>
 </g>
 <defs>
  <clipPath id="pcfa438b4ec">
   <rect x="37.1025" y="31.318125" width="446.4" height="162.263415"/>
  </clipPath>
  <clipPath id="p5be533c6bc">
   <rect x="37.1025" y="198.99032" width="446.4" height="54.087805"/>
  </clipPath>
 </defs>
</svg>
