<?xml version="1.0" encoding="utf-8" standalone="no"?>
<!DOCTYPE svg PUBLIC "-//W3C//DTD SVG 1.1//EN"
  "http://www.w3.org/Graphics/SVG/1.1/DTD/svg11.dtd">
<svg xmlns:xlink="http://www.w3.org/1999/xlink" width="484.6325pt" height="275.020625pt" viewBox="0 0 484.6325 275.020625" xmlns="http://www.w3.org/2000/svg" version="1.1">
 <metadata>
  <rdf:RDF xmlns:dc="http://purl.org/dc/elements/1.1/" xmlns:cc="http://creativecommons.org/ns#" xmlns:rdf="http://www.w3.org/1999/02/22-rdf-syntax-ns#">
   <cc:Work>
    <dc:type rdf:resource="http://purl.org/dc/dcmitype/StillImage"/>
    <dc:date>2026-02-16T09:12:26.795648</dc:date>
    <dc:format>image/svg+xml</dc:format>
    <dc:creator>
     <cc:Agent>
      <dc:title>Matplotlib v3.10.8, https://matplotlib.org/</dc:title>
     </cc:Agent>
    </dc:creator>
   </cc:Work>
  </rdf:RDF>
 </metadata>
 <defs>
  <style type="text/css">*{stroke-linejoin: round; stroke-linecap: butt}</style>
 </defs>
 <g id="figure_1">
  <g id="patch_1">
   <path d="M 0 275.020625 
L 484.6325 275.020625 
L 484.6325 0 
L 0 0 
z
" style="fill: #0a0f1a"/>
  </g>
  <g id="axes_1">
   <g id="patch_2">
    <path d="M 31.0325 193.58154 
L 477.4325 193.58154 
L 477.4325 31.318125 
L 31.0325 31.318125 
z
" style="fill: #0a0f1a"/>
   </g>
   <g id="patch_3">
    <path d="M 40.3925 161.386303 
L 50.4725 161.386303 
Q 50.7605 161.386303 50.7605 161.106138 
L 50.7605 147.594461 
Q 50.7605 147.314296 50.4725 147.314296 
L 40.3925 147.314296 
Q 40.1045 147.314296 40.1045 147.594461 
L 40.1045 161.106138 
Q 40.1045 161.386303 40.3925 161.386303 
z
" clip-path="url(#p84cfeb1f3c)" style="fill: #22c55e; stroke: #22c55e; stroke-linejoin: miter"/>
   </g>
   <g id="patch_4">
    <path d="M 54.7925 174.293331 
L 64.8725 174.293331 
Q 65.1605 174.293331 65.1605 174.013165 
L 65.1605 158.561078 
Q 65.1605 158.280913 64.8725 158.280913 
L 54.7925 158.280913 
Q 54.5045 158.280913 54.5045 158.561078 
L 54.5045 174.013165 
Q 54.5045 174.293331 54.7925 174.293331 
z
" clip-path="url(#p84cfeb1f3c)" style="fill: #22c55e; stroke: #22c55e; stroke-linejoin: miter"/>
   </g>
   <g id="patch_5">
    <path d="M 69.1925 165.123724 
L 79.2725 165.123724 
Q 79.5605 165.123724 79.5605 164.843558 
L 79.5605 150.548536 
Q 79.5605 150.26837 79.2725 150.26837 
L 69.1925 150.26837 
Q 68.9045 150.26837 68.9045 150.548536 
L 68.9045 164.843558 
Q 68.9045 165.123724 69.1925 165.123724 
z
" clip-path="url(#p84cfeb1f3c)" style="fill: #ef4444; stroke: #ef4444; stroke-linejoin: miter"/>
   </g>
   <g id="patch_6">
    <path d="M 83.5925 176.781533 
L 93.6725 176.781533 
Q 93.9605 176.781533 93.9605 176.501367 
L 93.9605 160.648692 
Q 93.9605 160.368526 93.6725 160.368526 
L 83.5925 160.368526 
Q 83.3045 160.368526 83.3045 160.648692 
L 83.3045 176.501367 
Q 83.3045 176.781533 83.5925 176.781533 
z
" clip-path="url(#p84cfeb1f3c)" style="fill: #22c55e; stroke: #22c55e; stroke-linejoin: miter"/>
   </g>
   <g id="patch_7">
    <path d="M 97.9925 165.11533 
L 108.0725 165.11533 
Q 108.3605 165.11533 108.3605 164.835165 
L 108.3605 149.949839 
Q 108.3605 149.669674 108.0725 149.669674 
L 97.9925 149.669674 
Q 97.7045 149.669674 97.7045 149.949839 
L 97.7045 164.835165 
Q 97.7045 165.11533 97.9925 165.11533 
z
" clip-path="url(#p84cfeb1f3c)" style="fill: #22c55e; stroke: #22c55e; stroke-linejoin: miter"/>
   </g>
   <g id="patch_8">
    <path d="M 112.3925 134.97527 
L 122.4725 134.97527 
Q 122.7605 134.97527 122.7605 134.695104 
L 122.7605 118.315513 
Q 122.7605 118.035348 122.4725 118.035348 
L 112.3925 118.035348 
Q 112.1045 118.035348 112.1045 118.315513 
L 112.1045 134.695104 
Q 112.1045 134.97527 112.3925 134.97527 
z
" clip-path="url(#p84cfeb1f3c)" style="fill: #22c55e; stroke: #22c55e; stroke-linejoin: miter"/>
   </g>
   <g id="patch_9">
    <path d="M 126.7925 125.243887 
L 136.8725 125.243887 
Q 137.1605 125.243887 137.1605 124.963721 
L 137.1605 104.97243 
Q 137.1605 104.692265 136.8725 104.692265 
L 126.7925 104.692265 
Q 126.5045 104.692265 126.5045 104.97243 
L 126.5045 124.963721 
Q 126.5045 125.243887 126.7925 125.243887 
z
" clip-path="url(#p84cfeb1f3c)" style="fill: #22c55e; stroke: #22c55e; stroke-linejoin: miter"/>
   </g>
   <g id="patch_10">
    <path d="M 141.1925 132.639523 
L 151.2725 132.639523 
Q 151.5605 132.639523 151.5605 132.359358 
L 151.5605 115.749217 
Q 151.5605 115.469052 151.2725 115.469052 
L 141.1925 115.469052 
Q 140.9045 115.469052 140.9045 115.749217 
L 140.9045 132.359358 
Q 140.9045 132.639523 141.1925 132.639523 
z
" clip-path="url(#p84cfeb1f3c)" style="fill: #ef4444; stroke: #ef4444; stroke-linejoin: miter"/>
   </g>
   <g id="patch_11">
    <path d="M 155.5925 133.000033 
L 165.6725 133.000033 
Q 165.9605 133.000033 165.9605 132.719867 
L 165.9605 113.256785 
Q 165.9605 112.97662 165.6725 112.97662 
L 155.5925 112.97662 
Q 155.3045 112.97662 155.3045 113.256785 
L 155.3045 132.719867 
Q 155.3045 133.000033 155.5925 133.000033 
z
" clip-path="url(#p84cfeb1f3c)" style="fill: #22c55e; stroke: #22c55e; stroke-linejoin: miter"/>
   </g>
   <g id="patch_12">
    <path d="M 169.9925 129.292981 
L 180.0725 129.292981 
Q 180.3605 129.292981 180.3605 129.012815 
L 180.3605 110.861573 
Q 180.3605 110.581408 180.0725 110.581408 
L 169.9925 110.581408 
Q 169.7045 110.581408 169.7045 110.861573 
L 169.7045 129.012815 
Q 169.7045 129.292981 169.9925 129.292981 
z
" clip-path="url(#p84cfeb1f3c)" style="fill: #ef4444; stroke: #ef4444; stroke-linejoin: miter"/>
   </g>
   <g id="patch_13">
    <path d="M 184.3925 114.624562 
L 194.4725 114.624562 
Q 194.7605 114.624562 194.7605 114.344397 
L 194.7605 96.501031 
Q 194.7605 96.220866 194.4725 96.220866 
L 184.3925 96.220866 
Q 184.1045 96.220866 184.1045 96.501031 
L 184.1045 114.344397 
Q 184.1045 114.624562 184.3925 114.624562 
z
" clip-path="url(#p84cfeb1f3c)" style="fill: #ef4444; stroke: #ef4444; stroke-linejoin: miter"/>
   </g>
   <g id="patch_14">
    <path d="M 198.7925 134.420171 
L 208.8725 134.420171 
Q 209.1605 134.420171 209.1605 134.140006 
L 209.1605 123.46395 
Q 209.1605 123.183785 208.8725 123.183785 
L 198.7925 123.183785 
Q 198.5045 123.183785 198.5045 123.46395 
L 198.5045 134.140006 
Q 198.5045 134.420171 198.7925 134.420171 
z
" clip-path="url(#p84cfeb1f3c)" style="fill: #22c55e; stroke: #22c55e; stroke-linejoin: miter"/>
   </g>
   <g id="patch_15">
    <path d="M 213.1925 144.812745 
L 223.2725 144.812745 
Q 223.5605 144.812745 223.5605 144.53258 
L 223.5605 124.404833 
Q 223.5605 124.124668 223.2725 124.124668 
L 213.1925 124.124668 
Q 212.9045 124.124668 212.9045 124.404833 
L 212.9045 144.53258 
Q 212.9045 144.812745 213.1925 144.812745 
z
" clip-path="url(#p84cfeb1f3c)" style="fill: #ef4444; stroke: #ef4444; stroke-linejoin: miter"/>
   </g>
   <g id="patch_16">
    <path d="M 227.5925 135.519094 
L 237.6725 135.519094 
Q 237.9605 135.519094 237.9605 135.238929 
L 237.9605 129.009115 
Q 237.9605 128.728949 237.6725 128.728949 
L 227.5925 128.728949 
Q 227.3045 128.728949 227.3045 129.009115 
L 227.3045 135.238929 
Q 227.3045 135.519094 227.5925 135.519094 
z
" clip-path="url(#p84cfeb1f3c)" style="fill: #22c55e; stroke: #22c55e; stroke-linejoin: miter"/>
   </g>
   <g id="patch_17">
    <path d="M 241.9925 136.42487 
L 252.0725 136.42487 
Q 252.3605 136.42487 252.3605 136.144704 
L 252.3605 118.23804 
Q 252.3605 117.957874 252.0725 117.957874 
L 241.9925 117.957874 
Q 241.7045 117.957874 241.7045 118.23804 
L 241.7045 136.144704 
Q 241.7045 136.42487 241.9925 136.42487 
z
" clip-path="url(#p84cfeb1f3c)" style="fill: #22c55e; stroke: #22c55e; stroke-linejoin: miter"/>
   </g>
   <g id="patch_18">
    <path d="M 256.3925 101.041749 
L 266.4725 101.041749 
Q 266.7605 101.041749 266.7605 100.761584 
L 266.7605 81.418951 
Q 266.7605 81.138786 266.4725 81.138786 
L 256.3925 81.138786 
Q 256.1045 81.138786 256.1045 81.418951 
L 256.1045 100.761584 
Q 256.1045 101.041749 256.3925 101.041749 
z
" clip-path="url(#p84cfeb1f3c)" style="fill: #ef4444; stroke: #ef4444; stroke-linejoin: miter"/>
   </g>
   <g id="patch_19">
    <path d="M 270.7925 92.420269 
L 280.8725 92.420269 
Q 281.1605 92.420269 281.1605 92.140104 
L 281.1605 78.564995 
Q 281.1605 78.28483 280.8725 78.28483 
L 270.7925 78.28483 
Q 270.5045 78.28483 270.5045 78.564995 
L 270.5045 92.140104 
Q 270.5045 92.420269 270.7925 92.420269 
z
" clip-path="url(#p84cfeb1f3c)" style="fill: #ef4444; stroke: #ef4444; stroke-linejoin: miter"/>
   </g>
   <g id="patch_20">
    <path d="M 285.1925 105.04618 
L 295.2725 105.04618 
Q 295.5605 105.04618 295.5605 104.766014 
L 295.5605 86.036582 
Q 295.5605 85.756416 295.2725 85.756416 
L 285.1925 85.756416 
Q 284.9045 85.756416 284.9045 86.036582 
L 284.9045 104.766014 
Q 284.9045 105.04618 285.1925 105.04618 
z
" clip-path="url(#p84cfeb1f3c)" style="fill: #22c55e; stroke: #22c55e; stroke-linejoin: miter"/>
   </g>
   <g id="patch_21">
    <path d="M 299.5925 103.16331 
L 309.6725 103.16331 
Q 309.9605 103.16331 309.9605 102.883144 
L 309.9605 84.501711 
Q 309.9605 84.221545 309.6725 84.221545 
L 299.5925 84.221545 
Q 299.3045 84.221545 299.3045 84.501711 
L 299.3045 102.883144 
Q 299.3045 103.16331 299.5925 103.16331 
z
" clip-path="url(#p84cfeb1f3c)" style="fill: #22c55e; stroke: #22c55e; stroke-linejoin: miter"/>
   </g>
   <g id="patch_22">
    <path d="M 313.9925 79.249429 
L 324.0725 79.249429 
Q 324.3605 79.249429 324.3605 78.969264 
L 324.3605 66.39621 
Q 324.3605 66.116045 324.0725 66.116045 
L 313.9925 66.116045 
Q 313.7045 66.116045 313.7045 66.39621 
L 313.7045 78.969264 
Q 313.7045 79.249429 313.9925 79.249429 
z
" clip-path="url(#p84cfeb1f3c)" style="fill: #ef4444; stroke: #ef4444; stroke-linejoin: miter"/>
   </g>
   <g id="patch_23">
    <path d="M 328.3925 94.579138 
L 338.4725 94.579138 
Q 338.7605 94.579138 338.7605 94.298973 
L 338.7605 73.714933 
Q 338.7605 73.434768 338.4725 73.434768 
L 328.3925 73.434768 
Q 328.1045 73.434768 328.1045 73.714933 
L 328.1045 94.298973 
Q 328.1045 94.579138 328.3925 94.579138 
z
" clip-path="url(#p84cfeb1f3c)" style="fill: #ef4444; stroke: #ef4444; stroke-linejoin: miter"/>
   </g>
   <g id="patch_24">
    <path d="M 342.7925 92.28457 
L 352.8725 92.28457 
Q 353.1605 92.28457 353.1605 92.004404 
L 353.1605 82.33953 
Q 353.1605 82.059364 352.8725 82.059364 
L 342.7925 82.059364 
Q 342.5045 82.059364 342.5045 82.33953 
L 342.5045 92.004404 
Q 342.5045 92.28457 342.7925 92.28457 
z
" clip-path="url(#p84cfeb1f3c)" style="fill: #22c55e; stroke: #22c55e; stroke-linejoin: miter"/>
   </g>
   <g id="patch_25">
    <path d="M 357.1925 70.452171 
L 367.2725 70.452171 
Q 367.5605 70.452171 367.5605 70.172005 
L 367.5605 53.494473 
Q 367.5605 53.214307 367.2725 53.214307 
L 357.1925 53.214307 
Q 356.9045 53.214307 356.9045 53.494473 
L 356.9045 70.172005 
Q 356.9045 70.452171 357.1925 70.452171 
z
" clip-path="url(#p84cfeb1f3c)" style="fill: #22c55e; stroke: #22c55e; stroke-linejoin: miter"/>
   </g>
   <g id="patch_26">
    <path d="M 371.5925 74.299248 
L 381.6725 74.299248 
Q 381.9605 74.299248 381.9605 74.019083 
L 381.9605 55.149954 
Q 381.9605 54.869788 381.6725 54.869788 
L 371.5925 54.869788 
Q 371.3045 54.869788 371.3045 55.149954 
L 371.3045 74.019083 
Q 371.3045 74.299248 371.5925 74.299248 
z
" clip-path="url(#p84cfeb1f3c)" style="fill: #ef4444; stroke: #ef4444; stroke-linejoin: miter"/>
   </g>
   <g id="patch_27">
    <path d="M 385.9925 82.590158 
L 396.0725 82.590158 
Q 396.3605 82.590158 396.3605 82.309992 
L 396.3605 77.810925 
Q 396.3605 77.530759 396.0725 77.530759 
L 385.9925 77.530759 
Q 385.7045 77.530759 385.7045 77.810925 
L 385.7045 82.309992 
Q 385.7045 82.590158 385.9925 82.590158 
z
" clip-path="url(#p84cfeb1f3c)" style="fill: #22c55e; stroke: #22c55e; stroke-linejoin: miter"/>
   </g>
   <g id="patch_28">
    <path d="M 400.3925 98.461617 
L 410.4725 98.461617 
Q 410.7605 98.461617 410.7605 98.181451 
L 410.7605 81.622287 
Q 410.7605 81.342121 410.4725 81.342121 
L 400.3925 81.342121 
Q 400.1045 81.342121 400.1045 81.622287 
L 400.1045 98.181451 
Q 400.1045 98.461617 400.3925 98.461617 
z
" clip-path="url(#p84cfeb1f3c)" style="fill: #22c55e; stroke: #22c55e; stroke-linejoin: miter"/>
   </g>
   <g id="patch_29">
    <path d="M 414.7925 119.527135 
L 424.8725 119.527135 
Q 425.1605 119.527135 425.1605 119.246969 
L 425.1605 105.878898 
Q 425.1605 105.598732 424.8725 105.598732 
L 414.7925 105.598732 
Q 414.5045 105.598732 414.5045 105.878898 
L 414.5045 119.246969 
Q 414.5045 119.527135 414.7925 119.527135 
z
" clip-path="url(#p84cfeb1f3c)" style="fill: #22c55e; stroke: #22c55e; stroke-linejoin: miter"/>
   </g>
   <g id="patch_30">
    <path d="M 429.1925 110.021014 
L 439.2725 110.021014 
Q 439.5605 110.021014 439.5605 109.740848 
L 439.5605 103.105088 
Q 439.5605 102.824923 439.2725 102.824923 
L 429.1925 102.824923 
Q 428.9045 102.824923 428.9045 103.105088 
L 428.9045 109.740848 
Q 428.9045 110.021014 429.1925 110.021014 
z
" clip-path="url(#p84cfeb1f3c)" style="fill: #22c55e; stroke: #22c55e; stroke-linejoin: miter"/>
   </g>
   <g id="patch_31">
    <path d="M 443.5925 119.560468 
L 453.6725 119.560468 
Q 453.9605 119.560468 453.9605 119.280302 
L 453.9605 114.661936 
Q 453.9605 114.381771 453.6725 114.381771 
L 443.5925 114.381771 
Q 443.3045 114.381771 443.3045 114.661936 
L 443.3045 119.280302 
Q 443.3045 119.560468 443.5925 119.560468 
z
" clip-path="url(#p84cfeb1f3c)" style="fill: #ef4444; stroke: #ef4444; stroke-linejoin: miter"/>
   </g>
   <g id="patch_32">
    <path d="M 457.9925 119.560468 
L 468.0725 119.560468 
Q 468.3605 119.560468 468.3605 119.280302 
L 468.3605 118.579888 
Q 468.3605 118.299723 468.0725 118.299723 
L 457.9925 118.299723 
Q 457.7045 118.299723 457.7045 118.579888 
L 457.7045 119.280302 
Q 457.7045 119.560468 457.9925 119.560468 
z
" clip-path="url(#p84cfeb1f3c)" style="fill: #22c55e; stroke: #22c55e; stroke-linejoin: miter"/>
   </g>
   <g id="matplotlib.axis_1">
    <g id="xtick_1">
     <g id="line2d_1">
      <path d="M 45.4325 193.58154 
L 45.4325 31.318125 
" clip-path="url(#p84cfeb1f3c)" style="fill: none; stroke-dasharray: 2.96,1.28; stroke-dashoffset: 0; stroke: #374151; stroke-opacity: 0.1; stroke-width: 0.8"/>
     </g>
     <g id="line2d_2">
      <defs>
       <path id="mf786be3dcf" d="M 0 0 
L 0 3.5 
" style="stroke: #9ca3af; stroke-width: 0.8"/>
      </defs>
      <g>
       <use xlink:href="#mf786be3dcf" x="45.4325" y="193.58154" style="fill: #9ca3af; stroke: #9ca3af; stroke-width: 0.8"/>
      </g>
     </g>
    </g>
    <g id="xtick_2">
     <g id="line2d_3">
      <path d="M 117.4325 193.58154 
L 117.4325 31.318125 
" clip-path="url(#p84cfeb1f3c)" style="fill: none; stroke-dasharray: 2.96,1.28; stroke-dashoffset: 0; stroke: #374151; stroke-opacity: 0.1; stroke-width: 0.8"/>
     </g>
     <g id="line2d_4">
      <g>
       <use xlink:href="#mf786be3dcf" x="117.4325" y="193.58154" style="fill: #9ca3af; stroke: #9ca3af; stroke-width: 0.8"/>
      </g>
     </g>
    </g>
    <g id="xtick_3">
     <g id="line2d_5">
      <path d="M 189.4325 193.58154 
L 189.4325 31.318125 
" clip-path="url(#p84cfeb1f3c)" style="fill: none; stroke-dasharray: 2.96,1.28; stroke-dashoffset: 0; stroke: #374151; stroke-opacity: 0.1; stroke-width: 0.8"/>
     </g>
     <g id="line2d_6">
      <g>
       <use xlink:href="#mf786be3dcf" x="189.4325" y="193.58154" style="fill: #9ca3af; stroke: #9ca3af; stroke-width: 0.8"/>
      </g>
     </g>
    </g>
    <g id="xtick_4">
     <g id="line2d_7">
      <path d="M 261.4325 193.58154 
L 261.4325 31.318125 
" clip-path="url(#p84cfeb1f3c)" style="fill: none; stroke-dasharray: 2.96,1.28; stroke-dashoffset: 0; stroke: #374151; stroke-opacity: 0.1; stroke-width: 0.8"/>
     </g>
     <g id="line2d_8">
      <g>
       <use xlink:href="#mf786be3dcf" x="261.4325" y="193.58154" style="fill: #9ca3af; stroke: #9ca3af; stroke-width: 0.8"/>
      </g>
     </g>
    </g>
    <g id="xtick_5">
     <g id="line2d_9">
      <path d="M 333.4325 193.58154 
L 333.4325 31.318125 
" clip-path="url(#p84cfeb1f3c)" style="fill: none; stroke-dasharray: 2.96,1.28; stroke-dashoffset: 0; stroke: #374151; stroke-opacity: 0.1; stroke-width: 0.8"/>
     </g>
     <g id="line2d_10">
      <g>
       <use xlink:href="#mf786be3dcf" x="333.4325" y="193.58154" style="fill: #9ca3af; stroke: #9ca3af; stroke-width: 0.8"/>
      </g>
     </g>
    </g>
    <g id="xtick_6">
     <g id="line2d_11">
      <path d="M 405.4325 193.58154 
L 405.4325 31.318125 
" clip-path="url(#p84cfeb1f3c)" style="fill: none; stroke-dasharray: 2.96,1.28; stroke-dashoffset: 0; stroke: #374151; stroke-opacity: 0.1; stroke-width: 0.8"/>
     </g>
     <g id="line2d_12">
      <g>
       <use xlink:href="#mf786be3dcf" x="405.4325" y="193.58154" style="fill: #9ca3af; stroke: #9ca3af; stroke-width: 0.8"/>
      </g>
     </g>
    </g>
    <g id="xtick_7">
     <g id="line2d_13">
      <path d="M 477.4325 193.58154 
L 477.4325 31.318125 
" clip-path="url(#p84cfeb1f3c)" style="fill: none; stroke-dasharray: 2.96,1.28; stroke-dashoffset: 0; stroke: #374151; stroke-opacity: 0.1; stroke-width: 0.8"/>
     </g>
     <g id="line2d_14">
      <g>
       <use xlink:href="#mf786be3dcf" x="477.4325" y="193.58154" style="fill: #9ca3af; stroke: #9ca3af; stroke-width: 0.8"/>
      </g>
     </g>
    </g>
   </g>
   <g id="matplotlib.axis_2">
    <g id="ytick_1">
     <g id="line2d_15">
      <path d="M 31.0325 182.366855 
L 477.4325 182.366855 
" clip-path="url(#p84cfeb1f3c)" style="fill: none; stroke-dasharray: 2.96,1.28; stroke-dashoffset: 0; stroke: #374151; stroke-opacity: 0.1; stroke-width: 0.8"/>
     </g>
     <g id="line2d_16">
      <defs>
       <path id="m5cbaa97ae6" d="M 0 0 
L -3.5 0 
" style="stroke: #9ca3af; stroke-width: 0.8"/>
      </defs>
      <g>
       <use xlink:href="#m5cbaa97ae6" x="31.0325" y="182.366855" style="fill: #9ca3af; stroke: #9ca3af; stroke-width: 0.8"/>
      </g>
     </g>
     <g id="text_1">
      <!-- 98 -->
      <g style="fill: #9ca3af" transform="translate(13.8525 185.40623) scale(0.08 -0.08)">
       <defs>
        <path id="DejaVuSans-39" d="M 703 97 
L 703 672 
Q 941 559 1184 500 
Q 1428 441 1663 441 
Q 2288 441 2617 861 
Q 2947 1281 2994 2138 
Q 2813 1869 2534 1725 
Q 2256 1581 1919 1581 
Q 1219 1581 811 2004 
Q 403 2428 403 3163 
Q 403 3881 828 4315 
Q 1253 4750 1959 4750 
Q 2769 4750 3195 4129 
Q 3622 3509 3622 2328 
Q 3622 1225 3098 567 
Q 2575 -91 1691 -91 
Q 1453 -91 1209 -44 
Q 966 3 703 97 
z
M 1959 2075 
Q 2384 2075 2632 2365 
Q 2881 2656 2881 3163 
Q 2881 3666 2632 3958 
Q 2384 4250 1959 4250 
Q 1534 4250 1286 3958 
Q 1038 3666 1038 3163 
Q 1038 2656 1286 2365 
Q 1534 2075 1959 2075 
z
" transform="scale(0.015625)"/>
        <path id="DejaVuSans-38" d="M 2034 2216 
Q 1584 2216 1326 1975 
Q 1069 1734 1069 1313 
Q 1069 891 1326 650 
Q 1584 409 2034 409 
Q 2484 409 2743 651 
Q 3003 894 3003 1313 
Q 3003 1734 2745 1975 
Q 2488 2216 2034 2216 
z
M 1403 2484 
Q 997 2584 770 2862 
Q 544 3141 544 3541 
Q 544 4100 942 4425 
Q 1341 4750 2034 4750 
Q 2731 4750 3128 4425 
Q 3525 4100 3525 3541 
Q 3525 3141 3298 2862 
Q 3072 2584 2669 2484 
Q 3125 2378 3379 2068 
Q 3634 1759 3634 1313 
Q 3634 634 3220 271 
Q 2806 -91 2034 -91 
Q 1263 -91 848 271 
Q 434 634 434 1313 
Q 434 1759 690 2068 
Q 947 2378 1403 2484 
z
M 1172 3481 
Q 1172 3119 1398 2916 
Q 1625 2713 2034 2713 
Q 2441 2713 2670 2916 
Q 2900 3119 2900 3481 
Q 2900 3844 2670 4047 
Q 2441 4250 2034 4250 
Q 1625 4250 1398 4047 
Q 1172 3844 1172 3481 
z
" transform="scale(0.015625)"/>
       </defs>
       <use xlink:href="#DejaVuSans-39"/>
       <use xlink:href="#DejaVuSans-38" transform="translate(63.623047 0)"/>
      </g>
     </g>
    </g>
    <g id="ytick_2">
     <g id="line2d_17">
      <path d="M 31.0325 154.3503 
L 477.4325 154.3503 
" clip-path="url(#p84cfeb1f3c)" style="fill: none; stroke-dasharray: 2.96,1.28; stroke-dashoffset: 0; stroke: #374151; stroke-opacity: 0.1; stroke-width: 0.8"/>
     </g>
     <g id="line2d_18">
      <g>
       <use xlink:href="#m5cbaa97ae6" x="31.0325" y="154.3503" style="fill: #9ca3af; stroke: #9ca3af; stroke-width: 0.8"/>
      </g>
     </g>
     <g id="text_2">
      <!-- 100 -->
      <g style="fill: #9ca3af" transform="translate(8.7625 157.389675) scale(0.08 -0.08)">
       <defs>
        <path id="DejaVuSans-31" d="M 794 531 
L 1825 531 
L 1825 4091 
L 703 3866 
L 703 4441 
L 1819 4666 
L 2450 4666 
L 2450 531 
L 3481 531 
L 3481 0 
L 794 0 
L 794 531 
z
" transform="scale(0.015625)"/>
        <path id="DejaVuSans-30" d="M 2034 4250 
Q 1547 4250 1301 3770 
Q 1056 3291 1056 2328 
Q 1056 1369 1301 889 
Q 1547 409 2034 409 
Q 2525 409 2770 889 
Q 3016 1369 3016 2328 
Q 3016 3291 2770 3770 
Q 2525 4250 2034 4250 
z
M 2034 4750 
Q 2819 4750 3233 4129 
Q 3647 3509 3647 2328 
Q 3647 1150 3233 529 
Q 2819 -91 2034 -91 
Q 1250 -91 836 529 
Q 422 1150 422 2328 
Q 422 3509 836 4129 
Q 1250 4750 2034 4750 
z
" transform="scale(0.015625)"/>
       </defs>
       <use xlink:href="#DejaVuSans-31"/>
       <use xlink:href="#DejaVuSans-30" transform="translate(63.623047 0)"/>
       <use xlink:href="#DejaVuSans-30" transform="translate(127.246094 0)"/>
      </g>
     </g>
    </g>
    <g id="ytick_3">
     <g id="line2d_19">
      <path d="M 31.0325 126.333744 
L 477.4325 126.333744 
" clip-path="url(#p84cfeb1f3c)" style="fill: none; stroke-dasharray: 2.96,1.28; stroke-dashoffset: 0; stroke: #374151; stroke-opacity: 0.1; stroke-width: 0.8"/>
     </g>
     <g id="line2d_20">
      <g>
       <use xlink:href="#m5cbaa97ae6" x="31.0325" y="126.333744" style="fill: #9ca3af; stroke: #9ca3af; stroke-width: 0.8"/>
      </g>
     </g>
     <g id="text_3">
      <!-- 102 -->
      <g style="fill: #9ca3af" transform="translate(8.7625 129.373119) scale(0.08 -0.08)">
       <defs>
        <path id="DejaVuSans-32" d="M 1228 531 
L 3431 531 
L 3431 0 
L 469 0 
L 469 531 
Q 828 903 1448 1529 
Q 2069 2156 2228 2338 
Q 2531 2678 2651 2914 
Q 2772 3150 2772 3378 
Q 2772 3750 2511 3984 
Q 2250 4219 1831 4219 
Q 1534 4219 1204 4116 
Q 875 4013 500 3803 
L 500 4441 
Q 881 4594 1212 4672 
Q 1544 4750 1819 4750 
Q 2544 4750 2975 4387 
Q 3406 4025 3406 3419 
Q 3406 3131 3298 2873 
Q 3191 2616 2906 2266 
Q 2828 2175 2409 1742 
Q 1991 1309 1228 531 
z
" transform="scale(0.015625)"/>
       </defs>
       <use xlink:href="#DejaVuSans-31"/>
       <use xlink:href="#DejaVuSans-30" transform="translate(63.623047 0)"/>
       <use xlink:href="#DejaVuSans-32" transform="translate(127.246094 0)"/>
      </g>
     </g>
    </g>
    <g id="ytick_4">
     <g id="line2d_21">
      <path d="M 31.0325 98.317188 
L 477.4325 98.317188 
" clip-path="url(#p84cfeb1f3c)" style="fill: none; stroke-dasharray: 2.96,1.28; stroke-dashoffset: 0; stroke: #374151; stroke-opacity: 0.1; stroke-width: 0.8"/>
     </g>
     <g id="line2d_22">
      <g>
       <use xlink:href="#m5cbaa97ae6" x="31.0325" y="98.317188" style="fill: #9ca3af; stroke: #9ca3af; stroke-width: 0.8"/>
      </g>
     </g>
     <g id="text_4">
      <!-- 104 -->
      <g style="fill: #9ca3af" transform="translate(8.7625 101.356563) scale(0.08 -0.08)">
       <defs>
        <path id="DejaVuSans-34" d="M 2419 4116 
L 825 1625 
L 2419 1625 
L 2419 4116 
z
M 2253 4666 
L 3047 4666 
L 3047 1625 
L 3713 1625 
L 3713 1100 
L 3047 1100 
L 3047 0 
L 2419 0 
L 2419 1100 
L 313 1100 
L 313 1709 
L 2253 4666 
z
" transform="scale(0.015625)"/>
       </defs>
       <use xlink:href="#DejaVuSans-31"/>
       <use xlink:href="#DejaVuSans-30" transform="translate(63.623047 0)"/>
       <use xlink:href="#DejaVuSans-34" transform="translate(127.246094 0)"/>
      </g>
     </g>
    </g>
    <g id="ytick_5">
     <g id="line2d_23">
      <path d="M 31.0325 70.300632 
L 477.4325 70.300632 
" clip-path="url(#p84cfeb1f3c)" style="fill: none; stroke-dasharray: 2.96,1.28; stroke-dashoffset: 0; stroke: #374151; stroke-opacity: 0.1; stroke-width: 0.8"/>
     </g>
     <g id="line2d_24">
      <g>
       <use xlink:href="#m5cbaa97ae6" x="31.0325" y="70.300632" style="fill: #9ca3af; stroke: #9ca3af; stroke-width: 0.8"/>
      </g>
     </g>
     <g id="text_5">
      <!-- 106 -->
      <g style="fill: #9ca3af" transform="translate(8.7625 73.340007) scale(0.08 -0.08)">
       <defs>
        <path id="DejaVuSans-36" d="M 2113 2584 
Q 1688 2584 1439 2293 
Q 1191 2003 1191 1497 
Q 1191 994 1439 701 
Q 1688 409 2113 409 
Q 2538 409 2786 701 
Q 3034 994 3034 1497 
Q 3034 2003 2786 2293 
Q 2538 2584 2113 2584 
z
M 3366 4563 
L 3366 3988 
Q 3128 4100 2886 4159 
Q 2644 4219 2406 4219 
Q 1781 4219 1451 3797 
Q 1122 3375 1075 2522 
Q 1259 2794 1537 2939 
Q 1816 3084 2150 3084 
Q 2853 3084 3261 2657 
Q 3669 2231 3669 1497 
Q 3669 778 3244 343 
Q 2819 -91 2113 -91 
Q 1303 -91 875 529 
Q 447 1150 447 2328 
Q 447 3434 972 4092 
Q 1497 4750 2381 4750 
Q 2619 4750 2861 4703 
Q 3103 4656 3366 4563 
z
" transform="scale(0.015625)"/>
       </defs>
       <use xlink:href="#DejaVuSans-31"/>
       <use xlink:href="#DejaVuSans-30" transform="translate(63.623047 0)"/>
       <use xlink:href="#DejaVuSans-36" transform="translate(127.246094 0)"/>
      </g>
     </g>
    </g>
    <g id="ytick_6">
     <g id="line2d_25">
      <path d="M 31.0325 42.284076 
L 477.4325 42.284076 
" clip-path="url(#p84cfeb1f3c)" style="fill: none; stroke-dasharray: 2.96,1.28; stroke-dashoffset: 0; stroke: #374151; stroke-opacity: 0.1; stroke-width: 0.8"/>
     </g>
     <g id="line2d_26">
      <g>
       <use xlink:href="#m5cbaa97ae6" x="31.0325" y="42.284076" style="fill: #9ca3af; stroke: #9ca3af; stroke-width: 0.8"/>
      </g>
     </g>
     <g id="text_6">
      <!-- 108 -->
      <g style="fill: #9ca3af" transform="translate(8.7625 45.323451) scale(0.08 -0.08)">
       <use xlink:href="#DejaVuSans-31"/>
       <use xlink:href="#DejaVuSans-30" transform="translate(63.623047 0)"/>
       <use xlink:href="#DejaVuSans-38" transform="translate(127.246094 0)"/>
      </g>
     </g>
    </g>
   </g>
   <g id="line2d_27">
    <path d="M 45.4325 169.178141 
L 45.4325 142.911472 
" clip-path="url(#p84cfeb1f3c)" style="fill: none; stroke: #22c55e; stroke-width: 1.5; stroke-linecap: square"/>
   </g>
   <g id="line2d_28">
    <path d="M 59.8325 178.624621 
L 59.8325 155.49267 
" clip-path="url(#p84cfeb1f3c)" style="fill: none; stroke: #22c55e; stroke-width: 1.5; stroke-linecap: square"/>
   </g>
   <g id="line2d_29">
    <path d="M 74.2325 173.808365 
L 74.2325 140.050257 
" clip-path="url(#p84cfeb1f3c)" style="fill: none; stroke: #ef4444; stroke-width: 1.5; stroke-linecap: square"/>
   </g>
   <g id="line2d_30">
    <path d="M 88.6325 180.059588 
L 88.6325 157.088413 
" clip-path="url(#p84cfeb1f3c)" style="fill: none; stroke: #22c55e; stroke-width: 1.5; stroke-linecap: square"/>
   </g>
   <g id="line2d_31">
    <path d="M 103.0325 166.555101 
L 103.0325 143.643875 
" clip-path="url(#p84cfeb1f3c)" style="fill: none; stroke: #22c55e; stroke-width: 1.5; stroke-linecap: square"/>
   </g>
   <g id="line2d_32">
    <path d="M 117.4325 145.816964 
L 117.4325 114.610719 
" clip-path="url(#p84cfeb1f3c)" style="fill: none; stroke: #22c55e; stroke-width: 1.5; stroke-linecap: square"/>
   </g>
   <g id="line2d_33">
    <path d="M 131.8325 135.003713 
L 131.8325 102.487233 
" clip-path="url(#p84cfeb1f3c)" style="fill: none; stroke: #22c55e; stroke-width: 1.5; stroke-linecap: square"/>
   </g>
   <g id="line2d_34">
    <path d="M 146.2325 137.85899 
L 146.2325 109.744317 
" clip-path="url(#p84cfeb1f3c)" style="fill: none; stroke: #ef4444; stroke-width: 1.5; stroke-linecap: square"/>
   </g>
   <g id="line2d_35">
    <path d="M 160.6325 141.020199 
L 160.6325 104.600605 
" clip-path="url(#p84cfeb1f3c)" style="fill: none; stroke: #22c55e; stroke-width: 1.5; stroke-linecap: square"/>
   </g>
   <g id="line2d_36">
    <path d="M 175.0325 130.769111 
L 175.0325 102.979048 
" clip-path="url(#p84cfeb1f3c)" style="fill: none; stroke: #ef4444; stroke-width: 1.5; stroke-linecap: square"/>
   </g>
   <g id="line2d_37">
    <path d="M 189.4325 123.671983 
L 189.4325 85.656196 
" clip-path="url(#p84cfeb1f3c)" style="fill: none; stroke: #ef4444; stroke-width: 1.5; stroke-linecap: square"/>
   </g>
   <g id="line2d_38">
    <path d="M 203.8325 140.568294 
L 203.8325 115.749812 
" clip-path="url(#p84cfeb1f3c)" style="fill: none; stroke: #22c55e; stroke-width: 1.5; stroke-linecap: square"/>
   </g>
   <g id="line2d_39">
    <path d="M 218.2325 153.69448 
L 218.2325 122.29144 
" clip-path="url(#p84cfeb1f3c)" style="fill: none; stroke: #ef4444; stroke-width: 1.5; stroke-linecap: square"/>
   </g>
   <g id="line2d_40">
    <path d="M 232.6325 139.775817 
L 232.6325 125.172314 
" clip-path="url(#p84cfeb1f3c)" style="fill: none; stroke: #22c55e; stroke-width: 1.5; stroke-linecap: square"/>
   </g>
   <g id="line2d_41">
    <path d="M 247.0325 139.09684 
L 247.0325 112.081448 
" clip-path="url(#p84cfeb1f3c)" style="fill: none; stroke: #22c55e; stroke-width: 1.5; stroke-linecap: square"/>
   </g>
   <g id="line2d_42">
    <path d="M 261.4325 107.295266 
L 261.4325 74.21351 
" clip-path="url(#p84cfeb1f3c)" style="fill: none; stroke: #ef4444; stroke-width: 1.5; stroke-linecap: square"/>
   </g>
   <g id="line2d_43">
    <path d="M 275.8325 97.678897 
L 275.8325 67.598489 
" clip-path="url(#p84cfeb1f3c)" style="fill: none; stroke: #ef4444; stroke-width: 1.5; stroke-linecap: square"/>
   </g>
   <g id="line2d_44">
    <path d="M 290.2325 114.901643 
L 290.2325 83.664442 
" clip-path="url(#p84cfeb1f3c)" style="fill: none; stroke: #22c55e; stroke-width: 1.5; stroke-linecap: square"/>
   </g>
   <g id="line2d_45">
    <path d="M 304.6325 106.720147 
L 304.6325 82.441001 
" clip-path="url(#p84cfeb1f3c)" style="fill: none; stroke: #22c55e; stroke-width: 1.5; stroke-linecap: square"/>
   </g>
   <g id="line2d_46">
    <path d="M 319.0325 83.51426 
L 319.0325 55.507865 
" clip-path="url(#p84cfeb1f3c)" style="fill: none; stroke: #ef4444; stroke-width: 1.5; stroke-linecap: square"/>
   </g>
   <g id="line2d_47">
    <path d="M 333.4325 105.001245 
L 333.4325 64.654514 
" clip-path="url(#p84cfeb1f3c)" style="fill: none; stroke: #ef4444; stroke-width: 1.5; stroke-linecap: square"/>
   </g>
   <g id="line2d_48">
    <path d="M 347.8325 97.620433 
L 347.8325 74.252365 
" clip-path="url(#p84cfeb1f3c)" style="fill: none; stroke: #22c55e; stroke-width: 1.5; stroke-linecap: square"/>
   </g>
   <g id="line2d_49">
    <path d="M 362.2325 73.66461 
L 362.2325 44.840076 
" clip-path="url(#p84cfeb1f3c)" style="fill: none; stroke: #22c55e; stroke-width: 1.5; stroke-linecap: square"/>
   </g>
   <g id="line2d_50">
    <path d="M 376.6325 83.254044 
L 376.6325 52.529696 
" clip-path="url(#p84cfeb1f3c)" style="fill: none; stroke: #ef4444; stroke-width: 1.5; stroke-linecap: square"/>
   </g>
   <g id="line2d_51">
    <path d="M 391.0325 90.660928 
L 391.0325 72.788904 
" clip-path="url(#p84cfeb1f3c)" style="fill: none; stroke: #22c55e; stroke-width: 1.5; stroke-linecap: square"/>
   </g>
   <g id="line2d_52">
    <path d="M 405.4325 103.295244 
L 405.4325 76.062735 
" clip-path="url(#p84cfeb1f3c)" style="fill: none; stroke: #22c55e; stroke-width: 1.5; stroke-linecap: square"/>
   </g>
   <g id="line2d_53">
    <path d="M 419.8325 128.738756 
L 419.8325 100.01926 
" clip-path="url(#p84cfeb1f3c)" style="fill: none; stroke: #22c55e; stroke-width: 1.5; stroke-linecap: square"/>
   </g>
   <g id="line2d_54">
    <path d="M 434.2325 116.467727 
L 434.2325 92.908424 
" clip-path="url(#p84cfeb1f3c)" style="fill: none; stroke: #22c55e; stroke-width: 1.5; stroke-linecap: square"/>
   </g>
   <g id="line2d_55">
    <path d="M 448.6325 124.709926 
L 448.6325 111.756097 
" clip-path="url(#p84cfeb1f3c)" style="fill: none; stroke: #ef4444; stroke-width: 1.5; stroke-linecap: square"/>
   </g>
   <g id="line2d_56">
    <path d="M 463.0325 127.193038 
L 463.0325 112.262589 
" clip-path="url(#p84cfeb1f3c)" style="fill: none; stroke: #22c55e; stroke-width: 1.5; stroke-linecap: square"/>
   </g>
   <g id="patch_33">
    <path d="M 31.0325 193.58154 
L 31.0325 31.318125 
" style="fill: none; stroke: #1f2937; stroke-width: 0.8; stroke-linejoin: miter; stroke-linecap: square"/>
   </g>
   <g id="patch_34">
    <path d="M 31.0325 193.58154 
L 477.4325 193.58154 
" style="fill: none; stroke: #1f2937; stroke-width: 0.8; stroke-linejoin: miter; stroke-linecap: square"/>
   </g>
   <g id="text_7">
    <!-- Morning Doji Star — INTC 4H -->
    <g style="fill: #ffffff" transform="translate(157.483437 16.318125) scale(0.12 -0.12)">
     <defs>
      <path id="DejaVuSans-Bold-4d" d="M 588 4666 
L 2119 4666 
L 3181 2169 
L 4250 4666 
L 5778 4666 
L 5778 0 
L 4641 0 
L 4641 3413 
L 3566 897 
L 2803 897 
L 1728 3413 
L 1728 0 
L 588 0 
L 588 4666 
z
" transform="scale(0.015625)"/>
      <path id="DejaVuSans-Bold-6f" d="M 2203 2784 
Q 1831 2784 1636 2517 
Q 1441 2250 1441 1747 
Q 1441 1244 1636 976 
Q 1831 709 2203 709 
Q 2569 709 2762 976 
Q 2956 1244 2956 1747 
Q 2956 2250 2762 2517 
Q 2569 2784 2203 2784 
z
M 2203 3584 
Q 3106 3584 3614 3096 
Q 4122 2609 4122 1747 
Q 4122 884 3614 396 
Q 3106 -91 2203 -91 
Q 1297 -91 786 396 
Q 275 884 275 1747 
Q 275 2609 786 3096 
Q 1297 3584 2203 3584 
z
" transform="scale(0.015625)"/>
      <path id="DejaVuSans-Bold-72" d="M 3138 2547 
Q 2991 2616 2845 2648 
Q 2700 2681 2553 2681 
Q 2122 2681 1889 2404 
Q 1656 2128 1656 1613 
L 1656 0 
L 538 0 
L 538 3500 
L 1656 3500 
L 1656 2925 
Q 1872 3269 2151 3426 
Q 2431 3584 2822 3584 
Q 2878 3584 2943 3579 
Q 3009 3575 3134 3559 
L 3138 2547 
z
" transform="scale(0.015625)"/>
      <path id="DejaVuSans-Bold-6e" d="M 4056 2131 
L 4056 0 
L 2931 0 
L 2931 347 
L 2931 1631 
Q 2931 2084 2911 2256 
Q 2891 2428 2841 2509 
Q 2775 2619 2662 2680 
Q 2550 2741 2406 2741 
Q 2056 2741 1856 2470 
Q 1656 2200 1656 1722 
L 1656 0 
L 538 0 
L 538 3500 
L 1656 3500 
L 1656 2988 
Q 1909 3294 2193 3439 
Q 2478 3584 2822 3584 
Q 3428 3584 3742 3212 
Q 4056 2841 4056 2131 
z
" transform="scale(0.015625)"/>
      <path id="DejaVuSans-Bold-69" d="M 538 3500 
L 1656 3500 
L 1656 0 
L 538 0 
L 538 3500 
z
M 538 4863 
L 1656 4863 
L 1656 3950 
L 538 3950 
L 538 4863 
z
" transform="scale(0.015625)"/>
      <path id="DejaVuSans-Bold-67" d="M 2919 594 
Q 2688 288 2409 144 
Q 2131 0 1766 0 
Q 1125 0 706 504 
Q 288 1009 288 1791 
Q 288 2575 706 3076 
Q 1125 3578 1766 3578 
Q 2131 3578 2409 3434 
Q 2688 3291 2919 2981 
L 2919 3500 
L 4044 3500 
L 4044 353 
Q 4044 -491 3511 -936 
Q 2978 -1381 1966 -1381 
Q 1638 -1381 1331 -1331 
Q 1025 -1281 716 -1178 
L 716 -306 
Q 1009 -475 1290 -558 
Q 1572 -641 1856 -641 
Q 2406 -641 2662 -400 
Q 2919 -159 2919 353 
L 2919 594 
z
M 2181 2772 
Q 1834 2772 1640 2515 
Q 1447 2259 1447 1791 
Q 1447 1309 1634 1061 
Q 1822 813 2181 813 
Q 2531 813 2725 1069 
Q 2919 1325 2919 1791 
Q 2919 2259 2725 2515 
Q 2531 2772 2181 2772 
z
" transform="scale(0.015625)"/>
      <path id="DejaVuSans-Bold-20" transform="scale(0.015625)"/>
      <path id="DejaVuSans-Bold-44" d="M 1791 3756 
L 1791 909 
L 2222 909 
Q 2959 909 3348 1275 
Q 3738 1641 3738 2338 
Q 3738 3031 3350 3393 
Q 2963 3756 2222 3756 
L 1791 3756 
z
M 588 4666 
L 1856 4666 
Q 2919 4666 3439 4514 
Q 3959 4363 4331 4000 
Q 4659 3684 4818 3271 
Q 4978 2859 4978 2338 
Q 4978 1809 4818 1395 
Q 4659 981 4331 666 
Q 3956 303 3431 151 
Q 2906 0 1856 0 
L 588 0 
L 588 4666 
z
" transform="scale(0.015625)"/>
      <path id="DejaVuSans-Bold-6a" d="M 538 3500 
L 1656 3500 
L 1656 63 
Q 1656 -641 1318 -1011 
Q 981 -1381 341 -1381 
L -213 -1381 
L -213 -647 
L -19 -647 
Q 300 -647 419 -503 
Q 538 -359 538 63 
L 538 3500 
z
M 538 4863 
L 1656 4863 
L 1656 3950 
L 538 3950 
L 538 4863 
z
" transform="scale(0.015625)"/>
      <path id="DejaVuSans-Bold-53" d="M 3834 4519 
L 3834 3531 
Q 3450 3703 3084 3790 
Q 2719 3878 2394 3878 
Q 1963 3878 1756 3759 
Q 1550 3641 1550 3391 
Q 1550 3203 1689 3098 
Q 1828 2994 2194 2919 
L 2706 2816 
Q 3484 2659 3812 2340 
Q 4141 2022 4141 1434 
Q 4141 663 3683 286 
Q 3225 -91 2284 -91 
Q 1841 -91 1394 -6 
Q 947 78 500 244 
L 500 1259 
Q 947 1022 1364 901 
Q 1781 781 2169 781 
Q 2563 781 2772 912 
Q 2981 1044 2981 1288 
Q 2981 1506 2839 1625 
Q 2697 1744 2272 1838 
L 1806 1941 
Q 1106 2091 782 2419 
Q 459 2747 459 3303 
Q 459 4000 909 4375 
Q 1359 4750 2203 4750 
Q 2588 4750 2994 4692 
Q 3400 4634 3834 4519 
z
" transform="scale(0.015625)"/>
      <path id="DejaVuSans-Bold-74" d="M 1759 4494 
L 1759 3500 
L 2913 3500 
L 2913 2700 
L 1759 2700 
L 1759 1216 
Q 1759 972 1856 886 
Q 1953 800 2241 800 
L 2816 800 
L 2816 0 
L 1856 0 
Q 1194 0 917 276 
Q 641 553 641 1216 
L 641 2700 
L 84 2700 
L 84 3500 
L 641 3500 
L 641 4494 
L 1759 4494 
z
" transform="scale(0.015625)"/>
      <path id="DejaVuSans-Bold-61" d="M 2106 1575 
Q 1756 1575 1579 1456 
Q 1403 1338 1403 1106 
Q 1403 894 1545 773 
Q 1688 653 1941 653 
Q 2256 653 2472 879 
Q 2688 1106 2688 1447 
L 2688 1575 
L 2106 1575 
z
M 3816 1997 
L 3816 0 
L 2688 0 
L 2688 519 
Q 2463 200 2181 54 
Q 1900 -91 1497 -91 
Q 953 -91 614 226 
Q 275 544 275 1050 
Q 275 1666 698 1953 
Q 1122 2241 2028 2241 
L 2688 2241 
L 2688 2328 
Q 2688 2594 2478 2717 
Q 2269 2841 1825 2841 
Q 1466 2841 1156 2769 
Q 847 2697 581 2553 
L 581 3406 
Q 941 3494 1303 3539 
Q 1666 3584 2028 3584 
Q 2975 3584 3395 3211 
Q 3816 2838 3816 1997 
z
" transform="scale(0.015625)"/>
      <path id="DejaVuSans-Bold-2014" d="M 344 2156 
L 6056 2156 
L 6056 1350 
L 344 1350 
L 344 2156 
z
" transform="scale(0.015625)"/>
      <path id="DejaVuSans-Bold-49" d="M 588 4666 
L 1791 4666 
L 1791 0 
L 588 0 
L 588 4666 
z
" transform="scale(0.015625)"/>
      <path id="DejaVuSans-Bold-4e" d="M 588 4666 
L 1931 4666 
L 3628 1466 
L 3628 4666 
L 4769 4666 
L 4769 0 
L 3425 0 
L 1728 3200 
L 1728 0 
L 588 0 
L 588 4666 
z
" transform="scale(0.015625)"/>
      <path id="DejaVuSans-Bold-54" d="M 31 4666 
L 4331 4666 
L 4331 3756 
L 2784 3756 
L 2784 0 
L 1581 0 
L 1581 3756 
L 31 3756 
L 31 4666 
z
" transform="scale(0.015625)"/>
      <path id="DejaVuSans-Bold-43" d="M 4288 256 
Q 3956 84 3597 -3 
Q 3238 -91 2847 -91 
Q 1681 -91 1000 561 
Q 319 1213 319 2328 
Q 319 3447 1000 4098 
Q 1681 4750 2847 4750 
Q 3238 4750 3597 4662 
Q 3956 4575 4288 4403 
L 4288 3438 
Q 3953 3666 3628 3772 
Q 3303 3878 2944 3878 
Q 2300 3878 1931 3465 
Q 1563 3053 1563 2328 
Q 1563 1606 1931 1193 
Q 2300 781 2944 781 
Q 3303 781 3628 887 
Q 3953 994 4288 1222 
L 4288 256 
z
" transform="scale(0.015625)"/>
      <path id="DejaVuSans-Bold-34" d="M 2356 3675 
L 1038 1722 
L 2356 1722 
L 2356 3675 
z
M 2156 4666 
L 3494 4666 
L 3494 1722 
L 4159 1722 
L 4159 850 
L 3494 850 
L 3494 0 
L 2356 0 
L 2356 850 
L 288 850 
L 288 1881 
L 2156 4666 
z
" transform="scale(0.015625)"/>
      <path id="DejaVuSans-Bold-48" d="M 588 4666 
L 1791 4666 
L 1791 2888 
L 3566 2888 
L 3566 4666 
L 4769 4666 
L 4769 0 
L 3566 0 
L 3566 1978 
L 1791 1978 
L 1791 0 
L 588 0 
L 588 4666 
z
" transform="scale(0.015625)"/>
     </defs>
     <use xlink:href="#DejaVuSans-Bold-4d"/>
     <use xlink:href="#DejaVuSans-Bold-6f" transform="translate(99.511719 0)"/>
     <use xlink:href="#DejaVuSans-Bold-72" transform="translate(168.212891 0)"/>
     <use xlink:href="#DejaVuSans-Bold-6e" transform="translate(217.529297 0)"/>
     <use xlink:href="#DejaVuSans-Bold-69" transform="translate(288.720703 0)"/>
     <use xlink:href="#DejaVuSans-Bold-6e" transform="translate(322.998047 0)"/>
     <use xlink:href="#DejaVuSans-Bold-67" transform="translate(394.189453 0)"/>
     <use xlink:href="#DejaVuSans-Bold-20" transform="translate(465.771484 0)"/>
     <use xlink:href="#DejaVuSans-Bold-44" transform="translate(500.585938 0)"/>
     <use xlink:href="#DejaVuSans-Bold-6f" transform="translate(583.59375 0)"/>
     <use xlink:href="#DejaVuSans-Bold-6a" transform="translate(652.294922 0)"/>
     <use xlink:href="#DejaVuSans-Bold-69" transform="translate(686.572266 0)"/>
     <use xlink:href="#DejaVuSans-Bold-20" transform="translate(720.849609 0)"/>
     <use xlink:href="#DejaVuSans-Bold-53" transform="translate(755.664062 0)"/>
     <use xlink:href="#DejaVuSans-Bold-74" transform="translate(827.685547 0)"/>
     <use xlink:href="#DejaVuSans-Bold-61" transform="translate(875.488281 0)"/>
     <use xlink:href="#DejaVuSans-Bold-72" transform="translate(942.96875 0)"/>
     <use xlink:href="#DejaVuSans-Bold-20" transform="translate(992.285156 0)"/>
     <use xlink:href="#DejaVuSans-Bold-2014" transform="translate(1027.099609 0)"/>
     <use xlink:href="#DejaVuSans-Bold-20" transform="translate(1127.099609 0)"/>
     <use xlink:href="#DejaVuSans-Bold-49" transform="translate(1161.914062 0)"/>
     <use xlink:href="#DejaVuSans-Bold-4e" transform="translate(1199.121094 0)"/>
     <use xlink:href="#DejaVuSans-Bold-54" transform="translate(1282.8125 0)"/>
     <use xlink:href="#DejaVuSans-Bold-43" transform="translate(1351.025391 0)"/>
     <use xlink:href="#DejaVuSans-Bold-20" transform="translate(1424.414062 0)"/>
     <use xlink:href="#DejaVuSans-Bold-34" transform="translate(1459.228516 0)"/>
     <use xlink:href="#DejaVuSans-Bold-48" transform="translate(1528.808594 0)"/>
    </g>
   </g>
  </g>
  <g id="axes_2">
   <g id="patch_35">
    <path d="M 31.0325 253.078125 
L 477.4325 253.078125 
L 477.4325 198.99032 
L 31.0325 198.99032 
z
" style="fill: #0a0f1a"/>
   </g>
   <g id="patch_36">
    <path d="M 51.323409 253.078125 
L 60.888147 253.078125 
L 60.888147 220.019614 
L 51.323409 220.019614 
z
" clip-path="url(#p4a05f68cd9)" style="fill: #22c55e; fill-opacity: 0.266667"/>
   </g>
   <g id="patch_37">
    <path d="M 64.987321 253.078125 
L 74.552059 253.078125 
L 74.552059 215.2169 
L 64.987321 215.2169 
z
" clip-path="url(#p4a05f68cd9)" style="fill: #22c55e; fill-opacity: 0.266667"/>
   </g>
   <g id="patch_38">
    <path d="M 78.651233 253.078125 
L 88.215971 253.078125 
L 88.215971 203.738981 
L 78.651233 203.738981 
z
" clip-path="url(#p4a05f68cd9)" style="fill: #ef4444; fill-opacity: 0.266667"/>
   </g>
   <g id="patch_39">
    <path d="M 92.315145 253.078125 
L 101.879883 253.078125 
L 101.879883 209.801584 
L 92.315145 209.801584 
z
" clip-path="url(#p4a05f68cd9)" style="fill: #22c55e; fill-opacity: 0.266667"/>
   </g>
   <g id="patch_40">
    <path d="M 105.979056 253.078125 
L 115.543795 253.078125 
L 115.543795 203.15599 
L 105.979056 203.15599 
z
" clip-path="url(#p4a05f68cd9)" style="fill: #22c55e; fill-opacity: 0.266667"/>
   </g>
   <g id="patch_41">
    <path d="M 119.642968 253.078125 
L 129.207707 253.078125 
L 129.207707 205.263496 
L 119.642968 205.263496 
z
" clip-path="url(#p4a05f68cd9)" style="fill: #22c55e; fill-opacity: 0.266667"/>
   </g>
   <g id="patch_42">
    <path d="M 133.30688 253.078125 
L 142.871618 253.078125 
L 142.871618 223.111032 
L 133.30688 223.111032 
z
" clip-path="url(#p4a05f68cd9)" style="fill: #22c55e; fill-opacity: 0.266667"/>
   </g>
   <g id="patch_43">
    <path d="M 146.970792 253.078125 
L 156.53553 253.078125 
L 156.53553 226.728615 
L 146.970792 226.728615 
z
" clip-path="url(#p4a05f68cd9)" style="fill: #ef4444; fill-opacity: 0.266667"/>
   </g>
   <g id="patch_44">
    <path d="M 160.634704 253.078125 
L 170.199442 253.078125 
L 170.199442 215.087288 
L 160.634704 215.087288 
z
" clip-path="url(#p4a05f68cd9)" style="fill: #22c55e; fill-opacity: 0.266667"/>
   </g>
   <g id="patch_45">
    <path d="M 174.298616 253.078125 
L 183.863354 253.078125 
L 183.863354 201.56593 
L 174.298616 201.56593 
z
" clip-path="url(#p4a05f68cd9)" style="fill: #ef4444; fill-opacity: 0.266667"/>
   </g>
   <g id="patch_46">
    <path d="M 187.962528 253.078125 
L 197.527266 253.078125 
L 197.527266 240.300614 
L 187.962528 240.300614 
z
" clip-path="url(#p4a05f68cd9)" style="fill: #ef4444; fill-opacity: 0.266667"/>
   </g>
   <g id="patch_47">
    <path d="M 201.626439 253.078125 
L 211.191178 253.078125 
L 211.191178 207.1326 
L 201.626439 207.1326 
z
" clip-path="url(#p4a05f68cd9)" style="fill: #22c55e; fill-opacity: 0.266667"/>
   </g>
   <g id="patch_48">
    <path d="M 215.290351 253.078125 
L 224.85509 253.078125 
L 224.85509 235.629185 
L 215.290351 235.629185 
z
" clip-path="url(#p4a05f68cd9)" style="fill: #ef4444; fill-opacity: 0.266667"/>
   </g>
   <g id="patch_49">
    <path d="M 228.954263 253.078125 
L 238.519001 253.078125 
L 238.519001 228.579066 
L 228.954263 228.579066 
z
" clip-path="url(#p4a05f68cd9)" style="fill: #22c55e; fill-opacity: 0.266667"/>
   </g>
   <g id="patch_50">
    <path d="M 242.618175 253.078125 
L 252.182913 253.078125 
L 252.182913 229.600098 
L 242.618175 229.600098 
z
" clip-path="url(#p4a05f68cd9)" style="fill: #22c55e; fill-opacity: 0.266667"/>
   </g>
   <g id="patch_51">
    <path d="M 256.282087 253.078125 
L 265.846825 253.078125 
L 265.846825 210.508289 
L 256.282087 210.508289 
z
" clip-path="url(#p4a05f68cd9)" style="fill: #ef4444; fill-opacity: 0.266667"/>
   </g>
   <g id="patch_52">
    <path d="M 269.945999 253.078125 
L 279.510737 253.078125 
L 279.510737 212.201923 
L 269.945999 212.201923 
z
" clip-path="url(#p4a05f68cd9)" style="fill: #ef4444; fill-opacity: 0.266667"/>
   </g>
   <g id="patch_53">
    <path d="M 283.60991 253.078125 
L 293.174649 253.078125 
L 293.174649 211.663499 
L 283.60991 211.663499 
z
" clip-path="url(#p4a05f68cd9)" style="fill: #22c55e; fill-opacity: 0.266667"/>
   </g>
   <g id="patch_54">
    <path d="M 297.273822 253.078125 
L 306.838561 253.078125 
L 306.838561 241.022358 
L 297.273822 241.022358 
z
" clip-path="url(#p4a05f68cd9)" style="fill: #22c55e; fill-opacity: 0.266667"/>
   </g>
   <g id="patch_55">
    <path d="M 310.937734 253.078125 
L 320.502472 253.078125 
L 320.502472 239.752574 
L 310.937734 239.752574 
z
" clip-path="url(#p4a05f68cd9)" style="fill: #ef4444; fill-opacity: 0.266667"/>
   </g>
   <g id="patch_56">
    <path d="M 324.601646 253.078125 
L 334.166384 253.078125 
L 334.166384 202.232675 
L 324.601646 202.232675 
z
" clip-path="url(#p4a05f68cd9)" style="fill: #ef4444; fill-opacity: 0.266667"/>
   </g>
   <g id="patch_57">
    <path d="M 338.265558 253.078125 
L 347.830296 253.078125 
L 347.830296 213.476096 
L 338.265558 213.476096 
z
" clip-path="url(#p4a05f68cd9)" style="fill: #22c55e; fill-opacity: 0.266667"/>
   </g>
   <g id="patch_58">
    <path d="M 351.92947 253.078125 
L 361.494208 253.078125 
L 361.494208 237.478893 
L 351.92947 237.478893 
z
" clip-path="url(#p4a05f68cd9)" style="fill: #22c55e; fill-opacity: 0.266667"/>
   </g>
   <g id="patch_59">
    <path d="M 365.593382 253.078125 
L 375.15812 253.078125 
L 375.15812 202.552899 
L 365.593382 202.552899 
z
" clip-path="url(#p4a05f68cd9)" style="fill: #ef4444; fill-opacity: 0.266667"/>
   </g>
   <g id="patch_60">
    <path d="M 379.257293 253.078125 
L 388.822032 253.078125 
L 388.822032 228.659494 
L 379.257293 228.659494 
z
" clip-path="url(#p4a05f68cd9)" style="fill: #22c55e; fill-opacity: 0.266667"/>
   </g>
   <g id="patch_61">
    <path d="M 392.921205 253.078125 
L 402.485944 253.078125 
L 402.485944 232.797487 
L 392.921205 232.797487 
z
" clip-path="url(#p4a05f68cd9)" style="fill: #22c55e; fill-opacity: 0.266667"/>
   </g>
   <g id="patch_62">
    <path d="M 406.585117 253.078125 
L 416.149855 253.078125 
L 416.149855 229.255396 
L 406.585117 229.255396 
z
" clip-path="url(#p4a05f68cd9)" style="fill: #22c55e; fill-opacity: 0.266667"/>
   </g>
   <g id="patch_63">
    <path d="M 420.249029 253.078125 
L 429.813767 253.078125 
L 429.813767 219.121398 
L 420.249029 219.121398 
z
" clip-path="url(#p4a05f68cd9)" style="fill: #22c55e; fill-opacity: 0.266667"/>
   </g>
   <g id="patch_64">
    <path d="M 433.912941 253.078125 
L 443.477679 253.078125 
L 443.477679 227.250627 
L 433.912941 227.250627 
z
" clip-path="url(#p4a05f68cd9)" style="fill: #ef4444; fill-opacity: 0.266667"/>
   </g>
   <g id="patch_65">
    <path d="M 447.576853 253.078125 
L 457.141591 253.078125 
L 457.141591 216.469962 
L 447.576853 216.469962 
z
" clip-path="url(#p4a05f68cd9)" style="fill: #22c55e; fill-opacity: 0.266667"/>
   </g>
   <g id="matplotlib.axis_3">
    <g id="xtick_8">
     <g id="line2d_57">
      <path d="M 56.105778 253.078125 
L 56.105778 198.99032 
" clip-path="url(#p4a05f68cd9)" style="fill: none; stroke-dasharray: 2.96,1.28; stroke-dashoffset: 0; stroke: #374151; stroke-opacity: 0.1; stroke-width: 0.8"/>
     </g>
     <g id="line2d_58">
      <g>
       <use xlink:href="#mf786be3dcf" x="56.105778" y="253.078125" style="fill: #9ca3af; stroke: #9ca3af; stroke-width: 0.8"/>
      </g>
     </g>
     <g id="text_8">
      <!-- 0 -->
      <g style="fill: #9ca3af" transform="translate(53.560778 266.156875) scale(0.08 -0.08)">
       <use xlink:href="#DejaVuSans-30"/>
      </g>
     </g>
    </g>
    <g id="xtick_9">
     <g id="line2d_59">
      <path d="M 124.425337 253.078125 
L 124.425337 198.99032 
" clip-path="url(#p4a05f68cd9)" style="fill: none; stroke-dasharray: 2.96,1.28; stroke-dashoffset: 0; stroke: #374151; stroke-opacity: 0.1; stroke-width: 0.8"/>
     </g>
     <g id="line2d_60">
      <g>
       <use xlink:href="#mf786be3dcf" x="124.425337" y="253.078125" style="fill: #9ca3af; stroke: #9ca3af; stroke-width: 0.8"/>
      </g>
     </g>
     <g id="text_9">
      <!-- 5 -->
      <g style="fill: #9ca3af" transform="translate(121.880337 266.156875) scale(0.08 -0.08)">
       <defs>
        <path id="DejaVuSans-35" d="M 691 4666 
L 3169 4666 
L 3169 4134 
L 1269 4134 
L 1269 2991 
Q 1406 3038 1543 3061 
Q 1681 3084 1819 3084 
Q 2600 3084 3056 2656 
Q 3513 2228 3513 1497 
Q 3513 744 3044 326 
Q 2575 -91 1722 -91 
Q 1428 -91 1123 -41 
Q 819 9 494 109 
L 494 744 
Q 775 591 1075 516 
Q 1375 441 1709 441 
Q 2250 441 2565 725 
Q 2881 1009 2881 1497 
Q 2881 1984 2565 2268 
Q 2250 2553 1709 2553 
Q 1456 2553 1204 2497 
Q 953 2441 691 2322 
L 691 4666 
z
" transform="scale(0.015625)"/>
       </defs>
       <use xlink:href="#DejaVuSans-35"/>
      </g>
     </g>
    </g>
    <g id="xtick_10">
     <g id="line2d_61">
      <path d="M 192.744897 253.078125 
L 192.744897 198.99032 
" clip-path="url(#p4a05f68cd9)" style="fill: none; stroke-dasharray: 2.96,1.28; stroke-dashoffset: 0; stroke: #374151; stroke-opacity: 0.1; stroke-width: 0.8"/>
     </g>
     <g id="line2d_62">
      <g>
       <use xlink:href="#mf786be3dcf" x="192.744897" y="253.078125" style="fill: #9ca3af; stroke: #9ca3af; stroke-width: 0.8"/>
      </g>
     </g>
     <g id="text_10">
      <!-- 10 -->
      <g style="fill: #9ca3af" transform="translate(187.654897 266.156875) scale(0.08 -0.08)">
       <use xlink:href="#DejaVuSans-31"/>
       <use xlink:href="#DejaVuSans-30" transform="translate(63.623047 0)"/>
      </g>
     </g>
    </g>
    <g id="xtick_11">
     <g id="line2d_63">
      <path d="M 261.064456 253.078125 
L 261.064456 198.99032 
" clip-path="url(#p4a05f68cd9)" style="fill: none; stroke-dasharray: 2.96,1.28; stroke-dashoffset: 0; stroke: #374151; stroke-opacity: 0.1; stroke-width: 0.8"/>
     </g>
     <g id="line2d_64">
      <g>
       <use xlink:href="#mf786be3dcf" x="261.064456" y="253.078125" style="fill: #9ca3af; stroke: #9ca3af; stroke-width: 0.8"/>
      </g>
     </g>
     <g id="text_11">
      <!-- 15 -->
      <g style="fill: #9ca3af" transform="translate(255.974456 266.156875) scale(0.08 -0.08)">
       <use xlink:href="#DejaVuSans-31"/>
       <use xlink:href="#DejaVuSans-35" transform="translate(63.623047 0)"/>
      </g>
     </g>
    </g>
    <g id="xtick_12">
     <g id="line2d_65">
      <path d="M 329.384015 253.078125 
L 329.384015 198.99032 
" clip-path="url(#p4a05f68cd9)" style="fill: none; stroke-dasharray: 2.96,1.28; stroke-dashoffset: 0; stroke: #374151; stroke-opacity: 0.1; stroke-width: 0.8"/>
     </g>
     <g id="line2d_66">
      <g>
       <use xlink:href="#mf786be3dcf" x="329.384015" y="253.078125" style="fill: #9ca3af; stroke: #9ca3af; stroke-width: 0.8"/>
      </g>
     </g>
     <g id="text_12">
      <!-- 20 -->
      <g style="fill: #9ca3af" transform="translate(324.294015 266.156875) scale(0.08 -0.08)">
       <use xlink:href="#DejaVuSans-32"/>
       <use xlink:href="#DejaVuSans-30" transform="translate(63.623047 0)"/>
      </g>
     </g>
    </g>
    <g id="xtick_13">
     <g id="line2d_67">
      <path d="M 397.703574 253.078125 
L 397.703574 198.99032 
" clip-path="url(#p4a05f68cd9)" style="fill: none; stroke-dasharray: 2.96,1.28; stroke-dashoffset: 0; stroke: #374151; stroke-opacity: 0.1; stroke-width: 0.8"/>
     </g>
     <g id="line2d_68">
      <g>
       <use xlink:href="#mf786be3dcf" x="397.703574" y="253.078125" style="fill: #9ca3af; stroke: #9ca3af; stroke-width: 0.8"/>
      </g>
     </g>
     <g id="text_13">
      <!-- 25 -->
      <g style="fill: #9ca3af" transform="translate(392.613574 266.156875) scale(0.08 -0.08)">
       <use xlink:href="#DejaVuSans-32"/>
       <use xlink:href="#DejaVuSans-35" transform="translate(63.623047 0)"/>
      </g>
     </g>
    </g>
    <g id="xtick_14">
     <g id="line2d_69">
      <path d="M 466.023134 253.078125 
L 466.023134 198.99032 
" clip-path="url(#p4a05f68cd9)" style="fill: none; stroke-dasharray: 2.96,1.28; stroke-dashoffset: 0; stroke: #374151; stroke-opacity: 0.1; stroke-width: 0.8"/>
     </g>
     <g id="line2d_70">
      <g>
       <use xlink:href="#mf786be3dcf" x="466.023134" y="253.078125" style="fill: #9ca3af; stroke: #9ca3af; stroke-width: 0.8"/>
      </g>
     </g>
     <g id="text_14">
      <!-- 30 -->
      <g style="fill: #9ca3af" transform="translate(460.933134 266.156875) scale(0.08 -0.08)">
       <defs>
        <path id="DejaVuSans-33" d="M 2597 2516 
Q 3050 2419 3304 2112 
Q 3559 1806 3559 1356 
Q 3559 666 3084 287 
Q 2609 -91 1734 -91 
Q 1441 -91 1130 -33 
Q 819 25 488 141 
L 488 750 
Q 750 597 1062 519 
Q 1375 441 1716 441 
Q 2309 441 2620 675 
Q 2931 909 2931 1356 
Q 2931 1769 2642 2001 
Q 2353 2234 1838 2234 
L 1294 2234 
L 1294 2753 
L 1863 2753 
Q 2328 2753 2575 2939 
Q 2822 3125 2822 3475 
Q 2822 3834 2567 4026 
Q 2313 4219 1838 4219 
Q 1578 4219 1281 4162 
Q 984 4106 628 3988 
L 628 4550 
Q 988 4650 1302 4700 
Q 1616 4750 1894 4750 
Q 2613 4750 3031 4423 
Q 3450 4097 3450 3541 
Q 3450 3153 3228 2886 
Q 3006 2619 2597 2516 
z
" transform="scale(0.015625)"/>
       </defs>
       <use xlink:href="#DejaVuSans-33"/>
       <use xlink:href="#DejaVuSans-30" transform="translate(63.623047 0)"/>
      </g>
     </g>
    </g>
   </g>
   <g id="matplotlib.axis_4">
    <g id="ytick_7">
     <g id="line2d_71">
      <path d="M 31.0325 253.078125 
L 477.4325 253.078125 
" clip-path="url(#p4a05f68cd9)" style="fill: none; stroke-dasharray: 2.96,1.28; stroke-dashoffset: 0; stroke: #374151; stroke-opacity: 0.1; stroke-width: 0.8"/>
     </g>
     <g id="line2d_72">
      <g>
       <use xlink:href="#m5cbaa97ae6" x="31.0325" y="253.078125" style="fill: #9ca3af; stroke: #9ca3af; stroke-width: 0.8"/>
      </g>
     </g>
     <g id="text_15">
      <!-- 0 -->
      <g style="fill: #9ca3af" transform="translate(18.9425 256.1175) scale(0.08 -0.08)">
       <use xlink:href="#DejaVuSans-30"/>
      </g>
     </g>
    </g>
    <g id="ytick_8">
     <g id="line2d_73">
      <path d="M 31.0325 232.421158 
L 477.4325 232.421158 
" clip-path="url(#p4a05f68cd9)" style="fill: none; stroke-dasharray: 2.96,1.28; stroke-dashoffset: 0; stroke: #374151; stroke-opacity: 0.1; stroke-width: 0.8"/>
     </g>
     <g id="line2d_74">
      <g>
       <use xlink:href="#m5cbaa97ae6" x="31.0325" y="232.421158" style="fill: #9ca3af; stroke: #9ca3af; stroke-width: 0.8"/>
      </g>
     </g>
     <g id="text_16">
      <!-- 2 -->
      <g style="fill: #9ca3af" transform="translate(18.9425 235.460533) scale(0.08 -0.08)">
       <use xlink:href="#DejaVuSans-32"/>
      </g>
     </g>
    </g>
    <g id="ytick_9">
     <g id="line2d_75">
      <path d="M 31.0325 211.764192 
L 477.4325 211.764192 
" clip-path="url(#p4a05f68cd9)" style="fill: none; stroke-dasharray: 2.96,1.28; stroke-dashoffset: 0; stroke: #374151; stroke-opacity: 0.1; stroke-width: 0.8"/>
     </g>
     <g id="line2d_76">
      <g>
       <use xlink:href="#m5cbaa97ae6" x="31.0325" y="211.764192" style="fill: #9ca3af; stroke: #9ca3af; stroke-width: 0.8"/>
      </g>
     </g>
     <g id="text_17">
      <!-- 4 -->
      <g style="fill: #9ca3af" transform="translate(18.9425 214.803567) scale(0.08 -0.08)">
       <use xlink:href="#DejaVuSans-34"/>
      </g>
     </g>
    </g>
    <g id="text_18">
     <!-- Vol -->
     <g style="fill: #9ca3af" transform="translate(13.27875 232.019223) rotate(-90) scale(0.08 -0.08)">
      <defs>
       <path id="DejaVuSans-56" d="M 1831 0 
L 50 4666 
L 709 4666 
L 2188 738 
L 3669 4666 
L 4325 4666 
L 2547 0 
L 1831 0 
z
" transform="scale(0.015625)"/>
       <path id="DejaVuSans-6f" d="M 1959 3097 
Q 1497 3097 1228 2736 
Q 959 2375 959 1747 
Q 959 1119 1226 758 
Q 1494 397 1959 397 
Q 2419 397 2687 759 
Q 2956 1122 2956 1747 
Q 2956 2369 2687 2733 
Q 2419 3097 1959 3097 
z
M 1959 3584 
Q 2709 3584 3137 3096 
Q 3566 2609 3566 1747 
Q 3566 888 3137 398 
Q 2709 -91 1959 -91 
Q 1206 -91 779 398 
Q 353 888 353 1747 
Q 353 2609 779 3096 
Q 1206 3584 1959 3584 
z
" transform="scale(0.015625)"/>
       <path id="DejaVuSans-6c" d="M 603 4863 
L 1178 4863 
L 1178 0 
L 603 0 
L 603 4863 
z
" transform="scale(0.015625)"/>
      </defs>
      <use xlink:href="#DejaVuSans-56"/>
      <use xlink:href="#DejaVuSans-6f" transform="translate(60.658203 0)"/>
      <use xlink:href="#DejaVuSans-6c" transform="translate(121.839844 0)"/>
     </g>
    </g>
    <g id="text_19">
     <!-- 1e6 -->
     <g style="fill: #9ca3af" transform="translate(31.0325 195.99032) scale(0.1 -0.1)">
      <defs>
       <path id="DejaVuSans-65" d="M 3597 1894 
L 3597 1613 
L 953 1613 
Q 991 1019 1311 708 
Q 1631 397 2203 397 
Q 2534 397 2845 478 
Q 3156 559 3463 722 
L 3463 178 
Q 3153 47 2828 -22 
Q 2503 -91 2169 -91 
Q 1331 -91 842 396 
Q 353 884 353 1716 
Q 353 2575 817 3079 
Q 1281 3584 2069 3584 
Q 2775 3584 3186 3129 
Q 3597 2675 3597 1894 
z
M 3022 2063 
Q 3016 2534 2758 2815 
Q 2500 3097 2075 3097 
Q 1594 3097 1305 2825 
Q 1016 2553 972 2059 
L 3022 2063 
z
" transform="scale(0.015625)"/>
      </defs>
      <use xlink:href="#DejaVuSans-31"/>
      <use xlink:href="#DejaVuSans-65" transform="translate(63.623047 0)"/>
      <use xlink:href="#DejaVuSans-36" transform="translate(125.146484 0)"/>
     </g>
    </g>
   </g>
   <g id="patch_66">
    <path d="M 31.0325 253.078125 
L 31.0325 198.99032 
" style="fill: none; stroke: #1f2937; stroke-width: 0.8; stroke-linejoin: miter; stroke-linecap: square"/>
   </g>
   <g id="patch_67">
    <path d="M 31.0325 253.078125 
L 477.4325 253.078125 
" style="fill: none; stroke: #1f2937; stroke-width: 0.8; stroke-linejoin: miter; stroke-linecap: square"/>
   </g>
  </g>
 </g>
 <defs>
  <clipPath id="p84cfeb1f3c">
   <rect x="31.0325" y="31.318125" width="446.4" height="162.263415"/>
  </clipPath>
  <clipPath id="p4a05f68cd9">
   <rect x="31.0325" y="198.99032" width="446.4" height="54.087805"/>
  </clipPath>
 </defs>
</svg>
